ISO-10303-21;
HEADER;
FILE_DESCRIPTION (( 'STEP AP214' ),
    '1' );
FILE_NAME ('il optimization.STEP',
    '2026-05-17T17:53:48',
    ( '' ),
    ( '' ),
    'SwSTEP 2.0',
    'SolidWorks 2026',
    '' );
FILE_SCHEMA (( 'AUTOMOTIVE_DESIGN' ));
ENDSEC;

DATA;
#1 = CARTESIAN_POINT ( 'NONE',  ( 112.5652235787996176, 49.49747468305852038, 55.49747468305813669 ) ) ;
#2 = VERTEX_POINT ( 'NONE', #762 ) ;
#3 = EDGE_CURVE ( 'NONE', #298, #797, #1014, .T. ) ;
#4 = ORIENTED_EDGE ( 'NONE', *, *, #303, .F. ) ;
#5 = CARTESIAN_POINT ( 'NONE',  ( 6.999999999999992006, 49.49747468305852038, 55.49747468305813669 ) ) ;
#6 = DIRECTION ( 'NONE',  ( 0.000000000000000000, 0.000000000000000000, -1.000000000000000000 ) ) ;
#7 = CARTESIAN_POINT ( 'NONE',  ( -196.0000000000000000, -15.00000000000000355, -14.99999999999999822 ) ) ;
#8 = ADVANCED_FACE ( 'NONE', ( #1147 ), #111, .T. ) ;
#9 = CARTESIAN_POINT ( 'NONE',  ( -196.0000000000000000, 23.60000000000000142, 9.108356170405185248E-15 ) ) ;
#10 = ORIENTED_EDGE ( 'NONE', *, *, #1207, .F. ) ;
#11 = ADVANCED_FACE ( 'NONE', ( #959 ), #1052, .F. ) ;
#12 = ORIENTED_EDGE ( 'NONE', *, *, #100, .T. ) ;
#13 = DIRECTION ( 'NONE',  ( 0.000000000000000000, 0.000000000000000000, -1.000000000000000000 ) ) ;
#14 = LINE ( 'NONE', #209, #102 ) ;
#15 = DIRECTION ( 'NONE',  ( 0.000000000000000000, 0.000000000000000000, -1.000000000000000000 ) ) ;
#16 = VERTEX_POINT ( 'NONE', #117 ) ;
#17 = AXIS2_PLACEMENT_3D ( 'NONE', #682, #781, #403 ) ;
#18 = ORIENTED_EDGE ( 'NONE', *, *, #793, .F. ) ;
#19 = DIRECTION ( 'NONE',  ( 1.000000000000000000, 0.000000000000000000, 0.000000000000000000 ) ) ;
#20 = DIRECTION ( 'NONE',  ( 1.000000000000000000, 0.000000000000000000, 0.000000000000000000 ) ) ;
#21 = DIRECTION ( 'NONE',  ( 1.000000000000000000, 0.000000000000000000, 0.000000000000000000 ) ) ;
#22 = EDGE_LOOP ( 'NONE', ( #278, #916, #54, #231 ) ) ;
#23 = VERTEX_POINT ( 'NONE', #404 ) ;
#24 = LINE ( 'NONE', #5, #564 ) ;
#25 = CIRCLE ( 'NONE', #789, 5.999999999999998224 ) ;
#26 = CARTESIAN_POINT ( 'NONE',  ( -196.0000000000000000, -2.701750790494728819E-16, 22.30614694161271316 ) ) ;
#27 = ORIENTED_EDGE ( 'NONE', *, *, #428, .F. ) ;
#28 = VERTEX_POINT ( 'NONE', #841 ) ;
#29 = FACE_BOUND ( 'NONE', #212, .T. ) ;
#30 = CARTESIAN_POINT ( 'NONE',  ( 6.999999999999992006, 49.49747468305791642, -55.49747468305866960 ) ) ;
#31 = DIRECTION ( 'NONE',  ( 1.000000000000000000, 0.000000000000000000, 0.000000000000000000 ) ) ;
#32 = CARTESIAN_POINT ( 'NONE',  ( 7.000000000000006217, 14.99999999999999645, 15.00000000000000178 ) ) ;
#33 = EDGE_CURVE ( 'NONE', #184, #560, #305, .T. ) ;
#34 = DIRECTION ( 'NONE',  ( 0.000000000000000000, 1.156482317317873105E-15, -1.000000000000000000 ) ) ;
#35 = MECHANICAL_DESIGN_GEOMETRIC_PRESENTATION_REPRESENTATION (  '', ( #624 ), #1210 ) ;
#36 = CARTESIAN_POINT ( 'NONE',  ( 0.000000000000000000, -49.49747468305884723, -49.49747468305779563 ) ) ;
#37 = CARTESIAN_POINT ( 'NONE',  ( 6.999999999999992006, 49.49747468305852038, 55.49747468305813669 ) ) ;
#38 = ORIENTED_EDGE ( 'NONE', *, *, #698, .T. ) ;
#39 = VERTEX_POINT ( 'NONE', #229 ) ;
#40 = CARTESIAN_POINT ( 'NONE',  ( -196.0000000000000000, -2.701750790494728819E-16, 25.80614694161271316 ) ) ;
#41 = AXIS2_PLACEMENT_3D ( 'NONE', #137, #1073, #235 ) ;
#42 = CARTESIAN_POINT ( 'NONE',  ( 0.000000000000000000, -15.00000000000000355, -14.99999999999999822 ) ) ;
#43 =( LENGTH_UNIT ( ) NAMED_UNIT ( * ) SI_UNIT ( .MILLI., .METRE. ) );
#44 = ADVANCED_FACE ( 'NONE', ( #1059 ), #434, .T. ) ;
#45 = ORIENTED_EDGE ( 'NONE', *, *, #98, .T. ) ;
#46 = ORIENTED_EDGE ( 'NONE', *, *, #573, .T. ) ;
#47 = CARTESIAN_POINT ( 'NONE',  ( 0.000000000000000000, 49.49747468305849907, 49.49747468305815090 ) ) ;
#48 = EDGE_CURVE ( 'NONE', #1122, #1195, #51, .T. ) ;
#49 = DIRECTION ( 'NONE',  ( 0.000000000000000000, 0.000000000000000000, -1.000000000000000000 ) ) ;
#50 = CARTESIAN_POINT ( 'NONE',  ( 7.000000000000006217, -49.49747468305832143, 52.49747468305832143 ) ) ;
#51 = CIRCLE ( 'NONE', #267, 2.249999999999998668 ) ;
#52 = PLANE ( 'NONE',  #77 ) ;
#53 = ORIENTED_EDGE ( 'NONE', *, *, #211, .F. ) ;
#54 = ORIENTED_EDGE ( 'NONE', *, *, #749, .T. ) ;
#55 = CIRCLE ( 'NONE', #213, 3.000000000000001332 ) ;
#56 = CARTESIAN_POINT ( 'NONE',  ( -196.0000000000000000, -15.00000000000000355, -12.75000000000000000 ) ) ;
#57 = CYLINDRICAL_SURFACE ( 'NONE', #593, 2.999999999999995559 ) ;
#58 = DIRECTION ( 'NONE',  ( 1.000000000000000000, 0.000000000000000000, 0.000000000000000000 ) ) ;
#59 = AXIS2_PLACEMENT_3D ( 'NONE', #178, #549, #1119 ) ;
#60 = LINE ( 'NONE', #713, #413 ) ;
#61 = ORIENTED_EDGE ( 'NONE', *, *, #597, .F. ) ;
#62 = VERTEX_POINT ( 'NONE', #335 ) ;
#63 = DIRECTION ( 'NONE',  ( 1.000000000000000000, 0.000000000000000000, 0.000000000000000000 ) ) ;
#64 = CARTESIAN_POINT ( 'NONE',  ( 0.000000000000000000, 49.49747468305792353, -55.49747468305866249 ) ) ;
#65 = CARTESIAN_POINT ( 'NONE',  ( 112.5652235787996176, 49.49747468305791642, -55.49747468305866960 ) ) ;
#66 = CIRCLE ( 'NONE', #768, 2.999999999999988898 ) ;
#67 = CARTESIAN_POINT ( 'NONE',  ( 0.000000000000000000, -15.00000000000000355, 15.00000000000000178 ) ) ;
#68 = AXIS2_PLACEMENT_3D ( 'NONE', #734, #444, #639 ) ;
#69 = ORIENTED_EDGE ( 'NONE', *, *, #837, .F. ) ;
#70 = ORIENTED_EDGE ( 'NONE', *, *, #391, .F. ) ;
#71 = DIRECTION ( 'NONE',  ( 0.000000000000000000, 0.000000000000000000, -1.000000000000000000 ) ) ;
#72 = CARTESIAN_POINT ( 'NONE',  ( 0.000000000000000000, -23.60000000000000142, 0.000000000000000000 ) ) ;
#73 = FACE_BOUND ( 'NONE', #331, .T. ) ;
#74 = ORIENTED_EDGE ( 'NONE', *, *, #569, .T. ) ;
#75 = EDGE_CURVE ( 'NONE', #1002, #426, #733, .T. ) ;
#76 = ORIENTED_EDGE ( 'NONE', *, *, #1100, .T. ) ;
#77 = AXIS2_PLACEMENT_3D ( 'NONE', #424, #514, #796 ) ;
#78 = CARTESIAN_POINT ( 'NONE',  ( 7.000000000000006217, -15.00000000000000355, 12.75000000000000178 ) ) ;
#79 = PLANE ( 'NONE',  #170 ) ;
#80 = EDGE_CURVE ( 'NONE', #1030, #252, #512, .T. ) ;
#81 = EDGE_LOOP ( 'NONE', ( #1172, #207, #587, #92 ) ) ;
#82 = DIRECTION ( 'NONE',  ( -1.000000000000000000, 0.000000000000000000, 0.000000000000000000 ) ) ;
#83 = ORIENTED_EDGE ( 'NONE', *, *, #788, .T. ) ;
#84 = EDGE_CURVE ( 'NONE', #1026, #1195, #990, .T. ) ;
#85 = ORIENTED_EDGE ( 'NONE', *, *, #656, .F. ) ;
#86 = ADVANCED_FACE ( 'NONE', ( #599 ), #683, .F. ) ;
#87 = CARTESIAN_POINT ( 'NONE',  ( 0.000000000000000000, 49.49747468305849907, 46.49747468305816511 ) ) ;
#88 = CARTESIAN_POINT ( 'NONE',  ( 0.000000000000000000, 14.99999999999999645, 12.75000000000000178 ) ) ;
#89 = DIRECTION ( 'NONE',  ( 1.000000000000000000, 0.000000000000000000, 0.000000000000000000 ) ) ;
#90 = ORIENTED_EDGE ( 'NONE', *, *, #75, .F. ) ;
#91 = ORIENTED_EDGE ( 'NONE', *, *, #694, .F. ) ;
#92 = ORIENTED_EDGE ( 'NONE', *, *, #189, .F. ) ;
#93 = EDGE_LOOP ( 'NONE', ( #156, #1214, #262, #140 ) ) ;
#94 = PRESENTATION_LAYER_ASSIGNMENT (  '', '', ( #624 ) ) ;
#95 = VECTOR ( 'NONE', #1185, 1000.000000000000000 ) ;
#96 = DIRECTION ( 'NONE',  ( 0.000000000000000000, 0.000000000000000000, -1.000000000000000000 ) ) ;
#97 = CARTESIAN_POINT ( 'NONE',  ( 7.000000000000006217, 15.00000000000000000, -14.99999999999999822 ) ) ;
#98 = EDGE_CURVE ( 'NONE', #39, #848, #1201, .T. ) ;
#99 = ORIENTED_EDGE ( 'NONE', *, *, #1189, .F. ) ;
#100 = EDGE_CURVE ( 'NONE', #187, #1133, #592, .T. ) ;
#101 = EDGE_LOOP ( 'NONE', ( #947, #904, #544, #677, #223, #367, #647, #1203 ) ) ;
#102 = VECTOR ( 'NONE', #780, 1000.000000000000000 ) ;
#103 = FACE_BOUND ( 'NONE', #1111, .T. ) ;
#104 = DIRECTION ( 'NONE',  ( -1.000000000000000000, -0.000000000000000000, -0.000000000000000000 ) ) ;
#105 = EDGE_LOOP ( 'NONE', ( #447, #1213, #385, #396 ) ) ;
#106 = VERTEX_POINT ( 'NONE', #617 ) ;
#107 = VERTEX_POINT ( 'NONE', #37 ) ;
#108 = CYLINDRICAL_SURFACE ( 'NONE', #981, 3.000000000000001332 ) ;
#109 = DIRECTION ( 'NONE',  ( 0.000000000000000000, 0.000000000000000000, -1.000000000000000000 ) ) ;
#110 = CARTESIAN_POINT ( 'NONE',  ( 7.000000000000006217, 49.49747468305849907, 49.49747468305815090 ) ) ;
#111 = PLANE ( 'NONE',  #692 ) ;
#112 = AXIS2_PLACEMENT_3D ( 'NONE', #748, #756, #649 ) ;
#113 = COLOUR_RGB ( '',0.7921568627450980005, 0.8196078431372548767, 0.9333333333333333481 ) ;
#114 = FACE_OUTER_BOUND ( 'NONE', #737, .T. ) ;
#115 = LINE ( 'NONE', #1131, #535 ) ;
#116 = CARTESIAN_POINT ( 'NONE',  ( 0.000000000000000000, 1.584513006521006050E-16, 29.30614694161271316 ) ) ;
#117 = CARTESIAN_POINT ( 'NONE',  ( 0.000000000000000000, -15.00000000000000355, -12.75000000000000000 ) ) ;
#118 = EDGE_LOOP ( 'NONE', ( #1075, #925 ) ) ;
#119 = EDGE_CURVE ( 'NONE', #554, #586, #415, .T. ) ;
#120 = FACE_BOUND ( 'NONE', #427, .T. ) ;
#121 = VECTOR ( 'NONE', #896, 1000.000000000000000 ) ;
#122 = LINE ( 'NONE', #402, #552 ) ;
#123 = UNCERTAINTY_MEASURE_WITH_UNIT (LENGTH_MEASURE( 1.000000000000000082E-05 ), #43, 'distance_accuracy_value', 'NONE');
#124 = EDGE_CURVE ( 'NONE', #770, #738, #1144, .T. ) ;
#125 = FACE_OUTER_BOUND ( 'NONE', #725, .T. ) ;
#126 = LINE ( 'NONE', #875, #175 ) ;
#127 = PLANE ( 'NONE',  #469 ) ;
#128 = DIRECTION ( 'NONE',  ( 0.000000000000000000, 5.327099413391408712E-15, 1.000000000000000000 ) ) ;
#129 = DIRECTION ( 'NONE',  ( -1.000000000000000000, -0.000000000000000000, -0.000000000000000000 ) ) ;
#130 = DIRECTION ( 'NONE',  ( 0.000000000000000000, 0.000000000000000000, -1.000000000000000000 ) ) ;
#131 = AXIS2_PLACEMENT_3D ( 'NONE', #110, #395, #970 ) ;
#132 = ORIENTED_EDGE ( 'NONE', *, *, #1084, .F. ) ;
#133 = CARTESIAN_POINT ( 'NONE',  ( -196.0000000000000000, -49.49747468305884723, -49.49747468305779563 ) ) ;
#134 = EDGE_CURVE ( 'NONE', #860, #1105, #595, .T. ) ;
#135 = CIRCLE ( 'NONE', #979, 2.250000000000003553 ) ;
#136 = CARTESIAN_POINT ( 'NONE',  ( 112.5652235787996176, -55.49747468305832143, 49.49747468305832143 ) ) ;
#137 = CARTESIAN_POINT ( 'NONE',  ( -196.0000000000000000, -15.00000000000000355, -14.99999999999999822 ) ) ;
#138 = FACE_BOUND ( 'NONE', #458, .T. ) ;
#139 = EDGE_CURVE ( 'NONE', #926, #730, #612, .T. ) ;
#140 = ORIENTED_EDGE ( 'NONE', *, *, #736, .F. ) ;
#141 = FACE_OUTER_BOUND ( 'NONE', #216, .T. ) ;
#142 = AXIS2_PLACEMENT_3D ( 'NONE', #1150, #1065, #1034 ) ;
#143 = CARTESIAN_POINT ( 'NONE',  ( -196.0000000000000000, -49.49747468305832143, 49.49747468305832143 ) ) ;
#144 = DIRECTION ( 'NONE',  ( 1.000000000000000000, 0.000000000000000000, 0.000000000000000000 ) ) ;
#145 = SURFACE_STYLE_FILL_AREA ( #520 ) ;
#146 = FACE_OUTER_BOUND ( 'NONE', #974, .T. ) ;
#147 = LINE ( 'NONE', #625, #225 ) ;
#148 = CARTESIAN_POINT ( 'NONE',  ( 0.000000000000000000, 49.49747468305798037, -49.49747468305866960 ) ) ;
#149 = VERTEX_POINT ( 'NONE', #689 ) ;
#150 = DIRECTION ( 'NONE',  ( 1.000000000000000000, 0.000000000000000000, 0.000000000000000000 ) ) ;
#151 = PRODUCT_CONTEXT ( 'NONE', #743, 'mechanical' ) ;
#152 = CARTESIAN_POINT ( 'NONE',  ( 0.000000000000000000, 15.00000000000000000, -14.99999999999999822 ) ) ;
#153 = CARTESIAN_POINT ( 'NONE',  ( 0.000000000000000000, -49.49747468305884723, -49.49747468305779563 ) ) ;
#154 = AXIS2_PLACEMENT_3D ( 'NONE', #561, #230, #130 ) ;
#155 = FACE_BOUND ( 'NONE', #214, .T. ) ;
#156 = ORIENTED_EDGE ( 'NONE', *, *, #537, .T. ) ;
#157 = VECTOR ( 'NONE', #1103, 1000.000000000000000 ) ;
#158 = DIRECTION ( 'NONE',  ( -1.000000000000000000, -0.000000000000000000, -0.000000000000000000 ) ) ;
#159 = ADVANCED_FACE ( 'NONE', ( #125 ), #525, .F. ) ;
#160 = CYLINDRICAL_SURFACE ( 'NONE', #938, 3.499999999999999556 ) ;
#161 = VECTOR ( 'NONE', #227, 1000.000000000000000 ) ;
#162 = AXIS2_PLACEMENT_3D ( 'NONE', #519, #977, #1182 ) ;
#163 = ORIENTED_EDGE ( 'NONE', *, *, #830, .T. ) ;
#164 = AXIS2_PLACEMENT_3D ( 'NONE', #1092, #1070, #792 ) ;
#165 = ORIENTED_EDGE ( 'NONE', *, *, #266, .F. ) ;
#166 = DIRECTION ( 'NONE',  ( 0.000000000000000000, 0.000000000000000000, -1.000000000000000000 ) ) ;
#167 = CARTESIAN_POINT ( 'NONE',  ( 0.000000000000000000, 23.60000000000000142, 9.108356170405185248E-15 ) ) ;
#168 = ORIENTED_EDGE ( 'NONE', *, *, #1123, .T. ) ;
#169 = ORIENTED_EDGE ( 'NONE', *, *, #80, .F. ) ;
#170 = AXIS2_PLACEMENT_3D ( 'NONE', #1, #272, #280 ) ;
#171 = LINE ( 'NONE', #251, #95 ) ;
#172 = EDGE_CURVE ( 'NONE', #500, #929, #550, .T. ) ;
#173 = CARTESIAN_POINT ( 'NONE',  ( 0.000000000000000000, 23.60000000000000142, -2.999999999999992450 ) ) ;
#174 = ORIENTED_EDGE ( 'NONE', *, *, #134, .F. ) ;
#175 = VECTOR ( 'NONE', #700, 1000.000000000000000 ) ;
#176 = EDGE_LOOP ( 'NONE', ( #1018, #46, #1094, #441 ) ) ;
#177 = EDGE_CURVE ( 'NONE', #39, #872, #699, .T. ) ;
#178 = CARTESIAN_POINT ( 'NONE',  ( 0.000000000000000000, 49.49747468305798037, -49.49747468305866960 ) ) ;
#179 = DIRECTION ( 'NONE',  ( 0.000000000000000000, 0.000000000000000000, -1.000000000000000000 ) ) ;
#180 = CARTESIAN_POINT ( 'NONE',  ( -196.0000000000000000, 1.584513006521006543E-16, 29.30614694161271316 ) ) ;
#181 = FACE_OUTER_BOUND ( 'NONE', #1081, .T. ) ;
#182 = ORIENTED_EDGE ( 'NONE', *, *, #263, .T. ) ;
#183 = AXIS2_PLACEMENT_3D ( 'NONE', #245, #794, #528 ) ;
#184 = VERTEX_POINT ( 'NONE', #50 ) ;
#185 = LINE ( 'NONE', #690, #292 ) ;
#186 = CARTESIAN_POINT ( 'NONE',  ( 7.000000000000006217, -15.00000000000000355, 15.00000000000000178 ) ) ;
#187 = VERTEX_POINT ( 'NONE', #423 ) ;
#188 = ORIENTED_EDGE ( 'NONE', *, *, #80, .T. ) ;
#189 = EDGE_CURVE ( 'NONE', #738, #829, #903, .T. ) ;
#190 = CIRCLE ( 'NONE', #543, 2.249999999999998668 ) ;
#191 = CARTESIAN_POINT ( 'NONE',  ( -196.0000000000000000, 14.99999999999999645, 15.00000000000000178 ) ) ;
#192 = EDGE_LOOP ( 'NONE', ( #281, #1013, #1045, #898 ) ) ;
#193 = ORIENTED_EDGE ( 'NONE', *, *, #652, .T. ) ;
#194 = VECTOR ( 'NONE', #523, 1000.000000000000000 ) ;
#195 = DIRECTION ( 'NONE',  ( 0.000000000000000000, 1.000000000000000000, -1.892522160020618694E-15 ) ) ;
#196 = DIRECTION ( 'NONE',  ( -1.000000000000000000, -0.000000000000000000, -0.000000000000000000 ) ) ;
#197 = CARTESIAN_POINT ( 'NONE',  ( 0.000000000000000000, 23.60000000000000142, 9.108356170405185248E-15 ) ) ;
#198 = EDGE_LOOP ( 'NONE', ( #986, #1017 ) ) ;
#199 = ORIENTED_EDGE ( 'NONE', *, *, #1011, .F. ) ;
#200 = AXIS2_PLACEMENT_3D ( 'NONE', #1166, #324, #1080 ) ;
#201 = AXIS2_PLACEMENT_3D ( 'NONE', #152, #696, #983 ) ;
#202 = DIRECTION ( 'NONE',  ( -1.000000000000000000, -0.000000000000000000, -0.000000000000000000 ) ) ;
#203 = CYLINDRICAL_SURFACE ( 'NONE', #1007, 2.249999999999998668 ) ;
#204 = ADVANCED_FACE ( 'NONE', ( #704 ), #1086, .F. ) ;
#205 = DIRECTION ( 'NONE',  ( 0.000000000000000000, 0.000000000000000000, -1.000000000000000000 ) ) ;
#206 = VERTEX_POINT ( 'NONE', #351 ) ;
#207 = ORIENTED_EDGE ( 'NONE', *, *, #1177, .T. ) ;
#208 = DIRECTION ( 'NONE',  ( 0.000000000000000000, 0.000000000000000000, -1.000000000000000000 ) ) ;
#209 = CARTESIAN_POINT ( 'NONE',  ( -196.0000000000000000, 23.60000000000000142, -2.999999999999992450 ) ) ;
#210 = DIRECTION ( 'NONE',  ( -1.000000000000000000, -0.000000000000000000, -0.000000000000000000 ) ) ;
#211 = EDGE_CURVE ( 'NONE', #1140, #1030, #1093, .T. ) ;
#212 = EDGE_LOOP ( 'NONE', ( #397, #750 ) ) ;
#213 = AXIS2_PLACEMENT_3D ( 'NONE', #197, #570, #949 ) ;
#214 = EDGE_LOOP ( 'NONE', ( #362, #784 ) ) ;
#215 = EDGE_CURVE ( 'NONE', #1195, #1122, #1040, .T. ) ;
#216 = EDGE_LOOP ( 'NONE', ( #579, #538, #248, #132 ) ) ;
#217 = AXIS2_PLACEMENT_3D ( 'NONE', #253, #1190, #1113 ) ;
#218 = FACE_BOUND ( 'NONE', #827, .T. ) ;
#219 = CARTESIAN_POINT ( 'NONE',  ( 7.000000000000006217, 7.715274834628325378E-15, -33.39999999999999147 ) ) ;
#220 = CARTESIAN_POINT ( 'NONE',  ( 7.000000000000006217, -49.49747468305884723, -46.49747468305780984 ) ) ;
#221 = DIRECTION ( 'NONE',  ( 0.000000000000000000, 0.000000000000000000, -1.000000000000000000 ) ) ;
#222 = LINE ( 'NONE', #675, #1019 ) ;
#223 = ORIENTED_EDGE ( 'NONE', *, *, #1123, .F. ) ;
#224 = ORIENTED_EDGE ( 'NONE', *, *, #1173, .F. ) ;
#225 = VECTOR ( 'NONE', #443, 1000.000000000000000 ) ;
#226 = DIRECTION ( 'NONE',  ( 0.000000000000000000, 0.000000000000000000, -1.000000000000000000 ) ) ;
#227 = DIRECTION ( 'NONE',  ( 0.000000000000000000, -1.000000000000000000, 8.831770080096220836E-15 ) ) ;
#228 = CARTESIAN_POINT ( 'NONE',  ( -196.0000000000000000, 15.00000000000000000, -14.99999999999999822 ) ) ;
#229 = CARTESIAN_POINT ( 'NONE',  ( 0.000000000000000000, 7.347880794884118356E-15, -39.39999999999999858 ) ) ;
#230 = DIRECTION ( 'NONE',  ( -1.000000000000000000, -0.000000000000000000, -0.000000000000000000 ) ) ;
#231 = ORIENTED_EDGE ( 'NONE', *, *, #1212, .F. ) ;
#232 = EDGE_CURVE ( 'NONE', #1154, #319, #259, .T. ) ;
#233 = FACE_OUTER_BOUND ( 'NONE', #892, .T. ) ;
#234 = EDGE_CURVE ( 'NONE', #738, #770, #964, .T. ) ;
#235 = DIRECTION ( 'NONE',  ( 0.000000000000000000, 0.000000000000000000, -1.000000000000000000 ) ) ;
#236 = DIRECTION ( 'NONE',  ( -1.000000000000000000, -0.000000000000000000, -0.000000000000000000 ) ) ;
#237 = AXIS2_PLACEMENT_3D ( 'NONE', #881, #786, #944 ) ;
#238 = DIRECTION ( 'NONE',  ( 0.000000000000000000, 0.000000000000000000, -1.000000000000000000 ) ) ;
#239 = DIRECTION ( 'NONE',  ( 0.000000000000000000, 0.000000000000000000, -1.000000000000000000 ) ) ;
#240 = DIRECTION ( 'NONE',  ( 1.000000000000000000, 0.000000000000000000, 0.000000000000000000 ) ) ;
#241 = ORIENTED_EDGE ( 'NONE', *, *, #293, .F. ) ;
#242 = LINE ( 'NONE', #527, #1118 ) ;
#243 = AXIS2_PLACEMENT_3D ( 'NONE', #148, #787, #808 ) ;
#244 = CIRCLE ( 'NONE', #630, 5.999999999999984901 ) ;
#245 = CARTESIAN_POINT ( 'NONE',  ( -196.0000000000000000, -49.49747468305832143, 49.49747468305832143 ) ) ;
#246 = DIRECTION ( 'NONE',  ( 1.000000000000000000, 0.000000000000000000, 0.000000000000000000 ) ) ;
#247 = CARTESIAN_POINT ( 'NONE',  ( 0.000000000000000000, 49.49747468305798037, -52.49747468305866960 ) ) ;
#248 = ORIENTED_EDGE ( 'NONE', *, *, #736, .T. ) ;
#249 = DIRECTION ( 'NONE',  ( 0.000000000000000000, 0.000000000000000000, -1.000000000000000000 ) ) ;
#250 = DIRECTION ( 'NONE',  ( 0.000000000000000000, 0.000000000000000000, -1.000000000000000000 ) ) ;
#251 = CARTESIAN_POINT ( 'NONE',  ( -196.0000000000000000, 23.60000000000000142, 3.000000000000010658 ) ) ;
#252 = VERTEX_POINT ( 'NONE', #536 ) ;
#253 = CARTESIAN_POINT ( 'NONE',  ( 0.000000000000000000, 14.99999999999999645, 15.00000000000000178 ) ) ;
#254 = EDGE_CURVE ( 'NONE', #436, #666, #1125, .T. ) ;
#255 = CARTESIAN_POINT ( 'NONE',  ( 0.000000000000000000, 14.99999999999999645, 15.00000000000000178 ) ) ;
#256 = DIRECTION ( 'NONE',  ( 1.000000000000000000, 0.000000000000000000, 0.000000000000000000 ) ) ;
#257 = CIRCLE ( 'NONE', #430, 2.999999999999988898 ) ;
#258 = ORIENTED_EDGE ( 'NONE', *, *, #124, .F. ) ;
#259 = LINE ( 'NONE', #440, #664 ) ;
#260 = VECTOR ( 'NONE', #1176, 1000.000000000000000 ) ;
#261 = FACE_OUTER_BOUND ( 'NONE', #101, .T. ) ;
#262 = ORIENTED_EDGE ( 'NONE', *, *, #906, .F. ) ;
#263 = EDGE_CURVE ( 'NONE', #554, #16, #746, .T. ) ;
#264 = DIRECTION ( 'NONE',  ( -1.000000000000000000, -0.000000000000000000, -0.000000000000000000 ) ) ;
#265 = DIRECTION ( 'NONE',  ( 1.000000000000000000, 0.000000000000000000, 0.000000000000000000 ) ) ;
#266 = EDGE_CURVE ( 'NONE', #651, #23, #171, .T. ) ;
#267 = AXIS2_PLACEMENT_3D ( 'NONE', #32, #339, #498 ) ;
#268 = EDGE_LOOP ( 'NONE', ( #539, #1047 ) ) ;
#269 = VERTEX_POINT ( 'NONE', #78 ) ;
#270 = AXIS2_PLACEMENT_3D ( 'NONE', #729, #265, #553 ) ;
#271 = DIRECTION ( 'NONE',  ( -1.000000000000000000, -0.000000000000000000, -0.000000000000000000 ) ) ;
#272 = DIRECTION ( 'NONE',  ( 0.000000000000000000, 1.892522160020618694E-15, 1.000000000000000000 ) ) ;
#273 = ORIENTED_EDGE ( 'NONE', *, *, #1090, .F. ) ;
#274 = VECTOR ( 'NONE', #19, 1000.000000000000000 ) ;
#275 = ORIENTED_EDGE ( 'NONE', *, *, #788, .F. ) ;
#276 = ORIENTED_EDGE ( 'NONE', *, *, #1042, .T. ) ;
#277 = AXIS2_PLACEMENT_3D ( 'NONE', #1068, #246, #972 ) ;
#278 = ORIENTED_EDGE ( 'NONE', *, *, #355, .F. ) ;
#279 = LINE ( 'NONE', #600, #312 ) ;
#280 = DIRECTION ( 'NONE',  ( 0.000000000000000000, -1.000000000000000000, 1.892522160020618694E-15 ) ) ;
#281 = ORIENTED_EDGE ( 'NONE', *, *, #686, .F. ) ;
#282 = VERTEX_POINT ( 'NONE', #88 ) ;
#283 = CARTESIAN_POINT ( 'NONE',  ( 0.000000000000000000, 15.00000000000000000, -12.74999999999999645 ) ) ;
#284 = FACE_BOUND ( 'NONE', #962, .T. ) ;
#285 = EDGE_CURVE ( 'NONE', #28, #149, #1204, .T. ) ;
#286 = CARTESIAN_POINT ( 'NONE',  ( -196.0000000000000000, 14.99999999999999645, 15.00000000000000178 ) ) ;
#287 = AXIS2_PLACEMENT_3D ( 'NONE', #576, #21, #673 ) ;
#288 = FACE_OUTER_BOUND ( 'NONE', #871, .T. ) ;
#289 = ORIENTED_EDGE ( 'NONE', *, *, #119, .T. ) ;
#290 = CIRCLE ( 'NONE', #883, 5.999999999999991118 ) ;
#291 = ORIENTED_EDGE ( 'NONE', *, *, #1136, .F. ) ;
#292 = VECTOR ( 'NONE', #1161, 1000.000000000000000 ) ;
#293 = EDGE_CURVE ( 'NONE', #282, #1122, #1004, .T. ) ;
#294 = CARTESIAN_POINT ( 'NONE',  ( 7.000000000000006217, 49.49747468305798037, -46.49747468305867670 ) ) ;
#295 = PRODUCT_RELATED_PRODUCT_CATEGORY ( 'part', '', ( #1181 ) ) ;
#296 = FACE_OUTER_BOUND ( 'NONE', #556, .T. ) ;
#297 = ORIENTED_EDGE ( 'NONE', *, *, #254, .F. ) ;
#298 = VERTEX_POINT ( 'NONE', #1109 ) ;
#299 = DIRECTION ( 'NONE',  ( 1.000000000000000000, 0.000000000000000000, 0.000000000000000000 ) ) ;
#300 = EDGE_CURVE ( 'NONE', #426, #1002, #960, .T. ) ;
#301 = CARTESIAN_POINT ( 'NONE',  ( 7.000000000000006217, -15.00000000000000355, -14.99999999999999822 ) ) ;
#302 = ORIENTED_EDGE ( 'NONE', *, *, #48, .F. ) ;
#303 = EDGE_CURVE ( 'NONE', #106, #954, #1060, .T. ) ;
#304 = ORIENTED_EDGE ( 'NONE', *, *, #1011, .T. ) ;
#305 = CIRCLE ( 'NONE', #855, 2.999999999999995559 ) ;
#306 = DIRECTION ( 'NONE',  ( 1.000000000000000000, 0.000000000000000000, 0.000000000000000000 ) ) ;
#307 = DIRECTION ( 'NONE',  ( 1.000000000000000000, 0.000000000000000000, 0.000000000000000000 ) ) ;
#308 = DIRECTION ( 'NONE',  ( 0.000000000000000000, 0.000000000000000000, -1.000000000000000000 ) ) ;
#309 = DIRECTION ( 'NONE',  ( -1.000000000000000000, -0.000000000000000000, -0.000000000000000000 ) ) ;
#310 = ORIENTED_EDGE ( 'NONE', *, *, #597, .T. ) ;
#311 = EDGE_CURVE ( 'NONE', #848, #1142, #450, .T. ) ;
#312 = VECTOR ( 'NONE', #648, 1000.000000000000000 ) ;
#313 = CARTESIAN_POINT ( 'NONE',  ( 0.000000000000000000, -2.701750790494728819E-16, 25.80614694161271316 ) ) ;
#314 = CARTESIAN_POINT ( 'NONE',  ( 7.000000000000006217, 14.99999999999999645, 17.25000000000000000 ) ) ;
#315 = FACE_OUTER_BOUND ( 'NONE', #852, .T. ) ;
#316 = DIRECTION ( 'NONE',  ( 0.000000000000000000, -1.000000000000000000, 5.327099413391408712E-15 ) ) ;
#317 = CARTESIAN_POINT ( 'NONE',  ( -196.0000000000000000, 15.00000000000000000, -17.25000000000000000 ) ) ;
#318 = ADVANCED_FACE ( 'NONE', ( #541 ), #160, .F. ) ;
#319 = VERTEX_POINT ( 'NONE', #928 ) ;
#320 = CIRCLE ( 'NONE', #910, 3.000000000000001332 ) ;
#321 = CARTESIAN_POINT ( 'NONE',  ( 0.000000000000000000, -2.701750790494728819E-16, 22.30614694161271316 ) ) ;
#322 = APPLICATION_PROTOCOL_DEFINITION ( 'draft international standard', 'automotive_design', 1998, #1148 ) ;
#323 = ADVANCED_FACE ( 'NONE', ( #831 ), #363, .F. ) ;
#324 = DIRECTION ( 'NONE',  ( -1.000000000000000000, -0.000000000000000000, -0.000000000000000000 ) ) ;
#325 = ORIENTED_EDGE ( 'NONE', *, *, #953, .F. ) ;
#326 = ORIENTED_EDGE ( 'NONE', *, *, #466, .F. ) ;
#327 = CARTESIAN_POINT ( 'NONE',  ( 0.000000000000000000, 49.49747468305849907, 49.49747468305815090 ) ) ;
#328 = DIRECTION ( 'NONE',  ( 0.000000000000000000, 0.000000000000000000, -1.000000000000000000 ) ) ;
#329 = DIRECTION ( 'NONE',  ( 0.000000000000000000, 0.000000000000000000, -1.000000000000000000 ) ) ;
#330 = LINE ( 'NONE', #1087, #1096 ) ;
#331 = EDGE_LOOP ( 'NONE', ( #378, #1184 ) ) ;
#332 = EDGE_LOOP ( 'NONE', ( #946, #542, #1000, #70 ) ) ;
#333 = CARTESIAN_POINT ( 'NONE',  ( 0.000000000000000000, -15.00000000000000355, -17.24999999999999645 ) ) ;
#334 = CIRCLE ( 'NONE', #468, 3.499999999999999556 ) ;
#335 = CARTESIAN_POINT ( 'NONE',  ( 7.000000000000006217, 49.49747468305849907, 46.49747468305816511 ) ) ;
#336 = LINE ( 'NONE', #705, #411 ) ;
#337 = ADVANCED_FACE ( 'NONE', ( #460 ), #834, .T. ) ;
#338 = DIRECTION ( 'NONE',  ( -1.000000000000000000, -0.000000000000000000, -0.000000000000000000 ) ) ;
#339 = DIRECTION ( 'NONE',  ( -1.000000000000000000, -0.000000000000000000, -0.000000000000000000 ) ) ;
#340 = FACE_BOUND ( 'NONE', #658, .T. ) ;
#341 = EDGE_CURVE ( 'NONE', #929, #797, #1193, .T. ) ;
#342 = EDGE_LOOP ( 'NONE', ( #165, #1128, #805, #1038 ) ) ;
#343 = CYLINDRICAL_SURFACE ( 'NONE', #183, 2.999999999999995559 ) ;
#344 = CARTESIAN_POINT ( 'NONE',  ( -196.0000000000000000, 14.99999999999999645, 12.75000000000000178 ) ) ;
#345 = FACE_OUTER_BOUND ( 'NONE', #192, .T. ) ;
#346 = VERTEX_POINT ( 'NONE', #1198 ) ;
#347 = CIRCLE ( 'NONE', #17, 2.999999999999995559 ) ;
#348 = ORIENTED_EDGE ( 'NONE', *, *, #996, .F. ) ;
#349 = DIRECTION ( 'NONE',  ( -1.000000000000000000, -0.000000000000000000, -0.000000000000000000 ) ) ;
#350 = AXIS2_PLACEMENT_3D ( 'NONE', #1137, #306, #13 ) ;
#351 = CARTESIAN_POINT ( 'NONE',  ( 7.000000000000006217, 15.00000000000000000, -12.74999999999999645 ) ) ;
#352 = CIRCLE ( 'NONE', #936, 2.249999999999998668 ) ;
#353 = FACE_BOUND ( 'NONE', #622, .T. ) ;
#354 = ORIENTED_EDGE ( 'NONE', *, *, #880, .T. ) ;
#355 = EDGE_CURVE ( 'NONE', #1002, #730, #478, .T. ) ;
#356 = EDGE_LOOP ( 'NONE', ( #572, #491 ) ) ;
#357 = EDGE_CURVE ( 'NONE', #1154, #107, #24, .T. ) ;
#358 = DIRECTION ( 'NONE',  ( -1.000000000000000000, -0.000000000000000000, -0.000000000000000000 ) ) ;
#359 = CIRCLE ( 'NONE', #1164, 3.000000000000002665 ) ;
#360 = CARTESIAN_POINT ( 'NONE',  ( 7.000000000000006217, 15.00000000000000000, -17.25000000000000000 ) ) ;
#361 = EDGE_LOOP ( 'NONE', ( #532, #258 ) ) ;
#362 = ORIENTED_EDGE ( 'NONE', *, *, #48, .T. ) ;
#363 = CYLINDRICAL_SURFACE ( 'NONE', #432, 3.000000000000002665 ) ;
#364 = DIRECTION ( 'NONE',  ( 0.000000000000000000, 0.000000000000000000, -1.000000000000000000 ) ) ;
#365 = AXIS2_PLACEMENT_3D ( 'NONE', #505, #412, #221 ) ;
#366 = EDGE_LOOP ( 'NONE', ( #291, #718, #679, #1053 ) ) ;
#367 = ORIENTED_EDGE ( 'NONE', *, *, #1138, .T. ) ;
#368 = AXIS2_PLACEMENT_3D ( 'NONE', #301, #104, #668 ) ;
#369 = FACE_OUTER_BOUND ( 'NONE', #1206, .T. ) ;
#370 = VERTEX_POINT ( 'NONE', #492 ) ;
#371 = AXIS2_PLACEMENT_3D ( 'NONE', #374, #744, #777 ) ;
#372 = VECTOR ( 'NONE', #998, 1000.000000000000000 ) ;
#373 = VERTEX_POINT ( 'NONE', #294 ) ;
#374 = CARTESIAN_POINT ( 'NONE',  ( -196.0000000000000000, 7.347880794884118356E-15, -36.39999999999999147 ) ) ;
#375 = CARTESIAN_POINT ( 'NONE',  ( 112.5652235787996176, -49.49747468305891118, -55.49747468305779563 ) ) ;
#376 = CYLINDRICAL_SURFACE ( 'NONE', #112, 2.999999999999995559 ) ;
#377 = CIRCLE ( 'NONE', #399, 2.250000000000003553 ) ;
#378 = ORIENTED_EDGE ( 'NONE', *, *, #1102, .T. ) ;
#379 = ADVANCED_FACE ( 'NONE', ( #387 ), #1049, .T. ) ;
#380 = DIRECTION ( 'NONE',  ( -1.000000000000000000, -0.000000000000000000, -0.000000000000000000 ) ) ;
#381 = DIRECTION ( 'NONE',  ( 1.000000000000000000, 0.000000000000000000, 0.000000000000000000 ) ) ;
#382 = CARTESIAN_POINT ( 'NONE',  ( 7.000000000000006217, 49.49747468305849907, 49.49747468305815090 ) ) ;
#383 = FACE_OUTER_BOUND ( 'NONE', #81, .T. ) ;
#384 = ORIENTED_EDGE ( 'NONE', *, *, #555, .F. ) ;
#385 = ORIENTED_EDGE ( 'NONE', *, *, #177, .T. ) ;
#386 = EDGE_LOOP ( 'NONE', ( #484, #325 ) ) ;
#387 = FACE_OUTER_BOUND ( 'NONE', #332, .T. ) ;
#388 = CARTESIAN_POINT ( 'NONE',  ( 7.000000000000006217, 49.49747468305798037, -49.49747468305866960 ) ) ;
#389 = VERTEX_POINT ( 'NONE', #1055 ) ;
#390 = ORIENTED_EDGE ( 'NONE', *, *, #749, .F. ) ;
#391 = EDGE_CURVE ( 'NONE', #691, #319, #290, .T. ) ;
#392 = DIRECTION ( 'NONE',  ( 0.000000000000000000, 0.000000000000000000, -1.000000000000000000 ) ) ;
#393 = DIRECTION ( 'NONE',  ( 1.000000000000000000, 0.000000000000000000, 0.000000000000000000 ) ) ;
#394 = ADVANCED_FACE ( 'NONE', ( #114 ), #563, .F. ) ;
#395 = DIRECTION ( 'NONE',  ( -1.000000000000000000, -0.000000000000000000, -0.000000000000000000 ) ) ;
#396 = ORIENTED_EDGE ( 'NONE', *, *, #1100, .F. ) ;
#397 = ORIENTED_EDGE ( 'NONE', *, *, #172, .F. ) ;
#398 = VECTOR ( 'NONE', #58, 1000.000000000000000 ) ;
#399 = AXIS2_PLACEMENT_3D ( 'NONE', #97, #473, #179 ) ;
#400 = ORIENTED_EDGE ( 'NONE', *, *, #3, .T. ) ;
#401 = CARTESIAN_POINT ( 'NONE',  ( 0.000000000000000000, -49.49747468305832143, 49.49747468305832143 ) ) ;
#402 = CARTESIAN_POINT ( 'NONE',  ( 0.000000000000000000, -55.49747468305884723, -49.49747468305779563 ) ) ;
#403 = DIRECTION ( 'NONE',  ( 0.000000000000000000, 0.000000000000000000, -1.000000000000000000 ) ) ;
#404 = CARTESIAN_POINT ( 'NONE',  ( 7.000000000000006217, 23.60000000000000142, 3.000000000000010658 ) ) ;
#405 = ORIENTED_EDGE ( 'NONE', *, *, #263, .F. ) ;
#406 = DIRECTION ( 'NONE',  ( 0.000000000000000000, -8.831770080096220836E-15, -1.000000000000000000 ) ) ;
#407 = CARTESIAN_POINT ( 'NONE',  ( 6.999999999999992006, -49.49747468305830722, 55.49747468305832143 ) ) ;
#408 = UNCERTAINTY_MEASURE_WITH_UNIT (LENGTH_MEASURE( 1.000000000000000082E-05 ), #493, 'distance_accuracy_value', 'NONE');
#409 = EDGE_CURVE ( 'NONE', #790, #920, #507, .T. ) ;
#410 = CARTESIAN_POINT ( 'NONE',  ( 7.000000000000006217, 7.347880794884118356E-15, -39.39999999999999858 ) ) ;
#411 = VECTOR ( 'NONE', #1170, 1000.000000000000000 ) ;
#412 = DIRECTION ( 'NONE',  ( -1.000000000000000000, -0.000000000000000000, -0.000000000000000000 ) ) ;
#413 = VECTOR ( 'NONE', #240, 1000.000000000000000 ) ;
#414 = CARTESIAN_POINT ( 'NONE',  ( 7.000000000000006217, -23.60000000000000142, -3.000000000000001332 ) ) ;
#415 = LINE ( 'NONE', #965, #121 ) ;
#416 = CIRCLE ( 'NONE', #201, 2.250000000000003553 ) ;
#417 = CARTESIAN_POINT ( 'NONE',  ( -196.0000000000000000, -49.49747468305832143, 52.49747468305832143 ) ) ;
#418 = CARTESIAN_POINT ( 'NONE',  ( 0.000000000000000000, -2.701750790494728819E-16, 25.80614694161271316 ) ) ;
#419 = ORIENTED_EDGE ( 'NONE', *, *, #1102, .F. ) ;
#420 = VERTEX_POINT ( 'NONE', #581 ) ;
#421 = DIRECTION ( 'NONE',  ( 1.000000000000000000, 0.000000000000000000, 0.000000000000000000 ) ) ;
#422 = CARTESIAN_POINT ( 'NONE',  ( 7.000000000000006217, 49.49747468305849907, 49.49747468305815090 ) ) ;
#423 = CARTESIAN_POINT ( 'NONE',  ( 6.999999999999992006, 55.49747468305848486, 49.49747468305810827 ) ) ;
#424 = CARTESIAN_POINT ( 'NONE',  ( 6.999999999999997335, -15.00000000000000355, 15.00000000000000178 ) ) ;
#425 = AXIS2_PLACEMENT_3D ( 'NONE', #663, #488, #1044 ) ;
#426 = VERTEX_POINT ( 'NONE', #754 ) ;
#427 = EDGE_LOOP ( 'NONE', ( #453, #4 ) ) ;
#428 = EDGE_CURVE ( 'NONE', #872, #1142, #978, .T. ) ;
#429 = DIRECTION ( 'NONE',  ( 0.000000000000000000, 0.000000000000000000, -1.000000000000000000 ) ) ;
#430 = AXIS2_PLACEMENT_3D ( 'NONE', #47, #799, #429 ) ;
#431 = LINE ( 'NONE', #812, #260 ) ;
#432 = AXIS2_PLACEMENT_3D ( 'NONE', #722, #817, #917 ) ;
#433 = EDGE_CURVE ( 'NONE', #1062, #420, #438, .T. ) ;
#434 = PLANE ( 'NONE',  #461 ) ;
#435 = FILL_AREA_STYLE_COLOUR ( '', #113 ) ;
#436 = VERTEX_POINT ( 'NONE', #1149 ) ;
#437 = AXIS2_PLACEMENT_3D ( 'NONE', #728, #358, #813 ) ;
#438 = CIRCLE ( 'NONE', #747, 2.999999999999995559 ) ;
#439 = CARTESIAN_POINT ( 'NONE',  ( 7.000000000000006217, -49.49747468305884723, -49.49747468305779563 ) ) ;
#440 = CARTESIAN_POINT ( 'NONE',  ( 112.5652235787996176, -49.49747468305830722, 55.49747468305832143 ) ) ;
#441 = ORIENTED_EDGE ( 'NONE', *, *, #215, .F. ) ;
#442 = ORIENTED_EDGE ( 'NONE', *, *, #119, .F. ) ;
#443 = DIRECTION ( 'NONE',  ( -1.000000000000000000, 0.000000000000000000, 0.000000000000000000 ) ) ;
#444 = DIRECTION ( 'NONE',  ( -1.000000000000000000, -0.000000000000000000, -0.000000000000000000 ) ) ;
#445 = ADVANCED_FACE ( 'NONE', ( #671 ), #955, .T. ) ;
#446 = FACE_BOUND ( 'NONE', #268, .T. ) ;
#447 = ORIENTED_EDGE ( 'NONE', *, *, #311, .F. ) ;
#448 = ORIENTED_EDGE ( 'NONE', *, *, #285, .T. ) ;
#449 = ADVANCED_FACE ( 'NONE', ( #1130 ), #108, .F. ) ;
#450 = LINE ( 'NONE', #636, #529 ) ;
#451 = DIRECTION ( 'NONE',  ( 0.000000000000000000, 0.000000000000000000, -1.000000000000000000 ) ) ;
#452 = EDGE_LOOP ( 'NONE', ( #1141, #1006, #559, #1197 ) ) ;
#453 = ORIENTED_EDGE ( 'NONE', *, *, #922, .F. ) ;
#454 = ADVANCED_FACE ( 'NONE', ( #844, #772, #284, #218, #1033, #120, #497, #942, #29, #103, #1175, #879, #146 ), #127, .F. ) ;
#455 = DIRECTION ( 'NONE',  ( 1.000000000000000000, 0.000000000000000000, 0.000000000000000000 ) ) ;
#456 = AXIS2_PLACEMENT_3D ( 'NONE', #42, #616, #71 ) ;
#457 = CARTESIAN_POINT ( 'NONE',  ( 0.000000000000000000, 7.715274834628325378E-15, -33.39999999999999147 ) ) ;
#458 = EDGE_LOOP ( 'NONE', ( #988, #566 ) ) ;
#459 = EDGE_LOOP ( 'NONE', ( #53, #168, #1121, #169 ) ) ;
#460 = FACE_OUTER_BOUND ( 'NONE', #803, .T. ) ;
#461 = AXIS2_PLACEMENT_3D ( 'NONE', #874, #316, #889 ) ;
#462 = ORIENTED_EDGE ( 'NONE', *, *, #524, .T. ) ;
#463 = EDGE_LOOP ( 'NONE', ( #714, #633, #899, #390 ) ) ;
#464 = DIRECTION ( 'NONE',  ( 0.000000000000000000, 0.000000000000000000, -1.000000000000000000 ) ) ;
#465 = CARTESIAN_POINT ( 'NONE',  ( 0.000000000000000000, 49.49747468305798037, -46.49747468305867670 ) ) ;
#466 = EDGE_CURVE ( 'NONE', #420, #184, #510, .T. ) ;
#467 = DIRECTION ( 'NONE',  ( 0.000000000000000000, 0.000000000000000000, -1.000000000000000000 ) ) ;
#468 = AXIS2_PLACEMENT_3D ( 'NONE', #313, #1064, #226 ) ;
#469 = AXIS2_PLACEMENT_3D ( 'NONE', #711, #968, #1069 ) ;
#470 = AXIS2_PLACEMENT_3D ( 'NONE', #153, #271, #1009 ) ;
#471 = FACE_OUTER_BOUND ( 'NONE', #93, .T. ) ;
#472 = DIRECTION ( 'NONE',  ( 0.000000000000000000, 1.000000000000000000, -8.831770080096220836E-15 ) ) ;
#473 = DIRECTION ( 'NONE',  ( -1.000000000000000000, -0.000000000000000000, -0.000000000000000000 ) ) ;
#474 = CARTESIAN_POINT ( 'NONE',  ( 7.000000000000006217, -15.00000000000000355, -12.75000000000000000 ) ) ;
#475 = AXIS2_PLACEMENT_3D ( 'NONE', #854, #655, #1157 ) ;
#476 = EDGE_LOOP ( 'NONE', ( #326, #1188, #38, #741 ) ) ;
#477 = ORIENTED_EDGE ( 'NONE', *, *, #922, .T. ) ;
#478 = LINE ( 'NONE', #760, #274 ) ;
#479 = LINE ( 'NONE', #26, #1077 ) ;
#480 = EDGE_CURVE ( 'NONE', #560, #184, #1196, .T. ) ;
#481 = DIRECTION ( 'NONE',  ( 1.000000000000000000, 0.000000000000000000, 0.000000000000000000 ) ) ;
#482 = EDGE_LOOP ( 'NONE', ( #933, #1112, #1048, #1168 ) ) ;
#483 = ADVANCED_FACE ( 'NONE', ( #141 ), #791, .F. ) ;
#484 = ORIENTED_EDGE ( 'NONE', *, *, #433, .F. ) ;
#485 = CARTESIAN_POINT ( 'NONE',  ( -196.0000000000000000, -23.60000000000000142, 0.000000000000000000 ) ) ;
#486 = LINE ( 'NONE', #766, #927 ) ;
#487 = AXIS2_PLACEMENT_3D ( 'NONE', #186, #740, #1205 ) ;
#488 = DIRECTION ( 'NONE',  ( 1.000000000000000000, 0.000000000000000000, 0.000000000000000000 ) ) ;
#489 = DIRECTION ( 'NONE',  ( 0.000000000000000000, 1.000000000000000000, -5.116819173389080100E-15 ) ) ;
#490 = AXIS2_PLACEMENT_3D ( 'NONE', #67, #890, #985 ) ;
#491 = ORIENTED_EDGE ( 'NONE', *, *, #1146, .F. ) ;
#492 = CARTESIAN_POINT ( 'NONE',  ( 7.000000000000006217, 23.60000000000000142, -2.999999999999992450 ) ) ;
#493 =( LENGTH_UNIT ( ) NAMED_UNIT ( * ) SI_UNIT ( .MILLI., .METRE. ) );
#494 = LINE ( 'NONE', #775, #710 ) ;
#495 = ORIENTED_EDGE ( 'NONE', *, *, #611, .F. ) ;
#496 = ORIENTED_EDGE ( 'NONE', *, *, #84, .T. ) ;
#497 = FACE_BOUND ( 'NONE', #361, .T. ) ;
#498 = DIRECTION ( 'NONE',  ( 0.000000000000000000, 0.000000000000000000, -1.000000000000000000 ) ) ;
#499 = DIRECTION ( 'NONE',  ( 1.000000000000000000, 0.000000000000000000, 0.000000000000000000 ) ) ;
#500 = VERTEX_POINT ( 'NONE', #321 ) ;
#501 = ORIENTED_EDGE ( 'NONE', *, *, #428, .T. ) ;
#502 = SHAPE_DEFINITION_REPRESENTATION ( #1063, #590 ) ;
#503 = DIRECTION ( 'NONE',  ( 1.000000000000000000, 0.000000000000000000, 0.000000000000000000 ) ) ;
#504 = CIRCLE ( 'NONE', #1174, 3.499999999999999556 ) ;
#505 = CARTESIAN_POINT ( 'NONE',  ( 0.000000000000000000, -23.60000000000000142, 0.000000000000000000 ) ) ;
#506 = ADVANCED_FACE ( 'NONE', ( #233 ), #619, .F. ) ;
#507 = CIRCLE ( 'NONE', #999, 2.999999999999988898 ) ;
#508 = ORIENTED_EDGE ( 'NONE', *, *, #232, .F. ) ;
#509 = VECTOR ( 'NONE', #1083, 1000.000000000000000 ) ;
#510 = LINE ( 'NONE', #417, #863 ) ;
#511 = DIRECTION ( 'NONE',  ( -1.000000000000000000, -0.000000000000000000, -0.000000000000000000 ) ) ;
#512 = LINE ( 'NONE', #1160, #911 ) ;
#513 = ADVANCED_FACE ( 'NONE', ( #1163 ), #601, .F. ) ;
#514 = DIRECTION ( 'NONE',  ( 1.000000000000000000, 0.000000000000000000, 0.000000000000000000 ) ) ;
#515 = VECTOR ( 'NONE', #882, 1000.000000000000000 ) ;
#516 = CIRCLE ( 'NONE', #142, 3.000000000000001332 ) ;
#517 = LINE ( 'NONE', #56, #884 ) ;
#518 = DIRECTION ( 'NONE',  ( 1.000000000000000000, 0.000000000000000000, 0.000000000000000000 ) ) ;
#519 = CARTESIAN_POINT ( 'NONE',  ( 0.000000000000000000, 49.49747468305849907, 49.49747468305815090 ) ) ;
#520 = FILL_AREA_STYLE ('',( #435 ) ) ;
#521 = EDGE_CURVE ( 'NONE', #28, #613, #1078, .T. ) ;
#522 = VERTEX_POINT ( 'NONE', #615 ) ;
#523 = DIRECTION ( 'NONE',  ( -0.000000000000000000, 5.327099413391408712E-15, 1.000000000000000000 ) ) ;
#524 = EDGE_CURVE ( 'NONE', #1099, #2, #1101, .T. ) ;
#525 = CYLINDRICAL_SURFACE ( 'NONE', #41, 2.250000000000000444 ) ;
#526 = DIRECTION ( 'NONE',  ( 0.000000000000000000, 0.000000000000000000, -1.000000000000000000 ) ) ;
#527 = CARTESIAN_POINT ( 'NONE',  ( 112.5652235787996176, 55.49747468305797327, -49.49747468305871223 ) ) ;
#528 = DIRECTION ( 'NONE',  ( 0.000000000000000000, 0.000000000000000000, -1.000000000000000000 ) ) ;
#529 = VECTOR ( 'NONE', #455, 1000.000000000000000 ) ;
#530 = CARTESIAN_POINT ( 'NONE',  ( 112.5652235787996176, -55.49747468305884723, -49.49747468305779563 ) ) ;
#531 = PRESENTATION_STYLE_ASSIGNMENT (( #1098 ) ) ;
#532 = ORIENTED_EDGE ( 'NONE', *, *, #234, .F. ) ;
#533 = ORIENTED_EDGE ( 'NONE', *, *, #1028, .T. ) ;
#534 = EDGE_CURVE ( 'NONE', #16, #751, #517, .T. ) ;
#535 = VECTOR ( 'NONE', #393, 1000.000000000000000 ) ;
#536 = CARTESIAN_POINT ( 'NONE',  ( 0.000000000000000000, -49.49747468305891118, -55.49747468305779563 ) ) ;
#537 = EDGE_CURVE ( 'NONE', #1105, #860, #257, .T. ) ;
#538 = ORIENTED_EDGE ( 'NONE', *, *, #134, .T. ) ;
#539 = ORIENTED_EDGE ( 'NONE', *, *, #996, .T. ) ;
#540 = LINE ( 'NONE', #30, #161 ) ;
#541 = FACE_OUTER_BOUND ( 'NONE', #452, .T. ) ;
#542 = ORIENTED_EDGE ( 'NONE', *, *, #1008, .F. ) ;
#543 = AXIS2_PLACEMENT_3D ( 'NONE', #832, #1211, #15 ) ;
#544 = ORIENTED_EDGE ( 'NONE', *, *, #521, .F. ) ;
#545 = CARTESIAN_POINT ( 'NONE',  ( 7.000000000000006217, 7.347880794884118356E-15, -36.39999999999999147 ) ) ;
#546 = CARTESIAN_POINT ( 'NONE',  ( 0.000000000000000000, -15.00000000000000355, -14.99999999999999822 ) ) ;
#547 = CARTESIAN_POINT ( 'NONE',  ( 7.000000000000006217, -49.49747468305884723, -52.49747468305778852 ) ) ;
#548 = ORIENTED_EDGE ( 'NONE', *, *, #1136, .T. ) ;
#549 = DIRECTION ( 'NONE',  ( -1.000000000000000000, -0.000000000000000000, -0.000000000000000000 ) ) ;
#550 = CIRCLE ( 'NONE', #1088, 3.499999999999999556 ) ;
#551 = DIRECTION ( 'NONE',  ( 1.000000000000000000, 0.000000000000000000, 0.000000000000000000 ) ) ;
#552 = VECTOR ( 'NONE', #128, 1000.000000000000000 ) ;
#553 = DIRECTION ( 'NONE',  ( 0.000000000000000000, 0.000000000000000000, -1.000000000000000000 ) ) ;
#554 = VERTEX_POINT ( 'NONE', #333 ) ;
#555 = EDGE_CURVE ( 'NONE', #346, #269, #680, .T. ) ;
#556 = EDGE_LOOP ( 'NONE', ( #273, #276, #1135, #85 ) ) ;
#557 = EDGE_CURVE ( 'NONE', #1133, #885, #242, .T. ) ;
#558 = CARTESIAN_POINT ( 'NONE',  ( 7.000000000000006217, -2.701750790494728819E-16, 25.80614694161271316 ) ) ;
#559 = ORIENTED_EDGE ( 'NONE', *, *, #3, .F. ) ;
#560 = VERTEX_POINT ( 'NONE', #806 ) ;
#561 = CARTESIAN_POINT ( 'NONE',  ( 7.000000000000006217, -15.00000000000000355, -14.99999999999999822 ) ) ;
#562 = AXIS2_PLACEMENT_3D ( 'NONE', #1025, #847, #919 ) ;
#563 = CYLINDRICAL_SURFACE ( 'NONE', #823, 2.999999999999995559 ) ;
#564 = VECTOR ( 'NONE', #195, 1000.000000000000000 ) ;
#565 = FACE_OUTER_BOUND ( 'NONE', #913, .T. ) ;
#566 = ORIENTED_EDGE ( 'NONE', *, *, #1084, .T. ) ;
#567 = CIRCLE ( 'NONE', #490, 2.249999999999998668 ) ;
#568 = ORIENTED_EDGE ( 'NONE', *, *, #557, .F. ) ;
#569 = EDGE_CURVE ( 'NONE', #929, #500, #334, .T. ) ;
#570 = DIRECTION ( 'NONE',  ( -1.000000000000000000, -0.000000000000000000, -0.000000000000000000 ) ) ;
#571 = AXIS2_PLACEMENT_3D ( 'NONE', #545, #349, #1215 ) ;
#572 = ORIENTED_EDGE ( 'NONE', *, *, #98, .F. ) ;
#573 = EDGE_CURVE ( 'NONE', #1026, #282, #676, .T. ) ;
#574 = ORIENTED_EDGE ( 'NONE', *, *, #211, .T. ) ;
#575 = CARTESIAN_POINT ( 'NONE',  ( 112.5652235787996176, 49.49747468305791642, -55.49747468305866960 ) ) ;
#576 = CARTESIAN_POINT ( 'NONE',  ( -196.0000000000000000, -15.00000000000000355, 15.00000000000000178 ) ) ;
#577 = ORIENTED_EDGE ( 'NONE', *, *, #573, .F. ) ;
#578 = CLOSED_SHELL ( 'NONE', ( #828, #893, #886, #11, #323, #867, #820, #623, #318, #204, #815, #1046, #918, #720, #379, #337, #454, #732, #44, #778, #8, #445, #971, #159, #449, #513, #483, #394, #506, #640, #86, #858, #753, #1186 ) ) ;
#579 = ORIENTED_EDGE ( 'NONE', *, *, #678, .F. ) ;
#580 = EDGE_LOOP ( 'NONE', ( #660, #945 ) ) ;
#581 = CARTESIAN_POINT ( 'NONE',  ( 0.000000000000000000, -49.49747468305832143, 52.49747468305832143 ) ) ;
#582 =( NAMED_UNIT ( * ) PLANE_ANGLE_UNIT ( ) SI_UNIT ( $, .RADIAN. ) );
#583 = DIRECTION ( 'NONE',  ( 0.000000000000000000, 0.000000000000000000, -1.000000000000000000 ) ) ;
#584 = ORIENTED_EDGE ( 'NONE', *, *, #967, .T. ) ;
#585 = AXIS2_PLACEMENT_3D ( 'NONE', #133, #421, #894 ) ;
#586 = VERTEX_POINT ( 'NONE', #1108 ) ;
#587 = ORIENTED_EDGE ( 'NONE', *, *, #869, .F. ) ;
#588 = CARTESIAN_POINT ( 'NONE',  ( -196.0000000000000000, 49.49747468305798037, -49.49747468305866960 ) ) ;
#589 = DIRECTION ( 'NONE',  ( 1.000000000000000000, 0.000000000000000000, 0.000000000000000000 ) ) ;
#590 = ADVANCED_BREP_SHAPE_REPRESENTATION ( 'il optimization', ( #731, #164 ), #614 ) ;
#591 = DIRECTION ( 'NONE',  ( 1.000000000000000000, 0.000000000000000000, 0.000000000000000000 ) ) ;
#592 = LINE ( 'NONE', #795, #515 ) ;
#593 = AXIS2_PLACEMENT_3D ( 'NONE', #143, #518, #807 ) ;
#594 = EDGE_LOOP ( 'NONE', ( #501, #76 ) ) ;
#595 = CIRCLE ( 'NONE', #162, 2.999999999999988898 ) ;
#596 = ORIENTED_EDGE ( 'NONE', *, *, #1177, .F. ) ;
#597 = EDGE_CURVE ( 'NONE', #885, #1030, #783, .T. ) ;
#598 = DIRECTION ( 'NONE',  ( 0.000000000000000000, 0.000000000000000000, -1.000000000000000000 ) ) ;
#599 = FACE_OUTER_BOUND ( 'NONE', #342, .T. ) ;
#600 = CARTESIAN_POINT ( 'NONE',  ( -196.0000000000000000, -15.00000000000000355, 17.25000000000000000 ) ) ;
#601 = CYLINDRICAL_SURFACE ( 'NONE', #957, 3.499999999999999556 ) ;
#602 = EDGE_CURVE ( 'NONE', #106, #920, #185, .T. ) ;
#603 = CARTESIAN_POINT ( 'NONE',  ( 0.000000000000000000, 14.99999999999999645, 17.25000000000000000 ) ) ;
#604 = AXIS2_PLACEMENT_3D ( 'NONE', #167, #924, #735 ) ;
#605 = DIRECTION ( 'NONE',  ( 0.000000000000000000, -1.000000000000000000, 8.831770080096219258E-15 ) ) ;
#606 = DIRECTION ( 'NONE',  ( 1.000000000000000000, 0.000000000000000000, 0.000000000000000000 ) ) ;
#607 = ORIENTED_EDGE ( 'NONE', *, *, #254, .T. ) ;
#608 = DIRECTION ( 'NONE',  ( 0.000000000000000000, 0.000000000000000000, -1.000000000000000000 ) ) ;
#609 = EDGE_CURVE ( 'NONE', #436, #833, #934, .T. ) ;
#610 = CARTESIAN_POINT ( 'NONE',  ( -196.0000000000000000, 14.99999999999999645, 17.25000000000000000 ) ) ;
#611 = EDGE_CURVE ( 'NONE', #346, #389, #352, .T. ) ;
#612 = CIRCLE ( 'NONE', #200, 3.000000000000001332 ) ;
#613 = VERTEX_POINT ( 'NONE', #836 ) ;
#614 =( GEOMETRIC_REPRESENTATION_CONTEXT ( 3 ) GLOBAL_UNCERTAINTY_ASSIGNED_CONTEXT ( ( #408 ) ) GLOBAL_UNIT_ASSIGNED_CONTEXT ( ( #493, #582, #1041 ) ) REPRESENTATION_CONTEXT ( 'NONE', 'WORKASPACE' ) );
#615 = CARTESIAN_POINT ( 'NONE',  ( 7.000000000000006217, 49.49747468305849907, 52.49747468305813669 ) ) ;
#616 = DIRECTION ( 'NONE',  ( -1.000000000000000000, -0.000000000000000000, -0.000000000000000000 ) ) ;
#617 = CARTESIAN_POINT ( 'NONE',  ( 0.000000000000000000, -49.49747468305884723, -46.49747468305780984 ) ) ;
#618 = EDGE_LOOP ( 'NONE', ( #1171, #1117, #348, #10 ) ) ;
#619 = CYLINDRICAL_SURFACE ( 'NONE', #585, 2.999999999999988898 ) ;
#620 = DIRECTION ( 'NONE',  ( 0.000000000000000000, 0.000000000000000000, -1.000000000000000000 ) ) ;
#621 = CARTESIAN_POINT ( 'NONE',  ( 0.000000000000000000, -55.49747468305832143, 49.49747468305832143 ) ) ;
#622 = EDGE_LOOP ( 'NONE', ( #400, #83 ) ) ;
#623 = ADVANCED_FACE ( 'NONE', ( #471 ), #843, .F. ) ;
#624 = STYLED_ITEM ( 'NONE', ( #531 ), #731 ) ;
#625 = CARTESIAN_POINT ( 'NONE',  ( 112.5652235787996176, 55.49747468305848486, 49.49747468305810827 ) ) ;
#626 = AXIS2_PLACEMENT_3D ( 'NONE', #825, #1015, #1020 ) ;
#627 = DIRECTION ( 'NONE',  ( 0.000000000000000000, 0.000000000000000000, -1.000000000000000000 ) ) ;
#628 = DIRECTION ( 'NONE',  ( 1.000000000000000000, 0.000000000000000000, 0.000000000000000000 ) ) ;
#629 = EDGE_LOOP ( 'NONE', ( #495, #91 ) ) ;
#630 = AXIS2_PLACEMENT_3D ( 'NONE', #382, #755, #662 ) ;
#631 = DIRECTION ( 'NONE',  ( -1.000000000000000000, 0.000000000000000000, 0.000000000000000000 ) ) ;
#632 =( NAMED_UNIT ( * ) PLANE_ANGLE_UNIT ( ) SI_UNIT ( $, .RADIAN. ) );
#633 = ORIENTED_EDGE ( 'NONE', *, *, #355, .T. ) ;
#634 = ORIENTED_EDGE ( 'NONE', *, *, #557, .T. ) ;
#635 = EDGE_CURVE ( 'NONE', #751, #586, #1035, .T. ) ;
#636 = CARTESIAN_POINT ( 'NONE',  ( -196.0000000000000000, 7.715274834628325378E-15, -33.39999999999999147 ) ) ;
#637 = ORIENTED_EDGE ( 'NONE', *, *, #774, .T. ) ;
#638 = ORIENTED_EDGE ( 'NONE', *, *, #1071, .F. ) ;
#639 = DIRECTION ( 'NONE',  ( 0.000000000000000000, 0.000000000000000000, -1.000000000000000000 ) ) ;
#640 = ADVANCED_FACE ( 'NONE', ( #851 ), #752, .F. ) ;
#641 = DIRECTION ( 'NONE',  ( 1.000000000000000000, 0.000000000000000000, 0.000000000000000000 ) ) ;
#642 = ORIENTED_EDGE ( 'NONE', *, *, #774, .F. ) ;
#643 = ORIENTED_EDGE ( 'NONE', *, *, #1120, .F. ) ;
#644 = EDGE_CURVE ( 'NONE', #23, #370, #1057, .T. ) ;
#645 = AXIS2_PLACEMENT_3D ( 'NONE', #914, #551, #923 ) ;
#646 = DIRECTION ( 'NONE',  ( -1.000000000000000000, -0.000000000000000000, -0.000000000000000000 ) ) ;
#647 = ORIENTED_EDGE ( 'NONE', *, *, #100, .F. ) ;
#648 = DIRECTION ( 'NONE',  ( 1.000000000000000000, 0.000000000000000000, 0.000000000000000000 ) ) ;
#649 = DIRECTION ( 'NONE',  ( 0.000000000000000000, 0.000000000000000000, -1.000000000000000000 ) ) ;
#650 = ORIENTED_EDGE ( 'NONE', *, *, #609, .F. ) ;
#651 = VERTEX_POINT ( 'NONE', #1129 ) ;
#652 = EDGE_CURVE ( 'NONE', #389, #758, #279, .T. ) ;
#653 = DIRECTION ( 'NONE',  ( 0.000000000000000000, 0.000000000000000000, -1.000000000000000000 ) ) ;
#654 = CIRCLE ( 'NONE', #604, 3.000000000000001332 ) ;
#655 = DIRECTION ( 'NONE',  ( -1.000000000000000000, -0.000000000000000000, -0.000000000000000000 ) ) ;
#656 = EDGE_CURVE ( 'NONE', #206, #833, #135, .T. ) ;
#657 = DIRECTION ( 'NONE',  ( 0.000000000000000000, 0.000000000000000000, -1.000000000000000000 ) ) ;
#658 = EDGE_LOOP ( 'NONE', ( #1107, #811 ) ) ;
#659 = AXIS2_PLACEMENT_3D ( 'NONE', #327, #695, #34 ) ;
#660 = ORIENTED_EDGE ( 'NONE', *, *, #939, .T. ) ;
#661 = DIRECTION ( 'NONE',  ( -1.000000000000000000, -0.000000000000000000, -0.000000000000000000 ) ) ;
#662 = DIRECTION ( 'NONE',  ( 0.000000000000000000, 0.000000000000000000, -1.000000000000000000 ) ) ;
#663 = CARTESIAN_POINT ( 'NONE',  ( -196.0000000000000000, 15.00000000000000000, -14.99999999999999822 ) ) ;
#664 = VECTOR ( 'NONE', #1209, 1000.000000000000000 ) ;
#665 = CIRCLE ( 'NONE', #846, 5.999999999999998224 ) ;
#666 = VERTEX_POINT ( 'NONE', #283 ) ;
#667 = VERTEX_POINT ( 'NONE', #973 ) ;
#668 = DIRECTION ( 'NONE',  ( 0.000000000000000000, 0.000000000000000000, -1.000000000000000000 ) ) ;
#669 = DIRECTION ( 'NONE',  ( 0.000000000000000000, 5.116819173389080100E-15, 1.000000000000000000 ) ) ;
#670 = EDGE_LOOP ( 'NONE', ( #477, #921, #1200, #763 ) ) ;
#671 = FACE_OUTER_BOUND ( 'NONE', #459, .T. ) ;
#672 = DIRECTION ( 'NONE',  ( 0.000000000000000000, 0.000000000000000000, -1.000000000000000000 ) ) ;
#673 = DIRECTION ( 'NONE',  ( 0.000000000000000000, 0.000000000000000000, -1.000000000000000000 ) ) ;
#674 = EDGE_LOOP ( 'NONE', ( #798, #174 ) ) ;
#675 = CARTESIAN_POINT ( 'NONE',  ( -196.0000000000000000, 49.49747468305849907, 52.49747468305813669 ) ) ;
#676 = CIRCLE ( 'NONE', #217, 2.249999999999998668 ) ;
#677 = ORIENTED_EDGE ( 'NONE', *, *, #837, .T. ) ;
#678 = EDGE_CURVE ( 'NONE', #860, #522, #222, .T. ) ;
#679 = ORIENTED_EDGE ( 'NONE', *, *, #521, .T. ) ;
#680 = LINE ( 'NONE', #703, #509 ) ;
#681 = PRODUCT_DEFINITION_CONTEXT ( 'detailed design', #1148, 'design' ) ;
#682 = CARTESIAN_POINT ( 'NONE',  ( 7.000000000000006217, 49.49747468305798037, -49.49747468305866960 ) ) ;
#683 = CYLINDRICAL_SURFACE ( 'NONE', #277, 3.000000000000001332 ) ;
#684 = CIRCLE ( 'NONE', #475, 5.999999999999991118 ) ;
#685 = AXIS2_PLACEMENT_3D ( 'NONE', #546, #712, #620 ) ;
#686 = EDGE_CURVE ( 'NONE', #107, #1099, #126, .T. ) ;
#687 = EDGE_LOOP ( 'NONE', ( #915, #354 ) ) ;
#688 = DIRECTION ( 'NONE',  ( -1.000000000000000000, 0.000000000000000000, 0.000000000000000000 ) ) ;
#689 = CARTESIAN_POINT ( 'NONE',  ( 0.000000000000000000, -55.49747468305884013, -49.49747468305776010 ) ) ;
#690 = CARTESIAN_POINT ( 'NONE',  ( -196.0000000000000000, -49.49747468305884723, -46.49747468305780984 ) ) ;
#691 = VERTEX_POINT ( 'NONE', #621 ) ;
#692 = AXIS2_PLACEMENT_3D ( 'NONE', #940, #489, #669 ) ;
#693 = ORIENTED_EDGE ( 'NONE', *, *, #850, .F. ) ;
#694 = EDGE_CURVE ( 'NONE', #389, #346, #567, .T. ) ;
#695 = DIRECTION ( 'NONE',  ( -1.000000000000000000, -0.000000000000000000, -0.000000000000000000 ) ) ;
#696 = DIRECTION ( 'NONE',  ( -1.000000000000000000, -0.000000000000000000, -0.000000000000000000 ) ) ;
#697 = CIRCLE ( 'NONE', #1202, 2.999999999999995559 ) ;
#698 = EDGE_CURVE ( 'NONE', #1062, #560, #60, .T. ) ;
#699 = LINE ( 'NONE', #984, #810 ) ;
#700 = DIRECTION ( 'NONE',  ( -1.000000000000000000, 0.000000000000000000, 0.000000000000000000 ) ) ;
#701 = EDGE_LOOP ( 'NONE', ( #769, #74, #702, #275 ) ) ;
#702 = ORIENTED_EDGE ( 'NONE', *, *, #950, .T. ) ;
#703 = CARTESIAN_POINT ( 'NONE',  ( -196.0000000000000000, -15.00000000000000355, 12.75000000000000178 ) ) ;
#704 = FACE_OUTER_BOUND ( 'NONE', #463, .T. ) ;
#705 = CARTESIAN_POINT ( 'NONE',  ( -196.0000000000000000, 49.49747468305849907, 46.49747468305816511 ) ) ;
#706 = ORIENTED_EDGE ( 'NONE', *, *, #686, .T. ) ;
#707 = AXIS2_PLACEMENT_3D ( 'NONE', #782, #129, #239 ) ;
#708 = AXIS2_PLACEMENT_3D ( 'NONE', #948, #661, #1039 ) ;
#709 = ORIENTED_EDGE ( 'NONE', *, *, #611, .T. ) ;
#710 = VECTOR ( 'NONE', #307, 1000.000000000000000 ) ;
#711 = CARTESIAN_POINT ( 'NONE',  ( 0.000000000000000000, -2.701750790494728819E-16, 25.80614694161271316 ) ) ;
#712 = DIRECTION ( 'NONE',  ( -1.000000000000000000, -0.000000000000000000, -0.000000000000000000 ) ) ;
#713 = CARTESIAN_POINT ( 'NONE',  ( -196.0000000000000000, -49.49747468305832143, 46.49747468305832854 ) ) ;
#714 = ORIENTED_EDGE ( 'NONE', *, *, #300, .T. ) ;
#715 = ORIENTED_EDGE ( 'NONE', *, *, #694, .T. ) ;
#716 = CARTESIAN_POINT ( 'NONE',  ( 7.000000000000006217, 14.99999999999999645, 15.00000000000000178 ) ) ;
#717 = VECTOR ( 'NONE', #1199, 1000.000000000000000 ) ;
#718 = ORIENTED_EDGE ( 'NONE', *, *, #285, .F. ) ;
#719 = ORIENTED_EDGE ( 'NONE', *, *, #391, .T. ) ;
#720 = ADVANCED_FACE ( 'NONE', ( #345 ), #1187, .T. ) ;
#721 = CARTESIAN_POINT ( 'NONE',  ( 7.000000000000006217, 14.99999999999999645, 12.75000000000000178 ) ) ;
#722 = CARTESIAN_POINT ( 'NONE',  ( -196.0000000000000000, 7.347880794884118356E-15, -36.39999999999999147 ) ) ;
#723 = FACE_BOUND ( 'NONE', #580, .T. ) ;
#724 = EDGE_LOOP ( 'NONE', ( #637, #866 ) ) ;
#725 = EDGE_LOOP ( 'NONE', ( #764, #304, #289, #1155 ) ) ;
#726 = VECTOR ( 'NONE', #631, 1000.000000000000000 ) ;
#727 = VECTOR ( 'NONE', #688, 1000.000000000000000 ) ;
#728 = CARTESIAN_POINT ( 'NONE',  ( 0.000000000000000000, 49.49747468305798037, -49.49747468305866960 ) ) ;
#729 = CARTESIAN_POINT ( 'NONE',  ( 7.000000000000006217, -49.49747468305884723, -49.49747468305779563 ) ) ;
#730 = VERTEX_POINT ( 'NONE', #1179 ) ;
#731 = MANIFOLD_SOLID_BREP ( 'Boss-Extrude8', #578 ) ;
#732 = ADVANCED_FACE ( 'NONE', ( #155, #908, #73, #446, #819, #1194, #897, #138, #353, #340, #723, #1104, #261 ), #52, .T. ) ;
#733 = CIRCLE ( 'NONE', #365, 3.000000000000001332 ) ;
#734 = CARTESIAN_POINT ( 'NONE',  ( 0.000000000000000000, 15.00000000000000000, -14.99999999999999822 ) ) ;
#735 = DIRECTION ( 'NONE',  ( 0.000000000000000000, 0.000000000000000000, -1.000000000000000000 ) ) ;
#736 = EDGE_CURVE ( 'NONE', #1105, #62, #336, .T. ) ;
#737 = EDGE_LOOP ( 'NONE', ( #596, #865, #1076, #859 ) ) ;
#738 = VERTEX_POINT ( 'NONE', #247 ) ;
#739 = AXIS2_PLACEMENT_3D ( 'NONE', #941, #606, #464 ) ;
#740 = DIRECTION ( 'NONE',  ( -1.000000000000000000, -0.000000000000000000, -0.000000000000000000 ) ) ;
#741 = ORIENTED_EDGE ( 'NONE', *, *, #33, .F. ) ;
#742 = ORIENTED_EDGE ( 'NONE', *, *, #177, .F. ) ;
#743 = APPLICATION_CONTEXT ( 'automotive_design' ) ;
#744 = DIRECTION ( 'NONE',  ( 1.000000000000000000, 0.000000000000000000, 0.000000000000000000 ) ) ;
#745 = CIRCLE ( 'NONE', #943, 2.999999999999988898 ) ;
#746 = CIRCLE ( 'NONE', #685, 2.250000000000000444 ) ;
#747 = AXIS2_PLACEMENT_3D ( 'NONE', #401, #202, #96 ) ;
#748 = CARTESIAN_POINT ( 'NONE',  ( -196.0000000000000000, 49.49747468305798037, -49.49747468305866960 ) ) ;
#749 = EDGE_CURVE ( 'NONE', #426, #926, #330, .T. ) ;
#750 = ORIENTED_EDGE ( 'NONE', *, *, #569, .F. ) ;
#751 = VERTEX_POINT ( 'NONE', #474 ) ;
#752 = CYLINDRICAL_SURFACE ( 'NONE', #371, 3.000000000000002665 ) ;
#753 = ADVANCED_FACE ( 'NONE', ( #565 ), #839, .F. ) ;
#754 = CARTESIAN_POINT ( 'NONE',  ( 0.000000000000000000, -23.60000000000000142, -3.000000000000001332 ) ) ;
#755 = DIRECTION ( 'NONE',  ( 1.000000000000000000, 0.000000000000000000, 0.000000000000000000 ) ) ;
#756 = DIRECTION ( 'NONE',  ( 1.000000000000000000, 0.000000000000000000, 0.000000000000000000 ) ) ;
#757 = CARTESIAN_POINT ( 'NONE',  ( 7.000000000000006217, -2.701750790494728819E-16, 25.80614694161271316 ) ) ;
#758 = VERTEX_POINT ( 'NONE', #1132 ) ;
#759 = CIRCLE ( 'NONE', #878, 2.999999999999995559 ) ;
#760 = CARTESIAN_POINT ( 'NONE',  ( -196.0000000000000000, -23.60000000000000142, 3.000000000000001332 ) ) ;
#761 = FACE_OUTER_BOUND ( 'NONE', #779, .T. ) ;
#762 = CARTESIAN_POINT ( 'NONE',  ( 0.000000000000000000, 55.49747468305849196, 49.49747468305812248 ) ) ;
#763 = ORIENTED_EDGE ( 'NONE', *, *, #967, .F. ) ;
#764 = ORIENTED_EDGE ( 'NONE', *, *, #534, .F. ) ;
#765 = DIRECTION ( 'NONE',  ( -1.000000000000000000, -0.000000000000000000, -0.000000000000000000 ) ) ;
#766 = CARTESIAN_POINT ( 'NONE',  ( 0.000000000000000000, 49.49747468305852038, 55.49747468305813669 ) ) ;
#767 = DIRECTION ( 'NONE',  ( -1.000000000000000000, -0.000000000000000000, -0.000000000000000000 ) ) ;
#768 = AXIS2_PLACEMENT_3D ( 'NONE', #439, #158, #49 ) ;
#769 = ORIENTED_EDGE ( 'NONE', *, *, #341, .F. ) ;
#770 = VERTEX_POINT ( 'NONE', #465 ) ;
#771 = ORIENTED_EDGE ( 'NONE', *, *, #1090, .T. ) ;
#772 = FACE_BOUND ( 'NONE', #629, .T. ) ;
#773 = CARTESIAN_POINT ( 'NONE',  ( 0.000000000000000000, 7.347880794884118356E-15, -36.39999999999999147 ) ) ;
#774 = EDGE_CURVE ( 'NONE', #269, #758, #1031, .T. ) ;
#775 = CARTESIAN_POINT ( 'NONE',  ( -196.0000000000000000, -49.49747468305884723, -52.49747468305778852 ) ) ;
#776 = CARTESIAN_POINT ( 'NONE',  ( 7.000000000000006217, -49.49747468305832143, 49.49747468305832143 ) ) ;
#777 = DIRECTION ( 'NONE',  ( 0.000000000000000000, 0.000000000000000000, -1.000000000000000000 ) ) ;
#778 = ADVANCED_FACE ( 'NONE', ( #181 ), #79, .T. ) ;
#779 = EDGE_LOOP ( 'NONE', ( #61, #568, #994, #574 ) ) ;
#780 = DIRECTION ( 'NONE',  ( 1.000000000000000000, 0.000000000000000000, 0.000000000000000000 ) ) ;
#781 = DIRECTION ( 'NONE',  ( -1.000000000000000000, -0.000000000000000000, -0.000000000000000000 ) ) ;
#782 = CARTESIAN_POINT ( 'NONE',  ( 0.000000000000000000, 7.347880794884118356E-15, -36.39999999999999147 ) ) ;
#783 = CIRCLE ( 'NONE', #59, 5.999999999999991118 ) ;
#784 = ORIENTED_EDGE ( 'NONE', *, *, #215, .T. ) ;
#785 = DIRECTION ( 'NONE',  ( -1.000000000000000000, -0.000000000000000000, -0.000000000000000000 ) ) ;
#786 = DIRECTION ( 'NONE',  ( 1.000000000000000000, 0.000000000000000000, 0.000000000000000000 ) ) ;
#787 = DIRECTION ( 'NONE',  ( -1.000000000000000000, -0.000000000000000000, -0.000000000000000000 ) ) ;
#788 = EDGE_CURVE ( 'NONE', #797, #298, #504, .T. ) ;
#789 = AXIS2_PLACEMENT_3D ( 'NONE', #845, #20, #672 ) ;
#790 = VERTEX_POINT ( 'NONE', #547 ) ;
#791 = CYLINDRICAL_SURFACE ( 'NONE', #804, 2.999999999999988898 ) ;
#792 = DIRECTION ( 'NONE',  ( 1.000000000000000000, 0.000000000000000000, 0.000000000000000000 ) ) ;
#793 = EDGE_CURVE ( 'NONE', #651, #842, #654, .T. ) ;
#794 = DIRECTION ( 'NONE',  ( 1.000000000000000000, 0.000000000000000000, 0.000000000000000000 ) ) ;
#795 = CARTESIAN_POINT ( 'NONE',  ( 6.999999999999992006, 55.49747468305848486, 49.49747468305810827 ) ) ;
#796 = DIRECTION ( 'NONE',  ( 0.000000000000000000, 0.000000000000000000, -1.000000000000000000 ) ) ;
#797 = VERTEX_POINT ( 'NONE', #1126 ) ;
#798 = ORIENTED_EDGE ( 'NONE', *, *, #537, .F. ) ;
#799 = DIRECTION ( 'NONE',  ( -1.000000000000000000, -0.000000000000000000, -0.000000000000000000 ) ) ;
#800 = DIRECTION ( 'NONE',  ( 0.000000000000000000, 0.000000000000000000, -1.000000000000000000 ) ) ;
#801 = AXIS2_PLACEMENT_3D ( 'NONE', #191, #1010, #451 ) ;
#802 = CARTESIAN_POINT ( 'NONE',  ( -196.0000000000000000, 49.49747468305798037, -52.49747468305866960 ) ) ;
#803 = EDGE_LOOP ( 'NONE', ( #99, #643, #69, #448 ) ) ;
#804 = AXIS2_PLACEMENT_3D ( 'NONE', #887, #150, #995 ) ;
#805 = ORIENTED_EDGE ( 'NONE', *, *, #1207, .T. ) ;
#806 = CARTESIAN_POINT ( 'NONE',  ( 7.000000000000006217, -49.49747468305832143, 46.49747468305832854 ) ) ;
#807 = DIRECTION ( 'NONE',  ( 0.000000000000000000, 0.000000000000000000, -1.000000000000000000 ) ) ;
#808 = DIRECTION ( 'NONE',  ( 0.000000000000000000, 0.000000000000000000, -1.000000000000000000 ) ) ;
#809 =( NAMED_UNIT ( * ) SI_UNIT ( $, .STERADIAN. ) SOLID_ANGLE_UNIT ( ) );
#810 = VECTOR ( 'NONE', #144, 1000.000000000000000 ) ;
#811 = ORIENTED_EDGE ( 'NONE', *, *, #1212, .T. ) ;
#812 = CARTESIAN_POINT ( 'NONE',  ( -196.0000000000000000, 15.00000000000000000, -12.74999999999999645 ) ) ;
#813 = DIRECTION ( 'NONE',  ( 0.000000000000000000, 0.000000000000000000, -1.000000000000000000 ) ) ;
#814 = ORIENTED_EDGE ( 'NONE', *, *, #939, .F. ) ;
#815 = ADVANCED_FACE ( 'NONE', ( #369 ), #1110, .F. ) ;
#816 = LINE ( 'NONE', #136, #727 ) ;
#817 = DIRECTION ( 'NONE',  ( 1.000000000000000000, 0.000000000000000000, 0.000000000000000000 ) ) ;
#818 = AXIS2_PLACEMENT_3D ( 'NONE', #1151, #31, #657 ) ;
#819 = FACE_BOUND ( 'NONE', #594, .T. ) ;
#820 = ADVANCED_FACE ( 'NONE', ( #383 ), #376, .F. ) ;
#821 = ORIENTED_EDGE ( 'NONE', *, *, #652, .F. ) ;
#822 = ORIENTED_EDGE ( 'NONE', *, *, #1079, .F. ) ;
#823 = AXIS2_PLACEMENT_3D ( 'NONE', #588, #381, #935 ) ;
#824 = AXIS2_PLACEMENT_3D ( 'NONE', #900, #785, #608 ) ;
#825 = CARTESIAN_POINT ( 'NONE',  ( -16.97056274847711421, -49.49747468305884723, -49.49747468305779563 ) ) ;
#826 = CARTESIAN_POINT ( 'NONE',  ( 7.000000000000006217, 49.49747468305798037, -52.49747468305866960 ) ) ;
#827 = EDGE_LOOP ( 'NONE', ( #1023, #18 ) ) ;
#828 = ADVANCED_FACE ( 'NONE', ( #288 ), #1029, .F. ) ;
#829 = VERTEX_POINT ( 'NONE', #826 ) ;
#830 = EDGE_CURVE ( 'NONE', #2, #885, #1021, .T. ) ;
#831 = FACE_OUTER_BOUND ( 'NONE', #876, .T. ) ;
#832 = CARTESIAN_POINT ( 'NONE',  ( 7.000000000000006217, -15.00000000000000355, 15.00000000000000178 ) ) ;
#833 = VERTEX_POINT ( 'NONE', #360 ) ;
#834 = CYLINDRICAL_SURFACE ( 'NONE', #626, 5.999999999999991118 ) ;
#835 = ORIENTED_EDGE ( 'NONE', *, *, #311, .T. ) ;
#836 = CARTESIAN_POINT ( 'NONE',  ( 6.999999999999992006, -55.49747468305832143, 49.49747468305832143 ) ) ;
#837 = EDGE_CURVE ( 'NONE', #28, #667, #1016, .T. ) ;
#838 = AXIS2_PLACEMENT_3D ( 'NONE', #1153, #380, #1124 ) ;
#839 = CYLINDRICAL_SURFACE ( 'NONE', #562, 2.249999999999998668 ) ;
#840 = VECTOR ( 'NONE', #82, 1000.000000000000000 ) ;
#841 = CARTESIAN_POINT ( 'NONE',  ( 6.999999999999992006, -55.49747468305881881, -49.49747468305779563 ) ) ;
#842 = VERTEX_POINT ( 'NONE', #173 ) ;
#843 = CYLINDRICAL_SURFACE ( 'NONE', #739, 2.999999999999988898 ) ;
#844 = FACE_BOUND ( 'NONE', #1095, .T. ) ;
#845 = CARTESIAN_POINT ( 'NONE',  ( 7.000000000000006217, 49.49747468305798037, -49.49747468305866960 ) ) ;
#846 = AXIS2_PLACEMENT_3D ( 'NONE', #1085, #997, #328 ) ;
#847 = DIRECTION ( 'NONE',  ( 1.000000000000000000, 0.000000000000000000, 0.000000000000000000 ) ) ;
#848 = VERTEX_POINT ( 'NONE', #457 ) ;
#849 = ORIENTED_EDGE ( 'NONE', *, *, #300, .F. ) ;
#850 = EDGE_CURVE ( 'NONE', #758, #269, #190, .T. ) ;
#851 = FACE_OUTER_BOUND ( 'NONE', #105, .T. ) ;
#852 = EDGE_LOOP ( 'NONE', ( #607, #771, #419, #650 ) ) ;
#853 = CARTESIAN_POINT ( 'NONE',  ( 0.000000000000000000, -49.49747468305832143, 49.49747468305832143 ) ) ;
#854 = CARTESIAN_POINT ( 'NONE',  ( 0.000000000000000000, -49.49747468305884723, -49.49747468305779563 ) ) ;
#855 = AXIS2_PLACEMENT_3D ( 'NONE', #776, #1152, #308 ) ;
#856 = FACE_OUTER_BOUND ( 'NONE', #670, .T. ) ;
#857 = DIRECTION ( 'NONE',  ( 0.000000000000000000, 0.000000000000000000, -1.000000000000000000 ) ) ;
#858 = ADVANCED_FACE ( 'NONE', ( #296 ), #873, .F. ) ;
#859 = ORIENTED_EDGE ( 'NONE', *, *, #880, .F. ) ;
#860 = VERTEX_POINT ( 'NONE', #870 ) ;
#861 = CARTESIAN_POINT ( 'NONE',  ( 7.000000000000006217, -49.49747468305884723, -49.49747468305779563 ) ) ;
#862 = DIRECTION ( 'NONE',  ( -0.000000000000000000, 1.000000000000000000, -1.892522160020618300E-15 ) ) ;
#863 = VECTOR ( 'NONE', #982, 1000.000000000000000 ) ;
#864 = CYLINDRICAL_SURFACE ( 'NONE', #287, 2.249999999999998668 ) ;
#865 = ORIENTED_EDGE ( 'NONE', *, *, #124, .T. ) ;
#866 = ORIENTED_EDGE ( 'NONE', *, *, #850, .T. ) ;
#867 = ADVANCED_FACE ( 'NONE', ( #856 ), #1159, .F. ) ;
#868 = DIRECTION ( 'NONE',  ( -1.000000000000000000, -0.000000000000000000, -0.000000000000000000 ) ) ;
#869 = EDGE_CURVE ( 'NONE', #829, #373, #759, .T. ) ;
#870 = CARTESIAN_POINT ( 'NONE',  ( 0.000000000000000000, 49.49747468305849907, 52.49747468305813669 ) ) ;
#871 = EDGE_LOOP ( 'NONE', ( #533, #496, #302, #241 ) ) ;
#872 = VERTEX_POINT ( 'NONE', #410 ) ;
#873 = CYLINDRICAL_SURFACE ( 'NONE', #425, 2.250000000000003553 ) ;
#874 = CARTESIAN_POINT ( 'NONE',  ( 112.5652235787996176, -55.49747468305884723, -49.49747468305779563 ) ) ;
#875 = CARTESIAN_POINT ( 'NONE',  ( 112.5652235787996176, 49.49747468305852038, 55.49747468305813669 ) ) ;
#876 = EDGE_LOOP ( 'NONE', ( #45, #835, #27, #742 ) ) ;
#877 = ORIENTED_EDGE ( 'NONE', *, *, #555, .T. ) ;
#878 = AXIS2_PLACEMENT_3D ( 'NONE', #388, #1165, #205 ) ;
#879 = FACE_BOUND ( 'NONE', #386, .T. ) ;
#880 = EDGE_CURVE ( 'NONE', #373, #829, #347, .T. ) ;
#881 = CARTESIAN_POINT ( 'NONE',  ( -16.97056274847711421, 49.49747468305798037, -49.49747468305866960 ) ) ;
#882 = DIRECTION ( 'NONE',  ( 0.000000000000000000, -5.116819173389080100E-15, -1.000000000000000000 ) ) ;
#883 = AXIS2_PLACEMENT_3D ( 'NONE', #853, #765, #392 ) ;
#884 = VECTOR ( 'NONE', #63, 1000.000000000000000 ) ;
#885 = VERTEX_POINT ( 'NONE', #1145 ) ;
#886 = ADVANCED_FACE ( 'NONE', ( #315 ), #1067, .F. ) ;
#887 = CARTESIAN_POINT ( 'NONE',  ( -196.0000000000000000, 49.49747468305849907, 49.49747468305815090 ) ) ;
#888 = CARTESIAN_POINT ( 'NONE',  ( 7.000000000000006217, 23.60000000000000142, 9.108356170405185248E-15 ) ) ;
#889 = DIRECTION ( 'NONE',  ( 0.000000000000000000, -5.327099413391408712E-15, -1.000000000000000000 ) ) ;
#890 = DIRECTION ( 'NONE',  ( -1.000000000000000000, -0.000000000000000000, -0.000000000000000000 ) ) ;
#891 = CIRCLE ( 'NONE', #456, 2.250000000000000444 ) ;
#892 = EDGE_LOOP ( 'NONE', ( #1116, #1032, #584, #638 ) ) ;
#893 = ADVANCED_FACE ( 'NONE', ( #1036 ), #864, .F. ) ;
#894 = DIRECTION ( 'NONE',  ( 0.000000000000000000, 0.000000000000000000, -1.000000000000000000 ) ) ;
#895 = CARTESIAN_POINT ( 'NONE',  ( 0.000000000000000000, -49.49747468305832143, 46.49747468305832854 ) ) ;
#896 = DIRECTION ( 'NONE',  ( 1.000000000000000000, 0.000000000000000000, 0.000000000000000000 ) ) ;
#897 = FACE_BOUND ( 'NONE', #687, .T. ) ;
#898 = ORIENTED_EDGE ( 'NONE', *, *, #524, .F. ) ;
#899 = ORIENTED_EDGE ( 'NONE', *, *, #139, .F. ) ;
#900 = CARTESIAN_POINT ( 'NONE',  ( 7.000000000000006217, -49.49747468305832143, 49.49747468305832143 ) ) ;
#901 = DIRECTION ( 'NONE',  ( -1.000000000000000000, -0.000000000000000000, -0.000000000000000000 ) ) ;
#902 = AXIS2_PLACEMENT_3D ( 'NONE', #36, #767, #1139 ) ;
#903 = LINE ( 'NONE', #802, #1024 ) ;
#904 = ORIENTED_EDGE ( 'NONE', *, *, #1008, .T. ) ;
#905 = EDGE_CURVE ( 'NONE', #842, #651, #55, .T. ) ;
#906 = EDGE_CURVE ( 'NONE', #62, #522, #1191, .T. ) ;
#907 = DIRECTION ( 'NONE',  ( -1.000000000000000000, -0.000000000000000000, -0.000000000000000000 ) ) ;
#908 = FACE_BOUND ( 'NONE', #724, .T. ) ;
#909 = EDGE_LOOP ( 'NONE', ( #709, #193, #642, #384 ) ) ;
#910 = AXIS2_PLACEMENT_3D ( 'NONE', #888, #338, #250 ) ;
#911 = VECTOR ( 'NONE', #605, 1000.000000000000000 ) ;
#912 = AXIS2_PLACEMENT_3D ( 'NONE', #575, #406, #472 ) ;
#913 = EDGE_LOOP ( 'NONE', ( #821, #715, #877, #693 ) ) ;
#914 = CARTESIAN_POINT ( 'NONE',  ( -196.0000000000000000, -23.60000000000000142, 0.000000000000000000 ) ) ;
#915 = ORIENTED_EDGE ( 'NONE', *, *, #869, .T. ) ;
#916 = ORIENTED_EDGE ( 'NONE', *, *, #75, .T. ) ;
#917 = DIRECTION ( 'NONE',  ( 0.000000000000000000, 0.000000000000000000, -1.000000000000000000 ) ) ;
#918 = ADVANCED_FACE ( 'NONE', ( #761 ), #963, .T. ) ;
#919 = DIRECTION ( 'NONE',  ( 0.000000000000000000, 0.000000000000000000, -1.000000000000000000 ) ) ;
#920 = VERTEX_POINT ( 'NONE', #220 ) ;
#921 = ORIENTED_EDGE ( 'NONE', *, *, #602, .T. ) ;
#922 = EDGE_CURVE ( 'NONE', #954, #106, #975, .T. ) ;
#923 = DIRECTION ( 'NONE',  ( 0.000000000000000000, 0.000000000000000000, -1.000000000000000000 ) ) ;
#924 = DIRECTION ( 'NONE',  ( -1.000000000000000000, -0.000000000000000000, -0.000000000000000000 ) ) ;
#925 = ORIENTED_EDGE ( 'NONE', *, *, #33, .T. ) ;
#926 = VERTEX_POINT ( 'NONE', #414 ) ;
#927 = VECTOR ( 'NONE', #862, 1000.000000000000000 ) ;
#928 = CARTESIAN_POINT ( 'NONE',  ( 0.000000000000000000, -49.49747468305831433, 55.49747468305831433 ) ) ;
#929 = VERTEX_POINT ( 'NONE', #116 ) ;
#930 = CARTESIAN_POINT ( 'NONE',  ( 0.000000000000000000, 49.49747468305852038, 55.49747468305813669 ) ) ;
#931 = AXIS2_PLACEMENT_3D ( 'NONE', #757, #951, #857 ) ;
#932 = DIRECTION ( 'NONE',  ( 0.000000000000000000, 0.000000000000000000, -1.000000000000000000 ) ) ;
#933 = ORIENTED_EDGE ( 'NONE', *, *, #433, .T. ) ;
#934 = LINE ( 'NONE', #317, #1001 ) ;
#935 = DIRECTION ( 'NONE',  ( 0.000000000000000000, 0.000000000000000000, -1.000000000000000000 ) ) ;
#936 = AXIS2_PLACEMENT_3D ( 'NONE', #1074, #236, #1167 ) ;
#937 = CARTESIAN_POINT ( 'NONE',  ( 0.000000000000000000, 55.49747468305848486, 49.49747468305810827 ) ) ;
#938 = AXIS2_PLACEMENT_3D ( 'NONE', #1097, #256, #627 ) ;
#939 = EDGE_CURVE ( 'NONE', #586, #751, #1134, .T. ) ;
#940 = CARTESIAN_POINT ( 'NONE',  ( 112.5652235787996176, 55.49747468305848486, 49.49747468305810827 ) ) ;
#941 = CARTESIAN_POINT ( 'NONE',  ( -196.0000000000000000, 49.49747468305849907, 49.49747468305815090 ) ) ;
#942 = FACE_BOUND ( 'NONE', #674, .T. ) ;
#943 = AXIS2_PLACEMENT_3D ( 'NONE', #422, #901, #800 ) ;
#944 = DIRECTION ( 'NONE',  ( 0.000000000000000000, 0.000000000000000000, -1.000000000000000000 ) ) ;
#945 = ORIENTED_EDGE ( 'NONE', *, *, #635, .T. ) ;
#946 = ORIENTED_EDGE ( 'NONE', *, *, #992, .F. ) ;
#947 = ORIENTED_EDGE ( 'NONE', *, *, #357, .F. ) ;
#948 = CARTESIAN_POINT ( 'NONE',  ( 7.000000000000006217, 7.347880794884118356E-15, -36.39999999999999147 ) ) ;
#949 = DIRECTION ( 'NONE',  ( 0.000000000000000000, 0.000000000000000000, -1.000000000000000000 ) ) ;
#950 = EDGE_CURVE ( 'NONE', #500, #298, #479, .T. ) ;
#951 = DIRECTION ( 'NONE',  ( -1.000000000000000000, -0.000000000000000000, -0.000000000000000000 ) ) ;
#952 = AXIS2_PLACEMENT_3D ( 'NONE', #7, #641, #932 ) ;
#953 = EDGE_CURVE ( 'NONE', #420, #1062, #697, .T. ) ;
#954 = VERTEX_POINT ( 'NONE', #958 ) ;
#955 = PLANE ( 'NONE',  #912 ) ;
#956 = FACE_OUTER_BOUND ( 'NONE', #176, .T. ) ;
#957 = AXIS2_PLACEMENT_3D ( 'NONE', #40, #1091, #249 ) ;
#958 = CARTESIAN_POINT ( 'NONE',  ( 0.000000000000000000, -49.49747468305884723, -52.49747468305778852 ) ) ;
#959 = FACE_OUTER_BOUND ( 'NONE', #618, .T. ) ;
#960 = CIRCLE ( 'NONE', #1003, 3.000000000000001332 ) ;
#961 = EDGE_LOOP ( 'NONE', ( #405, #199 ) ) ;
#962 = EDGE_LOOP ( 'NONE', ( #297, #1012 ) ) ;
#963 = CYLINDRICAL_SURFACE ( 'NONE', #237, 5.999999999999991118 ) ;
#964 = CIRCLE ( 'NONE', #437, 2.999999999999995559 ) ;
#965 = CARTESIAN_POINT ( 'NONE',  ( -196.0000000000000000, -15.00000000000000355, -17.24999999999999645 ) ) ;
#966 = ORIENTED_EDGE ( 'NONE', *, *, #357, .T. ) ;
#967 = EDGE_CURVE ( 'NONE', #954, #790, #494, .T. ) ;
#968 = DIRECTION ( 'NONE',  ( 1.000000000000000000, 0.000000000000000000, 0.000000000000000000 ) ) ;
#969 = CARTESIAN_POINT ( 'NONE',  ( 7.000000000000020428, 55.49747468305797327, -49.49747468305871223 ) ) ;
#970 = DIRECTION ( 'NONE',  ( 0.000000000000000000, 0.000000000000000000, -1.000000000000000000 ) ) ;
#971 = ADVANCED_FACE ( 'NONE', ( #1058 ), #343, .F. ) ;
#972 = DIRECTION ( 'NONE',  ( 0.000000000000000000, 0.000000000000000000, -1.000000000000000000 ) ) ;
#973 = CARTESIAN_POINT ( 'NONE',  ( 7.000000000000020428, -49.49747468305891118, -55.49747468305779563 ) ) ;
#974 = EDGE_LOOP ( 'NONE', ( #188, #1180, #548, #719, #1022, #462, #163, #310 ) ) ;
#975 = CIRCLE ( 'NONE', #902, 2.999999999999988898 ) ;
#976 = CARTESIAN_POINT ( 'NONE',  ( 6.999999999999992006, -55.49747468305884723, -49.49747468305779563 ) ) ;
#977 = DIRECTION ( 'NONE',  ( -1.000000000000000000, -0.000000000000000000, -0.000000000000000000 ) ) ;
#978 = CIRCLE ( 'NONE', #708, 3.000000000000002665 ) ;
#979 = AXIS2_PLACEMENT_3D ( 'NONE', #1027, #309, #653 ) ;
#980 = EDGE_LOOP ( 'NONE', ( #822, #12, #634, #1082 ) ) ;
#981 = AXIS2_PLACEMENT_3D ( 'NONE', #485, #299, #208 ) ;
#982 = DIRECTION ( 'NONE',  ( 1.000000000000000000, 0.000000000000000000, 0.000000000000000000 ) ) ;
#983 = DIRECTION ( 'NONE',  ( 0.000000000000000000, 0.000000000000000000, -1.000000000000000000 ) ) ;
#984 = CARTESIAN_POINT ( 'NONE',  ( -196.0000000000000000, 7.347880794884118356E-15, -39.39999999999999858 ) ) ;
#985 = DIRECTION ( 'NONE',  ( 0.000000000000000000, 0.000000000000000000, -1.000000000000000000 ) ) ;
#986 = ORIENTED_EDGE ( 'NONE', *, *, #409, .T. ) ;
#987 = PRODUCT_DEFINITION_FORMATION_WITH_SPECIFIED_SOURCE ( 'ANY', '', #1181, .NOT_KNOWN. ) ;
#988 = ORIENTED_EDGE ( 'NONE', *, *, #906, .T. ) ;
#989 = FACE_OUTER_BOUND ( 'NONE', #482, .T. ) ;
#990 = LINE ( 'NONE', #610, #398 ) ;
#991 = CARTESIAN_POINT ( 'NONE',  ( -16.97056274847711421, 49.49747468305849907, 49.49747468305815090 ) ) ;
#992 = EDGE_CURVE ( 'NONE', #613, #691, #816, .T. ) ;
#993 = AXIS2_PLACEMENT_3D ( 'NONE', #9, #481, #467 ) ;
#994 = ORIENTED_EDGE ( 'NONE', *, *, #1138, .F. ) ;
#995 = DIRECTION ( 'NONE',  ( 0.000000000000000000, 0.000000000000000000, -1.000000000000000000 ) ) ;
#996 = EDGE_CURVE ( 'NONE', #370, #23, #320, .T. ) ;
#997 = DIRECTION ( 'NONE',  ( 1.000000000000000000, 0.000000000000000000, 0.000000000000000000 ) ) ;
#998 = DIRECTION ( 'NONE',  ( 1.000000000000000000, 0.000000000000000000, 0.000000000000000000 ) ) ;
#999 = AXIS2_PLACEMENT_3D ( 'NONE', #861, #868, #1143 ) ;
#1000 = ORIENTED_EDGE ( 'NONE', *, *, #232, .T. ) ;
#1001 = VECTOR ( 'NONE', #499, 1000.000000000000000 ) ;
#1002 = VERTEX_POINT ( 'NONE', #1072 ) ;
#1003 = AXIS2_PLACEMENT_3D ( 'NONE', #72, #264, #166 ) ;
#1004 = LINE ( 'NONE', #344, #372 ) ;
#1005 = SURFACE_SIDE_STYLE ('',( #145 ) ) ;
#1006 = ORIENTED_EDGE ( 'NONE', *, *, #341, .T. ) ;
#1007 = AXIS2_PLACEMENT_3D ( 'NONE', #286, #589, #109 ) ;
#1008 = EDGE_CURVE ( 'NONE', #1154, #613, #665, .T. ) ;
#1009 = DIRECTION ( 'NONE',  ( 0.000000000000000000, 0.000000000000000000, -1.000000000000000000 ) ) ;
#1010 = DIRECTION ( 'NONE',  ( 1.000000000000000000, 0.000000000000000000, 0.000000000000000000 ) ) ;
#1011 = EDGE_CURVE ( 'NONE', #16, #554, #891, .T. ) ;
#1012 = ORIENTED_EDGE ( 'NONE', *, *, #1042, .F. ) ;
#1013 = ORIENTED_EDGE ( 'NONE', *, *, #1162, .F. ) ;
#1014 = CIRCLE ( 'NONE', #931, 3.499999999999999556 ) ;
#1015 = DIRECTION ( 'NONE',  ( 1.000000000000000000, 0.000000000000000000, 0.000000000000000000 ) ) ;
#1016 = CIRCLE ( 'NONE', #270, 5.999999999999984901 ) ;
#1017 = ORIENTED_EDGE ( 'NONE', *, *, #1071, .T. ) ;
#1018 = ORIENTED_EDGE ( 'NONE', *, *, #84, .F. ) ;
#1019 = VECTOR ( 'NONE', #1061, 1000.000000000000000 ) ;
#1020 = DIRECTION ( 'NONE',  ( 0.000000000000000000, 0.000000000000000000, -1.000000000000000000 ) ) ;
#1021 = LINE ( 'NONE', #937, #717 ) ;
#1022 = ORIENTED_EDGE ( 'NONE', *, *, #1173, .T. ) ;
#1023 = ORIENTED_EDGE ( 'NONE', *, *, #905, .F. ) ;
#1024 = VECTOR ( 'NONE', #1178, 1000.000000000000000 ) ;
#1025 = CARTESIAN_POINT ( 'NONE',  ( -196.0000000000000000, -15.00000000000000355, 15.00000000000000178 ) ) ;
#1026 = VERTEX_POINT ( 'NONE', #603 ) ;
#1027 = CARTESIAN_POINT ( 'NONE',  ( 7.000000000000006217, 15.00000000000000000, -14.99999999999999822 ) ) ;
#1028 = EDGE_CURVE ( 'NONE', #282, #1026, #1066, .T. ) ;
#1029 = CYLINDRICAL_SURFACE ( 'NONE', #801, 2.249999999999998668 ) ;
#1030 = VERTEX_POINT ( 'NONE', #64 ) ;
#1031 = CIRCLE ( 'NONE', #487, 2.249999999999998668 ) ;
#1032 = ORIENTED_EDGE ( 'NONE', *, *, #303, .T. ) ;
#1033 = FACE_BOUND ( 'NONE', #356, .T. ) ;
#1034 = DIRECTION ( 'NONE',  ( 0.000000000000000000, 0.000000000000000000, -1.000000000000000000 ) ) ;
#1035 = CIRCLE ( 'NONE', #154, 2.250000000000000444 ) ;
#1036 = FACE_OUTER_BOUND ( 'NONE', #909, .T. ) ;
#1037 = ORIENTED_EDGE ( 'NONE', *, *, #534, .T. ) ;
#1038 = ORIENTED_EDGE ( 'NONE', *, *, #644, .F. ) ;
#1039 = DIRECTION ( 'NONE',  ( 0.000000000000000000, 0.000000000000000000, -1.000000000000000000 ) ) ;
#1040 = CIRCLE ( 'NONE', #1183, 2.249999999999998668 ) ;
#1041 =( NAMED_UNIT ( * ) SI_UNIT ( $, .STERADIAN. ) SOLID_ANGLE_UNIT ( ) );
#1042 = EDGE_CURVE ( 'NONE', #666, #436, #416, .T. ) ;
#1043 = AXIS2_PLACEMENT_3D ( 'NONE', #255, #511, #238 ) ;
#1044 = DIRECTION ( 'NONE',  ( 0.000000000000000000, 0.000000000000000000, -1.000000000000000000 ) ) ;
#1045 = ORIENTED_EDGE ( 'NONE', *, *, #1079, .T. ) ;
#1046 = ADVANCED_FACE ( 'NONE', ( #989 ), #57, .F. ) ;
#1047 = ORIENTED_EDGE ( 'NONE', *, *, #644, .T. ) ;
#1048 = ORIENTED_EDGE ( 'NONE', *, *, #480, .F. ) ;
#1049 = CYLINDRICAL_SURFACE ( 'NONE', #350, 5.999999999999991118 ) ;
#1050 = APPLICATION_PROTOCOL_DEFINITION ( 'draft international standard', 'automotive_design', 1998, #743 ) ;
#1051 = CARTESIAN_POINT ( 'NONE',  ( 0.000000000000000000, -49.49747468305832143, 49.49747468305832143 ) ) ;
#1052 = CYLINDRICAL_SURFACE ( 'NONE', #993, 3.000000000000001332 ) ;
#1053 = ORIENTED_EDGE ( 'NONE', *, *, #992, .T. ) ;
#1054 = PRODUCT_DEFINITION ( 'UNKNOWN', '', #987, #681 ) ;
#1055 = CARTESIAN_POINT ( 'NONE',  ( 0.000000000000000000, -15.00000000000000355, 17.25000000000000000 ) ) ;
#1056 = CARTESIAN_POINT ( 'NONE',  ( 6.999999999999992006, 49.49747468305791642, -55.49747468305866960 ) ) ;
#1057 = CIRCLE ( 'NONE', #838, 3.000000000000001332 ) ;
#1058 = FACE_OUTER_BOUND ( 'NONE', #476, .T. ) ;
#1059 = FACE_OUTER_BOUND ( 'NONE', #366, .T. ) ;
#1060 = CIRCLE ( 'NONE', #470, 2.999999999999988898 ) ;
#1061 = DIRECTION ( 'NONE',  ( 1.000000000000000000, 0.000000000000000000, 0.000000000000000000 ) ) ;
#1062 = VERTEX_POINT ( 'NONE', #895 ) ;
#1063 = PRODUCT_DEFINITION_SHAPE ( 'NONE', 'NONE',  #1054 ) ;
#1064 = DIRECTION ( 'NONE',  ( -1.000000000000000000, -0.000000000000000000, -0.000000000000000000 ) ) ;
#1065 = DIRECTION ( 'NONE',  ( -1.000000000000000000, -0.000000000000000000, -0.000000000000000000 ) ) ;
#1066 = CIRCLE ( 'NONE', #1043, 2.249999999999998668 ) ;
#1067 = CYLINDRICAL_SURFACE ( 'NONE', #1115, 2.250000000000003553 ) ;
#1068 = CARTESIAN_POINT ( 'NONE',  ( -196.0000000000000000, 23.60000000000000142, 9.108356170405185248E-15 ) ) ;
#1069 = DIRECTION ( 'NONE',  ( 0.000000000000000000, 0.000000000000000000, -1.000000000000000000 ) ) ;
#1070 = DIRECTION ( 'NONE',  ( 0.000000000000000000, 0.000000000000000000, 1.000000000000000000 ) ) ;
#1071 = EDGE_CURVE ( 'NONE', #920, #790, #66, .T. ) ;
#1072 = CARTESIAN_POINT ( 'NONE',  ( 0.000000000000000000, -23.60000000000000142, 3.000000000000001332 ) ) ;
#1073 = DIRECTION ( 'NONE',  ( 1.000000000000000000, 0.000000000000000000, 0.000000000000000000 ) ) ;
#1074 = CARTESIAN_POINT ( 'NONE',  ( 0.000000000000000000, -15.00000000000000355, 15.00000000000000178 ) ) ;
#1075 = ORIENTED_EDGE ( 'NONE', *, *, #480, .T. ) ;
#1076 = ORIENTED_EDGE ( 'NONE', *, *, #189, .T. ) ;
#1077 = VECTOR ( 'NONE', #591, 1000.000000000000000 ) ;
#1078 = LINE ( 'NONE', #976, #194 ) ;
#1079 = EDGE_CURVE ( 'NONE', #187, #2, #147, .T. ) ;
#1080 = DIRECTION ( 'NONE',  ( 0.000000000000000000, 0.000000000000000000, -1.000000000000000000 ) ) ;
#1081 = EDGE_LOOP ( 'NONE', ( #224, #508, #966, #706 ) ) ;
#1082 = ORIENTED_EDGE ( 'NONE', *, *, #830, .F. ) ;
#1083 = DIRECTION ( 'NONE',  ( 1.000000000000000000, 0.000000000000000000, 0.000000000000000000 ) ) ;
#1084 = EDGE_CURVE ( 'NONE', #522, #62, #745, .T. ) ;
#1085 = CARTESIAN_POINT ( 'NONE',  ( 7.000000000000006217, -49.49747468305832143, 49.49747468305832143 ) ) ;
#1086 = CYLINDRICAL_SURFACE ( 'NONE', #645, 3.000000000000001332 ) ;
#1087 = CARTESIAN_POINT ( 'NONE',  ( -196.0000000000000000, -23.60000000000000142, -3.000000000000001332 ) ) ;
#1088 = AXIS2_PLACEMENT_3D ( 'NONE', #418, #1169, #329 ) ;
#1089 = VECTOR ( 'NONE', #1192, 1000.000000000000000 ) ;
#1090 = EDGE_CURVE ( 'NONE', #666, #206, #431, .T. ) ;
#1091 = DIRECTION ( 'NONE',  ( 1.000000000000000000, 0.000000000000000000, 0.000000000000000000 ) ) ;
#1092 = CARTESIAN_POINT ( 'NONE',  ( 0.000000000000000000, 0.000000000000000000, 0.000000000000000000 ) ) ;
#1093 = LINE ( 'NONE', #65, #726 ) ;
#1094 = ORIENTED_EDGE ( 'NONE', *, *, #293, .T. ) ;
#1095 = EDGE_LOOP ( 'NONE', ( #1127, #577 ) ) ;
#1096 = VECTOR ( 'NONE', #89, 1000.000000000000000 ) ;
#1097 = CARTESIAN_POINT ( 'NONE',  ( -196.0000000000000000, -2.701750790494728819E-16, 25.80614694161271316 ) ) ;
#1098 = SURFACE_STYLE_USAGE ( .BOTH. , #1005 ) ;
#1099 = VERTEX_POINT ( 'NONE', #930 ) ;
#1100 = EDGE_CURVE ( 'NONE', #1142, #872, #1106, .T. ) ;
#1101 = CIRCLE ( 'NONE', #659, 5.999999999999991118 ) ;
#1102 = EDGE_CURVE ( 'NONE', #833, #206, #377, .T. ) ;
#1103 = DIRECTION ( 'NONE',  ( 1.000000000000000000, 0.000000000000000000, 0.000000000000000000 ) ) ;
#1104 = FACE_BOUND ( 'NONE', #118, .T. ) ;
#1105 = VERTEX_POINT ( 'NONE', #87 ) ;
#1106 = CIRCLE ( 'NONE', #571, 3.000000000000002665 ) ;
#1107 = ORIENTED_EDGE ( 'NONE', *, *, #139, .T. ) ;
#1108 = CARTESIAN_POINT ( 'NONE',  ( 7.000000000000006217, -15.00000000000000355, -17.24999999999999645 ) ) ;
#1109 = CARTESIAN_POINT ( 'NONE',  ( 7.000000000000006217, -2.701750790494728819E-16, 22.30614694161271316 ) ) ;
#1110 = CYLINDRICAL_SURFACE ( 'NONE', #952, 2.250000000000000444 ) ;
#1111 = EDGE_LOOP ( 'NONE', ( #849, #90 ) ) ;
#1112 = ORIENTED_EDGE ( 'NONE', *, *, #466, .T. ) ;
#1113 = DIRECTION ( 'NONE',  ( 0.000000000000000000, 0.000000000000000000, -1.000000000000000000 ) ) ;
#1114 = DIRECTION ( 'NONE',  ( 0.000000000000000000, 0.000000000000000000, -1.000000000000000000 ) ) ;
#1115 = AXIS2_PLACEMENT_3D ( 'NONE', #228, #503, #598 ) ;
#1116 = ORIENTED_EDGE ( 'NONE', *, *, #602, .F. ) ;
#1117 = ORIENTED_EDGE ( 'NONE', *, *, #266, .T. ) ;
#1118 = VECTOR ( 'NONE', #1156, 1000.000000000000000 ) ;
#1119 = DIRECTION ( 'NONE',  ( 0.000000000000000000, 2.775557561562895453E-14, -1.000000000000000000 ) ) ;
#1120 = EDGE_CURVE ( 'NONE', #667, #252, #1208, .T. ) ;
#1121 = ORIENTED_EDGE ( 'NONE', *, *, #1120, .T. ) ;
#1122 = VERTEX_POINT ( 'NONE', #721 ) ;
#1123 = EDGE_CURVE ( 'NONE', #1140, #667, #540, .T. ) ;
#1124 = DIRECTION ( 'NONE',  ( 0.000000000000000000, 0.000000000000000000, -1.000000000000000000 ) ) ;
#1125 = CIRCLE ( 'NONE', #68, 2.250000000000003553 ) ;
#1126 = CARTESIAN_POINT ( 'NONE',  ( 7.000000000000006217, 1.584513006521006050E-16, 29.30614694161271316 ) ) ;
#1127 = ORIENTED_EDGE ( 'NONE', *, *, #1028, .F. ) ;
#1128 = ORIENTED_EDGE ( 'NONE', *, *, #793, .T. ) ;
#1129 = CARTESIAN_POINT ( 'NONE',  ( 0.000000000000000000, 23.60000000000000142, 3.000000000000010658 ) ) ;
#1130 = FACE_OUTER_BOUND ( 'NONE', #22, .T. ) ;
#1131 = CARTESIAN_POINT ( 'NONE',  ( -196.0000000000000000, 49.49747468305798037, -46.49747468305867670 ) ) ;
#1132 = CARTESIAN_POINT ( 'NONE',  ( 7.000000000000006217, -15.00000000000000355, 17.25000000000000000 ) ) ;
#1133 = VERTEX_POINT ( 'NONE', #969 ) ;
#1134 = CIRCLE ( 'NONE', #368, 2.250000000000000444 ) ;
#1135 = ORIENTED_EDGE ( 'NONE', *, *, #609, .T. ) ;
#1136 = EDGE_CURVE ( 'NONE', #149, #691, #122, .T. ) ;
#1137 = CARTESIAN_POINT ( 'NONE',  ( -16.97056274847711421, -49.49747468305832143, 49.49747468305832143 ) ) ;
#1138 = EDGE_CURVE ( 'NONE', #1140, #1133, #25, .T. ) ;
#1139 = DIRECTION ( 'NONE',  ( 0.000000000000000000, 0.000000000000000000, -1.000000000000000000 ) ) ;
#1140 = VERTEX_POINT ( 'NONE', #1056 ) ;
#1141 = ORIENTED_EDGE ( 'NONE', *, *, #172, .T. ) ;
#1142 = VERTEX_POINT ( 'NONE', #219 ) ;
#1143 = DIRECTION ( 'NONE',  ( 0.000000000000000000, 0.000000000000000000, -1.000000000000000000 ) ) ;
#1144 = CIRCLE ( 'NONE', #243, 2.999999999999995559 ) ;
#1145 = CARTESIAN_POINT ( 'NONE',  ( 0.000000000000000000, 55.49747468305797327, -49.49747468305871223 ) ) ;
#1146 = EDGE_CURVE ( 'NONE', #848, #39, #359, .T. ) ;
#1147 = FACE_OUTER_BOUND ( 'NONE', #980, .T. ) ;
#1148 = APPLICATION_CONTEXT ( 'automotive_design' ) ;
#1149 = CARTESIAN_POINT ( 'NONE',  ( 0.000000000000000000, 15.00000000000000000, -17.25000000000000000 ) ) ;
#1150 = CARTESIAN_POINT ( 'NONE',  ( 7.000000000000006217, -23.60000000000000142, 0.000000000000000000 ) ) ;
#1151 = CARTESIAN_POINT ( 'NONE',  ( -196.0000000000000000, -49.49747468305884723, -49.49747468305779563 ) ) ;
#1152 = DIRECTION ( 'NONE',  ( -1.000000000000000000, -0.000000000000000000, -0.000000000000000000 ) ) ;
#1153 = CARTESIAN_POINT ( 'NONE',  ( 7.000000000000006217, 23.60000000000000142, 9.108356170405185248E-15 ) ) ;
#1154 = VERTEX_POINT ( 'NONE', #407 ) ;
#1155 = ORIENTED_EDGE ( 'NONE', *, *, #635, .F. ) ;
#1156 = DIRECTION ( 'NONE',  ( -1.000000000000000000, 0.000000000000000000, 0.000000000000000000 ) ) ;
#1157 = DIRECTION ( 'NONE',  ( 0.000000000000000000, -1.040834085586085834E-14, -1.000000000000000000 ) ) ;
#1158 = AXIS2_PLACEMENT_3D ( 'NONE', #991, #628, #526 ) ;
#1159 = CYLINDRICAL_SURFACE ( 'NONE', #818, 2.999999999999988898 ) ;
#1160 = CARTESIAN_POINT ( 'NONE',  ( 0.000000000000000000, 49.49747468305791642, -55.49747468305866960 ) ) ;
#1161 = DIRECTION ( 'NONE',  ( 1.000000000000000000, 0.000000000000000000, 0.000000000000000000 ) ) ;
#1162 = EDGE_CURVE ( 'NONE', #187, #107, #244, .T. ) ;
#1163 = FACE_OUTER_BOUND ( 'NONE', #701, .T. ) ;
#1164 = AXIS2_PLACEMENT_3D ( 'NONE', #773, #196, #6 ) ;
#1165 = DIRECTION ( 'NONE',  ( -1.000000000000000000, -0.000000000000000000, -0.000000000000000000 ) ) ;
#1166 = CARTESIAN_POINT ( 'NONE',  ( 7.000000000000006217, -23.60000000000000142, 0.000000000000000000 ) ) ;
#1167 = DIRECTION ( 'NONE',  ( 0.000000000000000000, 0.000000000000000000, -1.000000000000000000 ) ) ;
#1168 = ORIENTED_EDGE ( 'NONE', *, *, #698, .F. ) ;
#1169 = DIRECTION ( 'NONE',  ( -1.000000000000000000, -0.000000000000000000, -0.000000000000000000 ) ) ;
#1170 = DIRECTION ( 'NONE',  ( 1.000000000000000000, 0.000000000000000000, 0.000000000000000000 ) ) ;
#1171 = ORIENTED_EDGE ( 'NONE', *, *, #905, .T. ) ;
#1172 = ORIENTED_EDGE ( 'NONE', *, *, #234, .T. ) ;
#1173 = EDGE_CURVE ( 'NONE', #319, #1099, #486, .T. ) ;
#1174 = AXIS2_PLACEMENT_3D ( 'NONE', #558, #646, #364 ) ;
#1175 = FACE_BOUND ( 'NONE', #961, .T. ) ;
#1176 = DIRECTION ( 'NONE',  ( 1.000000000000000000, 0.000000000000000000, 0.000000000000000000 ) ) ;
#1177 = EDGE_CURVE ( 'NONE', #770, #373, #115, .T. ) ;
#1178 = DIRECTION ( 'NONE',  ( 1.000000000000000000, 0.000000000000000000, 0.000000000000000000 ) ) ;
#1179 = CARTESIAN_POINT ( 'NONE',  ( 7.000000000000006217, -23.60000000000000142, 3.000000000000001332 ) ) ;
#1180 = ORIENTED_EDGE ( 'NONE', *, *, #1189, .T. ) ;
#1181 = PRODUCT ( 'il optimization', 'il optimization', '', ( #151 ) ) ;
#1182 = DIRECTION ( 'NONE',  ( 0.000000000000000000, 0.000000000000000000, -1.000000000000000000 ) ) ;
#1183 = AXIS2_PLACEMENT_3D ( 'NONE', #716, #907, #1114 ) ;
#1184 = ORIENTED_EDGE ( 'NONE', *, *, #656, .T. ) ;
#1185 = DIRECTION ( 'NONE',  ( 1.000000000000000000, 0.000000000000000000, 0.000000000000000000 ) ) ;
#1186 = ADVANCED_FACE ( 'NONE', ( #956 ), #203, .F. ) ;
#1187 = CYLINDRICAL_SURFACE ( 'NONE', #1158, 5.999999999999991118 ) ;
#1188 = ORIENTED_EDGE ( 'NONE', *, *, #953, .T. ) ;
#1189 = EDGE_CURVE ( 'NONE', #252, #149, #684, .T. ) ;
#1190 = DIRECTION ( 'NONE',  ( -1.000000000000000000, -0.000000000000000000, -0.000000000000000000 ) ) ;
#1191 = CIRCLE ( 'NONE', #131, 2.999999999999988898 ) ;
#1192 = DIRECTION ( 'NONE',  ( -1.000000000000000000, 0.000000000000000000, 0.000000000000000000 ) ) ;
#1193 = LINE ( 'NONE', #180, #157 ) ;
#1194 = FACE_BOUND ( 'NONE', #198, .T. ) ;
#1195 = VERTEX_POINT ( 'NONE', #314 ) ;
#1196 = CIRCLE ( 'NONE', #824, 2.999999999999995559 ) ;
#1197 = ORIENTED_EDGE ( 'NONE', *, *, #950, .F. ) ;
#1198 = CARTESIAN_POINT ( 'NONE',  ( 0.000000000000000000, -15.00000000000000355, 12.75000000000000178 ) ) ;
#1199 = DIRECTION ( 'NONE',  ( 0.000000000000000000, -5.116819173389079311E-15, -1.000000000000000000 ) ) ;
#1200 = ORIENTED_EDGE ( 'NONE', *, *, #409, .F. ) ;
#1201 = CIRCLE ( 'NONE', #707, 3.000000000000002665 ) ;
#1202 = AXIS2_PLACEMENT_3D ( 'NONE', #1051, #210, #583 ) ;
#1203 = ORIENTED_EDGE ( 'NONE', *, *, #1162, .T. ) ;
#1204 = LINE ( 'NONE', #530, #840 ) ;
#1205 = DIRECTION ( 'NONE',  ( 0.000000000000000000, 0.000000000000000000, -1.000000000000000000 ) ) ;
#1206 = EDGE_LOOP ( 'NONE', ( #182, #1037, #814, #442 ) ) ;
#1207 = EDGE_CURVE ( 'NONE', #842, #370, #14, .T. ) ;
#1208 = LINE ( 'NONE', #375, #1089 ) ;
#1209 = DIRECTION ( 'NONE',  ( -1.000000000000000000, 0.000000000000000000, 0.000000000000000000 ) ) ;
#1210 =( GEOMETRIC_REPRESENTATION_CONTEXT ( 3 ) GLOBAL_UNCERTAINTY_ASSIGNED_CONTEXT ( ( #123 ) ) GLOBAL_UNIT_ASSIGNED_CONTEXT ( ( #43, #632, #809 ) ) REPRESENTATION_CONTEXT ( 'NONE', 'WORKASPACE' ) );
#1211 = DIRECTION ( 'NONE',  ( -1.000000000000000000, -0.000000000000000000, -0.000000000000000000 ) ) ;
#1212 = EDGE_CURVE ( 'NONE', #730, #926, #516, .T. ) ;
#1213 = ORIENTED_EDGE ( 'NONE', *, *, #1146, .T. ) ;
#1214 = ORIENTED_EDGE ( 'NONE', *, *, #678, .T. ) ;
#1215 = DIRECTION ( 'NONE',  ( 0.000000000000000000, 0.000000000000000000, -1.000000000000000000 ) ) ;
ENDSEC;
END-ISO-10303-21;
