ISO-10303-21;
HEADER;
FILE_DESCRIPTION (( 'STEP AP214' ),
    '1' );
FILE_NAME ('need help.STEP',
    '2026-06-10T11:56:40',
    ( '' ),
    ( '' ),
    'SwSTEP 2.0',
    'SolidWorks 2026',
    '' );
FILE_SCHEMA (( 'AUTOMOTIVE_DESIGN' ));
ENDSEC;

DATA;
#1 = DIRECTION ( 'NONE',  ( 0.000000000000000000, 1.000000000000000000, 0.000000000000000000 ) ) ;
#2 = ORIENTED_EDGE ( 'NONE', *, *, #199, .F. ) ;
#3 =( NAMED_UNIT ( * ) SI_UNIT ( $, .STERADIAN. ) SOLID_ANGLE_UNIT ( ) );
#4 = FACE_OUTER_BOUND ( 'NONE', #496, .T. ) ;
#5 = ADVANCED_FACE ( 'NONE', ( #445, #811 ), #166, .T. ) ;
#6 = ORIENTED_EDGE ( 'NONE', *, *, #66, .F. ) ;
#7 = LINE ( 'NONE', #74, #206 ) ;
#8 = LINE ( 'NONE', #79, #391 ) ;
#9 = EDGE_CURVE ( 'NONE', #664, #178, #865, .T. ) ;
#10 = VECTOR ( 'NONE', #41, 1000.000000000000000 ) ;
#11 = ORIENTED_EDGE ( 'NONE', *, *, #89, .F. ) ;
#12 = DIRECTION ( 'NONE',  ( 0.000000000000000000, 0.000000000000000000, 1.000000000000000000 ) ) ;
#13 = AXIS2_PLACEMENT_3D ( 'NONE', #524, #181, #93 ) ;
#14 = DIRECTION ( 'NONE',  ( -0.9975640502598241977, 0.000000000000000000, -0.06975647374412533019 ) ) ;
#15 = DIRECTION ( 'NONE',  ( -0.9975640502598241977, 0.000000000000000000, -0.06975647374412533019 ) ) ;
#16 = CARTESIAN_POINT ( 'NONE',  ( 80.11157537016046604, 25.00000000000000000, 5.282997620183647491 ) ) ;
#17 = VERTEX_POINT ( 'NONE', #853 ) ;
#18 = EDGE_CURVE ( 'NONE', #446, #422, #459, .T. ) ;
#19 = CARTESIAN_POINT ( 'NONE',  ( 25.53995534919384269, 6.999999999999999112, 14.97251717714321551 ) ) ;
#20 = VECTOR ( 'NONE', #345, 1000.000000000000000 ) ;
#21 = DIRECTION ( 'NONE',  ( -0.9975640502598243087, 0.000000000000000000, -0.06975647374412533019 ) ) ;
#22 = VECTOR ( 'NONE', #801, 1000.000000000000227 ) ;
#23 =( LENGTH_UNIT ( ) NAMED_UNIT ( * ) SI_UNIT ( .MILLI., .METRE. ) );
#24 = EDGE_CURVE ( 'NONE', #597, #412, #123, .T. ) ;
#25 = DIRECTION ( 'NONE',  ( 0.06975647374412548285, 0.000000000000000000, -0.9975640502598243087 ) ) ;
#26 = VECTOR ( 'NONE', #782, 1000.000000000000000 ) ;
#27 = ORIENTED_EDGE ( 'NONE', *, *, #600, .F. ) ;
#28 = SURFACE_STYLE_USAGE ( .BOTH. , #732 ) ;
#29 = VECTOR ( 'NONE', #408, 1000.000000000000000 ) ;
#30 = LINE ( 'NONE', #667, #789 ) ;
#31 = DIRECTION ( 'NONE',  ( 1.000000000000000000, 0.000000000000000000, 0.000000000000000000 ) ) ;
#32 = VERTEX_POINT ( 'NONE', #186 ) ;
#33 =( NAMED_UNIT ( * ) SI_UNIT ( $, .STERADIAN. ) SOLID_ANGLE_UNIT ( ) );
#34 = CARTESIAN_POINT ( 'NONE',  ( 30.00000000000000000, -3.803206299724365191, 5.282997620183651044 ) ) ;
#35 = CARTESIAN_POINT ( 'NONE',  ( 18.46698071745149150, -3.999999999999999112, 14.56232918742693450 ) ) ;
#36 = ORIENTED_EDGE ( 'NONE', *, *, #542, .T. ) ;
#37 = ORIENTED_EDGE ( 'NONE', *, *, #695, .T. ) ;
#38 = DIRECTION ( 'NONE',  ( -0.9983225951989977975, 0.000000000000000000, -0.05789642402720502484 ) ) ;
#39 = VECTOR ( 'NONE', #188, 1000.000000000000000 ) ;
#40 = CARTESIAN_POINT ( 'NONE',  ( 0.000000000000000000, 25.00000000000000000, 5.282997620183647491 ) ) ;
#41 = DIRECTION ( 'NONE',  ( -0.000000000000000000, 1.000000000000000000, -0.000000000000000000 ) ) ;
#42 = VERTEX_POINT ( 'NONE', #510 ) ;
#43 = ORIENTED_EDGE ( 'NONE', *, *, #148, .T. ) ;
#44 = AXIS2_PLACEMENT_3D ( 'NONE', #59, #477, #134 ) ;
#45 = LINE ( 'NONE', #783, #214 ) ;
#46 = CARTESIAN_POINT ( 'NONE',  ( 0.000000000000000000, 25.00000000000000000, 5.282997620183647491 ) ) ;
#47 = ORIENTED_EDGE ( 'NONE', *, *, #239, .F. ) ;
#48 = EDGE_LOOP ( 'NONE', ( #386, #157, #382, #506 ) ) ;
#49 = DIRECTION ( 'NONE',  ( 0.000000000000000000, -1.214306433183764966E-16, -1.000000000000000000 ) ) ;
#50 = EDGE_CURVE ( 'NONE', #365, #859, #871, .T. ) ;
#51 = APPLICATION_CONTEXT ( 'automotive_design' ) ;
#52 = FACE_OUTER_BOUND ( 'NONE', #212, .T. ) ;
#53 = EDGE_CURVE ( 'NONE', #282, #189, #718, .T. ) ;
#54 = ORIENTED_EDGE ( 'NONE', *, *, #113, .T. ) ;
#55 = PLANE ( 'NONE',  #867 ) ;
#56 = ORIENTED_EDGE ( 'NONE', *, *, #315, .F. ) ;
#57 = ORIENTED_EDGE ( 'NONE', *, *, #438, .T. ) ;
#58 = VECTOR ( 'NONE', #679, 1000.000000000000114 ) ;
#59 = CARTESIAN_POINT ( 'NONE',  ( 30.00000000000000000, 0.000000000000000000, 0.000000000000000000 ) ) ;
#60 = FACE_OUTER_BOUND ( 'NONE', #812, .T. ) ;
#61 = ORIENTED_EDGE ( 'NONE', *, *, #594, .F. ) ;
#62 = CARTESIAN_POINT ( 'NONE',  ( 0.000000000000000000, 25.00000000000000000, 5.282997620183647491 ) ) ;
#63 = FACE_BOUND ( 'NONE', #323, .T. ) ;
#64 = CARTESIAN_POINT ( 'NONE',  ( -0.9082151251929463376, -4.000000000000000000, 19.51542756737597983 ) ) ;
#65 = ORIENTED_EDGE ( 'NONE', *, *, #754, .T. ) ;
#66 = EDGE_CURVE ( 'NONE', #138, #189, #511, .T. ) ;
#67 = LINE ( 'NONE', #480, #58 ) ;
#68 = SURFACE_SIDE_STYLE ('',( #397 ) ) ;
#69 = AXIS2_PLACEMENT_3D ( 'NONE', #321, #31, #723 ) ;
#70 = ORIENTED_EDGE ( 'NONE', *, *, #600, .T. ) ;
#71 = FILL_AREA_STYLE ('',( #196 ) ) ;
#72 = LINE ( 'NONE', #758, #379 ) ;
#73 = EDGE_LOOP ( 'NONE', ( #275, #441, #881, #47 ) ) ;
#74 = CARTESIAN_POINT ( 'NONE',  ( 2.373598340505531201, -28.00000000000001776, 6.693324337479779729 ) ) ;
#75 = EDGE_CURVE ( 'NONE', #322, #282, #241, .T. ) ;
#76 = DIRECTION ( 'NONE',  ( 0.000000000000000000, -1.000000000000000000, -0.000000000000000000 ) ) ;
#77 = ORIENTED_EDGE ( 'NONE', *, *, #112, .F. ) ;
#78 = CARTESIAN_POINT ( 'NONE',  ( 2.373598340505517434, -25.00000000000000000, 6.693324337479777952 ) ) ;
#79 = CARTESIAN_POINT ( 'NONE',  ( 30.00000000000000000, 5.021051876504148371E-16, -4.100000000000000533 ) ) ;
#80 = PRESENTATION_LAYER_ASSIGNMENT (  '', '', ( #471 ) ) ;
#81 = PRESENTATION_LAYER_ASSIGNMENT (  '', '', ( #472 ) ) ;
#82 = LINE ( 'NONE', #218, #398 ) ;
#83 = AXIS2_PLACEMENT_3D ( 'NONE', #579, #306, #583 ) ;
#84 = ORIENTED_EDGE ( 'NONE', *, *, #594, .T. ) ;
#85 = EDGE_CURVE ( 'NONE', #399, #205, #370, .T. ) ;
#86 = PLANE ( 'NONE',  #562 ) ;
#87 = DIRECTION ( 'NONE',  ( 0.000000000000000000, -1.000000000000000000, 0.000000000000000000 ) ) ;
#88 = ORIENTED_EDGE ( 'NONE', *, *, #618, .F. ) ;
#89 = EDGE_CURVE ( 'NONE', #17, #664, #876, .T. ) ;
#90 = CARTESIAN_POINT ( 'NONE',  ( 1.315637480642596113, -45.53638084633509209, 7.537747631389271064 ) ) ;
#91 = FACE_OUTER_BOUND ( 'NONE', #791, .T. ) ;
#92 = VERTEX_POINT ( 'NONE', #451 ) ;
#93 = DIRECTION ( 'NONE',  ( 0.9983225951989977975, 0.000000000000000000, 0.05789642402720579506 ) ) ;
#94 = CARTESIAN_POINT ( 'NONE',  ( 0.6483277940158361785, -25.00000000000000000, 11.84384076387689433 ) ) ;
#95 = PRESENTATION_LAYER_ASSIGNMENT (  '', '', ( #350 ) ) ;
#96 = EDGE_LOOP ( 'NONE', ( #143, #785, #65, #528 ) ) ;
#97 = CARTESIAN_POINT ( 'NONE',  ( 1.805097166277174647, -25.00000000000000000, 10.90924588000983064 ) ) ;
#98 = LINE ( 'NONE', #94, #727 ) ;
#99 = EDGE_CURVE ( 'NONE', #597, #322, #729, .T. ) ;
#100 = DIRECTION ( 'NONE',  ( -0.000000000000000000, -1.000000000000000000, 0.000000000000000000 ) ) ;
#101 = ORIENTED_EDGE ( 'NONE', *, *, #596, .T. ) ;
#102 = ORIENTED_EDGE ( 'NONE', *, *, #154, .F. ) ;
#103 = SURFACE_STYLE_FILL_AREA ( #174 ) ;
#104 = DIRECTION ( 'NONE',  ( -1.000000000000000000, -0.000000000000000000, -0.000000000000000000 ) ) ;
#105 = CARTESIAN_POINT ( 'NONE',  ( -0.9082151251929463376, -4.000000000000000000, 19.51542756737597983 ) ) ;
#106 = ORIENTED_EDGE ( 'NONE', *, *, #894, .T. ) ;
#107 = DIRECTION ( 'NONE',  ( -8.673617379884027583E-16, 0.000000000000000000, -1.000000000000000000 ) ) ;
#108 = CLOSED_SHELL ( 'NONE', ( #610, #310, #565, #854, #378, #738 ) ) ;
#109 = DIRECTION ( 'NONE',  ( 0.000000000000000000, 0.000000000000000000, -1.000000000000000000 ) ) ;
#110 = LINE ( 'NONE', #585, #892 ) ;
#111 = VERTEX_POINT ( 'NONE', #668 ) ;
#112 = EDGE_CURVE ( 'NONE', #682, #431, #120, .T. ) ;
#113 = EDGE_CURVE ( 'NONE', #431, #830, #534, .T. ) ;
#114 =( NAMED_UNIT ( * ) PLANE_ANGLE_UNIT ( ) SI_UNIT ( $, .RADIAN. ) );
#115 = CARTESIAN_POINT ( 'NONE',  ( -0.4633937735127677260, -3.999999999999999112, 13.15418587313826393 ) ) ;
#116 = DIRECTION ( 'NONE',  ( -0.05789642402720498321, 0.000000000000000000, 0.9983225951989977975 ) ) ;
#117 = EDGE_LOOP ( 'NONE', ( #299, #314, #832, #795, #549, #61 ) ) ;
#118 = CARTESIAN_POINT ( 'NONE',  ( 80.11157537016046604, 25.00000000000000000, 5.282997620183647491 ) ) ;
#119 = CARTESIAN_POINT ( 'NONE',  ( -0.4633937735127675039, 25.00000000000000000, 13.15418587313826393 ) ) ;
#120 = LINE ( 'NONE', #35, #421 ) ;
#121 = ORIENTED_EDGE ( 'NONE', *, *, #335, .T. ) ;
#122 = EDGE_CURVE ( 'NONE', #784, #446, #110, .T. ) ;
#123 = CIRCLE ( 'NONE', #217, 1.000000000000000000 ) ;
#124 = CARTESIAN_POINT ( 'NONE',  ( -0.4633937735127677260, -3.999999999999999112, 13.15418587313826393 ) ) ;
#125 = AXIS2_PLACEMENT_3D ( 'NONE', #118, #49, #270 ) ;
#126 = PRODUCT_CONTEXT ( 'NONE', #51, 'mechanical' ) ;
#127 = CARTESIAN_POINT ( 'NONE',  ( 25.53995534919384269, 4.000000000000000000, 14.97251717714321551 ) ) ;
#128 = CARTESIAN_POINT ( 'NONE',  ( 18.48491588902141203, -45.53638084633509209, 14.25306851497830429 ) ) ;
#129 = ORIENTED_EDGE ( 'NONE', *, *, #427, .T. ) ;
#130 = EDGE_CURVE ( 'NONE', #446, #376, #662, .T. ) ;
#131 = CARTESIAN_POINT ( 'NONE',  ( 30.00000000000000000, 0.000000000000000000, 0.000000000000000000 ) ) ;
#132 = CARTESIAN_POINT ( 'NONE',  ( 18.56437941610786169, -45.53638084633509209, 12.88285893955904626 ) ) ;
#133 = AXIS2_PLACEMENT_3D ( 'NONE', #637, #692, #775 ) ;
#134 = DIRECTION ( 'NONE',  ( 0.000000000000000000, 0.000000000000000000, -1.000000000000000000 ) ) ;
#135 = CARTESIAN_POINT ( 'NONE',  ( 18.10263721128483638, 7.000000000000000000, 20.84479586359470815 ) ) ;
#136 = DIRECTION ( 'NONE',  ( 0.000000000000000000, 1.000000000000000000, 0.000000000000000000 ) ) ;
#137 = VECTOR ( 'NONE', #468, 1000.000000000000227 ) ;
#138 = VERTEX_POINT ( 'NONE', #806 ) ;
#139 = VECTOR ( 'NONE', #659, 1000.000000000000000 ) ;
#140 = FACE_OUTER_BOUND ( 'NONE', #279, .T. ) ;
#141 = ORIENTED_EDGE ( 'NONE', *, *, #239, .T. ) ;
#142 = VECTOR ( 'NONE', #255, 1000.000000000000000 ) ;
#143 = ORIENTED_EDGE ( 'NONE', *, *, #485, .T. ) ;
#144 = DIRECTION ( 'NONE',  ( -1.000000000000000000, -0.000000000000000000, -0.000000000000000000 ) ) ;
#145 = CARTESIAN_POINT ( 'NONE',  ( 18.56437941610786169, 25.00000000000000000, 12.88285893955904626 ) ) ;
#146 = LINE ( 'NONE', #629, #296 ) ;
#147 = CARTESIAN_POINT ( 'NONE',  ( 0.4542155039468069866, 0.000000000000000000, 0.03176184212631519982 ) ) ;
#148 = EDGE_CURVE ( 'NONE', #153, #231, #329, .T. ) ;
#149 = PRODUCT_DEFINITION_SHAPE ( 'NONE', 'NONE',  #490 ) ;
#150 = DIRECTION ( 'NONE',  ( 0.000000000000000000, 1.000000000000000000, 0.000000000000000000 ) ) ;
#151 = CIRCLE ( 'NONE', #750, 4.100000000000000533 ) ;
#152 = CARTESIAN_POINT ( 'NONE',  ( 1.747200742249967131, -25.00000000000000000, 11.90756847520882822 ) ) ;
#153 = VERTEX_POINT ( 'NONE', #410 ) ;
#154 = EDGE_CURVE ( 'NONE', #257, #674, #341, .T. ) ;
#155 = LINE ( 'NONE', #347, #411 ) ;
#156 = CARTESIAN_POINT ( 'NONE',  ( 30.00000000000000000, 0.000000000000000000, 0.000000000000000000 ) ) ;
#157 = ORIENTED_EDGE ( 'NONE', *, *, #622, .T. ) ;
#158 = ORIENTED_EDGE ( 'NONE', *, *, #475, .T. ) ;
#159 = DIRECTION ( 'NONE',  ( 0.06975647374412531632, -1.360188670667695680E-16, -0.9975640502598241977 ) ) ;
#160 = AXIS2_PLACEMENT_3D ( 'NONE', #156, #293, #845 ) ;
#161 = DIRECTION ( 'NONE',  ( -0.000000000000000000, -1.000000000000000000, -0.000000000000000000 ) ) ;
#162 = ORIENTED_EDGE ( 'NONE', *, *, #53, .F. ) ;
#163 = APPLICATION_CONTEXT ( 'automotive_design' ) ;
#164 = PRODUCT_RELATED_PRODUCT_CATEGORY ( 'part', '', ( #869 ) ) ;
#165 = DIRECTION ( 'NONE',  ( 0.000000000000000000, -1.000000000000000000, 1.214306433183764966E-16 ) ) ;
#166 = PLANE ( 'NONE',  #69 ) ;
#167 = ORIENTED_EDGE ( 'NONE', *, *, #622, .F. ) ;
#168 = ORIENTED_EDGE ( 'NONE', *, *, #253, .F. ) ;
#169 = LINE ( 'NONE', #372, #436 ) ;
#170 = CARTESIAN_POINT ( 'NONE',  ( 0.000000000000000000, 0.000000000000000000, 0.000000000000000000 ) ) ;
#171 = ADVANCED_FACE ( 'NONE', ( #678 ), #829, .T. ) ;
#172 = ORIENTED_EDGE ( 'NONE', *, *, #383, .F. ) ;
#173 = ORIENTED_EDGE ( 'NONE', *, *, #818, .F. ) ;
#174 = FILL_AREA_STYLE ('',( #797 ) ) ;
#175 = DIRECTION ( 'NONE',  ( -1.000000000000000000, -0.000000000000000000, -0.000000000000000000 ) ) ;
#176 = EDGE_CURVE ( 'NONE', #669, #447, #537, .T. ) ;
#177 = DIRECTION ( 'NONE',  ( -0.06975647374412531632, 0.000000000000000000, 0.9975640502598241977 ) ) ;
#178 = VERTEX_POINT ( 'NONE', #64 ) ;
#179 = EDGE_CURVE ( 'NONE', #830, #440, #607, .T. ) ;
#180 = EDGE_CURVE ( 'NONE', #462, #440, #256, .T. ) ;
#181 = DIRECTION ( 'NONE',  ( -0.05789642402720579506, 0.000000000000000000, 0.9983225951989977975 ) ) ;
#182 = MANIFOLD_SOLID_BREP ( 'Fillet1', #294 ) ;
#183 = LINE ( 'NONE', #717, #671 ) ;
#184 = EDGE_LOOP ( 'NONE', ( #792, #719, #652, #77 ) ) ;
#185 = ADVANCED_FACE ( 'NONE', ( #752 ), #332, .T. ) ;
#186 = CARTESIAN_POINT ( 'NONE',  ( -0.4633937735127677260, 6.999999999999999112, 13.15418587313826393 ) ) ;
#187 = VERTEX_POINT ( 'NONE', #402 ) ;
#188 = DIRECTION ( 'NONE',  ( 0.000000000000000000, 1.000000000000000000, 0.000000000000000000 ) ) ;
#189 = VERTEX_POINT ( 'NONE', #614 ) ;
#190 = FACE_OUTER_BOUND ( 'NONE', #317, .T. ) ;
#191 = ORIENTED_EDGE ( 'NONE', *, *, #130, .T. ) ;
#192 = CARTESIAN_POINT ( 'NONE',  ( 30.00000000000000000, 0.000000000000000000, 4.100000000000000533 ) ) ;
#193 = DIRECTION ( 'NONE',  ( -0.06975647374412531632, 0.000000000000000000, 0.9975640502598241977 ) ) ;
#194 = DIRECTION ( 'NONE',  ( 0.000000000000000000, -0.000000000000000000, -1.000000000000000000 ) ) ;
#195 = CARTESIAN_POINT ( 'NONE',  ( 18.47185576558883113, -6.999999999999999112, 14.47826750676246554 ) ) ;
#196 = FILL_AREA_STYLE_COLOUR ( '', #395 ) ;
#197 = CARTESIAN_POINT ( 'NONE',  ( 0.6483277940158361785, -45.53638084633509209, 11.84384076387689433 ) ) ;
#198 = ORIENTED_EDGE ( 'NONE', *, *, #438, .F. ) ;
#199 = EDGE_CURVE ( 'NONE', #153, #222, #72, .T. ) ;
#200 = EDGE_CURVE ( 'NONE', #231, #708, #891, .T. ) ;
#201 = ADVANCED_FACE ( 'NONE', ( #4 ), #548, .T. ) ;
#202 = ORIENTED_EDGE ( 'NONE', *, *, #800, .F. ) ;
#203 = CARTESIAN_POINT ( 'NONE',  ( 18.48491588902141203, -45.53638084633509209, 14.25306851497830429 ) ) ;
#204 = CARTESIAN_POINT ( 'NONE',  ( 25.53995534919384269, 4.000000000000000000, 14.97251717714321551 ) ) ;
#205 = VERTEX_POINT ( 'NONE', #681 ) ;
#206 = VECTOR ( 'NONE', #640, 1000.000000000000000 ) ;
#207 = CARTESIAN_POINT ( 'NONE',  ( 1.747200742249970684, 25.00000000000000000, 11.90756847520882822 ) ) ;
#208 = FACE_OUTER_BOUND ( 'NONE', #555, .T. ) ;
#209 = EDGE_CURVE ( 'NONE', #517, #422, #487, .T. ) ;
#210 = DIRECTION ( 'NONE',  ( 1.000000000000000000, 0.000000000000000000, 0.000000000000000000 ) ) ;
#211 = CARTESIAN_POINT ( 'NONE',  ( 30.00000000000000000, -3.803206299724366968, 5.282997620183651044 ) ) ;
#212 = EDGE_LOOP ( 'NONE', ( #56, #746, #609, #688 ) ) ;
#213 = FACE_OUTER_BOUND ( 'NONE', #484, .T. ) ;
#214 = VECTOR ( 'NONE', #161, 1000.000000000000000 ) ;
#215 = ADVANCED_FACE ( 'NONE', ( #274 ), #553, .T. ) ;
#216 = CARTESIAN_POINT ( 'NONE',  ( 25.53995534919384269, -3.999999999999999112, 14.97251717714321551 ) ) ;
#217 = AXIS2_PLACEMENT_3D ( 'NONE', #313, #375, #439 ) ;
#218 = CARTESIAN_POINT ( 'NONE',  ( 0.000000000000000000, -25.00000000000000000, 6.527346172693820670 ) ) ;
#219 = LINE ( 'NONE', #699, #757 ) ;
#220 = PRODUCT_DEFINITION_FORMATION_WITH_SPECIFIED_SOURCE ( 'ANY', '', #869, .NOT_KNOWN. ) ;
#221 = VERTEX_POINT ( 'NONE', #492 ) ;
#222 = VERTEX_POINT ( 'NONE', #152 ) ;
#223 = ADVANCED_FACE ( 'NONE', ( #779 ), #498, .T. ) ;
#224 = DIRECTION ( 'NONE',  ( -0.05789642402720498321, -1.360092616748730388E-16, 0.9983225951989977975 ) ) ;
#225 = VERTEX_POINT ( 'NONE', #211 ) ;
#226 = ORIENTED_EDGE ( 'NONE', *, *, #130, .F. ) ;
#227 = CARTESIAN_POINT ( 'NONE',  ( 0.000000000000000000, 0.000000000000000000, 0.000000000000000000 ) ) ;
#228 = DIRECTION ( 'NONE',  ( 0.000000000000000000, 1.000000000000000000, -0.000000000000000000 ) ) ;
#229 = DIRECTION ( 'NONE',  ( 0.000000000000000000, -1.000000000000000000, 1.214306433183764966E-16 ) ) ;
#230 = ORIENTED_EDGE ( 'NONE', *, *, #529, .T. ) ;
#231 = VERTEX_POINT ( 'NONE', #145 ) ;
#232 = VECTOR ( 'NONE', #229, 1000.000000000000000 ) ;
#233 = LINE ( 'NONE', #786, #488 ) ;
#234 = CARTESIAN_POINT ( 'NONE',  ( 1.747200742249969574, 25.00000000000000000, 11.90756847520882822 ) ) ;
#235 = VECTOR ( 'NONE', #703, 1000.000000000000000 ) ;
#236 = ORIENTED_EDGE ( 'NONE', *, *, #305, .T. ) ;
#237 = EDGE_LOOP ( 'NONE', ( #860, #84, #121, #366 ) ) ;
#238 = PLANE ( 'NONE',  #363 ) ;
#239 = EDGE_CURVE ( 'NONE', #669, #430, #841, .T. ) ;
#240 = PLANE ( 'NONE',  #799 ) ;
#241 = LINE ( 'NONE', #521, #616 ) ;
#242 = ORIENTED_EDGE ( 'NONE', *, *, #414, .F. ) ;
#243 = DIRECTION ( 'NONE',  ( 0.000000000000000000, 0.000000000000000000, -1.000000000000000000 ) ) ;
#244 = LINE ( 'NONE', #234, #748 ) ;
#245 = VECTOR ( 'NONE', #87, 1000.000000000000000 ) ;
#246 = DIRECTION ( 'NONE',  ( -0.000000000000000000, -0.000000000000000000, -1.000000000000000000 ) ) ;
#247 = ORIENTED_EDGE ( 'NONE', *, *, #425, .F. ) ;
#248 = DIRECTION ( 'NONE',  ( 0.000000000000000000, -1.000000000000000000, 1.214306433183764966E-16 ) ) ;
#249 = CARTESIAN_POINT ( 'NONE',  ( 1.315637480642596335, -25.00000000000000000, 7.537747631389270175 ) ) ;
#250 = CARTESIAN_POINT ( 'NONE',  ( 25.09513399751366336, -7.000000000000000000, 21.33375887138093319 ) ) ;
#251 = ORIENTED_EDGE ( 'NONE', *, *, #781, .F. ) ;
#252 = COLOUR_RGB ( '',0.7921568627450980005, 0.8196078431372548767, 0.9333333333333333481 ) ;
#253 = EDGE_CURVE ( 'NONE', #431, #462, #839, .T. ) ;
#254 = DIRECTION ( 'NONE',  ( 0.000000000000000000, 0.000000000000000000, 1.000000000000000000 ) ) ;
#255 = DIRECTION ( 'NONE',  ( -1.000000000000000000, -0.000000000000000000, -0.000000000000000000 ) ) ;
#256 = LINE ( 'NONE', #124, #571 ) ;
#257 = VERTEX_POINT ( 'NONE', #576 ) ;
#258 = ORIENTED_EDGE ( 'NONE', *, *, #66, .T. ) ;
#259 = APPLICATION_PROTOCOL_DEFINITION ( 'draft international standard', 'automotive_design', 1998, #51 ) ;
#260 = DIRECTION ( 'NONE',  ( 0.06975647374412534407, 0.000000000000000000, -0.9975640502598243087 ) ) ;
#261 =( LENGTH_UNIT ( ) NAMED_UNIT ( * ) SI_UNIT ( .MILLI., .METRE. ) );
#262 = VECTOR ( 'NONE', #319, 1000.000000000000227 ) ;
#263 = AXIS2_PLACEMENT_3D ( 'NONE', #837, #76, #704 ) ;
#264 = DIRECTION ( 'NONE',  ( -0.06975647374412531632, 0.000000000000000000, 0.9975640502598241977 ) ) ;
#265 = PLANE ( 'NONE',  #814 ) ;
#266 = VECTOR ( 'NONE', #325, 1000.000000000000227 ) ;
#267 = FILL_AREA_STYLE_COLOUR ( '', #349 ) ;
#268 = ORIENTED_EDGE ( 'NONE', *, *, #209, .F. ) ;
#269 = AXIS2_PLACEMENT_3D ( 'NONE', #887, #742, #598 ) ;
#270 = DIRECTION ( 'NONE',  ( 0.000000000000000000, 1.000000000000000000, -1.214306433183764966E-16 ) ) ;
#271 = EDGE_CURVE ( 'NONE', #187, #92, #8, .T. ) ;
#272 = VECTOR ( 'NONE', #698, 1000.000000000000227 ) ;
#273 = EDGE_CURVE ( 'NONE', #430, #365, #570, .T. ) ;
#274 = FACE_OUTER_BOUND ( 'NONE', #304, .T. ) ;
#275 = ORIENTED_EDGE ( 'NONE', *, *, #547, .F. ) ;
#276 = DIRECTION ( 'NONE',  ( 0.9983225951989979086, -0.000000000000000000, 0.05789642402720499015 ) ) ;
#277 = CARTESIAN_POINT ( 'NONE',  ( 18.56437941610786169, 25.00000000000000000, 12.88285893955904626 ) ) ;
#278 = ORIENTED_EDGE ( 'NONE', *, *, #529, .F. ) ;
#279 = EDGE_LOOP ( 'NONE', ( #162, #586, #513, #226, #663, #808, #761, #634, #643, #106, #258 ) ) ;
#280 = CARTESIAN_POINT ( 'NONE',  ( 25.09513399751366336, 4.000000000000000000, 21.33375887138093319 ) ) ;
#281 = PLANE ( 'NONE',  #355 ) ;
#282 = VERTEX_POINT ( 'NONE', #564 ) ;
#283 = VECTOR ( 'NONE', #790, 1000.000000000000000 ) ;
#284 = VECTOR ( 'NONE', #857, 1000.000000000000227 ) ;
#285 = ADVANCED_FACE ( 'NONE', ( #707 ), #418, .T. ) ;
#286 = AXIS2_PLACEMENT_3D ( 'NONE', #227, #519, #243 ) ;
#287 = CARTESIAN_POINT ( 'NONE',  ( 0.000000000000000000, 0.000000000000000000, 0.000000000000000000 ) ) ;
#288 = LINE ( 'NONE', #505, #709 ) ;
#289 = ADVANCED_FACE ( 'NONE', ( #633 ), #352, .F. ) ;
#290 = CARTESIAN_POINT ( 'NONE',  ( 18.10263721128483994, 7.000000000000000000, 20.84479586359470815 ) ) ;
#291 = CARTESIAN_POINT ( 'NONE',  ( 18.47185576558883113, 6.999999999999999112, 14.47826750676246554 ) ) ;
#292 = FACE_OUTER_BOUND ( 'NONE', #184, .T. ) ;
#293 = DIRECTION ( 'NONE',  ( 1.000000000000000000, 0.000000000000000000, 0.000000000000000000 ) ) ;
#294 = CLOSED_SHELL ( 'NONE', ( #711, #356, #5, #569, #369, #888, #223, #863, #215, #358, #540, #809, #285, #731, #171, #702, #289 ) ) ;
#295 = FACE_OUTER_BOUND ( 'NONE', #877, .T. ) ;
#296 = VECTOR ( 'NONE', #563, 1000.000000000000000 ) ;
#297 = EDGE_CURVE ( 'NONE', #221, #322, #630, .T. ) ;
#298 = DIRECTION ( 'NONE',  ( -0.9975640502598241977, 0.000000000000000000, -0.06975647374412546897 ) ) ;
#299 = ORIENTED_EDGE ( 'NONE', *, *, #315, .T. ) ;
#300 = LINE ( 'NONE', #504, #312 ) ;
#301 = CARTESIAN_POINT ( 'NONE',  ( 30.00000000000000000, 0.000000000000000000, 0.000000000000000000 ) ) ;
#302 = DIRECTION ( 'NONE',  ( -0.9975640502598241977, 0.000000000000000000, -0.06975647374412548285 ) ) ;
#303 = ORIENTED_EDGE ( 'NONE', *, *, #53, .T. ) ;
#304 = EDGE_LOOP ( 'NONE', ( #701, #813, #316, #518, #2, #434, #834, #167, #198, #460, #639 ) ) ;
#305 = EDGE_CURVE ( 'NONE', #830, #17, #288, .T. ) ;
#306 = DIRECTION ( 'NONE',  ( -0.000000000000000000, -1.000000000000000000, 0.000000000000000000 ) ) ;
#307 = DIRECTION ( 'NONE',  ( 0.000000000000000000, 0.000000000000000000, 1.000000000000000000 ) ) ;
#308 = DIRECTION ( 'NONE',  ( 0.05789642402720498321, 1.360092616748730388E-16, -0.9983225951989977975 ) ) ;
#309 = ORIENTED_EDGE ( 'NONE', *, *, #403, .T. ) ;
#310 = ADVANCED_FACE ( 'NONE', ( #208 ), #424, .T. ) ;
#311 = CARTESIAN_POINT ( 'NONE',  ( -0.4633937735127677260, 4.000000000000000000, 13.15418587313826393 ) ) ;
#312 = VECTOR ( 'NONE', #159, 1000.000000000000114 ) ;
#313 = CARTESIAN_POINT ( 'NONE',  ( 2.303841866761403345, -25.00000000000000000, 7.690888387739604148 ) ) ;
#314 = ORIENTED_EDGE ( 'NONE', *, *, #403, .F. ) ;
#315 = EDGE_CURVE ( 'NONE', #225, #657, #558, .T. ) ;
#316 = ORIENTED_EDGE ( 'NONE', *, *, #427, .F. ) ;
#317 = EDGE_LOOP ( 'NONE', ( #57, #339, #191, #649, #658, #416 ) ) ;
#318 = LINE ( 'NONE', #404, #700 ) ;
#319 = DIRECTION ( 'NONE',  ( -0.9975640502598241977, 0.000000000000000000, -0.06975647374412533019 ) ) ;
#320 = VECTOR ( 'NONE', #769, 1000.000000000000000 ) ;
#321 = CARTESIAN_POINT ( 'NONE',  ( 30.00000000000000000, 0.000000000000000000, 0.000000000000000000 ) ) ;
#322 = VERTEX_POINT ( 'NONE', #626 ) ;
#323 = EDGE_LOOP ( 'NONE', ( #735, #101 ) ) ;
#324 = CARTESIAN_POINT ( 'NONE',  ( 25.53995534919384269, -3.999999999999999112, 14.97251717714321551 ) ) ;
#325 = DIRECTION ( 'NONE',  ( -0.9975640502598241977, 0.000000000000000000, -0.06975647374412533019 ) ) ;
#326 = ORIENTED_EDGE ( 'NONE', *, *, #176, .T. ) ;
#327 = CIRCLE ( 'NONE', #83, 1.000000000000000888 ) ;
#328 = FACE_OUTER_BOUND ( 'NONE', #850, .T. ) ;
#329 = LINE ( 'NONE', #132, #820 ) ;
#330 = EDGE_LOOP ( 'NONE', ( #720, #27, #6, #725 ) ) ;
#331 = PLANE ( 'NONE',  #514 ) ;
#332 = PLANE ( 'NONE',  #455 ) ;
#333 = VECTOR ( 'NONE', #805, 1000.000000000000114 ) ;
#334 =( LENGTH_UNIT ( ) NAMED_UNIT ( * ) SI_UNIT ( .MILLI., .METRE. ) );
#335 = EDGE_CURVE ( 'NONE', #221, #205, #219, .T. ) ;
#336 = VECTOR ( 'NONE', #1, 1000.000000000000000 ) ;
#337 = DIRECTION ( 'NONE',  ( 0.000000000000000000, -1.000000000000000000, 0.000000000000000000 ) ) ;
#338 = ORIENTED_EDGE ( 'NONE', *, *, #485, .F. ) ;
#339 = ORIENTED_EDGE ( 'NONE', *, *, #122, .T. ) ;
#340 = SURFACE_STYLE_FILL_AREA ( #71 ) ;
#341 = LINE ( 'NONE', #745, #39 ) ;
#342 = ORIENTED_EDGE ( 'NONE', *, *, #826, .F. ) ;
#343 = ORIENTED_EDGE ( 'NONE', *, *, #271, .T. ) ;
#344 = CARTESIAN_POINT ( 'NONE',  ( -0.9082151251929463376, -7.000000000000000000, 19.51542756737597983 ) ) ;
#345 = DIRECTION ( 'NONE',  ( 0.000000000000000000, 0.000000000000000000, 1.000000000000000000 ) ) ;
#346 = ORIENTED_EDGE ( 'NONE', *, *, #578, .T. ) ;
#347 = CARTESIAN_POINT ( 'NONE',  ( 18.10263721128483638, -4.000000000000000000, 20.84479586359470815 ) ) ;
#348 = DIRECTION ( 'NONE',  ( 0.9983225951989979086, -0.000000000000000000, 0.05789642402720499015 ) ) ;
#349 = COLOUR_RGB ( '',0.7921568627450980005, 0.8196078431372548767, 0.9333333333333333481 ) ;
#350 = STYLED_ITEM ( 'NONE', ( #848 ), #787 ) ;
#351 = DIRECTION ( 'NONE',  ( 0.05789642402720498321, -1.360092616748730388E-16, -0.9983225951989977975 ) ) ;
#352 = CYLINDRICAL_SURFACE ( 'NONE', #133, 1.000000000000000888 ) ;
#353 =( GEOMETRIC_REPRESENTATION_CONTEXT ( 3 ) GLOBAL_UNCERTAINTY_ASSIGNED_CONTEXT ( ( #821 ) ) GLOBAL_UNIT_ASSIGNED_CONTEXT ( ( #396, #552, #3 ) ) REPRESENTATION_CONTEXT ( 'NONE', 'WORKASPACE' ) );
#354 = ORIENTED_EDGE ( 'NONE', *, *, #872, .F. ) ;
#356 = ADVANCED_FACE ( 'NONE', ( #91 ), #360, .F. ) ;
#355 = AXIS2_PLACEMENT_3D ( 'NONE', #561, #228, #509 ) ;
#357 = DIRECTION ( 'NONE',  ( 0.000000000000000000, 0.000000000000000000, 1.000000000000000000 ) ) ;
#358 = ADVANCED_FACE ( 'NONE', ( #140 ), #281, .T. ) ;
#359 = AXIS2_PLACEMENT_3D ( 'NONE', #301, #104, #307 ) ;
#360 = PLANE ( 'NONE',  #638 ) ;
#361 = ORIENTED_EDGE ( 'NONE', *, *, #273, .T. ) ;
#362 = CARTESIAN_POINT ( 'NONE',  ( 80.11157537016046604, 25.00000000000000000, 5.282997620183647491 ) ) ;
#363 = AXIS2_PLACEMENT_3D ( 'NONE', #715, #457, #38 ) ;
#364 = CARTESIAN_POINT ( 'NONE',  ( 0.000000000000000000, -25.00000000000000000, 8.625150530999139420 ) ) ;
#365 = VERTEX_POINT ( 'NONE', #599 ) ;
#366 = ORIENTED_EDGE ( 'NONE', *, *, #85, .F. ) ;
#367 = CARTESIAN_POINT ( 'NONE',  ( 0.000000000000000000, 0.000000000000000000, 4.100000000000000533 ) ) ;
#368 = CARTESIAN_POINT ( 'NONE',  ( 18.47185576558883113, -3.999999999999999112, 14.47826750676246554 ) ) ;
#369 = ADVANCED_FACE ( 'NONE', ( #52 ), #722, .T. ) ;
#370 = LINE ( 'NONE', #465, #232 ) ;
#371 = ORIENTED_EDGE ( 'NONE', *, *, #50, .T. ) ;
#372 = CARTESIAN_POINT ( 'NONE',  ( 18.48491588902141203, -25.00000000000000000, 14.25306851497830429 ) ) ;
#373 = LINE ( 'NONE', #380, #262 ) ;
#374 = VECTOR ( 'NONE', #623, 1000.000000000000227 ) ;
#375 = DIRECTION ( 'NONE',  ( 0.000000000000000000, 1.000000000000000000, 0.000000000000000000 ) ) ;
#376 = VERTEX_POINT ( 'NONE', #40 ) ;
#377 = ORIENTED_EDGE ( 'NONE', *, *, #666, .T. ) ;
#378 = ADVANCED_FACE ( 'NONE', ( #798 ), #650, .T. ) ;
#379 = VECTOR ( 'NONE', #557, 1000.000000000000114 ) ;
#380 = CARTESIAN_POINT ( 'NONE',  ( 25.09513399751366336, -4.000000000000000000, 21.33375887138093319 ) ) ;
#381 = DIRECTION ( 'NONE',  ( -0.000000000000000000, 1.000000000000000000, 0.000000000000000000 ) ) ;
#382 = ORIENTED_EDGE ( 'NONE', *, *, #209, .T. ) ;
#383 = EDGE_CURVE ( 'NONE', #780, #92, #771, .T. ) ;
#384 = DIRECTION ( 'NONE',  ( -0.000000000000000000, 1.000000000000000000, 0.000000000000000000 ) ) ;
#385 = DIRECTION ( 'NONE',  ( 0.9975640502598241977, 0.000000000000000000, 0.06975647374412548285 ) ) ;
#386 = ORIENTED_EDGE ( 'NONE', *, *, #122, .F. ) ;
#387 = ORIENTED_EDGE ( 'NONE', *, *, #479, .F. ) ;
#388 = UNCERTAINTY_MEASURE_WITH_UNIT (LENGTH_MEASURE( 1.000000000000000082E-05 ), #23, 'distance_accuracy_value', 'NONE');
#389 = DIRECTION ( 'NONE',  ( -0.9975640502598243087, 0.000000000000000000, -0.06975647374412533019 ) ) ;
#390 = DIRECTION ( 'NONE',  ( 0.9983225951989977975, 0.000000000000000000, 0.05789642402720579506 ) ) ;
#391 = VECTOR ( 'NONE', #849, 1000.000000000000000 ) ;
#392 = VERTEX_POINT ( 'NONE', #875 ) ;
#393 = ORIENTED_EDGE ( 'NONE', *, *, #414, .T. ) ;
#394 = CARTESIAN_POINT ( 'NONE',  ( 18.10263721128483994, 4.000000000000000000, 20.84479586359470815 ) ) ;
#395 = COLOUR_RGB ( '',0.7921568627450980005, 0.8196078431372548767, 0.9333333333333333481 ) ;
#396 =( LENGTH_UNIT ( ) NAMED_UNIT ( * ) SI_UNIT ( .MILLI., .METRE. ) );
#397 = SURFACE_STYLE_FILL_AREA ( #764 ) ;
#398 = VECTOR ( 'NONE', #632, 999.9999999999998863 ) ;
#399 = VERTEX_POINT ( 'NONE', #864 ) ;
#400 = APPLICATION_PROTOCOL_DEFINITION ( 'draft international standard', 'automotive_design', 1998, #163 ) ;
#401 = LINE ( 'NONE', #135, #29 ) ;
#402 = CARTESIAN_POINT ( 'NONE',  ( 30.00000000000000000, 5.021051876504148371E-16, -4.100000000000000533 ) ) ;
#403 = EDGE_CURVE ( 'NONE', #538, #657, #183, .T. ) ;
#404 = CARTESIAN_POINT ( 'NONE',  ( 0.6483277940158361785, 25.00000000000000000, 11.84384076387689433 ) ) ;
#405 = CARTESIAN_POINT ( 'NONE',  ( 25.53995534919384269, 6.999999999999999112, 14.97251717714321551 ) ) ;
#406 = DIRECTION ( 'NONE',  ( 0.9983225951989979086, -0.000000000000000000, 0.05789642402720499015 ) ) ;
#407 = EDGE_LOOP ( 'NONE', ( #168, #54, #730, #535 ) ) ;
#408 = DIRECTION ( 'NONE',  ( 0.000000000000000000, 1.000000000000000000, 0.000000000000000000 ) ) ;
#409 = VECTOR ( 'NONE', #302, 1000.000000000000114 ) ;
#410 = CARTESIAN_POINT ( 'NONE',  ( 18.56437941610786169, -25.00000000000000000, 12.88285893955904626 ) ) ;
#411 = VECTOR ( 'NONE', #150, 1000.000000000000000 ) ;
#412 = VERTEX_POINT ( 'NONE', #249 ) ;
#413 = DIRECTION ( 'NONE',  ( 1.000000000000000000, 0.000000000000000000, 0.000000000000000000 ) ) ;
#414 = EDGE_CURVE ( 'NONE', #682, #178, #373, .T. ) ;
#415 = DIRECTION ( 'NONE',  ( 0.000000000000000000, 1.000000000000000000, -1.214306433183764966E-16 ) ) ;
#416 = ORIENTED_EDGE ( 'NONE', *, *, #85, .T. ) ;
#417 = DIRECTION ( 'NONE',  ( 0.000000000000000000, 1.000000000000000000, 0.000000000000000000 ) ) ;
#418 = PLANE ( 'NONE',  #483 ) ;
#419 = LINE ( 'NONE', #90, #660 ) ;
#420 = DIRECTION ( 'NONE',  ( -0.06975647374412531632, 0.000000000000000000, 0.9975640502598241977 ) ) ;
#421 = VECTOR ( 'NONE', #308, 1000.000000000000114 ) ;
#422 = VERTEX_POINT ( 'NONE', #437 ) ;
#423 = CARTESIAN_POINT ( 'NONE',  ( 18.10263721128483994, -4.000000000000000000, 20.84479586359470815 ) ) ;
#424 = PLANE ( 'NONE',  #525 ) ;
#425 = EDGE_CURVE ( 'NONE', #392, #111, #45, .T. ) ;
#426 = VERTEX_POINT ( 'NONE', #656 ) ;
#427 = EDGE_CURVE ( 'NONE', #111, #412, #98, .T. ) ;
#428 = FACE_OUTER_BOUND ( 'NONE', #330, .T. ) ;
#429 = DIRECTION ( 'NONE',  ( -1.000000000000000000, 0.000000000000000000, 0.000000000000000000 ) ) ;
#430 = VERTEX_POINT ( 'NONE', #526 ) ;
#431 = VERTEX_POINT ( 'NONE', #368 ) ;
#432 = FACE_OUTER_BOUND ( 'NONE', #572, .T. ) ;
#433 = LINE ( 'NONE', #364, #842 ) ;
#434 = ORIENTED_EDGE ( 'NONE', *, *, #824, .F. ) ;
#435 = MECHANICAL_DESIGN_GEOMETRIC_PRESENTATION_REPRESENTATION (  '', ( #472 ), #353 ) ;
#436 = VECTOR ( 'NONE', #551, 999.9999999999998863 ) ;
#437 = CARTESIAN_POINT ( 'NONE',  ( -0.4633937735127675039, 25.00000000000000000, 13.15418587313826393 ) ) ;
#438 = EDGE_CURVE ( 'NONE', #205, #784, #433, .T. ) ;
#439 = DIRECTION ( 'NONE',  ( -3.469446951953614189E-15, 0.000000000000000000, -1.000000000000000000 ) ) ;
#440 = VERTEX_POINT ( 'NONE', #646 ) ;
#441 = ORIENTED_EDGE ( 'NONE', *, *, #50, .F. ) ;
#442 = DIRECTION ( 'NONE',  ( -0.06975647374412534407, 0.000000000000000000, 0.9975640502598243087 ) ) ;
#443 = DIRECTION ( 'NONE',  ( -0.000000000000000000, 1.000000000000000000, -0.000000000000000000 ) ) ;
#444 = EDGE_CURVE ( 'NONE', #873, #42, #589, .T. ) ;
#445 = FACE_OUTER_BOUND ( 'NONE', #117, .T. ) ;
#446 = VERTEX_POINT ( 'NONE', #870 ) ;
#447 = VERTEX_POINT ( 'NONE', #458 ) ;
#448 = CARTESIAN_POINT ( 'NONE',  ( 30.00000000000000000, 0.000000000000000000, 0.000000000000000000 ) ) ;
#449 = DIRECTION ( 'NONE',  ( -0.000000000000000000, -0.000000000000000000, 1.000000000000000000 ) ) ;
#450 = VECTOR ( 'NONE', #175, 1000.000000000000000 ) ;
#451 = CARTESIAN_POINT ( 'NONE',  ( 0.000000000000000000, 5.021051876504148371E-16, -4.100000000000000533 ) ) ;
#452 = ORIENTED_EDGE ( 'NONE', *, *, #596, .F. ) ;
#453 = ORIENTED_EDGE ( 'NONE', *, *, #425, .T. ) ;
#454 = EDGE_CURVE ( 'NONE', #225, #399, #584, .T. ) ;
#455 = AXIS2_PLACEMENT_3D ( 'NONE', #128, #406, #482 ) ;
#456 = UNCERTAINTY_MEASURE_WITH_UNIT (LENGTH_MEASURE( 1.000000000000000082E-05 ), #261, 'distance_accuracy_value', 'NONE');
#457 = DIRECTION ( 'NONE',  ( 0.05789642402720503178, 0.000000000000000000, -0.9983225951989979086 ) ) ;
#458 = CARTESIAN_POINT ( 'NONE',  ( -0.9082151251929463376, 7.000000000000000000, 19.51542756737597983 ) ) ;
#459 = LINE ( 'NONE', #516, #499 ) ;
#460 = ORIENTED_EDGE ( 'NONE', *, *, #335, .F. ) ;
#461 = AXIS2_PLACEMENT_3D ( 'NONE', #541, #254, #470 ) ;
#462 = VERTEX_POINT ( 'NONE', #115 ) ;
#463 = EDGE_CURVE ( 'NONE', #222, #708, #244, .T. ) ;
#464 = FACE_OUTER_BOUND ( 'NONE', #407, .T. ) ;
#465 = CARTESIAN_POINT ( 'NONE',  ( 0.000000000000000000, 25.00000000000000000, 5.282997620183647491 ) ) ;
#466 = ORIENTED_EDGE ( 'NONE', *, *, #684, .T. ) ;
#467 = EDGE_LOOP ( 'NONE', ( #766, #705 ) ) ;
#468 = DIRECTION ( 'NONE',  ( -0.9975640502598241977, 0.000000000000000000, -0.06975647374412533019 ) ) ;
#469 = EDGE_LOOP ( 'NONE', ( #129, #466, #803, #453 ) ) ;
#470 = DIRECTION ( 'NONE',  ( 1.000000000000000000, 0.000000000000000000, 0.000000000000000000 ) ) ;
#471 = STYLED_ITEM ( 'NONE', ( #815 ), #182 ) ;
#472 = STYLED_ITEM ( 'NONE', ( #621 ), #495 ) ;
#473 = LINE ( 'NONE', #127, #886 ) ;
#474 =( NAMED_UNIT ( * ) PLANE_ANGLE_UNIT ( ) SI_UNIT ( $, .RADIAN. ) );
#475 = EDGE_CURVE ( 'NONE', #517, #257, #30, .T. ) ;
#476 = PRODUCT_DEFINITION_CONTEXT ( 'detailed design', #163, 'design' ) ;
#477 = DIRECTION ( 'NONE',  ( 1.000000000000000000, 0.000000000000000000, 0.000000000000000000 ) ) ;
#478 = DIRECTION ( 'NONE',  ( 0.1531407563503333624, 0.000000000000000000, -0.9882043861188067879 ) ) ;
#479 = EDGE_CURVE ( 'NONE', #674, #231, #580, .T. ) ;
#480 = CARTESIAN_POINT ( 'NONE',  ( -0.4633937735127677260, -6.999999999999999112, 13.15418587313826393 ) ) ;
#481 = SURFACE_SIDE_STYLE ('',( #340 ) ) ;
#482 = DIRECTION ( 'NONE',  ( 0.05789642402720498321, 0.000000000000000000, -0.9983225951989977975 ) ) ;
#483 = AXIS2_PLACEMENT_3D ( 'NONE', #696, #348, #494 ) ;
#484 = EDGE_LOOP ( 'NONE', ( #573, #627, #326, #338 ) ) ;
#485 = EDGE_CURVE ( 'NONE', #42, #447, #515, .T. ) ;
#486 = CARTESIAN_POINT ( 'NONE',  ( 30.00000000000000000, 25.00000000000000000, 5.282997620183647491 ) ) ;
#487 = LINE ( 'NONE', #619, #336 ) ;
#488 = VECTOR ( 'NONE', #721, 1000.000000000000114 ) ;
#489 = ORIENTED_EDGE ( 'NONE', *, *, #271, .F. ) ;
#490 = PRODUCT_DEFINITION ( 'UNKNOWN', '', #220, #476 ) ;
#491 = FACE_OUTER_BOUND ( 'NONE', #612, .T. ) ;
#492 = CARTESIAN_POINT ( 'NONE',  ( 30.00000000000000000, -25.00000000000000000, 5.282997620183653709 ) ) ;
#493 = DIRECTION ( 'NONE',  ( 0.000000000000000000, 0.000000000000000000, -1.000000000000000000 ) ) ;
#494 = DIRECTION ( 'NONE',  ( 0.05789642402720498321, 0.000000000000000000, -0.9983225951989977975 ) ) ;
#495 = MANIFOLD_SOLID_BREP ( 'Boss-Extrude4[1]', #108 ) ;
#496 = EDGE_LOOP ( 'NONE', ( #278, #371, #346, #710 ) ) ;
#497 = DIRECTION ( 'NONE',  ( 0.9975640502598241977, 0.000000000000000000, 0.06975647374412533019 ) ) ;
#498 = PLANE ( 'NONE',  #772 ) ;
#499 = VECTOR ( 'NONE', #177, 1000.000000000000227 ) ;
#500 = DIRECTION ( 'NONE',  ( -0.06975647374412534407, 0.000000000000000000, 0.9975640502598243087 ) ) ;
#501 = ORIENTED_EDGE ( 'NONE', *, *, #253, .T. ) ;
#502 = ORIENTED_EDGE ( 'NONE', *, *, #180, .T. ) ;
#503 = ADVANCED_FACE ( 'NONE', ( #60 ), #240, .T. ) ;
#504 = CARTESIAN_POINT ( 'NONE',  ( -0.4633937735127677260, 6.999999999999999112, 13.15418587313826393 ) ) ;
#505 = CARTESIAN_POINT ( 'NONE',  ( 18.46698071745149150, -6.999999999999999112, 14.56232918742693450 ) ) ;
#506 = ORIENTED_EDGE ( 'NONE', *, *, #18, .F. ) ;
#507 = VECTOR ( 'NONE', #14, 1000.000000000000227 ) ;
#508 = DIRECTION ( 'NONE',  ( 1.000000000000000000, 0.000000000000000000, 0.000000000000000000 ) ) ;
#509 = DIRECTION ( 'NONE',  ( 0.000000000000000000, 0.000000000000000000, 1.000000000000000000 ) ) ;
#510 = CARTESIAN_POINT ( 'NONE',  ( -0.9082151251929463376, 4.000000000000000000, 19.51542756737597983 ) ) ;
#511 = CIRCLE ( 'NONE', #628, 1.000000000000000888 ) ;
#512 = ORIENTED_EDGE ( 'NONE', *, *, #9, .F. ) ;
#513 = ORIENTED_EDGE ( 'NONE', *, *, #726, .T. ) ;
#514 = AXIS2_PLACEMENT_3D ( 'NONE', #749, #389, #264 ) ;
#515 = LINE ( 'NONE', #794, #858 ) ;
#516 = CARTESIAN_POINT ( 'NONE',  ( 0.000000000000000000, 25.00000000000000000, 6.527346172693820670 ) ) ;
#517 = VERTEX_POINT ( 'NONE', #677 ) ;
#518 = ORIENTED_EDGE ( 'NONE', *, *, #744, .T. ) ;
#519 = DIRECTION ( 'NONE',  ( 1.000000000000000000, 0.000000000000000000, 0.000000000000000000 ) ) ;
#520 = DIRECTION ( 'NONE',  ( 0.9983225951989977975, 0.000000000000000000, 0.05789642402720579506 ) ) ;
#521 = CARTESIAN_POINT ( 'NONE',  ( 30.00000000000000000, 25.00000000000000000, 8.625150530999139420 ) ) ;
#522 = ADVANCED_FACE ( 'NONE', ( #328 ), #680, .T. ) ;
#523 = ORIENTED_EDGE ( 'NONE', *, *, #89, .T. ) ;
#524 = CARTESIAN_POINT ( 'NONE',  ( -0.4633937735127675039, -45.53638084633509209, 13.15418587313826393 ) ) ;
#525 = AXIS2_PLACEMENT_3D ( 'NONE', #147, #21, #420 ) ;
#526 = CARTESIAN_POINT ( 'NONE',  ( 18.47185576558883113, 6.999999999999999112, 14.47826750676246554 ) ) ;
#527 = CARTESIAN_POINT ( 'NONE',  ( 30.00000000000000000, 25.00000000000000000, 8.625150530999139420 ) ) ;
#528 = ORIENTED_EDGE ( 'NONE', *, *, #444, .T. ) ;
#529 = EDGE_CURVE ( 'NONE', #365, #873, #473, .T. ) ;
#530 = AXIS2_PLACEMENT_3D ( 'NONE', #197, #819, #478 ) ;
#531 = DIRECTION ( 'NONE',  ( 0.1531407563503333347, 0.000000000000000000, -0.9882043861188067879 ) ) ;
#532 = CIRCLE ( 'NONE', #286, 6.509565424291333890 ) ;
#533 = CARTESIAN_POINT ( 'NONE',  ( 0.000000000000000000, -45.53638084633509209, 6.527346172693820670 ) ) ;
#534 = LINE ( 'NONE', #647, #283 ) ;
#535 = ORIENTED_EDGE ( 'NONE', *, *, #180, .F. ) ;
#536 = LINE ( 'NONE', #546, #142 ) ;
#537 = LINE ( 'NONE', #687, #266 ) ;
#538 = VERTEX_POINT ( 'NONE', #828 ) ;
#539 = ORIENTED_EDGE ( 'NONE', *, *, #666, .F. ) ;
#540 = ADVANCED_FACE ( 'NONE', ( #889 ), #543, .T. ) ;
#541 = CARTESIAN_POINT ( 'NONE',  ( 0.000000000000000000, 0.000000000000000000, 0.000000000000000000 ) ) ;
#542 = EDGE_CURVE ( 'NONE', #882, #780, #536, .T. ) ;
#543 = PLANE ( 'NONE',  #690 ) ;
#544 = PLANE ( 'NONE',  #125 ) ;
#545 = MECHANICAL_DESIGN_GEOMETRIC_PRESENTATION_REPRESENTATION (  '', ( #471 ), #773 ) ;
#546 = CARTESIAN_POINT ( 'NONE',  ( 30.00000000000000000, 0.000000000000000000, 4.100000000000000533 ) ) ;
#547 = EDGE_CURVE ( 'NONE', #859, #669, #401, .T. ) ;
#548 = PLANE ( 'NONE',  #655 ) ;
#549 = ORIENTED_EDGE ( 'NONE', *, *, #297, .F. ) ;
#550 = CIRCLE ( 'NONE', #714, 4.100000000000000533 ) ;
#551 = DIRECTION ( 'NONE',  ( 0.05789642402720498321, 0.000000000000000000, -0.9983225951989979086 ) ) ;
#552 =( NAMED_UNIT ( * ) PLANE_ANGLE_UNIT ( ) SI_UNIT ( $, .RADIAN. ) );
#553 = PLANE ( 'NONE',  #263 ) ;
#554 = EDGE_CURVE ( 'NONE', #422, #674, #685, .T. ) ;
#555 = EDGE_LOOP ( 'NONE', ( #846, #724, #502, #582 ) ) ;
#556 = DIRECTION ( 'NONE',  ( 0.05789642402720498321, 0.000000000000000000, -0.9983225951989977975 ) ) ;
#557 = DIRECTION ( 'NONE',  ( -0.9983225951989977975, 0.000000000000000000, -0.05789642402720502484 ) ) ;
#558 = CIRCLE ( 'NONE', #160, 6.509565424291333890 ) ;
#559 = EDGE_LOOP ( 'NONE', ( #802, #592, #776, #713 ) ) ;
#560 = LINE ( 'NONE', #486, #235 ) ;
#561 = CARTESIAN_POINT ( 'NONE',  ( 80.11157537016046604, 25.00000000000000000, 5.282997620183647491 ) ) ;
#562 = AXIS2_PLACEMENT_3D ( 'NONE', #203, #276, #556 ) ;
#563 = DIRECTION ( 'NONE',  ( 1.000000000000000000, 0.000000000000000000, 0.000000000000000000 ) ) ;
#564 = CARTESIAN_POINT ( 'NONE',  ( 30.00000000000000000, 25.00000000000000000, 8.625150530999139420 ) ) ;
#565 = ADVANCED_FACE ( 'NONE', ( #670 ), #55, .T. ) ;
#566 = LINE ( 'NONE', #19, #644 ) ;
#567 = CARTESIAN_POINT ( 'NONE',  ( 18.46698071745149150, 6.999999999999999112, 14.56232918742693450 ) ) ;
#568 = DIRECTION ( 'NONE',  ( 0.000000000000000000, 1.000000000000000000, 0.000000000000000000 ) ) ;
#569 = ADVANCED_FACE ( 'NONE', ( #190, #63 ), #265, .F. ) ;
#570 = LINE ( 'NONE', #291, #245 ) ;
#571 = VECTOR ( 'NONE', #825, 1000.000000000000000 ) ;
#572 = EDGE_LOOP ( 'NONE', ( #268, #158, #734, #796 ) ) ;
#573 = ORIENTED_EDGE ( 'NONE', *, *, #578, .F. ) ;
#574 = AXIS2_PLACEMENT_3D ( 'NONE', #706, #417, #357 ) ;
#575 = CARTESIAN_POINT ( 'NONE',  ( 25.09513399751366336, -4.000000000000000000, 21.33375887138093319 ) ) ;
#576 = CARTESIAN_POINT ( 'NONE',  ( 18.48491588902141203, -25.00000000000000000, 14.25306851497830429 ) ) ;
#577 = EDGE_LOOP ( 'NONE', ( #88, #354, #689, #309 ) ) ;
#578 = EDGE_CURVE ( 'NONE', #859, #42, #778, .T. ) ;
#579 = CARTESIAN_POINT ( 'NONE',  ( 1.805097166277174647, 25.00000000000000000, 10.90924588000983064 ) ) ;
#580 = LINE ( 'NONE', #852, #284 ) ;
#581 = DIRECTION ( 'NONE',  ( 8.673617379884027583E-16, 0.000000000000000000, 1.000000000000000000 ) ) ;
#582 = ORIENTED_EDGE ( 'NONE', *, *, #826, .T. ) ;
#583 = DIRECTION ( 'NONE',  ( 0.000000000000000000, 0.000000000000000000, 1.000000000000000000 ) ) ;
#584 = LINE ( 'NONE', #34, #450 ) ;
#585 = CARTESIAN_POINT ( 'NONE',  ( 0.000000000000000000, 0.000000000000000000, 6.527346172693821558 ) ) ;
#586 = ORIENTED_EDGE ( 'NONE', *, *, #642, .T. ) ;
#587 = PLANE ( 'NONE',  #763 ) ;
#588 = CIRCLE ( 'NONE', #44, 4.100000000000000533 ) ;
#589 = LINE ( 'NONE', #311, #333 ) ;
#590 = CARTESIAN_POINT ( 'NONE',  ( 18.46698071745149150, 4.000000000000000000, 14.56232918742693450 ) ) ;
#591 = EDGE_LOOP ( 'NONE', ( #102, #683, #43, #387 ) ) ;
#592 = ORIENTED_EDGE ( 'NONE', *, *, #463, .T. ) ;
#593 = FACE_OUTER_BOUND ( 'NONE', #559, .T. ) ;
#594 = EDGE_CURVE ( 'NONE', #225, #221, #625, .T. ) ;
#595 = DIRECTION ( 'NONE',  ( 0.1531407563503333624, 0.000000000000000000, -0.9882043861188067879 ) ) ;
#596 = EDGE_CURVE ( 'NONE', #92, #780, #550, .T. ) ;
#597 = VERTEX_POINT ( 'NONE', #78 ) ;
#598 = DIRECTION ( 'NONE',  ( -0.9975640502598241977, 0.000000000000000000, -0.06975647374412533019 ) ) ;
#599 = CARTESIAN_POINT ( 'NONE',  ( 18.47185576558883113, 4.000000000000000000, 14.47826750676246554 ) ) ;
#600 = EDGE_CURVE ( 'NONE', #189, #597, #7, .T. ) ;
#601 = DIRECTION ( 'NONE',  ( 0.000000000000000000, 1.000000000000000000, 0.000000000000000000 ) ) ;
#602 = ORIENTED_EDGE ( 'NONE', *, *, #754, .F. ) ;
#603 = EDGE_LOOP ( 'NONE', ( #242, #624, #501, #251 ) ) ;
#604 = CARTESIAN_POINT ( 'NONE',  ( -0.4633937735127677260, 4.000000000000000000, 13.15418587313826393 ) ) ;
#605 = MECHANICAL_DESIGN_GEOMETRIC_PRESENTATION_REPRESENTATION (  '', ( #350 ), #686 ) ;
#606 = DIRECTION ( 'NONE',  ( -9.488196529248786328E-18, 1.000000000000000000, 1.356875319428793289E-16 ) ) ;
#607 = LINE ( 'NONE', #880, #137 ) ;
#608 = EDGE_LOOP ( 'NONE', ( #489, #693, #36, #452 ) ) ;
#609 = ORIENTED_EDGE ( 'NONE', *, *, #777, .T. ) ;
#610 = ADVANCED_FACE ( 'NONE', ( #292 ), #86, .T. ) ;
#611 =( NAMED_UNIT ( * ) PLANE_ANGLE_UNIT ( ) SI_UNIT ( $, .RADIAN. ) );
#612 = EDGE_LOOP ( 'NONE', ( #712, #343, #172, #861 ) ) ;
#613 = CARTESIAN_POINT ( 'NONE',  ( 25.53995534919384269, 6.999999999999999112, 14.97251717714321551 ) ) ;
#614 = CARTESIAN_POINT ( 'NONE',  ( 2.373598340505524096, 25.00000000000000000, 6.693324337479778841 ) ) ;
#615 = DIRECTION ( 'NONE',  ( 0.000000000000000000, 0.000000000000000000, 1.000000000000000000 ) ) ;
#616 = VECTOR ( 'NONE', #601, 1000.000000000000000 ) ;
#617 = DIRECTION ( 'NONE',  ( -0.9975640502598241977, 0.000000000000000000, -0.06975647374412533019 ) ) ;
#618 = EDGE_CURVE ( 'NONE', #426, #657, #146, .T. ) ;
#619 = CARTESIAN_POINT ( 'NONE',  ( -0.4633937735127675039, -45.53638084633509209, 13.15418587313826393 ) ) ;
#620 = ORIENTED_EDGE ( 'NONE', *, *, #744, .F. ) ;
#621 = PRESENTATION_STYLE_ASSIGNMENT (( #743 ) ) ;
#622 = EDGE_CURVE ( 'NONE', #784, #517, #82, .T. ) ;
#623 = DIRECTION ( 'NONE',  ( -0.9983225951989977975, 0.000000000000000000, -0.05789642402720501790 ) ) ;
#624 = ORIENTED_EDGE ( 'NONE', *, *, #112, .T. ) ;
#625 = LINE ( 'NONE', #840, #320 ) ;
#626 = CARTESIAN_POINT ( 'NONE',  ( 30.00000000000000000, -25.00000000000000000, 8.625150530999139420 ) ) ;
#627 = ORIENTED_EDGE ( 'NONE', *, *, #547, .T. ) ;
#628 = AXIS2_PLACEMENT_3D ( 'NONE', #651, #100, #581 ) ;
#629 = CARTESIAN_POINT ( 'NONE',  ( 30.00000000000000000, 3.803206299724366080, 5.282997620183649268 ) ) ;
#630 = LINE ( 'NONE', #770, #20 ) ;
#631 = VECTOR ( 'NONE', #248, 1000.000000000000000 ) ;
#632 = DIRECTION ( 'NONE',  ( -0.06975647374412533019, 0.000000000000000000, 0.9975640502598243087 ) ) ;
#633 = FACE_OUTER_BOUND ( 'NONE', #741, .T. ) ;
#634 = ORIENTED_EDGE ( 'NONE', *, *, #200, .T. ) ;
#635 = ADVANCED_FACE ( 'NONE', ( #213 ), #636, .T. ) ;
#636 = PLANE ( 'NONE',  #810 ) ;
#637 = CARTESIAN_POINT ( 'NONE',  ( 1.805097166277174647, -45.53638084633509209, 10.90924588000983064 ) ) ;
#638 = AXIS2_PLACEMENT_3D ( 'NONE', #641, #25, #298 ) ;
#639 = ORIENTED_EDGE ( 'NONE', *, *, #297, .T. ) ;
#640 = DIRECTION ( 'NONE',  ( -0.000000000000000000, -1.000000000000000000, -0.000000000000000000 ) ) ;
#641 = CARTESIAN_POINT ( 'NONE',  ( 30.00000000000000000, -28.00000000000001776, 8.625150530999139420 ) ) ;
#642 = EDGE_CURVE ( 'NONE', #282, #538, #560, .T. ) ;
#643 = ORIENTED_EDGE ( 'NONE', *, *, #818, .T. ) ;
#644 = VECTOR ( 'NONE', #15, 1000.000000000000227 ) ;
#645 = CARTESIAN_POINT ( 'NONE',  ( 0.000000000000000000, -25.00000000000000000, 6.527346172693818893 ) ) ;
#646 = CARTESIAN_POINT ( 'NONE',  ( -0.4633937735127677260, -6.999999999999999112, 13.15418587313826393 ) ) ;
#647 = CARTESIAN_POINT ( 'NONE',  ( 18.47185576558883113, -3.999999999999999112, 14.47826750676246554 ) ) ;
#648 = ORIENTED_EDGE ( 'NONE', *, *, #463, .F. ) ;
#649 = ORIENTED_EDGE ( 'NONE', *, *, #872, .T. ) ;
#650 = PLANE ( 'NONE',  #804 ) ;
#651 = CARTESIAN_POINT ( 'NONE',  ( 2.303841866761403345, 25.00000000000000000, 7.690888387739604148 ) ) ;
#652 = ORIENTED_EDGE ( 'NONE', *, *, #113, .F. ) ;
#653 = ORIENTED_EDGE ( 'NONE', *, *, #176, .F. ) ;
#654 = CARTESIAN_POINT ( 'NONE',  ( -0.4633937735127677260, 6.999999999999999112, 13.15418587313826393 ) ) ;
#655 = AXIS2_PLACEMENT_3D ( 'NONE', #204, #337, #194 ) ;
#656 = CARTESIAN_POINT ( 'NONE',  ( 0.000000000000000000, 3.803206299724366968, 5.282997620183650156 ) ) ;
#657 = VERTEX_POINT ( 'NONE', #844 ) ;
#658 = ORIENTED_EDGE ( 'NONE', *, *, #777, .F. ) ;
#659 = DIRECTION ( 'NONE',  ( 0.000000000000000000, -1.000000000000000000, 0.000000000000000000 ) ) ;
#660 = VECTOR ( 'NONE', #568, 1000.000000000000000 ) ;
#661 = DIRECTION ( 'NONE',  ( 9.488196529248786328E-18, -1.000000000000000000, -1.356875319428793289E-16 ) ) ;
#662 = LINE ( 'NONE', #46, #697 ) ;
#663 = ORIENTED_EDGE ( 'NONE', *, *, #18, .T. ) ;
#664 = VERTEX_POINT ( 'NONE', #344 ) ;
#665 = CYLINDRICAL_SURFACE ( 'NONE', #823, 4.100000000000000533 ) ;
#666 = EDGE_CURVE ( 'NONE', #430, #32, #566, .T. ) ;
#667 = CARTESIAN_POINT ( 'NONE',  ( -0.4633937735127675039, -25.00000000000000000, 13.15418587313826393 ) ) ;
#668 = CARTESIAN_POINT ( 'NONE',  ( 0.8168927801583683035, -25.00000000000000000, 10.75610512365949845 ) ) ;
#669 = VERTEX_POINT ( 'NONE', #290 ) ;
#670 = FACE_OUTER_BOUND ( 'NONE', #603, .T. ) ;
#671 = VECTOR ( 'NONE', #165, 1000.000000000000000 ) ;
#672 = SURFACE_STYLE_USAGE ( .BOTH. , #68 ) ;
#673 = ORIENTED_EDGE ( 'NONE', *, *, #75, .T. ) ;
#674 = VERTEX_POINT ( 'NONE', #831 ) ;
#675 = AXIS2_PLACEMENT_3D ( 'NONE', #767, #144, #12 ) ;
#676 = SHAPE_DEFINITION_REPRESENTATION ( #149, #737 ) ;
#677 = CARTESIAN_POINT ( 'NONE',  ( -0.4633937735127675595, -25.00000000000000000, 13.15418587313826393 ) ) ;
#678 = FACE_OUTER_BOUND ( 'NONE', #469, .T. ) ;
#679 = DIRECTION ( 'NONE',  ( -0.06975647374412531632, -1.360188670667695680E-16, 0.9975640502598241977 ) ) ;
#680 = PLANE ( 'NONE',  #755 ) ;
#681 = CARTESIAN_POINT ( 'NONE',  ( 0.000000000000000000, -25.00000000000000000, 5.282997620183653709 ) ) ;
#682 = VERTEX_POINT ( 'NONE', #423 ) ;
#683 = ORIENTED_EDGE ( 'NONE', *, *, #824, .T. ) ;
#684 = EDGE_CURVE ( 'NONE', #412, #138, #419, .T. ) ;
#685 = LINE ( 'NONE', #119, #883 ) ;
#686 =( GEOMETRIC_REPRESENTATION_CONTEXT ( 3 ) GLOBAL_UNCERTAINTY_ASSIGNED_CONTEXT ( ( #388 ) ) GLOBAL_UNIT_ASSIGNED_CONTEXT ( ( #23, #114, #33 ) ) REPRESENTATION_CONTEXT ( 'NONE', 'WORKASPACE' ) );
#687 = CARTESIAN_POINT ( 'NONE',  ( 25.09513399751366336, 7.000000000000000000, 21.33375887138093319 ) ) ;
#688 = ORIENTED_EDGE ( 'NONE', *, *, #618, .T. ) ;
#689 = ORIENTED_EDGE ( 'NONE', *, *, #726, .F. ) ;
#690 = AXIS2_PLACEMENT_3D ( 'NONE', #533, #739, #193 ) ;
#691 = CARTESIAN_POINT ( 'NONE',  ( 25.09513399751366336, 7.000000000000000000, 21.33375887138093319 ) ) ;
#692 = DIRECTION ( 'NONE',  ( 0.000000000000000000, -1.000000000000000000, 0.000000000000000000 ) ) ;
#693 = ORIENTED_EDGE ( 'NONE', *, *, #884, .T. ) ;
#694 = DIRECTION ( 'NONE',  ( 0.000000000000000000, 0.000000000000000000, -1.000000000000000000 ) ) ;
#695 = EDGE_CURVE ( 'NONE', #17, #682, #155, .T. ) ;
#696 = CARTESIAN_POINT ( 'NONE',  ( 18.48491588902141203, -45.53638084633509209, 14.25306851497830429 ) ) ;
#697 = VECTOR ( 'NONE', #246, 1000.000000000000000 ) ;
#698 = DIRECTION ( 'NONE',  ( -0.9975640502598241977, 0.000000000000000000, -0.06975647374412533019 ) ) ;
#699 = CARTESIAN_POINT ( 'NONE',  ( 80.11157537016046604, -25.00000000000000000, 5.282997620183653709 ) ) ;
#700 = VECTOR ( 'NONE', #531, 1000.000000000000227 ) ;
#701 = ORIENTED_EDGE ( 'NONE', *, *, #99, .F. ) ;
#702 = ADVANCED_FACE ( 'NONE', ( #428 ), #835, .F. ) ;
#703 = DIRECTION ( 'NONE',  ( 0.000000000000000000, -0.000000000000000000, -1.000000000000000000 ) ) ;
#704 = DIRECTION ( 'NONE',  ( 0.000000000000000000, 0.000000000000000000, -1.000000000000000000 ) ) ;
#705 = ORIENTED_EDGE ( 'NONE', *, *, #884, .F. ) ;
#706 = CARTESIAN_POINT ( 'NONE',  ( 2.303841866761403345, -45.53638084633509209, 7.690888387739604148 ) ) ;
#707 = FACE_OUTER_BOUND ( 'NONE', #591, .T. ) ;
#708 = VERTEX_POINT ( 'NONE', #207 ) ;
#709 = VECTOR ( 'NONE', #224, 1000.000000000000114 ) ;
#710 = ORIENTED_EDGE ( 'NONE', *, *, #444, .F. ) ;
#711 = ADVANCED_FACE ( 'NONE', ( #491 ), #762, .F. ) ;
#712 = ORIENTED_EDGE ( 'NONE', *, *, #760, .T. ) ;
#713 = ORIENTED_EDGE ( 'NONE', *, *, #148, .F. ) ;
#714 = AXIS2_PLACEMENT_3D ( 'NONE', #287, #210, #493 ) ;
#715 = CARTESIAN_POINT ( 'NONE',  ( 18.56437941610786169, -45.53638084633509209, 12.88285893955904626 ) ) ;
#716 =( GEOMETRIC_REPRESENTATION_CONTEXT ( 3 ) GLOBAL_UNCERTAINTY_ASSIGNED_CONTEXT ( ( #765 ) ) GLOBAL_UNIT_ASSIGNED_CONTEXT ( ( #334, #611, #736 ) ) REPRESENTATION_CONTEXT ( 'NONE', 'WORKASPACE' ) );
#717 = CARTESIAN_POINT ( 'NONE',  ( 30.00000000000000000, 25.00000000000000000, 5.282997620183647491 ) ) ;
#718 = LINE ( 'NONE', #527, #409 ) ;
#719 = ORIENTED_EDGE ( 'NONE', *, *, #305, .F. ) ;
#720 = ORIENTED_EDGE ( 'NONE', *, *, #24, .F. ) ;
#721 = DIRECTION ( 'NONE',  ( 0.06975647374412531632, 1.360188670667695680E-16, -0.9975640502598241977 ) ) ;
#722 = CYLINDRICAL_SURFACE ( 'NONE', #359, 6.509565424291333890 ) ;
#723 = DIRECTION ( 'NONE',  ( 0.000000000000000000, 0.000000000000000000, -1.000000000000000000 ) ) ;
#724 = ORIENTED_EDGE ( 'NONE', *, *, #781, .T. ) ;
#725 = ORIENTED_EDGE ( 'NONE', *, *, #684, .F. ) ;
#726 = EDGE_CURVE ( 'NONE', #538, #376, #838, .T. ) ;
#727 = VECTOR ( 'NONE', #595, 1000.000000000000114 ) ;
#728 = DIRECTION ( 'NONE',  ( 0.000000000000000000, 1.356875319428793289E-16, -1.000000000000000000 ) ) ;
#729 = LINE ( 'NONE', #740, #747 ) ;
#730 = ORIENTED_EDGE ( 'NONE', *, *, #179, .T. ) ;
#731 = ADVANCED_FACE ( 'NONE', ( #593 ), #238, .T. ) ;
#732 = SURFACE_SIDE_STYLE ('',( #103 ) ) ;
#733 = CARTESIAN_POINT ( 'NONE',  ( 25.53995534919384269, -6.999999999999999112, 14.97251717714321551 ) ) ;
#734 = ORIENTED_EDGE ( 'NONE', *, *, #154, .T. ) ;
#735 = ORIENTED_EDGE ( 'NONE', *, *, #383, .T. ) ;
#736 =( NAMED_UNIT ( * ) SI_UNIT ( $, .STERADIAN. ) SOLID_ANGLE_UNIT ( ) );
#737 = ADVANCED_BREP_SHAPE_REPRESENTATION ( 'need help', ( #182, #495, #787, #461 ), #716 ) ;
#738 = ADVANCED_FACE ( 'NONE', ( #295 ), #587, .T. ) ;
#739 = DIRECTION ( 'NONE',  ( -0.9975640502598243087, 0.000000000000000000, -0.06975647374412533019 ) ) ;
#740 = CARTESIAN_POINT ( 'NONE',  ( 79.86773416678346393, -25.00000000000000000, 12.11224220012878128 ) ) ;
#741 = EDGE_LOOP ( 'NONE', ( #620, #247, #173, #648 ) ) ;
#742 = DIRECTION ( 'NONE',  ( 0.06975647374412534407, 0.000000000000000000, -0.9975640502598243087 ) ) ;
#743 = SURFACE_STYLE_USAGE ( .BOTH. , #481 ) ;
#744 = EDGE_CURVE ( 'NONE', #111, #222, #836, .T. ) ;
#745 = CARTESIAN_POINT ( 'NONE',  ( 18.48491588902141203, -45.53638084633509209, 14.25306851497830429 ) ) ;
#746 = ORIENTED_EDGE ( 'NONE', *, *, #454, .T. ) ;
#747 = VECTOR ( 'NONE', #385, 1000.000000000000114 ) ;
#748 = VECTOR ( 'NONE', #384, 1000.000000000000000 ) ;
#749 = CARTESIAN_POINT ( 'NONE',  ( 0.4542155039468069866, 0.000000000000000000, 0.03176184212631519982 ) ) ;
#750 = AXIS2_PLACEMENT_3D ( 'NONE', #448, #508, #856 ) ;
#751 = DIRECTION ( 'NONE',  ( 9.488196529248786328E-18, 1.000000000000000000, -1.356875319428793289E-16 ) ) ;
#752 = FACE_OUTER_BOUND ( 'NONE', #73, .T. ) ;
#753 = PLANE ( 'NONE',  #269 ) ;
#754 = EDGE_CURVE ( 'NONE', #32, #873, #851, .T. ) ;
#755 = AXIS2_PLACEMENT_3D ( 'NONE', #613, #260, #617 ) ;
#756 = FACE_OUTER_BOUND ( 'NONE', #577, .T. ) ;
#757 = VECTOR ( 'NONE', #429, 1000.000000000000000 ) ;
#758 = CARTESIAN_POINT ( 'NONE',  ( 18.56437941610786169, -25.00000000000000000, 12.88285893955904626 ) ) ;
#759 = EDGE_LOOP ( 'NONE', ( #847, #236, #523, #342 ) ) ;
#760 = EDGE_CURVE ( 'NONE', #882, #187, #151, .T. ) ;
#761 = ORIENTED_EDGE ( 'NONE', *, *, #479, .T. ) ;
#762 = CYLINDRICAL_SURFACE ( 'NONE', #675, 4.100000000000000533 ) ;
#763 = AXIS2_PLACEMENT_3D ( 'NONE', #575, #442, #862 ) ;
#764 = FILL_AREA_STYLE ('',( #267 ) ) ;
#765 = UNCERTAINTY_MEASURE_WITH_UNIT (LENGTH_MEASURE( 1.000000000000000082E-05 ), #334, 'distance_accuracy_value', 'NONE');
#766 = ORIENTED_EDGE ( 'NONE', *, *, #760, .F. ) ;
#767 = CARTESIAN_POINT ( 'NONE',  ( 30.00000000000000000, 0.000000000000000000, 0.000000000000000000 ) ) ;
#768 = DIRECTION ( 'NONE',  ( 0.000000000000000000, -1.214306433183764966E-16, -1.000000000000000000 ) ) ;
#769 = DIRECTION ( 'NONE',  ( 0.000000000000000000, -1.000000000000000000, 1.214306433183764966E-16 ) ) ;
#770 = CARTESIAN_POINT ( 'NONE',  ( 30.00000000000000000, -25.00000000000000000, 8.625150530999139420 ) ) ;
#771 = CIRCLE ( 'NONE', #833, 4.100000000000000533 ) ;
#772 = AXIS2_PLACEMENT_3D ( 'NONE', #16, #768, #415 ) ;
#773 =( GEOMETRIC_REPRESENTATION_CONTEXT ( 3 ) GLOBAL_UNCERTAINTY_ASSIGNED_CONTEXT ( ( #456 ) ) GLOBAL_UNIT_ASSIGNED_CONTEXT ( ( #261, #474, #885 ) ) REPRESENTATION_CONTEXT ( 'NONE', 'WORKASPACE' ) );
#774 = CARTESIAN_POINT ( 'NONE',  ( 0.000000000000000000, 0.000000000000000000, 0.000000000000000000 ) ) ;
#775 = DIRECTION ( 'NONE',  ( 0.000000000000000000, 0.000000000000000000, -1.000000000000000000 ) ) ;
#776 = ORIENTED_EDGE ( 'NONE', *, *, #200, .F. ) ;
#777 = EDGE_CURVE ( 'NONE', #399, #426, #532, .T. ) ;
#778 = LINE ( 'NONE', #280, #272 ) ;
#779 = FACE_OUTER_BOUND ( 'NONE', #237, .T. ) ;
#780 = VERTEX_POINT ( 'NONE', #367 ) ;
#781 = EDGE_CURVE ( 'NONE', #178, #462, #233, .T. ) ;
#782 = DIRECTION ( 'NONE',  ( -1.000000000000000000, 0.000000000000000000, 0.000000000000000000 ) ) ;
#783 = CARTESIAN_POINT ( 'NONE',  ( 0.8168927801583681925, -25.00000000000000000, 10.75610512365949845 ) ) ;
#784 = VERTEX_POINT ( 'NONE', #645 ) ;
#785 = ORIENTED_EDGE ( 'NONE', *, *, #800, .T. ) ;
#786 = CARTESIAN_POINT ( 'NONE',  ( -0.4633937735127677260, -3.999999999999999112, 13.15418587313826393 ) ) ;
#787 = MANIFOLD_SOLID_BREP ( 'Boss-Extrude4[2]', #843 ) ;
#788 = DIRECTION ( 'NONE',  ( 1.000000000000000000, 0.000000000000000000, 0.000000000000000000 ) ) ;
#789 = VECTOR ( 'NONE', #520, 1000.000000000000114 ) ;
#790 = DIRECTION ( 'NONE',  ( 0.000000000000000000, -1.000000000000000000, 0.000000000000000000 ) ) ;
#791 = EDGE_LOOP ( 'NONE', ( #303, #70, #866, #673 ) ) ;
#792 = ORIENTED_EDGE ( 'NONE', *, *, #695, .F. ) ;
#793 = PLANE ( 'NONE',  #13 ) ;
#794 = CARTESIAN_POINT ( 'NONE',  ( -0.9082151251929463376, 7.000000000000000000, 19.51542756737597983 ) ) ;
#795 = ORIENTED_EDGE ( 'NONE', *, *, #75, .F. ) ;
#796 = ORIENTED_EDGE ( 'NONE', *, *, #554, .F. ) ;
#797 = FILL_AREA_STYLE_COLOUR ( '', #252 ) ;
#798 = FACE_OUTER_BOUND ( 'NONE', #759, .T. ) ;
#799 = AXIS2_PLACEMENT_3D ( 'NONE', #405, #751, #879 ) ;
#800 = EDGE_CURVE ( 'NONE', #447, #32, #300, .T. ) ;
#801 = DIRECTION ( 'NONE',  ( -0.9975640502598241977, 0.000000000000000000, -0.06975647374412533019 ) ) ;
#802 = ORIENTED_EDGE ( 'NONE', *, *, #199, .T. ) ;
#803 = ORIENTED_EDGE ( 'NONE', *, *, #894, .F. ) ;
#804 = AXIS2_PLACEMENT_3D ( 'NONE', #733, #661, #728 ) ;
#805 = DIRECTION ( 'NONE',  ( -0.06975647374412531632, 0.000000000000000000, 0.9975640502598241977 ) ) ;
#806 = CARTESIAN_POINT ( 'NONE',  ( 1.315637480642596113, 25.00000000000000000, 7.537747631389271064 ) ) ;
#807 = VECTOR ( 'NONE', #116, 1000.000000000000114 ) ;
#808 = ORIENTED_EDGE ( 'NONE', *, *, #554, .T. ) ;
#809 = ADVANCED_FACE ( 'NONE', ( #432 ), #793, .T. ) ;
#810 = AXIS2_PLACEMENT_3D ( 'NONE', #691, #500, #497 ) ;
#811 = FACE_BOUND ( 'NONE', #467, .T. ) ;
#812 = EDGE_LOOP ( 'NONE', ( #653, #141, #377, #202 ) ) ;
#813 = ORIENTED_EDGE ( 'NONE', *, *, #24, .T. ) ;
#814 = AXIS2_PLACEMENT_3D ( 'NONE', #774, #413, #694 ) ;
#815 = PRESENTATION_STYLE_ASSIGNMENT (( #672 ) ) ;
#816 = FACE_OUTER_BOUND ( 'NONE', #608, .T. ) ;
#817 = DIRECTION ( 'NONE',  ( 0.000000000000000000, -1.356875319428793289E-16, 1.000000000000000000 ) ) ;
#818 = EDGE_CURVE ( 'NONE', #708, #392, #327, .T. ) ;
#819 = DIRECTION ( 'NONE',  ( 0.9882043861188068989, -0.000000000000000000, 0.1531407563503333902 ) ) ;
#820 = VECTOR ( 'NONE', #136, 1000.000000000000000 ) ;
#821 = UNCERTAINTY_MEASURE_WITH_UNIT (LENGTH_MEASURE( 1.000000000000000082E-05 ), #396, 'distance_accuracy_value', 'NONE');
#822 = LINE ( 'NONE', #62, #631 ) ;
#823 = AXIS2_PLACEMENT_3D ( 'NONE', #131, #874, #615 ) ;
#824 = EDGE_CURVE ( 'NONE', #257, #153, #169, .T. ) ;
#825 = DIRECTION ( 'NONE',  ( 0.000000000000000000, -1.000000000000000000, 0.000000000000000000 ) ) ;
#826 = EDGE_CURVE ( 'NONE', #440, #664, #67, .T. ) ;
#827 = FACE_OUTER_BOUND ( 'NONE', #96, .T. ) ;
#828 = CARTESIAN_POINT ( 'NONE',  ( 30.00000000000000000, 25.00000000000000000, 5.282997620183647491 ) ) ;
#829 = PLANE ( 'NONE',  #530 ) ;
#830 = VERTEX_POINT ( 'NONE', #195 ) ;
#831 = CARTESIAN_POINT ( 'NONE',  ( 18.48491588902141203, 25.00000000000000000, 14.25306851497830429 ) ) ;
#832 = ORIENTED_EDGE ( 'NONE', *, *, #642, .F. ) ;
#833 = AXIS2_PLACEMENT_3D ( 'NONE', #170, #788, #109 ) ;
#834 = ORIENTED_EDGE ( 'NONE', *, *, #475, .F. ) ;
#835 = CYLINDRICAL_SURFACE ( 'NONE', #574, 1.000000000000000888 ) ;
#836 = CIRCLE ( 'NONE', #878, 1.000000000000000888 ) ;
#837 = CARTESIAN_POINT ( 'NONE',  ( 80.11157537016046604, -25.00000000000000000, 8.625150530999139420 ) ) ;
#838 = LINE ( 'NONE', #362, #26 ) ;
#839 = LINE ( 'NONE', #216, #507 ) ;
#840 = CARTESIAN_POINT ( 'NONE',  ( 30.00000000000000000, 25.00000000000000000, 5.282997620183647491 ) ) ;
#841 = LINE ( 'NONE', #567, #890 ) ;
#842 = VECTOR ( 'NONE', #449, 1000.000000000000000 ) ;
#843 = CLOSED_SHELL ( 'NONE', ( #185, #855, #503, #522, #201, #635 ) ) ;
#844 = CARTESIAN_POINT ( 'NONE',  ( 30.00000000000000000, 3.803206299724366968, 5.282997620183650156 ) ) ;
#845 = DIRECTION ( 'NONE',  ( 0.000000000000000000, 0.000000000000000000, -1.000000000000000000 ) ) ;
#846 = ORIENTED_EDGE ( 'NONE', *, *, #9, .T. ) ;
#847 = ORIENTED_EDGE ( 'NONE', *, *, #179, .F. ) ;
#848 = PRESENTATION_STYLE_ASSIGNMENT (( #28 ) ) ;
#849 = DIRECTION ( 'NONE',  ( -1.000000000000000000, -0.000000000000000000, -0.000000000000000000 ) ) ;
#850 = EDGE_LOOP ( 'NONE', ( #539, #361, #230, #602 ) ) ;
#851 = LINE ( 'NONE', #654, #139 ) ;
#852 = CARTESIAN_POINT ( 'NONE',  ( 18.48491588902141203, 25.00000000000000000, 14.25306851497830429 ) ) ;
#853 = CARTESIAN_POINT ( 'NONE',  ( 18.10263721128483994, -7.000000000000000000, 20.84479586359470815 ) ) ;
#854 = ADVANCED_FACE ( 'NONE', ( #464 ), #753, .T. ) ;
#855 = ADVANCED_FACE ( 'NONE', ( #827 ), #331, .T. ) ;
#856 = DIRECTION ( 'NONE',  ( 0.000000000000000000, 0.000000000000000000, -1.000000000000000000 ) ) ;
#857 = DIRECTION ( 'NONE',  ( 0.05789642402720498321, 0.000000000000000000, -0.9983225951989977975 ) ) ;
#858 = VECTOR ( 'NONE', #443, 1000.000000000000000 ) ;
#859 = VERTEX_POINT ( 'NONE', #394 ) ;
#860 = ORIENTED_EDGE ( 'NONE', *, *, #454, .F. ) ;
#861 = ORIENTED_EDGE ( 'NONE', *, *, #542, .F. ) ;
#862 = DIRECTION ( 'NONE',  ( 0.9975640502598241977, 0.000000000000000000, 0.06975647374412533019 ) ) ;
#863 = ADVANCED_FACE ( 'NONE', ( #756 ), #544, .T. ) ;
#864 = CARTESIAN_POINT ( 'NONE',  ( 0.000000000000000000, -3.803206299724366968, 5.282997620183651044 ) ) ;
#865 = LINE ( 'NONE', #105, #10 ) ;
#866 = ORIENTED_EDGE ( 'NONE', *, *, #99, .T. ) ;
#867 = AXIS2_PLACEMENT_3D ( 'NONE', #324, #606, #817 ) ;
#868 = DIRECTION ( 'NONE',  ( 0.000000000000000000, 1.000000000000000000, 0.000000000000000000 ) ) ;
#869 = PRODUCT ( 'need help', 'need help', '', ( #126 ) ) ;
#870 = CARTESIAN_POINT ( 'NONE',  ( 0.000000000000000000, 25.00000000000000000, 6.527346172693820670 ) ) ;
#871 = LINE ( 'NONE', #590, #807 ) ;
#872 = EDGE_CURVE ( 'NONE', #376, #426, #822, .T. ) ;
#873 = VERTEX_POINT ( 'NONE', #604 ) ;
#874 = DIRECTION ( 'NONE',  ( -1.000000000000000000, -0.000000000000000000, -0.000000000000000000 ) ) ;
#875 = CARTESIAN_POINT ( 'NONE',  ( 0.8168927801583681925, 25.00000000000000000, 10.75610512365949845 ) ) ;
#876 = LINE ( 'NONE', #250, #22 ) ;
#877 = EDGE_LOOP ( 'NONE', ( #11, #37, #393, #512 ) ) ;
#878 = AXIS2_PLACEMENT_3D ( 'NONE', #97, #868, #107 ) ;
#879 = DIRECTION ( 'NONE',  ( 0.000000000000000000, 1.356875319428793289E-16, 1.000000000000000000 ) ) ;
#880 = CARTESIAN_POINT ( 'NONE',  ( 25.53995534919384269, -6.999999999999999112, 14.97251717714321551 ) ) ;
#881 = ORIENTED_EDGE ( 'NONE', *, *, #273, .F. ) ;
#882 = VERTEX_POINT ( 'NONE', #192 ) ;
#883 = VECTOR ( 'NONE', #390, 1000.000000000000000 ) ;
#884 = EDGE_CURVE ( 'NONE', #187, #882, #588, .T. ) ;
#885 =( NAMED_UNIT ( * ) SI_UNIT ( $, .STERADIAN. ) SOLID_ANGLE_UNIT ( ) );
#886 = VECTOR ( 'NONE', #893, 1000.000000000000227 ) ;
#887 = CARTESIAN_POINT ( 'NONE',  ( 25.53995534919384269, -3.999999999999999112, 14.97251717714321551 ) ) ;
#888 = ADVANCED_FACE ( 'NONE', ( #816 ), #665, .F. ) ;
#889 = FACE_OUTER_BOUND ( 'NONE', #48, .T. ) ;
#890 = VECTOR ( 'NONE', #351, 1000.000000000000114 ) ;
#891 = LINE ( 'NONE', #277, #374 ) ;
#892 = VECTOR ( 'NONE', #381, 1000.000000000000000 ) ;
#893 = DIRECTION ( 'NONE',  ( -0.9975640502598241977, 0.000000000000000000, -0.06975647374412533019 ) ) ;
#894 = EDGE_CURVE ( 'NONE', #392, #138, #318, .T. ) ;
ENDSEC;
END-ISO-10303-21;
