ISO-10303-21;
HEADER;
FILE_DESCRIPTION (( 'STEP AP214' ),
    '1' );
FILE_NAME ('Part5.STEP',
    '2026-06-11T03:56:11',
    ( '' ),
    ( '' ),
    'SwSTEP 2.0',
    'SolidWorks 2026',
    '' );
FILE_SCHEMA (( 'AUTOMOTIVE_DESIGN' ));
ENDSEC;

DATA;
#1 = EDGE_CURVE ( 'NONE', #820, #26, #699, .T. ) ;
#2 =( NAMED_UNIT ( * ) PLANE_ANGLE_UNIT ( ) SI_UNIT ( $, .RADIAN. ) );
#3 = VECTOR ( 'NONE', #724, 1000.000000000000114 ) ;
#4 = EDGE_LOOP ( 'NONE', ( #417, #496, #347, #555 ) ) ;
#5 = VECTOR ( 'NONE', #270, 1000.000000000000114 ) ;
#6 = LINE ( 'NONE', #436, #16 ) ;
#7 = ORIENTED_EDGE ( 'NONE', *, *, #415, .F. ) ;
#8 = EDGE_LOOP ( 'NONE', ( #165, #50, #780, #710 ) ) ;
#9 = DIRECTION ( 'NONE',  ( 1.000000000000000000, -0.000000000000000000, -0.000000000000000000 ) ) ;
#10 = CARTESIAN_POINT ( 'NONE',  ( 0.000000000000000000, 40.70908489441386990, 38.02200012851963606 ) ) ;
#11 = VERTEX_POINT ( 'NONE', #157 ) ;
#12 = ADVANCED_FACE ( 'NONE', ( #692 ), #562, .F. ) ;
#13 = DIRECTION ( 'NONE',  ( 0.000000000000000000, 1.000000000000000000, -0.000000000000000000 ) ) ;
#14 = EDGE_LOOP ( 'NONE', ( #294, #489 ) ) ;
#15 = ORIENTED_EDGE ( 'NONE', *, *, #728, .T. ) ;
#16 = VECTOR ( 'NONE', #366, 1000.000000000000000 ) ;
#17 = AXIS2_PLACEMENT_3D ( 'NONE', #201, #726, #862 ) ;
#18 = ORIENTED_EDGE ( 'NONE', *, *, #207, .F. ) ;
#19 = CARTESIAN_POINT ( 'NONE',  ( -8.000000000000000000, 40.70908489441386990, 38.02200012851963606 ) ) ;
#20 = CIRCLE ( 'NONE', #213, 2.249999999999998668 ) ;
#21 = CYLINDRICAL_SURFACE ( 'NONE', #224, 2.522345351439313710 ) ;
#22 = ORIENTED_EDGE ( 'NONE', *, *, #787, .T. ) ;
#23 = ORIENTED_EDGE ( 'NONE', *, *, #320, .F. ) ;
#24 = DIRECTION ( 'NONE',  ( 0.000000000000000000, 1.000000000000000000, 0.000000000000000000 ) ) ;
#25 = CYLINDRICAL_SURFACE ( 'NONE', #729, 2.249999999999998668 ) ;
#26 = VERTEX_POINT ( 'NONE', #501 ) ;
#27 = VERTEX_POINT ( 'NONE', #490 ) ;
#28 = DIRECTION ( 'NONE',  ( 0.000000000000000000, -1.000000000000000000, 0.000000000000000000 ) ) ;
#29 = EDGE_CURVE ( 'NONE', #169, #556, #695, .T. ) ;
#30 = ADVANCED_BREP_SHAPE_REPRESENTATION ( 'Part5', ( #534, #154 ), #627 ) ;
#31 = PLANE ( 'NONE',  #82 ) ;
#32 = CARTESIAN_POINT ( 'NONE',  ( 0.000000000000000000, 26.00000000000000000, 13.02913325056207050 ) ) ;
#33 = FACE_BOUND ( 'NONE', #14, .T. ) ;
#34 = ORIENTED_EDGE ( 'NONE', *, *, #839, .T. ) ;
#35 = ADVANCED_FACE ( 'NONE', ( #372 ), #618, .T. ) ;
#36 = VECTOR ( 'NONE', #824, 1000.000000000000000 ) ;
#37 = VECTOR ( 'NONE', #396, 1000.000000000000114 ) ;
#38 = AXIS2_PLACEMENT_3D ( 'NONE', #657, #531, #116 ) ;
#39 = LINE ( 'NONE', #510, #528 ) ;
#40 = PLANE ( 'NONE',  #334 ) ;
#41 = ORIENTED_EDGE ( 'NONE', *, *, #43, .F. ) ;
#42 = CARTESIAN_POINT ( 'NONE',  ( -8.000000000000000000, 34.00000000000000000, 20.52913325056207228 ) ) ;
#43 = EDGE_CURVE ( 'NONE', #679, #27, #352, .T. ) ;
#44 = DIRECTION ( 'NONE',  ( 0.000000000000000000, 0.000000000000000000, -1.000000000000000000 ) ) ;
#45 = DIRECTION ( 'NONE',  ( 0.000000000000000000, 1.000000000000000000, 0.000000000000000000 ) ) ;
#46 = CARTESIAN_POINT ( 'NONE',  ( 3.000000000000000000, -2.500000000000000444, 48.87211652107144033 ) ) ;
#47 = CARTESIAN_POINT ( 'NONE',  ( -8.000000000000000000, 40.70908489441386990, 43.02200012851963606 ) ) ;
#48 = DIRECTION ( 'NONE',  ( -1.000000000000000000, 0.000000000000000000, 0.000000000000000000 ) ) ;
#49 = EDGE_CURVE ( 'NONE', #300, #426, #234, .T. ) ;
#50 = ORIENTED_EDGE ( 'NONE', *, *, #342, .T. ) ;
#51 = LINE ( 'NONE', #717, #511 ) ;
#52 = CARTESIAN_POINT ( 'NONE',  ( 0.000000000000000000, 25.99999999999999645, 20.52913325056207228 ) ) ;
#53 = CARTESIAN_POINT ( 'NONE',  ( -21.00000000000000711, 0.000000000000000000, 0.000000000000000000 ) ) ;
#54 = AXIS2_PLACEMENT_3D ( 'NONE', #249, #519, #778 ) ;
#55 = VECTOR ( 'NONE', #317, 1000.000000000000000 ) ;
#56 = LINE ( 'NONE', #518, #461 ) ;
#57 = DIRECTION ( 'NONE',  ( 0.000000000000000000, -1.000000000000000000, 0.000000000000000000 ) ) ;
#58 = DIRECTION ( 'NONE',  ( 0.000000000000000000, 0.000000000000000000, 1.000000000000000000 ) ) ;
#59 = EDGE_CURVE ( 'NONE', #357, #655, #756, .T. ) ;
#60 = VERTEX_POINT ( 'NONE', #144 ) ;
#61 = DIRECTION ( 'NONE',  ( 0.000000000000000000, -1.000000000000000000, 0.000000000000000000 ) ) ;
#62 = EDGE_CURVE ( 'NONE', #288, #495, #161, .T. ) ;
#63 = VECTOR ( 'NONE', #462, 1000.000000000000000 ) ;
#64 = DIRECTION ( 'NONE',  ( 1.000000000000000000, -0.000000000000000000, -0.000000000000000000 ) ) ;
#65 = AXIS2_PLACEMENT_3D ( 'NONE', #653, #455, #713 ) ;
#66 = AXIS2_PLACEMENT_3D ( 'NONE', #448, #654, #377 ) ;
#67 = SURFACE_STYLE_FILL_AREA ( #131 ) ;
#68 = EDGE_CURVE ( 'NONE', #484, #495, #356, .T. ) ;
#69 = CARTESIAN_POINT ( 'NONE',  ( 3.000000000000000000, 26.00000000000000000, 32.52913325056207583 ) ) ;
#70 = ORIENTED_EDGE ( 'NONE', *, *, #1, .F. ) ;
#71 = EDGE_LOOP ( 'NONE', ( #443, #694, #163, #565 ) ) ;
#72 = PRESENTATION_STYLE_ASSIGNMENT (( #138 ) ) ;
#73 = FACE_OUTER_BOUND ( 'NONE', #226, .T. ) ;
#74 = ORIENTED_EDGE ( 'NONE', *, *, #589, .T. ) ;
#75 = CARTESIAN_POINT ( 'NONE',  ( -21.00000000000000711, 0.000000000000000000, 0.000000000000000000 ) ) ;
#76 = DIRECTION ( 'NONE',  ( -1.000000000000000000, 0.000000000000000000, 0.000000000000000000 ) ) ;
#77 = ORIENTED_EDGE ( 'NONE', *, *, #792, .T. ) ;
#78 = FACE_BOUND ( 'NONE', #810, .T. ) ;
#79 = ORIENTED_EDGE ( 'NONE', *, *, #379, .F. ) ;
#80 = ORIENTED_EDGE ( 'NONE', *, *, #792, .F. ) ;
#81 = SURFACE_SIDE_STYLE ('',( #67 ) ) ;
#82 = AXIS2_PLACEMENT_3D ( 'NONE', #791, #57, #576 ) ;
#83 = CARTESIAN_POINT ( 'NONE',  ( -21.00000000000000711, -2.500000000000000000, 61.50000000000000000 ) ) ;
#84 = EDGE_LOOP ( 'NONE', ( #419, #323, #434, #645 ) ) ;
#85 = VERTEX_POINT ( 'NONE', #421 ) ;
#86 = EDGE_CURVE ( 'NONE', #655, #522, #6, .T. ) ;
#87 = CARTESIAN_POINT ( 'NONE',  ( -21.00000000000000711, 0.000000000000000000, 0.000000000000000000 ) ) ;
#88 = ORIENTED_EDGE ( 'NONE', *, *, #497, .T. ) ;
#89 = EDGE_LOOP ( 'NONE', ( #238, #835, #815, #758 ) ) ;
#90 = EDGE_CURVE ( 'NONE', #27, #26, #287, .T. ) ;
#91 = DIRECTION ( 'NONE',  ( 0.000000000000000000, 0.000000000000000000, -1.000000000000000000 ) ) ;
#92 = DIRECTION ( 'NONE',  ( 0.000000000000000000, 0.000000000000000000, -1.000000000000000000 ) ) ;
#93 = VERTEX_POINT ( 'NONE', #553 ) ;
#94 = ORIENTED_EDGE ( 'NONE', *, *, #132, .F. ) ;
#95 = AXIS2_PLACEMENT_3D ( 'NONE', #635, #28, #164 ) ;
#96 = AXIS2_PLACEMENT_3D ( 'NONE', #711, #597, #458 ) ;
#97 = CARTESIAN_POINT ( 'NONE',  ( 0.000000000000000000, 26.00000000000000000, 30.27913325056207228 ) ) ;
#98 = CARTESIAN_POINT ( 'NONE',  ( -21.00000000000000711, 54.50000000000000000, -2.500000000000000000 ) ) ;
#99 = ADVANCED_FACE ( 'NONE', ( #814 ), #21, .F. ) ;
#100 = EDGE_LOOP ( 'NONE', ( #229, #283, #253, #613 ) ) ;
#101 = ORIENTED_EDGE ( 'NONE', *, *, #474, .F. ) ;
#102 = LINE ( 'NONE', #631, #318 ) ;
#103 = DIRECTION ( 'NONE',  ( 1.000000000000000000, -0.000000000000000000, -0.000000000000000000 ) ) ;
#104 = LINE ( 'NONE', #789, #114 ) ;
#105 = ORIENTED_EDGE ( 'NONE', *, *, #233, .F. ) ;
#106 = EDGE_CURVE ( 'NONE', #457, #763, #401, .T. ) ;
#107 = DIRECTION ( 'NONE',  ( 0.000000000000000000, 0.000000000000000000, -1.000000000000000000 ) ) ;
#108 = DIRECTION ( 'NONE',  ( 1.000000000000000000, -0.000000000000000000, -0.000000000000000000 ) ) ;
#109 = CARTESIAN_POINT ( 'NONE',  ( 0.000000000000000000, 34.00000000000000000, 20.52913325056207228 ) ) ;
#110 = EDGE_LOOP ( 'NONE', ( #494, #771, #88, #353 ) ) ;
#111 = CYLINDRICAL_SURFACE ( 'NONE', #412, 2.249999999999998668 ) ;
#112 = CLOSED_SHELL ( 'NONE', ( #286, #524, #570, #223, #174, #626, #750, #546, #355, #160, #557, #859, #691, #219, #775, #99, #680, #291, #12, #35, #735, #449, #759, #393, #719, #665 ) ) ;
#113 = CIRCLE ( 'NONE', #333, 2.250000000000001776 ) ;
#114 = VECTOR ( 'NONE', #246, 1000.000000000000000 ) ;
#115 = PLANE ( 'NONE',  #623 ) ;
#116 = DIRECTION ( 'NONE',  ( 0.000000000000000000, 0.000000000000000000, -1.000000000000000000 ) ) ;
#117 = ORIENTED_EDGE ( 'NONE', *, *, #129, .F. ) ;
#118 = CARTESIAN_POINT ( 'NONE',  ( -18.39619304881972184, 0.000000000000000000, 59.00000000000000000 ) ) ;
#119 = CYLINDRICAL_SURFACE ( 'NONE', #351, 2.249999999999998668 ) ;
#120 = DIRECTION ( 'NONE',  ( 0.000000000000000000, 0.000000000000000000, 1.000000000000000000 ) ) ;
#121 = CYLINDRICAL_SURFACE ( 'NONE', #823, 2.249999999999998668 ) ;
#122 = CARTESIAN_POINT ( 'NONE',  ( 0.000000000000000000, 17.99999999999999645, 22.77913325056207228 ) ) ;
#123 = LINE ( 'NONE', #53, #698 ) ;
#124 = CARTESIAN_POINT ( 'NONE',  ( 3.000000000000000000, 34.00000000000000000, 20.52913325056207228 ) ) ;
#125 = DIRECTION ( 'NONE',  ( 1.000000000000000000, -0.000000000000000000, -0.000000000000000000 ) ) ;
#126 = VECTOR ( 'NONE', #465, 1000.000000000000000 ) ;
#127 = AXIS2_PLACEMENT_3D ( 'NONE', #278, #422, #805 ) ;
#128 = CYLINDRICAL_SURFACE ( 'NONE', #481, 2.249999999999998668 ) ;
#129 = EDGE_CURVE ( 'NONE', #236, #495, #387, .T. ) ;
#130 = DIRECTION ( 'NONE',  ( -0.000000000000000000, 1.000000000000000000, -0.000000000000000000 ) ) ;
#131 = FILL_AREA_STYLE ('',( #681 ) ) ;
#132 = EDGE_CURVE ( 'NONE', #85, #679, #381, .T. ) ;
#133 = FACE_OUTER_BOUND ( 'NONE', #800, .T. ) ;
#134 = DIRECTION ( 'NONE',  ( 0.000000000000000000, -1.000000000000000000, 0.000000000000000000 ) ) ;
#135 = CIRCLE ( 'NONE', #471, 2.249999999999998668 ) ;
#136 = ORIENTED_EDGE ( 'NONE', *, *, #479, .F. ) ;
#137 = AXIS2_PLACEMENT_3D ( 'NONE', #109, #48, #120 ) ;
#138 = SURFACE_STYLE_USAGE ( .BOTH. , #81 ) ;
#139 = EDGE_CURVE ( 'NONE', #689, #300, #782, .T. ) ;
#140 = DIRECTION ( 'NONE',  ( 0.000000000000000000, 0.000000000000000000, -1.000000000000000000 ) ) ;
#141 = CARTESIAN_POINT ( 'NONE',  ( -21.00000000000000711, 52.00000000000000000, 0.000000000000000000 ) ) ;
#142 = VERTEX_POINT ( 'NONE', #191 ) ;
#143 = DIRECTION ( 'NONE',  ( 1.000000000000000000, -0.000000000000000000, -0.000000000000000000 ) ) ;
#144 = CARTESIAN_POINT ( 'NONE',  ( 3.000000000000000000, 34.00000000000000000, 23.05147860200138510 ) ) ;
#145 = EDGE_LOOP ( 'NONE', ( #620, #77, #433, #151 ) ) ;
#146 = ORIENTED_EDGE ( 'NONE', *, *, #106, .F. ) ;
#147 = DIRECTION ( 'NONE',  ( 1.000000000000000000, -0.000000000000000000, -0.000000000000000000 ) ) ;
#148 = DIRECTION ( 'NONE',  ( 1.000000000000000000, 0.000000000000000000, 0.000000000000000000 ) ) ;
#149 = VECTOR ( 'NONE', #625, 1000.000000000000000 ) ;
#150 = ORIENTED_EDGE ( 'NONE', *, *, #575, .T. ) ;
#151 = ORIENTED_EDGE ( 'NONE', *, *, #504, .F. ) ;
#152 = EDGE_CURVE ( 'NONE', #231, #60, #397, .T. ) ;
#153 = AXIS2_PLACEMENT_3D ( 'NONE', #793, #335, #140 ) ;
#154 = AXIS2_PLACEMENT_3D ( 'NONE', #870, #210, #664 ) ;
#155 = ORIENTED_EDGE ( 'NONE', *, *, #479, .T. ) ;
#156 = CARTESIAN_POINT ( 'NONE',  ( -8.000000000000000000, 25.99999999999999645, 16.52913325056207228 ) ) ;
#157 = CARTESIAN_POINT ( 'NONE',  ( 3.000000000000000000, 40.70908489441386990, 43.02200012851963606 ) ) ;
#158 = VERTEX_POINT ( 'NONE', #32 ) ;
#159 = ORIENTED_EDGE ( 'NONE', *, *, #251, .F. ) ;
#160 = ADVANCED_FACE ( 'NONE', ( #530 ), #115, .F. ) ;
#161 = LINE ( 'NONE', #611, #409 ) ;
#162 = VERTEX_POINT ( 'NONE', #122 ) ;
#163 = ORIENTED_EDGE ( 'NONE', *, *, #68, .F. ) ;
#164 = DIRECTION ( 'NONE',  ( 0.000000000000000000, -0.000000000000000000, -1.000000000000000000 ) ) ;
#165 = ORIENTED_EDGE ( 'NONE', *, *, #132, .T. ) ;
#166 = CARTESIAN_POINT ( 'NONE',  ( 3.000000000000000000, 26.00000000000000000, 10.77913325056207228 ) ) ;
#167 = EDGE_CURVE ( 'NONE', #305, #484, #262, .T. ) ;
#168 = ORIENTED_EDGE ( 'NONE', *, *, #49, .F. ) ;
#169 = VERTEX_POINT ( 'NONE', #325 ) ;
#170 = ORIENTED_EDGE ( 'NONE', *, *, #509, .F. ) ;
#171 = AXIS2_PLACEMENT_3D ( 'NONE', #865, #595, #400 ) ;
#172 = VECTOR ( 'NONE', #64, 1000.000000000000000 ) ;
#173 = LINE ( 'NONE', #446, #715 ) ;
#174 = ADVANCED_FACE ( 'NONE', ( #641 ), #25, .F. ) ;
#175 = CARTESIAN_POINT ( 'NONE',  ( -21.00000000000000711, -2.500000000000000000, -2.500000000000000000 ) ) ;
#176 = VERTEX_POINT ( 'NONE', #572 ) ;
#177 = CARTESIAN_POINT ( 'NONE',  ( -21.00000000000000711, 52.00000000000000000, 0.000000000000000000 ) ) ;
#178 = FACE_OUTER_BOUND ( 'NONE', #110, .T. ) ;
#179 = FACE_BOUND ( 'NONE', #751, .T. ) ;
#180 = ORIENTED_EDGE ( 'NONE', *, *, #648, .T. ) ;
#181 = CARTESIAN_POINT ( 'NONE',  ( 20.32400514005063741, 0.000000000000000000, 38.62691037458017718 ) ) ;
#182 = CARTESIAN_POINT ( 'NONE',  ( 0.000000000000000000, 34.00000000000000000, 23.05147860200138510 ) ) ;
#183 = DIRECTION ( 'NONE',  ( 1.000000000000000000, -0.000000000000000000, -0.000000000000000000 ) ) ;
#184 = ORIENTED_EDGE ( 'NONE', *, *, #187, .T. ) ;
#185 = EDGE_LOOP ( 'NONE', ( #736, #437 ) ) ;
#186 = CARTESIAN_POINT ( 'NONE',  ( 0.000000000000000000, 17.99999999999999645, 20.52913325056207228 ) ) ;
#187 = EDGE_CURVE ( 'NONE', #162, #176, #258, .T. ) ;
#188 = VECTOR ( 'NONE', #720, 1000.000000000000000 ) ;
#189 =( GEOMETRIC_REPRESENTATION_CONTEXT ( 3 ) GLOBAL_UNCERTAINTY_ASSIGNED_CONTEXT ( ( #389 ) ) GLOBAL_UNIT_ASSIGNED_CONTEXT ( ( #668, #2, #690 ) ) REPRESENTATION_CONTEXT ( 'NONE', 'WORKASPACE' ) );
#190 = CIRCLE ( 'NONE', #472, 2.249999999999998668 ) ;
#191 = CARTESIAN_POINT ( 'NONE',  ( 3.000000000000000000, 34.00000000000000000, 18.00678789912275946 ) ) ;
#192 = DIRECTION ( 'NONE',  ( 1.000000000000000000, 0.000000000000000000, 0.000000000000000000 ) ) ;
#193 = FACE_OUTER_BOUND ( 'NONE', #487, .T. ) ;
#194 = EDGE_CURVE ( 'NONE', #176, #545, #525, .T. ) ;
#195 = CARTESIAN_POINT ( 'NONE',  ( -8.000000000000000000, 34.00000000000000000, 23.05147860200138510 ) ) ;
#196 = CARTESIAN_POINT ( 'NONE',  ( -21.00000000000000711, 54.50000000000000000, -2.500000000000000000 ) ) ;
#197 = CARTESIAN_POINT ( 'NONE',  ( 0.000000000000000000, 40.70908489441386990, 38.02200012851963606 ) ) ;
#198 = DIRECTION ( 'NONE',  ( 1.000000000000000000, 0.000000000000000000, 0.000000000000000000 ) ) ;
#199 = EDGE_CURVE ( 'NONE', #655, #639, #39, .T. ) ;
#200 = CARTESIAN_POINT ( 'NONE',  ( -21.00000000000000711, 54.50000000000000000, 61.50000000000000000 ) ) ;
#201 = CARTESIAN_POINT ( 'NONE',  ( -21.00000000000000711, 0.000000000000000000, 0.000000000000000000 ) ) ;
#202 = LINE ( 'NONE', #702, #548 ) ;
#203 = CIRCLE ( 'NONE', #427, 4.999999999999997335 ) ;
#204 = EDGE_CURVE ( 'NONE', #93, #11, #643, .T. ) ;
#205 = DIRECTION ( 'NONE',  ( 1.000000000000000000, 0.000000000000000000, 0.000000000000000000 ) ) ;
#206 = LINE ( 'NONE', #478, #172 ) ;
#207 = EDGE_CURVE ( 'NONE', #426, #27, #773, .T. ) ;
#208 = FACE_BOUND ( 'NONE', #829, .T. ) ;
#209 = PRODUCT_DEFINITION ( 'UNKNOWN', '', #284, #856 ) ;
#210 = DIRECTION ( 'NONE',  ( 0.000000000000000000, 0.000000000000000000, 1.000000000000000000 ) ) ;
#211 = AXIS2_PLACEMENT_3D ( 'NONE', #754, #292, #744 ) ;
#212 = CARTESIAN_POINT ( 'NONE',  ( -21.46563972187664149, 54.50000000000000000, 60.61502562217280143 ) ) ;
#213 = AXIS2_PLACEMENT_3D ( 'NONE', #186, #384, #593 ) ;
#214 = ORIENTED_EDGE ( 'NONE', *, *, #509, .T. ) ;
#215 = DIRECTION ( 'NONE',  ( 0.000000000000000000, 0.000000000000000000, -1.000000000000000000 ) ) ;
#216 = EDGE_LOOP ( 'NONE', ( #290, #806, #170, #168 ) ) ;
#217 = FACE_OUTER_BOUND ( 'NONE', #296, .T. ) ;
#218 = LINE ( 'NONE', #156, #480 ) ;
#219 = ADVANCED_FACE ( 'NONE', ( #178 ), #119, .F. ) ;
#220 = CARTESIAN_POINT ( 'NONE',  ( -8.000000000000000000, 34.00000000000000000, 20.52913325056207228 ) ) ;
#221 = ORIENTED_EDGE ( 'NONE', *, *, #652, .T. ) ;
#222 = DIRECTION ( 'NONE',  ( -1.000000000000000000, 0.000000000000000000, -0.000000000000000000 ) ) ;
#223 = ADVANCED_FACE ( 'NONE', ( #583 ), #846, .F. ) ;
#224 = AXIS2_PLACEMENT_3D ( 'NONE', #220, #683, #505 ) ;
#225 = ORIENTED_EDGE ( 'NONE', *, *, #59, .T. ) ;
#226 = EDGE_LOOP ( 'NONE', ( #354, #18, #214, #429 ) ) ;
#227 = MECHANICAL_DESIGN_GEOMETRIC_PRESENTATION_REPRESENTATION (  '', ( #840 ), #189 ) ;
#228 = AXIS2_PLACEMENT_3D ( 'NONE', #844, #651, #586 ) ;
#229 = ORIENTED_EDGE ( 'NONE', *, *, #237, .F. ) ;
#230 = ORIENTED_EDGE ( 'NONE', *, *, #827, .T. ) ;
#231 = VERTEX_POINT ( 'NONE', #182 ) ;
#232 = FACE_OUTER_BOUND ( 'NONE', #543, .T. ) ;
#233 = EDGE_CURVE ( 'NONE', #231, #619, #644, .T. ) ;
#234 = LINE ( 'NONE', #83, #282 ) ;
#235 = ORIENTED_EDGE ( 'NONE', *, *, #648, .F. ) ;
#236 = VERTEX_POINT ( 'NONE', #587 ) ;
#237 = EDGE_CURVE ( 'NONE', #763, #11, #850, .T. ) ;
#238 = ORIENTED_EDGE ( 'NONE', *, *, #152, .F. ) ;
#239 = DIRECTION ( 'NONE',  ( 0.000000000000000000, 0.000000000000000000, 1.000000000000000000 ) ) ;
#240 = CARTESIAN_POINT ( 'NONE',  ( -8.000000000000000000, 17.99999999999999645, 18.27913325056207583 ) ) ;
#241 = VERTEX_POINT ( 'NONE', #734 ) ;
#242 = ORIENTED_EDGE ( 'NONE', *, *, #204, .F. ) ;
#243 = AXIS2_PLACEMENT_3D ( 'NONE', #477, #205, #410 ) ;
#244 = CARTESIAN_POINT ( 'NONE',  ( 20.32400514005063741, 0.000000000000000000, 38.62691037458017718 ) ) ;
#245 = DIRECTION ( 'NONE',  ( 0.000000000000000000, -1.000000000000000000, 0.000000000000000000 ) ) ;
#246 = DIRECTION ( 'NONE',  ( 1.000000000000000000, -0.000000000000000000, -0.000000000000000000 ) ) ;
#247 = EDGE_LOOP ( 'NONE', ( #677, #159 ) ) ;
#248 = PLANE ( 'NONE',  #17 ) ;
#249 = CARTESIAN_POINT ( 'NONE',  ( -8.000000000000000000, 25.99999999999999645, 20.52913325056207228 ) ) ;
#250 = CYLINDRICAL_SURFACE ( 'NONE', #445, 4.000000000000000000 ) ;
#251 = EDGE_CURVE ( 'NONE', #241, #551, #669, .T. ) ;
#252 = EDGE_LOOP ( 'NONE', ( #825, #767, #430, #74 ) ) ;
#253 = ORIENTED_EDGE ( 'NONE', *, *, #745, .T. ) ;
#254 = CARTESIAN_POINT ( 'NONE',  ( 3.000000000000000000, 17.99999999999999645, 22.77913325056207228 ) ) ;
#255 = CARTESIAN_POINT ( 'NONE',  ( -21.00000000000000711, 52.00000000000000000, 59.00000000000000000 ) ) ;
#256 = FACE_OUTER_BOUND ( 'NONE', #71, .T. ) ;
#257 = CARTESIAN_POINT ( 'NONE',  ( -21.00000000000000711, 54.50000000000000000, 60.37002378254703672 ) ) ;
#258 = CIRCLE ( 'NONE', #299, 2.249999999999998668 ) ;
#259 = VECTOR ( 'NONE', #245, 1000.000000000000000 ) ;
#260 = AXIS2_PLACEMENT_3D ( 'NONE', #52, #338, #601 ) ;
#261 = VECTOR ( 'NONE', #327, 1000.000000000000000 ) ;
#262 = LINE ( 'NONE', #703, #126 ) ;
#263 = CARTESIAN_POINT ( 'NONE',  ( -18.39619304881972184, 52.00000000000000000, 59.00000000000000000 ) ) ;
#264 = CARTESIAN_POINT ( 'NONE',  ( 0.000000000000000000, 26.00000000000000000, 8.529133250562074053 ) ) ;
#265 = DIRECTION ( 'NONE',  ( -1.000000000000000000, 0.000000000000000000, 0.000000000000000000 ) ) ;
#266 = EDGE_CURVE ( 'NONE', #142, #60, #529, .T. ) ;
#267 = DIRECTION ( 'NONE',  ( 0.000000000000000000, 1.000000000000000000, -0.000000000000000000 ) ) ;
#268 = UNCERTAINTY_MEASURE_WITH_UNIT (LENGTH_MEASURE( 1.000000000000000082E-05 ), #339, 'distance_accuracy_value', 'NONE');
#269 = CARTESIAN_POINT ( 'NONE',  ( 0.000000000000000000, 34.00000000000000000, 18.00678789912275946 ) ) ;
#270 = DIRECTION ( 'NONE',  ( -0.8849743778272055605, 0.000000000000000000, 0.4656397218766354928 ) ) ;
#271 = PLANE ( 'NONE',  #807 ) ;
#272 = AXIS2_PLACEMENT_3D ( 'NONE', #321, #770, #515 ) ;
#273 = VECTOR ( 'NONE', #130, 1000.000000000000000 ) ;
#274 = PRODUCT_CONTEXT ( 'NONE', #440, 'mechanical' ) ;
#275 = CARTESIAN_POINT ( 'NONE',  ( -21.46563972187664149, 54.50000000000000000, 60.61502562217280143 ) ) ;
#276 = ORIENTED_EDGE ( 'NONE', *, *, #237, .T. ) ;
#277 = CARTESIAN_POINT ( 'NONE',  ( -21.00000000000000711, 54.50000000000000000, 61.50000000000000000 ) ) ;
#278 = CARTESIAN_POINT ( 'NONE',  ( -21.46563972187664149, 54.50000000000000000, 60.61502562217280143 ) ) ;
#279 = ORIENTED_EDGE ( 'NONE', *, *, #853, .F. ) ;
#280 = LINE ( 'NONE', #552, #442 ) ;
#281 = FACE_OUTER_BOUND ( 'NONE', #100, .T. ) ;
#282 = VECTOR ( 'NONE', #615, 1000.000000000000000 ) ;
#283 = ORIENTED_EDGE ( 'NONE', *, *, #599, .T. ) ;
#284 = PRODUCT_DEFINITION_FORMATION_WITH_SPECIFIED_SOURCE ( 'ANY', '', #630, .NOT_KNOWN. ) ;
#285 = EDGE_LOOP ( 'NONE', ( #94, #517, #567, #295, #687, #41 ) ) ;
#286 = ADVANCED_FACE ( 'NONE', ( #133 ), #485, .F. ) ;
#287 = LINE ( 'NONE', #558, #149 ) ;
#288 = VERTEX_POINT ( 'NONE', #500 ) ;
#289 = ORIENTED_EDGE ( 'NONE', *, *, #86, .T. ) ;
#290 = ORIENTED_EDGE ( 'NONE', *, *, #139, .F. ) ;
#291 = ADVANCED_FACE ( 'NONE', ( #281 ), #813, .F. ) ;
#292 = DIRECTION ( 'NONE',  ( 1.000000000000000000, -0.000000000000000000, -0.000000000000000000 ) ) ;
#293 = DIRECTION ( 'NONE',  ( -1.000000000000000000, 0.000000000000000000, 0.000000000000000000 ) ) ;
#294 = ORIENTED_EDGE ( 'NONE', *, *, #659, .F. ) ;
#295 = ORIENTED_EDGE ( 'NONE', *, *, #49, .T. ) ;
#296 = EDGE_LOOP ( 'NONE', ( #221, #678, #752, #672 ) ) ;
#297 = CARTESIAN_POINT ( 'NONE',  ( 0.000000000000000000, 52.00000000000000000, 0.000000000000000000 ) ) ;
#298 = EDGE_CURVE ( 'NONE', #828, #169, #218, .T. ) ;
#299 = AXIS2_PLACEMENT_3D ( 'NONE', #708, #314, #834 ) ;
#300 = VERTEX_POINT ( 'NONE', #365 ) ;
#301 = EDGE_LOOP ( 'NONE', ( #146, #438 ) ) ;
#302 = CIRCLE ( 'NONE', #731, 2.249999999999998668 ) ;
#303 = VECTOR ( 'NONE', #134, 1000.000000000000000 ) ;
#304 = DIRECTION ( 'NONE',  ( 1.000000000000000000, 0.000000000000000000, 0.000000000000000000 ) ) ;
#305 = VERTEX_POINT ( 'NONE', #420 ) ;
#306 = ORIENTED_EDGE ( 'NONE', *, *, #406, .F. ) ;
#307 = EDGE_CURVE ( 'NONE', #158, #559, #594, .T. ) ;
#308 = CARTESIAN_POINT ( 'NONE',  ( 3.000000000000000000, 25.99999999999999645, 24.52913325056207228 ) ) ;
#309 = LINE ( 'NONE', #636, #273 ) ;
#310 = CARTESIAN_POINT ( 'NONE',  ( 3.877232502426986915, 52.00000000000000000, 47.28057406092776205 ) ) ;
#311 = ORIENTED_EDGE ( 'NONE', *, *, #62, .F. ) ;
#312 = EDGE_LOOP ( 'NONE', ( #832, #235, #70, #688, #819, #585 ) ) ;
#313 = FACE_OUTER_BOUND ( 'NONE', #285, .T. ) ;
#314 = DIRECTION ( 'NONE',  ( -1.000000000000000000, 0.000000000000000000, 0.000000000000000000 ) ) ;
#315 = FACE_BOUND ( 'NONE', #368, .T. ) ;
#316 = ORIENTED_EDGE ( 'NONE', *, *, #129, .T. ) ;
#317 = DIRECTION ( 'NONE',  ( 0.000000000000000000, 0.000000000000000000, 1.000000000000000000 ) ) ;
#318 = VECTOR ( 'NONE', #332, 1000.000000000000000 ) ;
#319 = AXIS2_PLACEMENT_3D ( 'NONE', #851, #192, #596 ) ;
#320 = EDGE_CURVE ( 'NONE', #836, #444, #113, .T. ) ;
#321 = CARTESIAN_POINT ( 'NONE',  ( 3.000000000000000000, 40.70908489441386990, 38.02200012851963606 ) ) ;
#322 = CARTESIAN_POINT ( 'NONE',  ( 0.000000000000000000, 0.000000000000000000, 0.000000000000000000 ) ) ;
#323 = ORIENTED_EDGE ( 'NONE', *, *, #474, .T. ) ;
#324 = CARTESIAN_POINT ( 'NONE',  ( -21.00000000000000711, 54.50000000000000000, -2.500000000000000000 ) ) ;
#325 = CARTESIAN_POINT ( 'NONE',  ( 3.000000000000000000, 25.99999999999999645, 16.52913325056207228 ) ) ;
#326 = DIRECTION ( 'NONE',  ( -0.000000000000000000, -0.000000000000000000, -1.000000000000000000 ) ) ;
#327 = DIRECTION ( 'NONE',  ( 0.000000000000000000, 0.000000000000000000, 1.000000000000000000 ) ) ;
#328 = DIRECTION ( 'NONE',  ( 1.000000000000000000, -0.000000000000000000, -0.000000000000000000 ) ) ;
#329 = LINE ( 'NONE', #336, #563 ) ;
#330 = CARTESIAN_POINT ( 'NONE',  ( -8.000000000000000000, 26.00000000000000000, 10.77913325056207228 ) ) ;
#331 = EDGE_CURVE ( 'NONE', #444, #836, #561, .T. ) ;
#332 = DIRECTION ( 'NONE',  ( 1.000000000000000000, 0.000000000000000000, 0.000000000000000000 ) ) ;
#333 = AXIS2_PLACEMENT_3D ( 'NONE', #97, #451, #733 ) ;
#334 = AXIS2_PLACEMENT_3D ( 'NONE', #322, #466, #584 ) ;
#335 = DIRECTION ( 'NONE',  ( 1.000000000000000000, 0.000000000000000000, 0.000000000000000000 ) ) ;
#336 = CARTESIAN_POINT ( 'NONE',  ( -8.000000000000000000, 26.00000000000000000, 13.02913325056207050 ) ) ;
#337 = DIRECTION ( 'NONE',  ( 1.000000000000000000, -0.000000000000000000, -0.000000000000000000 ) ) ;
#338 = DIRECTION ( 'NONE',  ( -1.000000000000000000, 0.000000000000000000, 0.000000000000000000 ) ) ;
#339 =( LENGTH_UNIT ( ) NAMED_UNIT ( * ) SI_UNIT ( .MILLI., .METRE. ) );
#340 = CARTESIAN_POINT ( 'NONE',  ( -21.46563972187664149, 54.50000000000000000, 60.61502562217280143 ) ) ;
#341 = PLANE ( 'NONE',  #127 ) ;
#342 = EDGE_CURVE ( 'NONE', #679, #700, #309, .T. ) ;
#343 = FACE_BOUND ( 'NONE', #367, .T. ) ;
#344 = EDGE_CURVE ( 'NONE', #828, #491, #580, .T. ) ;
#345 = EDGE_LOOP ( 'NONE', ( #15, #225, #289, #230 ) ) ;
#346 = CARTESIAN_POINT ( 'NONE',  ( -21.00000000000000711, -2.500000000000000000, -2.500000000000000000 ) ) ;
#347 = ORIENTED_EDGE ( 'NONE', *, *, #435, .F. ) ;
#348 = EDGE_CURVE ( 'NONE', #551, #241, #302, .T. ) ;
#349 = LINE ( 'NONE', #408, #682 ) ;
#350 = AXIS2_PLACEMENT_3D ( 'NONE', #749, #148, #566 ) ;
#351 = AXIS2_PLACEMENT_3D ( 'NONE', #447, #108, #44 ) ;
#352 = LINE ( 'NONE', #746, #797 ) ;
#353 = ORIENTED_EDGE ( 'NONE', *, *, #659, .T. ) ;
#354 = ORIENTED_EDGE ( 'NONE', *, *, #90, .F. ) ;
#355 = ADVANCED_FACE ( 'NONE', ( #640 ), #271, .F. ) ;
#356 = LINE ( 'NONE', #297, #36 ) ;
#357 = VERTEX_POINT ( 'NONE', #860 ) ;
#358 = ORIENTED_EDGE ( 'NONE', *, *, #307, .F. ) ;
#359 = EDGE_CURVE ( 'NONE', #559, #158, #135, .T. ) ;
#360 = VERTEX_POINT ( 'NONE', #340 ) ;
#361 = ORIENTED_EDGE ( 'NONE', *, *, #712, .F. ) ;
#362 = ORIENTED_EDGE ( 'NONE', *, *, #809, .F. ) ;
#363 = LINE ( 'NONE', #431, #784 ) ;
#364 = EDGE_LOOP ( 'NONE', ( #506, #378, #706, #373 ) ) ;
#365 = CARTESIAN_POINT ( 'NONE',  ( -21.00000000000001421, -2.500000000000000000, 60.37002378254702251 ) ) ;
#366 = DIRECTION ( 'NONE',  ( 0.000000000000000000, 0.000000000000000000, -1.000000000000000000 ) ) ;
#367 = EDGE_LOOP ( 'NONE', ( #581, #105 ) ) ;
#368 = EDGE_LOOP ( 'NONE', ( #693, #279 ) ) ;
#369 = AXIS2_PLACEMENT_3D ( 'NONE', #19, #9, #91 ) ;
#370 = VECTOR ( 'NONE', #326, 1000.000000000000000 ) ;
#371 = DIRECTION ( 'NONE',  ( 0.8849743778272055605, -1.599151905057106074E-17, -0.4656397218766354373 ) ) ;
#372 = FACE_OUTER_BOUND ( 'NONE', #312, .T. ) ;
#373 = ORIENTED_EDGE ( 'NONE', *, *, #538, .T. ) ;
#374 = ORIENTED_EDGE ( 'NONE', *, *, #68, .T. ) ;
#375 = CARTESIAN_POINT ( 'NONE',  ( 0.000000000000000000, 26.00000000000000000, 32.52913325056207583 ) ) ;
#376 = DIRECTION ( 'NONE',  ( 1.000000000000000000, -0.000000000000000000, -0.000000000000000000 ) ) ;
#377 = DIRECTION ( 'NONE',  ( -0.8849743778272055605, 0.000000000000000000, 0.4656397218766352708 ) ) ;
#378 = ORIENTED_EDGE ( 'NONE', *, *, #723, .F. ) ;
#379 = EDGE_CURVE ( 'NONE', #491, #828, #738, .T. ) ;
#380 = DIRECTION ( 'NONE',  ( 0.000000000000000000, 0.000000000000000000, 1.000000000000000000 ) ) ;
#381 = LINE ( 'NONE', #591, #621 ) ;
#382 = CARTESIAN_POINT ( 'NONE',  ( 3.000000000000000000, 0.000000000000000000, 0.000000000000000000 ) ) ;
#383 = ORIENTED_EDGE ( 'NONE', *, *, #617, .F. ) ;
#384 = DIRECTION ( 'NONE',  ( -1.000000000000000000, 0.000000000000000000, 0.000000000000000000 ) ) ;
#385 = AXIS2_PLACEMENT_3D ( 'NONE', #772, #707, #107 ) ;
#386 = VECTOR ( 'NONE', #463, 1000.000000000000000 ) ;
#387 = LINE ( 'NONE', #310, #3 ) ;
#388 = CARTESIAN_POINT ( 'NONE',  ( -21.00000000000000711, 0.000000000000000000, 0.000000000000000000 ) ) ;
#389 = UNCERTAINTY_MEASURE_WITH_UNIT (LENGTH_MEASURE( 1.000000000000000082E-05 ), #668, 'distance_accuracy_value', 'NONE');
#390 = EDGE_LOOP ( 'NONE', ( #101, #453, #634, #609 ) ) ;
#391 = VERTEX_POINT ( 'NONE', #508 ) ;
#392 = CYLINDRICAL_SURFACE ( 'NONE', #402, 2.522345351439313710 ) ;
#393 = ADVANCED_FACE ( 'NONE', ( #439 ), #696, .F. ) ;
#394 = CARTESIAN_POINT ( 'NONE',  ( -8.000000000000000000, 26.00000000000000000, 30.27913325056207228 ) ) ;
#395 = FACE_BOUND ( 'NONE', #616, .T. ) ;
#396 = DIRECTION ( 'NONE',  ( -0.8849743778272056716, 0.000000000000000000, 0.4656397218766352153 ) ) ;
#397 = LINE ( 'NONE', #195, #63 ) ;
#398 = FACE_OUTER_BOUND ( 'NONE', #8, .T. ) ;
#399 = DIRECTION ( 'NONE',  ( -1.000000000000000000, 0.000000000000000000, 0.000000000000000000 ) ) ;
#400 = DIRECTION ( 'NONE',  ( 0.000000000000000000, 0.000000000000000000, 1.000000000000000000 ) ) ;
#401 = CIRCLE ( 'NONE', #459, 4.999999999999997335 ) ;
#402 = AXIS2_PLACEMENT_3D ( 'NONE', #42, #790, #536 ) ;
#403 = LINE ( 'NONE', #277, #303 ) ;
#404 = CARTESIAN_POINT ( 'NONE',  ( 0.000000000000000000, 26.00000000000000000, 10.77913325056207228 ) ) ;
#405 = DIRECTION ( 'NONE',  ( 0.000000000000000000, 0.000000000000000000, 1.000000000000000000 ) ) ;
#406 = EDGE_CURVE ( 'NONE', #391, #300, #173, .T. ) ;
#407 = EDGE_LOOP ( 'NONE', ( #757, #568, #646, #180 ) ) ;
#408 = CARTESIAN_POINT ( 'NONE',  ( -21.00000000000000711, -2.500000000000000000, -2.500000000000000000 ) ) ;
#409 = VECTOR ( 'NONE', #13, 1000.000000000000000 ) ;
#410 = DIRECTION ( 'NONE',  ( 0.000000000000000000, 0.000000000000000000, -1.000000000000000000 ) ) ;
#411 = AXIS2_PLACEMENT_3D ( 'NONE', #676, #76, #58 ) ;
#412 = AXIS2_PLACEMENT_3D ( 'NONE', #330, #527, #795 ) ;
#413 = FACE_OUTER_BOUND ( 'NONE', #364, .T. ) ;
#414 = ORIENTED_EDGE ( 'NONE', *, *, #320, .T. ) ;
#415 = EDGE_CURVE ( 'NONE', #619, #142, #202, .T. ) ;
#416 = DIRECTION ( 'NONE',  ( 0.000000000000000000, 0.000000000000000000, 1.000000000000000000 ) ) ;
#417 = ORIENTED_EDGE ( 'NONE', *, *, #809, .T. ) ;
#418 = DIRECTION ( 'NONE',  ( 1.000000000000000000, -0.000000000000000000, -0.000000000000000000 ) ) ;
#419 = ORIENTED_EDGE ( 'NONE', *, *, #344, .T. ) ;
#420 = CARTESIAN_POINT ( 'NONE',  ( 0.000000000000000000, 0.000000000000000000, 0.000000000000000000 ) ) ;
#421 = CARTESIAN_POINT ( 'NONE',  ( -21.00000000000000711, -2.500000000000000000, 61.50000000000000000 ) ) ;
#422 = DIRECTION ( 'NONE',  ( -0.8849743778272056716, 0.000000000000000000, 0.4656397218766354373 ) ) ;
#423 = ORIENTED_EDGE ( 'NONE', *, *, #812, .F. ) ;
#424 = EDGE_LOOP ( 'NONE', ( #22, #622, #150, #7 ) ) ;
#425 = DIRECTION ( 'NONE',  ( 0.000000000000000000, 0.000000000000000000, -1.000000000000000000 ) ) ;
#426 = VERTEX_POINT ( 'NONE', #663 ) ;
#427 = AXIS2_PLACEMENT_3D ( 'NONE', #197, #399, #582 ) ;
#428 = DIRECTION ( 'NONE',  ( 0.000000000000000000, -1.000000000000000000, 0.000000000000000000 ) ) ;
#429 = ORIENTED_EDGE ( 'NONE', *, *, #1, .T. ) ;
#430 = ORIENTED_EDGE ( 'NONE', *, *, #59, .F. ) ;
#431 = CARTESIAN_POINT ( 'NONE',  ( -21.46563972187664149, -2.500000000000000000, 60.61502562217280143 ) ) ;
#432 = ORIENTED_EDGE ( 'NONE', *, *, #460, .F. ) ;
#433 = ORIENTED_EDGE ( 'NONE', *, *, #251, .T. ) ;
#434 = ORIENTED_EDGE ( 'NONE', *, *, #853, .T. ) ;
#435 = EDGE_CURVE ( 'NONE', #776, #484, #102, .T. ) ;
#436 = CARTESIAN_POINT ( 'NONE',  ( -21.00000000000000711, 0.000000000000000000, 59.00000000000000000 ) ) ;
#437 = ORIENTED_EDGE ( 'NONE', *, *, #575, .F. ) ;
#438 = ORIENTED_EDGE ( 'NONE', *, *, #599, .F. ) ;
#439 = FACE_OUTER_BOUND ( 'NONE', #503, .T. ) ;
#440 = APPLICATION_CONTEXT ( 'automotive_design' ) ;
#441 = ORIENTED_EDGE ( 'NONE', *, *, #348, .T. ) ;
#442 = VECTOR ( 'NONE', #488, 1000.000000000000000 ) ;
#443 = ORIENTED_EDGE ( 'NONE', *, *, #839, .F. ) ;
#444 = VERTEX_POINT ( 'NONE', #375 ) ;
#445 = AXIS2_PLACEMENT_3D ( 'NONE', #520, #725, #779 ) ;
#446 = CARTESIAN_POINT ( 'NONE',  ( -21.46563972187664149, -2.500000000000000000, 60.61502562217280143 ) ) ;
#447 = CARTESIAN_POINT ( 'NONE',  ( -8.000000000000000000, 26.00000000000000000, 30.27913325056207228 ) ) ;
#448 = CARTESIAN_POINT ( 'NONE',  ( 3.000000000000000000, -10.50000000000003020, 48.87211652107144033 ) ) ;
#449 = ADVANCED_FACE ( 'NONE', ( #313 ), #31, .T. ) ;
#450 = ORIENTED_EDGE ( 'NONE', *, *, #504, .T. ) ;
#451 = DIRECTION ( 'NONE',  ( -1.000000000000000000, 0.000000000000000000, 0.000000000000000000 ) ) ;
#452 = FACE_OUTER_BOUND ( 'NONE', #407, .T. ) ;
#453 = ORIENTED_EDGE ( 'NONE', *, *, #379, .T. ) ;
#454 = DIRECTION ( 'NONE',  ( 1.000000000000000000, 0.000000000000000000, 0.000000000000000000 ) ) ;
#455 = DIRECTION ( 'NONE',  ( -1.000000000000000000, 0.000000000000000000, 0.000000000000000000 ) ) ;
#456 = LINE ( 'NONE', #714, #755 ) ;
#457 = VERTEX_POINT ( 'NONE', #514 ) ;
#458 = DIRECTION ( 'NONE',  ( 0.000000000000000000, 0.000000000000000000, -1.000000000000000000 ) ) ;
#459 = AXIS2_PLACEMENT_3D ( 'NONE', #10, #293, #817 ) ;
#460 = EDGE_CURVE ( 'NONE', #545, #633, #822, .T. ) ;
#461 = VECTOR ( 'NONE', #337, 1000.000000000000000 ) ;
#462 = DIRECTION ( 'NONE',  ( 1.000000000000000000, -0.000000000000000000, -0.000000000000000000 ) ) ;
#463 = DIRECTION ( 'NONE',  ( 1.000000000000000000, 0.000000000000000000, 0.000000000000000000 ) ) ;
#464 = CARTESIAN_POINT ( 'NONE',  ( 3.000000000000000000, 54.50000000000000000, -2.500000000000000000 ) ) ;
#465 = DIRECTION ( 'NONE',  ( 0.000000000000000000, 1.000000000000000000, 0.000000000000000000 ) ) ;
#466 = DIRECTION ( 'NONE',  ( -1.000000000000000000, 0.000000000000000000, 0.000000000000000000 ) ) ;
#467 = DIRECTION ( 'NONE',  ( 0.000000000000000000, 0.000000000000000000, -1.000000000000000000 ) ) ;
#468 = LINE ( 'NONE', #727, #697 ) ;
#469 = CARTESIAN_POINT ( 'NONE',  ( -21.00000000000000711, 0.000000000000000000, 59.00000000000000000 ) ) ;
#470 = CARTESIAN_POINT ( 'NONE',  ( 2.385244779468109755E-15, 52.00000000000000000, 49.32062573848453013 ) ) ;
#471 = AXIS2_PLACEMENT_3D ( 'NONE', #404, #571, #239 ) ;
#472 = AXIS2_PLACEMENT_3D ( 'NONE', #638, #588, #783 ) ;
#473 = LINE ( 'NONE', #275, #740 ) ;
#474 = EDGE_CURVE ( 'NONE', #491, #556, #468, .T. ) ;
#475 = FACE_BOUND ( 'NONE', #301, .T. ) ;
#476 = CYLINDRICAL_SURFACE ( 'NONE', #493, 2.249999999999998668 ) ;
#477 = CARTESIAN_POINT ( 'NONE',  ( 3.000000000000000000, 34.00000000000000000, 20.52913325056207228 ) ) ;
#478 = CARTESIAN_POINT ( 'NONE',  ( -8.000000000000000000, 40.70908489441386990, 33.02200012851964317 ) ) ;
#479 = EDGE_CURVE ( 'NONE', #288, #639, #598, .T. ) ;
#480 = VECTOR ( 'NONE', #143, 1000.000000000000000 ) ;
#481 = AXIS2_PLACEMENT_3D ( 'NONE', #523, #590, #852 ) ;
#482 = DIRECTION ( 'NONE',  ( 0.000000000000000000, 0.000000000000000000, -1.000000000000000000 ) ) ;
#483 = ORIENTED_EDGE ( 'NONE', *, *, #139, .T. ) ;
#484 = VERTEX_POINT ( 'NONE', #537 ) ;
#485 = CYLINDRICAL_SURFACE ( 'NONE', #369, 4.999999999999997335 ) ;
#486 = CARTESIAN_POINT ( 'NONE',  ( -21.00000000000000711, 52.00000000000000000, 59.00000000000000000 ) ) ;
#487 = EDGE_LOOP ( 'NONE', ( #311, #155, #701, #316 ) ) ;
#488 = DIRECTION ( 'NONE',  ( 1.000000000000000000, -0.000000000000000000, -0.000000000000000000 ) ) ;
#489 = ORIENTED_EDGE ( 'NONE', *, *, #845, .F. ) ;
#490 = CARTESIAN_POINT ( 'NONE',  ( 3.000000000000000000, -2.500000000000000000, -2.500000000000000000 ) ) ;
#491 = VERTEX_POINT ( 'NONE', #796 ) ;
#492 = AXIS2_PLACEMENT_3D ( 'NONE', #87, #92, #222 ) ;
#493 = AXIS2_PLACEMENT_3D ( 'NONE', #748, #147, #425 ) ;
#494 = ORIENTED_EDGE ( 'NONE', *, *, #614, .F. ) ;
#495 = VERTEX_POINT ( 'NONE', #470 ) ;
#496 = ORIENTED_EDGE ( 'NONE', *, *, #167, .T. ) ;
#497 = EDGE_CURVE ( 'NONE', #836, #513, #547, .T. ) ;
#498 = DIRECTION ( 'NONE',  ( 0.4656397218766353263, 0.000000000000000000, 0.8849743778272055605 ) ) ;
#499 = PRODUCT_DEFINITION_SHAPE ( 'NONE', 'NONE',  #209 ) ;
#500 = CARTESIAN_POINT ( 'NONE',  ( 5.204170427930421283E-15, 0.000000000000000000, 49.32062573848453013 ) ) ;
#501 = CARTESIAN_POINT ( 'NONE',  ( 3.000000000000000000, 54.50000000000000000, -2.500000000000000000 ) ) ;
#502 = ORIENTED_EDGE ( 'NONE', *, *, #728, .F. ) ;
#503 = EDGE_LOOP ( 'NONE', ( #574, #483, #306, #361 ) ) ;
#504 = EDGE_CURVE ( 'NONE', #559, #551, #280, .T. ) ;
#505 = DIRECTION ( 'NONE',  ( 0.000000000000000000, 0.000000000000000000, -1.000000000000000000 ) ) ;
#506 = ORIENTED_EDGE ( 'NONE', *, *, #866, .F. ) ;
#507 = EDGE_LOOP ( 'NONE', ( #432, #383 ) ) ;
#508 = CARTESIAN_POINT ( 'NONE',  ( -21.46563972187664149, -2.500000000000000000, 60.61502562217280143 ) ) ;
#509 = EDGE_CURVE ( 'NONE', #426, #820, #349, .T. ) ;
#510 = CARTESIAN_POINT ( 'NONE',  ( -21.00000000000000711, 0.000000000000000000, 59.00000000000000000 ) ) ;
#511 = VECTOR ( 'NONE', #662, 1000.000000000000000 ) ;
#512 = ORIENTED_EDGE ( 'NONE', *, *, #194, .T. ) ;
#513 = VERTEX_POINT ( 'NONE', #803 ) ;
#514 = CARTESIAN_POINT ( 'NONE',  ( 0.000000000000000000, 40.70908489441386990, 33.02200012851964317 ) ) ;
#515 = DIRECTION ( 'NONE',  ( 0.000000000000000000, 0.000000000000000000, -1.000000000000000000 ) ) ;
#516 = LINE ( 'NONE', #794, #370 ) ;
#517 = ORIENTED_EDGE ( 'NONE', *, *, #538, .F. ) ;
#518 = CARTESIAN_POINT ( 'NONE',  ( -8.000000000000000000, 26.00000000000000000, 32.52913325056207583 ) ) ;
#519 = DIRECTION ( 'NONE',  ( 1.000000000000000000, -0.000000000000000000, -0.000000000000000000 ) ) ;
#520 = CARTESIAN_POINT ( 'NONE',  ( -8.000000000000000000, 25.99999999999999645, 20.52913325056207228 ) ) ;
#521 = ORIENTED_EDGE ( 'NONE', *, *, #845, .T. ) ;
#522 = VERTEX_POINT ( 'NONE', #75 ) ;
#523 = CARTESIAN_POINT ( 'NONE',  ( -8.000000000000000000, 17.99999999999999645, 20.52913325056207228 ) ) ;
#524 = ADVANCED_FACE ( 'NONE', ( #217 ), #476, .F. ) ;
#525 = LINE ( 'NONE', #240, #560 ) ;
#526 = DIRECTION ( 'NONE',  ( -1.000000000000000000, 0.000000000000000000, 0.000000000000000000 ) ) ;
#527 = DIRECTION ( 'NONE',  ( 1.000000000000000000, -0.000000000000000000, -0.000000000000000000 ) ) ;
#528 = VECTOR ( 'NONE', #649, 1000.000000000000000 ) ;
#529 = CIRCLE ( 'NONE', #243, 2.522345351439313710 ) ;
#530 = FACE_OUTER_BOUND ( 'NONE', #252, .T. ) ;
#531 = DIRECTION ( 'NONE',  ( 1.000000000000000000, 0.000000000000000000, 0.000000000000000000 ) ) ;
#532 = FACE_OUTER_BOUND ( 'NONE', #424, .T. ) ;
#533 = DIRECTION ( 'NONE',  ( 1.000000000000000000, -0.000000000000000000, -0.000000000000000000 ) ) ;
#534 = MANIFOLD_SOLID_BREP ( 'Boss-Extrude3', #112 ) ;
#535 = FACE_BOUND ( 'NONE', #247, .T. ) ;
#536 = DIRECTION ( 'NONE',  ( 0.000000000000000000, 0.000000000000000000, -1.000000000000000000 ) ) ;
#537 = CARTESIAN_POINT ( 'NONE',  ( 0.000000000000000000, 52.00000000000000000, 0.000000000000000000 ) ) ;
#538 = EDGE_CURVE ( 'NONE', #391, #85, #363, .T. ) ;
#539 = DIRECTION ( 'NONE',  ( 0.000000000000000000, 0.000000000000000000, -1.000000000000000000 ) ) ;
#540 = CIRCLE ( 'NONE', #739, 2.522345351439313710 ) ;
#541 = AXIS2_PLACEMENT_3D ( 'NONE', #382, #526, #405 ) ;
#542 = CARTESIAN_POINT ( 'NONE',  ( 3.000000000000000000, 54.50000000000000000, 48.87211652107144033 ) ) ;
#543 = EDGE_LOOP ( 'NONE', ( #136, #34, #362, #765, #684 ) ) ;
#544 = PLANE ( 'NONE',  #610 ) ;
#545 = VERTEX_POINT ( 'NONE', #737 ) ;
#546 = ADVANCED_FACE ( 'NONE', ( #232 ), #764, .F. ) ;
#547 = LINE ( 'NONE', #869, #867 ) ;
#548 = VECTOR ( 'NONE', #533, 1000.000000000000000 ) ;
#549 = VECTOR ( 'NONE', #267, 1000.000000000000000 ) ;
#550 = DIRECTION ( 'NONE',  ( 0.000000000000000000, -0.000000000000000000, 1.000000000000000000 ) ) ;
#551 = VERTEX_POINT ( 'NONE', #768 ) ;
#552 = CARTESIAN_POINT ( 'NONE',  ( -8.000000000000000000, 26.00000000000000000, 8.529133250562074053 ) ) ;
#553 = CARTESIAN_POINT ( 'NONE',  ( 3.000000000000000000, 40.70908489441386990, 33.02200012851964317 ) ) ;
#554 = ORIENTED_EDGE ( 'NONE', *, *, #359, .F. ) ;
#555 = ORIENTED_EDGE ( 'NONE', *, *, #827, .F. ) ;
#556 = VERTEX_POINT ( 'NONE', #308 ) ;
#557 = ADVANCED_FACE ( 'NONE', ( #569, #831 ), #248, .F. ) ;
#558 = CARTESIAN_POINT ( 'NONE',  ( 3.000000000000000000, -2.500000000000000000, -2.500000000000000000 ) ) ;
#559 = VERTEX_POINT ( 'NONE', #264 ) ;
#560 = VECTOR ( 'NONE', #376, 1000.000000000000000 ) ;
#561 = CIRCLE ( 'NONE', #603, 2.250000000000001776 ) ;
#562 = PLANE ( 'NONE',  #492 ) ;
#563 = VECTOR ( 'NONE', #183, 1000.000000000000000 ) ;
#564 = ORIENTED_EDGE ( 'NONE', *, *, #331, .F. ) ;
#565 = ORIENTED_EDGE ( 'NONE', *, *, #167, .F. ) ;
#566 = DIRECTION ( 'NONE',  ( 0.000000000000000000, 0.000000000000000000, -1.000000000000000000 ) ) ;
#567 = ORIENTED_EDGE ( 'NONE', *, *, #406, .T. ) ;
#568 = ORIENTED_EDGE ( 'NONE', *, *, #43, .T. ) ;
#569 = FACE_BOUND ( 'NONE', #345, .T. ) ;
#570 = ADVANCED_FACE ( 'NONE', ( #532 ), #392, .F. ) ;
#571 = DIRECTION ( 'NONE',  ( -1.000000000000000000, 0.000000000000000000, 0.000000000000000000 ) ) ;
#572 = CARTESIAN_POINT ( 'NONE',  ( 0.000000000000000000, 17.99999999999999645, 18.27913325056207583 ) ) ;
#573 = ORIENTED_EDGE ( 'NONE', *, *, #460, .T. ) ;
#574 = ORIENTED_EDGE ( 'NONE', *, *, #802, .F. ) ;
#575 = EDGE_CURVE ( 'NONE', #60, #142, #540, .T. ) ;
#576 = DIRECTION ( 'NONE',  ( 0.000000000000000000, -0.000000000000000000, -1.000000000000000000 ) ) ;
#577 = CARTESIAN_POINT ( 'NONE',  ( -21.00000000000000711, 0.000000000000000000, 60.37002378254703672 ) ) ;
#578 = FACE_BOUND ( 'NONE', #185, .T. ) ;
#579 = AXIS2_PLACEMENT_3D ( 'NONE', #760, #632, #550 ) ;
#580 = CIRCLE ( 'NONE', #171, 4.000000000000000000 ) ;
#581 = ORIENTED_EDGE ( 'NONE', *, *, #787, .F. ) ;
#582 = DIRECTION ( 'NONE',  ( 0.000000000000000000, 0.000000000000000000, 1.000000000000000000 ) ) ;
#583 = FACE_OUTER_BOUND ( 'NONE', #84, .T. ) ;
#584 = DIRECTION ( 'NONE',  ( 0.000000000000000000, 0.000000000000000000, 1.000000000000000000 ) ) ;
#585 = ORIENTED_EDGE ( 'NONE', *, *, #723, .T. ) ;
#586 = DIRECTION ( 'NONE',  ( 0.000000000000000000, 0.000000000000000000, -1.000000000000000000 ) ) ;
#587 = CARTESIAN_POINT ( 'NONE',  ( -18.39619304881972184, 52.00000000000000000, 59.00000000000000000 ) ) ;
#588 = DIRECTION ( 'NONE',  ( 1.000000000000000000, 0.000000000000000000, 0.000000000000000000 ) ) ;
#589 = EDGE_CURVE ( 'NONE', #357, #236, #51, .T. ) ;
#590 = DIRECTION ( 'NONE',  ( 1.000000000000000000, -0.000000000000000000, -0.000000000000000000 ) ) ;
#591 = CARTESIAN_POINT ( 'NONE',  ( -21.00000000000000711, -2.500000000000000000, 61.50000000000000000 ) ) ;
#592 = LINE ( 'NONE', #263, #549 ) ;
#593 = DIRECTION ( 'NONE',  ( 0.000000000000000000, 0.000000000000000000, 1.000000000000000000 ) ) ;
#594 = CIRCLE ( 'NONE', #411, 2.249999999999998668 ) ;
#595 = DIRECTION ( 'NONE',  ( -1.000000000000000000, 0.000000000000000000, 0.000000000000000000 ) ) ;
#596 = DIRECTION ( 'NONE',  ( 0.000000000000000000, 0.000000000000000000, -1.000000000000000000 ) ) ;
#597 = DIRECTION ( 'NONE',  ( 1.000000000000000000, 0.000000000000000000, 0.000000000000000000 ) ) ;
#598 = LINE ( 'NONE', #863, #5 ) ;
#599 = EDGE_CURVE ( 'NONE', #763, #457, #203, .T. ) ;
#600 = CARTESIAN_POINT ( 'NONE',  ( -8.000000000000000000, 26.00000000000000000, 10.77913325056207228 ) ) ;
#601 = DIRECTION ( 'NONE',  ( 0.000000000000000000, 0.000000000000000000, 1.000000000000000000 ) ) ;
#602 = LINE ( 'NONE', #141, #786 ) ;
#603 = AXIS2_PLACEMENT_3D ( 'NONE', #833, #265, #380 ) ;
#604 = VECTOR ( 'NONE', #742, 1000.000000000000114 ) ;
#605 = EDGE_CURVE ( 'NONE', #700, #871, #781, .T. ) ;
#606 = ORIENTED_EDGE ( 'NONE', *, *, #497, .F. ) ;
#607 =( NAMED_UNIT ( * ) SI_UNIT ( $, .STERADIAN. ) SOLID_ANGLE_UNIT ( ) );
#608 = DIRECTION ( 'NONE',  ( 0.000000000000000000, 0.000000000000000000, -1.000000000000000000 ) ) ;
#609 = ORIENTED_EDGE ( 'NONE', *, *, #29, .T. ) ;
#610 = AXIS2_PLACEMENT_3D ( 'NONE', #346, #608, #801 ) ;
#611 = CARTESIAN_POINT ( 'NONE',  ( 0.000000000000000000, 0.000000000000000000, 49.32062573848453724 ) ) ;
#612 = ORIENTED_EDGE ( 'NONE', *, *, #435, .T. ) ;
#613 = ORIENTED_EDGE ( 'NONE', *, *, #204, .T. ) ;
#614 = EDGE_CURVE ( 'NONE', #444, #716, #56, .T. ) ;
#615 = DIRECTION ( 'NONE',  ( 0.000000000000000000, 0.000000000000000000, -1.000000000000000000 ) ) ;
#616 = EDGE_LOOP ( 'NONE', ( #554, #358 ) ) ;
#617 = EDGE_CURVE ( 'NONE', #633, #545, #732, .T. ) ;
#618 = PLANE ( 'NONE',  #579 ) ;
#619 = VERTEX_POINT ( 'NONE', #269 ) ;
#620 = ORIENTED_EDGE ( 'NONE', *, *, #359, .T. ) ;
#621 = VECTOR ( 'NONE', #788, 1000.000000000000227 ) ;
#622 = ORIENTED_EDGE ( 'NONE', *, *, #152, .T. ) ;
#623 = AXIS2_PLACEMENT_3D ( 'NONE', #255, #854, #841 ) ;
#624 = VECTOR ( 'NONE', #328, 1000.000000000000000 ) ;
#625 = DIRECTION ( 'NONE',  ( 0.000000000000000000, 1.000000000000000000, 0.000000000000000000 ) ) ;
#626 = ADVANCED_FACE ( 'NONE', ( #656 ), #111, .F. ) ;
#627 =( GEOMETRIC_REPRESENTATION_CONTEXT ( 3 ) GLOBAL_UNCERTAINTY_ASSIGNED_CONTEXT ( ( #268 ) ) GLOBAL_UNIT_ASSIGNED_CONTEXT ( ( #339, #673, #607 ) ) REPRESENTATION_CONTEXT ( 'NONE', 'WORKASPACE' ) );
#628 = ORIENTED_EDGE ( 'NONE', *, *, #652, .F. ) ;
#629 = ORIENTED_EDGE ( 'NONE', *, *, #344, .F. ) ;
#630 = PRODUCT ( 'Part5', 'Part5', '', ( #274 ) ) ;
#631 = CARTESIAN_POINT ( 'NONE',  ( -21.00000000000000711, 52.00000000000000000, 0.000000000000000000 ) ) ;
#632 = DIRECTION ( 'NONE',  ( 0.000000000000000000, 1.000000000000000000, 0.000000000000000000 ) ) ;
#633 = VERTEX_POINT ( 'NONE', #254 ) ;
#634 = ORIENTED_EDGE ( 'NONE', *, *, #298, .T. ) ;
#635 = CARTESIAN_POINT ( 'NONE',  ( -21.00000000000000711, 0.000000000000000000, 59.00000000000000000 ) ) ;
#636 = CARTESIAN_POINT ( 'NONE',  ( 3.000000000000000000, -10.50000000000003020, 48.87211652107144033 ) ) ;
#637 = DIRECTION ( 'NONE',  ( 0.000000000000000000, 0.000000000000000000, -1.000000000000000000 ) ) ;
#638 = CARTESIAN_POINT ( 'NONE',  ( 3.000000000000000000, 26.00000000000000000, 30.27913325056207228 ) ) ;
#639 = VERTEX_POINT ( 'NONE', #118 ) ;
#640 = FACE_OUTER_BOUND ( 'NONE', #674, .T. ) ;
#641 = FACE_OUTER_BOUND ( 'NONE', #811, .T. ) ;
#642 = CARTESIAN_POINT ( 'NONE',  ( 0.000000000000000000, 40.70908489441386990, 43.02200012851963606 ) ) ;
#643 = CIRCLE ( 'NONE', #272, 4.999999999999997335 ) ;
#644 = CIRCLE ( 'NONE', #65, 2.522345351439313710 ) ;
#645 = ORIENTED_EDGE ( 'NONE', *, *, #298, .F. ) ;
#646 = ORIENTED_EDGE ( 'NONE', *, *, #90, .T. ) ;
#647 = LINE ( 'NONE', #324, #261 ) ;
#648 = EDGE_CURVE ( 'NONE', #26, #700, #730, .T. ) ;
#649 = DIRECTION ( 'NONE',  ( 1.000000000000000000, 0.000000000000000000, 0.000000000000000000 ) ) ;
#650 = LINE ( 'NONE', #388, #386 ) ;
#651 = DIRECTION ( 'NONE',  ( 1.000000000000000000, 0.000000000000000000, 0.000000000000000000 ) ) ;
#652 = EDGE_CURVE ( 'NONE', #176, #162, #20, .T. ) ;
#653 = CARTESIAN_POINT ( 'NONE',  ( 0.000000000000000000, 34.00000000000000000, 20.52913325056207228 ) ) ;
#654 = DIRECTION ( 'NONE',  ( -0.4656397218766353263, 0.000000000000000000, -0.8849743778272056716 ) ) ;
#655 = VERTEX_POINT ( 'NONE', #469 ) ;
#656 = FACE_OUTER_BOUND ( 'NONE', #145, .T. ) ;
#657 = CARTESIAN_POINT ( 'NONE',  ( 3.000000000000000000, 40.70908489441386990, 38.02200012851963606 ) ) ;
#658 = CARTESIAN_POINT ( 'NONE',  ( 3.000000000000000000, 54.50000000000000000, 48.87211652107144033 ) ) ;
#659 = EDGE_CURVE ( 'NONE', #513, #716, #858, .T. ) ;
#660 = COLOUR_RGB ( '',0.7921568627450980005, 0.8196078431372548767, 0.9333333333333333481 ) ;
#661 = DIRECTION ( 'NONE',  ( 0.8849743778272055605, 0.000000000000000000, -0.4656397218766354928 ) ) ;
#662 = DIRECTION ( 'NONE',  ( 1.000000000000000000, 0.000000000000000000, 0.000000000000000000 ) ) ;
#663 = CARTESIAN_POINT ( 'NONE',  ( -21.00000000000000711, -2.500000000000000000, -2.500000000000000000 ) ) ;
#664 = DIRECTION ( 'NONE',  ( 1.000000000000000000, 0.000000000000000000, 0.000000000000000000 ) ) ;
#665 = ADVANCED_FACE ( 'NONE', ( #193 ), #777, .F. ) ;
#666 = APPLICATION_PROTOCOL_DEFINITION ( 'draft international standard', 'automotive_design', 1998, #440 ) ;
#667 = FACE_BOUND ( 'NONE', #705, .T. ) ;
#668 =( LENGTH_UNIT ( ) NAMED_UNIT ( * ) SI_UNIT ( .MILLI., .METRE. ) );
#669 = CIRCLE ( 'NONE', #153, 2.249999999999998668 ) ;
#670 = CIRCLE ( 'NONE', #319, 4.000000000000000000 ) ;
#671 = EDGE_CURVE ( 'NONE', #820, #689, #647, .T. ) ;
#672 = ORIENTED_EDGE ( 'NONE', *, *, #194, .F. ) ;
#673 =( NAMED_UNIT ( * ) PLANE_ANGLE_UNIT ( ) SI_UNIT ( $, .RADIAN. ) );
#674 = EDGE_LOOP ( 'NONE', ( #117, #843, #502, #612, #374 ) ) ;
#675 = DIRECTION ( 'NONE',  ( 0.000000000000000000, 1.000000000000000000, 0.000000000000000000 ) ) ;
#676 = CARTESIAN_POINT ( 'NONE',  ( 0.000000000000000000, 26.00000000000000000, 10.77913325056207228 ) ) ;
#677 = ORIENTED_EDGE ( 'NONE', *, *, #348, .F. ) ;
#678 = ORIENTED_EDGE ( 'NONE', *, *, #812, .T. ) ;
#679 = VERTEX_POINT ( 'NONE', #46 ) ;
#680 = ADVANCED_FACE ( 'NONE', ( #849 ), #128, .F. ) ;
#681 = FILL_AREA_STYLE_COLOUR ( '', #660 ) ;
#682 = VECTOR ( 'NONE', #675, 1000.000000000000000 ) ;
#683 = DIRECTION ( 'NONE',  ( 1.000000000000000000, -0.000000000000000000, -0.000000000000000000 ) ) ;
#684 = ORIENTED_EDGE ( 'NONE', *, *, #199, .T. ) ;
#685 = ORIENTED_EDGE ( 'NONE', *, *, #804, .F. ) ;
#686 = PRODUCT_RELATED_PRODUCT_CATEGORY ( 'part', '', ( #630 ) ) ;
#687 = ORIENTED_EDGE ( 'NONE', *, *, #207, .T. ) ;
#688 = ORIENTED_EDGE ( 'NONE', *, *, #671, .T. ) ;
#689 = VERTEX_POINT ( 'NONE', #257 ) ;
#690 =( NAMED_UNIT ( * ) SI_UNIT ( $, .STERADIAN. ) SOLID_ANGLE_UNIT ( ) );
#691 = ADVANCED_FACE ( 'NONE', ( #722 ), #121, .F. ) ;
#692 = FACE_OUTER_BOUND ( 'NONE', #4, .T. ) ;
#693 = ORIENTED_EDGE ( 'NONE', *, *, #29, .F. ) ;
#694 = ORIENTED_EDGE ( 'NONE', *, *, #62, .T. ) ;
#695 = CIRCLE ( 'NONE', #350, 4.000000000000000000 ) ;
#696 = PLANE ( 'NONE',  #753 ) ;
#697 = VECTOR ( 'NONE', #125, 1000.000000000000000 ) ;
#698 = VECTOR ( 'NONE', #45, 1000.000000000000000 ) ;
#699 = LINE ( 'NONE', #98, #821 ) ;
#700 = VERTEX_POINT ( 'NONE', #542 ) ;
#701 = ORIENTED_EDGE ( 'NONE', *, *, #818, .T. ) ;
#702 = CARTESIAN_POINT ( 'NONE',  ( -8.000000000000000000, 34.00000000000000000, 18.00678789912275946 ) ) ;
#703 = CARTESIAN_POINT ( 'NONE',  ( 0.000000000000000000, 0.000000000000000000, 0.000000000000000000 ) ) ;
#704 = DIRECTION ( 'NONE',  ( -0.8849743778272055605, 0.000000000000000000, 0.4656397218766354373 ) ) ;
#705 = EDGE_LOOP ( 'NONE', ( #628, #816 ) ) ;
#706 = ORIENTED_EDGE ( 'NONE', *, *, #712, .T. ) ;
#707 = DIRECTION ( 'NONE',  ( 1.000000000000000000, 0.000000000000000000, 0.000000000000000000 ) ) ;
#708 = CARTESIAN_POINT ( 'NONE',  ( 0.000000000000000000, 17.99999999999999645, 20.52913325056207228 ) ) ;
#709 = PLANE ( 'NONE',  #541 ) ;
#710 = ORIENTED_EDGE ( 'NONE', *, *, #866, .T. ) ;
#711 = CARTESIAN_POINT ( 'NONE',  ( 3.000000000000000000, 17.99999999999999645, 20.52913325056207228 ) ) ;
#712 = EDGE_CURVE ( 'NONE', #360, #391, #473, .T. ) ;
#713 = DIRECTION ( 'NONE',  ( 0.000000000000000000, 0.000000000000000000, 1.000000000000000000 ) ) ;
#714 = CARTESIAN_POINT ( 'NONE',  ( 2.534360278123365617, 54.50000000000000000, 47.98714214324424177 ) ) ;
#715 = VECTOR ( 'NONE', #371, 1000.000000000000000 ) ;
#716 = VERTEX_POINT ( 'NONE', #69 ) ;
#717 = CARTESIAN_POINT ( 'NONE',  ( -21.00000000000000711, 52.00000000000000000, 59.00000000000000000 ) ) ;
#718 = CIRCLE ( 'NONE', #38, 4.999999999999997335 ) ;
#719 = ADVANCED_FACE ( 'NONE', ( #413 ), #341, .T. ) ;
#720 = DIRECTION ( 'NONE',  ( 1.000000000000000000, 0.000000000000000000, 0.000000000000000000 ) ) ;
#721 = CARTESIAN_POINT ( 'NONE',  ( 0.000000000000000000, 25.99999999999999645, 16.52913325056207228 ) ) ;
#722 = FACE_OUTER_BOUND ( 'NONE', #830, .T. ) ;
#723 = EDGE_CURVE ( 'NONE', #360, #871, #864, .T. ) ;
#724 = DIRECTION ( 'NONE',  ( 0.8849743778272055605, 0.000000000000000000, -0.4656397218766354928 ) ) ;
#725 = DIRECTION ( 'NONE',  ( 1.000000000000000000, -0.000000000000000000, -0.000000000000000000 ) ) ;
#726 = DIRECTION ( 'NONE',  ( 1.000000000000000000, 0.000000000000000000, 0.000000000000000000 ) ) ;
#727 = CARTESIAN_POINT ( 'NONE',  ( -8.000000000000000000, 25.99999999999999645, 24.52913325056207228 ) ) ;
#728 = EDGE_CURVE ( 'NONE', #776, #357, #602, .T. ) ;
#729 = AXIS2_PLACEMENT_3D ( 'NONE', #394, #103, #637 ) ;
#730 = LINE ( 'NONE', #464, #55 ) ;
#731 = AXIS2_PLACEMENT_3D ( 'NONE', #166, #198, #539 ) ;
#732 = CIRCLE ( 'NONE', #96, 2.249999999999998668 ) ;
#733 = DIRECTION ( 'NONE',  ( 0.000000000000000000, 0.000000000000000000, 1.000000000000000000 ) ) ;
#734 = CARTESIAN_POINT ( 'NONE',  ( 3.000000000000000000, 26.00000000000000000, 13.02913325056207050 ) ) ;
#735 = ADVANCED_FACE ( 'NONE', ( #73 ), #544, .T. ) ;
#736 = ORIENTED_EDGE ( 'NONE', *, *, #266, .F. ) ;
#737 = CARTESIAN_POINT ( 'NONE',  ( 3.000000000000000000, 17.99999999999999645, 18.27913325056207583 ) ) ;
#738 = CIRCLE ( 'NONE', #260, 4.000000000000000000 ) ;
#739 = AXIS2_PLACEMENT_3D ( 'NONE', #124, #454, #467 ) ;
#740 = VECTOR ( 'NONE', #61, 1000.000000000000000 ) ;
#741 = SHAPE_DEFINITION_REPRESENTATION ( #499, #30 ) ;
#742 = DIRECTION ( 'NONE',  ( 0.4656397218766353263, 0.000000000000000000, 0.8849743778272055605 ) ) ;
#743 = ORIENTED_EDGE ( 'NONE', *, *, #614, .T. ) ;
#744 = DIRECTION ( 'NONE',  ( 0.000000000000000000, 0.000000000000000000, -1.000000000000000000 ) ) ;
#745 = EDGE_CURVE ( 'NONE', #457, #93, #206, .T. ) ;
#746 = CARTESIAN_POINT ( 'NONE',  ( 3.000000000000000000, -2.500000000000000000, 61.50000000000000000 ) ) ;
#747 = ORIENTED_EDGE ( 'NONE', *, *, #804, .T. ) ;
#748 = CARTESIAN_POINT ( 'NONE',  ( -8.000000000000000000, 17.99999999999999645, 20.52913325056207228 ) ) ;
#749 = CARTESIAN_POINT ( 'NONE',  ( 3.000000000000000000, 25.99999999999999645, 20.52913325056207228 ) ) ;
#750 = ADVANCED_FACE ( 'NONE', ( #475, #667, #343, #208, #78, #395, #256 ), #40, .T. ) ;
#751 = EDGE_LOOP ( 'NONE', ( #242, #685 ) ) ;
#752 = ORIENTED_EDGE ( 'NONE', *, *, #617, .T. ) ;
#753 = AXIS2_PLACEMENT_3D ( 'NONE', #244, #769, #661 ) ;
#754 = CARTESIAN_POINT ( 'NONE',  ( -8.000000000000000000, 40.70908489441386990, 38.02200012851963606 ) ) ;
#755 = VECTOR ( 'NONE', #704, 1000.000000000000000 ) ;
#756 = LINE ( 'NONE', #486, #837 ) ;
#757 = ORIENTED_EDGE ( 'NONE', *, *, #342, .F. ) ;
#758 = ORIENTED_EDGE ( 'NONE', *, *, #266, .T. ) ;
#759 = ADVANCED_FACE ( 'NONE', ( #398 ), #842, .F. ) ;
#760 = CARTESIAN_POINT ( 'NONE',  ( -21.00000000000000711, 54.50000000000000000, -2.500000000000000000 ) ) ;
#761 = ORIENTED_EDGE ( 'NONE', *, *, #106, .T. ) ;
#762 = APPLICATION_CONTEXT ( 'automotive_design' ) ;
#763 = VERTEX_POINT ( 'NONE', #642 ) ;
#764 = PLANE ( 'NONE',  #95 ) ;
#765 = ORIENTED_EDGE ( 'NONE', *, *, #86, .F. ) ;
#766 = EDGE_LOOP ( 'NONE', ( #423, #184, #512, #573 ) ) ;
#767 = ORIENTED_EDGE ( 'NONE', *, *, #199, .F. ) ;
#768 = CARTESIAN_POINT ( 'NONE',  ( 3.000000000000000000, 26.00000000000000000, 8.529133250562074053 ) ) ;
#769 = DIRECTION ( 'NONE',  ( 0.4656397218766354928, 0.000000000000000000, 0.8849743778272055605 ) ) ;
#770 = DIRECTION ( 'NONE',  ( 1.000000000000000000, 0.000000000000000000, 0.000000000000000000 ) ) ;
#771 = ORIENTED_EDGE ( 'NONE', *, *, #331, .T. ) ;
#772 = CARTESIAN_POINT ( 'NONE',  ( 3.000000000000000000, 17.99999999999999645, 20.52913325056207228 ) ) ;
#773 = LINE ( 'NONE', #175, #188 ) ;
#774 = FACE_BOUND ( 'NONE', #507, .T. ) ;
#775 = ADVANCED_FACE ( 'NONE', ( #847 ), #250, .F. ) ;
#776 = VERTEX_POINT ( 'NONE', #855 ) ;
#777 = PLANE ( 'NONE',  #808 ) ;
#778 = DIRECTION ( 'NONE',  ( 0.000000000000000000, 0.000000000000000000, -1.000000000000000000 ) ) ;
#779 = DIRECTION ( 'NONE',  ( 0.000000000000000000, 0.000000000000000000, -1.000000000000000000 ) ) ;
#780 = ORIENTED_EDGE ( 'NONE', *, *, #605, .T. ) ;
#781 = LINE ( 'NONE', #658, #37 ) ;
#782 = LINE ( 'NONE', #577, #259 ) ;
#783 = DIRECTION ( 'NONE',  ( 0.000000000000000000, 0.000000000000000000, -1.000000000000000000 ) ) ;
#784 = VECTOR ( 'NONE', #498, 1000.000000000000114 ) ;
#785 = DIRECTION ( 'NONE',  ( 0.8849743778272055605, 0.000000000000000000, -0.4656397218766354928 ) ) ;
#786 = VECTOR ( 'NONE', #416, 1000.000000000000000 ) ;
#787 = EDGE_CURVE ( 'NONE', #619, #231, #868, .T. ) ;
#788 = DIRECTION ( 'NONE',  ( 0.8849743778272055605, 0.000000000000000000, -0.4656397218766352708 ) ) ;
#789 = CARTESIAN_POINT ( 'NONE',  ( -8.000000000000000000, 17.99999999999999645, 22.77913325056207228 ) ) ;
#790 = DIRECTION ( 'NONE',  ( 1.000000000000000000, -0.000000000000000000, -0.000000000000000000 ) ) ;
#791 = CARTESIAN_POINT ( 'NONE',  ( -21.00000000000000711, -2.500000000000000000, 61.50000000000000000 ) ) ;
#792 = EDGE_CURVE ( 'NONE', #158, #241, #329, .T. ) ;
#793 = CARTESIAN_POINT ( 'NONE',  ( 3.000000000000000000, 26.00000000000000000, 10.77913325056207228 ) ) ;
#794 = CARTESIAN_POINT ( 'NONE',  ( 0.000000000000000000, 0.000000000000000000, 0.000000000000000000 ) ) ;
#795 = DIRECTION ( 'NONE',  ( 0.000000000000000000, 0.000000000000000000, -1.000000000000000000 ) ) ;
#796 = CARTESIAN_POINT ( 'NONE',  ( 0.000000000000000000, 25.99999999999999645, 24.52913325056207228 ) ) ;
#797 = VECTOR ( 'NONE', #215, 1000.000000000000000 ) ;
#798 = DIRECTION ( 'NONE',  ( 1.000000000000000000, -0.000000000000000000, -0.000000000000000000 ) ) ;
#799 = PRESENTATION_LAYER_ASSIGNMENT (  '', '', ( #840 ) ) ;
#800 = EDGE_LOOP ( 'NONE', ( #761, #276, #747, #848 ) ) ;
#801 = DIRECTION ( 'NONE',  ( -1.000000000000000000, 0.000000000000000000, -0.000000000000000000 ) ) ;
#802 = EDGE_CURVE ( 'NONE', #689, #360, #456, .T. ) ;
#803 = CARTESIAN_POINT ( 'NONE',  ( 3.000000000000000000, 26.00000000000000000, 28.02913325056207228 ) ) ;
#804 = EDGE_CURVE ( 'NONE', #11, #93, #718, .T. ) ;
#805 = DIRECTION ( 'NONE',  ( 0.4656397218766353818, 0.000000000000000000, 0.8849743778272055605 ) ) ;
#806 = ORIENTED_EDGE ( 'NONE', *, *, #671, .F. ) ;
#807 = AXIS2_PLACEMENT_3D ( 'NONE', #177, #24, #838 ) ;
#808 = AXIS2_PLACEMENT_3D ( 'NONE', #181, #857, #785 ) ;
#809 = EDGE_CURVE ( 'NONE', #522, #305, #650, .T. ) ;
#810 = EDGE_LOOP ( 'NONE', ( #23, #564 ) ) ;
#811 = EDGE_LOOP ( 'NONE', ( #414, #743, #521, #606 ) ) ;
#812 = EDGE_CURVE ( 'NONE', #162, #633, #104, .T. ) ;
#813 = CYLINDRICAL_SURFACE ( 'NONE', #211, 4.999999999999997335 ) ;
#814 = FACE_OUTER_BOUND ( 'NONE', #89, .T. ) ;
#815 = ORIENTED_EDGE ( 'NONE', *, *, #415, .T. ) ;
#816 = ORIENTED_EDGE ( 'NONE', *, *, #187, .F. ) ;
#817 = DIRECTION ( 'NONE',  ( 0.000000000000000000, 0.000000000000000000, 1.000000000000000000 ) ) ;
#818 = EDGE_CURVE ( 'NONE', #639, #236, #592, .T. ) ;
#819 = ORIENTED_EDGE ( 'NONE', *, *, #802, .T. ) ;
#820 = VERTEX_POINT ( 'NONE', #196 ) ;
#821 = VECTOR ( 'NONE', #304, 1000.000000000000000 ) ;
#822 = CIRCLE ( 'NONE', #385, 2.249999999999998668 ) ;
#823 = AXIS2_PLACEMENT_3D ( 'NONE', #600, #798, #482 ) ;
#824 = DIRECTION ( 'NONE',  ( 0.000000000000000000, 0.000000000000000000, 1.000000000000000000 ) ) ;
#825 = ORIENTED_EDGE ( 'NONE', *, *, #818, .F. ) ;
#826 = ORIENTED_EDGE ( 'NONE', *, *, #307, .T. ) ;
#827 = EDGE_CURVE ( 'NONE', #522, #776, #123, .T. ) ;
#828 = VERTEX_POINT ( 'NONE', #721 ) ;
#829 = EDGE_LOOP ( 'NONE', ( #629, #79 ) ) ;
#830 = EDGE_LOOP ( 'NONE', ( #80, #826, #450, #441 ) ) ;
#831 = FACE_OUTER_BOUND ( 'NONE', #216, .T. ) ;
#832 = ORIENTED_EDGE ( 'NONE', *, *, #605, .F. ) ;
#833 = CARTESIAN_POINT ( 'NONE',  ( 0.000000000000000000, 26.00000000000000000, 30.27913325056207228 ) ) ;
#834 = DIRECTION ( 'NONE',  ( 0.000000000000000000, 0.000000000000000000, 1.000000000000000000 ) ) ;
#835 = ORIENTED_EDGE ( 'NONE', *, *, #233, .T. ) ;
#836 = VERTEX_POINT ( 'NONE', #861 ) ;
#837 = VECTOR ( 'NONE', #428, 1000.000000000000000 ) ;
#838 = DIRECTION ( 'NONE',  ( 0.000000000000000000, -0.000000000000000000, 1.000000000000000000 ) ) ;
#839 = EDGE_CURVE ( 'NONE', #288, #305, #516, .T. ) ;
#840 = STYLED_ITEM ( 'NONE', ( #72 ), #534 ) ;
#841 = DIRECTION ( 'NONE',  ( 1.000000000000000000, 0.000000000000000000, 0.000000000000000000 ) ) ;
#842 = PLANE ( 'NONE',  #66 ) ;
#843 = ORIENTED_EDGE ( 'NONE', *, *, #589, .F. ) ;
#844 = CARTESIAN_POINT ( 'NONE',  ( 3.000000000000000000, 26.00000000000000000, 30.27913325056207228 ) ) ;
#845 = EDGE_CURVE ( 'NONE', #716, #513, #190, .T. ) ;
#846 = CYLINDRICAL_SURFACE ( 'NONE', #54, 4.000000000000000000 ) ;
#847 = FACE_OUTER_BOUND ( 'NONE', #390, .T. ) ;
#848 = ORIENTED_EDGE ( 'NONE', *, *, #745, .F. ) ;
#849 = FACE_OUTER_BOUND ( 'NONE', #766, .T. ) ;
#850 = LINE ( 'NONE', #47, #624 ) ;
#851 = CARTESIAN_POINT ( 'NONE',  ( 3.000000000000000000, 25.99999999999999645, 20.52913325056207228 ) ) ;
#852 = DIRECTION ( 'NONE',  ( 0.000000000000000000, 0.000000000000000000, -1.000000000000000000 ) ) ;
#853 = EDGE_CURVE ( 'NONE', #556, #169, #670, .T. ) ;
#854 = DIRECTION ( 'NONE',  ( -0.000000000000000000, 0.000000000000000000, 1.000000000000000000 ) ) ;
#855 = CARTESIAN_POINT ( 'NONE',  ( -21.00000000000000711, 52.00000000000000000, 0.000000000000000000 ) ) ;
#856 = PRODUCT_DEFINITION_CONTEXT ( 'detailed design', #762, 'design' ) ;
#857 = DIRECTION ( 'NONE',  ( 0.4656397218766354928, 0.000000000000000000, 0.8849743778272055605 ) ) ;
#858 = CIRCLE ( 'NONE', #228, 2.249999999999998668 ) ;
#859 = ADVANCED_FACE ( 'NONE', ( #535, #33, #315, #578, #774, #179, #452 ), #709, .F. ) ;
#860 = CARTESIAN_POINT ( 'NONE',  ( -21.00000000000000711, 52.00000000000000000, 59.00000000000000000 ) ) ;
#861 = CARTESIAN_POINT ( 'NONE',  ( 0.000000000000000000, 26.00000000000000000, 28.02913325056207228 ) ) ;
#862 = DIRECTION ( 'NONE',  ( 0.000000000000000000, 0.000000000000000000, -1.000000000000000000 ) ) ;
#863 = CARTESIAN_POINT ( 'NONE',  ( -20.43544166397811068, 0.000000000000000000, 60.07297474569944029 ) ) ;
#864 = LINE ( 'NONE', #212, #604 ) ;
#865 = CARTESIAN_POINT ( 'NONE',  ( 0.000000000000000000, 25.99999999999999645, 20.52913325056207228 ) ) ;
#866 = EDGE_CURVE ( 'NONE', #871, #85, #403, .T. ) ;
#867 = VECTOR ( 'NONE', #418, 1000.000000000000000 ) ;
#868 = CIRCLE ( 'NONE', #137, 2.522345351439313710 ) ;
#869 = CARTESIAN_POINT ( 'NONE',  ( -8.000000000000000000, 26.00000000000000000, 28.02913325056207228 ) ) ;
#870 = CARTESIAN_POINT ( 'NONE',  ( 0.000000000000000000, 0.000000000000000000, 0.000000000000000000 ) ) ;
#871 = VERTEX_POINT ( 'NONE', #200 ) ;
#872 = APPLICATION_PROTOCOL_DEFINITION ( 'draft international standard', 'automotive_design', 1998, #762 ) ;
ENDSEC;
END-ISO-10303-21;
