ISO-10303-21;
HEADER;
FILE_DESCRIPTION (( 'STEP AP214' ),
    '1' );
FILE_NAME ('Backup of Component3(Mirror) cf rod.STEP',
    '2026-02-20T17:52:45',
    ( '' ),
    ( '' ),
    'SwSTEP 2.0',
    'SolidWorks 2023',
    '' );
FILE_SCHEMA (( 'AUTOMOTIVE_DESIGN' ));
ENDSEC;

DATA;
#1 = ORIENTED_EDGE ( 'NONE', *, *, #739, .F. ) ;
#2 = DIRECTION ( 'NONE',  ( 1.000000000000000000, 0.000000000000000000, 0.000000000000000000 ) ) ;
#3 = EDGE_CURVE ( 'NONE', #521, #915, #1069, .T. ) ;
#4 = VERTEX_POINT ( 'NONE', #973 ) ;
#5 = DIRECTION ( 'NONE',  ( 1.000000000000000000, 0.000000000000000000, 0.000000000000000000 ) ) ;
#6 = DIRECTION ( 'NONE',  ( 0.000000000000000000, 0.000000000000000000, -1.000000000000000000 ) ) ;
#7 = CARTESIAN_POINT ( 'NONE',  ( 0.000000000000000000, 0.000000000000000000, 7.000000000000000000 ) ) ;
#8 = ORIENTED_EDGE ( 'NONE', *, *, #976, .T. ) ;
#9 = EDGE_CURVE ( 'NONE', #1158, #877, #378, .T. ) ;
#10 = ORIENTED_EDGE ( 'NONE', *, *, #84, .T. ) ;
#11 = EDGE_CURVE ( 'NONE', #450, #235, #1030, .T. ) ;
#12 = VERTEX_POINT ( 'NONE', #769 ) ;
#13 = ORIENTED_EDGE ( 'NONE', *, *, #130, .T. ) ;
#14 = DIRECTION ( 'NONE',  ( 1.000000000000000000, 0.000000000000000000, 0.000000000000000000 ) ) ;
#15 = DIRECTION ( 'NONE',  ( 1.000000000000000000, 0.000000000000000000, 0.000000000000000000 ) ) ;
#16 = EDGE_CURVE ( 'NONE', #501, #738, #1259, .T. ) ;
#17 = CARTESIAN_POINT ( 'NONE',  ( -21.50000000000000000, 2.147658180479529816E-15, 0.000000000000000000 ) ) ;
#18 = ORIENTED_EDGE ( 'NONE', *, *, #357, .F. ) ;
#19 = EDGE_CURVE ( 'NONE', #899, #71, #452, .T. ) ;
#20 = CARTESIAN_POINT ( 'NONE',  ( 13.75000000000000000, -15.50000000000000000, 14.00000000000000000 ) ) ;
#21 = ORIENTED_EDGE ( 'NONE', *, *, #373, .T. ) ;
#22 = AXIS2_PLACEMENT_3D ( 'NONE', #906, #891, #325 ) ;
#23 = ORIENTED_EDGE ( 'NONE', *, *, #754, .T. ) ;
#24 = DIRECTION ( 'NONE',  ( 0.000000000000000000, 0.000000000000000000, -1.000000000000000000 ) ) ;
#25 = DIRECTION ( 'NONE',  ( 1.000000000000000000, 0.000000000000000000, 0.000000000000000000 ) ) ;
#26 = CIRCLE ( 'NONE', #374, 27.50000000000000000 ) ;
#27 = CARTESIAN_POINT ( 'NONE',  ( 13.75000000000000000, -15.50000000000000000, 4.000000000000000000 ) ) ;
#28 = ORIENTED_EDGE ( 'NONE', *, *, #445, .T. ) ;
#29 = FACE_BOUND ( 'NONE', #1251, .T. ) ;
#30 = VECTOR ( 'NONE', #1004, 1000.000000000000000 ) ;
#31 = ORIENTED_EDGE ( 'NONE', *, *, #959, .F. ) ;
#32 = EDGE_CURVE ( 'NONE', #886, #894, #219, .T. ) ;
#33 = ORIENTED_EDGE ( 'NONE', *, *, #9, .T. ) ;
#34 = DIRECTION ( 'NONE',  ( 0.000000000000000000, 0.000000000000000000, -1.000000000000000000 ) ) ;
#35 = FACE_OUTER_BOUND ( 'NONE', #570, .T. ) ;
#36 = CARTESIAN_POINT ( 'NONE',  ( -19.00000000000000000, 2.453819880266370053E-15, 0.000000000000000000 ) ) ;
#37 = ORIENTED_EDGE ( 'NONE', *, *, #16, .F. ) ;
#38 = VECTOR ( 'NONE', #1017, 1000.000000000000000 ) ;
#39 = LINE ( 'NONE', #147, #1226 ) ;
#40 = EDGE_CURVE ( 'NONE', #914, #1195, #689, .T. ) ;
#41 = DIRECTION ( 'NONE',  ( 0.000000000000000000, 0.000000000000000000, -1.000000000000000000 ) ) ;
#42 = DIRECTION ( 'NONE',  ( 1.000000000000000000, 0.000000000000000000, 0.000000000000000000 ) ) ;
#43 = CIRCLE ( 'NONE', #656, 16.00000000000000000 ) ;
#44 = CARTESIAN_POINT ( 'NONE',  ( -15.50000000000000000, -15.50000000000000000, 0.000000000000000000 ) ) ;
#45 = EDGE_LOOP ( 'NONE', ( #297, #1132, #1198, #733 ) ) ;
#46 = CARTESIAN_POINT ( 'NONE',  ( 0.000000000000000000, 0.000000000000000000, 7.000000000000000000 ) ) ;
#47 = VERTEX_POINT ( 'NONE', #685 ) ;
#48 = AXIS2_PLACEMENT_3D ( 'NONE', #463, #756, #879 ) ;
#49 = DIRECTION ( 'NONE',  ( 0.000000000000000000, 0.000000000000000000, -1.000000000000000000 ) ) ;
#50 = CARTESIAN_POINT ( 'NONE',  ( -18.25000000000000000, 15.50000000000000000, 0.000000000000000000 ) ) ;
#51 = CYLINDRICAL_SURFACE ( 'NONE', #589, 1.749999999999999778 ) ;
#52 = ORIENTED_EDGE ( 'NONE', *, *, #515, .F. ) ;
#53 = AXIS2_PLACEMENT_3D ( 'NONE', #567, #476, #680 ) ;
#54 = CARTESIAN_POINT ( 'NONE',  ( 12.75000000000000000, -15.50000000000000000, 4.000000000000000000 ) ) ;
#55 = ADVANCED_FACE ( 'NONE', ( #585 ), #1163, .F. ) ;
#56 = DIRECTION ( 'NONE',  ( 1.000000000000000000, 0.000000000000000000, 0.000000000000000000 ) ) ;
#57 = DIRECTION ( 'NONE',  ( -1.000000000000000000, 0.000000000000000000, 0.000000000000000000 ) ) ;
#58 = UNCERTAINTY_MEASURE_WITH_UNIT (LENGTH_MEASURE( 1.000000000000000082E-05 ), #541, 'distance_accuracy_value', 'NONE');
#59 = CIRCLE ( 'NONE', #810, 2.749999999999999112 ) ;
#60 = EDGE_LOOP ( 'NONE', ( #28, #678 ) ) ;
#61 = CYLINDRICAL_SURFACE ( 'NONE', #349, 25.00000000000000000 ) ;
#62 = DIRECTION ( 'NONE',  ( 0.000000000000000000, 0.000000000000000000, -1.000000000000000000 ) ) ;
#63 = EDGE_CURVE ( 'NONE', #1117, #235, #1080, .T. ) ;
#64 = VECTOR ( 'NONE', #1113, 1000.000000000000000 ) ;
#65 = DIRECTION ( 'NONE',  ( 1.000000000000000000, 0.000000000000000000, 0.000000000000000000 ) ) ;
#66 = DIRECTION ( 'NONE',  ( 1.000000000000000000, 0.000000000000000000, 0.000000000000000000 ) ) ;
#67 = ORIENTED_EDGE ( 'NONE', *, *, #1185, .T. ) ;
#68 = EDGE_CURVE ( 'NONE', #47, #121, #874, .T. ) ;
#69 = EDGE_CURVE ( 'NONE', #1186, #396, #303, .T. ) ;
#70 = DIRECTION ( 'NONE',  ( 0.000000000000000000, 0.000000000000000000, -1.000000000000000000 ) ) ;
#71 = VERTEX_POINT ( 'NONE', #1249 ) ;
#72 = AXIS2_PLACEMENT_3D ( 'NONE', #103, #713, #1106 ) ;
#73 = CARTESIAN_POINT ( 'NONE',  ( -15.50000000000000000, -15.50000000000000000, 4.000000000000000000 ) ) ;
#74 = AXIS2_PLACEMENT_3D ( 'NONE', #967, #1047, #66 ) ;
#75 = AXIS2_PLACEMENT_3D ( 'NONE', #1233, #526, #1217 ) ;
#76 = FACE_BOUND ( 'NONE', #389, .T. ) ;
#77 = ORIENTED_EDGE ( 'NONE', *, *, #783, .T. ) ;
#78 = DIRECTION ( 'NONE',  ( 0.000000000000000000, 0.000000000000000000, -1.000000000000000000 ) ) ;
#79 = CARTESIAN_POINT ( 'NONE',  ( 8.005467014174450598E-16, 21.50000000000000000, 14.00000000000000000 ) ) ;
#80 = AXIS2_PLACEMENT_3D ( 'NONE', #859, #266, #1052 ) ;
#81 = PLANE ( 'NONE',  #559 ) ;
#82 = DIRECTION ( 'NONE',  ( 0.000000000000000000, 0.000000000000000000, -1.000000000000000000 ) ) ;
#83 = CARTESIAN_POINT ( 'NONE',  ( 18.25000000000000000, 15.50000000000000000, 4.000000000000000000 ) ) ;
#84 = EDGE_CURVE ( 'NONE', #980, #544, #1175, .T. ) ;
#85 = CARTESIAN_POINT ( 'NONE',  ( -2.500000000000000000, 21.50000000000000000, 0.000000000000000000 ) ) ;
#86 = AXIS2_PLACEMENT_3D ( 'NONE', #524, #1114, #923 ) ;
#87 = CARTESIAN_POINT ( 'NONE',  ( -3.494769659541620390E-15, -21.50000000000000000, 0.000000000000000000 ) ) ;
#88 = DIRECTION ( 'NONE',  ( 1.000000000000000000, 0.000000000000000000, 0.000000000000000000 ) ) ;
#89 = AXIS2_PLACEMENT_3D ( 'NONE', #165, #1067, #1146 ) ;
#90 = AXIS2_PLACEMENT_3D ( 'NONE', #1035, #925, #57 ) ;
#91 = CARTESIAN_POINT ( 'NONE',  ( -15.50000000000000000, -15.50000000000000000, 4.000000000000000000 ) ) ;
#92 = DIRECTION ( 'NONE',  ( 1.000000000000000000, 0.000000000000000000, 0.000000000000000000 ) ) ;
#93 = DIRECTION ( 'NONE',  ( 1.000000000000000000, 0.000000000000000000, 0.000000000000000000 ) ) ;
#94 = DIRECTION ( 'NONE',  ( 0.000000000000000000, 0.000000000000000000, -1.000000000000000000 ) ) ;
#95 = CIRCLE ( 'NONE', #312, 1.750000000000001554 ) ;
#96 = ORIENTED_EDGE ( 'NONE', *, *, #602, .F. ) ;
#97 = CARTESIAN_POINT ( 'NONE',  ( -12.75000000000000000, 15.50000000000000000, 0.000000000000000000 ) ) ;
#98 = CIRCLE ( 'NONE', #545, 1.750000000000001554 ) ;
#99 = ORIENTED_EDGE ( 'NONE', *, *, #1185, .F. ) ;
#100 = CARTESIAN_POINT ( 'NONE',  ( -3.494769659541620390E-15, -21.50000000000000000, 14.00000000000000000 ) ) ;
#101 = DIRECTION ( 'NONE',  ( 0.000000000000000000, 0.000000000000000000, -1.000000000000000000 ) ) ;
#102 = ADVANCED_FACE ( 'NONE', ( #574 ), #866, .F. ) ;
#103 = CARTESIAN_POINT ( 'NONE',  ( -15.50000000000000000, -15.50000000000000000, 14.00000000000000000 ) ) ;
#104 = ORIENTED_EDGE ( 'NONE', *, *, #375, .T. ) ;
#105 = EDGE_LOOP ( 'NONE', ( #702, #727, #33, #108 ) ) ;
#106 = EDGE_LOOP ( 'NONE', ( #937, #517, #817, #648 ) ) ;
#107 = ADVANCED_FACE ( 'NONE', ( #609 ), #704, .T. ) ;
#108 = ORIENTED_EDGE ( 'NONE', *, *, #968, .F. ) ;
#109 = DIRECTION ( 'NONE',  ( -1.000000000000000000, 0.000000000000000000, 0.000000000000000000 ) ) ;
#110 = CARTESIAN_POINT ( 'NONE',  ( 0.000000000000000000, 0.000000000000000000, 0.000000000000000000 ) ) ;
#111 = CARTESIAN_POINT ( 'NONE',  ( 0.000000000000000000, 0.000000000000000000, 7.000000000000000000 ) ) ;
#112 = AXIS2_PLACEMENT_3D ( 'NONE', #637, #540, #65 ) ;
#113 = DIRECTION ( 'NONE',  ( 0.000000000000000000, 0.000000000000000000, -1.000000000000000000 ) ) ;
#114 = ORIENTED_EDGE ( 'NONE', *, *, #436, .T. ) ;
#115 = AXIS2_PLACEMENT_3D ( 'NONE', #1199, #788, #5 ) ;
#116 = ORIENTED_EDGE ( 'NONE', *, *, #457, .F. ) ;
#117 = CARTESIAN_POINT ( 'NONE',  ( -2.500000000000000000, -21.50000000000000000, 0.000000000000000000 ) ) ;
#118 = CARTESIAN_POINT ( 'NONE',  ( -25.00000000000000000, -3.061616997868384620E-15, 0.000000000000000000 ) ) ;
#119 = CARTESIAN_POINT ( 'NONE',  ( -15.50000000000000000, 15.50000000000000000, 0.000000000000000000 ) ) ;
#120 = EDGE_LOOP ( 'NONE', ( #787, #1092 ) ) ;
#121 = VERTEX_POINT ( 'NONE', #316 ) ;
#122 = LINE ( 'NONE', #1220, #189 ) ;
#123 = PRODUCT_DEFINITION ( 'UNKNOWN', '', #145, #737 ) ;
#124 = ORIENTED_EDGE ( 'NONE', *, *, #834, .T. ) ;
#125 = DIRECTION ( 'NONE',  ( 1.000000000000000000, 0.000000000000000000, 0.000000000000000000 ) ) ;
#126 = DIRECTION ( 'NONE',  ( 0.000000000000000000, 0.000000000000000000, -1.000000000000000000 ) ) ;
#127 = VECTOR ( 'NONE', #101, 1000.000000000000000 ) ;
#128 = CARTESIAN_POINT ( 'NONE',  ( 15.50000000000000000, -15.50000000000000000, 0.000000000000000000 ) ) ;
#129 = DIRECTION ( 'NONE',  ( 1.000000000000000000, 0.000000000000000000, 0.000000000000000000 ) ) ;
#130 = EDGE_CURVE ( 'NONE', #842, #1158, #284, .T. ) ;
#131 = EDGE_LOOP ( 'NONE', ( #892, #709 ) ) ;
#132 = ORIENTED_EDGE ( 'NONE', *, *, #913, .T. ) ;
#133 = CARTESIAN_POINT ( 'NONE',  ( 24.00000000000000000, -4.535719438816869938E-15, 14.00000000000000000 ) ) ;
#134 = ORIENTED_EDGE ( 'NONE', *, *, #214, .T. ) ;
#135 = CARTESIAN_POINT ( 'NONE',  ( -15.50000000000000000, 15.50000000000000000, 0.000000000000000000 ) ) ;
#136 = CARTESIAN_POINT ( 'NONE',  ( 12.75000000000000000, -15.50000000000000000, 0.000000000000000000 ) ) ;
#137 = CARTESIAN_POINT ( 'NONE',  ( 12.75000000000000000, -15.50000000000000000, 0.000000000000000000 ) ) ;
#138 = ORIENTED_EDGE ( 'NONE', *, *, #579, .F. ) ;
#139 = CARTESIAN_POINT ( 'NONE',  ( 13.75000000000000000, 15.50000000000000000, 14.00000000000000000 ) ) ;
#140 = ORIENTED_EDGE ( 'NONE', *, *, #373, .F. ) ;
#141 = CARTESIAN_POINT ( 'NONE',  ( -17.25000000000000000, 15.50000000000000000, 14.00000000000000000 ) ) ;
#142 = DIRECTION ( 'NONE',  ( 0.000000000000000000, 0.000000000000000000, -1.000000000000000000 ) ) ;
#143 = AXIS2_PLACEMENT_3D ( 'NONE', #398, #82, #92 ) ;
#144 = CARTESIAN_POINT ( 'NONE',  ( 21.50000000000000000, -4.841881138603709386E-15, 0.000000000000000000 ) ) ;
#145 = PRODUCT_DEFINITION_FORMATION_WITH_SPECIFIED_SOURCE ( 'ANY', '', #876, .NOT_KNOWN. ) ;
#146 = VERTEX_POINT ( 'NONE', #523 ) ;
#147 = CARTESIAN_POINT ( 'NONE',  ( 13.75000000000000000, -15.50000000000000000, 0.000000000000000000 ) ) ;
#148 = CIRCLE ( 'NONE', #753, 27.50000000000000000 ) ;
#149 = EDGE_LOOP ( 'NONE', ( #766, #1008 ) ) ;
#150 = EDGE_CURVE ( 'NONE', #899, #816, #1191, .T. ) ;
#151 = CARTESIAN_POINT ( 'NONE',  ( 27.50000000000000000, 0.000000000000000000, 14.00000000000000000 ) ) ;
#152 = LINE ( 'NONE', #137, #793 ) ;
#153 = ADVANCED_FACE ( 'NONE', ( #695 ), #205, .F. ) ;
#154 = EDGE_LOOP ( 'NONE', ( #415, #77, #1227, #134 ) ) ;
#155 = EDGE_CURVE ( 'NONE', #221, #1066, #716, .T. ) ;
#156 = CARTESIAN_POINT ( 'NONE',  ( 15.50000000000000000, 15.50000000000000000, 4.000000000000000000 ) ) ;
#157 = PLANE ( 'NONE',  #751 ) ;
#158 = CIRCLE ( 'NONE', #942, 1.749999999999999778 ) ;
#159 = ORIENTED_EDGE ( 'NONE', *, *, #436, .F. ) ;
#160 = FACE_OUTER_BOUND ( 'NONE', #468, .T. ) ;
#161 = AXIS2_PLACEMENT_3D ( 'NONE', #994, #513, #14 ) ;
#162 = CIRCLE ( 'NONE', #820, 25.00000000000000000 ) ;
#163 = EDGE_CURVE ( 'NONE', #1195, #1023, #811, .T. ) ;
#164 = ADVANCED_FACE ( 'NONE', ( #308 ), #1206, .T. ) ;
#165 = CARTESIAN_POINT ( 'NONE',  ( -15.50000000000000000, 15.50000000000000000, 0.000000000000000000 ) ) ;
#166 = ORIENTED_EDGE ( 'NONE', *, *, #84, .F. ) ;
#167 = CIRCLE ( 'NONE', #878, 14.00000000000000000 ) ;
#168 = PRESENTATION_STYLE_ASSIGNMENT (( #249 ) ) ;
#169 = AXIS2_PLACEMENT_3D ( 'NONE', #337, #1124, #800 ) ;
#170 = DIRECTION ( 'NONE',  ( 0.000000000000000000, 0.000000000000000000, 1.000000000000000000 ) ) ;
#171 = ORIENTED_EDGE ( 'NONE', *, *, #11, .F. ) ;
#172 = DIRECTION ( 'NONE',  ( 1.000000000000000000, 0.000000000000000000, 0.000000000000000000 ) ) ;
#173 = CARTESIAN_POINT ( 'NONE',  ( 13.75000000000000000, 15.50000000000000000, 4.000000000000000000 ) ) ;
#174 = CARTESIAN_POINT ( 'NONE',  ( 19.00000000000000000, -4.841881138603709386E-15, 0.000000000000000000 ) ) ;
#175 = FACE_OUTER_BOUND ( 'NONE', #154, .T. ) ;
#176 = EDGE_CURVE ( 'NONE', #521, #801, #193, .T. ) ;
#177 = FACE_BOUND ( 'NONE', #489, .T. ) ;
#178 = ORIENTED_EDGE ( 'NONE', *, *, #243, .F. ) ;
#179 = DIRECTION ( 'NONE',  ( 0.000000000000000000, 0.000000000000000000, -1.000000000000000000 ) ) ;
#180 = CARTESIAN_POINT ( 'NONE',  ( 13.75000000000000000, 15.50000000000000000, 0.000000000000000000 ) ) ;
#181 = AXIS2_PLACEMENT_3D ( 'NONE', #1086, #1179, #684 ) ;
#182 = ADVANCED_FACE ( 'NONE', ( #419 ), #332, .F. ) ;
#183 = ORIENTED_EDGE ( 'NONE', *, *, #16, .T. ) ;
#184 = FACE_BOUND ( 'NONE', #383, .T. ) ;
#185 = CARTESIAN_POINT ( 'NONE',  ( -15.50000000000000000, -15.50000000000000000, 4.000000000000000000 ) ) ;
#186 = FACE_BOUND ( 'NONE', #330, .T. ) ;
#187 = ORIENTED_EDGE ( 'NONE', *, *, #550, .F. ) ;
#188 = DIRECTION ( 'NONE',  ( 1.000000000000000000, 0.000000000000000000, 0.000000000000000000 ) ) ;
#189 = VECTOR ( 'NONE', #732, 1000.000000000000000 ) ;
#190 = CARTESIAN_POINT ( 'NONE',  ( 15.50000000000000000, -15.50000000000000000, 4.000000000000000000 ) ) ;
#191 = FACE_OUTER_BOUND ( 'NONE', #470, .T. ) ;
#192 = EDGE_LOOP ( 'NONE', ( #1147, #138 ) ) ;
#193 = CIRCLE ( 'NONE', #1079, 2.499999999999998668 ) ;
#194 = ORIENTED_EDGE ( 'NONE', *, *, #673, .T. ) ;
#195 = VECTOR ( 'NONE', #890, 1000.000000000000000 ) ;
#196 = CARTESIAN_POINT ( 'NONE',  ( 15.50000000000000000, -15.50000000000000000, 4.000000000000000000 ) ) ;
#197 = EDGE_LOOP ( 'NONE', ( #335, #99 ) ) ;
#198 = CYLINDRICAL_SURFACE ( 'NONE', #362, 2.749999999999999112 ) ;
#199 = CIRCLE ( 'NONE', #338, 2.499999999999998668 ) ;
#200 = EDGE_LOOP ( 'NONE', ( #809, #1073, #639, #477 ) ) ;
#201 = EDGE_LOOP ( 'NONE', ( #919, #1231 ) ) ;
#202 = CARTESIAN_POINT ( 'NONE',  ( 15.50000000000000000, 15.50000000000000000, 14.00000000000000000 ) ) ;
#203 = CIRCLE ( 'NONE', #744, 2.500000000000000000 ) ;
#204 = ORIENTED_EDGE ( 'NONE', *, *, #457, .T. ) ;
#205 = CYLINDRICAL_SURFACE ( 'NONE', #245, 2.749999999999999112 ) ;
#206 = FACE_OUTER_BOUND ( 'NONE', #593, .T. ) ;
#207 = DIRECTION ( 'NONE',  ( 1.000000000000000000, 0.000000000000000000, 0.000000000000000000 ) ) ;
#208 = FACE_OUTER_BOUND ( 'NONE', #385, .T. ) ;
#209 = EDGE_LOOP ( 'NONE', ( #132, #792, #96, #104 ) ) ;
#210 = ORIENTED_EDGE ( 'NONE', *, *, #735, .F. ) ;
#211 = DIRECTION ( 'NONE',  ( 0.000000000000000000, 0.000000000000000000, -1.000000000000000000 ) ) ;
#212 = DIRECTION ( 'NONE',  ( 0.000000000000000000, 0.000000000000000000, -1.000000000000000000 ) ) ;
#213 = LINE ( 'NONE', #611, #30 ) ;
#214 = EDGE_CURVE ( 'NONE', #698, #694, #43, .T. ) ;
#215 = ORIENTED_EDGE ( 'NONE', *, *, #1058, .T. ) ;
#216 = CARTESIAN_POINT ( 'NONE',  ( -12.75000000000000000, -15.50000000000000000, 0.000000000000000000 ) ) ;
#217 = CIRCLE ( 'NONE', #1203, 2.749999999999999112 ) ;
#218 = ORIENTED_EDGE ( 'NONE', *, *, #1026, .T. ) ;
#219 = CIRCLE ( 'NONE', #946, 2.749999999999999112 ) ;
#220 = EDGE_CURVE ( 'NONE', #71, #899, #329, .T. ) ;
#221 = VERTEX_POINT ( 'NONE', #1019 ) ;
#222 = DIRECTION ( 'NONE',  ( 0.000000000000000000, 0.000000000000000000, -1.000000000000000000 ) ) ;
#223 = CYLINDRICAL_SURFACE ( 'NONE', #1260, 1.749999999999999778 ) ;
#224 = FACE_OUTER_BOUND ( 'NONE', #700, .T. ) ;
#225 = DIRECTION ( 'NONE',  ( 1.000000000000000000, 0.000000000000000000, 0.000000000000000000 ) ) ;
#226 = ORIENTED_EDGE ( 'NONE', *, *, #976, .F. ) ;
#227 = EDGE_CURVE ( 'NONE', #801, #743, #796, .T. ) ;
#228 = VERTEX_POINT ( 'NONE', #376 ) ;
#229 = DIRECTION ( 'NONE',  ( 0.000000000000000000, 0.000000000000000000, 1.000000000000000000 ) ) ;
#230 = DIRECTION ( 'NONE',  ( 0.000000000000000000, 0.000000000000000000, -1.000000000000000000 ) ) ;
#231 = CARTESIAN_POINT ( 'NONE',  ( -2.500000000000000000, 21.50000000000000000, 14.00000000000000000 ) ) ;
#232 = CIRCLE ( 'NONE', #331, 1.750000000000001554 ) ;
#233 = CYLINDRICAL_SURFACE ( 'NONE', #112, 14.00000000000000000 ) ;
#234 = CYLINDRICAL_SURFACE ( 'NONE', #1032, 2.499999999999998668 ) ;
#235 = VERTEX_POINT ( 'NONE', #951 ) ;
#236 = CARTESIAN_POINT ( 'NONE',  ( -19.00000000000000000, 2.453819880266370053E-15, 14.00000000000000000 ) ) ;
#237 = ORIENTED_EDGE ( 'NONE', *, *, #626, .F. ) ;
#238 = DIRECTION ( 'NONE',  ( 0.000000000000000000, 0.000000000000000000, -1.000000000000000000 ) ) ;
#239 = DIRECTION ( 'NONE',  ( 0.000000000000000000, 0.000000000000000000, -1.000000000000000000 ) ) ;
#240 = CARTESIAN_POINT ( 'NONE',  ( 0.000000000000000000, 0.000000000000000000, 0.000000000000000000 ) ) ;
#241 = EDGE_CURVE ( 'NONE', #1266, #698, #677, .T. ) ;
#242 = CYLINDRICAL_SURFACE ( 'NONE', #394, 2.749999999999999112 ) ;
#243 = EDGE_CURVE ( 'NONE', #146, #1262, #841, .T. ) ;
#244 = CARTESIAN_POINT ( 'NONE',  ( 18.25000000000000000, -15.50000000000000000, 0.000000000000000000 ) ) ;
#245 = AXIS2_PLACEMENT_3D ( 'NONE', #916, #601, #125 ) ;
#246 = CARTESIAN_POINT ( 'NONE',  ( -24.00000000000000000, 2.147658180479529816E-15, 0.000000000000000000 ) ) ;
#247 = AXIS2_PLACEMENT_3D ( 'NONE', #1108, #547, #225 ) ;
#248 = ORIENTED_EDGE ( 'NONE', *, *, #692, .F. ) ;
#249 = SURFACE_STYLE_USAGE ( .BOTH. , #1130 ) ;
#250 = ADVANCED_FACE ( 'NONE', ( #569 ), #576, .F. ) ;
#251 = ORIENTED_EDGE ( 'NONE', *, *, #692, .T. ) ;
#252 = CIRCLE ( 'NONE', #48, 2.500000000000000000 ) ;
#253 = FACE_OUTER_BOUND ( 'NONE', #555, .T. ) ;
#254 = CARTESIAN_POINT ( 'NONE',  ( 27.50000000000000000, 0.000000000000000000, 7.000000000000000000 ) ) ;
#255 = ORIENTED_EDGE ( 'NONE', *, *, #68, .F. ) ;
#256 = FACE_OUTER_BOUND ( 'NONE', #106, .T. ) ;
#257 = ORIENTED_EDGE ( 'NONE', *, *, #808, .F. ) ;
#258 = SHAPE_DEFINITION_REPRESENTATION ( #484, #282 ) ;
#259 = ADVANCED_FACE ( 'NONE', ( #961 ), #390, .F. ) ;
#260 = EDGE_CURVE ( 'NONE', #615, #496, #1209, .T. ) ;
#261 = AXIS2_PLACEMENT_3D ( 'NONE', #948, #746, #1236 ) ;
#262 = FACE_BOUND ( 'NONE', #192, .T. ) ;
#263 = ADVANCED_FACE ( 'NONE', ( #1143 ), #382, .F. ) ;
#264 = VECTOR ( 'NONE', #762, 1000.000000000000000 ) ;
#265 = CIRCLE ( 'NONE', #690, 2.499999999999998668 ) ;
#266 = DIRECTION ( 'NONE',  ( 0.000000000000000000, 0.000000000000000000, 1.000000000000000000 ) ) ;
#267 = EDGE_LOOP ( 'NONE', ( #116, #1009, #652, #898 ) ) ;
#268 = AXIS2_PLACEMENT_3D ( 'NONE', #196, #591, #984 ) ;
#269 = FACE_BOUND ( 'NONE', #391, .T. ) ;
#270 = CIRCLE ( 'NONE', #1246, 2.749999999999999112 ) ;
#271 = CARTESIAN_POINT ( 'NONE',  ( 0.000000000000000000, 0.000000000000000000, 7.000000000000000000 ) ) ;
#272 = EDGE_LOOP ( 'NONE', ( #183, #1238 ) ) ;
#273 = CARTESIAN_POINT ( 'NONE',  ( 0.000000000000000000, 0.000000000000000000, 0.000000000000000000 ) ) ;
#274 = EDGE_LOOP ( 'NONE', ( #302, #1120 ) ) ;
#275 = CYLINDRICAL_SURFACE ( 'NONE', #885, 1.750000000000001554 ) ;
#276 = ADVANCED_FACE ( 'NONE', ( #467 ), #1063, .F. ) ;
#277 = EDGE_CURVE ( 'NONE', #577, #645, #646, .T. ) ;
#278 = AXIS2_PLACEMENT_3D ( 'NONE', #1223, #448, #56 ) ;
#279 = CARTESIAN_POINT ( 'NONE',  ( 15.50000000000000000, -15.50000000000000000, 0.000000000000000000 ) ) ;
#280 = EDGE_CURVE ( 'NONE', #703, #1152, #955, .T. ) ;
#281 = DIRECTION ( 'NONE',  ( -1.000000000000000000, 0.000000000000000000, 0.000000000000000000 ) ) ;
#282 = ADVANCED_BREP_SHAPE_REPRESENTATION ( 'Backup of Component3(Mirror) cf rod', ( #993, #433 ), #571 ) ;
#283 = DIRECTION ( 'NONE',  ( 0.000000000000000000, -1.000000000000000000, 0.000000000000000000 ) ) ;
#284 = CIRCLE ( 'NONE', #432, 1.749999999999999778 ) ;
#285 = VERTEX_POINT ( 'NONE', #173 ) ;
#286 = EDGE_CURVE ( 'NONE', #801, #521, #199, .T. ) ;
#287 = DIRECTION ( 'NONE',  ( 0.000000000000000000, 0.000000000000000000, -1.000000000000000000 ) ) ;
#288 = VERTEX_POINT ( 'NONE', #560 ) ;
#289 = FILL_AREA_STYLE ('',( #1164 ) ) ;
#290 = VERTEX_POINT ( 'NONE', #85 ) ;
#291 = AXIS2_PLACEMENT_3D ( 'NONE', #110, #420, #1011 ) ;
#292 = DIRECTION ( 'NONE',  ( 1.000000000000000000, 0.000000000000000000, 0.000000000000000000 ) ) ;
#293 = EDGE_LOOP ( 'NONE', ( #999, #510, #1084, #350 ) ) ;
#294 = CARTESIAN_POINT ( 'NONE',  ( -21.50000000000000000, 2.147658180479529816E-15, 0.000000000000000000 ) ) ;
#295 = DIRECTION ( 'NONE',  ( 1.000000000000000000, 0.000000000000000000, 0.000000000000000000 ) ) ;
#296 = ADVANCED_FACE ( 'NONE', ( #479, #262, #184, #872, #76, #657, #1237, #177, #1247, #363 ), #81, .F. ) ;
#297 = ORIENTED_EDGE ( 'NONE', *, *, #1139, .F. ) ;
#298 = DIRECTION ( 'NONE',  ( 0.000000000000000000, 0.000000000000000000, -1.000000000000000000 ) ) ;
#299 = CARTESIAN_POINT ( 'NONE',  ( -21.50000000000000000, 2.147658180479529816E-15, 0.000000000000000000 ) ) ;
#300 = DIRECTION ( 'NONE',  ( 0.000000000000000000, 0.000000000000000000, 1.000000000000000000 ) ) ;
#301 = FACE_BOUND ( 'NONE', #666, .T. ) ;
#302 = ORIENTED_EDGE ( 'NONE', *, *, #1044, .T. ) ;
#303 = CIRCLE ( 'NONE', #1181, 2.499999999999998668 ) ;
#304 = ORIENTED_EDGE ( 'NONE', *, *, #552, .F. ) ;
#305 = AXIS2_PLACEMENT_3D ( 'NONE', #940, #354, #644 ) ;
#306 = CARTESIAN_POINT ( 'NONE',  ( -19.00000000000000000, 2.453819880266370053E-15, 0.000000000000000000 ) ) ;
#307 = ORIENTED_EDGE ( 'NONE', *, *, #1077, .T. ) ;
#308 = FACE_OUTER_BOUND ( 'NONE', #209, .T. ) ;
#309 = PLANE ( 'NONE',  #962 ) ;
#310 = DIRECTION ( 'NONE',  ( 0.000000000000000000, 0.000000000000000000, -1.000000000000000000 ) ) ;
#311 = ORIENTED_EDGE ( 'NONE', *, *, #847, .T. ) ;
#312 = AXIS2_PLACEMENT_3D ( 'NONE', #1167, #777, #292 ) ;
#313 = CARTESIAN_POINT ( 'NONE',  ( 18.25000000000000000, -15.50000000000000000, 4.000000000000000000 ) ) ;
#314 = VERTEX_POINT ( 'NONE', #670 ) ;
#315 = VERTEX_POINT ( 'NONE', #367 ) ;
#316 = CARTESIAN_POINT ( 'NONE',  ( 17.25000000000000000, 15.50000000000000000, 4.000000000000000000 ) ) ;
#317 = CARTESIAN_POINT ( 'NONE',  ( -12.75000000000000000, -15.50000000000000000, 0.000000000000000000 ) ) ;
#318 = DIRECTION ( 'NONE',  ( 0.000000000000000000, 0.000000000000000000, -1.000000000000000000 ) ) ;
#319 = EDGE_LOOP ( 'NONE', ( #1025, #1096 ) ) ;
#320 = ORIENTED_EDGE ( 'NONE', *, *, #380, .T. ) ;
#321 = DIRECTION ( 'NONE',  ( 1.000000000000000000, 0.000000000000000000, 0.000000000000000000 ) ) ;
#322 = EDGE_CURVE ( 'NONE', #731, #1262, #865, .T. ) ;
#323 = CARTESIAN_POINT ( 'NONE',  ( 24.00000000000000000, -4.535719438816869938E-15, 0.000000000000000000 ) ) ;
#324 = FACE_OUTER_BOUND ( 'NONE', #200, .T. ) ;
#325 = DIRECTION ( 'NONE',  ( 1.000000000000000000, 0.000000000000000000, 0.000000000000000000 ) ) ;
#326 = AXIS2_PLACEMENT_3D ( 'NONE', #930, #49, #829 ) ;
#327 = ORIENTED_EDGE ( 'NONE', *, *, #357, .T. ) ;
#328 = DIRECTION ( 'NONE',  ( 0.000000000000000000, 0.000000000000000000, -1.000000000000000000 ) ) ;
#329 = CIRCLE ( 'NONE', #979, 2.500000000000000000 ) ;
#330 = EDGE_LOOP ( 'NONE', ( #429, #1083 ) ) ;
#331 = AXIS2_PLACEMENT_3D ( 'NONE', #1074, #300, #409 ) ;
#332 = CYLINDRICAL_SURFACE ( 'NONE', #642, 2.500000000000000000 ) ;
#333 = CARTESIAN_POINT ( 'NONE',  ( 15.50000000000000000, 15.50000000000000000, 4.000000000000000000 ) ) ;
#334 = DIRECTION ( 'NONE',  ( 0.000000000000000000, 0.000000000000000000, -1.000000000000000000 ) ) ;
#335 = ORIENTED_EDGE ( 'NONE', *, *, #1210, .F. ) ;
#336 = ORIENTED_EDGE ( 'NONE', *, *, #220, .T. ) ;
#337 = CARTESIAN_POINT ( 'NONE',  ( -3.494769659541620390E-15, -21.50000000000000000, 0.000000000000000000 ) ) ;
#338 = AXIS2_PLACEMENT_3D ( 'NONE', #1151, #70, #848 ) ;
#339 = CYLINDRICAL_SURFACE ( 'NONE', #612, 2.749999999999999112 ) ;
#340 = VECTOR ( 'NONE', #614, 1000.000000000000000 ) ;
#341 = CARTESIAN_POINT ( 'NONE',  ( -16.00000000000000000, -1.959434878635765131E-15, 0.000000000000000000 ) ) ;
#342 = CARTESIAN_POINT ( 'NONE',  ( -15.50000000000000000, 15.50000000000000000, 4.000000000000000000 ) ) ;
#343 = ORIENTED_EDGE ( 'NONE', *, *, #1094, .F. ) ;
#344 = DIRECTION ( 'NONE',  ( 1.000000000000000000, 0.000000000000000000, 0.000000000000000000 ) ) ;
#345 = EDGE_CURVE ( 'NONE', #910, #691, #252, .T. ) ;
#346 = ORIENTED_EDGE ( 'NONE', *, *, #286, .F. ) ;
#347 = DIRECTION ( 'NONE',  ( 1.000000000000000000, 0.000000000000000000, 0.000000000000000000 ) ) ;
#348 = CARTESIAN_POINT ( 'NONE',  ( -25.00000000000000000, -3.061616997868384620E-15, 0.000000000000000000 ) ) ;
#349 = AXIS2_PLACEMENT_3D ( 'NONE', #453, #435, #1134 ) ;
#350 = ORIENTED_EDGE ( 'NONE', *, *, #1210, .T. ) ;
#351 = FACE_BOUND ( 'NONE', #1001, .T. ) ;
#352 = ORIENTED_EDGE ( 'NONE', *, *, #40, .F. ) ;
#353 = DIRECTION ( 'NONE',  ( -1.000000000000000000, 0.000000000000000000, 0.000000000000000000 ) ) ;
#354 = DIRECTION ( 'NONE',  ( 0.000000000000000000, 0.000000000000000000, -1.000000000000000000 ) ) ;
#355 = VERTEX_POINT ( 'NONE', #97 ) ;
#356 = DIRECTION ( 'NONE',  ( 0.000000000000000000, 0.000000000000000000, -1.000000000000000000 ) ) ;
#357 = EDGE_CURVE ( 'NONE', #1262, #146, #167, .T. ) ;
#358 = FACE_BOUND ( 'NONE', #707, .T. ) ;
#359 = COLOUR_RGB ( '',0.7921568627450980005, 0.8196078431372548767, 0.9333333333333333481 ) ;
#360 = EDGE_CURVE ( 'NONE', #1195, #914, #755, .T. ) ;
#361 = CARTESIAN_POINT ( 'NONE',  ( -18.25000000000000000, 15.50000000000000000, 4.000000000000000000 ) ) ;
#362 = AXIS2_PLACEMENT_3D ( 'NONE', #406, #525, #918 ) ;
#363 = FACE_OUTER_BOUND ( 'NONE', #197, .T. ) ;
#364 = ORIENTED_EDGE ( 'NONE', *, *, #718, .F. ) ;
#365 = AXIS2_PLACEMENT_3D ( 'NONE', #1135, #454, #1039 ) ;
#366 = CIRCLE ( 'NONE', #542, 2.499999999999998668 ) ;
#367 = CARTESIAN_POINT ( 'NONE',  ( 14.00000000000000000, 0.000000000000000000, 14.00000000000000000 ) ) ;
#368 = VERTEX_POINT ( 'NONE', #1172 ) ;
#369 = AXIS2_PLACEMENT_3D ( 'NONE', #128, #1193, #596 ) ;
#370 = ORIENTED_EDGE ( 'NONE', *, *, #913, .F. ) ;
#371 = DIRECTION ( 'NONE',  ( 1.000000000000000000, 0.000000000000000000, 0.000000000000000000 ) ) ;
#372 = DIRECTION ( 'NONE',  ( 0.000000000000000000, 0.000000000000000000, 1.000000000000000000 ) ) ;
#373 = EDGE_CURVE ( 'NONE', #694, #698, #661, .T. ) ;
#374 = AXIS2_PLACEMENT_3D ( 'NONE', #833, #1160, #379 ) ;
#375 = EDGE_CURVE ( 'NONE', #645, #802, #977, .T. ) ;
#376 = CARTESIAN_POINT ( 'NONE',  ( -13.75000000000000000, 15.50000000000000000, 4.000000000000000000 ) ) ;
#377 = ORIENTED_EDGE ( 'NONE', *, *, #602, .T. ) ;
#378 = LINE ( 'NONE', #780, #534 ) ;
#379 = DIRECTION ( 'NONE',  ( 1.000000000000000000, 0.000000000000000000, 0.000000000000000000 ) ) ;
#380 = EDGE_CURVE ( 'NONE', #496, #615, #492, .T. ) ;
#381 = AXIS2_PLACEMENT_3D ( 'NONE', #333, #531, #721 ) ;
#382 = CYLINDRICAL_SURFACE ( 'NONE', #1234, 2.749999999999999112 ) ;
#383 = EDGE_LOOP ( 'NONE', ( #486, #187 ) ) ;
#384 = ORIENTED_EDGE ( 'NONE', *, *, #509, .T. ) ;
#385 = EDGE_LOOP ( 'NONE', ( #1016, #307, #67, #1197 ) ) ;
#386 = DIRECTION ( 'NONE',  ( 1.000000000000000000, 0.000000000000000000, 0.000000000000000000 ) ) ;
#387 = AXIS2_PLACEMENT_3D ( 'NONE', #745, #1228, #42 ) ;
#388 = AXIS2_PLACEMENT_3D ( 'NONE', #185, #760, #963 ) ;
#389 = EDGE_LOOP ( 'NONE', ( #584, #590 ) ) ;
#390 = CYLINDRICAL_SURFACE ( 'NONE', #89, 2.749999999999999112 ) ;
#391 = EDGE_LOOP ( 'NONE', ( #424, #204 ) ) ;
#392 = CARTESIAN_POINT ( 'NONE',  ( 25.00000000000000000, 0.000000000000000000, 0.000000000000000000 ) ) ;
#393 = EDGE_CURVE ( 'NONE', #877, #12, #1214, .T. ) ;
#394 = AXIS2_PLACEMENT_3D ( 'NONE', #725, #701, #1187 ) ;
#395 = CARTESIAN_POINT ( 'NONE',  ( -27.50000000000000000, -3.367778697655219730E-15, 7.000000000000000000 ) ) ;
#396 = VERTEX_POINT ( 'NONE', #306 ) ;
#397 = EDGE_LOOP ( 'NONE', ( #461, #218, #563, #159 ) ) ;
#398 = CARTESIAN_POINT ( 'NONE',  ( 0.000000000000000000, 0.000000000000000000, 7.000000000000000000 ) ) ;
#399 = CARTESIAN_POINT ( 'NONE',  ( 15.50000000000000000, -15.50000000000000000, 0.000000000000000000 ) ) ;
#400 = CARTESIAN_POINT ( 'NONE',  ( 15.50000000000000000, 15.50000000000000000, 4.000000000000000000 ) ) ;
#401 = ORIENTED_EDGE ( 'NONE', *, *, #1155, .T. ) ;
#402 = ORIENTED_EDGE ( 'NONE', *, *, #834, .F. ) ;
#403 = DIRECTION ( 'NONE',  ( 1.000000000000000000, 0.000000000000000000, 0.000000000000000000 ) ) ;
#404 = ORIENTED_EDGE ( 'NONE', *, *, #938, .F. ) ;
#405 = CARTESIAN_POINT ( 'NONE',  ( 0.000000000000000000, 0.000000000000000000, 0.000000000000000000 ) ) ;
#406 = CARTESIAN_POINT ( 'NONE',  ( 15.50000000000000000, 15.50000000000000000, 0.000000000000000000 ) ) ;
#407 = ORIENTED_EDGE ( 'NONE', *, *, #68, .T. ) ;
#408 = DIRECTION ( 'NONE',  ( -1.000000000000000000, 0.000000000000000000, 0.000000000000000000 ) ) ;
#409 = DIRECTION ( 'NONE',  ( 1.000000000000000000, 0.000000000000000000, 0.000000000000000000 ) ) ;
#410 = CARTESIAN_POINT ( 'NONE',  ( 15.50000000000000000, 15.50000000000000000, 0.000000000000000000 ) ) ;
#411 = EDGE_CURVE ( 'NONE', #772, #47, #966, .T. ) ;
#412 = EDGE_CURVE ( 'NONE', #1117, #849, #95, .T. ) ;
#413 = ORIENTED_EDGE ( 'NONE', *, *, #227, .T. ) ;
#414 = VECTOR ( 'NONE', #991, 1000.000000000000000 ) ;
#415 = ORIENTED_EDGE ( 'NONE', *, *, #673, .F. ) ;
#416 = LINE ( 'NONE', #518, #1157 ) ;
#417 = ORIENTED_EDGE ( 'NONE', *, *, #808, .T. ) ;
#418 = ORIENTED_EDGE ( 'NONE', *, *, #220, .F. ) ;
#419 = FACE_OUTER_BOUND ( 'NONE', #1006, .T. ) ;
#420 = DIRECTION ( 'NONE',  ( 0.000000000000000000, 0.000000000000000000, -1.000000000000000000 ) ) ;
#421 = DIRECTION ( 'NONE',  ( -1.000000000000000000, 0.000000000000000000, 0.000000000000000000 ) ) ;
#422 = EDGE_LOOP ( 'NONE', ( #1014, #1040 ) ) ;
#423 = FACE_OUTER_BOUND ( 'NONE', #60, .T. ) ;
#424 = ORIENTED_EDGE ( 'NONE', *, *, #412, .T. ) ;
#425 = CARTESIAN_POINT ( 'NONE',  ( 21.50000000000000000, -4.841881138603709386E-15, 14.00000000000000000 ) ) ;
#426 = CARTESIAN_POINT ( 'NONE',  ( 12.75000000000000000, 15.50000000000000000, 0.000000000000000000 ) ) ;
#427 = DIRECTION ( 'NONE',  ( -1.000000000000000000, 0.000000000000000000, 0.000000000000000000 ) ) ;
#428 =( NAMED_UNIT ( * ) PLANE_ANGLE_UNIT ( ) SI_UNIT ( $, .RADIAN. ) );
#429 = ORIENTED_EDGE ( 'NONE', *, *, #938, .T. ) ;
#430 = DIRECTION ( 'NONE',  ( 0.000000000000000000, 0.000000000000000000, -1.000000000000000000 ) ) ;
#431 = ORIENTED_EDGE ( 'NONE', *, *, #277, .T. ) ;
#432 = AXIS2_PLACEMENT_3D ( 'NONE', #803, #230, #1010 ) ;
#433 = AXIS2_PLACEMENT_3D ( 'NONE', #273, #953, #1144 ) ;
#434 = DIRECTION ( 'NONE',  ( 1.000000000000000000, 0.000000000000000000, 0.000000000000000000 ) ) ;
#435 = DIRECTION ( 'NONE',  ( 0.000000000000000000, 0.000000000000000000, -1.000000000000000000 ) ) ;
#436 = EDGE_CURVE ( 'NONE', #314, #355, #681, .T. ) ;
#437 = ORIENTED_EDGE ( 'NONE', *, *, #647, .T. ) ;
#438 = DIRECTION ( 'NONE',  ( 0.000000000000000000, 0.000000000000000000, 1.000000000000000000 ) ) ;
#439 = EDGE_LOOP ( 'NONE', ( #1048, #13 ) ) ;
#440 = DIRECTION ( 'NONE',  ( 0.000000000000000000, 0.000000000000000000, 1.000000000000000000 ) ) ;
#441 = CIRCLE ( 'NONE', #1235, 1.749999999999999778 ) ;
#442 = DIRECTION ( 'NONE',  ( 0.000000000000000000, 0.000000000000000000, -1.000000000000000000 ) ) ;
#443 = DIRECTION ( 'NONE',  ( -1.000000000000000000, 0.000000000000000000, 0.000000000000000000 ) ) ;
#444 = EDGE_LOOP ( 'NONE', ( #888, #370 ) ) ;
#445 = EDGE_CURVE ( 'NONE', #894, #886, #825, .T. ) ;
#446 = CARTESIAN_POINT ( 'NONE',  ( -24.00000000000000000, 2.147658180479529816E-15, 0.000000000000000000 ) ) ;
#447 = ORIENTED_EDGE ( 'NONE', *, *, #411, .F. ) ;
#448 = DIRECTION ( 'NONE',  ( 0.000000000000000000, 0.000000000000000000, -1.000000000000000000 ) ) ;
#449 = CIRCLE ( 'NONE', #581, 2.749999999999999112 ) ;
#450 = VERTEX_POINT ( 'NONE', #27 ) ;
#451 = ADVANCED_FACE ( 'NONE', ( #805 ), #1115, .F. ) ;
#452 = CIRCLE ( 'NONE', #1145, 2.500000000000000000 ) ;
#453 = CARTESIAN_POINT ( 'NONE',  ( 0.000000000000000000, 0.000000000000000000, 0.000000000000000000 ) ) ;
#454 = DIRECTION ( 'NONE',  ( 0.000000000000000000, 0.000000000000000000, -1.000000000000000000 ) ) ;
#455 = ADVANCED_FACE ( 'NONE', ( #722 ), #897, .F. ) ;
#456 = EDGE_CURVE ( 'NONE', #821, #396, #988, .T. ) ;
#457 = EDGE_CURVE ( 'NONE', #849, #1117, #1085, .T. ) ;
#458 = DIRECTION ( 'NONE',  ( 1.000000000000000000, 0.000000000000000000, 0.000000000000000000 ) ) ;
#459 = AXIS2_PLACEMENT_3D ( 'NONE', #981, #212, #610 ) ;
#460 = DIRECTION ( 'NONE',  ( 1.000000000000000000, 0.000000000000000000, 0.000000000000000000 ) ) ;
#461 = ORIENTED_EDGE ( 'NONE', *, *, #688, .F. ) ;
#462 = AXIS2_PLACEMENT_3D ( 'NONE', #400, #782, #1208 ) ;
#463 = CARTESIAN_POINT ( 'NONE',  ( 8.005467014174450598E-16, 21.50000000000000000, 14.00000000000000000 ) ) ;
#464 = CARTESIAN_POINT ( 'NONE',  ( 0.000000000000000000, 0.000000000000000000, 0.000000000000000000 ) ) ;
#465 = VECTOR ( 'NONE', #472, 1000.000000000000000 ) ;
#466 = ADVANCED_FACE ( 'NONE', ( #224 ), #493, .F. ) ;
#467 = FACE_OUTER_BOUND ( 'NONE', #267, .T. ) ;
#468 = EDGE_LOOP ( 'NONE', ( #1087, #401, #535, #237 ) ) ;
#469 = EDGE_CURVE ( 'NONE', #290, #561, #1245, .T. ) ;
#470 = EDGE_LOOP ( 'NONE', ( #880, #1129, #1271, #627 ) ) ;
#471 = PRODUCT_CONTEXT ( 'NONE', #771, 'mechanical' ) ;
#472 = DIRECTION ( 'NONE',  ( 0.000000000000000000, 0.000000000000000000, -1.000000000000000000 ) ) ;
#473 = DIRECTION ( 'NONE',  ( 1.000000000000000000, 0.000000000000000000, 0.000000000000000000 ) ) ;
#474 = CARTESIAN_POINT ( 'NONE',  ( -14.00000000000000000, -1.714505518806294835E-15, 7.000000000000000000 ) ) ;
#475 = DIRECTION ( 'NONE',  ( 0.000000000000000000, 0.000000000000000000, -1.000000000000000000 ) ) ;
#476 = DIRECTION ( 'NONE',  ( 0.000000000000000000, 0.000000000000000000, -1.000000000000000000 ) ) ;
#477 = ORIENTED_EDGE ( 'NONE', *, *, #1062, .F. ) ;
#478 = CIRCLE ( 'NONE', #1253, 27.50000000000000000 ) ;
#479 = FACE_BOUND ( 'NONE', #319, .T. ) ;
#480 = ORIENTED_EDGE ( 'NONE', *, *, #907, .F. ) ;
#481 = CARTESIAN_POINT ( 'NONE',  ( 17.25000000000000000, -15.50000000000000000, 0.000000000000000000 ) ) ;
#482 = DIRECTION ( 'NONE',  ( 0.000000000000000000, 0.000000000000000000, -1.000000000000000000 ) ) ;
#483 = VECTOR ( 'NONE', #1104, 1000.000000000000000 ) ;
#484 = PRODUCT_DEFINITION_SHAPE ( 'NONE', 'NONE',  #123 ) ;
#485 = CIRCLE ( 'NONE', #558, 14.00000000000000000 ) ;
#486 = ORIENTED_EDGE ( 'NONE', *, *, #69, .F. ) ;
#487 = EDGE_CURVE ( 'NONE', #285, #121, #742, .T. ) ;
#488 = CARTESIAN_POINT ( 'NONE',  ( -12.75000000000000000, 15.50000000000000000, 0.000000000000000000 ) ) ;
#489 = EDGE_LOOP ( 'NONE', ( #1243, #956 ) ) ;
#490 = DIRECTION ( 'NONE',  ( 0.000000000000000000, 0.000000000000000000, -1.000000000000000000 ) ) ;
#491 = CYLINDRICAL_SURFACE ( 'NONE', #291, 16.00000000000000000 ) ;
#492 = CIRCLE ( 'NONE', #181, 2.749999999999999112 ) ;
#493 = CYLINDRICAL_SURFACE ( 'NONE', #1036, 1.749999999999999778 ) ;
#494 = AXIS2_PLACEMENT_3D ( 'NONE', #464, #1054, #172 ) ;
#495 = DIRECTION ( 'NONE',  ( 1.000000000000000000, 0.000000000000000000, 0.000000000000000000 ) ) ;
#496 = VERTEX_POINT ( 'NONE', #1177 ) ;
#497 = CARTESIAN_POINT ( 'NONE',  ( 15.50000000000000000, -15.50000000000000000, 4.000000000000000000 ) ) ;
#498 =( NAMED_UNIT ( * ) SI_UNIT ( $, .STERADIAN. ) SOLID_ANGLE_UNIT ( ) );
#499 = CARTESIAN_POINT ( 'NONE',  ( 8.005467014174450598E-16, 21.50000000000000000, 0.000000000000000000 ) ) ;
#500 = ORIENTED_EDGE ( 'NONE', *, *, #214, .F. ) ;
#501 = VERTEX_POINT ( 'NONE', #697 ) ;
#502 = VECTOR ( 'NONE', #629, 1000.000000000000000 ) ;
#503 = EDGE_CURVE ( 'NONE', #1158, #842, #1178, .T. ) ;
#504 = ADVANCED_FACE ( 'NONE', ( #301, #619 ), #1082, .T. ) ;
#505 = DIRECTION ( 'NONE',  ( 0.000000000000000000, 0.000000000000000000, -1.000000000000000000 ) ) ;
#506 = FACE_OUTER_BOUND ( 'NONE', #444, .T. ) ;
#507 = CARTESIAN_POINT ( 'NONE',  ( 18.25000000000000000, 15.50000000000000000, 0.000000000000000000 ) ) ;
#508 = ADVANCED_FACE ( 'NONE', ( #687 ), #198, .F. ) ;
#509 = EDGE_CURVE ( 'NONE', #561, #290, #1076, .T. ) ;
#510 = ORIENTED_EDGE ( 'NONE', *, *, #40, .T. ) ;
#511 = CARTESIAN_POINT ( 'NONE',  ( 0.000000000000000000, 0.000000000000000000, 7.000000000000000000 ) ) ;
#512 = ORIENTED_EDGE ( 'NONE', *, *, #831, .F. ) ;
#513 = DIRECTION ( 'NONE',  ( 0.000000000000000000, 0.000000000000000000, -1.000000000000000000 ) ) ;
#514 = FACE_OUTER_BOUND ( 'NONE', #272, .T. ) ;
#515 = EDGE_CURVE ( 'NONE', #941, #544, #958, .T. ) ;
#516 = DIRECTION ( 'NONE',  ( 0.000000000000000000, 0.000000000000000000, -1.000000000000000000 ) ) ;
#517 = ORIENTED_EDGE ( 'NONE', *, *, #965, .F. ) ;
#518 = CARTESIAN_POINT ( 'NONE',  ( -18.25000000000000000, -15.50000000000000000, 0.000000000000000000 ) ) ;
#519 = ORIENTED_EDGE ( 'NONE', *, *, #445, .F. ) ;
#520 =( GEOMETRIC_REPRESENTATION_CONTEXT ( 3 ) GLOBAL_UNCERTAINTY_ASSIGNED_CONTEXT ( ( #548 ) ) GLOBAL_UNIT_ASSIGNED_CONTEXT ( ( #954, #1239, #498 ) ) REPRESENTATION_CONTEXT ( 'NONE', 'WORKASPACE' ) );
#521 = VERTEX_POINT ( 'NONE', #1184 ) ;
#522 = EDGE_LOOP ( 'NONE', ( #1138, #352 ) ) ;
#523 = CARTESIAN_POINT ( 'NONE',  ( 14.00000000000000000, 0.000000000000000000, 7.000000000000000000 ) ) ;
#524 = CARTESIAN_POINT ( 'NONE',  ( -3.494769659541620390E-15, -21.50000000000000000, 0.000000000000000000 ) ) ;
#525 = DIRECTION ( 'NONE',  ( 0.000000000000000000, 0.000000000000000000, -1.000000000000000000 ) ) ;
#526 = DIRECTION ( 'NONE',  ( 0.000000000000000000, 0.000000000000000000, 1.000000000000000000 ) ) ;
#527 = EDGE_LOOP ( 'NONE', ( #724, #1095, #1174, #806 ) ) ;
#528 = ORIENTED_EDGE ( 'NONE', *, *, #345, .F. ) ;
#529 = DIRECTION ( 'NONE',  ( 1.000000000000000000, 0.000000000000000000, 0.000000000000000000 ) ) ;
#530 = EDGE_CURVE ( 'NONE', #703, #679, #1241, .T. ) ;
#531 = DIRECTION ( 'NONE',  ( 0.000000000000000000, 0.000000000000000000, -1.000000000000000000 ) ) ;
#532 = CYLINDRICAL_SURFACE ( 'NONE', #387, 1.750000000000001554 ) ;
#533 = DIRECTION ( 'NONE',  ( 0.000000000000000000, 0.000000000000000000, -1.000000000000000000 ) ) ;
#534 = VECTOR ( 'NONE', #1254, 1000.000000000000000 ) ;
#535 = ORIENTED_EDGE ( 'NONE', *, *, #260, .T. ) ;
#536 = LINE ( 'NONE', #911, #767 ) ;
#537 = EDGE_LOOP ( 'NONE', ( #621, #1190 ) ) ;
#538 = CARTESIAN_POINT ( 'NONE',  ( -14.00000000000000000, -1.714505518806294835E-15, 14.00000000000000000 ) ) ;
#539 = EDGE_CURVE ( 'NONE', #1180, #802, #148, .T. ) ;
#540 = DIRECTION ( 'NONE',  ( 0.000000000000000000, 0.000000000000000000, -1.000000000000000000 ) ) ;
#541 =( LENGTH_UNIT ( ) NAMED_UNIT ( * ) SI_UNIT ( .MILLI., .METRE. ) );
#542 = AXIS2_PLACEMENT_3D ( 'NONE', #17, #706, #1099 ) ;
#543 = DIRECTION ( 'NONE',  ( 0.000000000000000000, 0.000000000000000000, -1.000000000000000000 ) ) ;
#544 = VERTEX_POINT ( 'NONE', #507 ) ;
#545 = AXIS2_PLACEMENT_3D ( 'NONE', #1007, #819, #900 ) ;
#546 = DIRECTION ( 'NONE',  ( -1.000000000000000000, 0.000000000000000000, 0.000000000000000000 ) ) ;
#547 = DIRECTION ( 'NONE',  ( 0.000000000000000000, 0.000000000000000000, 1.000000000000000000 ) ) ;
#548 = UNCERTAINTY_MEASURE_WITH_UNIT (LENGTH_MEASURE( 1.000000000000000082E-05 ), #954, 'distance_accuracy_value', 'NONE');
#549 = EDGE_LOOP ( 'NONE', ( #1061, #519, #600, #320 ) ) ;
#550 = EDGE_CURVE ( 'NONE', #396, #1186, #366, .T. ) ;
#551 = CARTESIAN_POINT ( 'NONE',  ( 2.500000000000000000, -21.50000000000000000, 0.000000000000000000 ) ) ;
#552 = EDGE_CURVE ( 'NONE', #315, #146, #213, .T. ) ;
#553 = DIRECTION ( 'NONE',  ( 0.000000000000000000, 0.000000000000000000, 1.000000000000000000 ) ) ;
#554 = APPLICATION_CONTEXT ( 'automotive_design' ) ;
#555 = EDGE_LOOP ( 'NONE', ( #1109, #710, #832, #969 ) ) ;
#556 = VECTOR ( 'NONE', #142, 1000.000000000000000 ) ;
#557 = CARTESIAN_POINT ( 'NONE',  ( -3.494769659541620390E-15, -21.50000000000000000, 0.000000000000000000 ) ) ;
#558 = AXIS2_PLACEMENT_3D ( 'NONE', #1192, #789, #25 ) ;
#559 = AXIS2_PLACEMENT_3D ( 'NONE', #1156, #170, #564 ) ;
#560 = CARTESIAN_POINT ( 'NONE',  ( -24.00000000000000000, 2.147658180479529816E-15, 14.00000000000000000 ) ) ;
#561 = VERTEX_POINT ( 'NONE', #1028 ) ;
#562 = VECTOR ( 'NONE', #683, 1000.000000000000000 ) ;
#563 = ORIENTED_EDGE ( 'NONE', *, *, #1188, .T. ) ;
#564 = DIRECTION ( 'NONE',  ( 1.000000000000000000, 0.000000000000000000, 0.000000000000000000 ) ) ;
#565 = VERTEX_POINT ( 'NONE', #348 ) ;
#566 = ADVANCED_FACE ( 'NONE', ( #253 ), #1038, .F. ) ;
#567 = CARTESIAN_POINT ( 'NONE',  ( -21.50000000000000000, 2.147658180479529816E-15, 14.00000000000000000 ) ) ;
#568 = AXIS2_PLACEMENT_3D ( 'NONE', #499, #790, #427 ) ;
#569 = FACE_OUTER_BOUND ( 'NONE', #758, .T. ) ;
#570 = EDGE_LOOP ( 'NONE', ( #929, #417, #794, #480 ) ) ;
#571 =( GEOMETRIC_REPRESENTATION_CONTEXT ( 3 ) GLOBAL_UNCERTAINTY_ASSIGNED_CONTEXT ( ( #58 ) ) GLOBAL_UNIT_ASSIGNED_CONTEXT ( ( #541, #428, #815 ) ) REPRESENTATION_CONTEXT ( 'NONE', 'WORKASPACE' ) );
#572 = DIRECTION ( 'NONE',  ( 0.000000000000000000, 0.000000000000000000, -1.000000000000000000 ) ) ;
#573 = VECTOR ( 'NONE', #583, 1000.000000000000000 ) ;
#574 = FACE_OUTER_BOUND ( 'NONE', #45, .T. ) ;
#575 = DIRECTION ( 'NONE',  ( 0.000000000000000000, 0.000000000000000000, -1.000000000000000000 ) ) ;
#576 = CYLINDRICAL_SURFACE ( 'NONE', #74, 1.750000000000001554 ) ;
#577 = VERTEX_POINT ( 'NONE', #151 ) ;
#578 = SURFACE_STYLE_FILL_AREA ( #289 ) ;
#579 = EDGE_CURVE ( 'NONE', #743, #915, #1059, .T. ) ;
#580 = EDGE_LOOP ( 'NONE', ( #500, #140 ) ) ;
#581 = AXIS2_PLACEMENT_3D ( 'NONE', #135, #41, #434 ) ;
#582 = AXIS2_PLACEMENT_3D ( 'NONE', #410, #310, #798 ) ;
#583 = DIRECTION ( 'NONE',  ( 0.000000000000000000, 0.000000000000000000, -1.000000000000000000 ) ) ;
#584 = ORIENTED_EDGE ( 'NONE', *, *, #748, .F. ) ;
#585 = FACE_OUTER_BOUND ( 'NONE', #1126, .T. ) ;
#586 = CARTESIAN_POINT ( 'NONE',  ( -15.50000000000000000, 15.50000000000000000, 14.00000000000000000 ) ) ;
#587 = DIRECTION ( 'NONE',  ( 0.000000000000000000, 0.000000000000000000, -1.000000000000000000 ) ) ;
#588 = VECTOR ( 'NONE', #179, 1000.000000000000000 ) ;
#589 = AXIS2_PLACEMENT_3D ( 'NONE', #44, #620, #129 ) ;
#590 = ORIENTED_EDGE ( 'NONE', *, *, #1188, .F. ) ;
#591 = DIRECTION ( 'NONE',  ( 0.000000000000000000, 0.000000000000000000, -1.000000000000000000 ) ) ;
#592 = VERTEX_POINT ( 'NONE', #50 ) ;
#593 = EDGE_LOOP ( 'NONE', ( #124, #194, #21, #1202 ) ) ;
#594 = DIRECTION ( 'NONE',  ( 1.000000000000000000, 0.000000000000000000, 0.000000000000000000 ) ) ;
#595 = AXIS2_PLACEMENT_3D ( 'NONE', #1242, #662, #460 ) ;
#596 = DIRECTION ( 'NONE',  ( 1.000000000000000000, 0.000000000000000000, 0.000000000000000000 ) ) ;
#597 = CIRCLE ( 'NONE', #53, 2.499999999999998668 ) ;
#598 = EDGE_CURVE ( 'NONE', #1066, #221, #765, .T. ) ;
#599 = DIRECTION ( 'NONE',  ( 0.000000000000000000, 0.000000000000000000, -1.000000000000000000 ) ) ;
#600 = ORIENTED_EDGE ( 'NONE', *, *, #626, .T. ) ;
#601 = DIRECTION ( 'NONE',  ( 0.000000000000000000, 0.000000000000000000, -1.000000000000000000 ) ) ;
#602 = EDGE_CURVE ( 'NONE', #645, #577, #478, .T. ) ;
#603 = DIRECTION ( 'NONE',  ( 0.000000000000000000, 0.000000000000000000, 1.000000000000000000 ) ) ;
#604 = CYLINDRICAL_SURFACE ( 'NONE', #726, 25.00000000000000000 ) ;
#605 = ORIENTED_EDGE ( 'NONE', *, *, #1071, .T. ) ;
#606 = ADVANCED_FACE ( 'NONE', ( #160 ), #845, .F. ) ;
#607 = AXIS2_PLACEMENT_3D ( 'NONE', #511, #1024, #1212 ) ;
#608 = VERTEX_POINT ( 'NONE', #361 ) ;
#609 = FACE_OUTER_BOUND ( 'NONE', #527, .T. ) ;
#610 = DIRECTION ( 'NONE',  ( 0.000000000000000000, -1.000000000000000000, 0.000000000000000000 ) ) ;
#611 = CARTESIAN_POINT ( 'NONE',  ( 14.00000000000000000, 0.000000000000000000, 7.000000000000000000 ) ) ;
#612 = AXIS2_PLACEMENT_3D ( 'NONE', #636, #238, #347 ) ;
#613 = ORIENTED_EDGE ( 'NONE', *, *, #9, .F. ) ;
#614 = DIRECTION ( 'NONE',  ( 0.000000000000000000, 0.000000000000000000, -1.000000000000000000 ) ) ;
#615 = VERTEX_POINT ( 'NONE', #136 ) ;
#616 = ORIENTED_EDGE ( 'NONE', *, *, #813, .F. ) ;
#617 = CARTESIAN_POINT ( 'NONE',  ( 25.00000000000000000, 0.000000000000000000, 0.000000000000000000 ) ) ;
#618 = CARTESIAN_POINT ( 'NONE',  ( -15.50000000000000000, 15.50000000000000000, 0.000000000000000000 ) ) ;
#619 = FACE_OUTER_BOUND ( 'NONE', #893, .T. ) ;
#620 = DIRECTION ( 'NONE',  ( 0.000000000000000000, 0.000000000000000000, -1.000000000000000000 ) ) ;
#621 = ORIENTED_EDGE ( 'NONE', *, *, #598, .F. ) ;
#622 = ORIENTED_EDGE ( 'NONE', *, *, #280, .T. ) ;
#623 = CARTESIAN_POINT ( 'NONE',  ( 2.500000000000000000, -21.50000000000000000, 0.000000000000000000 ) ) ;
#624 = ADVANCED_FACE ( 'NONE', ( #256 ), #233, .F. ) ;
#625 = AXIS2_PLACEMENT_3D ( 'NONE', #896, #1081, #594 ) ;
#626 = EDGE_CURVE ( 'NONE', #894, #496, #823, .T. ) ;
#627 = ORIENTED_EDGE ( 'NONE', *, *, #1230, .T. ) ;
#628 = CARTESIAN_POINT ( 'NONE',  ( -3.494769659541620390E-15, -21.50000000000000000, 14.00000000000000000 ) ) ;
#629 = DIRECTION ( 'NONE',  ( 0.000000000000000000, 0.000000000000000000, -1.000000000000000000 ) ) ;
#630 = DIRECTION ( 'NONE',  ( 0.000000000000000000, 0.000000000000000000, -1.000000000000000000 ) ) ;
#631 = CYLINDRICAL_SURFACE ( 'NONE', #90, 2.499999999999998668 ) ;
#632 = ADVANCED_FACE ( 'NONE', ( #924 ), #1021, .F. ) ;
#633 = ORIENTED_EDGE ( 'NONE', *, *, #412, .F. ) ;
#634 = CARTESIAN_POINT ( 'NONE',  ( 2.500000000000000000, 21.50000000000000000, 0.000000000000000000 ) ) ;
#635 = ORIENTED_EDGE ( 'NONE', *, *, #176, .T. ) ;
#636 = CARTESIAN_POINT ( 'NONE',  ( -15.50000000000000000, -15.50000000000000000, 0.000000000000000000 ) ) ;
#637 = CARTESIAN_POINT ( 'NONE',  ( 0.000000000000000000, 0.000000000000000000, 7.000000000000000000 ) ) ;
#638 = CARTESIAN_POINT ( 'NONE',  ( 25.00000000000000000, 0.000000000000000000, 7.000000000000000000 ) ) ;
#639 = ORIENTED_EDGE ( 'NONE', *, *, #831, .T. ) ;
#640 = CARTESIAN_POINT ( 'NONE',  ( -17.25000000000000000, -15.50000000000000000, 14.00000000000000000 ) ) ;
#641 = VERTEX_POINT ( 'NONE', #551 ) ;
#642 = AXIS2_PLACEMENT_3D ( 'NONE', #720, #1097, #109 ) ;
#643 = FACE_OUTER_BOUND ( 'NONE', #1205, .T. ) ;
#644 = DIRECTION ( 'NONE',  ( -1.000000000000000000, 0.000000000000000000, 0.000000000000000000 ) ) ;
#645 = VERTEX_POINT ( 'NONE', #843 ) ;
#646 = CIRCLE ( 'NONE', #80, 27.50000000000000000 ) ;
#647 = EDGE_CURVE ( 'NONE', #842, #12, #654, .T. ) ;
#648 = ORIENTED_EDGE ( 'NONE', *, *, #243, .T. ) ;
#649 = EDGE_CURVE ( 'NONE', #368, #980, #217, .T. ) ;
#650 = CARTESIAN_POINT ( 'NONE',  ( 0.000000000000000000, 0.000000000000000000, 14.00000000000000000 ) ) ;
#651 = CARTESIAN_POINT ( 'NONE',  ( -14.00000000000000000, -1.714505518806294835E-15, 7.000000000000000000 ) ) ;
#652 = ORIENTED_EDGE ( 'NONE', *, *, #1071, .F. ) ;
#653 = ADVANCED_FACE ( 'NONE', ( #1140 ), #532, .F. ) ;
#654 = LINE ( 'NONE', #830, #975 ) ;
#655 = AXIS2_PLACEMENT_3D ( 'NONE', #931, #442, #353 ) ;
#656 = AXIS2_PLACEMENT_3D ( 'NONE', #405, #505, #895 ) ;
#657 = FACE_BOUND ( 'NONE', #799, .T. ) ;
#658 = CIRCLE ( 'NONE', #305, 2.499999999999998668 ) ;
#659 = DIRECTION ( 'NONE',  ( 0.000000000000000000, 0.000000000000000000, -1.000000000000000000 ) ) ;
#660 = ADVANCED_FACE ( 'NONE', ( #1122 ), #61, .T. ) ;
#661 = CIRCLE ( 'NONE', #858, 16.00000000000000000 ) ;
#662 = DIRECTION ( 'NONE',  ( 0.000000000000000000, 0.000000000000000000, -1.000000000000000000 ) ) ;
#663 = AXIS2_PLACEMENT_3D ( 'NONE', #672, #1065, #386 ) ;
#664 = FACE_BOUND ( 'NONE', #439, .T. ) ;
#665 = DIRECTION ( 'NONE',  ( 1.000000000000000000, 0.000000000000000000, 0.000000000000000000 ) ) ;
#666 = EDGE_LOOP ( 'NONE', ( #178, #18 ) ) ;
#667 = ORIENTED_EDGE ( 'NONE', *, *, #861, .T. ) ;
#668 = DIRECTION ( 'NONE',  ( 0.000000000000000000, 0.000000000000000000, -1.000000000000000000 ) ) ;
#669 = VECTOR ( 'NONE', #630, 1000.000000000000000 ) ;
#670 = CARTESIAN_POINT ( 'NONE',  ( -12.75000000000000000, 15.50000000000000000, 4.000000000000000000 ) ) ;
#671 = DIRECTION ( 'NONE',  ( -1.000000000000000000, 0.000000000000000000, 0.000000000000000000 ) ) ;
#672 = CARTESIAN_POINT ( 'NONE',  ( 0.000000000000000000, 0.000000000000000000, 14.00000000000000000 ) ) ;
#673 = EDGE_CURVE ( 'NONE', #4, #694, #1216, .T. ) ;
#674 = ORIENTED_EDGE ( 'NONE', *, *, #456, .F. ) ;
#675 = ADVANCED_FACE ( 'NONE', ( #643 ), #837, .F. ) ;
#676 = EDGE_CURVE ( 'NONE', #816, #641, #1257, .T. ) ;
#677 = LINE ( 'NONE', #768, #264 ) ;
#678 = ORIENTED_EDGE ( 'NONE', *, *, #32, .T. ) ;
#679 = VERTEX_POINT ( 'NONE', #812 ) ;
#680 = DIRECTION ( 'NONE',  ( -1.000000000000000000, 0.000000000000000000, 0.000000000000000000 ) ) ;
#681 = LINE ( 'NONE', #488, #573 ) ;
#682 = EDGE_LOOP ( 'NONE', ( #364, #1, #10, #779 ) ) ;
#683 = DIRECTION ( 'NONE',  ( 0.000000000000000000, 0.000000000000000000, -1.000000000000000000 ) ) ;
#684 = DIRECTION ( 'NONE',  ( 1.000000000000000000, 0.000000000000000000, 0.000000000000000000 ) ) ;
#685 = CARTESIAN_POINT ( 'NONE',  ( 17.25000000000000000, 15.50000000000000000, 14.00000000000000000 ) ) ;
#686 = DIRECTION ( 'NONE',  ( 0.000000000000000000, 0.000000000000000000, 1.000000000000000000 ) ) ;
#687 = FACE_OUTER_BOUND ( 'NONE', #682, .T. ) ;
#688 = EDGE_CURVE ( 'NONE', #608, #314, #59, .T. ) ;
#689 = CIRCLE ( 'NONE', #143, 25.00000000000000000 ) ;
#690 = AXIS2_PLACEMENT_3D ( 'NONE', #1229, #533, #443 ) ;
#691 = VERTEX_POINT ( 'NONE', #231 ) ;
#692 = EDGE_CURVE ( 'NONE', #228, #1152, #158, .T. ) ;
#693 = DIRECTION ( 'NONE',  ( 0.000000000000000000, 0.000000000000000000, -1.000000000000000000 ) ) ;
#694 = VERTEX_POINT ( 'NONE', #1121 ) ;
#695 = FACE_OUTER_BOUND ( 'NONE', #912, .T. ) ;
#696 = DIRECTION ( 'NONE',  ( 0.000000000000000000, 0.000000000000000000, 1.000000000000000000 ) ) ;
#697 = CARTESIAN_POINT ( 'NONE',  ( -12.75000000000000000, -15.50000000000000000, 4.000000000000000000 ) ) ;
#698 = VERTEX_POINT ( 'NONE', #917 ) ;
#699 = ADVANCED_FACE ( 'NONE', ( #35 ), #339, .F. ) ;
#700 = EDGE_LOOP ( 'NONE', ( #860, #622, #248, #512 ) ) ;
#701 = DIRECTION ( 'NONE',  ( 0.000000000000000000, 0.000000000000000000, -1.000000000000000000 ) ) ;
#702 = ORIENTED_EDGE ( 'NONE', *, *, #647, .F. ) ;
#703 = VERTEX_POINT ( 'NONE', #141 ) ;
#704 = CYLINDRICAL_SURFACE ( 'NONE', #115, 27.50000000000000000 ) ;
#705 = LINE ( 'NONE', #118, #195 ) ;
#706 = DIRECTION ( 'NONE',  ( 0.000000000000000000, 0.000000000000000000, -1.000000000000000000 ) ) ;
#707 = EDGE_LOOP ( 'NONE', ( #251, #1053 ) ) ;
#708 = LINE ( 'NONE', #623, #945 ) ;
#709 = ORIENTED_EDGE ( 'NONE', *, *, #487, .T. ) ;
#710 = ORIENTED_EDGE ( 'NONE', *, *, #19, .F. ) ;
#711 = DIRECTION ( 'NONE',  ( -1.000000000000000000, 0.000000000000000000, 0.000000000000000000 ) ) ;
#712 = FACE_OUTER_BOUND ( 'NONE', #1033, .T. ) ;
#713 = DIRECTION ( 'NONE',  ( 0.000000000000000000, 0.000000000000000000, -1.000000000000000000 ) ) ;
#714 = AXIS2_PLACEMENT_3D ( 'NONE', #557, #239, #939 ) ;
#715 = ORIENTED_EDGE ( 'NONE', *, *, #688, .T. ) ;
#716 = CIRCLE ( 'NONE', #1107, 2.749999999999999112 ) ;
#717 = CARTESIAN_POINT ( 'NONE',  ( 15.50000000000000000, -15.50000000000000000, 4.000000000000000000 ) ) ;
#718 = EDGE_CURVE ( 'NONE', #368, #941, #1027, .T. ) ;
#719 = ORIENTED_EDGE ( 'NONE', *, *, #1136, .F. ) ;
#720 = CARTESIAN_POINT ( 'NONE',  ( 8.005467014174450598E-16, 21.50000000000000000, 0.000000000000000000 ) ) ;
#721 = DIRECTION ( 'NONE',  ( 1.000000000000000000, 0.000000000000000000, 0.000000000000000000 ) ) ;
#722 = FACE_OUTER_BOUND ( 'NONE', #549, .T. ) ;
#723 = VECTOR ( 'NONE', #972, 1000.000000000000000 ) ;
#724 = ORIENTED_EDGE ( 'NONE', *, *, #375, .F. ) ;
#725 = CARTESIAN_POINT ( 'NONE',  ( -15.50000000000000000, 15.50000000000000000, 0.000000000000000000 ) ) ;
#726 = AXIS2_PLACEMENT_3D ( 'NONE', #1196, #998, #321 ) ;
#727 = ORIENTED_EDGE ( 'NONE', *, *, #503, .F. ) ;
#728 = CARTESIAN_POINT ( 'NONE',  ( -15.50000000000000000, 15.50000000000000000, 4.000000000000000000 ) ) ;
#729 = DIRECTION ( 'NONE',  ( 0.000000000000000000, 0.000000000000000000, -1.000000000000000000 ) ) ;
#730 = FACE_OUTER_BOUND ( 'NONE', #1173, .T. ) ;
#731 = VERTEX_POINT ( 'NONE', #538 ) ;
#732 = DIRECTION ( 'NONE',  ( 0.000000000000000000, 0.000000000000000000, -1.000000000000000000 ) ) ;
#733 = ORIENTED_EDGE ( 'NONE', *, *, #754, .F. ) ;
#734 = DIRECTION ( 'NONE',  ( -1.000000000000000000, 0.000000000000000000, 0.000000000000000000 ) ) ;
#735 = EDGE_CURVE ( 'NONE', #544, #941, #997, .T. ) ;
#736 = FACE_BOUND ( 'NONE', #274, .T. ) ;
#737 = PRODUCT_DEFINITION_CONTEXT ( 'detailed design', #554, 'design' ) ;
#738 = VERTEX_POINT ( 'NONE', #1207 ) ;
#739 = EDGE_CURVE ( 'NONE', #980, #368, #1142, .T. ) ;
#740 = DIRECTION ( 'NONE',  ( 0.000000000000000000, 0.000000000000000000, 1.000000000000000000 ) ) ;
#741 = CARTESIAN_POINT ( 'NONE',  ( -13.75000000000000000, -15.50000000000000000, 14.00000000000000000 ) ) ;
#742 = CIRCLE ( 'NONE', #462, 1.750000000000001554 ) ;
#743 = VERTEX_POINT ( 'NONE', #1020 ) ;
#744 = AXIS2_PLACEMENT_3D ( 'NONE', #79, #659, #974 ) ;
#745 = CARTESIAN_POINT ( 'NONE',  ( 15.50000000000000000, 15.50000000000000000, 0.000000000000000000 ) ) ;
#746 = DIRECTION ( 'NONE',  ( 0.000000000000000000, 0.000000000000000000, -1.000000000000000000 ) ) ;
#747 = CIRCLE ( 'NONE', #607, 16.00000000000000000 ) ;
#748 = EDGE_CURVE ( 'NONE', #355, #592, #449, .T. ) ;
#749 = DIRECTION ( 'NONE',  ( 0.000000000000000000, 0.000000000000000000, -1.000000000000000000 ) ) ;
#750 = ORIENTED_EDGE ( 'NONE', *, *, #846, .F. ) ;
#751 = AXIS2_PLACEMENT_3D ( 'NONE', #342, #553, #1116 ) ;
#752 = CARTESIAN_POINT ( 'NONE',  ( 12.75000000000000000, 15.50000000000000000, 0.000000000000000000 ) ) ;
#753 = AXIS2_PLACEMENT_3D ( 'NONE', #111, #603, #996 ) ;
#754 = EDGE_CURVE ( 'NONE', #288, #1186, #928, .T. ) ;
#755 = CIRCLE ( 'NONE', #1050, 25.00000000000000000 ) ;
#756 = DIRECTION ( 'NONE',  ( 0.000000000000000000, 0.000000000000000000, -1.000000000000000000 ) ) ;
#757 = ORIENTED_EDGE ( 'NONE', *, *, #649, .F. ) ;
#758 = EDGE_LOOP ( 'NONE', ( #447, #8, #719, #255 ) ) ;
#759 = PRESENTATION_LAYER_ASSIGNMENT (  '', '', ( #1068 ) ) ;
#760 = DIRECTION ( 'NONE',  ( 0.000000000000000000, 0.000000000000000000, -1.000000000000000000 ) ) ;
#761 = DIRECTION ( 'NONE',  ( 1.000000000000000000, 0.000000000000000000, 0.000000000000000000 ) ) ;
#762 = DIRECTION ( 'NONE',  ( 0.000000000000000000, 0.000000000000000000, -1.000000000000000000 ) ) ;
#763 = DIRECTION ( 'NONE',  ( 0.000000000000000000, 0.000000000000000000, -1.000000000000000000 ) ) ;
#764 = DIRECTION ( 'NONE',  ( 0.000000000000000000, 0.000000000000000000, -1.000000000000000000 ) ) ;
#765 = CIRCLE ( 'NONE', #278, 2.749999999999999112 ) ;
#766 = ORIENTED_EDGE ( 'NONE', *, *, #959, .T. ) ;
#767 = VECTOR ( 'NONE', #827, 1000.000000000000000 ) ;
#768 = CARTESIAN_POINT ( 'NONE',  ( 16.00000000000000000, 0.000000000000000000, 0.000000000000000000 ) ) ;
#769 = CARTESIAN_POINT ( 'NONE',  ( -17.25000000000000000, -15.50000000000000000, 4.000000000000000000 ) ) ;
#770 = LINE ( 'NONE', #180, #1091 ) ;
#771 = APPLICATION_CONTEXT ( 'automotive_design' ) ;
#772 = VERTEX_POINT ( 'NONE', #139 ) ;
#773 = DIRECTION ( 'NONE',  ( 1.000000000000000000, 0.000000000000000000, 0.000000000000000000 ) ) ;
#774 = CARTESIAN_POINT ( 'NONE',  ( 17.25000000000000000, 15.50000000000000000, 0.000000000000000000 ) ) ;
#775 = CARTESIAN_POINT ( 'NONE',  ( 27.50000000000000000, 0.000000000000000000, 7.000000000000000000 ) ) ;
#776 = CIRCLE ( 'NONE', #909, 1.749999999999999778 ) ;
#777 = DIRECTION ( 'NONE',  ( 0.000000000000000000, 0.000000000000000000, -1.000000000000000000 ) ) ;
#778 = EDGE_LOOP ( 'NONE', ( #226, #1037, #407, #1267 ) ) ;
#779 = ORIENTED_EDGE ( 'NONE', *, *, #735, .T. ) ;
#780 = CARTESIAN_POINT ( 'NONE',  ( -13.75000000000000000, -15.50000000000000000, 0.000000000000000000 ) ) ;
#781 = LINE ( 'NONE', #775, #127 ) ;
#782 = DIRECTION ( 'NONE',  ( 0.000000000000000000, 0.000000000000000000, 1.000000000000000000 ) ) ;
#783 = EDGE_CURVE ( 'NONE', #4, #1266, #747, .T. ) ;
#784 = ORIENTED_EDGE ( 'NONE', *, *, #579, .T. ) ;
#785 = AXIS2_PLACEMENT_3D ( 'NONE', #7, #334, #1012 ) ;
#786 = DIRECTION ( 'NONE',  ( 0.000000000000000000, 0.000000000000000000, -1.000000000000000000 ) ) ;
#787 = ORIENTED_EDGE ( 'NONE', *, *, #739, .T. ) ;
#788 = DIRECTION ( 'NONE',  ( 0.000000000000000000, 0.000000000000000000, -1.000000000000000000 ) ) ;
#789 = DIRECTION ( 'NONE',  ( 0.000000000000000000, 0.000000000000000000, -1.000000000000000000 ) ) ;
#790 = DIRECTION ( 'NONE',  ( 0.000000000000000000, 0.000000000000000000, -1.000000000000000000 ) ) ;
#791 = AXIS2_PLACEMENT_3D ( 'NONE', #299, #222, #711 ) ;
#792 = ORIENTED_EDGE ( 'NONE', *, *, #1043, .F. ) ;
#793 = VECTOR ( 'NONE', #1128, 1000.000000000000000 ) ;
#794 = ORIENTED_EDGE ( 'NONE', *, *, #155, .T. ) ;
#795 = ORIENTED_EDGE ( 'NONE', *, *, #63, .T. ) ;
#796 = LINE ( 'NONE', #323, #483 ) ;
#797 = CARTESIAN_POINT ( 'NONE',  ( -15.50000000000000000, -15.50000000000000000, 4.000000000000000000 ) ) ;
#798 = DIRECTION ( 'NONE',  ( 1.000000000000000000, 0.000000000000000000, 0.000000000000000000 ) ) ;
#799 = EDGE_LOOP ( 'NONE', ( #210, #52 ) ) ;
#800 = DIRECTION ( 'NONE',  ( -1.000000000000000000, 0.000000000000000000, 0.000000000000000000 ) ) ;
#801 = VERTEX_POINT ( 'NONE', #133 ) ;
#802 = VERTEX_POINT ( 'NONE', #1118 ) ;
#803 = CARTESIAN_POINT ( 'NONE',  ( -15.50000000000000000, -15.50000000000000000, 14.00000000000000000 ) ) ;
#804 = FACE_BOUND ( 'NONE', #131, .T. ) ;
#805 = FACE_OUTER_BOUND ( 'NONE', #105, .T. ) ;
#806 = ORIENTED_EDGE ( 'NONE', *, *, #539, .T. ) ;
#807 = PLANE ( 'NONE',  #1051 ) ;
#808 = EDGE_CURVE ( 'NONE', #738, #221, #416, .T. ) ;
#809 = ORIENTED_EDGE ( 'NONE', *, *, #280, .F. ) ;
#810 = AXIS2_PLACEMENT_3D ( 'NONE', #822, #126, #1222 ) ;
#811 = LINE ( 'NONE', #617, #1045 ) ;
#812 = CARTESIAN_POINT ( 'NONE',  ( -13.75000000000000000, 15.50000000000000000, 14.00000000000000000 ) ) ;
#813 = EDGE_CURVE ( 'NONE', #849, #450, #39, .T. ) ;
#814 = DIRECTION ( 'NONE',  ( 1.000000000000000000, 0.000000000000000000, 0.000000000000000000 ) ) ;
#815 =( NAMED_UNIT ( * ) SI_UNIT ( $, .STERADIAN. ) SOLID_ANGLE_UNIT ( ) );
#816 = VERTEX_POINT ( 'NONE', #1031 ) ;
#817 = ORIENTED_EDGE ( 'NONE', *, *, #552, .T. ) ;
#818 = AXIS2_PLACEMENT_3D ( 'NONE', #279, #572, #665 ) ;
#819 = DIRECTION ( 'NONE',  ( 0.000000000000000000, 0.000000000000000000, -1.000000000000000000 ) ) ;
#820 = AXIS2_PLACEMENT_3D ( 'NONE', #240, #1029, #1022 ) ;
#821 = VERTEX_POINT ( 'NONE', #236 ) ;
#822 = CARTESIAN_POINT ( 'NONE',  ( -15.50000000000000000, 15.50000000000000000, 4.000000000000000000 ) ) ;
#823 = LINE ( 'NONE', #244, #669 ) ;
#824 = APPLICATION_PROTOCOL_DEFINITION ( 'draft international standard', 'automotive_design', 1998, #771 ) ;
#825 = CIRCLE ( 'NONE', #268, 2.749999999999999112 ) ;
#826 = ORIENTED_EDGE ( 'NONE', *, *, #3, .F. ) ;
#827 = DIRECTION ( 'NONE',  ( 0.000000000000000000, 0.000000000000000000, -1.000000000000000000 ) ) ;
#828 = EDGE_LOOP ( 'NONE', ( #311, #1213 ) ) ;
#829 = DIRECTION ( 'NONE',  ( 1.000000000000000000, 0.000000000000000000, 0.000000000000000000 ) ) ;
#830 = CARTESIAN_POINT ( 'NONE',  ( -17.25000000000000000, -15.50000000000000000, 0.000000000000000000 ) ) ;
#831 = EDGE_CURVE ( 'NONE', #679, #228, #122, .T. ) ;
#832 = ORIENTED_EDGE ( 'NONE', *, *, #150, .T. ) ;
#833 = CARTESIAN_POINT ( 'NONE',  ( 0.000000000000000000, 0.000000000000000000, 7.000000000000000000 ) ) ;
#834 = EDGE_CURVE ( 'NONE', #1266, #4, #871, .T. ) ;
#835 = EDGE_CURVE ( 'NONE', #910, #561, #1110, .T. ) ;
#836 = AXIS2_PLACEMENT_3D ( 'NONE', #46, #438, #344 ) ;
#837 = CYLINDRICAL_SURFACE ( 'NONE', #655, 2.500000000000000000 ) ;
#838 = FACE_OUTER_BOUND ( 'NONE', #1211, .T. ) ;
#839 = CLOSED_SHELL ( 'NONE', ( #960, #566, #1125, #1256, #675, #868, #1165, #508, #1103, #153, #1075, #455, #908, #1060, #504, #624, #107, #653, #1119, #947, #451, #1000, #660, #296, #901, #276, #1166, #1055, #466, #250, #164, #949, #606, #699, #263, #259, #182, #102, #632, #55 ) ) ;
#840 = EDGE_CURVE ( 'NONE', #71, #641, #708, .T. ) ;
#841 = CIRCLE ( 'NONE', #1005, 14.00000000000000000 ) ;
#842 = VERTEX_POINT ( 'NONE', #640 ) ;
#843 = CARTESIAN_POINT ( 'NONE',  ( -27.50000000000000000, -3.367778697655219730E-15, 14.00000000000000000 ) ) ;
#844 = AXIS2_PLACEMENT_3D ( 'NONE', #1176, #6, #15 ) ;
#845 = CYLINDRICAL_SURFACE ( 'NONE', #261, 2.749999999999999112 ) ;
#846 = EDGE_CURVE ( 'NONE', #691, #290, #536, .T. ) ;
#847 = EDGE_CURVE ( 'NONE', #47, #772, #98, .T. ) ;
#848 = DIRECTION ( 'NONE',  ( -1.000000000000000000, 0.000000000000000000, 0.000000000000000000 ) ) ;
#849 = VERTEX_POINT ( 'NONE', #20 ) ;
#850 = APPLICATION_PROTOCOL_DEFINITION ( 'draft international standard', 'automotive_design', 1998, #554 ) ;
#851 = CYLINDRICAL_SURFACE ( 'NONE', #494, 16.00000000000000000 ) ;
#852 = VECTOR ( 'NONE', #763, 1000.000000000000000 ) ;
#853 = AXIS2_PLACEMENT_3D ( 'NONE', #190, #1263, #371 ) ;
#854 = DIRECTION ( 'NONE',  ( 1.000000000000000000, 0.000000000000000000, 0.000000000000000000 ) ) ;
#855 = ORIENTED_EDGE ( 'NONE', *, *, #598, .T. ) ;
#856 = ORIENTED_EDGE ( 'NONE', *, *, #748, .T. ) ;
#857 = CARTESIAN_POINT ( 'NONE',  ( 0.000000000000000000, 0.000000000000000000, 14.00000000000000000 ) ) ;
#858 = AXIS2_PLACEMENT_3D ( 'NONE', #1072, #786, #188 ) ;
#859 = CARTESIAN_POINT ( 'NONE',  ( 0.000000000000000000, 0.000000000000000000, 14.00000000000000000 ) ) ;
#860 = ORIENTED_EDGE ( 'NONE', *, *, #530, .F. ) ;
#861 = EDGE_CURVE ( 'NONE', #641, #816, #1150, .T. ) ;
#862 = DIRECTION ( 'NONE',  ( 0.000000000000000000, 0.000000000000000000, -1.000000000000000000 ) ) ;
#863 = FACE_BOUND ( 'NONE', #149, .T. ) ;
#864 = ORIENTED_EDGE ( 'NONE', *, *, #835, .T. ) ;
#865 = LINE ( 'NONE', #474, #1112 ) ;
#866 = CYLINDRICAL_SURFACE ( 'NONE', #791, 2.499999999999998668 ) ;
#867 = CARTESIAN_POINT ( 'NONE',  ( 0.000000000000000000, 0.000000000000000000, 7.000000000000000000 ) ) ;
#868 = ADVANCED_FACE ( 'NONE', ( #1204 ), #242, .F. ) ;
#869 = VECTOR ( 'NONE', #430, 1000.000000000000000 ) ;
#870 = ORIENTED_EDGE ( 'NONE', *, *, #835, .F. ) ;
#871 = CIRCLE ( 'NONE', #836, 16.00000000000000000 ) ;
#872 = FACE_BOUND ( 'NONE', #1219, .T. ) ;
#873 = ORIENTED_EDGE ( 'NONE', *, *, #515, .T. ) ;
#874 = LINE ( 'NONE', #774, #927 ) ;
#875 = DIRECTION ( 'NONE',  ( 1.000000000000000000, 0.000000000000000000, 0.000000000000000000 ) ) ;
#876 = PRODUCT ( 'Backup of Component3(Mirror) cf rod', 'Backup of Component3(Mirror) cf rod', '', ( #471 ) ) ;
#877 = VERTEX_POINT ( 'NONE', #935 ) ;
#878 = AXIS2_PLACEMENT_3D ( 'NONE', #1265, #693, #403 ) ;
#879 = DIRECTION ( 'NONE',  ( -1.000000000000000000, 0.000000000000000000, 0.000000000000000000 ) ) ;
#880 = ORIENTED_EDGE ( 'NONE', *, *, #227, .F. ) ;
#881 = DIRECTION ( 'NONE',  ( -1.000000000000000000, 0.000000000000000000, 0.000000000000000000 ) ) ;
#882 = PLANE ( 'NONE',  #1046 ) ;
#883 = PRODUCT_RELATED_PRODUCT_CATEGORY ( 'part', '', ( #876 ) ) ;
#884 = CARTESIAN_POINT ( 'NONE',  ( 8.005467014174450598E-16, 21.50000000000000000, 0.000000000000000000 ) ) ;
#885 = AXIS2_PLACEMENT_3D ( 'NONE', #399, #1089, #875 ) ;
#886 = VERTEX_POINT ( 'NONE', #54 ) ;
#887 = CARTESIAN_POINT ( 'NONE',  ( 0.000000000000000000, 0.000000000000000000, 7.000000000000000000 ) ) ;
#888 = ORIENTED_EDGE ( 'NONE', *, *, #539, .F. ) ;
#889 = ORIENTED_EDGE ( 'NONE', *, *, #907, .T. ) ;
#890 = DIRECTION ( 'NONE',  ( 0.000000000000000000, 0.000000000000000000, -1.000000000000000000 ) ) ;
#891 = DIRECTION ( 'NONE',  ( 0.000000000000000000, 0.000000000000000000, -1.000000000000000000 ) ) ;
#892 = ORIENTED_EDGE ( 'NONE', *, *, #1136, .T. ) ;
#893 = EDGE_LOOP ( 'NONE', ( #402, #986 ) ) ;
#894 = VERTEX_POINT ( 'NONE', #313 ) ;
#895 = DIRECTION ( 'NONE',  ( 1.000000000000000000, 0.000000000000000000, 0.000000000000000000 ) ) ;
#896 = CARTESIAN_POINT ( 'NONE',  ( -15.50000000000000000, 15.50000000000000000, 4.000000000000000000 ) ) ;
#897 = CYLINDRICAL_SURFACE ( 'NONE', #369, 2.749999999999999112 ) ;
#898 = ORIENTED_EDGE ( 'NONE', *, *, #63, .F. ) ;
#899 = VERTEX_POINT ( 'NONE', #1093 ) ;
#900 = DIRECTION ( 'NONE',  ( 1.000000000000000000, 0.000000000000000000, 0.000000000000000000 ) ) ;
#901 = ADVANCED_FACE ( 'NONE', ( #208 ), #604, .T. ) ;
#902 = ORIENTED_EDGE ( 'NONE', *, *, #150, .F. ) ;
#903 = CARTESIAN_POINT ( 'NONE',  ( -15.50000000000000000, -15.50000000000000000, 0.000000000000000000 ) ) ;
#904 = DIRECTION ( 'NONE',  ( 1.000000000000000000, 0.000000000000000000, 0.000000000000000000 ) ) ;
#905 = AXIS2_PLACEMENT_3D ( 'NONE', #91, #1078, #2 ) ;
#906 = CARTESIAN_POINT ( 'NONE',  ( 15.50000000000000000, -15.50000000000000000, 14.00000000000000000 ) ) ;
#907 = EDGE_CURVE ( 'NONE', #501, #1066, #1102, .T. ) ;
#908 = ADVANCED_FACE ( 'NONE', ( #29, #423 ), #807, .F. ) ;
#909 = AXIS2_PLACEMENT_3D ( 'NONE', #1070, #372, #761 ) ;
#910 = VERTEX_POINT ( 'NONE', #921 ) ;
#911 = CARTESIAN_POINT ( 'NONE',  ( -2.500000000000000000, 21.50000000000000000, 0.000000000000000000 ) ) ;
#912 = EDGE_LOOP ( 'NONE', ( #257, #37, #889, #855 ) ) ;
#913 = EDGE_CURVE ( 'NONE', #802, #1180, #26, .T. ) ;
#914 = VERTEX_POINT ( 'NONE', #1148 ) ;
#915 = VERTEX_POINT ( 'NONE', #964 ) ;
#916 = CARTESIAN_POINT ( 'NONE',  ( -15.50000000000000000, -15.50000000000000000, 0.000000000000000000 ) ) ;
#917 = CARTESIAN_POINT ( 'NONE',  ( 16.00000000000000000, 0.000000000000000000, 0.000000000000000000 ) ) ;
#918 = DIRECTION ( 'NONE',  ( 1.000000000000000000, 0.000000000000000000, 0.000000000000000000 ) ) ;
#919 = ORIENTED_EDGE ( 'NONE', *, *, #393, .T. ) ;
#920 = EDGE_LOOP ( 'NONE', ( #377, #431 ) ) ;
#921 = CARTESIAN_POINT ( 'NONE',  ( 2.500000000000000000, 21.50000000000000000, 14.00000000000000000 ) ) ;
#922 = ORIENTED_EDGE ( 'NONE', *, *, #393, .F. ) ;
#923 = DIRECTION ( 'NONE',  ( -1.000000000000000000, 0.000000000000000000, 0.000000000000000000 ) ) ;
#924 = FACE_OUTER_BOUND ( 'NONE', #985, .T. ) ;
#925 = DIRECTION ( 'NONE',  ( 0.000000000000000000, 0.000000000000000000, -1.000000000000000000 ) ) ;
#926 = EDGE_LOOP ( 'NONE', ( #215, #715 ) ) ;
#927 = VECTOR ( 'NONE', #862, 1000.000000000000000 ) ;
#928 = LINE ( 'NONE', #446, #38 ) ;
#929 = ORIENTED_EDGE ( 'NONE', *, *, #933, .F. ) ;
#930 = CARTESIAN_POINT ( 'NONE',  ( 15.50000000000000000, 15.50000000000000000, 0.000000000000000000 ) ) ;
#931 = CARTESIAN_POINT ( 'NONE',  ( 8.005467014174450598E-16, 21.50000000000000000, 0.000000000000000000 ) ) ;
#932 = CARTESIAN_POINT ( 'NONE',  ( 16.00000000000000000, 0.000000000000000000, 7.000000000000000000 ) ) ;
#933 = EDGE_CURVE ( 'NONE', #738, #501, #270, .T. ) ;
#934 = AXIS2_PLACEMENT_3D ( 'NONE', #1201, #587, #1270 ) ;
#935 = CARTESIAN_POINT ( 'NONE',  ( -13.75000000000000000, -15.50000000000000000, 4.000000000000000000 ) ) ;
#936 = MECHANICAL_DESIGN_GEOMETRIC_PRESENTATION_REPRESENTATION (  '', ( #1068 ), #520 ) ;
#937 = ORIENTED_EDGE ( 'NONE', *, *, #322, .F. ) ;
#938 = EDGE_CURVE ( 'NONE', #288, #821, #597, .T. ) ;
#939 = DIRECTION ( 'NONE',  ( -1.000000000000000000, 0.000000000000000000, 0.000000000000000000 ) ) ;
#940 = CARTESIAN_POINT ( 'NONE',  ( 21.50000000000000000, -4.841881138603709386E-15, 0.000000000000000000 ) ) ;
#941 = VERTEX_POINT ( 'NONE', #752 ) ;
#942 = AXIS2_PLACEMENT_3D ( 'NONE', #728, #440, #1215 ) ;
#943 = DIRECTION ( 'NONE',  ( 1.000000000000000000, 0.000000000000000000, 0.000000000000000000 ) ) ;
#944 = DIRECTION ( 'NONE',  ( -1.000000000000000000, 0.000000000000000000, 0.000000000000000000 ) ) ;
#945 = VECTOR ( 'NONE', #328, 1000.000000000000000 ) ;
#946 = AXIS2_PLACEMENT_3D ( 'NONE', #497, #78, #1153 ) ;
#947 = ADVANCED_FACE ( 'NONE', ( #175 ), #851, .F. ) ;
#948 = CARTESIAN_POINT ( 'NONE',  ( 15.50000000000000000, -15.50000000000000000, 0.000000000000000000 ) ) ;
#949 = ADVANCED_FACE ( 'NONE', ( #1244 ), #970, .F. ) ;
#950 = CIRCLE ( 'NONE', #663, 14.00000000000000000 ) ;
#951 = CARTESIAN_POINT ( 'NONE',  ( 17.25000000000000000, -15.50000000000000000, 4.000000000000000000 ) ) ;
#952 = ORIENTED_EDGE ( 'NONE', *, *, #322, .T. ) ;
#953 = DIRECTION ( 'NONE',  ( 0.000000000000000000, 0.000000000000000000, 1.000000000000000000 ) ) ;
#954 =( LENGTH_UNIT ( ) NAMED_UNIT ( * ) SI_UNIT ( .MILLI., .METRE. ) );
#955 = LINE ( 'NONE', #1056, #723 ) ;
#956 = ORIENTED_EDGE ( 'NONE', *, *, #260, .F. ) ;
#957 = DIRECTION ( 'NONE',  ( 0.000000000000000000, 0.000000000000000000, -1.000000000000000000 ) ) ;
#958 = CIRCLE ( 'NONE', #582, 2.749999999999999112 ) ;
#959 = EDGE_CURVE ( 'NONE', #691, #910, #203, .T. ) ;
#960 = ADVANCED_FACE ( 'NONE', ( #1225, #351, #186, #863, #736, #664, #1250, #269, #1154, #1049 ), #1255, .F. ) ;
#961 = FACE_OUTER_BOUND ( 'NONE', #397, .T. ) ;
#962 = AXIS2_PLACEMENT_3D ( 'NONE', #1200, #696, #1170 ) ;
#963 = DIRECTION ( 'NONE',  ( 1.000000000000000000, 0.000000000000000000, 0.000000000000000000 ) ) ;
#964 = CARTESIAN_POINT ( 'NONE',  ( 19.00000000000000000, -4.841881138603709386E-15, 0.000000000000000000 ) ) ;
#965 = EDGE_CURVE ( 'NONE', #315, #731, #950, .T. ) ;
#966 = CIRCLE ( 'NONE', #1137, 1.750000000000001554 ) ;
#967 = CARTESIAN_POINT ( 'NONE',  ( 15.50000000000000000, 15.50000000000000000, 0.000000000000000000 ) ) ;
#968 = EDGE_CURVE ( 'NONE', #12, #877, #776, .T. ) ;
#969 = ORIENTED_EDGE ( 'NONE', *, *, #676, .T. ) ;
#970 = CYLINDRICAL_SURFACE ( 'NONE', #989, 14.00000000000000000 ) ;
#971 = EDGE_LOOP ( 'NONE', ( #1194, #336 ) ) ;
#972 = DIRECTION ( 'NONE',  ( 0.000000000000000000, 0.000000000000000000, -1.000000000000000000 ) ) ;
#973 = CARTESIAN_POINT ( 'NONE',  ( -16.00000000000000000, -1.959434878635765131E-15, 7.000000000000000000 ) ) ;
#974 = DIRECTION ( 'NONE',  ( -1.000000000000000000, 0.000000000000000000, 0.000000000000000000 ) ) ;
#975 = VECTOR ( 'NONE', #1127, 1000.000000000000000 ) ;
#976 = EDGE_CURVE ( 'NONE', #772, #285, #770, .T. ) ;
#977 = LINE ( 'NONE', #395, #414 ) ;
#978 = ORIENTED_EDGE ( 'NONE', *, *, #840, .T. ) ;
#979 = AXIS2_PLACEMENT_3D ( 'NONE', #628, #211, #408 ) ;
#980 = VERTEX_POINT ( 'NONE', #83 ) ;
#981 = CARTESIAN_POINT ( 'NONE',  ( 0.000000000000000000, 0.000000000000000000, 7.000000000000000000 ) ) ;
#982 = CIRCLE ( 'NONE', #365, 2.749999999999999112 ) ;
#983 = DIRECTION ( 'NONE',  ( 0.000000000000000000, 0.000000000000000000, -1.000000000000000000 ) ) ;
#984 = DIRECTION ( 'NONE',  ( 1.000000000000000000, 0.000000000000000000, 0.000000000000000000 ) ) ;
#985 = EDGE_LOOP ( 'NONE', ( #346, #413, #784, #826 ) ) ;
#986 = ORIENTED_EDGE ( 'NONE', *, *, #783, .F. ) ;
#987 = FACE_BOUND ( 'NONE', #201, .T. ) ;
#988 = LINE ( 'NONE', #36, #1149 ) ;
#989 = AXIS2_PLACEMENT_3D ( 'NONE', #867, #957, #473 ) ;
#990 = ORIENTED_EDGE ( 'NONE', *, *, #718, .T. ) ;
#991 = DIRECTION ( 'NONE',  ( 0.000000000000000000, 0.000000000000000000, -1.000000000000000000 ) ) ;
#992 = ORIENTED_EDGE ( 'NONE', *, *, #1058, .F. ) ;
#993 = MANIFOLD_SOLID_BREP ( 'NONE', #839 ) ;
#994 = CARTESIAN_POINT ( 'NONE',  ( 0.000000000000000000, 0.000000000000000000, 7.000000000000000000 ) ) ;
#995 = LINE ( 'NONE', #1105, #562 ) ;
#996 = DIRECTION ( 'NONE',  ( 1.000000000000000000, 0.000000000000000000, 0.000000000000000000 ) ) ;
#997 = CIRCLE ( 'NONE', #326, 2.749999999999999112 ) ;
#998 = DIRECTION ( 'NONE',  ( 0.000000000000000000, 0.000000000000000000, -1.000000000000000000 ) ) ;
#999 = ORIENTED_EDGE ( 'NONE', *, *, #1077, .F. ) ;
#1000 = ADVANCED_FACE ( 'NONE', ( #712 ), #275, .F. ) ;
#1001 = EDGE_LOOP ( 'NONE', ( #635, #1221 ) ) ;
#1002 = DIRECTION ( 'NONE',  ( -1.000000000000000000, 0.000000000000000000, 0.000000000000000000 ) ) ;
#1003 = CARTESIAN_POINT ( 'NONE',  ( 17.25000000000000000, -15.50000000000000000, 14.00000000000000000 ) ) ;
#1004 = DIRECTION ( 'NONE',  ( 0.000000000000000000, 0.000000000000000000, -1.000000000000000000 ) ) ;
#1005 = AXIS2_PLACEMENT_3D ( 'NONE', #271, #749, #1261 ) ;
#1006 = EDGE_LOOP ( 'NONE', ( #528, #864, #384, #750 ) ) ;
#1007 = CARTESIAN_POINT ( 'NONE',  ( 15.50000000000000000, 15.50000000000000000, 14.00000000000000000 ) ) ;
#1008 = ORIENTED_EDGE ( 'NONE', *, *, #345, .T. ) ;
#1009 = ORIENTED_EDGE ( 'NONE', *, *, #813, .T. ) ;
#1010 = DIRECTION ( 'NONE',  ( 1.000000000000000000, 0.000000000000000000, 0.000000000000000000 ) ) ;
#1011 = DIRECTION ( 'NONE',  ( 1.000000000000000000, 0.000000000000000000, 0.000000000000000000 ) ) ;
#1012 = DIRECTION ( 'NONE',  ( 0.000000000000000000, -1.000000000000000000, 0.000000000000000000 ) ) ;
#1013 = CARTESIAN_POINT ( 'NONE',  ( -17.25000000000000000, 15.50000000000000000, 4.000000000000000000 ) ) ;
#1014 = ORIENTED_EDGE ( 'NONE', *, *, #965, .T. ) ;
#1015 = CIRCLE ( 'NONE', #844, 2.749999999999999112 ) ;
#1016 = ORIENTED_EDGE ( 'NONE', *, *, #360, .T. ) ;
#1017 = DIRECTION ( 'NONE',  ( 0.000000000000000000, 0.000000000000000000, -1.000000000000000000 ) ) ;
#1018 = ORIENTED_EDGE ( 'NONE', *, *, #11, .T. ) ;
#1019 = CARTESIAN_POINT ( 'NONE',  ( -18.25000000000000000, -15.50000000000000000, 0.000000000000000000 ) ) ;
#1020 = CARTESIAN_POINT ( 'NONE',  ( 24.00000000000000000, -4.535719438816869938E-15, 0.000000000000000000 ) ) ;
#1021 = CYLINDRICAL_SURFACE ( 'NONE', #1101, 2.499999999999998668 ) ;
#1022 = DIRECTION ( 'NONE',  ( 1.000000000000000000, 0.000000000000000000, 0.000000000000000000 ) ) ;
#1023 = VERTEX_POINT ( 'NONE', #392 ) ;
#1024 = DIRECTION ( 'NONE',  ( 0.000000000000000000, 0.000000000000000000, 1.000000000000000000 ) ) ;
#1025 = ORIENTED_EDGE ( 'NONE', *, *, #676, .F. ) ;
#1026 = EDGE_CURVE ( 'NONE', #608, #592, #995, .T. ) ;
#1027 = LINE ( 'NONE', #426, #502 ) ;
#1028 = CARTESIAN_POINT ( 'NONE',  ( 2.500000000000000000, 21.50000000000000000, 0.000000000000000000 ) ) ;
#1029 = DIRECTION ( 'NONE',  ( 0.000000000000000000, 0.000000000000000000, 1.000000000000000000 ) ) ;
#1030 = CIRCLE ( 'NONE', #853, 1.750000000000001554 ) ;
#1031 = CARTESIAN_POINT ( 'NONE',  ( -2.500000000000000000, -21.50000000000000000, 0.000000000000000000 ) ) ;
#1032 = AXIS2_PLACEMENT_3D ( 'NONE', #144, #62, #944 ) ;
#1033 = EDGE_LOOP ( 'NONE', ( #616, #633, #795, #171 ) ) ;
#1034 = CARTESIAN_POINT ( 'NONE',  ( 21.50000000000000000, -4.841881138603709386E-15, 0.000000000000000000 ) ) ;
#1035 = CARTESIAN_POINT ( 'NONE',  ( -21.50000000000000000, 2.147658180479529816E-15, 0.000000000000000000 ) ) ;
#1036 = AXIS2_PLACEMENT_3D ( 'NONE', #119, #516, #814 ) ;
#1037 = ORIENTED_EDGE ( 'NONE', *, *, #847, .F. ) ;
#1038 = CYLINDRICAL_SURFACE ( 'NONE', #714, 2.500000000000000000 ) ;
#1039 = DIRECTION ( 'NONE',  ( 1.000000000000000000, 0.000000000000000000, 0.000000000000000000 ) ) ;
#1040 = ORIENTED_EDGE ( 'NONE', *, *, #1094, .T. ) ;
#1041 = AXIS2_PLACEMENT_3D ( 'NONE', #1042, #729, #546 ) ;
#1042 = CARTESIAN_POINT ( 'NONE',  ( 21.50000000000000000, -4.841881138603709386E-15, 0.000000000000000000 ) ) ;
#1043 = EDGE_CURVE ( 'NONE', #577, #1180, #781, .T. ) ;
#1044 = EDGE_CURVE ( 'NONE', #679, #703, #441, .T. ) ;
#1045 = VECTOR ( 'NONE', #34, 1000.000000000000000 ) ;
#1046 = AXIS2_PLACEMENT_3D ( 'NONE', #797, #686, #904 ) ;
#1047 = DIRECTION ( 'NONE',  ( 0.000000000000000000, 0.000000000000000000, -1.000000000000000000 ) ) ;
#1048 = ORIENTED_EDGE ( 'NONE', *, *, #503, .T. ) ;
#1049 = FACE_OUTER_BOUND ( 'NONE', #920, .T. ) ;
#1050 = AXIS2_PLACEMENT_3D ( 'NONE', #887, #298, #495 ) ;
#1051 = AXIS2_PLACEMENT_3D ( 'NONE', #717, #229, #529 ) ;
#1052 = DIRECTION ( 'NONE',  ( 1.000000000000000000, 0.000000000000000000, 0.000000000000000000 ) ) ;
#1053 = ORIENTED_EDGE ( 'NONE', *, *, #1062, .T. ) ;
#1054 = DIRECTION ( 'NONE',  ( 0.000000000000000000, 0.000000000000000000, -1.000000000000000000 ) ) ;
#1055 = ADVANCED_FACE ( 'NONE', ( #206 ), #491, .F. ) ;
#1056 = CARTESIAN_POINT ( 'NONE',  ( -17.25000000000000000, 15.50000000000000000, 0.000000000000000000 ) ) ;
#1057 = EDGE_LOOP ( 'NONE', ( #757, #990, #873, #166 ) ) ;
#1058 = EDGE_CURVE ( 'NONE', #314, #608, #1015, .T. ) ;
#1059 = CIRCLE ( 'NONE', #1041, 2.499999999999998668 ) ;
#1060 = ADVANCED_FACE ( 'NONE', ( #1269, #506 ), #1098, .T. ) ;
#1061 = ORIENTED_EDGE ( 'NONE', *, *, #1155, .F. ) ;
#1062 = EDGE_CURVE ( 'NONE', #1152, #228, #1168, .T. ) ;
#1063 = CYLINDRICAL_SURFACE ( 'NONE', #595, 1.750000000000001554 ) ;
#1064 = CARTESIAN_POINT ( 'NONE',  ( 18.25000000000000000, 15.50000000000000000, 0.000000000000000000 ) ) ;
#1065 = DIRECTION ( 'NONE',  ( 0.000000000000000000, 0.000000000000000000, -1.000000000000000000 ) ) ;
#1066 = VERTEX_POINT ( 'NONE', #317 ) ;
#1067 = DIRECTION ( 'NONE',  ( 0.000000000000000000, 0.000000000000000000, -1.000000000000000000 ) ) ;
#1068 = STYLED_ITEM ( 'NONE', ( #168 ), #993 ) ;
#1069 = LINE ( 'NONE', #174, #852 ) ;
#1070 = CARTESIAN_POINT ( 'NONE',  ( -15.50000000000000000, -15.50000000000000000, 4.000000000000000000 ) ) ;
#1071 = EDGE_CURVE ( 'NONE', #235, #450, #232, .T. ) ;
#1072 = CARTESIAN_POINT ( 'NONE',  ( 0.000000000000000000, 0.000000000000000000, 0.000000000000000000 ) ) ;
#1073 = ORIENTED_EDGE ( 'NONE', *, *, #1044, .F. ) ;
#1074 = CARTESIAN_POINT ( 'NONE',  ( 15.50000000000000000, -15.50000000000000000, 4.000000000000000000 ) ) ;
#1075 = ADVANCED_FACE ( 'NONE', ( #987, #514 ), #882, .F. ) ;
#1076 = CIRCLE ( 'NONE', #568, 2.500000000000000000 ) ;
#1077 = EDGE_CURVE ( 'NONE', #914, #565, #705, .T. ) ;
#1078 = DIRECTION ( 'NONE',  ( 0.000000000000000000, 0.000000000000000000, 1.000000000000000000 ) ) ;
#1079 = AXIS2_PLACEMENT_3D ( 'NONE', #425, #24, #1002 ) ;
#1080 = LINE ( 'NONE', #481, #465 ) ;
#1081 = DIRECTION ( 'NONE',  ( 0.000000000000000000, 0.000000000000000000, 1.000000000000000000 ) ) ;
#1082 = PLANE ( 'NONE',  #785 ) ;
#1083 = ORIENTED_EDGE ( 'NONE', *, *, #1139, .T. ) ;
#1084 = ORIENTED_EDGE ( 'NONE', *, *, #163, .T. ) ;
#1085 = CIRCLE ( 'NONE', #22, 1.750000000000001554 ) ;
#1086 = CARTESIAN_POINT ( 'NONE',  ( 15.50000000000000000, -15.50000000000000000, 0.000000000000000000 ) ) ;
#1087 = ORIENTED_EDGE ( 'NONE', *, *, #32, .F. ) ;
#1088 = DIRECTION ( 'NONE',  ( 1.000000000000000000, 0.000000000000000000, 0.000000000000000000 ) ) ;
#1089 = DIRECTION ( 'NONE',  ( 0.000000000000000000, 0.000000000000000000, -1.000000000000000000 ) ) ;
#1090 = CARTESIAN_POINT ( 'NONE',  ( -15.50000000000000000, 15.50000000000000000, 14.00000000000000000 ) ) ;
#1091 = VECTOR ( 'NONE', #575, 1000.000000000000000 ) ;
#1092 = ORIENTED_EDGE ( 'NONE', *, *, #649, .T. ) ;
#1093 = CARTESIAN_POINT ( 'NONE',  ( -2.500000000000000000, -21.50000000000000000, 14.00000000000000000 ) ) ;
#1094 = EDGE_CURVE ( 'NONE', #731, #315, #485, .T. ) ;
#1095 = ORIENTED_EDGE ( 'NONE', *, *, #277, .F. ) ;
#1096 = ORIENTED_EDGE ( 'NONE', *, *, #861, .F. ) ;
#1097 = DIRECTION ( 'NONE',  ( 0.000000000000000000, 0.000000000000000000, -1.000000000000000000 ) ) ;
#1098 = PLANE ( 'NONE',  #459 ) ;
#1099 = DIRECTION ( 'NONE',  ( -1.000000000000000000, 0.000000000000000000, 0.000000000000000000 ) ) ;
#1100 = EDGE_LOOP ( 'NONE', ( #1224, #992, #114, #856 ) ) ;
#1101 = AXIS2_PLACEMENT_3D ( 'NONE', #1034, #1232, #734 ) ;
#1102 = LINE ( 'NONE', #216, #340 ) ;
#1103 = ADVANCED_FACE ( 'NONE', ( #804, #1183 ), #309, .F. ) ;
#1104 = DIRECTION ( 'NONE',  ( 0.000000000000000000, 0.000000000000000000, -1.000000000000000000 ) ) ;
#1105 = CARTESIAN_POINT ( 'NONE',  ( -18.25000000000000000, 15.50000000000000000, 0.000000000000000000 ) ) ;
#1106 = DIRECTION ( 'NONE',  ( 1.000000000000000000, 0.000000000000000000, 0.000000000000000000 ) ) ;
#1107 = AXIS2_PLACEMENT_3D ( 'NONE', #903, #1182, #1088 ) ;
#1108 = CARTESIAN_POINT ( 'NONE',  ( 0.000000000000000000, 0.000000000000000000, 0.000000000000000000 ) ) ;
#1109 = ORIENTED_EDGE ( 'NONE', *, *, #840, .F. ) ;
#1110 = LINE ( 'NONE', #634, #869 ) ;
#1111 = ORIENTED_EDGE ( 'NONE', *, *, #469, .F. ) ;
#1112 = VECTOR ( 'NONE', #1252, 1000.000000000000000 ) ;
#1113 = DIRECTION ( 'NONE',  ( 0.000000000000000000, 0.000000000000000000, -1.000000000000000000 ) ) ;
#1114 = DIRECTION ( 'NONE',  ( 0.000000000000000000, 0.000000000000000000, -1.000000000000000000 ) ) ;
#1115 = CYLINDRICAL_SURFACE ( 'NONE', #934, 1.749999999999999778 ) ;
#1116 = DIRECTION ( 'NONE',  ( 1.000000000000000000, 0.000000000000000000, 0.000000000000000000 ) ) ;
#1117 = VERTEX_POINT ( 'NONE', #1003 ) ;
#1118 = CARTESIAN_POINT ( 'NONE',  ( -27.50000000000000000, -3.367778697655219730E-15, 7.000000000000000000 ) ) ;
#1119 = ADVANCED_FACE ( 'NONE', ( #324 ), #223, .F. ) ;
#1120 = ORIENTED_EDGE ( 'NONE', *, *, #530, .T. ) ;
#1121 = CARTESIAN_POINT ( 'NONE',  ( -16.00000000000000000, -1.959434878635765131E-15, 0.000000000000000000 ) ) ;
#1122 = FACE_OUTER_BOUND ( 'NONE', #293, .T. ) ;
#1123 = FACE_OUTER_BOUND ( 'NONE', #926, .T. ) ;
#1124 = DIRECTION ( 'NONE',  ( 0.000000000000000000, 0.000000000000000000, -1.000000000000000000 ) ) ;
#1125 = ADVANCED_FACE ( 'NONE', ( #191 ), #234, .F. ) ;
#1126 = EDGE_LOOP ( 'NONE', ( #418, #978, #667, #902 ) ) ;
#1127 = DIRECTION ( 'NONE',  ( 0.000000000000000000, 0.000000000000000000, -1.000000000000000000 ) ) ;
#1128 = DIRECTION ( 'NONE',  ( 0.000000000000000000, 0.000000000000000000, -1.000000000000000000 ) ) ;
#1129 = ORIENTED_EDGE ( 'NONE', *, *, #176, .F. ) ;
#1130 = SURFACE_SIDE_STYLE ('',( #578 ) ) ;
#1131 = CIRCLE ( 'NONE', #247, 25.00000000000000000 ) ;
#1132 = ORIENTED_EDGE ( 'NONE', *, *, #456, .T. ) ;
#1133 = AXIS2_PLACEMENT_3D ( 'NONE', #1090, #318, #207 ) ;
#1134 = DIRECTION ( 'NONE',  ( 1.000000000000000000, 0.000000000000000000, 0.000000000000000000 ) ) ;
#1135 = CARTESIAN_POINT ( 'NONE',  ( -15.50000000000000000, 15.50000000000000000, 0.000000000000000000 ) ) ;
#1136 = EDGE_CURVE ( 'NONE', #121, #285, #1240, .T. ) ;
#1137 = AXIS2_PLACEMENT_3D ( 'NONE', #202, #599, #773 ) ;
#1138 = ORIENTED_EDGE ( 'NONE', *, *, #360, .F. ) ;
#1139 = EDGE_CURVE ( 'NONE', #821, #288, #265, .T. ) ;
#1140 = FACE_OUTER_BOUND ( 'NONE', #778, .T. ) ;
#1141 = ORIENTED_EDGE ( 'NONE', *, *, #69, .T. ) ;
#1142 = CIRCLE ( 'NONE', #381, 2.749999999999999112 ) ;
#1143 = FACE_OUTER_BOUND ( 'NONE', #1057, .T. ) ;
#1144 = DIRECTION ( 'NONE',  ( 1.000000000000000000, 0.000000000000000000, 0.000000000000000000 ) ) ;
#1145 = AXIS2_PLACEMENT_3D ( 'NONE', #100, #1159, #671 ) ;
#1146 = DIRECTION ( 'NONE',  ( 1.000000000000000000, 0.000000000000000000, 0.000000000000000000 ) ) ;
#1147 = ORIENTED_EDGE ( 'NONE', *, *, #1230, .F. ) ;
#1148 = CARTESIAN_POINT ( 'NONE',  ( -25.00000000000000000, -3.061616997868384620E-15, 7.000000000000000000 ) ) ;
#1149 = VECTOR ( 'NONE', #94, 1000.000000000000000 ) ;
#1150 = CIRCLE ( 'NONE', #169, 2.500000000000000000 ) ;
#1151 = CARTESIAN_POINT ( 'NONE',  ( 21.50000000000000000, -4.841881138603709386E-15, 14.00000000000000000 ) ) ;
#1152 = VERTEX_POINT ( 'NONE', #1013 ) ;
#1153 = DIRECTION ( 'NONE',  ( 1.000000000000000000, 0.000000000000000000, 0.000000000000000000 ) ) ;
#1154 = FACE_BOUND ( 'NONE', #828, .T. ) ;
#1155 = EDGE_CURVE ( 'NONE', #886, #615, #152, .T. ) ;
#1156 = CARTESIAN_POINT ( 'NONE',  ( 0.000000000000000000, 0.000000000000000000, 0.000000000000000000 ) ) ;
#1157 = VECTOR ( 'NONE', #543, 1000.000000000000000 ) ;
#1158 = VERTEX_POINT ( 'NONE', #741 ) ;
#1159 = DIRECTION ( 'NONE',  ( 0.000000000000000000, 0.000000000000000000, -1.000000000000000000 ) ) ;
#1160 = DIRECTION ( 'NONE',  ( 0.000000000000000000, 0.000000000000000000, 1.000000000000000000 ) ) ;
#1161 = AXIS2_PLACEMENT_3D ( 'NONE', #87, #490, #881 ) ;
#1162 = CARTESIAN_POINT ( 'NONE',  ( 15.50000000000000000, 15.50000000000000000, 0.000000000000000000 ) ) ;
#1163 = CYLINDRICAL_SURFACE ( 'NONE', #1161, 2.500000000000000000 ) ;
#1164 = FILL_AREA_STYLE_COLOUR ( '', #359 ) ;
#1165 = ADVANCED_FACE ( 'NONE', ( #358, #1123 ), #157, .F. ) ;
#1166 = ADVANCED_FACE ( 'NONE', ( #730 ), #51, .F. ) ;
#1167 = CARTESIAN_POINT ( 'NONE',  ( 15.50000000000000000, -15.50000000000000000, 14.00000000000000000 ) ) ;
#1168 = CIRCLE ( 'NONE', #625, 1.749999999999999778 ) ;
#1169 = ORIENTED_EDGE ( 'NONE', *, *, #846, .T. ) ;
#1170 = DIRECTION ( 'NONE',  ( 1.000000000000000000, 0.000000000000000000, 0.000000000000000000 ) ) ;
#1171 = EDGE_LOOP ( 'NONE', ( #343, #952, #327, #304 ) ) ;
#1172 = CARTESIAN_POINT ( 'NONE',  ( 12.75000000000000000, 15.50000000000000000, 4.000000000000000000 ) ) ;
#1173 = EDGE_LOOP ( 'NONE', ( #1258, #437, #922, #613 ) ) ;
#1174 = ORIENTED_EDGE ( 'NONE', *, *, #1043, .T. ) ;
#1175 = LINE ( 'NONE', #1064, #588 ) ;
#1176 = CARTESIAN_POINT ( 'NONE',  ( -15.50000000000000000, 15.50000000000000000, 4.000000000000000000 ) ) ;
#1177 = CARTESIAN_POINT ( 'NONE',  ( 18.25000000000000000, -15.50000000000000000, 0.000000000000000000 ) ) ;
#1178 = CIRCLE ( 'NONE', #72, 1.749999999999999778 ) ;
#1179 = DIRECTION ( 'NONE',  ( 0.000000000000000000, 0.000000000000000000, -1.000000000000000000 ) ) ;
#1180 = VERTEX_POINT ( 'NONE', #254 ) ;
#1181 = AXIS2_PLACEMENT_3D ( 'NONE', #294, #475, #281 ) ;
#1182 = DIRECTION ( 'NONE',  ( 0.000000000000000000, 0.000000000000000000, -1.000000000000000000 ) ) ;
#1183 = FACE_OUTER_BOUND ( 'NONE', #120, .T. ) ;
#1184 = CARTESIAN_POINT ( 'NONE',  ( 19.00000000000000000, -4.841881138603709386E-15, 14.00000000000000000 ) ) ;
#1185 = EDGE_CURVE ( 'NONE', #565, #1023, #1131, .T. ) ;
#1186 = VERTEX_POINT ( 'NONE', #246 ) ;
#1187 = DIRECTION ( 'NONE',  ( 1.000000000000000000, 0.000000000000000000, 0.000000000000000000 ) ) ;
#1188 = EDGE_CURVE ( 'NONE', #592, #355, #982, .T. ) ;
#1189 = AXIS2_PLACEMENT_3D ( 'NONE', #884, #983, #421 ) ;
#1190 = ORIENTED_EDGE ( 'NONE', *, *, #155, .F. ) ;
#1191 = LINE ( 'NONE', #117, #64 ) ;
#1192 = CARTESIAN_POINT ( 'NONE',  ( 0.000000000000000000, 0.000000000000000000, 14.00000000000000000 ) ) ;
#1193 = DIRECTION ( 'NONE',  ( 0.000000000000000000, 0.000000000000000000, -1.000000000000000000 ) ) ;
#1194 = ORIENTED_EDGE ( 'NONE', *, *, #19, .T. ) ;
#1195 = VERTEX_POINT ( 'NONE', #638 ) ;
#1196 = CARTESIAN_POINT ( 'NONE',  ( 0.000000000000000000, 0.000000000000000000, 0.000000000000000000 ) ) ;
#1197 = ORIENTED_EDGE ( 'NONE', *, *, #163, .F. ) ;
#1198 = ORIENTED_EDGE ( 'NONE', *, *, #550, .T. ) ;
#1199 = CARTESIAN_POINT ( 'NONE',  ( 0.000000000000000000, 0.000000000000000000, 7.000000000000000000 ) ) ;
#1200 = CARTESIAN_POINT ( 'NONE',  ( 15.50000000000000000, 15.50000000000000000, 4.000000000000000000 ) ) ;
#1201 = CARTESIAN_POINT ( 'NONE',  ( -15.50000000000000000, -15.50000000000000000, 0.000000000000000000 ) ) ;
#1202 = ORIENTED_EDGE ( 'NONE', *, *, #241, .F. ) ;
#1203 = AXIS2_PLACEMENT_3D ( 'NONE', #156, #356, #943 ) ;
#1204 = FACE_OUTER_BOUND ( 'NONE', #1100, .T. ) ;
#1205 = EDGE_LOOP ( 'NONE', ( #870, #31, #1169, #1248 ) ) ;
#1206 = CYLINDRICAL_SURFACE ( 'NONE', #161, 27.50000000000000000 ) ;
#1207 = CARTESIAN_POINT ( 'NONE',  ( -18.25000000000000000, -15.50000000000000000, 4.000000000000000000 ) ) ;
#1208 = DIRECTION ( 'NONE',  ( 1.000000000000000000, 0.000000000000000000, 0.000000000000000000 ) ) ;
#1209 = CIRCLE ( 'NONE', #818, 2.749999999999999112 ) ;
#1210 = EDGE_CURVE ( 'NONE', #1023, #565, #162, .T. ) ;
#1211 = EDGE_LOOP ( 'NONE', ( #674, #404, #23, #1141 ) ) ;
#1212 = DIRECTION ( 'NONE',  ( 1.000000000000000000, 0.000000000000000000, 0.000000000000000000 ) ) ;
#1213 = ORIENTED_EDGE ( 'NONE', *, *, #411, .T. ) ;
#1214 = CIRCLE ( 'NONE', #905, 1.749999999999999778 ) ;
#1215 = DIRECTION ( 'NONE',  ( 1.000000000000000000, 0.000000000000000000, 0.000000000000000000 ) ) ;
#1216 = LINE ( 'NONE', #341, #556 ) ;
#1217 = DIRECTION ( 'NONE',  ( 1.000000000000000000, 0.000000000000000000, 0.000000000000000000 ) ) ;
#1218 = AXIS2_PLACEMENT_3D ( 'NONE', #857, #764, #283 ) ;
#1219 = EDGE_LOOP ( 'NONE', ( #1111, #1268 ) ) ;
#1220 = CARTESIAN_POINT ( 'NONE',  ( -13.75000000000000000, 15.50000000000000000, 0.000000000000000000 ) ) ;
#1221 = ORIENTED_EDGE ( 'NONE', *, *, #286, .T. ) ;
#1222 = DIRECTION ( 'NONE',  ( 1.000000000000000000, 0.000000000000000000, 0.000000000000000000 ) ) ;
#1223 = CARTESIAN_POINT ( 'NONE',  ( -15.50000000000000000, -15.50000000000000000, 0.000000000000000000 ) ) ;
#1224 = ORIENTED_EDGE ( 'NONE', *, *, #1026, .F. ) ;
#1225 = FACE_BOUND ( 'NONE', #971, .T. ) ;
#1226 = VECTOR ( 'NONE', #113, 1000.000000000000000 ) ;
#1227 = ORIENTED_EDGE ( 'NONE', *, *, #241, .T. ) ;
#1228 = DIRECTION ( 'NONE',  ( 0.000000000000000000, 0.000000000000000000, -1.000000000000000000 ) ) ;
#1229 = CARTESIAN_POINT ( 'NONE',  ( -21.50000000000000000, 2.147658180479529816E-15, 14.00000000000000000 ) ) ;
#1230 = EDGE_CURVE ( 'NONE', #915, #743, #658, .T. ) ;
#1231 = ORIENTED_EDGE ( 'NONE', *, *, #968, .T. ) ;
#1232 = DIRECTION ( 'NONE',  ( 0.000000000000000000, 0.000000000000000000, -1.000000000000000000 ) ) ;
#1233 = CARTESIAN_POINT ( 'NONE',  ( 15.50000000000000000, 15.50000000000000000, 4.000000000000000000 ) ) ;
#1234 = AXIS2_PLACEMENT_3D ( 'NONE', #1162, #287, #854 ) ;
#1235 = AXIS2_PLACEMENT_3D ( 'NONE', #586, #1264, #93 ) ;
#1236 = DIRECTION ( 'NONE',  ( 1.000000000000000000, 0.000000000000000000, 0.000000000000000000 ) ) ;
#1237 = FACE_BOUND ( 'NONE', #537, .T. ) ;
#1238 = ORIENTED_EDGE ( 'NONE', *, *, #933, .T. ) ;
#1239 =( NAMED_UNIT ( * ) PLANE_ANGLE_UNIT ( ) SI_UNIT ( $, .RADIAN. ) );
#1240 = CIRCLE ( 'NONE', #75, 1.750000000000001554 ) ;
#1241 = CIRCLE ( 'NONE', #1133, 1.749999999999999778 ) ;
#1242 = CARTESIAN_POINT ( 'NONE',  ( 15.50000000000000000, -15.50000000000000000, 0.000000000000000000 ) ) ;
#1243 = ORIENTED_EDGE ( 'NONE', *, *, #380, .F. ) ;
#1244 = FACE_OUTER_BOUND ( 'NONE', #1171, .T. ) ;
#1245 = CIRCLE ( 'NONE', #1189, 2.500000000000000000 ) ;
#1246 = AXIS2_PLACEMENT_3D ( 'NONE', #73, #668, #88 ) ;
#1247 = FACE_BOUND ( 'NONE', #580, .T. ) ;
#1248 = ORIENTED_EDGE ( 'NONE', *, *, #469, .T. ) ;
#1249 = CARTESIAN_POINT ( 'NONE',  ( 2.500000000000000000, -21.50000000000000000, 14.00000000000000000 ) ) ;
#1250 = FACE_BOUND ( 'NONE', #422, .T. ) ;
#1251 = EDGE_LOOP ( 'NONE', ( #605, #1018 ) ) ;
#1252 = DIRECTION ( 'NONE',  ( 0.000000000000000000, 0.000000000000000000, -1.000000000000000000 ) ) ;
#1253 = AXIS2_PLACEMENT_3D ( 'NONE', #650, #740, #458 ) ;
#1254 = DIRECTION ( 'NONE',  ( 0.000000000000000000, 0.000000000000000000, -1.000000000000000000 ) ) ;
#1255 = PLANE ( 'NONE',  #1218 ) ;
#1256 = ADVANCED_FACE ( 'NONE', ( #838 ), #631, .F. ) ;
#1257 = CIRCLE ( 'NONE', #86, 2.500000000000000000 ) ;
#1258 = ORIENTED_EDGE ( 'NONE', *, *, #130, .F. ) ;
#1259 = CIRCLE ( 'NONE', #388, 2.749999999999999112 ) ;
#1260 = AXIS2_PLACEMENT_3D ( 'NONE', #618, #482, #295 ) ;
#1261 = DIRECTION ( 'NONE',  ( 1.000000000000000000, 0.000000000000000000, 0.000000000000000000 ) ) ;
#1262 = VERTEX_POINT ( 'NONE', #651 ) ;
#1263 = DIRECTION ( 'NONE',  ( 0.000000000000000000, 0.000000000000000000, 1.000000000000000000 ) ) ;
#1264 = DIRECTION ( 'NONE',  ( 0.000000000000000000, 0.000000000000000000, -1.000000000000000000 ) ) ;
#1265 = CARTESIAN_POINT ( 'NONE',  ( 0.000000000000000000, 0.000000000000000000, 7.000000000000000000 ) ) ;
#1266 = VERTEX_POINT ( 'NONE', #932 ) ;
#1267 = ORIENTED_EDGE ( 'NONE', *, *, #487, .F. ) ;
#1268 = ORIENTED_EDGE ( 'NONE', *, *, #509, .F. ) ;
#1269 = FACE_BOUND ( 'NONE', #522, .T. ) ;
#1270 = DIRECTION ( 'NONE',  ( 1.000000000000000000, 0.000000000000000000, 0.000000000000000000 ) ) ;
#1271 = ORIENTED_EDGE ( 'NONE', *, *, #3, .T. ) ;
ENDSEC;
END-ISO-10303-21;
