ISO-10303-21;
HEADER;
FILE_DESCRIPTION (( 'STEP AP214' ),
    '1' );
FILE_NAME ('Backup of Component3(Mirror).STEP',
    '2026-02-20T02:15:11',
    ( '' ),
    ( '' ),
    'SwSTEP 2.0',
    'SolidWorks 2023',
    '' );
FILE_SCHEMA (( 'AUTOMOTIVE_DESIGN' ));
ENDSEC;

DATA;
#1 = DIRECTION ( 'NONE',  ( 1.000000000000000000, 0.000000000000000000, 0.000000000000000000 ) ) ;
#2 = CARTESIAN_POINT ( 'NONE',  ( 15.50000000000000000, -15.50000000000000000, 0.000000000000000000 ) ) ;
#3 = EDGE_LOOP ( 'NONE', ( #568, #1060, #62, #1123 ) ) ;
#4 = AXIS2_PLACEMENT_3D ( 'NONE', #416, #822, #316 ) ;
#5 = CIRCLE ( 'NONE', #517, 2.500000000000000000 ) ;
#6 = VECTOR ( 'NONE', #891, 1000.000000000000000 ) ;
#7 = CARTESIAN_POINT ( 'NONE',  ( 19.00000000000000000, -4.841881138603709386E-15, 14.00000000000000000 ) ) ;
#8 = CARTESIAN_POINT ( 'NONE',  ( -21.50000000000000000, 2.147658180479529816E-15, 0.000000000000000000 ) ) ;
#9 = AXIS2_PLACEMENT_3D ( 'NONE', #1073, #485, #1087 ) ;
#10 = CARTESIAN_POINT ( 'NONE',  ( 16.00000000000000000, 0.000000000000000000, 7.000000000000000000 ) ) ;
#11 = DIRECTION ( 'NONE',  ( 1.000000000000000000, 0.000000000000000000, 0.000000000000000000 ) ) ;
#12 = VERTEX_POINT ( 'NONE', #42 ) ;
#13 = CARTESIAN_POINT ( 'NONE',  ( 0.000000000000000000, 0.000000000000000000, 7.000000000000000000 ) ) ;
#14 = ADVANCED_FACE ( 'NONE', ( #131 ), #1111, .F. ) ;
#15 = EDGE_LOOP ( 'NONE', ( #153, #283 ) ) ;
#16 = CIRCLE ( 'NONE', #930, 2.749999999999999112 ) ;
#17 = FACE_OUTER_BOUND ( 'NONE', #363, .T. ) ;
#18 = DIRECTION ( 'NONE',  ( 0.000000000000000000, 0.000000000000000000, 1.000000000000000000 ) ) ;
#19 = DIRECTION ( 'NONE',  ( 1.000000000000000000, 0.000000000000000000, 0.000000000000000000 ) ) ;
#20 = ORIENTED_EDGE ( 'NONE', *, *, #1005, .F. ) ;
#21 = DIRECTION ( 'NONE',  ( 0.000000000000000000, 0.000000000000000000, -1.000000000000000000 ) ) ;
#22 = EDGE_CURVE ( 'NONE', #72, #832, #730, .T. ) ;
#23 = LINE ( 'NONE', #220, #379 ) ;
#24 = CIRCLE ( 'NONE', #669, 1.750000000000001554 ) ;
#25 = FACE_BOUND ( 'NONE', #571, .T. ) ;
#26 = PRODUCT_DEFINITION_FORMATION_WITH_SPECIFIED_SOURCE ( 'ANY', '', #992, .NOT_KNOWN. ) ;
#27 = LINE ( 'NONE', #437, #126 ) ;
#28 = ADVANCED_FACE ( 'NONE', ( #408, #1219 ), #1199, .F. ) ;
#29 =( NAMED_UNIT ( * ) SI_UNIT ( $, .STERADIAN. ) SOLID_ANGLE_UNIT ( ) );
#30 = DIRECTION ( 'NONE',  ( -1.000000000000000000, 0.000000000000000000, 0.000000000000000000 ) ) ;
#31 = FACE_OUTER_BOUND ( 'NONE', #783, .T. ) ;
#32 = ORIENTED_EDGE ( 'NONE', *, *, #772, .T. ) ;
#33 = EDGE_LOOP ( 'NONE', ( #377, #650 ) ) ;
#34 = CARTESIAN_POINT ( 'NONE',  ( -24.00000000000000000, 2.147658180479529816E-15, 14.00000000000000000 ) ) ;
#35 = VECTOR ( 'NONE', #768, 1000.000000000000000 ) ;
#36 = DIRECTION ( 'NONE',  ( -1.000000000000000000, 0.000000000000000000, 0.000000000000000000 ) ) ;
#37 = CYLINDRICAL_SURFACE ( 'NONE', #692, 16.00000000000000000 ) ;
#38 = DIRECTION ( 'NONE',  ( 0.000000000000000000, 0.000000000000000000, -1.000000000000000000 ) ) ;
#39 = DIRECTION ( 'NONE',  ( 0.000000000000000000, 0.000000000000000000, -1.000000000000000000 ) ) ;
#40 = EDGE_LOOP ( 'NONE', ( #1045, #834, #1016, #263 ) ) ;
#41 = ORIENTED_EDGE ( 'NONE', *, *, #787, .T. ) ;
#42 = CARTESIAN_POINT ( 'NONE',  ( -13.75000000000000000, -15.50000000000000000, 14.00000000000000000 ) ) ;
#43 = LINE ( 'NONE', #838, #512 ) ;
#44 = CYLINDRICAL_SURFACE ( 'NONE', #1151, 1.750000000000001554 ) ;
#45 = CIRCLE ( 'NONE', #707, 2.499999999999998668 ) ;
#46 = VERTEX_POINT ( 'NONE', #337 ) ;
#47 = EDGE_CURVE ( 'NONE', #989, #749, #618, .T. ) ;
#48 = ORIENTED_EDGE ( 'NONE', *, *, #537, .F. ) ;
#49 = CARTESIAN_POINT ( 'NONE',  ( 15.50000000000000000, -15.50000000000000000, 0.000000000000000000 ) ) ;
#50 = DIRECTION ( 'NONE',  ( -1.000000000000000000, 0.000000000000000000, 0.000000000000000000 ) ) ;
#51 = CARTESIAN_POINT ( 'NONE',  ( 18.25000000000000000, -15.50000000000000000, 0.000000000000000000 ) ) ;
#52 = ORIENTED_EDGE ( 'NONE', *, *, #717, .F. ) ;
#53 = ORIENTED_EDGE ( 'NONE', *, *, #1161, .F. ) ;
#54 = ORIENTED_EDGE ( 'NONE', *, *, #63, .T. ) ;
#55 = FACE_BOUND ( 'NONE', #932, .T. ) ;
#56 = DIRECTION ( 'NONE',  ( 1.000000000000000000, 0.000000000000000000, 0.000000000000000000 ) ) ;
#57 = CARTESIAN_POINT ( 'NONE',  ( -3.494769659541620390E-15, -21.50000000000000000, 0.000000000000000000 ) ) ;
#58 = VECTOR ( 'NONE', #584, 1000.000000000000000 ) ;
#59 = PLANE ( 'NONE',  #209 ) ;
#60 = ORIENTED_EDGE ( 'NONE', *, *, #772, .F. ) ;
#61 = ORIENTED_EDGE ( 'NONE', *, *, #896, .F. ) ;
#62 = ORIENTED_EDGE ( 'NONE', *, *, #238, .T. ) ;
#63 = EDGE_CURVE ( 'NONE', #739, #364, #1013, .T. ) ;
#64 = DIRECTION ( 'NONE',  ( 0.000000000000000000, 0.000000000000000000, -1.000000000000000000 ) ) ;
#65 = DIRECTION ( 'NONE',  ( 1.000000000000000000, 0.000000000000000000, 0.000000000000000000 ) ) ;
#66 = EDGE_CURVE ( 'NONE', #1160, #507, #27, .T. ) ;
#67 = DIRECTION ( 'NONE',  ( 0.000000000000000000, 0.000000000000000000, -1.000000000000000000 ) ) ;
#68 = CIRCLE ( 'NONE', #172, 2.499999999999998668 ) ;
#69 = CYLINDRICAL_SURFACE ( 'NONE', #697, 2.500000000000000000 ) ;
#70 = ORIENTED_EDGE ( 'NONE', *, *, #103, .F. ) ;
#71 = EDGE_LOOP ( 'NONE', ( #660, #321 ) ) ;
#72 = VERTEX_POINT ( 'NONE', #34 ) ;
#73 = AXIS2_PLACEMENT_3D ( 'NONE', #1136, #442, #845 ) ;
#74 = CARTESIAN_POINT ( 'NONE',  ( -15.50000000000000000, -15.50000000000000000, 0.000000000000000000 ) ) ;
#75 = FACE_OUTER_BOUND ( 'NONE', #545, .T. ) ;
#76 = EDGE_CURVE ( 'NONE', #444, #335, #413, .T. ) ;
#77 = DIRECTION ( 'NONE',  ( 1.000000000000000000, 0.000000000000000000, 0.000000000000000000 ) ) ;
#78 = ORIENTED_EDGE ( 'NONE', *, *, #886, .F. ) ;
#79 = UNCERTAINTY_MEASURE_WITH_UNIT (LENGTH_MEASURE( 1.000000000000000082E-05 ), #1003, 'distance_accuracy_value', 'NONE');
#80 = ORIENTED_EDGE ( 'NONE', *, *, #92, .F. ) ;
#81 = VERTEX_POINT ( 'NONE', #1206 ) ;
#82 = DIRECTION ( 'NONE',  ( 0.000000000000000000, 0.000000000000000000, -1.000000000000000000 ) ) ;
#83 = VECTOR ( 'NONE', #270, 1000.000000000000000 ) ;
#84 = CARTESIAN_POINT ( 'NONE',  ( 13.75000000000000000, 15.50000000000000000, 0.000000000000000000 ) ) ;
#85 = CIRCLE ( 'NONE', #261, 2.749999999999999112 ) ;
#86 = ORIENTED_EDGE ( 'NONE', *, *, #535, .T. ) ;
#87 = CIRCLE ( 'NONE', #475, 16.00000000000000000 ) ;
#88 = EDGE_CURVE ( 'NONE', #719, #1211, #227, .T. ) ;
#89 = LINE ( 'NONE', #484, #117 ) ;
#90 = DIRECTION ( 'NONE',  ( 1.000000000000000000, 0.000000000000000000, 0.000000000000000000 ) ) ;
#91 = ORIENTED_EDGE ( 'NONE', *, *, #266, .F. ) ;
#92 = EDGE_CURVE ( 'NONE', #978, #934, #5, .T. ) ;
#93 = PLANE ( 'NONE',  #1089 ) ;
#94 = CARTESIAN_POINT ( 'NONE',  ( 21.50000000000000000, -4.841881138603709386E-15, 0.000000000000000000 ) ) ;
#95 = MECHANICAL_DESIGN_GEOMETRIC_PRESENTATION_REPRESENTATION (  '', ( #394 ), #1141 ) ;
#96 = LINE ( 'NONE', #84, #710 ) ;
#97 = EDGE_LOOP ( 'NONE', ( #953, #601 ) ) ;
#98 = DIRECTION ( 'NONE',  ( 1.000000000000000000, 0.000000000000000000, 0.000000000000000000 ) ) ;
#99 = DIRECTION ( 'NONE',  ( 0.000000000000000000, 0.000000000000000000, -1.000000000000000000 ) ) ;
#100 = VERTEX_POINT ( 'NONE', #630 ) ;
#101 = ADVANCED_FACE ( 'NONE', ( #1213 ), #1008, .F. ) ;
#102 = FACE_OUTER_BOUND ( 'NONE', #464, .T. ) ;
#103 = EDGE_CURVE ( 'NONE', #615, #548, #1017, .T. ) ;
#104 = DIRECTION ( 'NONE',  ( 0.000000000000000000, 0.000000000000000000, -1.000000000000000000 ) ) ;
#105 = ORIENTED_EDGE ( 'NONE', *, *, #247, .T. ) ;
#106 = AXIS2_PLACEMENT_3D ( 'NONE', #744, #1201, #631 ) ;
#107 = CIRCLE ( 'NONE', #836, 14.00000000000000000 ) ;
#108 = DIRECTION ( 'NONE',  ( 1.000000000000000000, 0.000000000000000000, 0.000000000000000000 ) ) ;
#109 = AXIS2_PLACEMENT_3D ( 'NONE', #1200, #1096, #829 ) ;
#110 = EDGE_CURVE ( 'NONE', #142, #1225, #967, .T. ) ;
#111 = CARTESIAN_POINT ( 'NONE',  ( -15.50000000000000000, -15.50000000000000000, 4.000000000000000000 ) ) ;
#112 = EDGE_CURVE ( 'NONE', #158, #771, #602, .T. ) ;
#113 = FACE_BOUND ( 'NONE', #97, .T. ) ;
#114 = CYLINDRICAL_SURFACE ( 'NONE', #295, 14.00000000000000000 ) ;
#115 = ADVANCED_FACE ( 'NONE', ( #1194 ), #323, .T. ) ;
#116 = ORIENTED_EDGE ( 'NONE', *, *, #1072, .F. ) ;
#117 = VECTOR ( 'NONE', #810, 1000.000000000000000 ) ;
#118 = DIRECTION ( 'NONE',  ( 0.000000000000000000, 0.000000000000000000, -1.000000000000000000 ) ) ;
#119 = CARTESIAN_POINT ( 'NONE',  ( 0.000000000000000000, 0.000000000000000000, 14.00000000000000000 ) ) ;
#120 = ORIENTED_EDGE ( 'NONE', *, *, #22, .T. ) ;
#121 = DIRECTION ( 'NONE',  ( 0.000000000000000000, 0.000000000000000000, -1.000000000000000000 ) ) ;
#122 = EDGE_CURVE ( 'NONE', #889, #364, #45, .T. ) ;
#123 = AXIS2_PLACEMENT_3D ( 'NONE', #425, #1208, #317 ) ;
#124 = ORIENTED_EDGE ( 'NONE', *, *, #187, .F. ) ;
#125 = DIRECTION ( 'NONE',  ( -1.000000000000000000, 0.000000000000000000, 0.000000000000000000 ) ) ;
#126 = VECTOR ( 'NONE', #835, 1000.000000000000000 ) ;
#127 = LINE ( 'NONE', #1004, #700 ) ;
#128 = AXIS2_PLACEMENT_3D ( 'NONE', #899, #526, #108 ) ;
#129 = VERTEX_POINT ( 'NONE', #146 ) ;
#130 = ORIENTED_EDGE ( 'NONE', *, *, #1264, .F. ) ;
#131 = FACE_OUTER_BOUND ( 'NONE', #463, .T. ) ;
#132 = ADVANCED_FACE ( 'NONE', ( #214, #466 ), #1252, .F. ) ;
#133 = FACE_BOUND ( 'NONE', #1052, .T. ) ;
#134 = CARTESIAN_POINT ( 'NONE',  ( 14.00000000000000000, 0.000000000000000000, 7.000000000000000000 ) ) ;
#135 = FACE_BOUND ( 'NONE', #937, .T. ) ;
#136 = EDGE_LOOP ( 'NONE', ( #271, #1250, #86, #329 ) ) ;
#137 = ORIENTED_EDGE ( 'NONE', *, *, #717, .T. ) ;
#138 = DIRECTION ( 'NONE',  ( 0.000000000000000000, 0.000000000000000000, -1.000000000000000000 ) ) ;
#139 = ADVANCED_FACE ( 'NONE', ( #769 ), #260, .F. ) ;
#140 = AXIS2_PLACEMENT_3D ( 'NONE', #302, #1007, #19 ) ;
#141 = DIRECTION ( 'NONE',  ( 0.000000000000000000, 0.000000000000000000, 1.000000000000000000 ) ) ;
#142 = VERTEX_POINT ( 'NONE', #974 ) ;
#143 = PRODUCT_CONTEXT ( 'NONE', #516, 'mechanical' ) ;
#144 = ORIENTED_EDGE ( 'NONE', *, *, #110, .F. ) ;
#145 = ORIENTED_EDGE ( 'NONE', *, *, #63, .F. ) ;
#146 = CARTESIAN_POINT ( 'NONE',  ( -24.00000000000000000, 2.147658180479529816E-15, 0.000000000000000000 ) ) ;
#147 = LINE ( 'NONE', #942, #913 ) ;
#148 = DIRECTION ( 'NONE',  ( 0.000000000000000000, 0.000000000000000000, -1.000000000000000000 ) ) ;
#149 = CLOSED_SHELL ( 'NONE', ( #668, #956, #256, #352, #385, #661, #900, #492, #28, #14, #132, #1247, #1031, #1176, #638, #205, #403, #318, #489, #1257, #576, #101, #640, #824, #115, #139, #799, #737, #1170, #912, #795, #696, #518, #877, #583, #1092, #161, #1226, #396, #468 ) ) ;
#150 = EDGE_LOOP ( 'NONE', ( #952, #758, #168, #314 ) ) ;
#151 = CIRCLE ( 'NONE', #732, 27.50000000000000000 ) ;
#152 = EDGE_LOOP ( 'NONE', ( #1094, #971 ) ) ;
#153 = ORIENTED_EDGE ( 'NONE', *, *, #217, .F. ) ;
#154 = DIRECTION ( 'NONE',  ( 0.000000000000000000, 0.000000000000000000, -1.000000000000000000 ) ) ;
#155 = DIRECTION ( 'NONE',  ( 0.000000000000000000, 0.000000000000000000, -1.000000000000000000 ) ) ;
#156 = CARTESIAN_POINT ( 'NONE',  ( -21.50000000000000000, 2.147658180479529816E-15, 0.000000000000000000 ) ) ;
#157 = FACE_BOUND ( 'NONE', #429, .T. ) ;
#158 = VERTEX_POINT ( 'NONE', #473 ) ;
#159 = ORIENTED_EDGE ( 'NONE', *, *, #487, .T. ) ;
#160 = ORIENTED_EDGE ( 'NONE', *, *, #1157, .F. ) ;
#161 = ADVANCED_FACE ( 'NONE', ( #875 ), #852, .F. ) ;
#162 = FACE_BOUND ( 'NONE', #152, .T. ) ;
#163 = CARTESIAN_POINT ( 'NONE',  ( -2.500000000000000000, 21.50000000000000000, 0.000000000000000000 ) ) ;
#164 = DIRECTION ( 'NONE',  ( 0.000000000000000000, 0.000000000000000000, -1.000000000000000000 ) ) ;
#165 = AXIS2_PLACEMENT_3D ( 'NONE', #472, #465, #663 ) ;
#166 = CARTESIAN_POINT ( 'NONE',  ( -3.494769659541620390E-15, -21.50000000000000000, 0.000000000000000000 ) ) ;
#167 = EDGE_LOOP ( 'NONE', ( #572, #194 ) ) ;
#168 = ORIENTED_EDGE ( 'NONE', *, *, #1125, .T. ) ;
#169 = ORIENTED_EDGE ( 'NONE', *, *, #546, .F. ) ;
#170 = EDGE_CURVE ( 'NONE', #925, #1137, #794, .T. ) ;
#171 = CARTESIAN_POINT ( 'NONE',  ( 15.50000000000000000, 15.50000000000000000, 0.000000000000000000 ) ) ;
#172 = AXIS2_PLACEMENT_3D ( 'NONE', #923, #38, #326 ) ;
#173 = CYLINDRICAL_SURFACE ( 'NONE', #993, 2.749999999999999112 ) ;
#174 = CARTESIAN_POINT ( 'NONE',  ( 2.500000000000000000, 21.50000000000000000, 0.000000000000000000 ) ) ;
#175 = ORIENTED_EDGE ( 'NONE', *, *, #830, .T. ) ;
#176 = AXIS2_PLACEMENT_3D ( 'NONE', #524, #636, #926 ) ;
#177 = ORIENTED_EDGE ( 'NONE', *, *, #781, .F. ) ;
#178 = AXIS2_PLACEMENT_3D ( 'NONE', #304, #397, #1114 ) ;
#179 = DIRECTION ( 'NONE',  ( 0.000000000000000000, 0.000000000000000000, -1.000000000000000000 ) ) ;
#180 = DIRECTION ( 'NONE',  ( 0.000000000000000000, 0.000000000000000000, -1.000000000000000000 ) ) ;
#181 = LINE ( 'NONE', #1050, #378 ) ;
#182 = ORIENTED_EDGE ( 'NONE', *, *, #975, .F. ) ;
#183 = FACE_OUTER_BOUND ( 'NONE', #1156, .T. ) ;
#184 = AXIS2_PLACEMENT_3D ( 'NONE', #969, #951, #460 ) ;
#185 = DIRECTION ( 'NONE',  ( 1.000000000000000000, 0.000000000000000000, 0.000000000000000000 ) ) ;
#186 = CIRCLE ( 'NONE', #825, 2.749999999999999112 ) ;
#187 = EDGE_CURVE ( 'NONE', #832, #72, #964, .T. ) ;
#188 = ORIENTED_EDGE ( 'NONE', *, *, #276, .F. ) ;
#189 = AXIS2_PLACEMENT_3D ( 'NONE', #627, #233, #511 ) ;
#190 = LINE ( 'NONE', #401, #58 ) ;
#191 = DIRECTION ( 'NONE',  ( 0.000000000000000000, 0.000000000000000000, -1.000000000000000000 ) ) ;
#192 = CARTESIAN_POINT ( 'NONE',  ( 16.00000000000000000, 0.000000000000000000, 0.000000000000000000 ) ) ;
#193 = CARTESIAN_POINT ( 'NONE',  ( -27.50000000000000000, -3.367778697655219730E-15, 7.000000000000000000 ) ) ;
#194 = ORIENTED_EDGE ( 'NONE', *, *, #781, .T. ) ;
#195 = CIRCLE ( 'NONE', #562, 2.749999999999999112 ) ;
#196 = PRODUCT_RELATED_PRODUCT_CATEGORY ( 'part', '', ( #992 ) ) ;
#197 = AXIS2_PLACEMENT_3D ( 'NONE', #1030, #331, #307 ) ;
#198 = CARTESIAN_POINT ( 'NONE',  ( 17.25000000000000000, -15.50000000000000000, 0.000000000000000000 ) ) ;
#199 = SURFACE_STYLE_FILL_AREA ( #1175 ) ;
#200 = ORIENTED_EDGE ( 'NONE', *, *, #676, .T. ) ;
#201 = EDGE_CURVE ( 'NONE', #1211, #978, #1049, .T. ) ;
#202 = FILL_AREA_STYLE_COLOUR ( '', #968 ) ;
#203 = ORIENTED_EDGE ( 'NONE', *, *, #320, .F. ) ;
#204 = CIRCLE ( 'NONE', #662, 1.750000000000001554 ) ;
#205 = ADVANCED_FACE ( 'NONE', ( #645 ), #556, .F. ) ;
#206 = ORIENTED_EDGE ( 'NONE', *, *, #861, .F. ) ;
#207 = CARTESIAN_POINT ( 'NONE',  ( -25.00000000000000000, -3.061616997868384620E-15, 0.000000000000000000 ) ) ;
#208 = CARTESIAN_POINT ( 'NONE',  ( 15.50000000000000000, 15.50000000000000000, 14.00000000000000000 ) ) ;
#209 = AXIS2_PLACEMENT_3D ( 'NONE', #776, #798, #388 ) ;
#210 = DIRECTION ( 'NONE',  ( 1.000000000000000000, 0.000000000000000000, 0.000000000000000000 ) ) ;
#211 = DIRECTION ( 'NONE',  ( 0.000000000000000000, 0.000000000000000000, 1.000000000000000000 ) ) ;
#212 = CARTESIAN_POINT ( 'NONE',  ( 16.00000000000000000, 0.000000000000000000, 0.000000000000000000 ) ) ;
#213 = DIRECTION ( 'NONE',  ( 0.000000000000000000, 0.000000000000000000, 1.000000000000000000 ) ) ;
#214 = FACE_BOUND ( 'NONE', #1267, .T. ) ;
#215 = FACE_OUTER_BOUND ( 'NONE', #714, .T. ) ;
#216 = FACE_OUTER_BOUND ( 'NONE', #264, .T. ) ;
#217 = EDGE_CURVE ( 'NONE', #335, #870, #107, .T. ) ;
#218 = EDGE_LOOP ( 'NONE', ( #345, #1262 ) ) ;
#219 = AXIS2_PLACEMENT_3D ( 'NONE', #673, #754, #1145 ) ;
#220 = CARTESIAN_POINT ( 'NONE',  ( -17.25000000000000000, 15.50000000000000000, 0.000000000000000000 ) ) ;
#221 = DIRECTION ( 'NONE',  ( 0.000000000000000000, 0.000000000000000000, -1.000000000000000000 ) ) ;
#222 = CARTESIAN_POINT ( 'NONE',  ( 21.50000000000000000, -4.841881138603709386E-15, 0.000000000000000000 ) ) ;
#223 = FACE_BOUND ( 'NONE', #234, .T. ) ;
#224 = DIRECTION ( 'NONE',  ( -1.000000000000000000, 0.000000000000000000, 0.000000000000000000 ) ) ;
#225 = AXIS2_PLACEMENT_3D ( 'NONE', #1062, #866, #872 ) ;
#226 = CARTESIAN_POINT ( 'NONE',  ( 12.75000000000000000, -15.50000000000000000, 4.000000000000000000 ) ) ;
#227 = CIRCLE ( 'NONE', #1180, 2.500000000000000000 ) ;
#228 = DIRECTION ( 'NONE',  ( 1.000000000000000000, 0.000000000000000000, 0.000000000000000000 ) ) ;
#229 = CIRCLE ( 'NONE', #328, 1.749999999999999778 ) ;
#230 = ORIENTED_EDGE ( 'NONE', *, *, #298, .F. ) ;
#231 = DIRECTION ( 'NONE',  ( 0.000000000000000000, 0.000000000000000000, -1.000000000000000000 ) ) ;
#232 = CARTESIAN_POINT ( 'NONE',  ( 0.000000000000000000, 0.000000000000000000, 0.000000000000000000 ) ) ;
#233 = DIRECTION ( 'NONE',  ( 0.000000000000000000, 0.000000000000000000, -1.000000000000000000 ) ) ;
#234 = EDGE_LOOP ( 'NONE', ( #382, #629 ) ) ;
#235 = EDGE_LOOP ( 'NONE', ( #748, #435, #893, #540 ) ) ;
#236 = CARTESIAN_POINT ( 'NONE',  ( 15.50000000000000000, 15.50000000000000000, 4.000000000000000000 ) ) ;
#237 = VECTOR ( 'NONE', #1115, 1000.000000000000000 ) ;
#238 = EDGE_CURVE ( 'NONE', #865, #902, #1242, .T. ) ;
#239 = DIRECTION ( 'NONE',  ( 0.000000000000000000, 0.000000000000000000, -1.000000000000000000 ) ) ;
#240 = ORIENTED_EDGE ( 'NONE', *, *, #977, .T. ) ;
#241 = EDGE_LOOP ( 'NONE', ( #365, #561 ) ) ;
#242 = ORIENTED_EDGE ( 'NONE', *, *, #994, .F. ) ;
#243 = DIRECTION ( 'NONE',  ( 1.000000000000000000, 0.000000000000000000, 0.000000000000000000 ) ) ;
#244 = DIRECTION ( 'NONE',  ( 0.000000000000000000, 0.000000000000000000, 1.000000000000000000 ) ) ;
#245 = DIRECTION ( 'NONE',  ( -1.000000000000000000, 0.000000000000000000, 0.000000000000000000 ) ) ;
#246 = CARTESIAN_POINT ( 'NONE',  ( -3.494769659541620390E-15, -21.50000000000000000, 0.000000000000000000 ) ) ;
#247 = EDGE_CURVE ( 'NONE', #749, #933, #775, .T. ) ;
#248 = VERTEX_POINT ( 'NONE', #1187 ) ;
#249 = AXIS2_PLACEMENT_3D ( 'NONE', #587, #1083, #490 ) ;
#250 = ORIENTED_EDGE ( 'NONE', *, *, #362, .T. ) ;
#251 = LINE ( 'NONE', #449, #35 ) ;
#252 = CARTESIAN_POINT ( 'NONE',  ( 0.000000000000000000, 0.000000000000000000, 0.000000000000000000 ) ) ;
#253 = CARTESIAN_POINT ( 'NONE',  ( -15.50000000000000000, 15.50000000000000000, 4.000000000000000000 ) ) ;
#254 = DIRECTION ( 'NONE',  ( 1.000000000000000000, 0.000000000000000000, 0.000000000000000000 ) ) ;
#255 = ORIENTED_EDGE ( 'NONE', *, *, #88, .F. ) ;
#256 = ADVANCED_FACE ( 'NONE', ( #985 ), #1169, .F. ) ;
#257 = ORIENTED_EDGE ( 'NONE', *, *, #695, .T. ) ;
#258 = VERTEX_POINT ( 'NONE', #207 ) ;
#259 = CARTESIAN_POINT ( 'NONE',  ( -15.50000000000000000, 15.50000000000000000, 4.000000000000000000 ) ) ;
#260 = CYLINDRICAL_SURFACE ( 'NONE', #543, 1.750000000000001554 ) ;
#261 = AXIS2_PLACEMENT_3D ( 'NONE', #253, #656, #360 ) ;
#262 = CARTESIAN_POINT ( 'NONE',  ( -15.50000000000000000, 15.50000000000000000, 4.000000000000000000 ) ) ;
#263 = ORIENTED_EDGE ( 'NONE', *, *, #680, .F. ) ;
#264 = EDGE_LOOP ( 'NONE', ( #470, #1167, #1138, #60 ) ) ;
#265 = ORIENTED_EDGE ( 'NONE', *, *, #623, .T. ) ;
#266 = EDGE_CURVE ( 'NONE', #933, #749, #897, .T. ) ;
#267 = PLANE ( 'NONE',  #767 ) ;
#268 = CARTESIAN_POINT ( 'NONE',  ( 15.50000000000000000, -15.50000000000000000, 0.000000000000000000 ) ) ;
#269 = AXIS2_PLACEMENT_3D ( 'NONE', #252, #67, #351 ) ;
#270 = DIRECTION ( 'NONE',  ( 0.000000000000000000, 0.000000000000000000, -1.000000000000000000 ) ) ;
#271 = ORIENTED_EDGE ( 'NONE', *, *, #1210, .F. ) ;
#272 = AXIS2_PLACEMENT_3D ( 'NONE', #1133, #155, #56 ) ;
#273 = CIRCLE ( 'NONE', #777, 2.749999999999999112 ) ;
#274 = CARTESIAN_POINT ( 'NONE',  ( -2.500000000000000000, -21.50000000000000000, 0.000000000000000000 ) ) ;
#275 = DIRECTION ( 'NONE',  ( 0.000000000000000000, 0.000000000000000000, -1.000000000000000000 ) ) ;
#276 = EDGE_CURVE ( 'NONE', #972, #1068, #181, .T. ) ;
#277 = CARTESIAN_POINT ( 'NONE',  ( -19.00000000000000000, 2.453819880266370053E-15, 0.000000000000000000 ) ) ;
#278 = CARTESIAN_POINT ( 'NONE',  ( 25.00000000000000000, 0.000000000000000000, 0.000000000000000000 ) ) ;
#279 = ORIENTED_EDGE ( 'NONE', *, *, #276, .T. ) ;
#280 = DIRECTION ( 'NONE',  ( 0.000000000000000000, 0.000000000000000000, -1.000000000000000000 ) ) ;
#281 = CARTESIAN_POINT ( 'NONE',  ( -2.500000000000000000, -21.50000000000000000, 14.00000000000000000 ) ) ;
#282 = CIRCLE ( 'NONE', #847, 16.00000000000000000 ) ;
#283 = ORIENTED_EDGE ( 'NONE', *, *, #1269, .F. ) ;
#284 = AXIS2_PLACEMENT_3D ( 'NONE', #591, #1104, #98 ) ;
#285 = FACE_OUTER_BOUND ( 'NONE', #1147, .T. ) ;
#286 = CARTESIAN_POINT ( 'NONE',  ( 18.25000000000000000, -15.50000000000000000, 0.000000000000000000 ) ) ;
#287 = ORIENTED_EDGE ( 'NONE', *, *, #478, .T. ) ;
#288 = CIRCLE ( 'NONE', #790, 1.749999999999999778 ) ;
#289 = EDGE_CURVE ( 'NONE', #1160, #747, #432, .T. ) ;
#290 = AXIS2_PLACEMENT_3D ( 'NONE', #49, #622, #1019 ) ;
#291 =( GEOMETRIC_REPRESENTATION_CONTEXT ( 3 ) GLOBAL_UNCERTAINTY_ASSIGNED_CONTEXT ( ( #79 ) ) GLOBAL_UNIT_ASSIGNED_CONTEXT ( ( #1003, #501, #29 ) ) REPRESENTATION_CONTEXT ( 'NONE', 'WORKASPACE' ) );
#292 = EDGE_LOOP ( 'NONE', ( #1109, #53, #690, #41 ) ) ;
#293 = EDGE_CURVE ( 'NONE', #902, #865, #1140, .T. ) ;
#294 = DIRECTION ( 'NONE',  ( 0.000000000000000000, 0.000000000000000000, 1.000000000000000000 ) ) ;
#295 = AXIS2_PLACEMENT_3D ( 'NONE', #1268, #1198, #706 ) ;
#296 = AXIS2_PLACEMENT_3D ( 'NONE', #608, #319, #522 ) ;
#297 = EDGE_CURVE ( 'NONE', #863, #694, #24, .T. ) ;
#298 = EDGE_CURVE ( 'NONE', #832, #1155, #1152, .T. ) ;
#299 = CARTESIAN_POINT ( 'NONE',  ( 17.25000000000000000, -15.50000000000000000, 14.00000000000000000 ) ) ;
#300 = DIRECTION ( 'NONE',  ( 0.000000000000000000, 0.000000000000000000, -1.000000000000000000 ) ) ;
#301 = ORIENTED_EDGE ( 'NONE', *, *, #1024, .F. ) ;
#302 = CARTESIAN_POINT ( 'NONE',  ( -15.50000000000000000, 15.50000000000000000, 4.000000000000000000 ) ) ;
#303 = EDGE_CURVE ( 'NONE', #685, #771, #1056, .T. ) ;
#304 = CARTESIAN_POINT ( 'NONE',  ( 0.000000000000000000, 0.000000000000000000, 0.000000000000000000 ) ) ;
#305 = CARTESIAN_POINT ( 'NONE',  ( -14.00000000000000000, -1.714505518806294835E-15, 7.000000000000000000 ) ) ;
#306 = CARTESIAN_POINT ( 'NONE',  ( 2.500000000000000000, 21.50000000000000000, 14.00000000000000000 ) ) ;
#307 = DIRECTION ( 'NONE',  ( 1.000000000000000000, 0.000000000000000000, 0.000000000000000000 ) ) ;
#308 = DIRECTION ( 'NONE',  ( 0.000000000000000000, 0.000000000000000000, -1.000000000000000000 ) ) ;
#309 = DIRECTION ( 'NONE',  ( 0.000000000000000000, 0.000000000000000000, -1.000000000000000000 ) ) ;
#310 = ORIENTED_EDGE ( 'NONE', *, *, #1210, .T. ) ;
#311 = VERTEX_POINT ( 'NONE', #565 ) ;
#312 = CARTESIAN_POINT ( 'NONE',  ( -17.25000000000000000, -15.50000000000000000, 0.000000000000000000 ) ) ;
#313 = AXIS2_PLACEMENT_3D ( 'NONE', #1184, #1093, #404 ) ;
#314 = ORIENTED_EDGE ( 'NONE', *, *, #483, .F. ) ;
#315 = DIRECTION ( 'NONE',  ( -1.000000000000000000, 0.000000000000000000, 0.000000000000000000 ) ) ;
#316 = DIRECTION ( 'NONE',  ( 1.000000000000000000, 0.000000000000000000, 0.000000000000000000 ) ) ;
#317 = DIRECTION ( 'NONE',  ( -1.000000000000000000, 0.000000000000000000, 0.000000000000000000 ) ) ;
#318 = ADVANCED_FACE ( 'NONE', ( #75 ), #367, .F. ) ;
#319 = DIRECTION ( 'NONE',  ( 0.000000000000000000, 0.000000000000000000, -1.000000000000000000 ) ) ;
#320 = EDGE_CURVE ( 'NONE', #248, #849, #147, .T. ) ;
#321 = ORIENTED_EDGE ( 'NONE', *, *, #607, .F. ) ;
#322 = DIRECTION ( 'NONE',  ( 0.000000000000000000, 0.000000000000000000, -1.000000000000000000 ) ) ;
#323 = CYLINDRICAL_SURFACE ( 'NONE', #354, 25.00000000000000000 ) ;
#324 = AXIS2_PLACEMENT_3D ( 'NONE', #1120, #508, #812 ) ;
#325 = CYLINDRICAL_SURFACE ( 'NONE', #988, 2.749999999999999112 ) ;
#326 = DIRECTION ( 'NONE',  ( -1.000000000000000000, 0.000000000000000000, 0.000000000000000000 ) ) ;
#327 = CARTESIAN_POINT ( 'NONE',  ( 13.75000000000000000, -15.50000000000000000, 0.000000000000000000 ) ) ;
#328 = AXIS2_PLACEMENT_3D ( 'NONE', #595, #104, #185 ) ;
#329 = ORIENTED_EDGE ( 'NONE', *, *, #564, .F. ) ;
#330 = VERTEX_POINT ( 'NONE', #626 ) ;
#331 = DIRECTION ( 'NONE',  ( 0.000000000000000000, 0.000000000000000000, -1.000000000000000000 ) ) ;
#332 = EDGE_CURVE ( 'NONE', #747, #1160, #195, .T. ) ;
#333 = CARTESIAN_POINT ( 'NONE',  ( 21.50000000000000000, -4.841881138603709386E-15, 0.000000000000000000 ) ) ;
#334 = CARTESIAN_POINT ( 'NONE',  ( 15.50000000000000000, 15.50000000000000000, 0.000000000000000000 ) ) ;
#335 = VERTEX_POINT ( 'NONE', #134 ) ;
#336 = ORIENTED_EDGE ( 'NONE', *, *, #1072, .T. ) ;
#337 = CARTESIAN_POINT ( 'NONE',  ( 18.25000000000000000, 15.50000000000000000, 4.000000000000000000 ) ) ;
#338 = AXIS2_PLACEMENT_3D ( 'NONE', #1063, #179, #243 ) ;
#339 = VECTOR ( 'NONE', #309, 1000.000000000000000 ) ;
#340 = DIRECTION ( 'NONE',  ( 1.000000000000000000, 0.000000000000000000, 0.000000000000000000 ) ) ;
#341 = DIRECTION ( 'NONE',  ( 0.000000000000000000, 0.000000000000000000, -1.000000000000000000 ) ) ;
#342 = DIRECTION ( 'NONE',  ( 0.000000000000000000, 0.000000000000000000, -1.000000000000000000 ) ) ;
#343 = PLANE ( 'NONE',  #980 ) ;
#344 = ORIENTED_EDGE ( 'NONE', *, *, #695, .F. ) ;
#345 = ORIENTED_EDGE ( 'NONE', *, *, #994, .T. ) ;
#346 = EDGE_LOOP ( 'NONE', ( #120, #946 ) ) ;
#347 = EDGE_CURVE ( 'NONE', #390, #863, #43, .T. ) ;
#348 = CIRCLE ( 'NONE', #4, 1.749999999999999778 ) ;
#349 = FACE_OUTER_BOUND ( 'NONE', #436, .T. ) ;
#350 = DIRECTION ( 'NONE',  ( 0.000000000000000000, 0.000000000000000000, 1.000000000000000000 ) ) ;
#351 = DIRECTION ( 'NONE',  ( 1.000000000000000000, 0.000000000000000000, 0.000000000000000000 ) ) ;
#352 = ADVANCED_FACE ( 'NONE', ( #1229 ), #1041, .F. ) ;
#353 = CARTESIAN_POINT ( 'NONE',  ( 19.00000000000000000, -4.841881138603709386E-15, 0.000000000000000000 ) ) ;
#354 = AXIS2_PLACEMENT_3D ( 'NONE', #1221, #519, #927 ) ;
#355 = EDGE_LOOP ( 'NONE', ( #643, #471 ) ) ;
#356 = EDGE_LOOP ( 'NONE', ( #538, #709, #1183, #735 ) ) ;
#357 = ORIENTED_EDGE ( 'NONE', *, *, #369, .T. ) ;
#358 = DIRECTION ( 'NONE',  ( 0.000000000000000000, 0.000000000000000000, -1.000000000000000000 ) ) ;
#359 = CARTESIAN_POINT ( 'NONE',  ( 18.25000000000000000, 15.50000000000000000, 0.000000000000000000 ) ) ;
#360 = DIRECTION ( 'NONE',  ( 1.000000000000000000, 0.000000000000000000, 0.000000000000000000 ) ) ;
#361 = CARTESIAN_POINT ( 'NONE',  ( -17.25000000000000000, -15.50000000000000000, 14.00000000000000000 ) ) ;
#362 = EDGE_CURVE ( 'NONE', #81, #1240, #348, .T. ) ;
#363 = EDGE_LOOP ( 'NONE', ( #1130, #659, #1074, #762 ) ) ;
#364 = VERTEX_POINT ( 'NONE', #612 ) ;
#365 = ORIENTED_EDGE ( 'NONE', *, *, #427, .F. ) ;
#366 = DIRECTION ( 'NONE',  ( 0.000000000000000000, 0.000000000000000000, 1.000000000000000000 ) ) ;
#367 = CYLINDRICAL_SURFACE ( 'NONE', #106, 1.750000000000001554 ) ;
#368 = AXIS2_PLACEMENT_3D ( 'NONE', #986, #1082, #1 ) ;
#369 = EDGE_CURVE ( 'NONE', #364, #889, #726, .T. ) ;
#370 = CARTESIAN_POINT ( 'NONE',  ( 21.50000000000000000, -4.841881138603709386E-15, 14.00000000000000000 ) ) ;
#371 = ORIENTED_EDGE ( 'NONE', *, *, #389, .F. ) ;
#372 = EDGE_CURVE ( 'NONE', #1155, #129, #68, .T. ) ;
#373 = DIRECTION ( 'NONE',  ( 1.000000000000000000, 0.000000000000000000, 0.000000000000000000 ) ) ;
#374 = DIRECTION ( 'NONE',  ( 0.000000000000000000, 0.000000000000000000, -1.000000000000000000 ) ) ;
#375 = CARTESIAN_POINT ( 'NONE',  ( -18.25000000000000000, -15.50000000000000000, 0.000000000000000000 ) ) ;
#376 = DIRECTION ( 'NONE',  ( 0.000000000000000000, 0.000000000000000000, -1.000000000000000000 ) ) ;
#377 = ORIENTED_EDGE ( 'NONE', *, *, #590, .T. ) ;
#378 = VECTOR ( 'NONE', #164, 1000.000000000000000 ) ;
#379 = VECTOR ( 'NONE', #118, 1000.000000000000000 ) ;
#380 = FACE_OUTER_BOUND ( 'NONE', #167, .T. ) ;
#381 = DIRECTION ( 'NONE',  ( 0.000000000000000000, 0.000000000000000000, -1.000000000000000000 ) ) ;
#382 = ORIENTED_EDGE ( 'NONE', *, *, #880, .F. ) ;
#383 = LINE ( 'NONE', #198, #1172 ) ;
#384 = DIRECTION ( 'NONE',  ( 0.000000000000000000, 0.000000000000000000, -1.000000000000000000 ) ) ;
#385 = ADVANCED_FACE ( 'NONE', ( #17 ), #823, .F. ) ;
#386 = LINE ( 'NONE', #987, #1266 ) ;
#387 = VERTEX_POINT ( 'NONE', #1195 ) ;
#388 = DIRECTION ( 'NONE',  ( 1.000000000000000000, 0.000000000000000000, 0.000000000000000000 ) ) ;
#389 = EDGE_CURVE ( 'NONE', #989, #12, #288, .T. ) ;
#390 = VERTEX_POINT ( 'NONE', #929 ) ;
#391 = CIRCLE ( 'NONE', #269, 16.00000000000000000 ) ;
#392 = AXIS2_PLACEMENT_3D ( 'NONE', #94, #384, #785 ) ;
#393 = AXIS2_PLACEMENT_3D ( 'NONE', #1023, #322, #729 ) ;
#394 = STYLED_ITEM ( 'NONE', ( #592 ), #1047 ) ;
#395 = FACE_OUTER_BOUND ( 'NONE', #827, .T. ) ;
#396 = ADVANCED_FACE ( 'NONE', ( #1202 ), #724, .F. ) ;
#397 = DIRECTION ( 'NONE',  ( 0.000000000000000000, 0.000000000000000000, 1.000000000000000000 ) ) ;
#398 = AXIS2_PLACEMENT_3D ( 'NONE', #773, #844, #574 ) ;
#399 = CARTESIAN_POINT ( 'NONE',  ( 27.50000000000000000, 0.000000000000000000, 7.000000000000000000 ) ) ;
#400 = CIRCLE ( 'NONE', #682, 2.499999999999998668 ) ;
#401 = CARTESIAN_POINT ( 'NONE',  ( 2.500000000000000000, -21.50000000000000000, 0.000000000000000000 ) ) ;
#402 = ORIENTED_EDGE ( 'NONE', *, *, #977, .F. ) ;
#403 = ADVANCED_FACE ( 'NONE', ( #979 ), #600, .T. ) ;
#404 = DIRECTION ( 'NONE',  ( 1.000000000000000000, 0.000000000000000000, 0.000000000000000000 ) ) ;
#405 = DIRECTION ( 'NONE',  ( 1.000000000000000000, 0.000000000000000000, 0.000000000000000000 ) ) ;
#406 = CARTESIAN_POINT ( 'NONE',  ( -18.25000000000000000, -15.50000000000000000, 4.000000000000000000 ) ) ;
#407 = EDGE_LOOP ( 'NONE', ( #443, #666 ) ) ;
#408 = FACE_BOUND ( 'NONE', #355, .T. ) ;
#409 = AXIS2_PLACEMENT_3D ( 'NONE', #860, #1253, #474 ) ;
#410 = FACE_OUTER_BOUND ( 'NONE', #658, .T. ) ;
#411 = CARTESIAN_POINT ( 'NONE',  ( -15.50000000000000000, -15.50000000000000000, 14.00000000000000000 ) ) ;
#412 = CARTESIAN_POINT ( 'NONE',  ( 0.000000000000000000, 0.000000000000000000, 0.000000000000000000 ) ) ;
#413 = LINE ( 'NONE', #821, #751 ) ;
#414 = EDGE_LOOP ( 'NONE', ( #461, #778, #705, #116 ) ) ;
#415 = CARTESIAN_POINT ( 'NONE',  ( -19.00000000000000000, 2.453819880266370053E-15, 0.000000000000000000 ) ) ;
#416 = CARTESIAN_POINT ( 'NONE',  ( -15.50000000000000000, 15.50000000000000000, 4.000000000000000000 ) ) ;
#417 = EDGE_CURVE ( 'NONE', #694, #863, #1236, .T. ) ;
#418 = FACE_BOUND ( 'NONE', #241, .T. ) ;
#419 = ORIENTED_EDGE ( 'NONE', *, *, #1086, .F. ) ;
#420 = APPLICATION_PROTOCOL_DEFINITION ( 'draft international standard', 'automotive_design', 1998, #516 ) ;
#421 = ORIENTED_EDGE ( 'NONE', *, *, #1064, .F. ) ;
#422 = ORIENTED_EDGE ( 'NONE', *, *, #1269, .T. ) ;
#423 = CIRCLE ( 'NONE', #165, 25.00000000000000000 ) ;
#424 = DIRECTION ( 'NONE',  ( 0.000000000000000000, 0.000000000000000000, -1.000000000000000000 ) ) ;
#425 = CARTESIAN_POINT ( 'NONE',  ( 8.005467014174450598E-16, 21.50000000000000000, 0.000000000000000000 ) ) ;
#426 = DIRECTION ( 'NONE',  ( 1.000000000000000000, 0.000000000000000000, 0.000000000000000000 ) ) ;
#427 = EDGE_CURVE ( 'NONE', #129, #1155, #857, .T. ) ;
#428 = ORIENTED_EDGE ( 'NONE', *, *, #247, .F. ) ;
#429 = EDGE_LOOP ( 'NONE', ( #820, #960 ) ) ;
#430 = DIRECTION ( 'NONE',  ( 0.000000000000000000, 0.000000000000000000, -1.000000000000000000 ) ) ;
#431 = CYLINDRICAL_SURFACE ( 'NONE', #313, 2.749999999999999112 ) ;
#432 = CIRCLE ( 'NONE', #409, 2.749999999999999112 ) ;
#433 = CARTESIAN_POINT ( 'NONE',  ( 0.000000000000000000, 0.000000000000000000, 14.00000000000000000 ) ) ;
#434 = AXIS2_PLACEMENT_3D ( 'NONE', #1190, #921, #210 ) ;
#435 = ORIENTED_EDGE ( 'NONE', *, *, #763, .T. ) ;
#436 = EDGE_LOOP ( 'NONE', ( #48, #1205, #336, #885 ) ) ;
#437 = CARTESIAN_POINT ( 'NONE',  ( 12.75000000000000000, -15.50000000000000000, 0.000000000000000000 ) ) ;
#438 = EDGE_CURVE ( 'NONE', #311, #514, #391, .T. ) ;
#439 = DIRECTION ( 'NONE',  ( 1.000000000000000000, 0.000000000000000000, 0.000000000000000000 ) ) ;
#440 = CARTESIAN_POINT ( 'NONE',  ( 0.000000000000000000, 0.000000000000000000, 7.000000000000000000 ) ) ;
#441 = DIRECTION ( 'NONE',  ( 0.000000000000000000, 0.000000000000000000, -1.000000000000000000 ) ) ;
#442 = DIRECTION ( 'NONE',  ( 0.000000000000000000, 0.000000000000000000, -1.000000000000000000 ) ) ;
#443 = ORIENTED_EDGE ( 'NONE', *, *, #684, .T. ) ;
#444 = VERTEX_POINT ( 'NONE', #459 ) ;
#445 = ORIENTED_EDGE ( 'NONE', *, *, #76, .T. ) ;
#446 = CIRCLE ( 'NONE', #534, 1.750000000000001554 ) ;
#447 = EDGE_CURVE ( 'NONE', #46, #902, #550, .T. ) ;
#448 = AXIS2_PLACEMENT_3D ( 'NONE', #119, #211, #931 ) ;
#449 = CARTESIAN_POINT ( 'NONE',  ( 2.500000000000000000, 21.50000000000000000, 0.000000000000000000 ) ) ;
#450 = DIRECTION ( 'NONE',  ( 0.000000000000000000, 0.000000000000000000, -1.000000000000000000 ) ) ;
#451 = DIRECTION ( 'NONE',  ( 0.000000000000000000, 0.000000000000000000, -1.000000000000000000 ) ) ;
#452 = DIRECTION ( 'NONE',  ( -1.000000000000000000, 0.000000000000000000, 0.000000000000000000 ) ) ;
#453 = ORIENTED_EDGE ( 'NONE', *, *, #833, .T. ) ;
#454 = ORIENTED_EDGE ( 'NONE', *, *, #702, .T. ) ;
#455 = AXIS2_PLACEMENT_3D ( 'NONE', #433, #868, #77 ) ;
#456 = ORIENTED_EDGE ( 'NONE', *, *, #1135, .T. ) ;
#457 = AXIS2_PLACEMENT_3D ( 'NONE', #222, #766, #573 ) ;
#458 = DIRECTION ( 'NONE',  ( 0.000000000000000000, 0.000000000000000000, 1.000000000000000000 ) ) ;
#459 = CARTESIAN_POINT ( 'NONE',  ( 14.00000000000000000, 0.000000000000000000, 14.00000000000000000 ) ) ;
#460 = DIRECTION ( 'NONE',  ( 1.000000000000000000, 0.000000000000000000, 0.000000000000000000 ) ) ;
#461 = ORIENTED_EDGE ( 'NONE', *, *, #103, .T. ) ;
#462 = AXIS2_PLACEMENT_3D ( 'NONE', #246, #148, #544 ) ;
#463 = EDGE_LOOP ( 'NONE', ( #1001, #402, #32, #1233 ) ) ;
#464 = EDGE_LOOP ( 'NONE', ( #765, #301, #1215, #1036 ) ) ;
#465 = DIRECTION ( 'NONE',  ( 0.000000000000000000, 0.000000000000000000, 1.000000000000000000 ) ) ;
#466 = FACE_OUTER_BOUND ( 'NONE', #864, .T. ) ;
#467 = DIRECTION ( 'NONE',  ( 0.000000000000000000, 0.000000000000000000, -1.000000000000000000 ) ) ;
#468 = ADVANCED_FACE ( 'NONE', ( #950 ), #745, .F. ) ;
#469 = ORIENTED_EDGE ( 'NONE', *, *, #1044, .T. ) ;
#470 = ORIENTED_EDGE ( 'NONE', *, *, #833, .F. ) ;
#471 = ORIENTED_EDGE ( 'NONE', *, *, #417, .T. ) ;
#472 = CARTESIAN_POINT ( 'NONE',  ( 0.000000000000000000, 0.000000000000000000, 0.000000000000000000 ) ) ;
#473 = CARTESIAN_POINT ( 'NONE',  ( -12.75000000000000000, -15.50000000000000000, 0.000000000000000000 ) ) ;
#474 = DIRECTION ( 'NONE',  ( 1.000000000000000000, 0.000000000000000000, 0.000000000000000000 ) ) ;
#475 = AXIS2_PLACEMENT_3D ( 'NONE', #909, #18, #405 ) ;
#476 = EDGE_LOOP ( 'NONE', ( #855, #962 ) ) ;
#477 = PRODUCT_DEFINITION_CONTEXT ( 'detailed design', #1112, 'design' ) ;
#478 = EDGE_CURVE ( 'NONE', #1046, #870, #1134, .T. ) ;
#479 = CARTESIAN_POINT ( 'NONE',  ( 18.25000000000000000, -15.50000000000000000, 4.000000000000000000 ) ) ;
#480 = CARTESIAN_POINT ( 'NONE',  ( -15.50000000000000000, 15.50000000000000000, 0.000000000000000000 ) ) ;
#481 = EDGE_LOOP ( 'NONE', ( #806, #811, #279, #456 ) ) ;
#482 = AXIS2_PLACEMENT_3D ( 'NONE', #816, #521, #1207 ) ;
#483 = EDGE_CURVE ( 'NONE', #747, #1022, #598, .T. ) ;
#484 = CARTESIAN_POINT ( 'NONE',  ( -24.00000000000000000, 2.147658180479529816E-15, 0.000000000000000000 ) ) ;
#485 = DIRECTION ( 'NONE',  ( 0.000000000000000000, 0.000000000000000000, 1.000000000000000000 ) ) ;
#486 = ORIENTED_EDGE ( 'NONE', *, *, #807, .T. ) ;
#487 = EDGE_CURVE ( 'NONE', #1103, #387, #594, .T. ) ;
#488 = CARTESIAN_POINT ( 'NONE',  ( -17.25000000000000000, -15.50000000000000000, 4.000000000000000000 ) ) ;
#489 = ADVANCED_FACE ( 'NONE', ( #687 ), #585, .F. ) ;
#490 = DIRECTION ( 'NONE',  ( 1.000000000000000000, 0.000000000000000000, 0.000000000000000000 ) ) ;
#491 = ORIENTED_EDGE ( 'NONE', *, *, #483, .T. ) ;
#492 = ADVANCED_FACE ( 'NONE', ( #102 ), #431, .F. ) ;
#493 = SURFACE_SIDE_STYLE ('',( #199 ) ) ;
#494 = AXIS2_PLACEMENT_3D ( 'NONE', #236, #213, #736 ) ;
#495 = AXIS2_PLACEMENT_3D ( 'NONE', #1009, #308, #125 ) ;
#496 = DIRECTION ( 'NONE',  ( 1.000000000000000000, 0.000000000000000000, 0.000000000000000000 ) ) ;
#497 = EDGE_CURVE ( 'NONE', #387, #1068, #186, .T. ) ;
#498 = ORIENTED_EDGE ( 'NONE', *, *, #936, .F. ) ;
#499 = DIRECTION ( 'NONE',  ( 0.000000000000000000, 0.000000000000000000, 1.000000000000000000 ) ) ;
#500 = CARTESIAN_POINT ( 'NONE',  ( 12.75000000000000000, -15.50000000000000000, 0.000000000000000000 ) ) ;
#501 =( NAMED_UNIT ( * ) PLANE_ANGLE_UNIT ( ) SI_UNIT ( $, .RADIAN. ) );
#502 = AXIS2_PLACEMENT_3D ( 'NONE', #1039, #358, #549 ) ;
#503 = FACE_BOUND ( 'NONE', #71, .T. ) ;
#504 = CIRCLE ( 'NONE', #1010, 27.50000000000000000 ) ;
#505 = DIRECTION ( 'NONE',  ( 0.000000000000000000, 0.000000000000000000, 1.000000000000000000 ) ) ;
#506 = EDGE_CURVE ( 'NONE', #665, #390, #204, .T. ) ;
#507 = VERTEX_POINT ( 'NONE', #500 ) ;
#508 = DIRECTION ( 'NONE',  ( 0.000000000000000000, 0.000000000000000000, -1.000000000000000000 ) ) ;
#509 = CARTESIAN_POINT ( 'NONE',  ( -17.25000000000000000, 15.50000000000000000, 4.000000000000000000 ) ) ;
#510 = CARTESIAN_POINT ( 'NONE',  ( 21.50000000000000000, -4.841881138603709386E-15, 0.000000000000000000 ) ) ;
#511 = DIRECTION ( 'NONE',  ( -1.000000000000000000, 0.000000000000000000, 0.000000000000000000 ) ) ;
#512 = VECTOR ( 'NONE', #221, 1000.000000000000000 ) ;
#513 = DIRECTION ( 'NONE',  ( 1.000000000000000000, 0.000000000000000000, 0.000000000000000000 ) ) ;
#514 = VERTEX_POINT ( 'NONE', #192 ) ;
#515 = LINE ( 'NONE', #539, #1271 ) ;
#516 = APPLICATION_CONTEXT ( 'automotive_design' ) ;
#517 = AXIS2_PLACEMENT_3D ( 'NONE', #842, #541, #224 ) ;
#518 = ADVANCED_FACE ( 'NONE', ( #1245 ), #173, .F. ) ;
#519 = DIRECTION ( 'NONE',  ( 0.000000000000000000, 0.000000000000000000, -1.000000000000000000 ) ) ;
#520 = EDGE_LOOP ( 'NONE', ( #230, #1270, #257, #793 ) ) ;
#521 = DIRECTION ( 'NONE',  ( 0.000000000000000000, 0.000000000000000000, -1.000000000000000000 ) ) ;
#522 = DIRECTION ( 'NONE',  ( 1.000000000000000000, 0.000000000000000000, 0.000000000000000000 ) ) ;
#523 = ORIENTED_EDGE ( 'NONE', *, *, #1186, .T. ) ;
#524 = CARTESIAN_POINT ( 'NONE',  ( 0.000000000000000000, 0.000000000000000000, 7.000000000000000000 ) ) ;
#525 = EDGE_CURVE ( 'NONE', #1103, #972, #85, .T. ) ;
#526 = DIRECTION ( 'NONE',  ( 0.000000000000000000, 0.000000000000000000, -1.000000000000000000 ) ) ;
#527 = DIRECTION ( 'NONE',  ( 0.000000000000000000, 0.000000000000000000, -1.000000000000000000 ) ) ;
#528 = CIRCLE ( 'NONE', #455, 14.00000000000000000 ) ;
#529 = PLANE ( 'NONE',  #741 ) ;
#530 = EDGE_LOOP ( 'NONE', ( #633, #182, #445, #718 ) ) ;
#531 = VECTOR ( 'NONE', #887, 1000.000000000000000 ) ;
#532 = ORIENTED_EDGE ( 'NONE', *, *, #807, .F. ) ;
#533 = CARTESIAN_POINT ( 'NONE',  ( -15.50000000000000000, -15.50000000000000000, 0.000000000000000000 ) ) ;
#534 = AXIS2_PLACEMENT_3D ( 'NONE', #579, #64, #1162 ) ;
#535 = EDGE_CURVE ( 'NONE', #828, #81, #813, .T. ) ;
#536 = DIRECTION ( 'NONE',  ( -1.000000000000000000, 0.000000000000000000, 0.000000000000000000 ) ) ;
#537 = EDGE_CURVE ( 'NONE', #548, #258, #515, .T. ) ;
#538 = ORIENTED_EDGE ( 'NONE', *, *, #506, .F. ) ;
#539 = CARTESIAN_POINT ( 'NONE',  ( -25.00000000000000000, -3.061616997868384620E-15, 0.000000000000000000 ) ) ;
#540 = ORIENTED_EDGE ( 'NONE', *, *, #1121, .F. ) ;
#541 = DIRECTION ( 'NONE',  ( 0.000000000000000000, 0.000000000000000000, -1.000000000000000000 ) ) ;
#542 = DIRECTION ( 'NONE',  ( 1.000000000000000000, 0.000000000000000000, 0.000000000000000000 ) ) ;
#543 = AXIS2_PLACEMENT_3D ( 'NONE', #268, #180, #575 ) ;
#544 = DIRECTION ( 'NONE',  ( -1.000000000000000000, 0.000000000000000000, 0.000000000000000000 ) ) ;
#545 = EDGE_LOOP ( 'NONE', ( #1177, #78, #1248, #582 ) ) ;
#546 = EDGE_CURVE ( 'NONE', #258, #1146, #423, .T. ) ;
#547 = VERTEX_POINT ( 'NONE', #867 ) ;
#548 = VERTEX_POINT ( 'NONE', #874 ) ;
#549 = DIRECTION ( 'NONE',  ( 1.000000000000000000, 0.000000000000000000, 0.000000000000000000 ) ) ;
#550 = LINE ( 'NONE', #359, #1118 ) ;
#551 = FACE_OUTER_BOUND ( 'NONE', #1148, .T. ) ;
#552 = ORIENTED_EDGE ( 'NONE', *, *, #332, .F. ) ;
#553 = VERTEX_POINT ( 'NONE', #965 ) ;
#554 = ORIENTED_EDGE ( 'NONE', *, *, #362, .F. ) ;
#555 = FACE_BOUND ( 'NONE', #33, .T. ) ;
#556 = CYLINDRICAL_SURFACE ( 'NONE', #1116, 14.00000000000000000 ) ;
#557 = CARTESIAN_POINT ( 'NONE',  ( 15.50000000000000000, -15.50000000000000000, 0.000000000000000000 ) ) ;
#558 = LINE ( 'NONE', #1051, #83 ) ;
#559 = ORIENTED_EDGE ( 'NONE', *, *, #76, .F. ) ;
#560 = VERTEX_POINT ( 'NONE', #274 ) ;
#561 = ORIENTED_EDGE ( 'NONE', *, *, #372, .F. ) ;
#562 = AXIS2_PLACEMENT_3D ( 'NONE', #1107, #949, #1025 ) ;
#563 = CYLINDRICAL_SURFACE ( 'NONE', #801, 1.749999999999999778 ) ;
#564 = EDGE_CURVE ( 'NONE', #1240, #81, #1091, .T. ) ;
#565 = CARTESIAN_POINT ( 'NONE',  ( -16.00000000000000000, -1.959434878635765131E-15, 0.000000000000000000 ) ) ;
#566 = AXIS2_PLACEMENT_3D ( 'NONE', #1163, #275, #654 ) ;
#567 = DIRECTION ( 'NONE',  ( 0.000000000000000000, 0.000000000000000000, -1.000000000000000000 ) ) ;
#568 = ORIENTED_EDGE ( 'NONE', *, *, #1186, .F. ) ;
#569 = UNCERTAINTY_MEASURE_WITH_UNIT (LENGTH_MEASURE( 1.000000000000000082E-05 ), #1181, 'distance_accuracy_value', 'NONE');
#570 = CIRCLE ( 'NONE', #9, 1.750000000000001554 ) ;
#571 = EDGE_LOOP ( 'NONE', ( #1129, #1058 ) ) ;
#572 = ORIENTED_EDGE ( 'NONE', *, *, #728, .T. ) ;
#573 = DIRECTION ( 'NONE',  ( -1.000000000000000000, 0.000000000000000000, 0.000000000000000000 ) ) ;
#574 = DIRECTION ( 'NONE',  ( 1.000000000000000000, 0.000000000000000000, 0.000000000000000000 ) ) ;
#575 = DIRECTION ( 'NONE',  ( 1.000000000000000000, 0.000000000000000000, 0.000000000000000000 ) ) ;
#576 = ADVANCED_FACE ( 'NONE', ( #1055 ), #563, .F. ) ;
#577 = CYLINDRICAL_SURFACE ( 'NONE', #249, 2.749999999999999112 ) ;
#578 = ORIENTED_EDGE ( 'NONE', *, *, #88, .T. ) ;
#579 = CARTESIAN_POINT ( 'NONE',  ( 15.50000000000000000, -15.50000000000000000, 14.00000000000000000 ) ) ;
#580 = CIRCLE ( 'NONE', #955, 1.750000000000001554 ) ;
#581 = CARTESIAN_POINT ( 'NONE',  ( -18.25000000000000000, 15.50000000000000000, 4.000000000000000000 ) ) ;
#582 = ORIENTED_EDGE ( 'NONE', *, *, #417, .F. ) ;
#583 = ADVANCED_FACE ( 'NONE', ( #1158 ), #1251, .F. ) ;
#584 = DIRECTION ( 'NONE',  ( 0.000000000000000000, 0.000000000000000000, -1.000000000000000000 ) ) ;
#585 = CYLINDRICAL_SURFACE ( 'NONE', #368, 1.749999999999999778 ) ;
#586 = EDGE_CURVE ( 'NONE', #828, #635, #634, .T. ) ;
#587 = CARTESIAN_POINT ( 'NONE',  ( -15.50000000000000000, 15.50000000000000000, 0.000000000000000000 ) ) ;
#588 = ORIENTED_EDGE ( 'NONE', *, *, #843, .T. ) ;
#589 = AXIS2_PLACEMENT_3D ( 'NONE', #671, #1143, #1071 ) ;
#590 = EDGE_CURVE ( 'NONE', #1225, #142, #446, .T. ) ;
#591 = CARTESIAN_POINT ( 'NONE',  ( 0.000000000000000000, 0.000000000000000000, 0.000000000000000000 ) ) ;
#592 = PRESENTATION_STYLE_ASSIGNMENT (( #788 ) ) ;
#593 = EDGE_LOOP ( 'NONE', ( #1059, #1012 ) ) ;
#594 = LINE ( 'NONE', #701, #894 ) ;
#595 = CARTESIAN_POINT ( 'NONE',  ( -15.50000000000000000, 15.50000000000000000, 14.00000000000000000 ) ) ;
#596 = AXIS2_PLACEMENT_3D ( 'NONE', #859, #366, #742 ) ;
#597 = DIRECTION ( 'NONE',  ( 1.000000000000000000, 0.000000000000000000, 0.000000000000000000 ) ) ;
#598 = LINE ( 'NONE', #286, #6 ) ;
#599 = CARTESIAN_POINT ( 'NONE',  ( -15.50000000000000000, 15.50000000000000000, 0.000000000000000000 ) ) ;
#600 = CYLINDRICAL_SURFACE ( 'NONE', #621, 27.50000000000000000 ) ;
#601 = ORIENTED_EDGE ( 'NONE', *, *, #1125, .F. ) ;
#602 = CIRCLE ( 'NONE', #1218, 2.749999999999999112 ) ;
#603 = ORIENTED_EDGE ( 'NONE', *, *, #497, .T. ) ;
#604 = PRESENTATION_LAYER_ASSIGNMENT (  '', '', ( #394 ) ) ;
#605 = DIRECTION ( 'NONE',  ( 0.000000000000000000, 0.000000000000000000, -1.000000000000000000 ) ) ;
#606 = DIRECTION ( 'NONE',  ( 0.000000000000000000, 0.000000000000000000, -1.000000000000000000 ) ) ;
#607 = EDGE_CURVE ( 'NONE', #771, #158, #16, .T. ) ;
#608 = CARTESIAN_POINT ( 'NONE',  ( -15.50000000000000000, -15.50000000000000000, 0.000000000000000000 ) ) ;
#609 = DIRECTION ( 'NONE',  ( 0.000000000000000000, 0.000000000000000000, -1.000000000000000000 ) ) ;
#610 = DIRECTION ( 'NONE',  ( 0.000000000000000000, 0.000000000000000000, -1.000000000000000000 ) ) ;
#611 = DIRECTION ( 'NONE',  ( 1.000000000000000000, 0.000000000000000000, 0.000000000000000000 ) ) ;
#612 = CARTESIAN_POINT ( 'NONE',  ( 24.00000000000000000, -4.535719438816869938E-15, 0.000000000000000000 ) ) ;
#613 = CIRCLE ( 'NONE', #908, 27.50000000000000000 ) ;
#614 = CYLINDRICAL_SURFACE ( 'NONE', #219, 2.749999999999999112 ) ;
#615 = VERTEX_POINT ( 'NONE', #675 ) ;
#616 = VECTOR ( 'NONE', #1076, 1000.000000000000000 ) ;
#617 = EDGE_CURVE ( 'NONE', #100, #840, #873, .T. ) ;
#618 = LINE ( 'NONE', #312, #882 ) ;
#619 = DIRECTION ( 'NONE',  ( 0.000000000000000000, 0.000000000000000000, -1.000000000000000000 ) ) ;
#620 = DIRECTION ( 'NONE',  ( 1.000000000000000000, 0.000000000000000000, 0.000000000000000000 ) ) ;
#621 = AXIS2_PLACEMENT_3D ( 'NONE', #895, #606, #779 ) ;
#622 = DIRECTION ( 'NONE',  ( 0.000000000000000000, 0.000000000000000000, -1.000000000000000000 ) ) ;
#623 = EDGE_CURVE ( 'NONE', #719, #934, #251, .T. ) ;
#624 = AXIS2_PLACEMENT_3D ( 'NONE', #649, #467, #1042 ) ;
#625 = FACE_OUTER_BOUND ( 'NONE', #642, .T. ) ;
#626 = CARTESIAN_POINT ( 'NONE',  ( 12.75000000000000000, 15.50000000000000000, 4.000000000000000000 ) ) ;
#627 = CARTESIAN_POINT ( 'NONE',  ( -3.494769659541620390E-15, -21.50000000000000000, 0.000000000000000000 ) ) ;
#628 = ORIENTED_EDGE ( 'NONE', *, *, #815, .F. ) ;
#629 = ORIENTED_EDGE ( 'NONE', *, *, #438, .F. ) ;
#630 = CARTESIAN_POINT ( 'NONE',  ( 13.75000000000000000, -15.50000000000000000, 4.000000000000000000 ) ) ;
#631 = DIRECTION ( 'NONE',  ( 1.000000000000000000, 0.000000000000000000, 0.000000000000000000 ) ) ;
#632 = CARTESIAN_POINT ( 'NONE',  ( -13.75000000000000000, 15.50000000000000000, 14.00000000000000000 ) ) ;
#633 = ORIENTED_EDGE ( 'NONE', *, *, #478, .F. ) ;
#634 = CIRCLE ( 'NONE', #398, 1.749999999999999778 ) ;
#635 = VERTEX_POINT ( 'NONE', #1069 ) ;
#636 = DIRECTION ( 'NONE',  ( 0.000000000000000000, 0.000000000000000000, -1.000000000000000000 ) ) ;
#637 = AXIS2_PLACEMENT_3D ( 'NONE', #1021, #916, #620 ) ;
#638 = ADVANCED_FACE ( 'NONE', ( #973, #183 ), #267, .T. ) ;
#639 = DIRECTION ( 'NONE',  ( 0.000000000000000000, 0.000000000000000000, -1.000000000000000000 ) ) ;
#640 = ADVANCED_FACE ( 'NONE', ( #349 ), #1132, .T. ) ;
#641 = FACE_OUTER_BOUND ( 'NONE', #356, .T. ) ;
#642 = EDGE_LOOP ( 'NONE', ( #124, #1034, #1239, #344 ) ) ;
#643 = ORIENTED_EDGE ( 'NONE', *, *, #297, .T. ) ;
#644 = FACE_OUTER_BOUND ( 'NONE', #481, .T. ) ;
#645 = FACE_OUTER_BOUND ( 'NONE', #530, .T. ) ;
#646 = VECTOR ( 'NONE', #341, 1000.000000000000000 ) ;
#647 = CARTESIAN_POINT ( 'NONE',  ( -14.00000000000000000, -1.714505518806294835E-15, 7.000000000000000000 ) ) ;
#648 = AXIS2_PLACEMENT_3D ( 'NONE', #1101, #928, #315 ) ;
#649 = CARTESIAN_POINT ( 'NONE',  ( -15.50000000000000000, -15.50000000000000000, 4.000000000000000000 ) ) ;
#650 = ORIENTED_EDGE ( 'NONE', *, *, #110, .T. ) ;
#651 = ORIENTED_EDGE ( 'NONE', *, *, #676, .F. ) ;
#652 = ORIENTED_EDGE ( 'NONE', *, *, #1161, .T. ) ;
#653 = CARTESIAN_POINT ( 'NONE',  ( 0.000000000000000000, 0.000000000000000000, 7.000000000000000000 ) ) ;
#654 = DIRECTION ( 'NONE',  ( -1.000000000000000000, 0.000000000000000000, 0.000000000000000000 ) ) ;
#655 = DIRECTION ( 'NONE',  ( 0.000000000000000000, 0.000000000000000000, -1.000000000000000000 ) ) ;
#656 = DIRECTION ( 'NONE',  ( 0.000000000000000000, 0.000000000000000000, -1.000000000000000000 ) ) ;
#657 = CARTESIAN_POINT ( 'NONE',  ( 8.005467014174450598E-16, 21.50000000000000000, 0.000000000000000000 ) ) ;
#658 = EDGE_LOOP ( 'NONE', ( #419, #310, #554, #1085 ) ) ;
#659 = ORIENTED_EDGE ( 'NONE', *, *, #1044, .F. ) ;
#660 = ORIENTED_EDGE ( 'NONE', *, *, #112, .F. ) ;
#661 = ADVANCED_FACE ( 'NONE', ( #644 ), #1244, .F. ) ;
#662 = AXIS2_PLACEMENT_3D ( 'NONE', #208, #1002, #1077 ) ;
#663 = DIRECTION ( 'NONE',  ( 1.000000000000000000, 0.000000000000000000, 0.000000000000000000 ) ) ;
#664 = DIRECTION ( 'NONE',  ( 0.000000000000000000, 0.000000000000000000, 1.000000000000000000 ) ) ;
#665 = VERTEX_POINT ( 'NONE', #947 ) ;
#666 = ORIENTED_EDGE ( 'NONE', *, *, #525, .T. ) ;
#667 = ORIENTED_EDGE ( 'NONE', *, *, #506, .T. ) ;
#668 = ADVANCED_FACE ( 'NONE', ( #55, #1234, #750, #1149, #759, #1048, #162, #555, #957, #380 ), #93, .F. ) ;
#669 = AXIS2_PLACEMENT_3D ( 'NONE', #1065, #760, #677 ) ;
#670 = DIRECTION ( 'NONE',  ( 0.000000000000000000, 0.000000000000000000, -1.000000000000000000 ) ) ;
#671 = CARTESIAN_POINT ( 'NONE',  ( 15.50000000000000000, 15.50000000000000000, 0.000000000000000000 ) ) ;
#672 = AXIS2_PLACEMENT_3D ( 'NONE', #1150, #244, #542 ) ;
#673 = CARTESIAN_POINT ( 'NONE',  ( -15.50000000000000000, -15.50000000000000000, 0.000000000000000000 ) ) ;
#674 = ORIENTED_EDGE ( 'NONE', *, *, #586, .T. ) ;
#675 = CARTESIAN_POINT ( 'NONE',  ( 25.00000000000000000, 0.000000000000000000, 7.000000000000000000 ) ) ;
#676 = EDGE_CURVE ( 'NONE', #553, #1088, #1100, .T. ) ;
#677 = DIRECTION ( 'NONE',  ( 1.000000000000000000, 0.000000000000000000, 0.000000000000000000 ) ) ;
#678 = CARTESIAN_POINT ( 'NONE',  ( -14.00000000000000000, -1.714505518806294835E-15, 14.00000000000000000 ) ) ;
#679 = DIRECTION ( 'NONE',  ( 0.000000000000000000, -1.000000000000000000, 0.000000000000000000 ) ) ;
#680 = EDGE_CURVE ( 'NONE', #1255, #514, #805, .T. ) ;
#681 = CIRCLE ( 'NONE', #140, 2.749999999999999112 ) ;
#682 = AXIS2_PLACEMENT_3D ( 'NONE', #1191, #300, #704 ) ;
#683 = CARTESIAN_POINT ( 'NONE',  ( 25.00000000000000000, 0.000000000000000000, 0.000000000000000000 ) ) ;
#684 = EDGE_CURVE ( 'NONE', #972, #1103, #681, .T. ) ;
#685 = VERTEX_POINT ( 'NONE', #406 ) ;
#686 = DIRECTION ( 'NONE',  ( 1.000000000000000000, 0.000000000000000000, 0.000000000000000000 ) ) ;
#687 = FACE_OUTER_BOUND ( 'NONE', #136, .T. ) ;
#688 = AXIS2_PLACEMENT_3D ( 'NONE', #510, #915, #808 ) ;
#689 = CARTESIAN_POINT ( 'NONE',  ( -12.75000000000000000, 15.50000000000000000, 0.000000000000000000 ) ) ;
#690 = ORIENTED_EDGE ( 'NONE', *, *, #1121, .T. ) ;
#691 = EDGE_LOOP ( 'NONE', ( #841, #20 ) ) ;
#692 = AXIS2_PLACEMENT_3D ( 'NONE', #703, #424, #611 ) ;
#693 =( NAMED_UNIT ( * ) SI_UNIT ( $, .STERADIAN. ) SOLID_ANGLE_UNIT ( ) );
#694 = VERTEX_POINT ( 'NONE', #881 ) ;
#695 = EDGE_CURVE ( 'NONE', #72, #129, #89, .T. ) ;
#696 = ADVANCED_FACE ( 'NONE', ( #285 ), #114, .F. ) ;
#697 = AXIS2_PLACEMENT_3D ( 'NONE', #166, #567, #452 ) ;
#698 = VECTOR ( 'NONE', #280, 1000.000000000000000 ) ;
#699 = LINE ( 'NONE', #278, #753 ) ;
#700 = VECTOR ( 'NONE', #1098, 1000.000000000000000 ) ;
#701 = CARTESIAN_POINT ( 'NONE',  ( -18.25000000000000000, 15.50000000000000000, 0.000000000000000000 ) ) ;
#702 = EDGE_CURVE ( 'NONE', #854, #1255, #282, .T. ) ;
#703 = CARTESIAN_POINT ( 'NONE',  ( 0.000000000000000000, 0.000000000000000000, 0.000000000000000000 ) ) ;
#704 = DIRECTION ( 'NONE',  ( -1.000000000000000000, 0.000000000000000000, 0.000000000000000000 ) ) ;
#705 = ORIENTED_EDGE ( 'NONE', *, *, #546, .T. ) ;
#706 = DIRECTION ( 'NONE',  ( 1.000000000000000000, 0.000000000000000000, 0.000000000000000000 ) ) ;
#707 = AXIS2_PLACEMENT_3D ( 'NONE', #333, #639, #36 ) ;
#708 = SHAPE_DEFINITION_REPRESENTATION ( #791, #800 ) ;
#709 = ORIENTED_EDGE ( 'NONE', *, *, #1033, .T. ) ;
#710 = VECTOR ( 'NONE', #995, 1000.000000000000000 ) ;
#711 = PLANE ( 'NONE',  #482 ) ;
#712 = FACE_BOUND ( 'NONE', #593, .T. ) ;
#713 = CARTESIAN_POINT ( 'NONE',  ( 0.000000000000000000, 0.000000000000000000, 14.00000000000000000 ) ) ;
#714 = EDGE_LOOP ( 'NONE', ( #1079, #454, #1028, #970 ) ) ;
#715 = FACE_OUTER_BOUND ( 'NONE', #789, .T. ) ;
#716 = DIRECTION ( 'NONE',  ( 0.000000000000000000, 0.000000000000000000, 1.000000000000000000 ) ) ;
#717 = EDGE_CURVE ( 'NONE', #1225, #840, #383, .T. ) ;
#718 = ORIENTED_EDGE ( 'NONE', *, *, #217, .T. ) ;
#719 = VERTEX_POINT ( 'NONE', #306 ) ;
#720 = CARTESIAN_POINT ( 'NONE',  ( 8.005467014174450598E-16, 21.50000000000000000, 14.00000000000000000 ) ) ;
#721 = CIRCLE ( 'NONE', #624, 2.749999999999999112 ) ;
#722 = DIRECTION ( 'NONE',  ( 1.000000000000000000, 0.000000000000000000, 0.000000000000000000 ) ) ;
#723 = CARTESIAN_POINT ( 'NONE',  ( -2.500000000000000000, 21.50000000000000000, 14.00000000000000000 ) ) ;
#724 = CYLINDRICAL_SURFACE ( 'NONE', #457, 2.499999999999998668 ) ;
#725 = LINE ( 'NONE', #327, #237 ) ;
#726 = CIRCLE ( 'NONE', #688, 2.499999999999998668 ) ;
#727 = ORIENTED_EDGE ( 'NONE', *, *, #617, .F. ) ;
#728 = EDGE_CURVE ( 'NONE', #553, #248, #613, .T. ) ;
#729 = DIRECTION ( 'NONE',  ( 1.000000000000000000, 0.000000000000000000, 0.000000000000000000 ) ) ;
#730 = CIRCLE ( 'NONE', #324, 2.499999999999998668 ) ;
#731 = VECTOR ( 'NONE', #752, 1000.000000000000000 ) ;
#732 = AXIS2_PLACEMENT_3D ( 'NONE', #888, #294, #1078 ) ;
#733 = DIRECTION ( 'NONE',  ( 0.000000000000000000, 0.000000000000000000, 1.000000000000000000 ) ) ;
#734 = CARTESIAN_POINT ( 'NONE',  ( 0.000000000000000000, 0.000000000000000000, 7.000000000000000000 ) ) ;
#735 = ORIENTED_EDGE ( 'NONE', *, *, #347, .F. ) ;
#736 = DIRECTION ( 'NONE',  ( 1.000000000000000000, 0.000000000000000000, 0.000000000000000000 ) ) ;
#737 = ADVANCED_FACE ( 'NONE', ( #784 ), #990, .F. ) ;
#738 = DIRECTION ( 'NONE',  ( 0.000000000000000000, 0.000000000000000000, -1.000000000000000000 ) ) ;
#739 = VERTEX_POINT ( 'NONE', #780 ) ;
#740 = ORIENTED_EDGE ( 'NONE', *, *, #238, .F. ) ;
#741 = AXIS2_PLACEMENT_3D ( 'NONE', #412, #716, #1203 ) ;
#742 = DIRECTION ( 'NONE',  ( 1.000000000000000000, 0.000000000000000000, 0.000000000000000000 ) ) ;
#743 = DIRECTION ( 'NONE',  ( 0.000000000000000000, 0.000000000000000000, -1.000000000000000000 ) ) ;
#744 = CARTESIAN_POINT ( 'NONE',  ( 15.50000000000000000, 15.50000000000000000, 0.000000000000000000 ) ) ;
#745 = CYLINDRICAL_SURFACE ( 'NONE', #963, 2.500000000000000000 ) ;
#746 = CARTESIAN_POINT ( 'NONE',  ( -13.75000000000000000, -15.50000000000000000, 4.000000000000000000 ) ) ;
#747 = VERTEX_POINT ( 'NONE', #479 ) ;
#748 = ORIENTED_EDGE ( 'NONE', *, *, #170, .F. ) ;
#749 = VERTEX_POINT ( 'NONE', #488 ) ;
#750 = FACE_BOUND ( 'NONE', #346, .T. ) ;
#751 = VECTOR ( 'NONE', #610, 1000.000000000000000 ) ;
#752 = DIRECTION ( 'NONE',  ( 0.000000000000000000, 0.000000000000000000, -1.000000000000000000 ) ) ;
#753 = VECTOR ( 'NONE', #99, 1000.000000000000000 ) ;
#754 = DIRECTION ( 'NONE',  ( 0.000000000000000000, 0.000000000000000000, -1.000000000000000000 ) ) ;
#755 = EDGE_CURVE ( 'NONE', #330, #865, #903, .T. ) ;
#756 = EDGE_LOOP ( 'NONE', ( #1258, #421 ) ) ;
#757 = EDGE_LOOP ( 'NONE', ( #532, #938, #137, #727 ) ) ;
#758 = ORIENTED_EDGE ( 'NONE', *, *, #66, .T. ) ;
#759 = FACE_BOUND ( 'NONE', #1241, .T. ) ;
#760 = DIRECTION ( 'NONE',  ( 0.000000000000000000, 0.000000000000000000, 1.000000000000000000 ) ) ;
#761 = DIRECTION ( 'NONE',  ( 0.000000000000000000, 0.000000000000000000, -1.000000000000000000 ) ) ;
#762 = ORIENTED_EDGE ( 'NONE', *, *, #92, .T. ) ;
#763 = EDGE_CURVE ( 'NONE', #925, #547, #190, .T. ) ;
#764 = EDGE_LOOP ( 'NONE', ( #1204, #740 ) ) ;
#765 = ORIENTED_EDGE ( 'NONE', *, *, #755, .F. ) ;
#766 = DIRECTION ( 'NONE',  ( 0.000000000000000000, 0.000000000000000000, -1.000000000000000000 ) ) ;
#767 = AXIS2_PLACEMENT_3D ( 'NONE', #653, #670, #851 ) ;
#768 = DIRECTION ( 'NONE',  ( 0.000000000000000000, 0.000000000000000000, -1.000000000000000000 ) ) ;
#769 = FACE_OUTER_BOUND ( 'NONE', #991, .T. ) ;
#770 = DIRECTION ( 'NONE',  ( 0.000000000000000000, 0.000000000000000000, -1.000000000000000000 ) ) ;
#771 = VERTEX_POINT ( 'NONE', #984 ) ;
#772 = EDGE_CURVE ( 'NONE', #1035, #158, #127, .T. ) ;
#773 = CARTESIAN_POINT ( 'NONE',  ( -15.50000000000000000, 15.50000000000000000, 14.00000000000000000 ) ) ;
#774 = DIRECTION ( 'NONE',  ( -1.000000000000000000, 0.000000000000000000, 0.000000000000000000 ) ) ;
#775 = CIRCLE ( 'NONE', #918, 1.749999999999999778 ) ;
#776 = CARTESIAN_POINT ( 'NONE',  ( 15.50000000000000000, -15.50000000000000000, 4.000000000000000000 ) ) ;
#777 = AXIS2_PLACEMENT_3D ( 'NONE', #480, #381, #782 ) ;
#778 = ORIENTED_EDGE ( 'NONE', *, *, #537, .T. ) ;
#779 = DIRECTION ( 'NONE',  ( 1.000000000000000000, 0.000000000000000000, 0.000000000000000000 ) ) ;
#780 = CARTESIAN_POINT ( 'NONE',  ( 24.00000000000000000, -4.535719438816869938E-15, 14.00000000000000000 ) ) ;
#781 = EDGE_CURVE ( 'NONE', #248, #553, #786, .T. ) ;
#782 = DIRECTION ( 'NONE',  ( 1.000000000000000000, 0.000000000000000000, 0.000000000000000000 ) ) ;
#783 = EDGE_LOOP ( 'NONE', ( #371, #856, #91, #498 ) ) ;
#784 = FACE_OUTER_BOUND ( 'NONE', #40, .T. ) ;
#785 = DIRECTION ( 'NONE',  ( -1.000000000000000000, 0.000000000000000000, 0.000000000000000000 ) ) ;
#786 = CIRCLE ( 'NONE', #448, 27.50000000000000000 ) ;
#787 = EDGE_CURVE ( 'NONE', #560, #547, #1230, .T. ) ;
#788 = SURFACE_STYLE_USAGE ( .BOTH. , #493 ) ;
#789 = EDGE_LOOP ( 'NONE', ( #879, #552, #491, #1171 ) ) ;
#790 = AXIS2_PLACEMENT_3D ( 'NONE', #411, #527, #817 ) ;
#791 = PRODUCT_DEFINITION_SHAPE ( 'NONE', 'NONE',  #1090 ) ;
#792 = DIRECTION ( 'NONE',  ( -1.000000000000000000, 0.000000000000000000, 0.000000000000000000 ) ) ;
#793 = ORIENTED_EDGE ( 'NONE', *, *, #427, .T. ) ;
#794 = CIRCLE ( 'NONE', #566, 2.500000000000000000 ) ;
#795 = ADVANCED_FACE ( 'NONE', ( #924 ), #818, .T. ) ;
#796 = EDGE_LOOP ( 'NONE', ( #160, #169 ) ) ;
#797 = CIRCLE ( 'NONE', #884, 2.749999999999999112 ) ;
#798 = DIRECTION ( 'NONE',  ( 0.000000000000000000, 0.000000000000000000, 1.000000000000000000 ) ) ;
#799 = ADVANCED_FACE ( 'NONE', ( #31 ), #1011, .F. ) ;
#800 = ADVANCED_BREP_SHAPE_REPRESENTATION ( 'Backup of Component3(Mirror)', ( #1047, #919 ), #291 ) ;
#801 = AXIS2_PLACEMENT_3D ( 'NONE', #74, #1142, #1259 ) ;
#802 = CARTESIAN_POINT ( 'NONE',  ( -15.50000000000000000, 15.50000000000000000, 0.000000000000000000 ) ) ;
#803 = AXIS2_PLACEMENT_3D ( 'NONE', #657, #239, #536 ) ;
#804 = CARTESIAN_POINT ( 'NONE',  ( -16.00000000000000000, -1.959434878635765131E-15, 7.000000000000000000 ) ) ;
#805 = LINE ( 'NONE', #212, #698 ) ;
#806 = ORIENTED_EDGE ( 'NONE', *, *, #487, .F. ) ;
#807 = EDGE_CURVE ( 'NONE', #142, #100, #725, .T. ) ;
#808 = DIRECTION ( 'NONE',  ( -1.000000000000000000, 0.000000000000000000, 0.000000000000000000 ) ) ;
#809 = CARTESIAN_POINT ( 'NONE',  ( 17.25000000000000000, 15.50000000000000000, 4.000000000000000000 ) ) ;
#810 = DIRECTION ( 'NONE',  ( 0.000000000000000000, 0.000000000000000000, -1.000000000000000000 ) ) ;
#811 = ORIENTED_EDGE ( 'NONE', *, *, #684, .F. ) ;
#812 = DIRECTION ( 'NONE',  ( -1.000000000000000000, 0.000000000000000000, 0.000000000000000000 ) ) ;
#813 = LINE ( 'NONE', #1014, #907 ) ;
#814 = VECTOR ( 'NONE', #982, 1000.000000000000000 ) ;
#815 = EDGE_CURVE ( 'NONE', #548, #615, #1026, .T. ) ;
#816 = CARTESIAN_POINT ( 'NONE',  ( 0.000000000000000000, 0.000000000000000000, 7.000000000000000000 ) ) ;
#817 = DIRECTION ( 'NONE',  ( 1.000000000000000000, 0.000000000000000000, 0.000000000000000000 ) ) ;
#818 = CYLINDRICAL_SURFACE ( 'NONE', #1127, 27.50000000000000000 ) ;
#819 = ORIENTED_EDGE ( 'NONE', *, *, #1064, .T. ) ;
#820 = ORIENTED_EDGE ( 'NONE', *, *, #1080, .T. ) ;
#821 = CARTESIAN_POINT ( 'NONE',  ( 14.00000000000000000, 0.000000000000000000, 7.000000000000000000 ) ) ;
#822 = DIRECTION ( 'NONE',  ( 0.000000000000000000, 0.000000000000000000, 1.000000000000000000 ) ) ;
#823 = CYLINDRICAL_SURFACE ( 'NONE', #123, 2.500000000000000000 ) ;
#824 = ADVANCED_FACE ( 'NONE', ( #831, #712, #418, #135, #25, #901, #503, #113, #223, #1015 ), #529, .F. ) ;
#825 = AXIS2_PLACEMENT_3D ( 'NONE', #599, #996, #1189 ) ;
#826 = LINE ( 'NONE', #1027, #339 ) ;
#827 = EDGE_LOOP ( 'NONE', ( #945, #159, #603, #188 ) ) ;
#828 = VERTEX_POINT ( 'NONE', #632 ) ;
#829 = DIRECTION ( 'NONE',  ( 1.000000000000000000, 0.000000000000000000, 0.000000000000000000 ) ) ;
#830 = EDGE_CURVE ( 'NONE', #1054, #889, #826, .T. ) ;
#831 = FACE_BOUND ( 'NONE', #691, .T. ) ;
#832 = VERTEX_POINT ( 'NONE', #1122 ) ;
#833 = EDGE_CURVE ( 'NONE', #685, #1035, #850, .T. ) ;
#834 = ORIENTED_EDGE ( 'NONE', *, *, #1095, .T. ) ;
#835 = DIRECTION ( 'NONE',  ( 0.000000000000000000, 0.000000000000000000, -1.000000000000000000 ) ) ;
#836 = AXIS2_PLACEMENT_3D ( 'NONE', #948, #743, #1040 ) ;
#837 = CIRCLE ( 'NONE', #434, 14.00000000000000000 ) ;
#838 = CARTESIAN_POINT ( 'NONE',  ( 17.25000000000000000, 15.50000000000000000, 0.000000000000000000 ) ) ;
#839 = CARTESIAN_POINT ( 'NONE',  ( 0.000000000000000000, 0.000000000000000000, 14.00000000000000000 ) ) ;
#840 = VERTEX_POINT ( 'NONE', #1102 ) ;
#841 = ORIENTED_EDGE ( 'NONE', *, *, #787, .F. ) ;
#842 = CARTESIAN_POINT ( 'NONE',  ( 8.005467014174450598E-16, 21.50000000000000000, 0.000000000000000000 ) ) ;
#843 = EDGE_CURVE ( 'NONE', #849, #1088, #504, .T. ) ;
#844 = DIRECTION ( 'NONE',  ( 0.000000000000000000, 0.000000000000000000, -1.000000000000000000 ) ) ;
#845 = DIRECTION ( 'NONE',  ( 1.000000000000000000, 0.000000000000000000, 0.000000000000000000 ) ) ;
#846 = EDGE_LOOP ( 'NONE', ( #1006, #130, #911, #428 ) ) ;
#847 = AXIS2_PLACEMENT_3D ( 'NONE', #13, #505, #686 ) ;
#848 = EDGE_LOOP ( 'NONE', ( #961, #667 ) ) ;
#849 = VERTEX_POINT ( 'NONE', #399 ) ;
#850 = CIRCLE ( 'NONE', #1075, 2.749999999999999112 ) ;
#851 = DIRECTION ( 'NONE',  ( 0.000000000000000000, -1.000000000000000000, 0.000000000000000000 ) ) ;
#852 = CYLINDRICAL_SURFACE ( 'NONE', #1097, 2.500000000000000000 ) ;
#853 = CARTESIAN_POINT ( 'NONE',  ( 0.000000000000000000, 0.000000000000000000, 0.000000000000000000 ) ) ;
#854 = VERTEX_POINT ( 'NONE', #804 ) ;
#855 = ORIENTED_EDGE ( 'NONE', *, *, #1264, .T. ) ;
#856 = ORIENTED_EDGE ( 'NONE', *, *, #47, .T. ) ;
#857 = CIRCLE ( 'NONE', #1179, 2.499999999999998668 ) ;
#858 = EDGE_CURVE ( 'NONE', #739, #1054, #400, .T. ) ;
#859 = CARTESIAN_POINT ( 'NONE',  ( 15.50000000000000000, -15.50000000000000000, 4.000000000000000000 ) ) ;
#860 = CARTESIAN_POINT ( 'NONE',  ( 15.50000000000000000, -15.50000000000000000, 4.000000000000000000 ) ) ;
#861 = EDGE_CURVE ( 'NONE', #1255, #854, #87, .T. ) ;
#862 = FACE_OUTER_BOUND ( 'NONE', #292, .T. ) ;
#863 = VERTEX_POINT ( 'NONE', #809 ) ;
#864 = EDGE_LOOP ( 'NONE', ( #240, #453 ) ) ;
#865 = VERTEX_POINT ( 'NONE', #1196 ) ;
#866 = DIRECTION ( 'NONE',  ( 0.000000000000000000, 0.000000000000000000, 1.000000000000000000 ) ) ;
#867 = CARTESIAN_POINT ( 'NONE',  ( 2.500000000000000000, -21.50000000000000000, 0.000000000000000000 ) ) ;
#868 = DIRECTION ( 'NONE',  ( 0.000000000000000000, 0.000000000000000000, -1.000000000000000000 ) ) ;
#869 = ORIENTED_EDGE ( 'NONE', *, *, #170, .T. ) ;
#870 = VERTEX_POINT ( 'NONE', #305 ) ;
#871 = ORIENTED_EDGE ( 'NONE', *, *, #266, .T. ) ;
#872 = DIRECTION ( 'NONE',  ( 1.000000000000000000, 0.000000000000000000, 0.000000000000000000 ) ) ;
#873 = CIRCLE ( 'NONE', #596, 1.750000000000001554 ) ;
#874 = CARTESIAN_POINT ( 'NONE',  ( -25.00000000000000000, -3.061616997868384620E-15, 7.000000000000000000 ) ) ;
#875 = FACE_OUTER_BOUND ( 'NONE', #944, .T. ) ;
#876 = DIRECTION ( 'NONE',  ( 0.000000000000000000, 0.000000000000000000, -1.000000000000000000 ) ) ;
#877 = ADVANCED_FACE ( 'NONE', ( #216 ), #614, .F. ) ;
#878 =( NAMED_UNIT ( * ) PLANE_ANGLE_UNIT ( ) SI_UNIT ( $, .RADIAN. ) );
#879 = ORIENTED_EDGE ( 'NONE', *, *, #66, .F. ) ;
#880 = EDGE_CURVE ( 'NONE', #514, #311, #1188, .T. ) ;
#881 = CARTESIAN_POINT ( 'NONE',  ( 13.75000000000000000, 15.50000000000000000, 4.000000000000000000 ) ) ;
#882 = VECTOR ( 'NONE', #231, 1000.000000000000000 ) ;
#883 = LINE ( 'NONE', #976, #814 ) ;
#884 = AXIS2_PLACEMENT_3D ( 'NONE', #2, #376, #90 ) ;
#885 = ORIENTED_EDGE ( 'NONE', *, *, #1157, .T. ) ;
#886 = EDGE_CURVE ( 'NONE', #390, #665, #580, .T. ) ;
#887 = DIRECTION ( 'NONE',  ( 0.000000000000000000, 0.000000000000000000, -1.000000000000000000 ) ) ;
#888 = CARTESIAN_POINT ( 'NONE',  ( 0.000000000000000000, 0.000000000000000000, 7.000000000000000000 ) ) ;
#889 = VERTEX_POINT ( 'NONE', #353 ) ;
#890 = AXIS2_PLACEMENT_3D ( 'NONE', #259, #458, #373 ) ;
#891 = DIRECTION ( 'NONE',  ( 0.000000000000000000, 0.000000000000000000, -1.000000000000000000 ) ) ;
#892 = DIRECTION ( 'NONE',  ( 0.000000000000000000, 0.000000000000000000, -1.000000000000000000 ) ) ;
#893 = ORIENTED_EDGE ( 'NONE', *, *, #1005, .T. ) ;
#894 = VECTOR ( 'NONE', #191, 1000.000000000000000 ) ;
#895 = CARTESIAN_POINT ( 'NONE',  ( 0.000000000000000000, 0.000000000000000000, 7.000000000000000000 ) ) ;
#896 = EDGE_CURVE ( 'NONE', #934, #978, #1256, .T. ) ;
#897 = CIRCLE ( 'NONE', #998, 1.749999999999999778 ) ;
#898 = CIRCLE ( 'NONE', #462, 2.500000000000000000 ) ;
#899 = CARTESIAN_POINT ( 'NONE',  ( 15.50000000000000000, 15.50000000000000000, 4.000000000000000000 ) ) ;
#900 = ADVANCED_FACE ( 'NONE', ( #1153, #1231 ), #343, .F. ) ;
#901 = FACE_BOUND ( 'NONE', #764, .T. ) ;
#902 = VERTEX_POINT ( 'NONE', #935 ) ;
#903 = LINE ( 'NONE', #1174, #616 ) ;
#904 = ORIENTED_EDGE ( 'NONE', *, *, #728, .F. ) ;
#905 = CIRCLE ( 'NONE', #184, 2.749999999999999112 ) ;
#906 = DIRECTION ( 'NONE',  ( 1.000000000000000000, 0.000000000000000000, 0.000000000000000000 ) ) ;
#907 = VECTOR ( 'NONE', #21, 1000.000000000000000 ) ;
#908 = AXIS2_PLACEMENT_3D ( 'NONE', #713, #1265, #1081 ) ;
#909 = CARTESIAN_POINT ( 'NONE',  ( 0.000000000000000000, 0.000000000000000000, 7.000000000000000000 ) ) ;
#910 = DIRECTION ( 'NONE',  ( 0.000000000000000000, 0.000000000000000000, -1.000000000000000000 ) ) ;
#911 = ORIENTED_EDGE ( 'NONE', *, *, #936, .T. ) ;
#912 = ADVANCED_FACE ( 'NONE', ( #641 ), #44, .F. ) ;
#913 = VECTOR ( 'NONE', #441, 1000.000000000000000 ) ;
#914 = FACE_OUTER_BOUND ( 'NONE', #756, .T. ) ;
#915 = DIRECTION ( 'NONE',  ( 0.000000000000000000, 0.000000000000000000, -1.000000000000000000 ) ) ;
#916 = DIRECTION ( 'NONE',  ( 0.000000000000000000, 0.000000000000000000, -1.000000000000000000 ) ) ;
#917 = ORIENTED_EDGE ( 'NONE', *, *, #999, .F. ) ;
#918 = AXIS2_PLACEMENT_3D ( 'NONE', #1235, #350, #597 ) ;
#919 = AXIS2_PLACEMENT_3D ( 'NONE', #232, #733, #513 ) ;
#920 = EDGE_LOOP ( 'NONE', ( #1178, #523 ) ) ;
#921 = DIRECTION ( 'NONE',  ( 0.000000000000000000, 0.000000000000000000, -1.000000000000000000 ) ) ;
#922 = DIRECTION ( 'NONE',  ( 0.000000000000000000, 0.000000000000000000, -1.000000000000000000 ) ) ;
#923 = CARTESIAN_POINT ( 'NONE',  ( -21.50000000000000000, 2.147658180479529816E-15, 0.000000000000000000 ) ) ;
#924 = FACE_OUTER_BOUND ( 'NONE', #1223, .T. ) ;
#925 = VERTEX_POINT ( 'NONE', #1057 ) ;
#926 = DIRECTION ( 'NONE',  ( 1.000000000000000000, 0.000000000000000000, 0.000000000000000000 ) ) ;
#927 = DIRECTION ( 'NONE',  ( 1.000000000000000000, 0.000000000000000000, 0.000000000000000000 ) ) ;
#928 = DIRECTION ( 'NONE',  ( 0.000000000000000000, 0.000000000000000000, -1.000000000000000000 ) ) ;
#929 = CARTESIAN_POINT ( 'NONE',  ( 17.25000000000000000, 15.50000000000000000, 14.00000000000000000 ) ) ;
#930 = AXIS2_PLACEMENT_3D ( 'NONE', #1227, #82, #340 ) ;
#931 = DIRECTION ( 'NONE',  ( 1.000000000000000000, 0.000000000000000000, 0.000000000000000000 ) ) ;
#932 = EDGE_LOOP ( 'NONE', ( #652, #869 ) ) ;
#933 = VERTEX_POINT ( 'NONE', #746 ) ;
#934 = VERTEX_POINT ( 'NONE', #174 ) ;
#935 = CARTESIAN_POINT ( 'NONE',  ( 18.25000000000000000, 15.50000000000000000, 0.000000000000000000 ) ) ;
#936 = EDGE_CURVE ( 'NONE', #12, #933, #558, .T. ) ;
#937 = EDGE_LOOP ( 'NONE', ( #80, #61 ) ) ;
#938 = ORIENTED_EDGE ( 'NONE', *, *, #590, .F. ) ;
#939 = CARTESIAN_POINT ( 'NONE',  ( 24.00000000000000000, -4.535719438816869938E-15, 0.000000000000000000 ) ) ;
#940 = AXIS2_PLACEMENT_3D ( 'NONE', #1166, #1185, #792 ) ;
#941 = DIRECTION ( 'NONE',  ( 0.000000000000000000, 0.000000000000000000, -1.000000000000000000 ) ) ;
#942 = CARTESIAN_POINT ( 'NONE',  ( 27.50000000000000000, 0.000000000000000000, 7.000000000000000000 ) ) ;
#943 = DIRECTION ( 'NONE',  ( 0.000000000000000000, 0.000000000000000000, -1.000000000000000000 ) ) ;
#944 = EDGE_LOOP ( 'NONE', ( #255, #265, #1119, #1212 ) ) ;
#945 = ORIENTED_EDGE ( 'NONE', *, *, #525, .F. ) ;
#946 = ORIENTED_EDGE ( 'NONE', *, *, #187, .T. ) ;
#947 = CARTESIAN_POINT ( 'NONE',  ( 13.75000000000000000, 15.50000000000000000, 14.00000000000000000 ) ) ;
#948 = CARTESIAN_POINT ( 'NONE',  ( 0.000000000000000000, 0.000000000000000000, 7.000000000000000000 ) ) ;
#949 = DIRECTION ( 'NONE',  ( 0.000000000000000000, 0.000000000000000000, -1.000000000000000000 ) ) ;
#950 = FACE_OUTER_BOUND ( 'NONE', #235, .T. ) ;
#951 = DIRECTION ( 'NONE',  ( 0.000000000000000000, 0.000000000000000000, -1.000000000000000000 ) ) ;
#952 = ORIENTED_EDGE ( 'NONE', *, *, #289, .F. ) ;
#953 = ORIENTED_EDGE ( 'NONE', *, *, #966, .F. ) ;
#954 = ORIENTED_EDGE ( 'NONE', *, *, #332, .T. ) ;
#955 = AXIS2_PLACEMENT_3D ( 'NONE', #1128, #943, #254 ) ;
#956 = ADVANCED_FACE ( 'NONE', ( #862 ), #69, .F. ) ;
#957 = FACE_BOUND ( 'NONE', #848, .T. ) ;
#958 = DIRECTION ( 'NONE',  ( -1.000000000000000000, 0.000000000000000000, 0.000000000000000000 ) ) ;
#959 = DIRECTION ( 'NONE',  ( 1.000000000000000000, 0.000000000000000000, 0.000000000000000000 ) ) ;
#960 = ORIENTED_EDGE ( 'NONE', *, *, #617, .T. ) ;
#961 = ORIENTED_EDGE ( 'NONE', *, *, #886, .T. ) ;
#962 = ORIENTED_EDGE ( 'NONE', *, *, #389, .T. ) ;
#963 = AXIS2_PLACEMENT_3D ( 'NONE', #57, #450, #245 ) ;
#964 = CIRCLE ( 'NONE', #1263, 2.499999999999998668 ) ;
#965 = CARTESIAN_POINT ( 'NONE',  ( -27.50000000000000000, -3.367778697655219730E-15, 14.00000000000000000 ) ) ;
#966 = EDGE_CURVE ( 'NONE', #1022, #507, #905, .T. ) ;
#967 = CIRCLE ( 'NONE', #393, 1.750000000000001554 ) ;
#968 = COLOUR_RGB ( '',0.7921568627450980005, 0.8196078431372548767, 0.9333333333333333481 ) ;
#969 = CARTESIAN_POINT ( 'NONE',  ( 15.50000000000000000, -15.50000000000000000, 0.000000000000000000 ) ) ;
#970 = ORIENTED_EDGE ( 'NONE', *, *, #880, .T. ) ;
#971 = ORIENTED_EDGE ( 'NONE', *, *, #999, .T. ) ;
#972 = VERTEX_POINT ( 'NONE', #1067 ) ;
#973 = FACE_BOUND ( 'NONE', #15, .T. ) ;
#974 = CARTESIAN_POINT ( 'NONE',  ( 13.75000000000000000, -15.50000000000000000, 14.00000000000000000 ) ) ;
#975 = EDGE_CURVE ( 'NONE', #444, #1046, #528, .T. ) ;
#976 = CARTESIAN_POINT ( 'NONE',  ( -2.500000000000000000, -21.50000000000000000, 0.000000000000000000 ) ) ;
#977 = EDGE_CURVE ( 'NONE', #1035, #685, #721, .T. ) ;
#978 = VERTEX_POINT ( 'NONE', #1246 ) ;
#979 = FACE_OUTER_BOUND ( 'NONE', #1154, .T. ) ;
#980 = AXIS2_PLACEMENT_3D ( 'NONE', #262, #664, #959 ) ;
#981 = DIRECTION ( 'NONE',  ( 0.000000000000000000, 0.000000000000000000, -1.000000000000000000 ) ) ;
#982 = DIRECTION ( 'NONE',  ( 0.000000000000000000, 0.000000000000000000, -1.000000000000000000 ) ) ;
#983 = ORIENTED_EDGE ( 'NONE', *, *, #1086, .T. ) ;
#984 = CARTESIAN_POINT ( 'NONE',  ( -18.25000000000000000, -15.50000000000000000, 0.000000000000000000 ) ) ;
#985 = FACE_OUTER_BOUND ( 'NONE', #1131, .T. ) ;
#986 = CARTESIAN_POINT ( 'NONE',  ( -15.50000000000000000, 15.50000000000000000, 0.000000000000000000 ) ) ;
#987 = CARTESIAN_POINT ( 'NONE',  ( -16.00000000000000000, -1.959434878635765131E-15, 0.000000000000000000 ) ) ;
#988 = AXIS2_PLACEMENT_3D ( 'NONE', #1106, #619, #496 ) ;
#989 = VERTEX_POINT ( 'NONE', #361 ) ;
#990 = CYLINDRICAL_SURFACE ( 'NONE', #284, 16.00000000000000000 ) ;
#991 = EDGE_LOOP ( 'NONE', ( #144, #486, #1232, #52 ) ) ;
#992 = PRODUCT ( 'Backup of Component3(Mirror)', 'Backup of Component3(Mirror)', '', ( #143 ) ) ;
#993 = AXIS2_PLACEMENT_3D ( 'NONE', #557, #451, #1237 ) ;
#994 = EDGE_CURVE ( 'NONE', #1054, #739, #1164, .T. ) ;
#995 = DIRECTION ( 'NONE',  ( 0.000000000000000000, 0.000000000000000000, -1.000000000000000000 ) ) ;
#996 = DIRECTION ( 'NONE',  ( 0.000000000000000000, 0.000000000000000000, -1.000000000000000000 ) ) ;
#997 = DIRECTION ( 'NONE',  ( 1.000000000000000000, 0.000000000000000000, 0.000000000000000000 ) ) ;
#998 = AXIS2_PLACEMENT_3D ( 'NONE', #111, #499, #906 ) ;
#999 = EDGE_CURVE ( 'NONE', #1046, #444, #1243, .T. ) ;
#1000 = AXIS2_PLACEMENT_3D ( 'NONE', #370, #770, #1159 ) ;
#1001 = ORIENTED_EDGE ( 'NONE', *, *, #303, .F. ) ;
#1002 = DIRECTION ( 'NONE',  ( 0.000000000000000000, 0.000000000000000000, -1.000000000000000000 ) ) ;
#1003 =( LENGTH_UNIT ( ) NAMED_UNIT ( * ) SI_UNIT ( .MILLI., .METRE. ) );
#1004 = CARTESIAN_POINT ( 'NONE',  ( -12.75000000000000000, -15.50000000000000000, 0.000000000000000000 ) ) ;
#1005 = EDGE_CURVE ( 'NONE', #547, #560, #898, .T. ) ;
#1006 = ORIENTED_EDGE ( 'NONE', *, *, #47, .F. ) ;
#1007 = DIRECTION ( 'NONE',  ( 0.000000000000000000, 0.000000000000000000, -1.000000000000000000 ) ) ;
#1008 = CYLINDRICAL_SURFACE ( 'NONE', #290, 1.750000000000001554 ) ;
#1009 = CARTESIAN_POINT ( 'NONE',  ( -3.494769659541620390E-15, -21.50000000000000000, 14.00000000000000000 ) ) ;
#1010 = AXIS2_PLACEMENT_3D ( 'NONE', #1217, #141, #11 ) ;
#1011 = CYLINDRICAL_SURFACE ( 'NONE', #296, 1.749999999999999778 ) ;
#1012 = ORIENTED_EDGE ( 'NONE', *, *, #369, .F. ) ;
#1013 = LINE ( 'NONE', #939, #1037 ) ;
#1014 = CARTESIAN_POINT ( 'NONE',  ( -13.75000000000000000, 15.50000000000000000, 0.000000000000000000 ) ) ;
#1015 = FACE_OUTER_BOUND ( 'NONE', #796, .T. ) ;
#1016 = ORIENTED_EDGE ( 'NONE', *, *, #438, .T. ) ;
#1017 = CIRCLE ( 'NONE', #176, 25.00000000000000000 ) ;
#1018 = APPLICATION_PROTOCOL_DEFINITION ( 'draft international standard', 'automotive_design', 1998, #1112 ) ;
#1019 = DIRECTION ( 'NONE',  ( 1.000000000000000000, 0.000000000000000000, 0.000000000000000000 ) ) ;
#1020 = CYLINDRICAL_SURFACE ( 'NONE', #1099, 1.749999999999999778 ) ;
#1021 = CARTESIAN_POINT ( 'NONE',  ( 0.000000000000000000, 0.000000000000000000, 7.000000000000000000 ) ) ;
#1022 = VERTEX_POINT ( 'NONE', #51 ) ;
#1023 = CARTESIAN_POINT ( 'NONE',  ( 15.50000000000000000, -15.50000000000000000, 14.00000000000000000 ) ) ;
#1024 = EDGE_CURVE ( 'NONE', #46, #330, #1066, .T. ) ;
#1025 = DIRECTION ( 'NONE',  ( 1.000000000000000000, 0.000000000000000000, 0.000000000000000000 ) ) ;
#1026 = CIRCLE ( 'NONE', #637, 25.00000000000000000 ) ;
#1027 = CARTESIAN_POINT ( 'NONE',  ( 19.00000000000000000, -4.841881138603709386E-15, 0.000000000000000000 ) ) ;
#1028 = ORIENTED_EDGE ( 'NONE', *, *, #680, .T. ) ;
#1029 = ORIENTED_EDGE ( 'NONE', *, *, #702, .F. ) ;
#1030 = CARTESIAN_POINT ( 'NONE',  ( -15.50000000000000000, -15.50000000000000000, 0.000000000000000000 ) ) ;
#1031 = ADVANCED_FACE ( 'NONE', ( #157, #551 ), #59, .F. ) ;
#1032 = DIRECTION ( 'NONE',  ( 1.000000000000000000, 0.000000000000000000, 0.000000000000000000 ) ) ;
#1033 = EDGE_CURVE ( 'NONE', #665, #694, #96, .T. ) ;
#1034 = ORIENTED_EDGE ( 'NONE', *, *, #298, .T. ) ;
#1035 = VERTEX_POINT ( 'NONE', #1261 ) ;
#1036 = ORIENTED_EDGE ( 'NONE', *, *, #293, .T. ) ;
#1037 = VECTOR ( 'NONE', #121, 1000.000000000000000 ) ;
#1038 = CIRCLE ( 'NONE', #940, 2.500000000000000000 ) ;
#1039 = CARTESIAN_POINT ( 'NONE',  ( -15.50000000000000000, 15.50000000000000000, 0.000000000000000000 ) ) ;
#1040 = DIRECTION ( 'NONE',  ( 1.000000000000000000, 0.000000000000000000, 0.000000000000000000 ) ) ;
#1041 = CYLINDRICAL_SURFACE ( 'NONE', #1214, 2.499999999999998668 ) ;
#1042 = DIRECTION ( 'NONE',  ( 1.000000000000000000, 0.000000000000000000, 0.000000000000000000 ) ) ;
#1043 = ORIENTED_EDGE ( 'NONE', *, *, #858, .F. ) ;
#1044 = EDGE_CURVE ( 'NONE', #1211, #719, #1038, .T. ) ;
#1045 = ORIENTED_EDGE ( 'NONE', *, *, #861, .T. ) ;
#1046 = VERTEX_POINT ( 'NONE', #678 ) ;
#1047 = MANIFOLD_SOLID_BREP ( 'NONE', #149 ) ;
#1048 = FACE_BOUND ( 'NONE', #476, .T. ) ;
#1049 = LINE ( 'NONE', #163, #646 ) ;
#1050 = CARTESIAN_POINT ( 'NONE',  ( -12.75000000000000000, 15.50000000000000000, 0.000000000000000000 ) ) ;
#1051 = CARTESIAN_POINT ( 'NONE',  ( -13.75000000000000000, -15.50000000000000000, 0.000000000000000000 ) ) ;
#1052 = EDGE_LOOP ( 'NONE', ( #70, #628 ) ) ;
#1053 = ORIENTED_EDGE ( 'NONE', *, *, #289, .T. ) ;
#1054 = VERTEX_POINT ( 'NONE', #7 ) ;
#1055 = FACE_OUTER_BOUND ( 'NONE', #846, .T. ) ;
#1056 = LINE ( 'NONE', #375, #731 ) ;
#1057 = CARTESIAN_POINT ( 'NONE',  ( 2.500000000000000000, -21.50000000000000000, 14.00000000000000000 ) ) ;
#1058 = ORIENTED_EDGE ( 'NONE', *, *, #497, .F. ) ;
#1059 = ORIENTED_EDGE ( 'NONE', *, *, #122, .F. ) ;
#1060 = ORIENTED_EDGE ( 'NONE', *, *, #755, .T. ) ;
#1061 = VECTOR ( 'NONE', #876, 1000.000000000000000 ) ;
#1062 = CARTESIAN_POINT ( 'NONE',  ( 15.50000000000000000, 15.50000000000000000, 4.000000000000000000 ) ) ;
#1063 = CARTESIAN_POINT ( 'NONE',  ( 0.000000000000000000, 0.000000000000000000, 0.000000000000000000 ) ) ;
#1064 = EDGE_CURVE ( 'NONE', #1088, #849, #151, .T. ) ;
#1065 = CARTESIAN_POINT ( 'NONE',  ( 15.50000000000000000, 15.50000000000000000, 4.000000000000000000 ) ) ;
#1066 = CIRCLE ( 'NONE', #73, 2.749999999999999112 ) ;
#1067 = CARTESIAN_POINT ( 'NONE',  ( -12.75000000000000000, 15.50000000000000000, 4.000000000000000000 ) ) ;
#1068 = VERTEX_POINT ( 'NONE', #689 ) ;
#1069 = CARTESIAN_POINT ( 'NONE',  ( -17.25000000000000000, 15.50000000000000000, 14.00000000000000000 ) ) ;
#1070 = CARTESIAN_POINT ( 'NONE',  ( -21.50000000000000000, 2.147658180479529816E-15, 14.00000000000000000 ) ) ;
#1071 = DIRECTION ( 'NONE',  ( 1.000000000000000000, 0.000000000000000000, 0.000000000000000000 ) ) ;
#1072 = EDGE_CURVE ( 'NONE', #615, #1146, #699, .T. ) ;
#1073 = CARTESIAN_POINT ( 'NONE',  ( 15.50000000000000000, -15.50000000000000000, 4.000000000000000000 ) ) ;
#1074 = ORIENTED_EDGE ( 'NONE', *, *, #201, .T. ) ;
#1075 = AXIS2_PLACEMENT_3D ( 'NONE', #1209, #39, #426 ) ;
#1076 = DIRECTION ( 'NONE',  ( 0.000000000000000000, 0.000000000000000000, -1.000000000000000000 ) ) ;
#1077 = DIRECTION ( 'NONE',  ( 1.000000000000000000, 0.000000000000000000, 0.000000000000000000 ) ) ;
#1078 = DIRECTION ( 'NONE',  ( 1.000000000000000000, 0.000000000000000000, 0.000000000000000000 ) ) ;
#1079 = ORIENTED_EDGE ( 'NONE', *, *, #1095, .F. ) ;
#1080 = EDGE_CURVE ( 'NONE', #840, #100, #570, .T. ) ;
#1081 = DIRECTION ( 'NONE',  ( 1.000000000000000000, 0.000000000000000000, 0.000000000000000000 ) ) ;
#1082 = DIRECTION ( 'NONE',  ( 0.000000000000000000, 0.000000000000000000, -1.000000000000000000 ) ) ;
#1083 = DIRECTION ( 'NONE',  ( 0.000000000000000000, 0.000000000000000000, -1.000000000000000000 ) ) ;
#1084 = CIRCLE ( 'NONE', #495, 2.500000000000000000 ) ;
#1085 = ORIENTED_EDGE ( 'NONE', *, *, #535, .F. ) ;
#1086 = EDGE_CURVE ( 'NONE', #635, #828, #229, .T. ) ;
#1087 = DIRECTION ( 'NONE',  ( 1.000000000000000000, 0.000000000000000000, 0.000000000000000000 ) ) ;
#1088 = VERTEX_POINT ( 'NONE', #193 ) ;
#1089 = AXIS2_PLACEMENT_3D ( 'NONE', #1192, #609, #679 ) ;
#1090 = PRODUCT_DEFINITION ( 'UNKNOWN', '', #26, #477 ) ;
#1091 = CIRCLE ( 'NONE', #890, 1.749999999999999778 ) ;
#1092 = ADVANCED_FACE ( 'NONE', ( #395 ), #577, .F. ) ;
#1093 = DIRECTION ( 'NONE',  ( 0.000000000000000000, 0.000000000000000000, -1.000000000000000000 ) ) ;
#1094 = ORIENTED_EDGE ( 'NONE', *, *, #975, .T. ) ;
#1095 = EDGE_CURVE ( 'NONE', #854, #311, #386, .T. ) ;
#1096 = DIRECTION ( 'NONE',  ( 0.000000000000000000, 0.000000000000000000, -1.000000000000000000 ) ) ;
#1097 = AXIS2_PLACEMENT_3D ( 'NONE', #1260, #374, #774 ) ;
#1098 = DIRECTION ( 'NONE',  ( 0.000000000000000000, 0.000000000000000000, -1.000000000000000000 ) ) ;
#1099 = AXIS2_PLACEMENT_3D ( 'NONE', #802, #605, #997 ) ;
#1100 = LINE ( 'NONE', #1168, #531 ) ;
#1101 = CARTESIAN_POINT ( 'NONE',  ( -21.50000000000000000, 2.147658180479529816E-15, 0.000000000000000000 ) ) ;
#1102 = CARTESIAN_POINT ( 'NONE',  ( 17.25000000000000000, -15.50000000000000000, 4.000000000000000000 ) ) ;
#1103 = VERTEX_POINT ( 'NONE', #581 ) ;
#1104 = DIRECTION ( 'NONE',  ( 0.000000000000000000, 0.000000000000000000, -1.000000000000000000 ) ) ;
#1105 = ORIENTED_EDGE ( 'NONE', *, *, #122, .T. ) ;
#1106 = CARTESIAN_POINT ( 'NONE',  ( 15.50000000000000000, -15.50000000000000000, 0.000000000000000000 ) ) ;
#1107 = CARTESIAN_POINT ( 'NONE',  ( 15.50000000000000000, -15.50000000000000000, 4.000000000000000000 ) ) ;
#1108 = DIRECTION ( 'NONE',  ( 0.000000000000000000, 0.000000000000000000, -1.000000000000000000 ) ) ;
#1109 = ORIENTED_EDGE ( 'NONE', *, *, #763, .F. ) ;
#1110 = ORIENTED_EDGE ( 'NONE', *, *, #320, .T. ) ;
#1111 = CYLINDRICAL_SURFACE ( 'NONE', #197, 2.749999999999999112 ) ;
#1112 = APPLICATION_CONTEXT ( 'automotive_design' ) ;
#1113 = VECTOR ( 'NONE', #655, 1000.000000000000000 ) ;
#1114 = DIRECTION ( 'NONE',  ( 1.000000000000000000, 0.000000000000000000, 0.000000000000000000 ) ) ;
#1115 = DIRECTION ( 'NONE',  ( 0.000000000000000000, 0.000000000000000000, -1.000000000000000000 ) ) ;
#1116 = AXIS2_PLACEMENT_3D ( 'NONE', #440, #1228, #65 ) ;
#1117 = ORIENTED_EDGE ( 'NONE', *, *, #564, .T. ) ;
#1118 = VECTOR ( 'NONE', #342, 1000.000000000000000 ) ;
#1119 = ORIENTED_EDGE ( 'NONE', *, *, #896, .T. ) ;
#1120 = CARTESIAN_POINT ( 'NONE',  ( -21.50000000000000000, 2.147658180479529816E-15, 14.00000000000000000 ) ) ;
#1121 = EDGE_CURVE ( 'NONE', #1137, #560, #883, .T. ) ;
#1122 = CARTESIAN_POINT ( 'NONE',  ( -19.00000000000000000, 2.453819880266370053E-15, 14.00000000000000000 ) ) ;
#1123 = ORIENTED_EDGE ( 'NONE', *, *, #447, .F. ) ;
#1124 = DIRECTION ( 'NONE',  ( -1.000000000000000000, 0.000000000000000000, 0.000000000000000000 ) ) ;
#1125 = EDGE_CURVE ( 'NONE', #507, #1022, #797, .T. ) ;
#1126 = AXIS2_PLACEMENT_3D ( 'NONE', #171, #154, #439 ) ;
#1127 = AXIS2_PLACEMENT_3D ( 'NONE', #734, #1108, #228 ) ;
#1128 = CARTESIAN_POINT ( 'NONE',  ( 15.50000000000000000, 15.50000000000000000, 14.00000000000000000 ) ) ;
#1129 = ORIENTED_EDGE ( 'NONE', *, *, #1135, .F. ) ;
#1130 = ORIENTED_EDGE ( 'NONE', *, *, #623, .F. ) ;
#1131 = EDGE_LOOP ( 'NONE', ( #145, #242, #175, #1105 ) ) ;
#1132 = CYLINDRICAL_SURFACE ( 'NONE', #338, 25.00000000000000000 ) ;
#1133 = CARTESIAN_POINT ( 'NONE',  ( 15.50000000000000000, 15.50000000000000000, 0.000000000000000000 ) ) ;
#1134 = LINE ( 'NONE', #647, #1113 ) ;
#1135 = EDGE_CURVE ( 'NONE', #1068, #387, #273, .T. ) ;
#1136 = CARTESIAN_POINT ( 'NONE',  ( 15.50000000000000000, 15.50000000000000000, 4.000000000000000000 ) ) ;
#1137 = VERTEX_POINT ( 'NONE', #281 ) ;
#1138 = ORIENTED_EDGE ( 'NONE', *, *, #607, .T. ) ;
#1139 = ORIENTED_EDGE ( 'NONE', *, *, #830, .F. ) ;
#1140 = CIRCLE ( 'NONE', #589, 2.749999999999999112 ) ;
#1141 =( GEOMETRIC_REPRESENTATION_CONTEXT ( 3 ) GLOBAL_UNCERTAINTY_ASSIGNED_CONTEXT ( ( #569 ) ) GLOBAL_UNIT_ASSIGNED_CONTEXT ( ( #1181, #878, #693 ) ) REPRESENTATION_CONTEXT ( 'NONE', 'WORKASPACE' ) );
#1142 = DIRECTION ( 'NONE',  ( 0.000000000000000000, 0.000000000000000000, -1.000000000000000000 ) ) ;
#1143 = DIRECTION ( 'NONE',  ( 0.000000000000000000, 0.000000000000000000, -1.000000000000000000 ) ) ;
#1144 = DIRECTION ( 'NONE',  ( 0.000000000000000000, 0.000000000000000000, -1.000000000000000000 ) ) ;
#1145 = DIRECTION ( 'NONE',  ( 1.000000000000000000, 0.000000000000000000, 0.000000000000000000 ) ) ;
#1146 = VERTEX_POINT ( 'NONE', #683 ) ;
#1147 = EDGE_LOOP ( 'NONE', ( #917, #287, #422, #559 ) ) ;
#1148 = EDGE_LOOP ( 'NONE', ( #954, #1053 ) ) ;
#1149 = FACE_BOUND ( 'NONE', #1224, .T. ) ;
#1150 = CARTESIAN_POINT ( 'NONE',  ( -15.50000000000000000, -15.50000000000000000, 4.000000000000000000 ) ) ;
#1151 = AXIS2_PLACEMENT_3D ( 'NONE', #334, #1222, #1238 ) ;
#1152 = LINE ( 'NONE', #277, #1061 ) ;
#1153 = FACE_BOUND ( 'NONE', #1249, .T. ) ;
#1154 = EDGE_LOOP ( 'NONE', ( #651, #177, #1110, #588 ) ) ;
#1155 = VERTEX_POINT ( 'NONE', #415 ) ;
#1156 = EDGE_LOOP ( 'NONE', ( #206, #1029 ) ) ;
#1157 = EDGE_CURVE ( 'NONE', #1146, #258, #1220, .T. ) ;
#1158 = FACE_OUTER_BOUND ( 'NONE', #3, .T. ) ;
#1159 = DIRECTION ( 'NONE',  ( -1.000000000000000000, 0.000000000000000000, 0.000000000000000000 ) ) ;
#1160 = VERTEX_POINT ( 'NONE', #226 ) ;
#1161 = EDGE_CURVE ( 'NONE', #1137, #925, #1084, .T. ) ;
#1162 = DIRECTION ( 'NONE',  ( 1.000000000000000000, 0.000000000000000000, 0.000000000000000000 ) ) ;
#1163 = CARTESIAN_POINT ( 'NONE',  ( -3.494769659541620390E-15, -21.50000000000000000, 14.00000000000000000 ) ) ;
#1164 = CIRCLE ( 'NONE', #1000, 2.499999999999998668 ) ;
#1165 = CIRCLE ( 'NONE', #109, 1.749999999999999778 ) ;
#1166 = CARTESIAN_POINT ( 'NONE',  ( 8.005467014174450598E-16, 21.50000000000000000, 14.00000000000000000 ) ) ;
#1167 = ORIENTED_EDGE ( 'NONE', *, *, #303, .T. ) ;
#1168 = CARTESIAN_POINT ( 'NONE',  ( -27.50000000000000000, -3.367778697655219730E-15, 7.000000000000000000 ) ) ;
#1169 = CYLINDRICAL_SURFACE ( 'NONE', #392, 2.499999999999998668 ) ;
#1170 = ADVANCED_FACE ( 'NONE', ( #410 ), #1020, .F. ) ;
#1171 = ORIENTED_EDGE ( 'NONE', *, *, #966, .T. ) ;
#1172 = VECTOR ( 'NONE', #910, 1000.000000000000000 ) ;
#1173 = AXIS2_PLACEMENT_3D ( 'NONE', #853, #761, #1254 ) ;
#1174 = CARTESIAN_POINT ( 'NONE',  ( 12.75000000000000000, 15.50000000000000000, 0.000000000000000000 ) ) ;
#1175 = FILL_AREA_STYLE ('',( #202 ) ) ;
#1176 = ADVANCED_FACE ( 'NONE', ( #133, #914 ), #711, .T. ) ;
#1177 = ORIENTED_EDGE ( 'NONE', *, *, #1033, .F. ) ;
#1178 = ORIENTED_EDGE ( 'NONE', *, *, #1024, .T. ) ;
#1179 = AXIS2_PLACEMENT_3D ( 'NONE', #8, #1144, #958 ) ;
#1180 = AXIS2_PLACEMENT_3D ( 'NONE', #720, #138, #1124 ) ;
#1181 =( LENGTH_UNIT ( ) NAMED_UNIT ( * ) SI_UNIT ( .MILLI., .METRE. ) );
#1182 = AXIS2_PLACEMENT_3D ( 'NONE', #839, #738, #1032 ) ;
#1183 = ORIENTED_EDGE ( 'NONE', *, *, #297, .F. ) ;
#1184 = CARTESIAN_POINT ( 'NONE',  ( 15.50000000000000000, 15.50000000000000000, 0.000000000000000000 ) ) ;
#1185 = DIRECTION ( 'NONE',  ( 0.000000000000000000, 0.000000000000000000, -1.000000000000000000 ) ) ;
#1186 = EDGE_CURVE ( 'NONE', #330, #46, #1197, .T. ) ;
#1187 = CARTESIAN_POINT ( 'NONE',  ( 27.50000000000000000, 0.000000000000000000, 14.00000000000000000 ) ) ;
#1188 = CIRCLE ( 'NONE', #1173, 16.00000000000000000 ) ;
#1189 = DIRECTION ( 'NONE',  ( 1.000000000000000000, 0.000000000000000000, 0.000000000000000000 ) ) ;
#1190 = CARTESIAN_POINT ( 'NONE',  ( 0.000000000000000000, 0.000000000000000000, 7.000000000000000000 ) ) ;
#1191 = CARTESIAN_POINT ( 'NONE',  ( 21.50000000000000000, -4.841881138603709386E-15, 14.00000000000000000 ) ) ;
#1192 = CARTESIAN_POINT ( 'NONE',  ( 0.000000000000000000, 0.000000000000000000, 14.00000000000000000 ) ) ;
#1193 = EDGE_LOOP ( 'NONE', ( #1043, #54, #357, #1139 ) ) ;
#1194 = FACE_OUTER_BOUND ( 'NONE', #414, .T. ) ;
#1195 = CARTESIAN_POINT ( 'NONE',  ( -18.25000000000000000, 15.50000000000000000, 0.000000000000000000 ) ) ;
#1196 = CARTESIAN_POINT ( 'NONE',  ( 12.75000000000000000, 15.50000000000000000, 0.000000000000000000 ) ) ;
#1197 = CIRCLE ( 'NONE', #128, 2.749999999999999112 ) ;
#1198 = DIRECTION ( 'NONE',  ( 0.000000000000000000, 0.000000000000000000, -1.000000000000000000 ) ) ;
#1199 = PLANE ( 'NONE',  #494 ) ;
#1200 = CARTESIAN_POINT ( 'NONE',  ( -15.50000000000000000, -15.50000000000000000, 14.00000000000000000 ) ) ;
#1201 = DIRECTION ( 'NONE',  ( 0.000000000000000000, 0.000000000000000000, -1.000000000000000000 ) ) ;
#1202 = FACE_OUTER_BOUND ( 'NONE', #1193, .T. ) ;
#1203 = DIRECTION ( 'NONE',  ( 1.000000000000000000, 0.000000000000000000, 0.000000000000000000 ) ) ;
#1204 = ORIENTED_EDGE ( 'NONE', *, *, #293, .F. ) ;
#1205 = ORIENTED_EDGE ( 'NONE', *, *, #815, .T. ) ;
#1206 = CARTESIAN_POINT ( 'NONE',  ( -13.75000000000000000, 15.50000000000000000, 4.000000000000000000 ) ) ;
#1207 = DIRECTION ( 'NONE',  ( 0.000000000000000000, -1.000000000000000000, 0.000000000000000000 ) ) ;
#1208 = DIRECTION ( 'NONE',  ( 0.000000000000000000, 0.000000000000000000, -1.000000000000000000 ) ) ;
#1209 = CARTESIAN_POINT ( 'NONE',  ( -15.50000000000000000, -15.50000000000000000, 4.000000000000000000 ) ) ;
#1210 = EDGE_CURVE ( 'NONE', #635, #1240, #23, .T. ) ;
#1211 = VERTEX_POINT ( 'NONE', #723 ) ;
#1212 = ORIENTED_EDGE ( 'NONE', *, *, #201, .F. ) ;
#1213 = FACE_OUTER_BOUND ( 'NONE', #757, .T. ) ;
#1214 = AXIS2_PLACEMENT_3D ( 'NONE', #156, #922, #30 ) ;
#1215 = ORIENTED_EDGE ( 'NONE', *, *, #447, .T. ) ;
#1216 = CYLINDRICAL_SURFACE ( 'NONE', #648, 2.499999999999998668 ) ;
#1217 = CARTESIAN_POINT ( 'NONE',  ( 0.000000000000000000, 0.000000000000000000, 7.000000000000000000 ) ) ;
#1218 = AXIS2_PLACEMENT_3D ( 'NONE', #533, #430, #722 ) ;
#1219 = FACE_OUTER_BOUND ( 'NONE', #920, .T. ) ;
#1220 = CIRCLE ( 'NONE', #178, 25.00000000000000000 ) ;
#1221 = CARTESIAN_POINT ( 'NONE',  ( 0.000000000000000000, 0.000000000000000000, 0.000000000000000000 ) ) ;
#1222 = DIRECTION ( 'NONE',  ( 0.000000000000000000, 0.000000000000000000, -1.000000000000000000 ) ) ;
#1223 = EDGE_LOOP ( 'NONE', ( #819, #203, #904, #200 ) ) ;
#1224 = EDGE_LOOP ( 'NONE', ( #469, #578 ) ) ;
#1225 = VERTEX_POINT ( 'NONE', #299 ) ;
#1226 = ADVANCED_FACE ( 'NONE', ( #625 ), #1216, .F. ) ;
#1227 = CARTESIAN_POINT ( 'NONE',  ( -15.50000000000000000, -15.50000000000000000, 0.000000000000000000 ) ) ;
#1228 = DIRECTION ( 'NONE',  ( 0.000000000000000000, 0.000000000000000000, -1.000000000000000000 ) ) ;
#1229 = FACE_OUTER_BOUND ( 'NONE', #520, .T. ) ;
#1230 = CIRCLE ( 'NONE', #189, 2.500000000000000000 ) ;
#1231 = FACE_OUTER_BOUND ( 'NONE', #407, .T. ) ;
#1232 = ORIENTED_EDGE ( 'NONE', *, *, #1080, .F. ) ;
#1233 = ORIENTED_EDGE ( 'NONE', *, *, #112, .T. ) ;
#1234 = FACE_BOUND ( 'NONE', #218, .T. ) ;
#1235 = CARTESIAN_POINT ( 'NONE',  ( -15.50000000000000000, -15.50000000000000000, 4.000000000000000000 ) ) ;
#1236 = CIRCLE ( 'NONE', #225, 1.750000000000001554 ) ;
#1237 = DIRECTION ( 'NONE',  ( 1.000000000000000000, 0.000000000000000000, 0.000000000000000000 ) ) ;
#1238 = DIRECTION ( 'NONE',  ( 1.000000000000000000, 0.000000000000000000, 0.000000000000000000 ) ) ;
#1239 = ORIENTED_EDGE ( 'NONE', *, *, #372, .T. ) ;
#1240 = VERTEX_POINT ( 'NONE', #509 ) ;
#1241 = EDGE_LOOP ( 'NONE', ( #674, #983 ) ) ;
#1242 = CIRCLE ( 'NONE', #272, 2.749999999999999112 ) ;
#1243 = CIRCLE ( 'NONE', #1182, 14.00000000000000000 ) ;
#1244 = CYLINDRICAL_SURFACE ( 'NONE', #502, 2.749999999999999112 ) ;
#1245 = FACE_OUTER_BOUND ( 'NONE', #150, .T. ) ;
#1246 = CARTESIAN_POINT ( 'NONE',  ( -2.500000000000000000, 21.50000000000000000, 0.000000000000000000 ) ) ;
#1247 = ADVANCED_FACE ( 'NONE', ( #715 ), #325, .F. ) ;
#1248 = ORIENTED_EDGE ( 'NONE', *, *, #347, .T. ) ;
#1249 = EDGE_LOOP ( 'NONE', ( #250, #1117 ) ) ;
#1250 = ORIENTED_EDGE ( 'NONE', *, *, #586, .F. ) ;
#1251 = CYLINDRICAL_SURFACE ( 'NONE', #1126, 2.749999999999999112 ) ;
#1252 = PLANE ( 'NONE',  #672 ) ;
#1253 = DIRECTION ( 'NONE',  ( 0.000000000000000000, 0.000000000000000000, -1.000000000000000000 ) ) ;
#1254 = DIRECTION ( 'NONE',  ( 1.000000000000000000, 0.000000000000000000, 0.000000000000000000 ) ) ;
#1255 = VERTEX_POINT ( 'NONE', #10 ) ;
#1256 = CIRCLE ( 'NONE', #803, 2.500000000000000000 ) ;
#1257 = ADVANCED_FACE ( 'NONE', ( #215 ), #37, .F. ) ;
#1258 = ORIENTED_EDGE ( 'NONE', *, *, #843, .F. ) ;
#1259 = DIRECTION ( 'NONE',  ( 1.000000000000000000, 0.000000000000000000, 0.000000000000000000 ) ) ;
#1260 = CARTESIAN_POINT ( 'NONE',  ( 8.005467014174450598E-16, 21.50000000000000000, 0.000000000000000000 ) ) ;
#1261 = CARTESIAN_POINT ( 'NONE',  ( -12.75000000000000000, -15.50000000000000000, 4.000000000000000000 ) ) ;
#1262 = ORIENTED_EDGE ( 'NONE', *, *, #858, .T. ) ;
#1263 = AXIS2_PLACEMENT_3D ( 'NONE', #1070, #941, #50 ) ;
#1264 = EDGE_CURVE ( 'NONE', #12, #989, #1165, .T. ) ;
#1265 = DIRECTION ( 'NONE',  ( 0.000000000000000000, 0.000000000000000000, 1.000000000000000000 ) ) ;
#1266 = VECTOR ( 'NONE', #892, 1000.000000000000000 ) ;
#1267 = EDGE_LOOP ( 'NONE', ( #871, #105 ) ) ;
#1268 = CARTESIAN_POINT ( 'NONE',  ( 0.000000000000000000, 0.000000000000000000, 7.000000000000000000 ) ) ;
#1269 = EDGE_CURVE ( 'NONE', #870, #335, #837, .T. ) ;
#1270 = ORIENTED_EDGE ( 'NONE', *, *, #22, .F. ) ;
#1271 = VECTOR ( 'NONE', #981, 1000.000000000000000 ) ;
ENDSEC;
END-ISO-10303-21;
