ISO-10303-21;
HEADER;
FILE_DESCRIPTION (( 'STEP AP214' ),
    '1' );
FILE_NAME ('roller ball.STEP',
    '2026-02-20T02:29:08',
    ( '' ),
    ( '' ),
    'SwSTEP 2.0',
    'SolidWorks 2023',
    '' );
FILE_SCHEMA (( 'AUTOMOTIVE_DESIGN' ));
ENDSEC;

DATA;
#1 = UNCERTAINTY_MEASURE_WITH_UNIT (LENGTH_MEASURE( 1.000000000000000082E-05 ), #47, 'distance_accuracy_value', 'NONE');
#2 = EDGE_LOOP ( 'NONE', ( #138, #163, #109, #185 ) ) ;
#3 = CARTESIAN_POINT ( 'NONE',  ( 2.375000000000000000, 2.908536147974963713E-16, 10.00000000000000000 ) ) ;
#4 = UNCERTAINTY_MEASURE_WITH_UNIT (LENGTH_MEASURE( 1.000000000000000082E-05 ), #104, 'distance_accuracy_value', 'NONE');
#5 = AXIS2_PLACEMENT_3D ( 'NONE', #150, #172, #86 ) ;
#6 = PLANE ( 'NONE',  #153 ) ;
#7 = DIRECTION ( 'NONE',  ( 0.000000000000000000, 0.000000000000000000, 1.000000000000000000 ) ) ;
#8 = CARTESIAN_POINT ( 'NONE',  ( 0.000000000000000000, 0.000000000000000000, 0.000000000000000000 ) ) ;
#9 = CARTESIAN_POINT ( 'NONE',  ( -2.549999999999999822, 0.000000000000000000, 0.000000000000000000 ) ) ;
#10 = SURFACE_SIDE_STYLE ('',( #154 ) ) ;
#11 = ORIENTED_EDGE ( 'NONE', *, *, #55, .F. ) ;
#12 = ADVANCED_BREP_SHAPE_REPRESENTATION ( 'roller ball', ( #75, #57 ), #173 ) ;
#13 = APPLICATION_CONTEXT ( 'automotive_design' ) ;
#14 = VECTOR ( 'NONE', #37, 1000.000000000000000 ) ;
#15 = DIRECTION ( 'NONE',  ( -0.000000000000000000, -0.000000000000000000, -1.000000000000000000 ) ) ;
#16 = ORIENTED_EDGE ( 'NONE', *, *, #145, .T. ) ;
#17 = DIRECTION ( 'NONE',  ( 1.000000000000000000, 0.000000000000000000, 0.000000000000000000 ) ) ;
#18 = PRODUCT_DEFINITION_SHAPE ( 'NONE', 'NONE',  #103 ) ;
#19 = CARTESIAN_POINT ( 'NONE',  ( -2.549999999999999822, 0.000000000000000000, 10.00000000000000000 ) ) ;
#20 = DIRECTION ( 'NONE',  ( -1.000000000000000000, 0.000000000000000000, 0.000000000000000000 ) ) ;
#21 = DIRECTION ( 'NONE',  ( -1.000000000000000000, 0.000000000000000000, 0.000000000000000000 ) ) ;
#22 = DIRECTION ( 'NONE',  ( 0.000000000000000000, 0.000000000000000000, 1.000000000000000000 ) ) ;
#23 = ADVANCED_FACE ( 'NONE', ( #159 ), #51, .F. ) ;
#24 = EDGE_LOOP ( 'NONE', ( #166, #180, #77, #164 ) ) ;
#25 = CIRCLE ( 'NONE', #198, 2.549999999999999822 ) ;
#26 = DIRECTION ( 'NONE',  ( 1.000000000000000000, 0.000000000000000000, -0.000000000000000000 ) ) ;
#27 = CARTESIAN_POINT ( 'NONE',  ( 2.375000000000000000, 2.908536147974963713E-16, 0.000000000000000000 ) ) ;
#28 = FILL_AREA_STYLE ('',( #70 ) ) ;
#29 = CIRCLE ( 'NONE', #186, 2.549999999999999822 ) ;
#30 = CARTESIAN_POINT ( 'NONE',  ( 0.000000000000000000, 0.000000000000000000, 0.000000000000000000 ) ) ;
#31 = LINE ( 'NONE', #19, #38 ) ;
#32 = CARTESIAN_POINT ( 'NONE',  ( 2.549999999999999822, 3.122849337825750419E-16, 0.000000000000000000 ) ) ;
#33 = EDGE_CURVE ( 'NONE', #119, #121, #162, .T. ) ;
#34 = CARTESIAN_POINT ( 'NONE',  ( 0.000000000000000000, 0.000000000000000000, 10.00000000000000000 ) ) ;
#35 = DIRECTION ( 'NONE',  ( -0.000000000000000000, -0.000000000000000000, -1.000000000000000000 ) ) ;
#36 = EDGE_CURVE ( 'NONE', #111, #130, #31, .T. ) ;
#37 = DIRECTION ( 'NONE',  ( -0.000000000000000000, -0.000000000000000000, -1.000000000000000000 ) ) ;
#38 = VECTOR ( 'NONE', #15, 1000.000000000000000 ) ;
#39 = VERTEX_POINT ( 'NONE', #3 ) ;
#40 = DIRECTION ( 'NONE',  ( -1.000000000000000000, 0.000000000000000000, 0.000000000000000000 ) ) ;
#41 = DIRECTION ( 'NONE',  ( 1.000000000000000000, 0.000000000000000000, 0.000000000000000000 ) ) ;
#42 = CIRCLE ( 'NONE', #143, 2.549999999999999822 ) ;
#43 = DIRECTION ( 'NONE',  ( 1.000000000000000000, 0.000000000000000000, 0.000000000000000000 ) ) ;
#44 = ADVANCED_FACE ( 'NONE', ( #188, #179 ), #6, .F. ) ;
#45 = ORIENTED_EDGE ( 'NONE', *, *, #88, .T. ) ;
#46 = AXIS2_PLACEMENT_3D ( 'NONE', #65, #22, #78 ) ;
#47 =( LENGTH_UNIT ( ) NAMED_UNIT ( * ) SI_UNIT ( .MILLI., .METRE. ) );
#48 = ORIENTED_EDGE ( 'NONE', *, *, #36, .F. ) ;
#49 = ORIENTED_EDGE ( 'NONE', *, *, #145, .F. ) ;
#50 = APPLICATION_PROTOCOL_DEFINITION ( 'draft international standard', 'automotive_design', 1998, #54 ) ;
#51 = CYLINDRICAL_SURFACE ( 'NONE', #192, 2.375000000000000000 ) ;
#52 = CARTESIAN_POINT ( 'NONE',  ( 0.000000000000000000, 0.000000000000000000, 10.00000000000000000 ) ) ;
#53 = AXIS2_PLACEMENT_3D ( 'NONE', #52, #35, #21 ) ;
#54 = APPLICATION_CONTEXT ( 'automotive_design' ) ;
#55 = EDGE_CURVE ( 'NONE', #39, #121, #170, .T. ) ;
#56 = CARTESIAN_POINT ( 'NONE',  ( 0.000000000000000000, 0.000000000000000000, 0.000000000000000000 ) ) ;
#57 = AXIS2_PLACEMENT_3D ( 'NONE', #30, #91, #17 ) ;
#58 = DIRECTION ( 'NONE',  ( 1.000000000000000000, 0.000000000000000000, 0.000000000000000000 ) ) ;
#59 = DIRECTION ( 'NONE',  ( 1.000000000000000000, 0.000000000000000000, 0.000000000000000000 ) ) ;
#60 = CARTESIAN_POINT ( 'NONE',  ( 0.000000000000000000, 0.000000000000000000, 10.00000000000000000 ) ) ;
#61 = EDGE_LOOP ( 'NONE', ( #148, #113 ) ) ;
#62 = SURFACE_STYLE_USAGE ( .BOTH. , #10 ) ;
#63 = VERTEX_POINT ( 'NONE', #193 ) ;
#64 = EDGE_CURVE ( 'NONE', #82, #130, #25, .T. ) ;
#65 = CARTESIAN_POINT ( 'NONE',  ( 0.000000000000000000, 0.000000000000000000, 0.000000000000000000 ) ) ;
#66 = AXIS2_PLACEMENT_3D ( 'NONE', #102, #171, #59 ) ;
#67 = PLANE ( 'NONE',  #98 ) ;
#68 = CARTESIAN_POINT ( 'NONE',  ( 0.000000000000000000, 0.000000000000000000, 10.00000000000000000 ) ) ;
#69 = DIRECTION ( 'NONE',  ( 1.000000000000000000, 0.000000000000000000, 0.000000000000000000 ) ) ;
#70 = FILL_AREA_STYLE_COLOUR ( '', #118 ) ;
#71 = CARTESIAN_POINT ( 'NONE',  ( -2.375000000000000000, 0.000000000000000000, 10.00000000000000000 ) ) ;
#72 = ADVANCED_FACE ( 'NONE', ( #165, #81 ), #67, .T. ) ;
#73 = EDGE_LOOP ( 'NONE', ( #106, #105 ) ) ;
#74 = EDGE_CURVE ( 'NONE', #39, #99, #167, .T. ) ;
#75 = MANIFOLD_SOLID_BREP ( 'Boss-Extrude1', #100 ) ;
#76 = CYLINDRICAL_SURFACE ( 'NONE', #53, 2.549999999999999822 ) ;
#77 = ORIENTED_EDGE ( 'NONE', *, *, #36, .T. ) ;
#78 = DIRECTION ( 'NONE',  ( 1.000000000000000000, 0.000000000000000000, 0.000000000000000000 ) ) ;
#79 = PRODUCT_DEFINITION_CONTEXT ( 'detailed design', #13, 'design' ) ;
#80 = STYLED_ITEM ( 'NONE', ( #116 ), #75 ) ;
#81 = FACE_BOUND ( 'NONE', #73, .T. ) ;
#82 = VERTEX_POINT ( 'NONE', #32 ) ;
#83 = PRODUCT_RELATED_PRODUCT_CATEGORY ( 'part', '', ( #139 ) ) ;
#84 = DIRECTION ( 'NONE',  ( 0.000000000000000000, 0.000000000000000000, 1.000000000000000000 ) ) ;
#85 = FACE_OUTER_BOUND ( 'NONE', #2, .T. ) ;
#86 = DIRECTION ( 'NONE',  ( -1.000000000000000000, 0.000000000000000000, 0.000000000000000000 ) ) ;
#87 = DIRECTION ( 'NONE',  ( 0.000000000000000000, 0.000000000000000000, 1.000000000000000000 ) ) ;
#88 = EDGE_CURVE ( 'NONE', #63, #82, #151, .T. ) ;
#89 = CIRCLE ( 'NONE', #187, 2.375000000000000000 ) ;
#90 = CARTESIAN_POINT ( 'NONE',  ( 2.549999999999999822, 3.122849337825750419E-16, 10.00000000000000000 ) ) ;
#91 = DIRECTION ( 'NONE',  ( 0.000000000000000000, 0.000000000000000000, 1.000000000000000000 ) ) ;
#92 = ADVANCED_FACE ( 'NONE', ( #158 ), #127, .T. ) ;
#93 = ORIENTED_EDGE ( 'NONE', *, *, #112, .F. ) ;
#94 = MECHANICAL_DESIGN_GEOMETRIC_PRESENTATION_REPRESENTATION (  '', ( #80 ), #183 ) ;
#95 = CARTESIAN_POINT ( 'NONE',  ( 0.000000000000000000, 0.000000000000000000, 10.00000000000000000 ) ) ;
#96 = DIRECTION ( 'NONE',  ( 0.000000000000000000, 0.000000000000000000, 1.000000000000000000 ) ) ;
#97 = ADVANCED_FACE ( 'NONE', ( #176 ), #76, .T. ) ;
#98 = AXIS2_PLACEMENT_3D ( 'NONE', #155, #114, #125 ) ;
#99 = VERTEX_POINT ( 'NONE', #142 ) ;
#100 = CLOSED_SHELL ( 'NONE', ( #146, #97, #72, #44, #92, #23 ) ) ;
#101 = DIRECTION ( 'NONE',  ( 0.000000000000000000, 0.000000000000000000, 1.000000000000000000 ) ) ;
#102 = CARTESIAN_POINT ( 'NONE',  ( 0.000000000000000000, 0.000000000000000000, 0.000000000000000000 ) ) ;
#103 = PRODUCT_DEFINITION ( 'UNKNOWN', '', #134, #79 ) ;
#104 =( LENGTH_UNIT ( ) NAMED_UNIT ( * ) SI_UNIT ( .MILLI., .METRE. ) );
#105 = ORIENTED_EDGE ( 'NONE', *, *, #74, .F. ) ;
#106 = ORIENTED_EDGE ( 'NONE', *, *, #120, .F. ) ;
#107 = ORIENTED_EDGE ( 'NONE', *, *, #168, .T. ) ;
#108 = DIRECTION ( 'NONE',  ( -0.000000000000000000, -0.000000000000000000, -1.000000000000000000 ) ) ;
#109 = ORIENTED_EDGE ( 'NONE', *, *, #33, .F. ) ;
#110 = AXIS2_PLACEMENT_3D ( 'NONE', #68, #101, #41 ) ;
#111 = VERTEX_POINT ( 'NONE', #144 ) ;
#112 = EDGE_CURVE ( 'NONE', #130, #82, #129, .T. ) ;
#113 = ORIENTED_EDGE ( 'NONE', *, *, #137, .T. ) ;
#114 = DIRECTION ( 'NONE',  ( 0.000000000000000000, 0.000000000000000000, 1.000000000000000000 ) ) ;
#115 = VECTOR ( 'NONE', #135, 1000.000000000000000 ) ;
#116 = PRESENTATION_STYLE_ASSIGNMENT (( #62 ) ) ;
#117 = DIRECTION ( 'NONE',  ( 1.000000000000000000, 0.000000000000000000, 0.000000000000000000 ) ) ;
#118 = COLOUR_RGB ( '',0.7921568627450980005, 0.8196078431372548767, 0.9333333333333333481 ) ;
#119 = VERTEX_POINT ( 'NONE', #132 ) ;
#120 = EDGE_CURVE ( 'NONE', #99, #39, #89, .T. ) ;
#121 = VERTEX_POINT ( 'NONE', #27 ) ;
#122 =( NAMED_UNIT ( * ) PLANE_ANGLE_UNIT ( ) SI_UNIT ( $, .RADIAN. ) );
#123 = PRESENTATION_LAYER_ASSIGNMENT (  '', '', ( #80 ) ) ;
#124 =( NAMED_UNIT ( * ) SI_UNIT ( $, .STERADIAN. ) SOLID_ANGLE_UNIT ( ) );
#125 = DIRECTION ( 'NONE',  ( 1.000000000000000000, 0.000000000000000000, -0.000000000000000000 ) ) ;
#126 = EDGE_LOOP ( 'NONE', ( #181, #16 ) ) ;
#127 = CYLINDRICAL_SURFACE ( 'NONE', #196, 2.549999999999999822 ) ;
#128 = CARTESIAN_POINT ( 'NONE',  ( 0.000000000000000000, 0.000000000000000000, 0.000000000000000000 ) ) ;
#129 = CIRCLE ( 'NONE', #177, 2.549999999999999822 ) ;
#130 = VERTEX_POINT ( 'NONE', #9 ) ;
#131 = ORIENTED_EDGE ( 'NONE', *, *, #74, .T. ) ;
#132 = CARTESIAN_POINT ( 'NONE',  ( -2.375000000000000000, 0.000000000000000000, 0.000000000000000000 ) ) ;
#133 = EDGE_CURVE ( 'NONE', #111, #63, #29, .T. ) ;
#134 = PRODUCT_DEFINITION_FORMATION_WITH_SPECIFIED_SOURCE ( 'ANY', '', #139, .NOT_KNOWN. ) ;
#135 = DIRECTION ( 'NONE',  ( -0.000000000000000000, -0.000000000000000000, -1.000000000000000000 ) ) ;
#136 = EDGE_LOOP ( 'NONE', ( #11, #131, #107, #49 ) ) ;
#137 = EDGE_CURVE ( 'NONE', #63, #111, #42, .T. ) ;
#138 = ORIENTED_EDGE ( 'NONE', *, *, #120, .T. ) ;
#139 = PRODUCT ( 'roller ball', 'roller ball', '', ( #197 ) ) ;
#140 = ORIENTED_EDGE ( 'NONE', *, *, #137, .F. ) ;
#141 = DIRECTION ( 'NONE',  ( -0.000000000000000000, -0.000000000000000000, -1.000000000000000000 ) ) ;
#142 = CARTESIAN_POINT ( 'NONE',  ( -2.375000000000000000, 0.000000000000000000, 10.00000000000000000 ) ) ;
#143 = AXIS2_PLACEMENT_3D ( 'NONE', #60, #194, #69 ) ;
#144 = CARTESIAN_POINT ( 'NONE',  ( -2.549999999999999822, 0.000000000000000000, 10.00000000000000000 ) ) ;
#145 = EDGE_CURVE ( 'NONE', #121, #119, #156, .T. ) ;
#146 = ADVANCED_FACE ( 'NONE', ( #85 ), #182, .F. ) ;
#147 = DIRECTION ( 'NONE',  ( 1.000000000000000000, 0.000000000000000000, 0.000000000000000000 ) ) ;
#148 = ORIENTED_EDGE ( 'NONE', *, *, #133, .T. ) ;
#149 = CARTESIAN_POINT ( 'NONE',  ( 2.375000000000000000, 2.908536147974963713E-16, 10.00000000000000000 ) ) ;
#150 = CARTESIAN_POINT ( 'NONE',  ( 0.000000000000000000, 0.000000000000000000, 10.00000000000000000 ) ) ;
#151 = LINE ( 'NONE', #90, #190 ) ;
#152 = LINE ( 'NONE', #71, #115 ) ;
#153 = AXIS2_PLACEMENT_3D ( 'NONE', #56, #195, #26 ) ;
#154 = SURFACE_STYLE_FILL_AREA ( #28 ) ;
#155 = CARTESIAN_POINT ( 'NONE',  ( 0.000000000000000000, 0.000000000000000000, 10.00000000000000000 ) ) ;
#156 = CIRCLE ( 'NONE', #66, 2.375000000000000000 ) ;
#157 = SHAPE_DEFINITION_REPRESENTATION ( #18, #12 ) ;
#158 = FACE_OUTER_BOUND ( 'NONE', #24, .T. ) ;
#159 = FACE_OUTER_BOUND ( 'NONE', #136, .T. ) ;
#160 = ORIENTED_EDGE ( 'NONE', *, *, #64, .F. ) ;
#161 = APPLICATION_PROTOCOL_DEFINITION ( 'draft international standard', 'automotive_design', 1998, #13 ) ;
#162 = CIRCLE ( 'NONE', #46, 2.375000000000000000 ) ;
#163 = ORIENTED_EDGE ( 'NONE', *, *, #55, .T. ) ;
#164 = ORIENTED_EDGE ( 'NONE', *, *, #112, .T. ) ;
#165 = FACE_OUTER_BOUND ( 'NONE', #61, .T. ) ;
#166 = ORIENTED_EDGE ( 'NONE', *, *, #88, .F. ) ;
#167 = CIRCLE ( 'NONE', #110, 2.375000000000000000 ) ;
#168 = EDGE_CURVE ( 'NONE', #99, #119, #152, .T. ) ;
#169 = ORIENTED_EDGE ( 'NONE', *, *, #64, .T. ) ;
#170 = LINE ( 'NONE', #149, #14 ) ;
#171 = DIRECTION ( 'NONE',  ( 0.000000000000000000, 0.000000000000000000, 1.000000000000000000 ) ) ;
#172 = DIRECTION ( 'NONE',  ( -0.000000000000000000, -0.000000000000000000, -1.000000000000000000 ) ) ;
#173 =( GEOMETRIC_REPRESENTATION_CONTEXT ( 3 ) GLOBAL_UNCERTAINTY_ASSIGNED_CONTEXT ( ( #4 ) ) GLOBAL_UNIT_ASSIGNED_CONTEXT ( ( #104, #122, #124 ) ) REPRESENTATION_CONTEXT ( 'NONE', 'WORKASPACE' ) );
#174 =( NAMED_UNIT ( * ) SI_UNIT ( $, .STERADIAN. ) SOLID_ANGLE_UNIT ( ) );
#175 = EDGE_LOOP ( 'NONE', ( #140, #45, #169, #48 ) ) ;
#176 = FACE_OUTER_BOUND ( 'NONE', #175, .T. ) ;
#177 = AXIS2_PLACEMENT_3D ( 'NONE', #128, #7, #58 ) ;
#178 = CARTESIAN_POINT ( 'NONE',  ( 0.000000000000000000, 0.000000000000000000, 10.00000000000000000 ) ) ;
#179 = FACE_BOUND ( 'NONE', #126, .T. ) ;
#180 = ORIENTED_EDGE ( 'NONE', *, *, #133, .F. ) ;
#181 = ORIENTED_EDGE ( 'NONE', *, *, #33, .T. ) ;
#182 = CYLINDRICAL_SURFACE ( 'NONE', #5, 2.375000000000000000 ) ;
#183 =( GEOMETRIC_REPRESENTATION_CONTEXT ( 3 ) GLOBAL_UNCERTAINTY_ASSIGNED_CONTEXT ( ( #1 ) ) GLOBAL_UNIT_ASSIGNED_CONTEXT ( ( #47, #199, #174 ) ) REPRESENTATION_CONTEXT ( 'NONE', 'WORKASPACE' ) );
#184 = CARTESIAN_POINT ( 'NONE',  ( 0.000000000000000000, 0.000000000000000000, 10.00000000000000000 ) ) ;
#185 = ORIENTED_EDGE ( 'NONE', *, *, #168, .F. ) ;
#186 = AXIS2_PLACEMENT_3D ( 'NONE', #184, #84, #43 ) ;
#187 = AXIS2_PLACEMENT_3D ( 'NONE', #178, #87, #117 ) ;
#188 = FACE_OUTER_BOUND ( 'NONE', #191, .T. ) ;
#189 = DIRECTION ( 'NONE',  ( -0.000000000000000000, -0.000000000000000000, -1.000000000000000000 ) ) ;
#190 = VECTOR ( 'NONE', #141, 1000.000000000000000 ) ;
#191 = EDGE_LOOP ( 'NONE', ( #93, #160 ) ) ;
#192 = AXIS2_PLACEMENT_3D ( 'NONE', #34, #108, #20 ) ;
#193 = CARTESIAN_POINT ( 'NONE',  ( 2.549999999999999822, 3.122849337825750419E-16, 10.00000000000000000 ) ) ;
#194 = DIRECTION ( 'NONE',  ( 0.000000000000000000, 0.000000000000000000, 1.000000000000000000 ) ) ;
#195 = DIRECTION ( 'NONE',  ( 0.000000000000000000, 0.000000000000000000, 1.000000000000000000 ) ) ;
#196 = AXIS2_PLACEMENT_3D ( 'NONE', #95, #189, #40 ) ;
#197 = PRODUCT_CONTEXT ( 'NONE', #54, 'mechanical' ) ;
#198 = AXIS2_PLACEMENT_3D ( 'NONE', #8, #96, #147 ) ;
#199 =( NAMED_UNIT ( * ) PLANE_ANGLE_UNIT ( ) SI_UNIT ( $, .RADIAN. ) );
ENDSEC;
END-ISO-10303-21;
