ISO-10303-21;
HEADER;
FILE_DESCRIPTION (( 'STEP AP214' ),
    '1' );
FILE_NAME ('top pivot.STEP',
    '2026-02-20T15:40:31',
    ( '' ),
    ( '' ),
    'SwSTEP 2.0',
    'SolidWorks 2023',
    '' );
FILE_SCHEMA (( 'AUTOMOTIVE_DESIGN' ));
ENDSEC;

DATA;
#1 = ORIENTED_EDGE ( 'NONE', *, *, #87, .F. ) ;
#2 = DIRECTION ( 'NONE',  ( -0.000000000000000000, -0.000000000000000000, 1.000000000000000000 ) ) ;
#3 = ORIENTED_EDGE ( 'NONE', *, *, #314, .F. ) ;
#4 = SURFACE_STYLE_FILL_AREA ( #417 ) ;
#5 = EDGE_LOOP ( 'NONE', ( #466, #511, #242, #228 ) ) ;
#6 = ADVANCED_FACE ( 'NONE', ( #384 ), #588, .F. ) ;
#7 = DIRECTION ( 'NONE',  ( -1.000000000000000000, 0.000000000000000000, 0.000000000000000000 ) ) ;
#8 = ORIENTED_EDGE ( 'NONE', *, *, #236, .T. ) ;
#9 = SHAPE_DEFINITION_REPRESENTATION ( #421, #352 ) ;
#10 = ORIENTED_EDGE ( 'NONE', *, *, #45, .T. ) ;
#11 = CIRCLE ( 'NONE', #148, 2.600000000000000089 ) ;
#12 =( NAMED_UNIT ( * ) PLANE_ANGLE_UNIT ( ) SI_UNIT ( $, .RADIAN. ) );
#13 = ORIENTED_EDGE ( 'NONE', *, *, #387, .T. ) ;
#14 = ORIENTED_EDGE ( 'NONE', *, *, #192, .F. ) ;
#15 = LINE ( 'NONE', #204, #426 ) ;
#16 = ADVANCED_FACE ( 'NONE', ( #505 ), #100, .T. ) ;
#17 = VERTEX_POINT ( 'NONE', #559 ) ;
#18 = AXIS2_PLACEMENT_3D ( 'NONE', #529, #443, #35 ) ;
#19 = AXIS2_PLACEMENT_3D ( 'NONE', #42, #582, #486 ) ;
#20 = CIRCLE ( 'NONE', #158, 10.00000000000000000 ) ;
#21 = CARTESIAN_POINT ( 'NONE',  ( -7.287321337783430042E-16, -13.11109890109890053, 9.000000000000001776 ) ) ;
#22 = AXIS2_PLACEMENT_3D ( 'NONE', #469, #246, #471 ) ;
#23 = CARTESIAN_POINT ( 'NONE',  ( 0.000000000000000000, 0.000000000000000000, 0.000000000000000000 ) ) ;
#24 = CARTESIAN_POINT ( 'NONE',  ( 0.000000000000000000, 0.000000000000000000, 11.00000000000000000 ) ) ;
#25 = EDGE_CURVE ( 'NONE', #556, #593, #43, .T. ) ;
#26 = FACE_BOUND ( 'NONE', #250, .T. ) ;
#27 = EDGE_LOOP ( 'NONE', ( #186, #378, #435, #93 ) ) ;
#28 = CYLINDRICAL_SURFACE ( 'NONE', #321, 2.000000000000000000 ) ;
#29 = DIRECTION ( 'NONE',  ( 5.551115123125780730E-16, 3.053113317719179993E-16, -1.000000000000000000 ) ) ;
#30 = CARTESIAN_POINT ( 'NONE',  ( 0.000000000000000000, 0.000000000000000000, 18.00000000000000000 ) ) ;
#31 = CARTESIAN_POINT ( 'NONE',  ( 0.000000000000000000, -1.209999999999999964, 9.000000000000000000 ) ) ;
#32 = CIRCLE ( 'NONE', #581, 2.000000000000000000 ) ;
#33 = CARTESIAN_POINT ( 'NONE',  ( -7.287321337783430042E-16, -13.11109890109890053, 11.00000000000000178 ) ) ;
#34 = ADVANCED_FACE ( 'NONE', ( #62 ), #239, .F. ) ;
#35 = DIRECTION ( 'NONE',  ( -1.000000000000000000, 0.000000000000000000, 0.000000000000000000 ) ) ;
#36 = VERTEX_POINT ( 'NONE', #111 ) ;
#37 = DIRECTION ( 'NONE',  ( 0.7071067811865482389, 0.000000000000000000, 0.7071067811865469066 ) ) ;
#38 = CYLINDRICAL_SURFACE ( 'NONE', #383, 11.50000000000000000 ) ;
#39 = ORIENTED_EDGE ( 'NONE', *, *, #236, .F. ) ;
#40 = ADVANCED_FACE ( 'NONE', ( #75, #477, #568, #348 ), #205, .F. ) ;
#41 = DIRECTION ( 'NONE',  ( 1.000000000000000000, 0.000000000000000000, 0.000000000000000000 ) ) ;
#42 = CARTESIAN_POINT ( 'NONE',  ( 0.000000000000000000, 0.000000000000000000, 18.00000000000000000 ) ) ;
#43 = CIRCLE ( 'NONE', #325, 3.000000000000002665 ) ;
#44 = EDGE_LOOP ( 'NONE', ( #53, #574, #328, #146 ) ) ;
#45 = EDGE_CURVE ( 'NONE', #330, #232, #407, .T. ) ;
#46 = DIRECTION ( 'NONE',  ( 5.551115123125780730E-16, 3.053113317719179993E-16, -1.000000000000000000 ) ) ;
#47 = ORIENTED_EDGE ( 'NONE', *, *, #425, .T. ) ;
#48 = ORIENTED_EDGE ( 'NONE', *, *, #467, .T. ) ;
#49 = CARTESIAN_POINT ( 'NONE',  ( 2.999999999999997335, -1.209999999999999520, 18.00000000000000000 ) ) ;
#50 = AXIS2_PLACEMENT_3D ( 'NONE', #264, #587, #302 ) ;
#51 = CIRCLE ( 'NONE', #475, 2.000000000000000000 ) ;
#52 = VERTEX_POINT ( 'NONE', #484 ) ;
#53 = ORIENTED_EDGE ( 'NONE', *, *, #207, .F. ) ;
#54 = ORIENTED_EDGE ( 'NONE', *, *, #479, .F. ) ;
#55 = CARTESIAN_POINT ( 'NONE',  ( 6.000000000000000000, -1.209999999999999964, 16.99999999999999645 ) ) ;
#56 = ORIENTED_EDGE ( 'NONE', *, *, #70, .F. ) ;
#57 = EDGE_CURVE ( 'NONE', #232, #359, #298, .T. ) ;
#58 = EDGE_LOOP ( 'NONE', ( #169, #315, #185, #427 ) ) ;
#59 = CARTESIAN_POINT ( 'NONE',  ( 0.000000000000000000, -1.209999999999999964, 9.000000000000000000 ) ) ;
#60 = EDGE_LOOP ( 'NONE', ( #252, #203, #492, #39 ) ) ;
#61 = EDGE_CURVE ( 'NONE', #410, #556, #210, .T. ) ;
#62 = FACE_OUTER_BOUND ( 'NONE', #5, .T. ) ;
#63 = ADVANCED_FACE ( 'NONE', ( #288 ), #72, .F. ) ;
#64 = DIRECTION ( 'NONE',  ( 5.551115123125780730E-16, 3.053113317719179993E-16, -1.000000000000000000 ) ) ;
#65 = ORIENTED_EDGE ( 'NONE', *, *, #196, .F. ) ;
#66 =( LENGTH_UNIT ( ) NAMED_UNIT ( * ) SI_UNIT ( .MILLI., .METRE. ) );
#67 = DIRECTION ( 'NONE',  ( 1.000000000000000000, 0.000000000000000000, 0.000000000000000000 ) ) ;
#68 = CIRCLE ( 'NONE', #50, 3.000000000000002665 ) ;
#69 =( NAMED_UNIT ( * ) PLANE_ANGLE_UNIT ( ) SI_UNIT ( $, .RADIAN. ) );
#70 = EDGE_CURVE ( 'NONE', #410, #238, #521, .T. ) ;
#71 = DIRECTION ( 'NONE',  ( -5.551115123125780730E-16, 9.244463733058759464E-32, 1.000000000000000000 ) ) ;
#72 = PLANE ( 'NONE',  #454 ) ;
#73 = ORIENTED_EDGE ( 'NONE', *, *, #361, .F. ) ;
#74 = DIRECTION ( 'NONE',  ( 0.000000000000000000, 0.000000000000000000, 1.000000000000000000 ) ) ;
#75 = FACE_BOUND ( 'NONE', #225, .T. ) ;
#76 = AXIS2_PLACEMENT_3D ( 'NONE', #258, #82, #41 ) ;
#77 = CARTESIAN_POINT ( 'NONE',  ( 2.099999999999839773, 1.532970971675330141, 9.000000000000000000 ) ) ;
#78 = CARTESIAN_POINT ( 'NONE',  ( 0.000000000000000000, 0.000000000000000000, 11.00000000000000000 ) ) ;
#79 = EDGE_CURVE ( 'NONE', #135, #508, #416, .T. ) ;
#80 = CARTESIAN_POINT ( 'NONE',  ( 4.000000000000000000, -1.209999999999999742, 9.000000000000000000 ) ) ;
#81 = FACE_OUTER_BOUND ( 'NONE', #294, .T. ) ;
#82 = DIRECTION ( 'NONE',  ( 0.000000000000000000, 0.000000000000000000, 1.000000000000000000 ) ) ;
#83 = CARTESIAN_POINT ( 'NONE',  ( -6.000000000000000000, -1.209999999999999964, 17.00000000000000000 ) ) ;
#84 = ORIENTED_EDGE ( 'NONE', *, *, #207, .T. ) ;
#85 = CARTESIAN_POINT ( 'NONE',  ( 2.099999999999830003, 0.000000000000000000, 18.00000000000000000 ) ) ;
#86 = DIRECTION ( 'NONE',  ( -1.000000000000000000, 0.000000000000000000, 0.000000000000000000 ) ) ;
#87 = EDGE_CURVE ( 'NONE', #359, #92, #11, .T. ) ;
#88 = ORIENTED_EDGE ( 'NONE', *, *, #99, .F. ) ;
#89 = DIRECTION ( 'NONE',  ( 0.000000000000000000, 0.000000000000000000, -1.000000000000000000 ) ) ;
#90 = VERTEX_POINT ( 'NONE', #156 ) ;
#91 = LINE ( 'NONE', #322, #513 ) ;
#92 = VERTEX_POINT ( 'NONE', #433 ) ;
#93 = ORIENTED_EDGE ( 'NONE', *, *, #518, .F. ) ;
#94 = DIRECTION ( 'NONE',  ( -0.000000000000000000, -0.000000000000000000, -1.000000000000000000 ) ) ;
#95 = CIRCLE ( 'NONE', #320, 11.50000000000000000 ) ;
#96 = VERTEX_POINT ( 'NONE', #162 ) ;
#97 = PRODUCT ( 'top pivot', 'top pivot', '', ( #200 ) ) ;
#98 = CARTESIAN_POINT ( 'NONE',  ( 2.099999999999830003, 1.532970971675324146, 18.00000000000000000 ) ) ;
#99 = EDGE_CURVE ( 'NONE', #96, #36, #95, .T. ) ;
#100 = CYLINDRICAL_SURFACE ( 'NONE', #194, 10.00000000000000000 ) ;
#101 = DIRECTION ( 'NONE',  ( 1.000000000000000000, 0.000000000000000000, 0.000000000000000000 ) ) ;
#102 = ORIENTED_EDGE ( 'NONE', *, *, #171, .T. ) ;
#103 = CARTESIAN_POINT ( 'NONE',  ( -6.000000000000000000, -1.209999999999999964, 18.00000000000000000 ) ) ;
#104 = ADVANCED_FACE ( 'NONE', ( #26, #573 ), #213, .T. ) ;
#105 = ORIENTED_EDGE ( 'NONE', *, *, #371, .F. ) ;
#106 = ORIENTED_EDGE ( 'NONE', *, *, #70, .T. ) ;
#107 = CARTESIAN_POINT ( 'NONE',  ( -4.000000000000000000, -1.209999999999999964, 17.00000000000000000 ) ) ;
#108 = ADVANCED_FACE ( 'NONE', ( #257 ), #344, .F. ) ;
#109 = CARTESIAN_POINT ( 'NONE',  ( -1.548761119352099685E-13, -2.814692923180930139E-13, 9.000000000000000000 ) ) ;
#110 = ORIENTED_EDGE ( 'NONE', *, *, #584, .F. ) ;
#111 = CARTESIAN_POINT ( 'NONE',  ( -11.02423226827930236, 3.273576468486570246, 11.00000000000000000 ) ) ;
#112 = VECTOR ( 'NONE', #296, 1000.000000000000000 ) ;
#113 = FACE_OUTER_BOUND ( 'NONE', #27, .T. ) ;
#114 = CARTESIAN_POINT ( 'NONE',  ( 0.000000000000000000, 0.000000000000000000, 9.000000000000000000 ) ) ;
#115 = ADVANCED_FACE ( 'NONE', ( #519 ), #481, .F. ) ;
#116 = CARTESIAN_POINT ( 'NONE',  ( -8.000000000000000000, -1.209999999999999742, 9.000000000000000000 ) ) ;
#117 = DIRECTION ( 'NONE',  ( 0.000000000000000000, 0.000000000000000000, 1.000000000000000000 ) ) ;
#118 = CIRCLE ( 'NONE', #460, 2.000000000000000000 ) ;
#119 = VECTOR ( 'NONE', #524, 1000.000000000000000 ) ;
#120 = FACE_OUTER_BOUND ( 'NONE', #392, .T. ) ;
#121 = DIRECTION ( 'NONE',  ( 0.000000000000000000, 0.000000000000000000, 1.000000000000000000 ) ) ;
#122 = LINE ( 'NONE', #357, #332 ) ;
#123 = ORIENTED_EDGE ( 'NONE', *, *, #143, .T. ) ;
#124 = CARTESIAN_POINT ( 'NONE',  ( -8.000000000000000000, -1.209999999999999742, 17.00000000000000000 ) ) ;
#125 = EDGE_LOOP ( 'NONE', ( #327, #545 ) ) ;
#126 = FACE_BOUND ( 'NONE', #541, .T. ) ;
#127 = EDGE_CURVE ( 'NONE', #311, #359, #217, .T. ) ;
#128 = CARTESIAN_POINT ( 'NONE',  ( -2.600000000000160405, -2.824102063314627734E-13, 18.00000000000000000 ) ) ;
#129 = ORIENTED_EDGE ( 'NONE', *, *, #595, .F. ) ;
#130 = CARTESIAN_POINT ( 'NONE',  ( 0.000000000000000000, -1.209999999999999964, 9.000000000000000000 ) ) ;
#131 = ORIENTED_EDGE ( 'NONE', *, *, #544, .T. ) ;
#132 = DIRECTION ( 'NONE',  ( -1.000000000000000000, 0.000000000000000000, 0.000000000000000000 ) ) ;
#133 = ORIENTED_EDGE ( 'NONE', *, *, #595, .T. ) ;
#134 = VECTOR ( 'NONE', #337, 1000.000000000000000 ) ;
#135 = VERTEX_POINT ( 'NONE', #21 ) ;
#136 = CARTESIAN_POINT ( 'NONE',  ( 6.000000000000000000, -1.209999999999999964, 18.00000000000000000 ) ) ;
#137 = VECTOR ( 'NONE', #168, 999.9999999999998863 ) ;
#138 = AXIS2_PLACEMENT_3D ( 'NONE', #523, #346, #165 ) ;
#139 = DIRECTION ( 'NONE',  ( 0.000000000000000000, 0.000000000000000000, 1.000000000000000000 ) ) ;
#140 = STYLED_ITEM ( 'NONE', ( #548 ), #542 ) ;
#141 = FACE_OUTER_BOUND ( 'NONE', #284, .T. ) ;
#142 = VERTEX_POINT ( 'NONE', #386 ) ;
#143 = EDGE_CURVE ( 'NONE', #52, #36, #151, .T. ) ;
#144 = ORIENTED_EDGE ( 'NONE', *, *, #79, .F. ) ;
#145 = LINE ( 'NONE', #331, #401 ) ;
#146 = ORIENTED_EDGE ( 'NONE', *, *, #171, .F. ) ;
#147 = VERTEX_POINT ( 'NONE', #259 ) ;
#148 = AXIS2_PLACEMENT_3D ( 'NONE', #291, #71, #249 ) ;
#149 = AXIS2_PLACEMENT_3D ( 'NONE', #594, #273, #187 ) ;
#150 = FACE_OUTER_BOUND ( 'NONE', #470, .T. ) ;
#151 = LINE ( 'NONE', #339, #430 ) ;
#152 = APPLICATION_PROTOCOL_DEFINITION ( 'draft international standard', 'automotive_design', 1998, #369 ) ;
#153 = CARTESIAN_POINT ( 'NONE',  ( -6.000000000000000000, -1.209999999999999964, 17.00000000000000000 ) ) ;
#154 = LINE ( 'NONE', #526, #119 ) ;
#155 = EDGE_CURVE ( 'NONE', #223, #147, #580, .T. ) ;
#156 = CARTESIAN_POINT ( 'NONE',  ( 10.00000000000000000, -1.224646799147353256E-15, 18.00000000000000000 ) ) ;
#157 = ORIENTED_EDGE ( 'NONE', *, *, #57, .T. ) ;
#158 = AXIS2_PLACEMENT_3D ( 'NONE', #30, #212, #397 ) ;
#159 = CIRCLE ( 'NONE', #211, 2.600000000000000089 ) ;
#160 = DIRECTION ( 'NONE',  ( -6.123233995736769734E-17, -1.000000000000000000, 0.000000000000000000 ) ) ;
#161 = ADVANCED_FACE ( 'NONE', ( #81 ), #38, .T. ) ;
#162 = CARTESIAN_POINT ( 'NONE',  ( 11.02423226827930236, 3.273576468486570246, 11.00000000000000000 ) ) ;
#163 = PRODUCT_DEFINITION_FORMATION_WITH_SPECIFIED_SOURCE ( 'ANY', '', #97, .NOT_KNOWN. ) ;
#164 = FACE_OUTER_BOUND ( 'NONE', #498, .T. ) ;
#165 = DIRECTION ( 'NONE',  ( 1.000000000000000000, 0.000000000000000000, 0.000000000000000000 ) ) ;
#166 = VECTOR ( 'NONE', #173, 1000.000000000000000 ) ;
#167 = LINE ( 'NONE', #445, #218 ) ;
#168 = DIRECTION ( 'NONE',  ( -0.7071067811865482389, 8.659560562354941486E-17, 0.7071067811865469066 ) ) ;
#169 = ORIENTED_EDGE ( 'NONE', *, *, #540, .T. ) ;
#170 = CIRCLE ( 'NONE', #247, 11.90109890109890145 ) ;
#171 = EDGE_CURVE ( 'NONE', #457, #142, #68, .T. ) ;
#172 = UNCERTAINTY_MEASURE_WITH_UNIT (LENGTH_MEASURE( 1.000000000000000082E-05 ), #499, 'distance_accuracy_value', 'NONE');
#173 = DIRECTION ( 'NONE',  ( -0.000000000000000000, -1.000000000000000000, -0.000000000000000000 ) ) ;
#174 = DIRECTION ( 'NONE',  ( -0.000000000000000000, -0.000000000000000000, -1.000000000000000000 ) ) ;
#175 = EDGE_LOOP ( 'NONE', ( #178, #500, #456 ) ) ;
#176 = VECTOR ( 'NONE', #2, 1000.000000000000000 ) ;
#177 = CARTESIAN_POINT ( 'NONE',  ( 6.000000000000000000, -1.209999999999999964, 16.99999999999999645 ) ) ;
#178 = ORIENTED_EDGE ( 'NONE', *, *, #127, .T. ) ;
#179 = CIRCLE ( 'NONE', #18, 11.90109890109890145 ) ;
#180 = CARTESIAN_POINT ( 'NONE',  ( -1.598721155460229962E-13, -2.842170943040400239E-13, 17.99999999999959854 ) ) ;
#181 = ORIENTED_EDGE ( 'NONE', *, *, #419, .F. ) ;
#182 = DIRECTION ( 'NONE',  ( 0.000000000000000000, 0.000000000000000000, 1.000000000000000000 ) ) ;
#183 = AXIS2_PLACEMENT_3D ( 'NONE', #381, #561, #431 ) ;
#184 = EDGE_CURVE ( 'NONE', #420, #313, #118, .T. ) ;
#185 = ORIENTED_EDGE ( 'NONE', *, *, #467, .F. ) ;
#186 = ORIENTED_EDGE ( 'NONE', *, *, #295, .F. ) ;
#187 = DIRECTION ( 'NONE',  ( 1.000000000000000000, 0.000000000000000000, 0.000000000000000000 ) ) ;
#188 = EDGE_LOOP ( 'NONE', ( #105, #110, #412, #336 ) ) ;
#189 = DIRECTION ( 'NONE',  ( 0.000000000000000000, 0.000000000000000000, -1.000000000000000000 ) ) ;
#190 = AXIS2_PLACEMENT_3D ( 'NONE', #483, #74, #160 ) ;
#191 = ORIENTED_EDGE ( 'NONE', *, *, #387, .F. ) ;
#192 = EDGE_CURVE ( 'NONE', #593, #556, #198, .T. ) ;
#193 = DIRECTION ( 'NONE',  ( -1.000000000000000000, 0.000000000000000000, 0.000000000000000000 ) ) ;
#194 = AXIS2_PLACEMENT_3D ( 'NONE', #278, #424, #193 ) ;
#195 = ORIENTED_EDGE ( 'NONE', *, *, #25, .F. ) ;
#196 = EDGE_CURVE ( 'NONE', #365, #90, #271, .T. ) ;
#197 = EDGE_LOOP ( 'NONE', ( #307, #221, #551, #268 ) ) ;
#198 = CIRCLE ( 'NONE', #527, 3.000000000000002665 ) ;
#199 = CONICAL_SURFACE ( 'NONE', #22, 2.000000000000000000, 0.7853981633974507215 ) ;
#200 = PRODUCT_CONTEXT ( 'NONE', #369, 'mechanical' ) ;
#201 = DIRECTION ( 'NONE',  ( -5.551115123125780730E-16, 9.244463733058759464E-32, 1.000000000000000000 ) ) ;
#202 = ADVANCED_FACE ( 'NONE', ( #310 ), #552, .F. ) ;
#203 = ORIENTED_EDGE ( 'NONE', *, *, #79, .T. ) ;
#204 = CARTESIAN_POINT ( 'NONE',  ( -10.00000000000000000, 0.000000000000000000, 11.00000000000000000 ) ) ;
#205 = PLANE ( 'NONE',  #334 ) ;
#206 = CIRCLE ( 'NONE', #234, 2.000000000000000000 ) ;
#207 = EDGE_CURVE ( 'NONE', #362, #457, #354, .T. ) ;
#208 = DIRECTION ( 'NONE',  ( 0.000000000000000000, 1.224646799147350002E-16, 1.000000000000000000 ) ) ;
#209 = DIRECTION ( 'NONE',  ( 1.000000000000000000, 0.000000000000000000, 0.000000000000000000 ) ) ;
#210 = LINE ( 'NONE', #107, #112 ) ;
#211 = AXIS2_PLACEMENT_3D ( 'NONE', #224, #558, #237 ) ;
#212 = DIRECTION ( 'NONE',  ( 0.000000000000000000, 0.000000000000000000, 1.000000000000000000 ) ) ;
#213 = PLANE ( 'NONE',  #501 ) ;
#214 = CARTESIAN_POINT ( 'NONE',  ( 2.099999999999830003, -1.532970971675893690, 18.00000000000000000 ) ) ;
#215 = DIRECTION ( 'NONE',  ( 0.000000000000000000, 0.000000000000000000, -1.000000000000000000 ) ) ;
#216 = ORIENTED_EDGE ( 'NONE', *, *, #350, .T. ) ;
#217 = CIRCLE ( 'NONE', #245, 2.600000000000000089 ) ;
#218 = VECTOR ( 'NONE', #37, 999.9999999999998863 ) ;
#219 = CARTESIAN_POINT ( 'NONE',  ( -10.00000000000000000, 0.000000000000000000, 18.00000000000000000 ) ) ;
#220 = DIRECTION ( 'NONE',  ( 1.000000000000000000, 0.000000000000000000, 0.000000000000000000 ) ) ;
#221 = ORIENTED_EDGE ( 'NONE', *, *, #184, .F. ) ;
#222 = CARTESIAN_POINT ( 'NONE',  ( -7.287321337783430042E-16, -13.11109890109890053, 9.000000000000000000 ) ) ;
#223 = VERTEX_POINT ( 'NONE', #491 ) ;
#224 = CARTESIAN_POINT ( 'NONE',  ( -1.598721155460232234E-13, -2.842170943040401248E-13, 18.00000000000000000 ) ) ;
#225 = EDGE_LOOP ( 'NONE', ( #270, #216 ) ) ;
#226 = CARTESIAN_POINT ( 'NONE',  ( -1.598721155460229962E-13, -2.842170943040400239E-13, 17.99999999999959854 ) ) ;
#227 = EDGE_LOOP ( 'NONE', ( #415, #342, #374, #106 ) ) ;
#228 = ORIENTED_EDGE ( 'NONE', *, *, #276, .F. ) ;
#229 = DIRECTION ( 'NONE',  ( 5.551115123125780730E-16, 3.053113317719179993E-16, -1.000000000000000000 ) ) ;
#230 = AXIS2_PLACEMENT_3D ( 'NONE', #281, #139, #323 ) ;
#231 = AXIS2_PLACEMENT_3D ( 'NONE', #465, #312, #7 ) ;
#232 = VERTEX_POINT ( 'NONE', #128 ) ;
#233 = CARTESIAN_POINT ( 'NONE',  ( 11.02423226827930236, 3.273576468486570246, 9.000000000000000000 ) ) ;
#234 = AXIS2_PLACEMENT_3D ( 'NONE', #177, #503, #101 ) ;
#235 = ORIENTED_EDGE ( 'NONE', *, *, #196, .T. ) ;
#236 = EDGE_CURVE ( 'NONE', #289, #96, #179, .T. ) ;
#237 = DIRECTION ( 'NONE',  ( -1.000000000000000000, 0.000000000000000000, 0.000000000000000000 ) ) ;
#238 = VERTEX_POINT ( 'NONE', #124 ) ;
#239 = CYLINDRICAL_SURFACE ( 'NONE', #183, 2.000000000000000000 ) ;
#240 = FACE_OUTER_BOUND ( 'NONE', #60, .T. ) ;
#241 = ADVANCED_FACE ( 'NONE', ( #579, #353, #126, #120 ), #439, .T. ) ;
#242 = ORIENTED_EDGE ( 'NONE', *, *, #564, .T. ) ;
#243 = CARTESIAN_POINT ( 'NONE',  ( 10.00000000000000000, -1.224646799147353256E-15, 11.00000000000000000 ) ) ;
#244 = DIRECTION ( 'NONE',  ( -1.000000000000000000, 1.665334536937646064E-16, -6.672013369141565217E-16 ) ) ;
#245 = AXIS2_PLACEMENT_3D ( 'NONE', #109, #201, #244 ) ;
#246 = DIRECTION ( 'NONE',  ( 0.000000000000000000, 0.000000000000000000, 1.000000000000000000 ) ) ;
#247 = AXIS2_PLACEMENT_3D ( 'NONE', #267, #360, #132 ) ;
#248 = DIRECTION ( 'NONE',  ( 1.000000000000000000, 0.000000000000000000, 0.000000000000000000 ) ) ;
#249 = DIRECTION ( 'NONE',  ( -1.000000000000000000, 1.665334536937646064E-16, -6.672013369141565217E-16 ) ) ;
#250 = EDGE_LOOP ( 'NONE', ( #533, #497 ) ) ;
#251 = EDGE_CURVE ( 'NONE', #489, #330, #450, .T. ) ;
#252 = ORIENTED_EDGE ( 'NONE', *, *, #447, .F. ) ;
#253 = DIRECTION ( 'NONE',  ( 0.000000000000000000, 0.000000000000000000, 1.000000000000000000 ) ) ;
#254 = DIRECTION ( 'NONE',  ( 1.000000000000000000, -1.665334536937739741E-16, 5.551115123125780730E-16 ) ) ;
#255 = AXIS2_PLACEMENT_3D ( 'NONE', #83, #532, #405 ) ;
#256 = CARTESIAN_POINT ( 'NONE',  ( 4.000000000000000000, -1.209999999999999742, 16.99999999999999645 ) ) ;
#257 = FACE_OUTER_BOUND ( 'NONE', #227, .T. ) ;
#258 = CARTESIAN_POINT ( 'NONE',  ( 6.000000000000000000, -1.209999999999999964, 9.000000000000000000 ) ) ;
#259 = CARTESIAN_POINT ( 'NONE',  ( -10.00000000000000000, 0.000000000000000000, 11.00000000000000000 ) ) ;
#260 = DIRECTION ( 'NONE',  ( 1.000000000000000000, 0.000000000000000000, 0.000000000000000000 ) ) ;
#261 = CARTESIAN_POINT ( 'NONE',  ( -6.000000000000000000, -1.209999999999999964, 18.00000000000000000 ) ) ;
#262 = EDGE_LOOP ( 'NONE', ( #13, #102 ) ) ;
#263 = CARTESIAN_POINT ( 'NONE',  ( 6.000000000000000000, -1.209999999999999964, 9.000000000000000000 ) ) ;
#264 = CARTESIAN_POINT ( 'NONE',  ( 6.000000000000000000, -1.209999999999999964, 18.00000000000000000 ) ) ;
#265 = ORIENTED_EDGE ( 'NONE', *, *, #376, .F. ) ;
#266 = AXIS2_PLACEMENT_3D ( 'NONE', #31, #208, #576 ) ;
#267 = CARTESIAN_POINT ( 'NONE',  ( 0.000000000000000000, -1.209999999999999964, 11.00000000000000000 ) ) ;
#268 = ORIENTED_EDGE ( 'NONE', *, *, #530, .T. ) ;
#269 = LINE ( 'NONE', #233, #277 ) ;
#270 = ORIENTED_EDGE ( 'NONE', *, *, #356, .T. ) ;
#271 = CIRCLE ( 'NONE', #19, 10.00000000000000000 ) ;
#272 = VECTOR ( 'NONE', #299, 1000.000000000000000 ) ;
#273 = DIRECTION ( 'NONE',  ( 0.000000000000000000, 0.000000000000000000, 1.000000000000000000 ) ) ;
#274 = ORIENTED_EDGE ( 'NONE', *, *, #515, .F. ) ;
#275 = DIRECTION ( 'NONE',  ( 0.000000000000000000, 1.224646799147350002E-16, 1.000000000000000000 ) ) ;
#276 = EDGE_CURVE ( 'NONE', #535, #410, #122, .T. ) ;
#277 = VECTOR ( 'NONE', #89, 1000.000000000000000 ) ;
#278 = CARTESIAN_POINT ( 'NONE',  ( 0.000000000000000000, 0.000000000000000000, 11.00000000000000000 ) ) ;
#279 = CIRCLE ( 'NONE', #285, 2.000000000000000000 ) ;
#280 = CARTESIAN_POINT ( 'NONE',  ( 8.000000000000000000, -1.209999999999999964, 9.000000000000000000 ) ) ;
#281 = CARTESIAN_POINT ( 'NONE',  ( 6.000000000000000000, -1.209999999999999964, 16.99999999999999645 ) ) ;
#282 = DIRECTION ( 'NONE',  ( -0.000000000000000000, -0.000000000000000000, -1.000000000000000000 ) ) ;
#283 = CARTESIAN_POINT ( 'NONE',  ( -2.999999999999997780, -1.209999999999999964, 18.00000000000000000 ) ) ;
#284 = EDGE_LOOP ( 'NONE', ( #563, #157, #367, #265 ) ) ;
#285 = AXIS2_PLACEMENT_3D ( 'NONE', #55, #182, #414 ) ;
#286 = ADVANCED_FACE ( 'NONE', ( #164 ), #577, .T. ) ;
#287 = AXIS2_PLACEMENT_3D ( 'NONE', #59, #382, #375 ) ;
#288 = FACE_OUTER_BOUND ( 'NONE', #188, .T. ) ;
#289 = VERTEX_POINT ( 'NONE', #33 ) ;
#290 =( NAMED_UNIT ( * ) SI_UNIT ( $, .STERADIAN. ) SOLID_ANGLE_UNIT ( ) );
#291 = CARTESIAN_POINT ( 'NONE',  ( -1.548761119352099685E-13, -2.814692923180930139E-13, 9.000000000000000000 ) ) ;
#292 = CIRCLE ( 'NONE', #502, 2.000000000000000000 ) ;
#293 = DIRECTION ( 'NONE',  ( 0.000000000000000000, 0.000000000000000000, 1.000000000000000000 ) ) ;
#294 = EDGE_LOOP ( 'NONE', ( #123, #88, #47, #181 ) ) ;
#295 = EDGE_CURVE ( 'NONE', #313, #420, #372, .T. ) ;
#296 = DIRECTION ( 'NONE',  ( 0.7071067811865492381, 0.000000000000000000, 0.7071067811865457964 ) ) ;
#297 = CARTESIAN_POINT ( 'NONE',  ( -8.000000000000000000, -1.209999999999999742, 9.000000000000000000 ) ) ;
#298 = LINE ( 'NONE', #478, #377 ) ;
#299 = DIRECTION ( 'NONE',  ( -0.000000000000000000, -0.000000000000000000, 1.000000000000000000 ) ) ;
#300 = DIRECTION ( 'NONE',  ( 0.000000000000000000, 0.000000000000000000, 1.000000000000000000 ) ) ;
#301 = LINE ( 'NONE', #343, #528 ) ;
#302 = DIRECTION ( 'NONE',  ( 1.000000000000000000, 0.000000000000000000, 0.000000000000000000 ) ) ;
#303 = CLOSED_SHELL ( 'NONE', ( #202, #408, #34, #340, #507, #304, #286, #241, #16, #40, #161, #104, #591, #462, #63, #115, #108, #6, #571 ) ) ;
#304 = ADVANCED_FACE ( 'NONE', ( #305 ), #490, .T. ) ;
#305 = FACE_OUTER_BOUND ( 'NONE', #58, .T. ) ;
#306 = DIRECTION ( 'NONE',  ( -1.000000000000000000, 0.000000000000000000, 0.000000000000000000 ) ) ;
#307 = ORIENTED_EDGE ( 'NONE', *, *, #522, .F. ) ;
#308 = PRODUCT_DEFINITION_CONTEXT ( 'detailed design', #326, 'design' ) ;
#309 = DIRECTION ( 'NONE',  ( 0.000000000000000000, 0.000000000000000000, 1.000000000000000000 ) ) ;
#310 = FACE_OUTER_BOUND ( 'NONE', #436, .T. ) ;
#311 = VERTEX_POINT ( 'NONE', #77 ) ;
#312 = DIRECTION ( 'NONE',  ( 0.000000000000000000, 0.000000000000000000, -1.000000000000000000 ) ) ;
#313 = VERTEX_POINT ( 'NONE', #80 ) ;
#314 = EDGE_CURVE ( 'NONE', #238, #593, #404, .T. ) ;
#315 = ORIENTED_EDGE ( 'NONE', *, *, #447, .T. ) ;
#316 = DIRECTION ( 'NONE',  ( -1.000000000000000000, 1.665334536937646064E-16, 0.000000000000000000 ) ) ;
#317 = ORIENTED_EDGE ( 'NONE', *, *, #61, .T. ) ;
#318 = FILL_AREA_STYLE_COLOUR ( '', #403 ) ;
#319 = EDGE_LOOP ( 'NONE', ( #129, #54, #131, #406 ) ) ;
#320 = AXIS2_PLACEMENT_3D ( 'NONE', #78, #578, #570 ) ;
#321 = AXIS2_PLACEMENT_3D ( 'NONE', #263, #345, #534 ) ;
#322 = CARTESIAN_POINT ( 'NONE',  ( 8.000000000000000000, -1.209999999999999964, 9.000000000000000000 ) ) ;
#323 = DIRECTION ( 'NONE',  ( 1.000000000000000000, 0.000000000000000000, 0.000000000000000000 ) ) ;
#324 = CARTESIAN_POINT ( 'NONE',  ( 4.000000000000000000, -1.209999999999999742, 9.000000000000000000 ) ) ;
#325 = AXIS2_PLACEMENT_3D ( 'NONE', #103, #282, #468 ) ;
#326 = APPLICATION_CONTEXT ( 'automotive_design' ) ;
#327 = ORIENTED_EDGE ( 'NONE', *, *, #25, .T. ) ;
#328 = ORIENTED_EDGE ( 'NONE', *, *, #361, .T. ) ;
#329 = DIRECTION ( 'NONE',  ( 1.000000000000000000, 0.000000000000000000, 0.000000000000000000 ) ) ;
#330 = VERTEX_POINT ( 'NONE', #214 ) ;
#331 = CARTESIAN_POINT ( 'NONE',  ( 2.099999999999830003, -1.532970971675900129, 17.99999999999959854 ) ) ;
#332 = VECTOR ( 'NONE', #531, 1000.000000000000000 ) ;
#333 = ORIENTED_EDGE ( 'NONE', *, *, #540, .F. ) ;
#334 = AXIS2_PLACEMENT_3D ( 'NONE', #114, #300, #248 ) ;
#335 =( GEOMETRIC_REPRESENTATION_CONTEXT ( 3 ) GLOBAL_UNCERTAINTY_ASSIGNED_CONTEXT ( ( #172 ) ) GLOBAL_UNIT_ASSIGNED_CONTEXT ( ( #499, #69, #290 ) ) REPRESENTATION_CONTEXT ( 'NONE', 'WORKASPACE' ) );
#336 = ORIENTED_EDGE ( 'NONE', *, *, #376, .T. ) ;
#337 = DIRECTION ( 'NONE',  ( 0.000000000000000000, 0.000000000000000000, 1.000000000000000000 ) ) ;
#338 =( GEOMETRIC_REPRESENTATION_CONTEXT ( 3 ) GLOBAL_UNCERTAINTY_ASSIGNED_CONTEXT ( ( #590 ) ) GLOBAL_UNIT_ASSIGNED_CONTEXT ( ( #66, #12, #562 ) ) REPRESENTATION_CONTEXT ( 'NONE', 'WORKASPACE' ) );
#339 = CARTESIAN_POINT ( 'NONE',  ( -11.02423226827930236, 3.273576468486570246, 9.000000000000000000 ) ) ;
#340 = ADVANCED_FACE ( 'NONE', ( #113 ), #28, .F. ) ;
#341 = DIRECTION ( 'NONE',  ( 1.000000000000000000, 0.000000000000000000, 0.000000000000000000 ) ) ;
#342 = ORIENTED_EDGE ( 'NONE', *, *, #356, .F. ) ;
#343 = CARTESIAN_POINT ( 'NONE',  ( 2.099999999999830003, 1.532970971675330141, 17.99999999999959854 ) ) ;
#344 = CYLINDRICAL_SURFACE ( 'NONE', #138, 2.000000000000000000 ) ;
#345 = DIRECTION ( 'NONE',  ( -0.000000000000000000, -0.000000000000000000, 1.000000000000000000 ) ) ;
#346 = DIRECTION ( 'NONE',  ( -0.000000000000000000, -0.000000000000000000, 1.000000000000000000 ) ) ;
#347 = CARTESIAN_POINT ( 'NONE',  ( -8.000000000000000000, -1.209999999999999742, 17.00000000000000000 ) ) ;
#348 = FACE_OUTER_BOUND ( 'NONE', #388, .T. ) ;
#349 = AXIS2_PLACEMENT_3D ( 'NONE', #586, #442, #209 ) ;
#350 = EDGE_CURVE ( 'NONE', #355, #535, #51, .T. ) ;
#351 = PRESENTATION_LAYER_ASSIGNMENT (  '', '', ( #140 ) ) ;
#352 = ADVANCED_BREP_SHAPE_REPRESENTATION ( 'top pivot', ( #542, #390 ), #338 ) ;
#353 = FACE_BOUND ( 'NONE', #125, .T. ) ;
#354 = LINE ( 'NONE', #537, #137 ) ;
#355 = VERTEX_POINT ( 'NONE', #297 ) ;
#356 = EDGE_CURVE ( 'NONE', #535, #355, #292, .T. ) ;
#357 = CARTESIAN_POINT ( 'NONE',  ( -4.000000000000000000, -1.209999999999999964, 9.000000000000000000 ) ) ;
#358 = DIRECTION ( 'NONE',  ( 1.000000000000000000, 0.000000000000000000, 0.000000000000000000 ) ) ;
#359 = VERTEX_POINT ( 'NONE', #575 ) ;
#360 = DIRECTION ( 'NONE',  ( 0.000000000000000000, 1.224646799147350002E-16, 1.000000000000000000 ) ) ;
#361 = EDGE_CURVE ( 'NONE', #17, #142, #167, .T. ) ;
#362 = VERTEX_POINT ( 'NONE', #256 ) ;
#363 = CARTESIAN_POINT ( 'NONE',  ( -4.000000000000000000, -1.209999999999999964, 9.000000000000000000 ) ) ;
#364 = EDGE_LOOP ( 'NONE', ( #453, #463, #509, #1 ) ) ;
#365 = VERTEX_POINT ( 'NONE', #219 ) ;
#366 = SURFACE_STYLE_USAGE ( .BOTH. , #543 ) ;
#367 = ORIENTED_EDGE ( 'NONE', *, *, #127, .F. ) ;
#368 = CARTESIAN_POINT ( 'NONE',  ( 0.000000000000000000, 0.000000000000000000, 11.00000000000000000 ) ) ;
#369 = APPLICATION_CONTEXT ( 'automotive_design' ) ;
#370 = ORIENTED_EDGE ( 'NONE', *, *, #184, .T. ) ;
#371 = EDGE_CURVE ( 'NONE', #92, #311, #154, .T. ) ;
#372 = CIRCLE ( 'NONE', #76, 2.000000000000000000 ) ;
#373 = DIRECTION ( 'NONE',  ( -1.000000000000000000, 0.000000000000000000, 0.000000000000000000 ) ) ;
#374 = ORIENTED_EDGE ( 'NONE', *, *, #276, .T. ) ;
#375 = DIRECTION ( 'NONE',  ( -6.123233995736769734E-17, -1.000000000000000000, 0.000000000000000000 ) ) ;
#376 = EDGE_CURVE ( 'NONE', #489, #311, #301, .T. ) ;
#377 = VECTOR ( 'NONE', #29, 1000.000000000000000 ) ;
#378 = ORIENTED_EDGE ( 'NONE', *, *, #522, .T. ) ;
#379 = LINE ( 'NONE', #243, #134 ) ;
#380 = EDGE_CURVE ( 'NONE', #355, #238, #437, .T. ) ;
#381 = CARTESIAN_POINT ( 'NONE',  ( -6.000000000000000000, -1.209999999999999964, 9.000000000000000000 ) ) ;
#382 = DIRECTION ( 'NONE',  ( 0.000000000000000000, 0.000000000000000000, 1.000000000000000000 ) ) ;
#383 = AXIS2_PLACEMENT_3D ( 'NONE', #452, #121, #86 ) ;
#384 = FACE_OUTER_BOUND ( 'NONE', #44, .T. ) ;
#385 = EDGE_CURVE ( 'NONE', #90, #365, #20, .T. ) ;
#386 = CARTESIAN_POINT ( 'NONE',  ( 9.000000000000003553, -1.209999999999999964, 18.00000000000000000 ) ) ;
#387 = EDGE_CURVE ( 'NONE', #142, #457, #495, .T. ) ;
#388 = EDGE_LOOP ( 'NONE', ( #459, #144, #333 ) ) ;
#389 = DIRECTION ( 'NONE',  ( 0.000000000000000000, 0.000000000000000000, 1.000000000000000000 ) ) ;
#390 = AXIS2_PLACEMENT_3D ( 'NONE', #23, #389, #329 ) ;
#391 = DIRECTION ( 'NONE',  ( 1.000000000000000000, 0.000000000000000000, 0.000000000000000000 ) ) ;
#392 = EDGE_LOOP ( 'NONE', ( #235, #423 ) ) ;
#393 = DIRECTION ( 'NONE',  ( 1.000000000000000000, 0.000000000000000000, 0.000000000000000000 ) ) ;
#394 = CARTESIAN_POINT ( 'NONE',  ( 2.099999999999830003, 1.532970971675330141, 17.99999999999959854 ) ) ;
#395 = DIRECTION ( 'NONE',  ( 0.000000000000000000, 0.000000000000000000, 1.000000000000000000 ) ) ;
#396 = DIRECTION ( 'NONE',  ( -5.551115123125780730E-16, 0.000000000000000000, 1.000000000000000000 ) ) ;
#397 = DIRECTION ( 'NONE',  ( -1.000000000000000000, 0.000000000000000000, 0.000000000000000000 ) ) ;
#398 = DIRECTION ( 'NONE',  ( 0.000000000000000000, 0.000000000000000000, 1.000000000000000000 ) ) ;
#399 = CARTESIAN_POINT ( 'NONE',  ( -6.000000000000000000, -1.209999999999999964, 9.000000000000000000 ) ) ;
#400 = CARTESIAN_POINT ( 'NONE',  ( 6.000000000000000000, -1.209999999999999964, 9.000000000000000000 ) ) ;
#401 = VECTOR ( 'NONE', #64, 1000.000000000000000 ) ;
#402 = ORIENTED_EDGE ( 'NONE', *, *, #554, .T. ) ;
#403 = COLOUR_RGB ( '',0.7921568627450980005, 0.8196078431372548767, 0.9333333333333333481 ) ;
#404 = LINE ( 'NONE', #347, #448 ) ;
#405 = DIRECTION ( 'NONE',  ( 1.000000000000000000, 0.000000000000000000, 0.000000000000000000 ) ) ;
#406 = ORIENTED_EDGE ( 'NONE', *, *, #385, .F. ) ;
#407 = CIRCLE ( 'NONE', #557, 2.600000000000000089 ) ;
#408 = ADVANCED_FACE ( 'NONE', ( #422 ), #566, .F. ) ;
#409 = FACE_OUTER_BOUND ( 'NONE', #364, .T. ) ;
#410 = VERTEX_POINT ( 'NONE', #550 ) ;
#411 = DIRECTION ( 'NONE',  ( 1.000000000000000000, 0.000000000000000000, 0.000000000000000000 ) ) ;
#412 = ORIENTED_EDGE ( 'NONE', *, *, #251, .F. ) ;
#413 = AXIS2_PLACEMENT_3D ( 'NONE', #572, #309, #485 ) ;
#414 = DIRECTION ( 'NONE',  ( 1.000000000000000000, 0.000000000000000000, 0.000000000000000000 ) ) ;
#415 = ORIENTED_EDGE ( 'NONE', *, *, #380, .F. ) ;
#416 = CIRCLE ( 'NONE', #266, 11.90109890109890145 ) ;
#417 = FILL_AREA_STYLE ('',( #318 ) ) ;
#418 = CIRCLE ( 'NONE', #231, 11.50000000000000000 ) ;
#419 = EDGE_CURVE ( 'NONE', #52, #508, #418, .T. ) ;
#420 = VERTEX_POINT ( 'NONE', #280 ) ;
#421 = PRODUCT_DEFINITION_SHAPE ( 'NONE', 'NONE',  #482 ) ;
#422 = FACE_OUTER_BOUND ( 'NONE', #512, .T. ) ;
#423 = ORIENTED_EDGE ( 'NONE', *, *, #385, .T. ) ;
#424 = DIRECTION ( 'NONE',  ( 0.000000000000000000, 0.000000000000000000, 1.000000000000000000 ) ) ;
#425 = EDGE_CURVE ( 'NONE', #96, #508, #269, .T. ) ;
#426 = VECTOR ( 'NONE', #473, 1000.000000000000000 ) ;
#427 = ORIENTED_EDGE ( 'NONE', *, *, #143, .F. ) ;
#428 = CARTESIAN_POINT ( 'NONE',  ( -9.000000000000003553, -1.209999999999999520, 18.00000000000000000 ) ) ;
#429 = ORIENTED_EDGE ( 'NONE', *, *, #155, .F. ) ;
#430 = VECTOR ( 'NONE', #516, 1000.000000000000000 ) ;
#431 = DIRECTION ( 'NONE',  ( 1.000000000000000000, 0.000000000000000000, 0.000000000000000000 ) ) ;
#432 = MECHANICAL_DESIGN_GEOMETRIC_PRESENTATION_REPRESENTATION (  '', ( #140 ), #335 ) ;
#433 = CARTESIAN_POINT ( 'NONE',  ( 2.099999999999839773, -1.532970971675900129, 9.000000000000000000 ) ) ;
#434 = DIRECTION ( 'NONE',  ( -1.000000000000000000, 0.000000000000000000, 0.000000000000000000 ) ) ;
#435 = ORIENTED_EDGE ( 'NONE', *, *, #515, .T. ) ;
#436 = EDGE_LOOP ( 'NONE', ( #538, #444, #195, #583 ) ) ;
#437 = LINE ( 'NONE', #116, #272 ) ;
#438 = DIRECTION ( 'NONE',  ( 5.551115123125780730E-16, 3.053113317719179993E-16, -1.000000000000000000 ) ) ;
#439 = PLANE ( 'NONE',  #349 ) ;
#440 = CARTESIAN_POINT ( 'NONE',  ( 6.000000000000000000, -1.209999999999999964, 9.000000000000000000 ) ) ;
#441 = AXIS2_PLACEMENT_3D ( 'NONE', #153, #398, #391 ) ;
#442 = DIRECTION ( 'NONE',  ( 0.000000000000000000, 0.000000000000000000, 1.000000000000000000 ) ) ;
#443 = DIRECTION ( 'NONE',  ( 0.000000000000000000, 1.224646799147350002E-16, 1.000000000000000000 ) ) ;
#444 = ORIENTED_EDGE ( 'NONE', *, *, #314, .T. ) ;
#445 = CARTESIAN_POINT ( 'NONE',  ( 8.000000000000000000, -1.209999999999999964, 16.99999999999999645 ) ) ;
#446 = CARTESIAN_POINT ( 'NONE',  ( 0.000000000000000000, 0.000000000000000000, 11.00000000000000000 ) ) ;
#447 = EDGE_CURVE ( 'NONE', #135, #289, #458, .T. ) ;
#448 = VECTOR ( 'NONE', #480, 1000.000000000000000 ) ;
#449 = ORIENTED_EDGE ( 'NONE', *, *, #544, .F. ) ;
#450 = LINE ( 'NONE', #85, #166 ) ;
#451 = VECTOR ( 'NONE', #496, 1000.000000000000000 ) ;
#452 = CARTESIAN_POINT ( 'NONE',  ( 0.000000000000000000, 0.000000000000000000, 9.000000000000000000 ) ) ;
#453 = ORIENTED_EDGE ( 'NONE', *, *, #57, .F. ) ;
#454 = AXIS2_PLACEMENT_3D ( 'NONE', #394, #254, #396 ) ;
#455 = LINE ( 'NONE', #324, #176 ) ;
#456 = ORIENTED_EDGE ( 'NONE', *, *, #371, .T. ) ;
#457 = VERTEX_POINT ( 'NONE', #49 ) ;
#458 = LINE ( 'NONE', #222, #451 ) ;
#459 = ORIENTED_EDGE ( 'NONE', *, *, #419, .T. ) ;
#460 = AXIS2_PLACEMENT_3D ( 'NONE', #400, #488, #220 ) ;
#461 = CARTESIAN_POINT ( 'NONE',  ( 11.02423226827930236, 3.273576468486570246, 9.000000000000000000 ) ) ;
#462 = ADVANCED_FACE ( 'NONE', ( #409 ), #555, .F. ) ;
#463 = ORIENTED_EDGE ( 'NONE', *, *, #45, .F. ) ;
#464 = ORIENTED_EDGE ( 'NONE', *, *, #99, .T. ) ;
#465 = CARTESIAN_POINT ( 'NONE',  ( 0.000000000000000000, 0.000000000000000000, 9.000000000000000000 ) ) ;
#466 = ORIENTED_EDGE ( 'NONE', *, *, #350, .F. ) ;
#467 = EDGE_CURVE ( 'NONE', #36, #289, #170, .T. ) ;
#468 = DIRECTION ( 'NONE',  ( 1.000000000000000000, 0.000000000000000000, 0.000000000000000000 ) ) ;
#469 = CARTESIAN_POINT ( 'NONE',  ( -6.000000000000000000, -1.209999999999999964, 17.00000000000000000 ) ) ;
#470 = EDGE_LOOP ( 'NONE', ( #3, #56, #317, #14 ) ) ;
#471 = DIRECTION ( 'NONE',  ( 1.000000000000000000, 0.000000000000000000, 0.000000000000000000 ) ) ;
#472 = DIRECTION ( 'NONE',  ( -0.000000000000000000, -0.000000000000000000, 1.000000000000000000 ) ) ;
#473 = DIRECTION ( 'NONE',  ( 0.000000000000000000, 0.000000000000000000, 1.000000000000000000 ) ) ;
#474 = AXIS2_PLACEMENT_3D ( 'NONE', #440, #472, #67 ) ;
#475 = AXIS2_PLACEMENT_3D ( 'NONE', #399, #253, #393 ) ;
#476 = PRODUCT_RELATED_PRODUCT_CATEGORY ( 'part', '', ( #97 ) ) ;
#477 = FACE_BOUND ( 'NONE', #589, .T. ) ;
#478 = CARTESIAN_POINT ( 'NONE',  ( -2.600000000000159961, -2.837841073244362532E-13, 17.99999999999959854 ) ) ;
#479 = EDGE_CURVE ( 'NONE', #147, #223, #585, .T. ) ;
#480 = DIRECTION ( 'NONE',  ( -0.7071067811865492381, 8.659560562354953812E-17, 0.7071067811865457964 ) ) ;
#481 = CYLINDRICAL_SURFACE ( 'NONE', #474, 2.000000000000000000 ) ;
#482 = PRODUCT_DEFINITION ( 'UNKNOWN', '', #163, #308 ) ;
#483 = CARTESIAN_POINT ( 'NONE',  ( 0.000000000000000000, -1.209999999999999964, 9.000000000000000000 ) ) ;
#484 = CARTESIAN_POINT ( 'NONE',  ( -11.02423226827930236, 3.273576468486570246, 9.000000000000000000 ) ) ;
#485 = DIRECTION ( 'NONE',  ( -1.000000000000000000, 0.000000000000000000, 0.000000000000000000 ) ) ;
#486 = DIRECTION ( 'NONE',  ( -1.000000000000000000, 0.000000000000000000, 0.000000000000000000 ) ) ;
#487 = CARTESIAN_POINT ( 'NONE',  ( -6.000000000000000000, -1.209999999999999964, 9.000000000000000000 ) ) ;
#488 = DIRECTION ( 'NONE',  ( 0.000000000000000000, 0.000000000000000000, 1.000000000000000000 ) ) ;
#489 = VERTEX_POINT ( 'NONE', #98 ) ;
#490 = CYLINDRICAL_SURFACE ( 'NONE', #190, 11.90109890109890145 ) ;
#491 = CARTESIAN_POINT ( 'NONE',  ( 10.00000000000000000, -1.224646799147353256E-15, 11.00000000000000000 ) ) ;
#492 = ORIENTED_EDGE ( 'NONE', *, *, #425, .F. ) ;
#493 = DIRECTION ( 'NONE',  ( -1.000000000000000000, 0.000000000000000000, 0.000000000000000000 ) ) ;
#494 = ORIENTED_EDGE ( 'NONE', *, *, #295, .T. ) ;
#495 = CIRCLE ( 'NONE', #546, 3.000000000000002665 ) ;
#496 = DIRECTION ( 'NONE',  ( 0.000000000000000000, 0.000000000000000000, 1.000000000000000000 ) ) ;
#497 = ORIENTED_EDGE ( 'NONE', *, *, #155, .T. ) ;
#498 = EDGE_LOOP ( 'NONE', ( #429, #133, #65, #449 ) ) ;
#499 =( LENGTH_UNIT ( ) NAMED_UNIT ( * ) SI_UNIT ( .MILLI., .METRE. ) );
#500 = ORIENTED_EDGE ( 'NONE', *, *, #87, .T. ) ;
#501 = AXIS2_PLACEMENT_3D ( 'NONE', #24, #117, #341 ) ;
#502 = AXIS2_PLACEMENT_3D ( 'NONE', #487, #395, #260 ) ;
#503 = DIRECTION ( 'NONE',  ( 0.000000000000000000, 0.000000000000000000, 1.000000000000000000 ) ) ;
#504 = AXIS2_PLACEMENT_3D ( 'NONE', #180, #229, #539 ) ;
#505 = FACE_OUTER_BOUND ( 'NONE', #319, .T. ) ;
#506 = DIRECTION ( 'NONE',  ( -0.000000000000000000, -0.000000000000000000, 1.000000000000000000 ) ) ;
#507 = ADVANCED_FACE ( 'NONE', ( #141 ), #592, .F. ) ;
#508 = VERTEX_POINT ( 'NONE', #461 ) ;
#509 = ORIENTED_EDGE ( 'NONE', *, *, #584, .T. ) ;
#510 = CARTESIAN_POINT ( 'NONE',  ( -6.000000000000000000, -1.209999999999999964, 17.00000000000000000 ) ) ;
#511 = ORIENTED_EDGE ( 'NONE', *, *, #380, .T. ) ;
#512 = EDGE_LOOP ( 'NONE', ( #274, #84, #191, #73 ) ) ;
#513 = VECTOR ( 'NONE', #506, 1000.000000000000000 ) ;
#514 = EDGE_LOOP ( 'NONE', ( #464, #48, #8 ) ) ;
#515 = EDGE_CURVE ( 'NONE', #362, #17, #279, .T. ) ;
#516 = DIRECTION ( 'NONE',  ( 0.000000000000000000, 0.000000000000000000, 1.000000000000000000 ) ) ;
#517 = APPLICATION_PROTOCOL_DEFINITION ( 'draft international standard', 'automotive_design', 1998, #326 ) ;
#518 = EDGE_CURVE ( 'NONE', #420, #17, #91, .T. ) ;
#519 = FACE_OUTER_BOUND ( 'NONE', #197, .T. ) ;
#520 = DIRECTION ( 'NONE',  ( 5.551115123125780730E-16, 3.053113317719179993E-16, -1.000000000000000000 ) ) ;
#521 = CIRCLE ( 'NONE', #441, 2.000000000000000000 ) ;
#522 = EDGE_CURVE ( 'NONE', #313, #362, #455, .T. ) ;
#523 = CARTESIAN_POINT ( 'NONE',  ( -6.000000000000000000, -1.209999999999999964, 9.000000000000000000 ) ) ;
#524 = DIRECTION ( 'NONE',  ( 1.665334536937739741E-16, 1.000000000000000000, 0.000000000000000000 ) ) ;
#525 = CARTESIAN_POINT ( 'NONE',  ( -1.598721155460232234E-13, -2.842170943040401248E-13, 18.00000000000000000 ) ) ;
#526 = CARTESIAN_POINT ( 'NONE',  ( 2.099999999999839773, 0.7664854858376650704, 9.000000000000000000 ) ) ;
#527 = AXIS2_PLACEMENT_3D ( 'NONE', #261, #174, #358 ) ;
#528 = VECTOR ( 'NONE', #520, 1000.000000000000000 ) ;
#529 = CARTESIAN_POINT ( 'NONE',  ( 0.000000000000000000, -1.209999999999999964, 11.00000000000000000 ) ) ;
#530 = EDGE_CURVE ( 'NONE', #17, #362, #206, .T. ) ;
#531 = DIRECTION ( 'NONE',  ( -0.000000000000000000, -0.000000000000000000, 1.000000000000000000 ) ) ;
#532 = DIRECTION ( 'NONE',  ( 0.000000000000000000, 0.000000000000000000, 1.000000000000000000 ) ) ;
#533 = ORIENTED_EDGE ( 'NONE', *, *, #479, .T. ) ;
#534 = DIRECTION ( 'NONE',  ( 1.000000000000000000, 0.000000000000000000, 0.000000000000000000 ) ) ;
#535 = VERTEX_POINT ( 'NONE', #363 ) ;
#536 = AXIS2_PLACEMENT_3D ( 'NONE', #130, #275, #493 ) ;
#537 = CARTESIAN_POINT ( 'NONE',  ( 4.000000000000000000, -1.209999999999999742, 16.99999999999999645 ) ) ;
#538 = ORIENTED_EDGE ( 'NONE', *, *, #564, .F. ) ;
#539 = DIRECTION ( 'NONE',  ( -1.000000000000000000, 1.665334536937646064E-16, 0.000000000000000000 ) ) ;
#540 = EDGE_CURVE ( 'NONE', #52, #135, #569, .T. ) ;
#541 = EDGE_LOOP ( 'NONE', ( #10, #402, #549 ) ) ;
#542 = MANIFOLD_SOLID_BREP ( 'Chamfer1', #303 ) ;
#543 = SURFACE_SIDE_STYLE ('',( #4 ) ) ;
#544 = EDGE_CURVE ( 'NONE', #147, #365, #15, .T. ) ;
#545 = ORIENTED_EDGE ( 'NONE', *, *, #192, .T. ) ;
#546 = AXIS2_PLACEMENT_3D ( 'NONE', #136, #94, #411 ) ;
#547 = AXIS2_PLACEMENT_3D ( 'NONE', #226, #46, #316 ) ;
#548 = PRESENTATION_STYLE_ASSIGNMENT (( #366 ) ) ;
#549 = ORIENTED_EDGE ( 'NONE', *, *, #251, .T. ) ;
#550 = CARTESIAN_POINT ( 'NONE',  ( -4.000000000000000000, -1.209999999999999964, 17.00000000000000000 ) ) ;
#551 = ORIENTED_EDGE ( 'NONE', *, *, #518, .T. ) ;
#552 = CONICAL_SURFACE ( 'NONE', #255, 2.000000000000000000, 0.7853981633974507215 ) ;
#553 = AXIS2_PLACEMENT_3D ( 'NONE', #446, #215, #306 ) ;
#554 = EDGE_CURVE ( 'NONE', #232, #489, #159, .T. ) ;
#555 = CYLINDRICAL_SURFACE ( 'NONE', #504, 2.600000000000000089 ) ;
#556 = VERTEX_POINT ( 'NONE', #283 ) ;
#557 = AXIS2_PLACEMENT_3D ( 'NONE', #525, #438, #434 ) ;
#558 = DIRECTION ( 'NONE',  ( 5.551115123125780730E-16, 3.053113317719179993E-16, -1.000000000000000000 ) ) ;
#559 = CARTESIAN_POINT ( 'NONE',  ( 8.000000000000000000, -1.209999999999999964, 16.99999999999999645 ) ) ;
#560 = DIRECTION ( 'NONE',  ( 1.000000000000000000, 0.000000000000000000, 0.000000000000000000 ) ) ;
#561 = DIRECTION ( 'NONE',  ( -0.000000000000000000, -0.000000000000000000, 1.000000000000000000 ) ) ;
#562 =( NAMED_UNIT ( * ) SI_UNIT ( $, .STERADIAN. ) SOLID_ANGLE_UNIT ( ) );
#563 = ORIENTED_EDGE ( 'NONE', *, *, #554, .F. ) ;
#564 = EDGE_CURVE ( 'NONE', #238, #410, #32, .T. ) ;
#565 = CYLINDRICAL_SURFACE ( 'NONE', #287, 11.90109890109890145 ) ;
#566 = CONICAL_SURFACE ( 'NONE', #149, 2.000000000000000000, 0.7853981633974491672 ) ;
#567 = AXIS2_PLACEMENT_3D ( 'NONE', #368, #189, #373 ) ;
#568 = FACE_BOUND ( 'NONE', #175, .T. ) ;
#569 = CIRCLE ( 'NONE', #536, 11.90109890109890145 ) ;
#570 = DIRECTION ( 'NONE',  ( -1.000000000000000000, 0.000000000000000000, 0.000000000000000000 ) ) ;
#571 = ADVANCED_FACE ( 'NONE', ( #150 ), #199, .F. ) ;
#572 = CARTESIAN_POINT ( 'NONE',  ( 0.000000000000000000, 0.000000000000000000, 11.00000000000000000 ) ) ;
#573 = FACE_OUTER_BOUND ( 'NONE', #514, .T. ) ;
#574 = ORIENTED_EDGE ( 'NONE', *, *, #530, .F. ) ;
#575 = CARTESIAN_POINT ( 'NONE',  ( -2.600000000000154632, -2.824102063314627734E-13, 8.999999999999998224 ) ) ;
#576 = DIRECTION ( 'NONE',  ( -1.000000000000000000, 0.000000000000000000, 0.000000000000000000 ) ) ;
#577 = CYLINDRICAL_SURFACE ( 'NONE', #413, 10.00000000000000000 ) ;
#578 = DIRECTION ( 'NONE',  ( 0.000000000000000000, 0.000000000000000000, 1.000000000000000000 ) ) ;
#579 = FACE_BOUND ( 'NONE', #262, .T. ) ;
#580 = CIRCLE ( 'NONE', #553, 10.00000000000000000 ) ;
#581 = AXIS2_PLACEMENT_3D ( 'NONE', #510, #293, #560 ) ;
#582 = DIRECTION ( 'NONE',  ( 0.000000000000000000, 0.000000000000000000, 1.000000000000000000 ) ) ;
#583 = ORIENTED_EDGE ( 'NONE', *, *, #61, .F. ) ;
#584 = EDGE_CURVE ( 'NONE', #330, #92, #145, .T. ) ;
#585 = CIRCLE ( 'NONE', #567, 10.00000000000000000 ) ;
#586 = CARTESIAN_POINT ( 'NONE',  ( 0.000000000000000000, 0.000000000000000000, 18.00000000000000000 ) ) ;
#587 = DIRECTION ( 'NONE',  ( -0.000000000000000000, -0.000000000000000000, -1.000000000000000000 ) ) ;
#588 = CONICAL_SURFACE ( 'NONE', #230, 2.000000000000000000, 0.7853981633974491672 ) ;
#589 = EDGE_LOOP ( 'NONE', ( #370, #494 ) ) ;
#590 = UNCERTAINTY_MEASURE_WITH_UNIT (LENGTH_MEASURE( 1.000000000000000082E-05 ), #66, 'distance_accuracy_value', 'NONE');
#591 = ADVANCED_FACE ( 'NONE', ( #240 ), #565, .T. ) ;
#592 = CYLINDRICAL_SURFACE ( 'NONE', #547, 2.600000000000000089 ) ;
#593 = VERTEX_POINT ( 'NONE', #428 ) ;
#594 = CARTESIAN_POINT ( 'NONE',  ( 6.000000000000000000, -1.209999999999999964, 16.99999999999999645 ) ) ;
#595 = EDGE_CURVE ( 'NONE', #223, #90, #379, .T. ) ;
ENDSEC;
END-ISO-10303-21;
