ISO-10303-21;
HEADER;
FILE_DESCRIPTION (( 'STEP AP214' ),
    '1' );
FILE_NAME ('b2w f-lange.STEP',
    '2026-02-20T11:51:05',
    ( '' ),
    ( '' ),
    'SwSTEP 2.0',
    'SolidWorks 2023',
    '' );
FILE_SCHEMA (( 'AUTOMOTIVE_DESIGN' ));
ENDSEC;

DATA;
#1 = DIRECTION ( 'NONE',  ( -0.000000000000000000, -1.000000000000000000, -0.000000000000000000 ) ) ;
#2 = CYLINDRICAL_SURFACE ( 'NONE', #279, 2.000000000000001776 ) ;
#3 = DIRECTION ( 'NONE',  ( 0.000000000000000000, 0.000000000000000000, -1.000000000000000000 ) ) ;
#4 = ORIENTED_EDGE ( 'NONE', *, *, #219, .F. ) ;
#5 = ORIENTED_EDGE ( 'NONE', *, *, #274, .F. ) ;
#6 = DIRECTION ( 'NONE',  ( 0.000000000000000000, 0.000000000000000000, -1.000000000000000000 ) ) ;
#7 = EDGE_CURVE ( 'NONE', #151, #213, #215, .T. ) ;
#8 = EDGE_LOOP ( 'NONE', ( #202, #395 ) ) ;
#9 = CARTESIAN_POINT ( 'NONE',  ( 40.99999999999999289, 0.000000000000000000, -39.00000000000000000 ) ) ;
#10 = CARTESIAN_POINT ( 'NONE',  ( 0.000000000000000000, 2.500000000000000000, -65.00000000000001421 ) ) ;
#11 = ORIENTED_EDGE ( 'NONE', *, *, #363, .F. ) ;
#12 = CARTESIAN_POINT ( 'NONE',  ( 0.000000000000000000, 2.500000000000000000, -13.30000000000000071 ) ) ;
#13 = DIRECTION ( 'NONE',  ( -0.000000000000000000, -1.000000000000000000, -0.000000000000000000 ) ) ;
#14 = ORIENTED_EDGE ( 'NONE', *, *, #124, .T. ) ;
#15 = LINE ( 'NONE', #88, #20 ) ;
#16 = ORIENTED_EDGE ( 'NONE', *, *, #117, .T. ) ;
#17 = ORIENTED_EDGE ( 'NONE', *, *, #380, .F. ) ;
#18 = CARTESIAN_POINT ( 'NONE',  ( 0.000000000000000000, 2.500000000000000000, 0.000000000000000000 ) ) ;
#19 = FACE_BOUND ( 'NONE', #435, .T. ) ;
#20 = VECTOR ( 'NONE', #389, 1000.000000000000000 ) ;
#21 = CIRCLE ( 'NONE', #144, 2.000000000000001776 ) ;
#22 = COLOUR_RGB ( '',0.7921568627450980005, 0.8196078431372548767, 0.9333333333333333481 ) ;
#23 = DIRECTION ( 'NONE',  ( 0.000000000000000000, -1.000000000000000000, 0.000000000000000000 ) ) ;
#24 = FACE_OUTER_BOUND ( 'NONE', #423, .T. ) ;
#25 = CARTESIAN_POINT ( 'NONE',  ( -41.00000000000000711, 0.000000000000000000, -39.00000000000000711 ) ) ;
#26 = APPLICATION_PROTOCOL_DEFINITION ( 'draft international standard', 'automotive_design', 1998, #469 ) ;
#27 = AXIS2_PLACEMENT_3D ( 'NONE', #91, #396, #276 ) ;
#28 = ADVANCED_FACE ( 'NONE', ( #24 ), #300, .F. ) ;
#29 = CARTESIAN_POINT ( 'NONE',  ( 40.99999999999999289, 2.500000000000000000, 43.00000000000000000 ) ) ;
#30 = CARTESIAN_POINT ( 'NONE',  ( -41.00000000000000711, 2.500000000000000000, 38.99999999999999289 ) ) ;
#31 = DIRECTION ( 'NONE',  ( 0.000000000000000000, -1.000000000000000000, 0.000000000000000000 ) ) ;
#32 = PRESENTATION_STYLE_ASSIGNMENT (( #377 ) ) ;
#33 = CIRCLE ( 'NONE', #386, 2.000000000000001776 ) ;
#34 = EDGE_CURVE ( 'NONE', #430, #197, #334, .T. ) ;
#35 = ORIENTED_EDGE ( 'NONE', *, *, #463, .T. ) ;
#36 = DIRECTION ( 'NONE',  ( -0.000000000000000000, -1.000000000000000000, -0.000000000000000000 ) ) ;
#37 = ORIENTED_EDGE ( 'NONE', *, *, #406, .T. ) ;
#38 = ORIENTED_EDGE ( 'NONE', *, *, #7, .F. ) ;
#39 = EDGE_CURVE ( 'NONE', #163, #127, #302, .T. ) ;
#40 = AXIS2_PLACEMENT_3D ( 'NONE', #208, #325, #329 ) ;
#41 = VERTEX_POINT ( 'NONE', #180 ) ;
#42 = CIRCLE ( 'NONE', #451, 2.000000000000001776 ) ;
#43 = ORIENTED_EDGE ( 'NONE', *, *, #428, .T. ) ;
#44 = DIRECTION ( 'NONE',  ( 0.000000000000000000, 0.000000000000000000, -1.000000000000000000 ) ) ;
#45 = DIRECTION ( 'NONE',  ( 0.000000000000000000, 0.000000000000000000, -1.000000000000000000 ) ) ;
#46 = VERTEX_POINT ( 'NONE', #65 ) ;
#47 = CYLINDRICAL_SURFACE ( 'NONE', #139, 2.000000000000001776 ) ;
#48 = CARTESIAN_POINT ( 'NONE',  ( -41.00000000000000711, 0.000000000000000000, 40.99999999999999289 ) ) ;
#49 = ADVANCED_FACE ( 'NONE', ( #328, #417, #453, #74, #175, #372 ), #376, .T. ) ;
#50 = ORIENTED_EDGE ( 'NONE', *, *, #439, .T. ) ;
#51 =( NAMED_UNIT ( * ) SI_UNIT ( $, .STERADIAN. ) SOLID_ANGLE_UNIT ( ) );
#52 = DIRECTION ( 'NONE',  ( 0.000000000000000000, -1.000000000000000000, 0.000000000000000000 ) ) ;
#53 = ORIENTED_EDGE ( 'NONE', *, *, #222, .T. ) ;
#54 = CIRCLE ( 'NONE', #346, 65.00000000000001421 ) ;
#55 = ORIENTED_EDGE ( 'NONE', *, *, #124, .F. ) ;
#56 = DIRECTION ( 'NONE',  ( 0.000000000000000000, 0.000000000000000000, -1.000000000000000000 ) ) ;
#57 = CYLINDRICAL_SURFACE ( 'NONE', #188, 2.000000000000001776 ) ;
#58 =( LENGTH_UNIT ( ) NAMED_UNIT ( * ) SI_UNIT ( .MILLI., .METRE. ) );
#59 = EDGE_CURVE ( 'NONE', #41, #352, #21, .T. ) ;
#60 = CARTESIAN_POINT ( 'NONE',  ( 0.000000000000000000, 2.500000000000000000, 0.000000000000000000 ) ) ;
#61 = DIRECTION ( 'NONE',  ( 0.000000000000000000, 0.000000000000000000, -1.000000000000000000 ) ) ;
#62 = CIRCLE ( 'NONE', #145, 2.000000000000001776 ) ;
#63 = DIRECTION ( 'NONE',  ( -0.000000000000000000, -1.000000000000000000, -0.000000000000000000 ) ) ;
#64 = DIRECTION ( 'NONE',  ( -0.000000000000000000, -1.000000000000000000, -0.000000000000000000 ) ) ;
#65 = CARTESIAN_POINT ( 'NONE',  ( 0.000000000000000000, 2.500000000000000000, -13.30000000000000071 ) ) ;
#66 = EDGE_CURVE ( 'NONE', #352, #245, #138, .T. ) ;
#67 = APPLICATION_CONTEXT ( 'automotive_design' ) ;
#68 = DIRECTION ( 'NONE',  ( 0.000000000000000000, 0.000000000000000000, -1.000000000000000000 ) ) ;
#69 = AXIS2_PLACEMENT_3D ( 'NONE', #474, #121, #353 ) ;
#70 = PRODUCT ( 'b2w f-lange', 'b2w f-lange', '', ( #176 ) ) ;
#71 = LINE ( 'NONE', #370, #324 ) ;
#72 = DIRECTION ( 'NONE',  ( 0.000000000000000000, 0.000000000000000000, -1.000000000000000000 ) ) ;
#73 = CARTESIAN_POINT ( 'NONE',  ( -41.00000000000000711, 0.000000000000000000, -43.00000000000000711 ) ) ;
#74 = FACE_BOUND ( 'NONE', #313, .T. ) ;
#75 = DIRECTION ( 'NONE',  ( 0.000000000000000000, -1.000000000000000000, 0.000000000000000000 ) ) ;
#76 = CIRCLE ( 'NONE', #458, 2.000000000000001776 ) ;
#77 = CLOSED_SHELL ( 'NONE', ( #449, #210, #306, #185, #28, #489, #131, #49, #483, #375, #394, #331, #340, #133 ) ) ;
#78 = CARTESIAN_POINT ( 'NONE',  ( 7.960204194457798830E-15, 2.500000000000000000, 65.00000000000001421 ) ) ;
#79 = ORIENTED_EDGE ( 'NONE', *, *, #260, .T. ) ;
#80 = DIRECTION ( 'NONE',  ( 0.000000000000000000, -1.000000000000000000, 0.000000000000000000 ) ) ;
#81 = ORIENTED_EDGE ( 'NONE', *, *, #137, .F. ) ;
#82 = ORIENTED_EDGE ( 'NONE', *, *, #294, .F. ) ;
#83 = CARTESIAN_POINT ( 'NONE',  ( -41.00000000000000711, 0.000000000000000000, -41.00000000000000711 ) ) ;
#84 = CIRCLE ( 'NONE', #478, 2.000000000000001776 ) ;
#85 = AXIS2_PLACEMENT_3D ( 'NONE', #337, #147, #220 ) ;
#86 = VERTEX_POINT ( 'NONE', #29 ) ;
#87 = DIRECTION ( 'NONE',  ( -0.000000000000000000, -1.000000000000000000, -0.000000000000000000 ) ) ;
#88 = CARTESIAN_POINT ( 'NONE',  ( 40.99999999999999289, 2.500000000000000000, 39.00000000000000000 ) ) ;
#89 = ORIENTED_EDGE ( 'NONE', *, *, #285, .F. ) ;
#90 = ORIENTED_EDGE ( 'NONE', *, *, #117, .F. ) ;
#91 = CARTESIAN_POINT ( 'NONE',  ( 40.99999999999999289, 2.500000000000000000, 41.00000000000000000 ) ) ;
#92 = CARTESIAN_POINT ( 'NONE',  ( 0.000000000000000000, 2.500000000000000000, -65.00000000000001421 ) ) ;
#93 = ORIENTED_EDGE ( 'NONE', *, *, #66, .T. ) ;
#94 = EDGE_LOOP ( 'NONE', ( #17, #35, #43, #118 ) ) ;
#95 = DIRECTION ( 'NONE',  ( 0.000000000000000000, 0.000000000000000000, -1.000000000000000000 ) ) ;
#96 = VERTEX_POINT ( 'NONE', #335 ) ;
#97 = AXIS2_PLACEMENT_3D ( 'NONE', #429, #13, #45 ) ;
#98 = AXIS2_PLACEMENT_3D ( 'NONE', #339, #495, #326 ) ;
#99 = DIRECTION ( 'NONE',  ( 0.000000000000000000, 0.000000000000000000, -1.000000000000000000 ) ) ;
#100 = PRODUCT_DEFINITION ( 'UNKNOWN', '', #214, #358 ) ;
#101 = DIRECTION ( 'NONE',  ( 0.000000000000000000, -0.000000000000000000, 1.000000000000000000 ) ) ;
#102 = CARTESIAN_POINT ( 'NONE',  ( 0.000000000000000000, 0.000000000000000000, 0.000000000000000000 ) ) ;
#103 = CARTESIAN_POINT ( 'NONE',  ( 7.960204194457798830E-15, 0.000000000000000000, 65.00000000000001421 ) ) ;
#104 = EDGE_CURVE ( 'NONE', #86, #239, #317, .T. ) ;
#105 = DIRECTION ( 'NONE',  ( 0.000000000000000000, 0.000000000000000000, -1.000000000000000000 ) ) ;
#106 = DIRECTION ( 'NONE',  ( 0.000000000000000000, -1.000000000000000000, 0.000000000000000000 ) ) ;
#107 = VECTOR ( 'NONE', #160, 1000.000000000000000 ) ;
#108 = VECTOR ( 'NONE', #374, 1000.000000000000000 ) ;
#109 = DIRECTION ( 'NONE',  ( 0.000000000000000000, -1.000000000000000000, 0.000000000000000000 ) ) ;
#110 = EDGE_CURVE ( 'NONE', #213, #151, #425, .T. ) ;
#111 = CARTESIAN_POINT ( 'NONE',  ( 0.000000000000000000, 0.000000000000000000, 0.000000000000000000 ) ) ;
#112 = VERTEX_POINT ( 'NONE', #25 ) ;
#113 = EDGE_LOOP ( 'NONE', ( #387, #319, #447, #385 ) ) ;
#114 = VECTOR ( 'NONE', #130, 1000.000000000000000 ) ;
#115 = DIRECTION ( 'NONE',  ( 0.000000000000000000, -1.000000000000000000, 0.000000000000000000 ) ) ;
#116 = CIRCLE ( 'NONE', #400, 13.30000000000000071 ) ;
#117 = EDGE_CURVE ( 'NONE', #231, #119, #116, .T. ) ;
#118 = ORIENTED_EDGE ( 'NONE', *, *, #39, .F. ) ;
#119 = VERTEX_POINT ( 'NONE', #258 ) ;
#120 = FACE_OUTER_BOUND ( 'NONE', #475, .T. ) ;
#121 = DIRECTION ( 'NONE',  ( -0.000000000000000000, -1.000000000000000000, -0.000000000000000000 ) ) ;
#122 = ORIENTED_EDGE ( 'NONE', *, *, #222, .F. ) ;
#123 = ORIENTED_EDGE ( 'NONE', *, *, #355, .F. ) ;
#124 = EDGE_CURVE ( 'NONE', #245, #112, #201, .T. ) ;
#125 = DIRECTION ( 'NONE',  ( 0.000000000000000000, -1.000000000000000000, 0.000000000000000000 ) ) ;
#126 = ORIENTED_EDGE ( 'NONE', *, *, #233, .T. ) ;
#127 = VERTEX_POINT ( 'NONE', #332 ) ;
#128 = CYLINDRICAL_SURFACE ( 'NONE', #97, 2.000000000000001776 ) ;
#129 = ORIENTED_EDGE ( 'NONE', *, *, #143, .F. ) ;
#130 = DIRECTION ( 'NONE',  ( -0.000000000000000000, -1.000000000000000000, -0.000000000000000000 ) ) ;
#131 = ADVANCED_FACE ( 'NONE', ( #135 ), #298, .T. ) ;
#132 = VECTOR ( 'NONE', #173, 1000.000000000000000 ) ;
#133 = ADVANCED_FACE ( 'NONE', ( #295 ), #140, .F. ) ;
#134 = PLANE ( 'NONE',  #148 ) ;
#135 = FACE_OUTER_BOUND ( 'NONE', #327, .T. ) ;
#136 = VERTEX_POINT ( 'NONE', #488 ) ;
#137 = EDGE_CURVE ( 'NONE', #127, #321, #42, .T. ) ;
#138 = LINE ( 'NONE', #265, #416 ) ;
#139 = AXIS2_PLACEMENT_3D ( 'NONE', #427, #388, #44 ) ;
#140 = CYLINDRICAL_SURFACE ( 'NONE', #486, 2.000000000000001776 ) ;
#141 = DIRECTION ( 'NONE',  ( 0.000000000000000000, 0.000000000000000000, 1.000000000000000000 ) ) ;
#142 = DIRECTION ( 'NONE',  ( 0.000000000000000000, -1.000000000000000000, 0.000000000000000000 ) ) ;
#143 = EDGE_CURVE ( 'NONE', #41, #112, #71, .T. ) ;
#144 = AXIS2_PLACEMENT_3D ( 'NONE', #211, #109, #484 ) ;
#145 = AXIS2_PLACEMENT_3D ( 'NONE', #492, #115, #6 ) ;
#146 = DIRECTION ( 'NONE',  ( 0.000000000000000000, -1.000000000000000000, 0.000000000000000000 ) ) ;
#147 = DIRECTION ( 'NONE',  ( 0.000000000000000000, 1.000000000000000000, 0.000000000000000000 ) ) ;
#148 = AXIS2_PLACEMENT_3D ( 'NONE', #293, #442, #101 ) ;
#149 = FILL_AREA_STYLE_COLOUR ( '', #22 ) ;
#150 = VECTOR ( 'NONE', #1, 1000.000000000000000 ) ;
#151 = VERTEX_POINT ( 'NONE', #103 ) ;
#152 = ORIENTED_EDGE ( 'NONE', *, *, #104, .F. ) ;
#153 = DIRECTION ( 'NONE',  ( 0.000000000000000000, -1.000000000000000000, 0.000000000000000000 ) ) ;
#154 = EDGE_LOOP ( 'NONE', ( #354, #287 ) ) ;
#155 = EDGE_LOOP ( 'NONE', ( #282, #53, #200, #361 ) ) ;
#156 = LINE ( 'NONE', #12, #107 ) ;
#157 = CARTESIAN_POINT ( 'NONE',  ( 0.000000000000000000, 2.500000000000000000, 0.000000000000000000 ) ) ;
#158 = VERTEX_POINT ( 'NONE', #257 ) ;
#159 = ORIENTED_EDGE ( 'NONE', *, *, #219, .T. ) ;
#160 = DIRECTION ( 'NONE',  ( -0.000000000000000000, -1.000000000000000000, -0.000000000000000000 ) ) ;
#161 = LINE ( 'NONE', #244, #333 ) ;
#162 = VERTEX_POINT ( 'NONE', #177 ) ;
#163 = VERTEX_POINT ( 'NONE', #254 ) ;
#164 = DIRECTION ( 'NONE',  ( 0.000000000000000000, 0.000000000000000000, -1.000000000000000000 ) ) ;
#165 = EDGE_LOOP ( 'NONE', ( #379, #305 ) ) ;
#166 = ORIENTED_EDGE ( 'NONE', *, *, #490, .T. ) ;
#167 = EDGE_CURVE ( 'NONE', #136, #119, #409, .T. ) ;
#168 = DIRECTION ( 'NONE',  ( 0.000000000000000000, 1.000000000000000000, 0.000000000000000000 ) ) ;
#169 = EDGE_CURVE ( 'NONE', #158, #398, #381, .T. ) ;
#170 = FACE_OUTER_BOUND ( 'NONE', #198, .T. ) ;
#171 = AXIS2_PLACEMENT_3D ( 'NONE', #111, #465, #461 ) ;
#172 = AXIS2_PLACEMENT_3D ( 'NONE', #181, #146, #454 ) ;
#173 = DIRECTION ( 'NONE',  ( -0.000000000000000000, -1.000000000000000000, -0.000000000000000000 ) ) ;
#174 = DIRECTION ( 'NONE',  ( 0.000000000000000000, 0.000000000000000000, -1.000000000000000000 ) ) ;
#175 = FACE_BOUND ( 'NONE', #154, .T. ) ;
#176 = PRODUCT_CONTEXT ( 'NONE', #469, 'mechanical' ) ;
#177 = CARTESIAN_POINT ( 'NONE',  ( -41.00000000000000711, 0.000000000000000000, 38.99999999999999289 ) ) ;
#178 = DIRECTION ( 'NONE',  ( -0.000000000000000000, -1.000000000000000000, -0.000000000000000000 ) ) ;
#179 = EDGE_CURVE ( 'NONE', #197, #430, #33, .T. ) ;
#180 = CARTESIAN_POINT ( 'NONE',  ( -41.00000000000000711, 2.500000000000000000, -39.00000000000000711 ) ) ;
#181 = CARTESIAN_POINT ( 'NONE',  ( -41.00000000000000711, 2.500000000000000000, -41.00000000000000711 ) ) ;
#182 = CARTESIAN_POINT ( 'NONE',  ( 0.000000000000000000, 0.000000000000000000, 0.000000000000000000 ) ) ;
#183 = AXIS2_PLACEMENT_3D ( 'NONE', #411, #256, #405 ) ;
#184 = AXIS2_PLACEMENT_3D ( 'NONE', #422, #308, #307 ) ;
#185 = ADVANCED_FACE ( 'NONE', ( #420 ), #2, .F. ) ;
#186 = DIRECTION ( 'NONE',  ( 0.000000000000000000, 0.000000000000000000, -1.000000000000000000 ) ) ;
#187 = ORIENTED_EDGE ( 'NONE', *, *, #274, .T. ) ;
#188 = AXIS2_PLACEMENT_3D ( 'NONE', #291, #205, #323 ) ;
#189 = LINE ( 'NONE', #30, #150 ) ;
#190 = ORIENTED_EDGE ( 'NONE', *, *, #167, .F. ) ;
#191 = ORIENTED_EDGE ( 'NONE', *, *, #439, .F. ) ;
#192 =( NAMED_UNIT ( * ) PLANE_ANGLE_UNIT ( ) SI_UNIT ( $, .RADIAN. ) );
#193 = FACE_BOUND ( 'NONE', #343, .T. ) ;
#194 = ORIENTED_EDGE ( 'NONE', *, *, #285, .T. ) ;
#195 = DIRECTION ( 'NONE',  ( -0.000000000000000000, -1.000000000000000000, -0.000000000000000000 ) ) ;
#196 = DIRECTION ( 'NONE',  ( 0.000000000000000000, -1.000000000000000000, 0.000000000000000000 ) ) ;
#197 = VERTEX_POINT ( 'NONE', #345 ) ;
#198 = EDGE_LOOP ( 'NONE', ( #464, #38 ) ) ;
#199 = LINE ( 'NONE', #10, #114 ) ;
#200 = ORIENTED_EDGE ( 'NONE', *, *, #7, .T. ) ;
#201 = CIRCLE ( 'NONE', #98, 2.000000000000001776 ) ;
#202 = ORIENTED_EDGE ( 'NONE', *, *, #249, .T. ) ;
#203 = EDGE_CURVE ( 'NONE', #230, #158, #493, .T. ) ;
#204 = CARTESIAN_POINT ( 'NONE',  ( 40.99999999999999289, 0.000000000000000000, -41.00000000000000000 ) ) ;
#205 = DIRECTION ( 'NONE',  ( -0.000000000000000000, -1.000000000000000000, -0.000000000000000000 ) ) ;
#206 =( GEOMETRIC_REPRESENTATION_CONTEXT ( 3 ) GLOBAL_UNCERTAINTY_ASSIGNED_CONTEXT ( ( #216 ) ) GLOBAL_UNIT_ASSIGNED_CONTEXT ( ( #58, #253, #368 ) ) REPRESENTATION_CONTEXT ( 'NONE', 'WORKASPACE' ) );
#207 = STYLED_ITEM ( 'NONE', ( #32 ), #271 ) ;
#208 = CARTESIAN_POINT ( 'NONE',  ( 0.000000000000000000, 2.500000000000000000, 0.000000000000000000 ) ) ;
#209 = ORIENTED_EDGE ( 'NONE', *, *, #446, .T. ) ;
#210 = ADVANCED_FACE ( 'NONE', ( #348 ), #304, .F. ) ;
#211 = CARTESIAN_POINT ( 'NONE',  ( -41.00000000000000711, 2.500000000000000000, -41.00000000000000711 ) ) ;
#212 = CYLINDRICAL_SURFACE ( 'NONE', #365, 65.00000000000001421 ) ;
#213 = VERTEX_POINT ( 'NONE', #384 ) ;
#214 = PRODUCT_DEFINITION_FORMATION_WITH_SPECIFIED_SOURCE ( 'ANY', '', #70, .NOT_KNOWN. ) ;
#215 = CIRCLE ( 'NONE', #224, 65.00000000000001421 ) ;
#216 = UNCERTAINTY_MEASURE_WITH_UNIT (LENGTH_MEASURE( 1.000000000000000082E-05 ), #58, 'distance_accuracy_value', 'NONE');
#217 = DIRECTION ( 'NONE',  ( -0.000000000000000000, -1.000000000000000000, -0.000000000000000000 ) ) ;
#218 = CARTESIAN_POINT ( 'NONE',  ( 40.99999999999999289, 2.500000000000000000, 41.00000000000000000 ) ) ;
#219 = EDGE_CURVE ( 'NONE', #230, #162, #189, .T. ) ;
#220 = DIRECTION ( 'NONE',  ( 0.000000000000000000, -0.000000000000000000, 1.000000000000000000 ) ) ;
#221 = SURFACE_SIDE_STYLE ('',( #418 ) ) ;
#222 = EDGE_CURVE ( 'NONE', #96, #151, #457, .T. ) ;
#223 = VECTOR ( 'NONE', #87, 1000.000000000000000 ) ;
#224 = AXIS2_PLACEMENT_3D ( 'NONE', #102, #410, #141 ) ;
#225 = ORIENTED_EDGE ( 'NONE', *, *, #315, .F. ) ;
#226 = CARTESIAN_POINT ( 'NONE',  ( 0.000000000000000000, 0.000000000000000000, -13.30000000000000071 ) ) ;
#227 = EDGE_LOOP ( 'NONE', ( #347, #421, #159, #209 ) ) ;
#228 = ORIENTED_EDGE ( 'NONE', *, *, #431, .F. ) ;
#229 = DIRECTION ( 'NONE',  ( 0.000000000000000000, 0.000000000000000000, -1.000000000000000000 ) ) ;
#230 = VERTEX_POINT ( 'NONE', #267 ) ;
#231 = VERTEX_POINT ( 'NONE', #226 ) ;
#232 = DIRECTION ( 'NONE',  ( 0.000000000000000000, -1.000000000000000000, 0.000000000000000000 ) ) ;
#233 = EDGE_CURVE ( 'NONE', #239, #86, #62, .T. ) ;
#234 = CIRCLE ( 'NONE', #280, 2.000000000000001776 ) ;
#235 = ORIENTED_EDGE ( 'NONE', *, *, #169, .T. ) ;
#236 = CARTESIAN_POINT ( 'NONE',  ( 40.99999999999999289, 2.500000000000000000, 43.00000000000000000 ) ) ;
#237 = DIRECTION ( 'NONE',  ( 0.000000000000000000, 0.000000000000000000, -1.000000000000000000 ) ) ;
#238 = ORIENTED_EDGE ( 'NONE', *, *, #260, .F. ) ;
#239 = VERTEX_POINT ( 'NONE', #310 ) ;
#240 = CYLINDRICAL_SURFACE ( 'NONE', #27, 2.000000000000001776 ) ;
#241 = CARTESIAN_POINT ( 'NONE',  ( -41.00000000000000711, 0.000000000000000000, 43.00000000000000000 ) ) ;
#242 = ORIENTED_EDGE ( 'NONE', *, *, #446, .F. ) ;
#243 = ORIENTED_EDGE ( 'NONE', *, *, #104, .T. ) ;
#244 = CARTESIAN_POINT ( 'NONE',  ( 40.99999999999999289, 2.500000000000000000, -39.00000000000000000 ) ) ;
#245 = VERTEX_POINT ( 'NONE', #73 ) ;
#246 = AXIS2_PLACEMENT_3D ( 'NONE', #448, #142, #105 ) ;
#247 = CARTESIAN_POINT ( 'NONE',  ( 40.99999999999999289, 0.000000000000000000, 39.00000000000000000 ) ) ;
#248 = DIRECTION ( 'NONE',  ( -0.000000000000000000, -1.000000000000000000, -0.000000000000000000 ) ) ;
#249 = EDGE_CURVE ( 'NONE', #352, #41, #494, .T. ) ;
#250 = CARTESIAN_POINT ( 'NONE',  ( 40.99999999999999289, 0.000000000000000000, -41.00000000000000000 ) ) ;
#251 = AXIS2_PLACEMENT_3D ( 'NONE', #204, #466, #99 ) ;
#252 = AXIS2_PLACEMENT_3D ( 'NONE', #60, #248, #174 ) ;
#253 =( NAMED_UNIT ( * ) PLANE_ANGLE_UNIT ( ) SI_UNIT ( $, .RADIAN. ) );
#254 = CARTESIAN_POINT ( 'NONE',  ( 40.99999999999999289, 2.500000000000000000, -43.00000000000000000 ) ) ;
#255 = DIRECTION ( 'NONE',  ( 0.000000000000000000, 0.000000000000000000, -1.000000000000000000 ) ) ;
#256 = DIRECTION ( 'NONE',  ( 0.000000000000000000, 0.000000000000000000, 1.000000000000000000 ) ) ;
#257 = CARTESIAN_POINT ( 'NONE',  ( -41.00000000000000711, 2.500000000000000000, 43.00000000000000000 ) ) ;
#258 = CARTESIAN_POINT ( 'NONE',  ( 1.628780242865979955E-15, 0.000000000000000000, 13.30000000000000071 ) ) ;
#259 = DIRECTION ( 'NONE',  ( 0.000000000000000000, 0.000000000000000000, -1.000000000000000000 ) ) ;
#260 = EDGE_CURVE ( 'NONE', #398, #162, #234, .T. ) ;
#261 = CIRCLE ( 'NONE', #40, 65.00000000000001421 ) ;
#262 = AXIS2_PLACEMENT_3D ( 'NONE', #157, #52, #318 ) ;
#263 = AXIS2_PLACEMENT_3D ( 'NONE', #338, #369, #491 ) ;
#264 = CARTESIAN_POINT ( 'NONE',  ( -41.00000000000000711, 2.500000000000000000, 40.99999999999999289 ) ) ;
#265 = CARTESIAN_POINT ( 'NONE',  ( -41.00000000000000711, 2.500000000000000000, -43.00000000000000711 ) ) ;
#266 = FILL_AREA_STYLE ('',( #149 ) ) ;
#267 = CARTESIAN_POINT ( 'NONE',  ( -41.00000000000000711, 2.500000000000000000, 38.99999999999999289 ) ) ;
#268 = AXIS2_PLACEMENT_3D ( 'NONE', #288, #125, #237 ) ;
#269 = AXIS2_PLACEMENT_3D ( 'NONE', #341, #153, #229 ) ;
#270 = CARTESIAN_POINT ( 'NONE',  ( -41.00000000000000711, 0.000000000000000000, 40.99999999999999289 ) ) ;
#271 = MANIFOLD_SOLID_BREP ( 'Cut-Extrude2', #77 ) ;
#272 = EDGE_LOOP ( 'NONE', ( #242, #238 ) ) ;
#273 = DIRECTION ( 'NONE',  ( -0.000000000000000000, -1.000000000000000000, -0.000000000000000000 ) ) ;
#274 = EDGE_CURVE ( 'NONE', #46, #231, #156, .T. ) ;
#275 = ORIENTED_EDGE ( 'NONE', *, *, #404, .T. ) ;
#276 = DIRECTION ( 'NONE',  ( 0.000000000000000000, 0.000000000000000000, -1.000000000000000000 ) ) ;
#277 = EDGE_LOOP ( 'NONE', ( #82, #413, #37, #360 ) ) ;
#278 = CARTESIAN_POINT ( 'NONE',  ( 40.99999999999999289, 2.500000000000000000, -41.00000000000000000 ) ) ;
#279 = AXIS2_PLACEMENT_3D ( 'NONE', #264, #273, #3 ) ;
#280 = AXIS2_PLACEMENT_3D ( 'NONE', #270, #75, #186 ) ;
#281 = DIRECTION ( 'NONE',  ( 0.000000000000000000, 0.000000000000000000, -1.000000000000000000 ) ) ;
#282 = ORIENTED_EDGE ( 'NONE', *, *, #490, .F. ) ;
#283 = ORIENTED_EDGE ( 'NONE', *, *, #179, .F. ) ;
#284 = FACE_OUTER_BOUND ( 'NONE', #349, .T. ) ;
#285 = EDGE_CURVE ( 'NONE', #119, #231, #440, .T. ) ;
#286 = FACE_OUTER_BOUND ( 'NONE', #383, .T. ) ;
#287 = ORIENTED_EDGE ( 'NONE', *, *, #363, .T. ) ;
#288 = CARTESIAN_POINT ( 'NONE',  ( 40.99999999999999289, 2.500000000000000000, -41.00000000000000000 ) ) ;
#289 = EDGE_LOOP ( 'NONE', ( #55, #225 ) ) ;
#290 =( GEOMETRIC_REPRESENTATION_CONTEXT ( 3 ) GLOBAL_UNCERTAINTY_ASSIGNED_CONTEXT ( ( #330 ) ) GLOBAL_UNIT_ASSIGNED_CONTEXT ( ( #455, #192, #51 ) ) REPRESENTATION_CONTEXT ( 'NONE', 'WORKASPACE' ) );
#291 = CARTESIAN_POINT ( 'NONE',  ( -41.00000000000000711, 2.500000000000000000, -41.00000000000000711 ) ) ;
#292 = VECTOR ( 'NONE', #36, 1000.000000000000000 ) ;
#293 = CARTESIAN_POINT ( 'NONE',  ( 0.000000000000000000, 0.000000000000000000, 0.000000000000000000 ) ) ;
#294 = EDGE_CURVE ( 'NONE', #86, #197, #316, .T. ) ;
#295 = FACE_OUTER_BOUND ( 'NONE', #296, .T. ) ;
#296 = EDGE_LOOP ( 'NONE', ( #129, #473, #93, #14 ) ) ;
#297 = CIRCLE ( 'NONE', #450, 2.000000000000001776 ) ;
#298 = CYLINDRICAL_SURFACE ( 'NONE', #252, 65.00000000000001421 ) ;
#299 = CARTESIAN_POINT ( 'NONE',  ( -41.00000000000000711, 2.500000000000000000, -41.00000000000000711 ) ) ;
#300 = CYLINDRICAL_SURFACE ( 'NONE', #470, 13.30000000000000071 ) ;
#301 = CIRCLE ( 'NONE', #399, 13.30000000000000071 ) ;
#302 = LINE ( 'NONE', #487, #132 ) ;
#303 = MECHANICAL_DESIGN_GEOMETRIC_PRESENTATION_REPRESENTATION (  '', ( #207 ), #290 ) ;
#304 = CYLINDRICAL_SURFACE ( 'NONE', #184, 2.000000000000001776 ) ;
#305 = ORIENTED_EDGE ( 'NONE', *, *, #380, .T. ) ;
#306 = ADVANCED_FACE ( 'NONE', ( #284 ), #240, .F. ) ;
#307 = DIRECTION ( 'NONE',  ( 0.000000000000000000, 0.000000000000000000, -1.000000000000000000 ) ) ;
#308 = DIRECTION ( 'NONE',  ( -0.000000000000000000, -1.000000000000000000, -0.000000000000000000 ) ) ;
#309 = ORIENTED_EDGE ( 'NONE', *, *, #110, .T. ) ;
#310 = CARTESIAN_POINT ( 'NONE',  ( 40.99999999999999289, 2.500000000000000000, 39.00000000000000000 ) ) ;
#311 = VERTEX_POINT ( 'NONE', #424 ) ;
#312 = CYLINDRICAL_SURFACE ( 'NONE', #69, 13.30000000000000071 ) ;
#313 = EDGE_LOOP ( 'NONE', ( #393, #50 ) ) ;
#314 = EDGE_LOOP ( 'NONE', ( #126, #243 ) ) ;
#315 = EDGE_CURVE ( 'NONE', #112, #245, #297, .T. ) ;
#316 = LINE ( 'NONE', #236, #223 ) ;
#317 = CIRCLE ( 'NONE', #479, 2.000000000000001776 ) ;
#318 = DIRECTION ( 'NONE',  ( 0.000000000000000000, 0.000000000000000000, -1.000000000000000000 ) ) ;
#319 = ORIENTED_EDGE ( 'NONE', *, *, #143, .T. ) ;
#320 = CARTESIAN_POINT ( 'NONE',  ( -41.00000000000000711, 2.500000000000000000, 40.99999999999999289 ) ) ;
#321 = VERTEX_POINT ( 'NONE', #9 ) ;
#322 = DIRECTION ( 'NONE',  ( 0.000000000000000000, -1.000000000000000000, 0.000000000000000000 ) ) ;
#323 = DIRECTION ( 'NONE',  ( 0.000000000000000000, 0.000000000000000000, -1.000000000000000000 ) ) ;
#324 = VECTOR ( 'NONE', #63, 1000.000000000000000 ) ;
#325 = DIRECTION ( 'NONE',  ( 0.000000000000000000, 1.000000000000000000, 0.000000000000000000 ) ) ;
#326 = DIRECTION ( 'NONE',  ( 0.000000000000000000, 0.000000000000000000, -1.000000000000000000 ) ) ;
#327 = EDGE_LOOP ( 'NONE', ( #122, #460, #436, #309 ) ) ;
#328 = FACE_BOUND ( 'NONE', #8, .T. ) ;
#329 = DIRECTION ( 'NONE',  ( 0.000000000000000000, 0.000000000000000000, 1.000000000000000000 ) ) ;
#330 = UNCERTAINTY_MEASURE_WITH_UNIT (LENGTH_MEASURE( 1.000000000000000082E-05 ), #455, 'distance_accuracy_value', 'NONE');
#331 = ADVANCED_FACE ( 'NONE', ( #433 ), #47, .F. ) ;
#332 = CARTESIAN_POINT ( 'NONE',  ( 40.99999999999999289, 0.000000000000000000, -43.00000000000000000 ) ) ;
#333 = VECTOR ( 'NONE', #401, 1000.000000000000000 ) ;
#334 = CIRCLE ( 'NONE', #246, 2.000000000000001776 ) ;
#335 = CARTESIAN_POINT ( 'NONE',  ( 7.960204194457798830E-15, 2.500000000000000000, 65.00000000000001421 ) ) ;
#336 = DIRECTION ( 'NONE',  ( -0.000000000000000000, -1.000000000000000000, -0.000000000000000000 ) ) ;
#337 = CARTESIAN_POINT ( 'NONE',  ( 0.000000000000000000, 2.500000000000000000, 0.000000000000000000 ) ) ;
#338 = CARTESIAN_POINT ( 'NONE',  ( 0.000000000000000000, 0.000000000000000000, 0.000000000000000000 ) ) ;
#339 = CARTESIAN_POINT ( 'NONE',  ( -41.00000000000000711, 0.000000000000000000, -41.00000000000000711 ) ) ;
#340 = ADVANCED_FACE ( 'NONE', ( #120 ), #391, .F. ) ;
#341 = CARTESIAN_POINT ( 'NONE',  ( -41.00000000000000711, 2.500000000000000000, 40.99999999999999289 ) ) ;
#342 = ADVANCED_BREP_SHAPE_REPRESENTATION ( 'b2w f-lange', ( #271, #183 ), #206 ) ;
#343 = EDGE_LOOP ( 'NONE', ( #81, #462 ) ) ;
#344 = DIRECTION ( 'NONE',  ( 0.000000000000000000, 0.000000000000000000, -1.000000000000000000 ) ) ;
#345 = CARTESIAN_POINT ( 'NONE',  ( 40.99999999999999289, 0.000000000000000000, 43.00000000000000000 ) ) ;
#346 = AXIS2_PLACEMENT_3D ( 'NONE', #397, #168, #359 ) ;
#347 = ORIENTED_EDGE ( 'NONE', *, *, #169, .F. ) ;
#348 = FACE_OUTER_BOUND ( 'NONE', #94, .T. ) ;
#349 = EDGE_LOOP ( 'NONE', ( #152, #382, #357, #432 ) ) ;
#350 = DIRECTION ( 'NONE',  ( 0.000000000000000000, 0.000000000000000000, -1.000000000000000000 ) ) ;
#351 = FACE_OUTER_BOUND ( 'NONE', #155, .T. ) ;
#352 = VERTEX_POINT ( 'NONE', #472 ) ;
#353 = DIRECTION ( 'NONE',  ( 0.000000000000000000, 0.000000000000000000, -1.000000000000000000 ) ) ;
#354 = ORIENTED_EDGE ( 'NONE', *, *, #431, .T. ) ;
#355 = EDGE_CURVE ( 'NONE', #163, #311, #76, .T. ) ;
#356 = AXIS2_PLACEMENT_3D ( 'NONE', #278, #195, #281 ) ;
#357 = ORIENTED_EDGE ( 'NONE', *, *, #179, .T. ) ;
#358 = PRODUCT_DEFINITION_CONTEXT ( 'detailed design', #67, 'design' ) ;
#359 = DIRECTION ( 'NONE',  ( 0.000000000000000000, 0.000000000000000000, 1.000000000000000000 ) ) ;
#360 = ORIENTED_EDGE ( 'NONE', *, *, #34, .T. ) ;
#361 = ORIENTED_EDGE ( 'NONE', *, *, #367, .F. ) ;
#362 = FACE_BOUND ( 'NONE', #289, .T. ) ;
#363 = EDGE_CURVE ( 'NONE', #136, #46, #468, .T. ) ;
#364 = FACE_BOUND ( 'NONE', #272, .T. ) ;
#365 = AXIS2_PLACEMENT_3D ( 'NONE', #408, #336, #61 ) ;
#366 = PRODUCT_DEFINITION_SHAPE ( 'NONE', 'NONE',  #100 ) ;
#367 = EDGE_CURVE ( 'NONE', #390, #213, #199, .T. ) ;
#368 =( NAMED_UNIT ( * ) SI_UNIT ( $, .STERADIAN. ) SOLID_ANGLE_UNIT ( ) );
#369 = DIRECTION ( 'NONE',  ( 0.000000000000000000, 1.000000000000000000, 0.000000000000000000 ) ) ;
#370 = CARTESIAN_POINT ( 'NONE',  ( -41.00000000000000711, 2.500000000000000000, -39.00000000000000711 ) ) ;
#371 = VECTOR ( 'NONE', #217, 1000.000000000000000 ) ;
#372 = FACE_OUTER_BOUND ( 'NONE', #402, .T. ) ;
#373 = ORIENTED_EDGE ( 'NONE', *, *, #137, .T. ) ;
#374 = DIRECTION ( 'NONE',  ( -0.000000000000000000, -1.000000000000000000, -0.000000000000000000 ) ) ;
#375 = ADVANCED_FACE ( 'NONE', ( #286 ), #312, .F. ) ;
#376 = PLANE ( 'NONE',  #85 ) ;
#377 = SURFACE_STYLE_USAGE ( .BOTH. , #221 ) ;
#378 = CARTESIAN_POINT ( 'NONE',  ( -41.00000000000000711, 2.500000000000000000, 43.00000000000000000 ) ) ;
#379 = ORIENTED_EDGE ( 'NONE', *, *, #355, .T. ) ;
#380 = EDGE_CURVE ( 'NONE', #311, #163, #485, .T. ) ;
#381 = LINE ( 'NONE', #378, #108 ) ;
#382 = ORIENTED_EDGE ( 'NONE', *, *, #294, .T. ) ;
#383 = EDGE_LOOP ( 'NONE', ( #190, #228, #187, #16 ) ) ;
#384 = CARTESIAN_POINT ( 'NONE',  ( 0.000000000000000000, 0.000000000000000000, -65.00000000000001421 ) ) ;
#385 = ORIENTED_EDGE ( 'NONE', *, *, #66, .F. ) ;
#386 = AXIS2_PLACEMENT_3D ( 'NONE', #459, #80, #344 ) ;
#387 = ORIENTED_EDGE ( 'NONE', *, *, #59, .F. ) ;
#388 = DIRECTION ( 'NONE',  ( -0.000000000000000000, -1.000000000000000000, -0.000000000000000000 ) ) ;
#389 = DIRECTION ( 'NONE',  ( -0.000000000000000000, -1.000000000000000000, -0.000000000000000000 ) ) ;
#390 = VERTEX_POINT ( 'NONE', #92 ) ;
#391 = CYLINDRICAL_SURFACE ( 'NONE', #356, 2.000000000000001776 ) ;
#392 = DIRECTION ( 'NONE',  ( 0.000000000000000000, -1.000000000000000000, 0.000000000000000000 ) ) ;
#393 = ORIENTED_EDGE ( 'NONE', *, *, #203, .T. ) ;
#394 = ADVANCED_FACE ( 'NONE', ( #434 ), #128, .F. ) ;
#395 = ORIENTED_EDGE ( 'NONE', *, *, #59, .T. ) ;
#396 = DIRECTION ( 'NONE',  ( -0.000000000000000000, -1.000000000000000000, -0.000000000000000000 ) ) ;
#397 = CARTESIAN_POINT ( 'NONE',  ( 0.000000000000000000, 2.500000000000000000, 0.000000000000000000 ) ) ;
#398 = VERTEX_POINT ( 'NONE', #241 ) ;
#399 = AXIS2_PLACEMENT_3D ( 'NONE', #18, #392, #164 ) ;
#400 = AXIS2_PLACEMENT_3D ( 'NONE', #182, #106, #255 ) ;
#401 = DIRECTION ( 'NONE',  ( -0.000000000000000000, -1.000000000000000000, -0.000000000000000000 ) ) ;
#402 = EDGE_LOOP ( 'NONE', ( #275, #166 ) ) ;
#403 = FACE_OUTER_BOUND ( 'NONE', #113, .T. ) ;
#404 = EDGE_CURVE ( 'NONE', #390, #96, #54, .T. ) ;
#405 = DIRECTION ( 'NONE',  ( 1.000000000000000000, 0.000000000000000000, 0.000000000000000000 ) ) ;
#406 = EDGE_CURVE ( 'NONE', #239, #430, #15, .T. ) ;
#407 = CARTESIAN_POINT ( 'NONE',  ( 0.000000000000000000, 2.500000000000000000, 0.000000000000000000 ) ) ;
#408 = CARTESIAN_POINT ( 'NONE',  ( 0.000000000000000000, 2.500000000000000000, 0.000000000000000000 ) ) ;
#409 = LINE ( 'NONE', #414, #371 ) ;
#410 = DIRECTION ( 'NONE',  ( 0.000000000000000000, 1.000000000000000000, 0.000000000000000000 ) ) ;
#411 = CARTESIAN_POINT ( 'NONE',  ( 0.000000000000000000, 0.000000000000000000, 0.000000000000000000 ) ) ;
#412 = DIRECTION ( 'NONE',  ( -0.000000000000000000, -1.000000000000000000, -0.000000000000000000 ) ) ;
#413 = ORIENTED_EDGE ( 'NONE', *, *, #233, .F. ) ;
#414 = CARTESIAN_POINT ( 'NONE',  ( 1.628780242865979955E-15, 2.500000000000000000, 13.30000000000000071 ) ) ;
#415 = CIRCLE ( 'NONE', #251, 2.000000000000001776 ) ;
#416 = VECTOR ( 'NONE', #178, 1000.000000000000000 ) ;
#417 = FACE_BOUND ( 'NONE', #165, .T. ) ;
#418 = SURFACE_STYLE_FILL_AREA ( #266 ) ;
#419 = CIRCLE ( 'NONE', #477, 2.000000000000001776 ) ;
#420 = FACE_OUTER_BOUND ( 'NONE', #471, .T. ) ;
#421 = ORIENTED_EDGE ( 'NONE', *, *, #203, .F. ) ;
#422 = CARTESIAN_POINT ( 'NONE',  ( 40.99999999999999289, 2.500000000000000000, -41.00000000000000000 ) ) ;
#423 = EDGE_LOOP ( 'NONE', ( #11, #438, #194, #5 ) ) ;
#424 = CARTESIAN_POINT ( 'NONE',  ( 40.99999999999999289, 2.500000000000000000, -39.00000000000000000 ) ) ;
#425 = CIRCLE ( 'NONE', #263, 65.00000000000001421 ) ;
#426 = ORIENTED_EDGE ( 'NONE', *, *, #34, .F. ) ;
#427 = CARTESIAN_POINT ( 'NONE',  ( 40.99999999999999289, 2.500000000000000000, 41.00000000000000000 ) ) ;
#428 = EDGE_CURVE ( 'NONE', #321, #127, #415, .T. ) ;
#429 = CARTESIAN_POINT ( 'NONE',  ( -41.00000000000000711, 2.500000000000000000, 40.99999999999999289 ) ) ;
#430 = VERTEX_POINT ( 'NONE', #247 ) ;
#431 = EDGE_CURVE ( 'NONE', #46, #136, #301, .T. ) ;
#432 = ORIENTED_EDGE ( 'NONE', *, *, #406, .F. ) ;
#433 = FACE_OUTER_BOUND ( 'NONE', #277, .T. ) ;
#434 = FACE_OUTER_BOUND ( 'NONE', #227, .T. ) ;
#435 = EDGE_LOOP ( 'NONE', ( #90, #89 ) ) ;
#436 = ORIENTED_EDGE ( 'NONE', *, *, #367, .T. ) ;
#437 = DIRECTION ( 'NONE',  ( 0.000000000000000000, -1.000000000000000000, 0.000000000000000000 ) ) ;
#438 = ORIENTED_EDGE ( 'NONE', *, *, #167, .T. ) ;
#439 = EDGE_CURVE ( 'NONE', #158, #230, #84, .T. ) ;
#440 = CIRCLE ( 'NONE', #171, 13.30000000000000071 ) ;
#441 = FACE_BOUND ( 'NONE', #444, .T. ) ;
#442 = DIRECTION ( 'NONE',  ( 0.000000000000000000, 1.000000000000000000, 0.000000000000000000 ) ) ;
#443 = DIRECTION ( 'NONE',  ( 0.000000000000000000, 0.000000000000000000, -1.000000000000000000 ) ) ;
#444 = EDGE_LOOP ( 'NONE', ( #426, #283 ) ) ;
#445 = SHAPE_DEFINITION_REPRESENTATION ( #366, #342 ) ;
#446 = EDGE_CURVE ( 'NONE', #162, #398, #419, .T. ) ;
#447 = ORIENTED_EDGE ( 'NONE', *, *, #315, .T. ) ;
#448 = CARTESIAN_POINT ( 'NONE',  ( 40.99999999999999289, 0.000000000000000000, 41.00000000000000000 ) ) ;
#449 = ADVANCED_FACE ( 'NONE', ( #403 ), #57, .F. ) ;
#450 = AXIS2_PLACEMENT_3D ( 'NONE', #83, #232, #350 ) ;
#451 = AXIS2_PLACEMENT_3D ( 'NONE', #250, #23, #259 ) ;
#452 = PRESENTATION_LAYER_ASSIGNMENT (  '', '', ( #207 ) ) ;
#453 = FACE_BOUND ( 'NONE', #314, .T. ) ;
#454 = DIRECTION ( 'NONE',  ( 0.000000000000000000, 0.000000000000000000, -1.000000000000000000 ) ) ;
#455 =( LENGTH_UNIT ( ) NAMED_UNIT ( * ) SI_UNIT ( .MILLI., .METRE. ) );
#456 = PRODUCT_RELATED_PRODUCT_CATEGORY ( 'part', '', ( #70 ) ) ;
#457 = LINE ( 'NONE', #78, #292 ) ;
#458 = AXIS2_PLACEMENT_3D ( 'NONE', #480, #196, #56 ) ;
#459 = CARTESIAN_POINT ( 'NONE',  ( 40.99999999999999289, 0.000000000000000000, 41.00000000000000000 ) ) ;
#460 = ORIENTED_EDGE ( 'NONE', *, *, #404, .F. ) ;
#461 = DIRECTION ( 'NONE',  ( 0.000000000000000000, 0.000000000000000000, -1.000000000000000000 ) ) ;
#462 = ORIENTED_EDGE ( 'NONE', *, *, #428, .F. ) ;
#463 = EDGE_CURVE ( 'NONE', #311, #321, #161, .T. ) ;
#464 = ORIENTED_EDGE ( 'NONE', *, *, #110, .F. ) ;
#465 = DIRECTION ( 'NONE',  ( 0.000000000000000000, -1.000000000000000000, 0.000000000000000000 ) ) ;
#466 = DIRECTION ( 'NONE',  ( 0.000000000000000000, -1.000000000000000000, 0.000000000000000000 ) ) ;
#467 = ORIENTED_EDGE ( 'NONE', *, *, #463, .F. ) ;
#468 = CIRCLE ( 'NONE', #262, 13.30000000000000071 ) ;
#469 = APPLICATION_CONTEXT ( 'automotive_design' ) ;
#470 = AXIS2_PLACEMENT_3D ( 'NONE', #407, #64, #68 ) ;
#471 = EDGE_LOOP ( 'NONE', ( #191, #235, #79, #4 ) ) ;
#472 = CARTESIAN_POINT ( 'NONE',  ( -41.00000000000000711, 2.500000000000000000, -43.00000000000000711 ) ) ;
#473 = ORIENTED_EDGE ( 'NONE', *, *, #249, .F. ) ;
#474 = CARTESIAN_POINT ( 'NONE',  ( 0.000000000000000000, 2.500000000000000000, 0.000000000000000000 ) ) ;
#475 = EDGE_LOOP ( 'NONE', ( #467, #123, #482, #373 ) ) ;
#476 = DIRECTION ( 'NONE',  ( 0.000000000000000000, 0.000000000000000000, -1.000000000000000000 ) ) ;
#477 = AXIS2_PLACEMENT_3D ( 'NONE', #48, #437, #95 ) ;
#478 = AXIS2_PLACEMENT_3D ( 'NONE', #320, #322, #476 ) ;
#479 = AXIS2_PLACEMENT_3D ( 'NONE', #218, #31, #72 ) ;
#480 = CARTESIAN_POINT ( 'NONE',  ( 40.99999999999999289, 2.500000000000000000, -41.00000000000000000 ) ) ;
#481 = APPLICATION_PROTOCOL_DEFINITION ( 'draft international standard', 'automotive_design', 1998, #67 ) ;
#482 = ORIENTED_EDGE ( 'NONE', *, *, #39, .T. ) ;
#483 = ADVANCED_FACE ( 'NONE', ( #362, #193, #441, #364, #19, #170 ), #134, .F. ) ;
#484 = DIRECTION ( 'NONE',  ( 0.000000000000000000, 0.000000000000000000, -1.000000000000000000 ) ) ;
#485 = CIRCLE ( 'NONE', #268, 2.000000000000001776 ) ;
#486 = AXIS2_PLACEMENT_3D ( 'NONE', #299, #412, #443 ) ;
#487 = CARTESIAN_POINT ( 'NONE',  ( 40.99999999999999289, 2.500000000000000000, -43.00000000000000000 ) ) ;
#488 = CARTESIAN_POINT ( 'NONE',  ( 1.628780242865979955E-15, 2.500000000000000000, 13.30000000000000071 ) ) ;
#489 = ADVANCED_FACE ( 'NONE', ( #351 ), #212, .T. ) ;
#490 = EDGE_CURVE ( 'NONE', #96, #390, #261, .T. ) ;
#491 = DIRECTION ( 'NONE',  ( 0.000000000000000000, 0.000000000000000000, 1.000000000000000000 ) ) ;
#492 = CARTESIAN_POINT ( 'NONE',  ( 40.99999999999999289, 2.500000000000000000, 41.00000000000000000 ) ) ;
#493 = CIRCLE ( 'NONE', #269, 2.000000000000001776 ) ;
#494 = CIRCLE ( 'NONE', #172, 2.000000000000001776 ) ;
#495 = DIRECTION ( 'NONE',  ( 0.000000000000000000, -1.000000000000000000, 0.000000000000000000 ) ) ;
ENDSEC;
END-ISO-10303-21;
