ISO-10303-21;
HEADER;
FILE_DESCRIPTION (( 'STEP AP214' ),
    '1' );
FILE_NAME ('center shaft.STEP',
    '2026-02-20T11:39:49',
    ( '' ),
    ( '' ),
    'SwSTEP 2.0',
    'SolidWorks 2023',
    '' );
FILE_SCHEMA (( 'AUTOMOTIVE_DESIGN' ));
ENDSEC;

DATA;
#1 = AXIS2_PLACEMENT_3D ( 'NONE', #43, #470, #117 ) ;
#2 = APPLICATION_CONTEXT ( 'automotive_design' ) ;
#3 = FACE_BOUND ( 'NONE', #387, .T. ) ;
#4 =( NAMED_UNIT ( * ) SI_UNIT ( $, .STERADIAN. ) SOLID_ANGLE_UNIT ( ) );
#5 = PLANE ( 'NONE',  #17 ) ;
#6 = EDGE_CURVE ( 'NONE', #504, #369, #25, .T. ) ;
#7 = APPLICATION_PROTOCOL_DEFINITION ( 'draft international standard', 'automotive_design', 1998, #2 ) ;
#8 = PRESENTATION_STYLE_ASSIGNMENT (( #243 ) ) ;
#9 = PLANE ( 'NONE',  #291 ) ;
#10 = DIRECTION ( 'NONE',  ( -0.000000000000000000, 1.000000000000000000, -0.000000000000000000 ) ) ;
#11 = DIRECTION ( 'NONE',  ( -0.000000000000000000, 1.000000000000000000, -0.000000000000000000 ) ) ;
#12 = CIRCLE ( 'NONE', #92, 13.00000000000000178 ) ;
#13 = AXIS2_PLACEMENT_3D ( 'NONE', #278, #316, #284 ) ;
#14 = DIRECTION ( 'NONE',  ( 0.000000000000000000, -0.000000000000000000, 1.000000000000000000 ) ) ;
#15 = CARTESIAN_POINT ( 'NONE',  ( 0.000000000000000000, 57.49999999999999289, 13.00000000000000178 ) ) ;
#16 = AXIS2_PLACEMENT_3D ( 'NONE', #340, #132, #67 ) ;
#17 = AXIS2_PLACEMENT_3D ( 'NONE', #205, #283, #436 ) ;
#18 = EDGE_CURVE ( 'NONE', #506, #58, #186, .T. ) ;
#19 = EDGE_CURVE ( 'NONE', #229, #254, #373, .T. ) ;
#20 = ORIENTED_EDGE ( 'NONE', *, *, #170, .F. ) ;
#21 = CARTESIAN_POINT ( 'NONE',  ( 0.000000000000000000, 62.00000000000000000, 0.000000000000000000 ) ) ;
#22 = DIRECTION ( 'NONE',  ( 0.000000000000000000, 0.000000000000000000, 1.000000000000000000 ) ) ;
#23 = EDGE_LOOP ( 'NONE', ( #227, #150, #457, #501 ) ) ;
#24 = PRODUCT_DEFINITION_FORMATION_WITH_SPECIFIED_SOURCE ( 'ANY', '', #386, .NOT_KNOWN. ) ;
#25 = LINE ( 'NONE', #218, #403 ) ;
#26 = EDGE_CURVE ( 'NONE', #193, #230, #282, .T. ) ;
#27 = CARTESIAN_POINT ( 'NONE',  ( 0.000000000000000000, 57.49999999999999289, 13.00000000000000178 ) ) ;
#28 = ORIENTED_EDGE ( 'NONE', *, *, #472, .T. ) ;
#29 = DIRECTION ( 'NONE',  ( -0.000000000000000000, 1.000000000000000000, -0.000000000000000000 ) ) ;
#30 = DIRECTION ( 'NONE',  ( 0.000000000000000000, 0.000000000000000000, 1.000000000000000000 ) ) ;
#31 = VERTEX_POINT ( 'NONE', #442 ) ;
#32 = DIRECTION ( 'NONE',  ( -0.000000000000000000, -1.000000000000000000, -0.000000000000000000 ) ) ;
#33 = DIRECTION ( 'NONE',  ( 0.000000000000000000, 1.000000000000000000, 0.000000000000000000 ) ) ;
#34 = ORIENTED_EDGE ( 'NONE', *, *, #467, .T. ) ;
#35 = UNCERTAINTY_MEASURE_WITH_UNIT (LENGTH_MEASURE( 1.000000000000000082E-05 ), #85, 'distance_accuracy_value', 'NONE');
#36 = ORIENTED_EDGE ( 'NONE', *, *, #344, .T. ) ;
#37 = FACE_BOUND ( 'NONE', #380, .T. ) ;
#38 = ORIENTED_EDGE ( 'NONE', *, *, #18, .F. ) ;
#39 = ORIENTED_EDGE ( 'NONE', *, *, #345, .F. ) ;
#40 = AXIS2_PLACEMENT_3D ( 'NONE', #103, #270, #64 ) ;
#41 = CIRCLE ( 'NONE', #445, 13.00000000000000178 ) ;
#42 = EDGE_CURVE ( 'NONE', #31, #335, #426, .T. ) ;
#43 = CARTESIAN_POINT ( 'NONE',  ( 0.000000000000000000, 0.000000000000000000, 0.000000000000000000 ) ) ;
#44 = ORIENTED_EDGE ( 'NONE', *, *, #71, .F. ) ;
#45 = CARTESIAN_POINT ( 'NONE',  ( 0.000000000000000000, 57.49999999999999289, 0.000000000000000000 ) ) ;
#46 = CARTESIAN_POINT ( 'NONE',  ( 1.836970198721029589E-15, 57.49999999999999289, 15.00000000000000000 ) ) ;
#47 = LINE ( 'NONE', #160, #404 ) ;
#48 = DIRECTION ( 'NONE',  ( 0.000000000000000000, 0.000000000000000000, 1.000000000000000000 ) ) ;
#49 = DIRECTION ( 'NONE',  ( 0.000000000000000000, 1.000000000000000000, 0.000000000000000000 ) ) ;
#50 = DIRECTION ( 'NONE',  ( -0.000000000000000000, 1.000000000000000000, -0.000000000000000000 ) ) ;
#51 = DIRECTION ( 'NONE',  ( 0.000000000000000000, 1.000000000000000000, -0.000000000000000000 ) ) ;
#52 = EDGE_CURVE ( 'NONE', #100, #376, #41, .T. ) ;
#53 = AXIS2_PLACEMENT_3D ( 'NONE', #477, #77, #235 ) ;
#54 = DIRECTION ( 'NONE',  ( -0.000000000000000000, -1.000000000000000000, -0.000000000000000000 ) ) ;
#55 = ORIENTED_EDGE ( 'NONE', *, *, #143, .T. ) ;
#56 = CARTESIAN_POINT ( 'NONE',  ( 0.000000000000000000, 25.00000000000000000, 0.000000000000000000 ) ) ;
#57 = DIRECTION ( 'NONE',  ( 0.000000000000000000, 0.000000000000000000, -1.000000000000000000 ) ) ;
#58 = VERTEX_POINT ( 'NONE', #98 ) ;
#59 = VECTOR ( 'NONE', #488, 1000.000000000000000 ) ;
#60 = DIRECTION ( 'NONE',  ( 0.000000000000000000, 0.000000000000000000, 1.000000000000000000 ) ) ;
#61 = CARTESIAN_POINT ( 'NONE',  ( 0.000000000000000000, 66.00000000000000000, 0.000000000000000000 ) ) ;
#62 = ORIENTED_EDGE ( 'NONE', *, *, #6, .T. ) ;
#63 = CARTESIAN_POINT ( 'NONE',  ( 0.000000000000000000, 64.00000000000000000, 0.000000000000000000 ) ) ;
#64 = DIRECTION ( 'NONE',  ( 0.000000000000000000, 0.000000000000000000, -1.000000000000000000 ) ) ;
#65 = EDGE_LOOP ( 'NONE', ( #261, #460, #258, #140 ) ) ;
#66 = VERTEX_POINT ( 'NONE', #142 ) ;
#67 = DIRECTION ( 'NONE',  ( 0.000000000000000000, 0.000000000000000000, 1.000000000000000000 ) ) ;
#68 = ORIENTED_EDGE ( 'NONE', *, *, #447, .F. ) ;
#69 = EDGE_LOOP ( 'NONE', ( #97, #497, #407 ) ) ;
#70 = EDGE_CURVE ( 'NONE', #335, #363, #190, .T. ) ;
#71 = EDGE_CURVE ( 'NONE', #422, #506, #302, .T. ) ;
#72 = CYLINDRICAL_SURFACE ( 'NONE', #16, 13.00000000000000178 ) ;
#73 = EDGE_LOOP ( 'NONE', ( #201, #288, #93 ) ) ;
#74 = VECTOR ( 'NONE', #11, 1000.000000000000000 ) ;
#75 = ADVANCED_FACE ( 'NONE', ( #451 ), #370, .T. ) ;
#76 =( NAMED_UNIT ( * ) SI_UNIT ( $, .STERADIAN. ) SOLID_ANGLE_UNIT ( ) );
#77 = DIRECTION ( 'NONE',  ( -0.000000000000000000, -1.000000000000000000, -0.000000000000000000 ) ) ;
#78 = CARTESIAN_POINT ( 'NONE',  ( 0.000000000000000000, 25.00000000000000000, 0.000000000000000000 ) ) ;
#79 = CARTESIAN_POINT ( 'NONE',  ( 0.000000000000000000, 57.49999999999999289, 0.000000000000000000 ) ) ;
#80 = FACE_OUTER_BOUND ( 'NONE', #65, .T. ) ;
#81 = CIRCLE ( 'NONE', #458, 7.000000000000000888 ) ;
#82 = DIRECTION ( 'NONE',  ( 0.000000000000000000, 0.000000000000000000, 1.000000000000000000 ) ) ;
#83 = DIRECTION ( 'NONE',  ( -0.000000000000000000, -1.000000000000000000, -0.000000000000000000 ) ) ;
#84 = DIRECTION ( 'NONE',  ( 0.000000000000000000, 0.000000000000000000, 1.000000000000000000 ) ) ;
#85 =( LENGTH_UNIT ( ) NAMED_UNIT ( * ) SI_UNIT ( .MILLI., .METRE. ) );
#86 = CARTESIAN_POINT ( 'NONE',  ( 0.000000000000000000, 66.00000000000000000, 0.000000000000000000 ) ) ;
#87 = ADVANCED_FACE ( 'NONE', ( #333 ), #374, .T. ) ;
#88 = PLANE ( 'NONE',  #119 ) ;
#89 = ADVANCED_FACE ( 'NONE', ( #134 ), #498, .T. ) ;
#90 = DIRECTION ( 'NONE',  ( -0.000000000000000000, 1.000000000000000000, -0.000000000000000000 ) ) ;
#91 = CIRCLE ( 'NONE', #164, 4.099999999999999645 ) ;
#92 = AXIS2_PLACEMENT_3D ( 'NONE', #114, #49, #82 ) ;
#93 = ORIENTED_EDGE ( 'NONE', *, *, #434, .F. ) ;
#94 = CARTESIAN_POINT ( 'NONE',  ( 0.000000000000000000, 27.50000000000000000, 0.000000000000000000 ) ) ;
#95 = DIRECTION ( 'NONE',  ( 0.000000000000000000, 0.000000000000000000, 1.000000000000000000 ) ) ;
#96 = VERTEX_POINT ( 'NONE', #259 ) ;
#97 = ORIENTED_EDGE ( 'NONE', *, *, #388, .T. ) ;
#98 = CARTESIAN_POINT ( 'NONE',  ( 0.000000000000000000, 25.00000000000000000, -13.00000000000000178 ) ) ;
#99 = DIRECTION ( 'NONE',  ( 0.000000000000000000, -0.000000000000000000, -1.000000000000000000 ) ) ;
#100 = VERTEX_POINT ( 'NONE', #290 ) ;
#101 = CIRCLE ( 'NONE', #350, 4.099999999999999645 ) ;
#102 = CARTESIAN_POINT ( 'NONE',  ( 0.000000000000000000, 60.00000000000000000, 0.000000000000000000 ) ) ;
#103 = CARTESIAN_POINT ( 'NONE',  ( 0.000000000000000000, 60.00000000000000000, 0.000000000000000000 ) ) ;
#104 = ORIENTED_EDGE ( 'NONE', *, *, #212, .T. ) ;
#105 = ORIENTED_EDGE ( 'NONE', *, *, #483, .F. ) ;
#106 = FACE_OUTER_BOUND ( 'NONE', #309, .T. ) ;
#107 = ORIENTED_EDGE ( 'NONE', *, *, #507, .F. ) ;
#108 = ADVANCED_FACE ( 'NONE', ( #364 ), #491, .T. ) ;
#109 = VERTEX_POINT ( 'NONE', #446 ) ;
#110 = CARTESIAN_POINT ( 'NONE',  ( 5.021051876504147385E-16, 66.00000000000000000, -4.099999999999999645 ) ) ;
#111 = ORIENTED_EDGE ( 'NONE', *, *, #42, .F. ) ;
#112 =( LENGTH_UNIT ( ) NAMED_UNIT ( * ) SI_UNIT ( .MILLI., .METRE. ) );
#113 = ADVANCED_FACE ( 'NONE', ( #255 ), #409, .F. ) ;
#114 = CARTESIAN_POINT ( 'NONE',  ( 0.000000000000000000, 60.00000000000000000, 0.000000000000000000 ) ) ;
#115 = CARTESIAN_POINT ( 'NONE',  ( 0.000000000000000000, 27.50000000000000000, -13.00000000000000178 ) ) ;
#116 = DIRECTION ( 'NONE',  ( 0.000000000000000000, 0.000000000000000000, 1.000000000000000000 ) ) ;
#117 = DIRECTION ( 'NONE',  ( 1.000000000000000000, 0.000000000000000000, 0.000000000000000000 ) ) ;
#118 = DIRECTION ( 'NONE',  ( 0.000000000000000000, 0.000000000000000000, -1.000000000000000000 ) ) ;
#119 = AXIS2_PLACEMENT_3D ( 'NONE', #313, #428, #433 ) ;
#120 = CIRCLE ( 'NONE', #304, 13.00000000000000178 ) ;
#121 = CARTESIAN_POINT ( 'NONE',  ( 0.000000000000000000, 25.00000000000000000, -2.800000000000001155 ) ) ;
#122 = AXIS2_PLACEMENT_3D ( 'NONE', #328, #482, #406 ) ;
#123 = FILL_AREA_STYLE ('',( #238 ) ) ;
#124 = EDGE_CURVE ( 'NONE', #183, #100, #478, .T. ) ;
#125 = DIRECTION ( 'NONE',  ( -0.000000000000000000, -1.000000000000000000, -0.000000000000000000 ) ) ;
#126 = AXIS2_PLACEMENT_3D ( 'NONE', #61, #411, #219 ) ;
#127 = DIRECTION ( 'NONE',  ( 0.000000000000000000, -1.000000000000000000, 0.000000000000000000 ) ) ;
#128 = ORIENTED_EDGE ( 'NONE', *, *, #327, .T. ) ;
#129 = ORIENTED_EDGE ( 'NONE', *, *, #447, .T. ) ;
#130 = CARTESIAN_POINT ( 'NONE',  ( 0.000000000000000000, 57.49999999999999289, 0.000000000000000000 ) ) ;
#131 = AXIS2_PLACEMENT_3D ( 'NONE', #63, #413, #366 ) ;
#132 = DIRECTION ( 'NONE',  ( -0.000000000000000000, 1.000000000000000000, -0.000000000000000000 ) ) ;
#133 = EDGE_LOOP ( 'NONE', ( #307, #199, #269, #104 ) ) ;
#134 = FACE_OUTER_BOUND ( 'NONE', #341, .T. ) ;
#135 = EDGE_CURVE ( 'NONE', #332, #58, #166, .T. ) ;
#136 = LINE ( 'NONE', #424, #59 ) ;
#137 = ORIENTED_EDGE ( 'NONE', *, *, #323, .F. ) ;
#138 = DIRECTION ( 'NONE',  ( 0.000000000000000000, 0.000000000000000000, -1.000000000000000000 ) ) ;
#139 = CARTESIAN_POINT ( 'NONE',  ( 0.000000000000000000, 62.00000000000000000, -7.000000000000000888 ) ) ;
#140 = ORIENTED_EDGE ( 'NONE', *, *, #310, .T. ) ;
#141 = ORIENTED_EDGE ( 'NONE', *, *, #345, .T. ) ;
#142 = CARTESIAN_POINT ( 'NONE',  ( 0.000000000000000000, 57.49999999999999289, -15.00000000000000000 ) ) ;
#143 = EDGE_CURVE ( 'NONE', #254, #229, #253, .T. ) ;
#144 = CIRCLE ( 'NONE', #213, 13.00000000000000178 ) ;
#145 = DIRECTION ( 'NONE',  ( 0.000000000000000000, 1.000000000000000000, 0.000000000000000000 ) ) ;
#146 = AXIS2_PLACEMENT_3D ( 'NONE', #392, #246, #48 ) ;
#147 = ORIENTED_EDGE ( 'NONE', *, *, #249, .T. ) ;
#148 = ORIENTED_EDGE ( 'NONE', *, *, #467, .F. ) ;
#149 = CARTESIAN_POINT ( 'NONE',  ( 0.000000000000000000, 27.50000000000000000, 0.000000000000000000 ) ) ;
#150 = ORIENTED_EDGE ( 'NONE', *, *, #484, .F. ) ;
#151 = SHAPE_DEFINITION_REPRESENTATION ( #182, #325 ) ;
#152 = AXIS2_PLACEMENT_3D ( 'NONE', #499, #346, #462 ) ;
#153 = DIRECTION ( 'NONE',  ( 0.000000000000000000, 1.000000000000000000, 0.000000000000000000 ) ) ;
#154 = CARTESIAN_POINT ( 'NONE',  ( 0.000000000000000000, 66.00000000000000000, 4.099999999999999645 ) ) ;
#155 = CLOSED_SHELL ( 'NONE', ( #358, #108, #75, #87, #89, #234, #398, #378, #311, #399, #241, #441, #272, #256, #113, #163, #250 ) ) ;
#156 = CYLINDRICAL_SURFACE ( 'NONE', #53, 7.000000000000000888 ) ;
#157 = CARTESIAN_POINT ( 'NONE',  ( 0.000000000000000000, 57.49999999999999289, 0.000000000000000000 ) ) ;
#158 = APPLICATION_PROTOCOL_DEFINITION ( 'draft international standard', 'automotive_design', 1998, #185 ) ;
#159 = CARTESIAN_POINT ( 'NONE',  ( 0.000000000000000000, 27.50000000000000000, 0.000000000000000000 ) ) ;
#160 = CARTESIAN_POINT ( 'NONE',  ( 1.836970198721029589E-15, 60.00000000000000000, 15.00000000000000000 ) ) ;
#161 = DIRECTION ( 'NONE',  ( 0.000000000000000000, -1.000000000000000000, 0.000000000000000000 ) ) ;
#162 = EDGE_CURVE ( 'NONE', #338, #193, #438, .T. ) ;
#163 = ADVANCED_FACE ( 'NONE', ( #396, #321 ), #9, .T. ) ;
#164 = AXIS2_PLACEMENT_3D ( 'NONE', #267, #308, #30 ) ;
#165 = CIRCLE ( 'NONE', #146, 15.00000000000000000 ) ;
#166 = LINE ( 'NONE', #360, #167 ) ;
#167 = VECTOR ( 'NONE', #125, 1000.000000000000000 ) ;
#168 = CARTESIAN_POINT ( 'NONE',  ( 0.000000000000000000, 64.00000000000000000, 0.000000000000000000 ) ) ;
#169 = CARTESIAN_POINT ( 'NONE',  ( 0.000000000000000000, 60.00000000000000000, -7.000000000000000888 ) ) ;
#170 = EDGE_CURVE ( 'NONE', #271, #66, #165, .T. ) ;
#171 = CIRCLE ( 'NONE', #126, 4.099999999999999645 ) ;
#172 = CIRCLE ( 'NONE', #152, 7.000000000000001776 ) ;
#173 = EDGE_LOOP ( 'NONE', ( #289, #111, #505, #349, #301, #148 ) ) ;
#174 = DIRECTION ( 'NONE',  ( -0.000000000000000000, -1.000000000000000000, -0.000000000000000000 ) ) ;
#175 = VECTOR ( 'NONE', #452, 1000.000000000000000 ) ;
#176 = LINE ( 'NONE', #180, #175 ) ;
#177 = EDGE_CURVE ( 'NONE', #271, #254, #47, .T. ) ;
#178 = ORIENTED_EDGE ( 'NONE', *, *, #124, .F. ) ;
#179 = CARTESIAN_POINT ( 'NONE',  ( 0.000000000000000000, 25.00000000000000000, 0.000000000000000000 ) ) ;
#180 = CARTESIAN_POINT ( 'NONE',  ( 0.000000000000000000, 60.00000000000000000, -15.00000000000000000 ) ) ;
#181 = VERTEX_POINT ( 'NONE', #154 ) ;
#182 = PRODUCT_DEFINITION_SHAPE ( 'NONE', 'NONE',  #439 ) ;
#183 = VERTEX_POINT ( 'NONE', #210 ) ;
#184 = DIRECTION ( 'NONE',  ( 0.000000000000000000, 0.000000000000000000, 1.000000000000000000 ) ) ;
#185 = APPLICATION_CONTEXT ( 'automotive_design' ) ;
#186 = CIRCLE ( 'NONE', #465, 13.00000000000000178 ) ;
#187 = CYLINDRICAL_SURFACE ( 'NONE', #40, 15.00000000000000000 ) ;
#188 = ORIENTED_EDGE ( 'NONE', *, *, #191, .F. ) ;
#189 = PRODUCT_DEFINITION_CONTEXT ( 'detailed design', #185, 'design' ) ;
#190 = LINE ( 'NONE', #487, #211 ) ;
#191 = EDGE_CURVE ( 'NONE', #332, #422, #319, .T. ) ;
#192 = FACE_OUTER_BOUND ( 'NONE', #453, .T. ) ;
#193 = VERTEX_POINT ( 'NONE', #244 ) ;
#194 = ORIENTED_EDGE ( 'NONE', *, *, #191, .T. ) ;
#195 = AXIS2_PLACEMENT_3D ( 'NONE', #159, #83, #118 ) ;
#196 = CARTESIAN_POINT ( 'NONE',  ( 0.000000000000000000, 27.50000000000000000, 0.000000000000000000 ) ) ;
#197 = AXIS2_PLACEMENT_3D ( 'NONE', #397, #402, #429 ) ;
#198 = UNCERTAINTY_MEASURE_WITH_UNIT (LENGTH_MEASURE( 1.000000000000000082E-05 ), #112, 'distance_accuracy_value', 'NONE');
#199 = ORIENTED_EDGE ( 'NONE', *, *, #434, .T. ) ;
#200 = ORIENTED_EDGE ( 'NONE', *, *, #177, .T. ) ;
#201 = ORIENTED_EDGE ( 'NONE', *, *, #42, .T. ) ;
#202 = VECTOR ( 'NONE', #492, 1000.000000000000000 ) ;
#203 = FACE_OUTER_BOUND ( 'NONE', #133, .T. ) ;
#204 = FACE_OUTER_BOUND ( 'NONE', #306, .T. ) ;
#205 = CARTESIAN_POINT ( 'NONE',  ( 0.000000000000000000, 60.00000000000000000, 0.000000000000000000 ) ) ;
#206 = EDGE_CURVE ( 'NONE', #376, #100, #12, .T. ) ;
#207 = LINE ( 'NONE', #355, #318 ) ;
#208 = LINE ( 'NONE', #473, #383 ) ;
#209 = CARTESIAN_POINT ( 'NONE',  ( 0.000000000000000000, 60.00000000000000000, 0.000000000000000000 ) ) ;
#210 = CARTESIAN_POINT ( 'NONE',  ( 1.592040838891559293E-15, 57.49999999999999289, -13.00000000000000178 ) ) ;
#211 = VECTOR ( 'NONE', #90, 1000.000000000000000 ) ;
#212 = EDGE_CURVE ( 'NONE', #504, #96, #208, .T. ) ;
#213 = AXIS2_PLACEMENT_3D ( 'NONE', #196, #455, #222 ) ;
#214 = EDGE_LOOP ( 'NONE', ( #128, #493 ) ) ;
#215 = CARTESIAN_POINT ( 'NONE',  ( 0.000000000000000000, 60.00000000000000000, 0.000000000000000000 ) ) ;
#216 = EDGE_CURVE ( 'NONE', #449, #96, #475, .T. ) ;
#217 = ORIENTED_EDGE ( 'NONE', *, *, #19, .F. ) ;
#218 = CARTESIAN_POINT ( 'NONE',  ( -2.994995826374386105, 25.00000000000000000, -2.800000000000001155 ) ) ;
#219 = DIRECTION ( 'NONE',  ( 0.000000000000000000, 0.000000000000000000, -1.000000000000000000 ) ) ;
#220 = ORIENTED_EDGE ( 'NONE', *, *, #124, .T. ) ;
#221 = DIRECTION ( 'NONE',  ( 0.000000000000000000, 0.000000000000000000, 1.000000000000000000 ) ) ;
#222 = DIRECTION ( 'NONE',  ( 0.000000000000000000, 0.000000000000000000, -1.000000000000000000 ) ) ;
#223 = VERTEX_POINT ( 'NONE', #15 ) ;
#224 = DIRECTION ( 'NONE',  ( 0.000000000000000000, -1.000000000000000000, 0.000000000000000000 ) ) ;
#225 = CARTESIAN_POINT ( 'NONE',  ( 0.000000000000000000, 25.00000000000000000, 0.000000000000000000 ) ) ;
#226 = ORIENTED_EDGE ( 'NONE', *, *, #52, .F. ) ;
#227 = ORIENTED_EDGE ( 'NONE', *, *, #177, .F. ) ;
#228 = DIRECTION ( 'NONE',  ( -0.000000000000000000, 1.000000000000000000, -0.000000000000000000 ) ) ;
#229 = VERTEX_POINT ( 'NONE', #276 ) ;
#230 = VERTEX_POINT ( 'NONE', #169 ) ;
#231 = CARTESIAN_POINT ( 'NONE',  ( -2.994995826374386105, 64.00000000000000000, -2.800000000000001155 ) ) ;
#232 = AXIS2_PLACEMENT_3D ( 'NONE', #121, #116, #480 ) ;
#233 = EDGE_LOOP ( 'NONE', ( #485, #372, #450, #105 ) ) ;
#234 = ADVANCED_FACE ( 'NONE', ( #203 ), #324, .T. ) ;
#235 = DIRECTION ( 'NONE',  ( 0.000000000000000000, 0.000000000000000000, -1.000000000000000000 ) ) ;
#236 = CARTESIAN_POINT ( 'NONE',  ( 8.572527594031474176E-16, 62.00000000000000000, 7.000000000000000888 ) ) ;
#237 = DIRECTION ( 'NONE',  ( 0.000000000000000000, 0.000000000000000000, 1.000000000000000000 ) ) ;
#238 = FILL_AREA_STYLE_COLOUR ( '', #432 ) ;
#239 = AXIS2_PLACEMENT_3D ( 'NONE', #468, #161, #247 ) ;
#240 = AXIS2_PLACEMENT_3D ( 'NONE', #78, #51, #354 ) ;
#241 = ADVANCED_FACE ( 'NONE', ( #3, #312 ), #5, .T. ) ;
#242 = DIRECTION ( 'NONE',  ( 0.000000000000000000, 1.000000000000000000, 0.000000000000000000 ) ) ;
#243 = SURFACE_STYLE_USAGE ( .BOTH. , #395 ) ;
#244 = CARTESIAN_POINT ( 'NONE',  ( 8.572527594031474176E-16, 60.00000000000000000, 7.000000000000000888 ) ) ;
#245 =( GEOMETRIC_REPRESENTATION_CONTEXT ( 3 ) GLOBAL_UNCERTAINTY_ASSIGNED_CONTEXT ( ( #198 ) ) GLOBAL_UNIT_ASSIGNED_CONTEXT ( ( #112, #391, #76 ) ) REPRESENTATION_CONTEXT ( 'NONE', 'WORKASPACE' ) );
#246 = DIRECTION ( 'NONE',  ( 0.000000000000000000, 1.000000000000000000, 0.000000000000000000 ) ) ;
#247 = DIRECTION ( 'NONE',  ( 0.000000000000000000, 0.000000000000000000, -1.000000000000000000 ) ) ;
#248 = CARTESIAN_POINT ( 'NONE',  ( 1.592040838891559293E-15, 27.50000000000000000, 13.00000000000000178 ) ) ;
#249 = EDGE_CURVE ( 'NONE', #183, #223, #120, .T. ) ;
#250 = ADVANCED_FACE ( 'NONE', ( #339 ), #275, .T. ) ;
#251 = AXIS2_PLACEMENT_3D ( 'NONE', #379, #145, #22 ) ;
#252 = PRESENTATION_LAYER_ASSIGNMENT (  '', '', ( #444 ) ) ;
#253 = CIRCLE ( 'NONE', #13, 15.00000000000000000 ) ;
#254 = VERTEX_POINT ( 'NONE', #437 ) ;
#255 = FACE_OUTER_BOUND ( 'NONE', #173, .T. ) ;
#256 = ADVANCED_FACE ( 'NONE', ( #80 ), #156, .T. ) ;
#257 = PLANE ( 'NONE',  #390 ) ;
#258 = ORIENTED_EDGE ( 'NONE', *, *, #483, .T. ) ;
#259 = CARTESIAN_POINT ( 'NONE',  ( 2.994995826374386105, 25.00000000000000000, -2.800000000000001155 ) ) ;
#260 = DIRECTION ( 'NONE',  ( 0.000000000000000000, 0.000000000000000000, 1.000000000000000000 ) ) ;
#261 = ORIENTED_EDGE ( 'NONE', *, *, #162, .F. ) ;
#262 = DIRECTION ( 'NONE',  ( -0.000000000000000000, 1.000000000000000000, -0.000000000000000000 ) ) ;
#263 = MANIFOLD_SOLID_BREP ( 'Cut-Extrude8', #155 ) ;
#264 = FACE_OUTER_BOUND ( 'NONE', #214, .T. ) ;
#265 = ORIENTED_EDGE ( 'NONE', *, *, #419, .T. ) ;
#266 = EDGE_LOOP ( 'NONE', ( #415, #55 ) ) ;
#267 = CARTESIAN_POINT ( 'NONE',  ( 0.000000000000000000, 25.00000000000000000, 0.000000000000000000 ) ) ;
#268 = ORIENTED_EDGE ( 'NONE', *, *, #135, .F. ) ;
#269 = ORIENTED_EDGE ( 'NONE', *, *, #6, .F. ) ;
#270 = DIRECTION ( 'NONE',  ( -0.000000000000000000, -1.000000000000000000, -0.000000000000000000 ) ) ;
#271 = VERTEX_POINT ( 'NONE', #46 ) ;
#272 = ADVANCED_FACE ( 'NONE', ( #204 ), #353, .T. ) ;
#273 = VECTOR ( 'NONE', #32, 1000.000000000000000 ) ;
#274 = PRODUCT_RELATED_PRODUCT_CATEGORY ( 'part', '', ( #386 ) ) ;
#275 = PLANE ( 'NONE',  #281 ) ;
#276 = CARTESIAN_POINT ( 'NONE',  ( 0.000000000000000000, 27.50000000000000000, -15.00000000000000000 ) ) ;
#277 = CARTESIAN_POINT ( 'NONE',  ( 5.021051876504147385E-16, 64.00000000000000000, -4.099999999999999645 ) ) ;
#278 = CARTESIAN_POINT ( 'NONE',  ( 0.000000000000000000, 27.50000000000000000, 0.000000000000000000 ) ) ;
#279 = PRODUCT_CONTEXT ( 'NONE', #2, 'mechanical' ) ;
#280 = AXIS2_PLACEMENT_3D ( 'NONE', #337, #421, #375 ) ;
#281 = AXIS2_PLACEMENT_3D ( 'NONE', #168, #479, #14 ) ;
#282 = CIRCLE ( 'NONE', #502, 7.000000000000000888 ) ;
#283 = DIRECTION ( 'NONE',  ( 0.000000000000000000, 1.000000000000000000, 0.000000000000000000 ) ) ;
#284 = DIRECTION ( 'NONE',  ( 0.000000000000000000, 0.000000000000000000, -1.000000000000000000 ) ) ;
#285 = DIRECTION ( 'NONE',  ( 0.000000000000000000, 0.000000000000000000, 1.000000000000000000 ) ) ;
#286 = EDGE_CURVE ( 'NONE', #96, #31, #315, .T. ) ;
#287 = DIRECTION ( 'NONE',  ( 0.000000000000000000, 0.000000000000000000, -1.000000000000000000 ) ) ;
#288 = ORIENTED_EDGE ( 'NONE', *, *, #410, .T. ) ;
#289 = ORIENTED_EDGE ( 'NONE', *, *, #70, .F. ) ;
#290 = CARTESIAN_POINT ( 'NONE',  ( 1.592040838891559293E-15, 60.00000000000000000, -13.00000000000000178 ) ) ;
#291 = AXIS2_PLACEMENT_3D ( 'NONE', #86, #242, #356 ) ;
#292 = CARTESIAN_POINT ( 'NONE',  ( 0.000000000000000000, 66.00000000000000000, 0.000000000000000000 ) ) ;
#293 = EDGE_LOOP ( 'NONE', ( #463, #220, #412, #377 ) ) ;
#294 = ORIENTED_EDGE ( 'NONE', *, *, #484, .T. ) ;
#295 = DIRECTION ( 'NONE',  ( -0.000000000000000000, 1.000000000000000000, -0.000000000000000000 ) ) ;
#296 = PLANE ( 'NONE',  #280 ) ;
#297 = EDGE_LOOP ( 'NONE', ( #294, #423 ) ) ;
#298 = CARTESIAN_POINT ( 'NONE',  ( 0.000000000000000000, 60.00000000000000000, 0.000000000000000000 ) ) ;
#299 = DIRECTION ( 'NONE',  ( -0.000000000000000000, -1.000000000000000000, -0.000000000000000000 ) ) ;
#300 = ORIENTED_EDGE ( 'NONE', *, *, #249, .F. ) ;
#301 = ORIENTED_EDGE ( 'NONE', *, *, #323, .T. ) ;
#302 = LINE ( 'NONE', #248, #273 ) ;
#303 = AXIS2_PLACEMENT_3D ( 'NONE', #317, #33, #260 ) ;
#304 = AXIS2_PLACEMENT_3D ( 'NONE', #157, #469, #84 ) ;
#305 = CYLINDRICAL_SURFACE ( 'NONE', #382, 4.099999999999999645 ) ;
#306 = EDGE_LOOP ( 'NONE', ( #44, #141, #347, #38 ) ) ;
#307 = ORIENTED_EDGE ( 'NONE', *, *, #286, .T. ) ;
#308 = DIRECTION ( 'NONE',  ( 0.000000000000000000, 1.000000000000000000, -0.000000000000000000 ) ) ;
#309 = EDGE_LOOP ( 'NONE', ( #408, #500, #68, #137, #443, #62 ) ) ;
#310 = EDGE_CURVE ( 'NONE', #230, #193, #81, .T. ) ;
#311 = ADVANCED_FACE ( 'NONE', ( #357, #471 ), #88, .T. ) ;
#312 = FACE_OUTER_BOUND ( 'NONE', #420, .T. ) ;
#313 = CARTESIAN_POINT ( 'NONE',  ( 0.000000000000000000, 57.49999999999999289, 0.000000000000000000 ) ) ;
#314 = CARTESIAN_POINT ( 'NONE',  ( 1.592040838891559293E-15, 57.49999999999999289, -13.00000000000000178 ) ) ;
#315 = LINE ( 'NONE', #400, #474 ) ;
#316 = DIRECTION ( 'NONE',  ( 0.000000000000000000, -1.000000000000000000, 0.000000000000000000 ) ) ;
#317 = CARTESIAN_POINT ( 'NONE',  ( 0.000000000000000000, 66.00000000000000000, 0.000000000000000000 ) ) ;
#318 = VECTOR ( 'NONE', #10, 1000.000000000000000 ) ;
#319 = CIRCLE ( 'NONE', #197, 13.00000000000000178 ) ;
#320 = VECTOR ( 'NONE', #431, 1000.000000000000000 ) ;
#321 = FACE_OUTER_BOUND ( 'NONE', #329, .T. ) ;
#322 = DIRECTION ( 'NONE',  ( 0.000000000000000000, 1.000000000000000000, 0.000000000000000000 ) ) ;
#323 = EDGE_CURVE ( 'NONE', #449, #181, #207, .T. ) ;
#324 = PLANE ( 'NONE',  #232 ) ;
#325 = ADVANCED_BREP_SHAPE_REPRESENTATION ( 'center shaft', ( #263, #1 ), #245 ) ;
#326 = VECTOR ( 'NONE', #299, 1000.000000000000000 ) ;
#327 = EDGE_CURVE ( 'NONE', #58, #506, #393, .T. ) ;
#328 = CARTESIAN_POINT ( 'NONE',  ( 0.000000000000000000, 27.50000000000000000, 0.000000000000000000 ) ) ;
#329 = EDGE_LOOP ( 'NONE', ( #36, #265 ) ) ;
#330 = DIRECTION ( 'NONE',  ( 0.000000000000000000, 0.000000000000000000, -1.000000000000000000 ) ) ;
#331 = DIRECTION ( 'NONE',  ( 0.000000000000000000, -1.000000000000000000, 0.000000000000000000 ) ) ;
#332 = VERTEX_POINT ( 'NONE', #115 ) ;
#333 = FACE_OUTER_BOUND ( 'NONE', #293, .T. ) ;
#334 = FACE_OUTER_BOUND ( 'NONE', #23, .T. ) ;
#335 = VERTEX_POINT ( 'NONE', #277 ) ;
#336 = DIRECTION ( 'NONE',  ( 0.000000000000000000, 1.000000000000000000, 0.000000000000000000 ) ) ;
#337 = CARTESIAN_POINT ( 'NONE',  ( 0.000000000000000000, 25.00000000000000000, 0.000000000000000000 ) ) ;
#338 = VERTEX_POINT ( 'NONE', #430 ) ;
#339 = FACE_OUTER_BOUND ( 'NONE', #73, .T. ) ;
#340 = CARTESIAN_POINT ( 'NONE',  ( 0.000000000000000000, 57.49999999999999289, 0.000000000000000000 ) ) ;
#341 = EDGE_LOOP ( 'NONE', ( #20, #200, #217, #418 ) ) ;
#342 = CIRCLE ( 'NONE', #251, 4.099999999999999645 ) ;
#343 =( GEOMETRIC_REPRESENTATION_CONTEXT ( 3 ) GLOBAL_UNCERTAINTY_ASSIGNED_CONTEXT ( ( #35 ) ) GLOBAL_UNIT_ASSIGNED_CONTEXT ( ( #85, #351, #4 ) ) REPRESENTATION_CONTEXT ( 'NONE', 'WORKASPACE' ) );
#344 = EDGE_CURVE ( 'NONE', #109, #338, #361, .T. ) ;
#345 = EDGE_CURVE ( 'NONE', #422, #332, #144, .T. ) ;
#346 = DIRECTION ( 'NONE',  ( 0.000000000000000000, 1.000000000000000000, 0.000000000000000000 ) ) ;
#347 = ORIENTED_EDGE ( 'NONE', *, *, #135, .T. ) ;
#348 = ORIENTED_EDGE ( 'NONE', *, *, #71, .T. ) ;
#349 = ORIENTED_EDGE ( 'NONE', *, *, #216, .F. ) ;
#350 = AXIS2_PLACEMENT_3D ( 'NONE', #292, #414, #57 ) ;
#351 =( NAMED_UNIT ( * ) PLANE_ANGLE_UNIT ( ) SI_UNIT ( $, .RADIAN. ) );
#352 = DIRECTION ( 'NONE',  ( 1.000000000000000000, -0.000000000000000000, 0.000000000000000000 ) ) ;
#353 = CYLINDRICAL_SURFACE ( 'NONE', #195, 13.00000000000000178 ) ;
#354 = DIRECTION ( 'NONE',  ( 0.000000000000000000, 0.000000000000000000, 1.000000000000000000 ) ) ;
#355 = CARTESIAN_POINT ( 'NONE',  ( 0.000000000000000000, 25.00000000000000000, 4.099999999999999645 ) ) ;
#356 = DIRECTION ( 'NONE',  ( 0.000000000000000000, -0.000000000000000000, 1.000000000000000000 ) ) ;
#357 = FACE_BOUND ( 'NONE', #425, .T. ) ;
#358 = ADVANCED_FACE ( 'NONE', ( #106 ), #305, .F. ) ;
#359 = AXIS2_PLACEMENT_3D ( 'NONE', #56, #295, #221 ) ;
#360 = CARTESIAN_POINT ( 'NONE',  ( 0.000000000000000000, 27.50000000000000000, -13.00000000000000178 ) ) ;
#361 = CIRCLE ( 'NONE', #303, 7.000000000000001776 ) ;
#362 = MECHANICAL_DESIGN_GEOMETRIC_PRESENTATION_REPRESENTATION (  '', ( #444 ), #343 ) ;
#363 = VERTEX_POINT ( 'NONE', #110 ) ;
#364 = FACE_OUTER_BOUND ( 'NONE', #233, .T. ) ;
#365 = ORIENTED_EDGE ( 'NONE', *, *, #206, .T. ) ;
#366 = DIRECTION ( 'NONE',  ( 0.000000000000000000, 0.000000000000000000, 1.000000000000000000 ) ) ;
#367 = AXIS2_PLACEMENT_3D ( 'NONE', #45, #153, #237 ) ;
#368 = LINE ( 'NONE', #27, #202 ) ;
#369 = VERTEX_POINT ( 'NONE', #231 ) ;
#370 = CYLINDRICAL_SURFACE ( 'NONE', #122, 13.00000000000000178 ) ;
#371 = LINE ( 'NONE', #139, #326 ) ;
#372 = ORIENTED_EDGE ( 'NONE', *, *, #162, .T. ) ;
#373 = CIRCLE ( 'NONE', #490, 15.00000000000000000 ) ;
#374 = CYLINDRICAL_SURFACE ( 'NONE', #405, 13.00000000000000178 ) ;
#375 = DIRECTION ( 'NONE',  ( 0.000000000000000000, -0.000000000000000000, -1.000000000000000000 ) ) ;
#376 = VERTEX_POINT ( 'NONE', #459 ) ;
#377 = ORIENTED_EDGE ( 'NONE', *, *, #472, .F. ) ;
#378 = ADVANCED_FACE ( 'NONE', ( #334 ), #187, .T. ) ;
#379 = CARTESIAN_POINT ( 'NONE',  ( 0.000000000000000000, 64.00000000000000000, 0.000000000000000000 ) ) ;
#380 = EDGE_LOOP ( 'NONE', ( #188, #39 ) ) ;
#381 = EDGE_LOOP ( 'NONE', ( #129, #34 ) ) ;
#382 = AXIS2_PLACEMENT_3D ( 'NONE', #225, #228, #95 ) ;
#383 = VECTOR ( 'NONE', #352, 1000.000000000000000 ) ;
#384 = AXIS2_PLACEMENT_3D ( 'NONE', #215, #54, #287 ) ;
#385 = CARTESIAN_POINT ( 'NONE',  ( 1.592040838891559293E-15, 25.00000000000000000, 13.00000000000000178 ) ) ;
#386 = PRODUCT ( 'center shaft', 'center shaft', '', ( #279 ) ) ;
#387 = EDGE_LOOP ( 'NONE', ( #461, #486 ) ) ;
#388 = EDGE_CURVE ( 'NONE', #504, #449, #91, .T. ) ;
#389 = DIRECTION ( 'NONE',  ( 0.000000000000000000, 0.000000000000000000, 1.000000000000000000 ) ) ;
#390 = AXIS2_PLACEMENT_3D ( 'NONE', #149, #331, #99 ) ;
#391 =( NAMED_UNIT ( * ) PLANE_ANGLE_UNIT ( ) SI_UNIT ( $, .RADIAN. ) );
#392 = CARTESIAN_POINT ( 'NONE',  ( 0.000000000000000000, 57.49999999999999289, 0.000000000000000000 ) ) ;
#393 = CIRCLE ( 'NONE', #239, 13.00000000000000178 ) ;
#394 = DIRECTION ( 'NONE',  ( 0.000000000000000000, 1.000000000000000000, 0.000000000000000000 ) ) ;
#395 = SURFACE_SIDE_STYLE ('',( #440 ) ) ;
#396 = FACE_BOUND ( 'NONE', #381, .T. ) ;
#397 = CARTESIAN_POINT ( 'NONE',  ( 0.000000000000000000, 27.50000000000000000, 0.000000000000000000 ) ) ;
#398 = ADVANCED_FACE ( 'NONE', ( #264, #417 ), #296, .T. ) ;
#399 = ADVANCED_FACE ( 'NONE', ( #192 ), #72, .T. ) ;
#400 = CARTESIAN_POINT ( 'NONE',  ( 2.994995826374386105, 25.00000000000000000, -2.800000000000001155 ) ) ;
#401 = AXIS2_PLACEMENT_3D ( 'NONE', #79, #394, #389 ) ;
#402 = DIRECTION ( 'NONE',  ( 0.000000000000000000, -1.000000000000000000, 0.000000000000000000 ) ) ;
#403 = VECTOR ( 'NONE', #262, 1000.000000000000000 ) ;
#404 = VECTOR ( 'NONE', #466, 1000.000000000000000 ) ;
#405 = AXIS2_PLACEMENT_3D ( 'NONE', #130, #29, #60 ) ;
#406 = DIRECTION ( 'NONE',  ( 0.000000000000000000, 0.000000000000000000, -1.000000000000000000 ) ) ;
#407 = ORIENTED_EDGE ( 'NONE', *, *, #212, .F. ) ;
#408 = ORIENTED_EDGE ( 'NONE', *, *, #410, .F. ) ;
#409 = CYLINDRICAL_SURFACE ( 'NONE', #359, 4.099999999999999645 ) ;
#410 = EDGE_CURVE ( 'NONE', #335, #369, #342, .T. ) ;
#411 = DIRECTION ( 'NONE',  ( 0.000000000000000000, -1.000000000000000000, 0.000000000000000000 ) ) ;
#412 = ORIENTED_EDGE ( 'NONE', *, *, #206, .F. ) ;
#413 = DIRECTION ( 'NONE',  ( 0.000000000000000000, 1.000000000000000000, 0.000000000000000000 ) ) ;
#414 = DIRECTION ( 'NONE',  ( 0.000000000000000000, -1.000000000000000000, 0.000000000000000000 ) ) ;
#415 = ORIENTED_EDGE ( 'NONE', *, *, #19, .T. ) ;
#416 = DIRECTION ( 'NONE',  ( 0.000000000000000000, 1.000000000000000000, 0.000000000000000000 ) ) ;
#417 = FACE_BOUND ( 'NONE', #69, .T. ) ;
#418 = ORIENTED_EDGE ( 'NONE', *, *, #435, .F. ) ;
#419 = EDGE_CURVE ( 'NONE', #338, #109, #172, .T. ) ;
#420 = EDGE_LOOP ( 'NONE', ( #365, #496 ) ) ;
#421 = DIRECTION ( 'NONE',  ( 0.000000000000000000, -1.000000000000000000, 0.000000000000000000 ) ) ;
#422 = VERTEX_POINT ( 'NONE', #503 ) ;
#423 = ORIENTED_EDGE ( 'NONE', *, *, #170, .T. ) ;
#424 = CARTESIAN_POINT ( 'NONE',  ( 0.000000000000000000, 64.00000000000000000, -2.800000000000001155 ) ) ;
#425 = EDGE_LOOP ( 'NONE', ( #107, #300 ) ) ;
#426 = CIRCLE ( 'NONE', #131, 4.099999999999999645 ) ;
#427 = CARTESIAN_POINT ( 'NONE',  ( -2.994995826374386105, 25.00000000000000000, -2.800000000000001155 ) ) ;
#428 = DIRECTION ( 'NONE',  ( 0.000000000000000000, 1.000000000000000000, 0.000000000000000000 ) ) ;
#429 = DIRECTION ( 'NONE',  ( 0.000000000000000000, 0.000000000000000000, -1.000000000000000000 ) ) ;
#430 = CARTESIAN_POINT ( 'NONE',  ( 8.572527594031475162E-16, 66.00000000000000000, 7.000000000000002665 ) ) ;
#431 = DIRECTION ( 'NONE',  ( -0.000000000000000000, -1.000000000000000000, -0.000000000000000000 ) ) ;
#432 = COLOUR_RGB ( '',0.7921568627450980005, 0.8196078431372548767, 0.9333333333333333481 ) ;
#433 = DIRECTION ( 'NONE',  ( 0.000000000000000000, -0.000000000000000000, 1.000000000000000000 ) ) ;
#434 = EDGE_CURVE ( 'NONE', #31, #369, #136, .T. ) ;
#435 = EDGE_CURVE ( 'NONE', #66, #229, #176, .T. ) ;
#436 = DIRECTION ( 'NONE',  ( 0.000000000000000000, -0.000000000000000000, 1.000000000000000000 ) ) ;
#437 = CARTESIAN_POINT ( 'NONE',  ( 1.836970198721029589E-15, 27.50000000000000000, 15.00000000000000000 ) ) ;
#438 = LINE ( 'NONE', #236, #320 ) ;
#439 = PRODUCT_DEFINITION ( 'UNKNOWN', '', #24, #189 ) ;
#440 = SURFACE_STYLE_FILL_AREA ( #123 ) ;
#441 = ADVANCED_FACE ( 'NONE', ( #37, #495 ), #257, .T. ) ;
#442 = CARTESIAN_POINT ( 'NONE',  ( 2.994995826374385217, 64.00000000000000000, -2.800000000000001599 ) ) ;
#443 = ORIENTED_EDGE ( 'NONE', *, *, #388, .F. ) ;
#444 = STYLED_ITEM ( 'NONE', ( #8 ), #263 ) ;
#445 = AXIS2_PLACEMENT_3D ( 'NONE', #298, #336, #454 ) ;
#446 = CARTESIAN_POINT ( 'NONE',  ( 0.000000000000000000, 66.00000000000000000, -7.000000000000002665 ) ) ;
#447 = EDGE_CURVE ( 'NONE', #181, #363, #101, .T. ) ;
#448 = CARTESIAN_POINT ( 'NONE',  ( 0.000000000000000000, 25.00000000000000000, 4.099999999999999645 ) ) ;
#449 = VERTEX_POINT ( 'NONE', #448 ) ;
#450 = ORIENTED_EDGE ( 'NONE', *, *, #26, .T. ) ;
#451 = FACE_OUTER_BOUND ( 'NONE', #456, .T. ) ;
#452 = DIRECTION ( 'NONE',  ( -0.000000000000000000, -1.000000000000000000, -0.000000000000000000 ) ) ;
#453 = EDGE_LOOP ( 'NONE', ( #178, #147, #28, #226 ) ) ;
#454 = DIRECTION ( 'NONE',  ( 0.000000000000000000, 0.000000000000000000, 1.000000000000000000 ) ) ;
#455 = DIRECTION ( 'NONE',  ( 0.000000000000000000, -1.000000000000000000, 0.000000000000000000 ) ) ;
#456 = EDGE_LOOP ( 'NONE', ( #194, #348, #489, #268 ) ) ;
#457 = ORIENTED_EDGE ( 'NONE', *, *, #435, .T. ) ;
#458 = AXIS2_PLACEMENT_3D ( 'NONE', #209, #322, #285 ) ;
#459 = CARTESIAN_POINT ( 'NONE',  ( 0.000000000000000000, 60.00000000000000000, 13.00000000000000178 ) ) ;
#460 = ORIENTED_EDGE ( 'NONE', *, *, #344, .F. ) ;
#461 = ORIENTED_EDGE ( 'NONE', *, *, #310, .F. ) ;
#462 = DIRECTION ( 'NONE',  ( 0.000000000000000000, 0.000000000000000000, 1.000000000000000000 ) ) ;
#463 = ORIENTED_EDGE ( 'NONE', *, *, #507, .T. ) ;
#464 = CIRCLE ( 'NONE', #367, 13.00000000000000178 ) ;
#465 = AXIS2_PLACEMENT_3D ( 'NONE', #179, #224, #138 ) ;
#466 = DIRECTION ( 'NONE',  ( -0.000000000000000000, -1.000000000000000000, -0.000000000000000000 ) ) ;
#467 = EDGE_CURVE ( 'NONE', #363, #181, #171, .T. ) ;
#468 = CARTESIAN_POINT ( 'NONE',  ( 0.000000000000000000, 25.00000000000000000, 0.000000000000000000 ) ) ;
#469 = DIRECTION ( 'NONE',  ( 0.000000000000000000, 1.000000000000000000, 0.000000000000000000 ) ) ;
#470 = DIRECTION ( 'NONE',  ( 0.000000000000000000, 0.000000000000000000, 1.000000000000000000 ) ) ;
#471 = FACE_OUTER_BOUND ( 'NONE', #297, .T. ) ;
#472 = EDGE_CURVE ( 'NONE', #223, #376, #368, .T. ) ;
#473 = CARTESIAN_POINT ( 'NONE',  ( 0.000000000000000000, 25.00000000000000000, -2.800000000000001155 ) ) ;
#474 = VECTOR ( 'NONE', #50, 1000.000000000000000 ) ;
#475 = CIRCLE ( 'NONE', #240, 4.099999999999999645 ) ;
#476 = AXIS2_PLACEMENT_3D ( 'NONE', #21, #174, #330 ) ;
#477 = CARTESIAN_POINT ( 'NONE',  ( 0.000000000000000000, 62.00000000000000000, 0.000000000000000000 ) ) ;
#478 = LINE ( 'NONE', #314, #74 ) ;
#479 = DIRECTION ( 'NONE',  ( 0.000000000000000000, 1.000000000000000000, 0.000000000000000000 ) ) ;
#480 = DIRECTION ( 'NONE',  ( 1.000000000000000000, 0.000000000000000000, -0.000000000000000000 ) ) ;
#481 = CIRCLE ( 'NONE', #401, 15.00000000000000000 ) ;
#482 = DIRECTION ( 'NONE',  ( -0.000000000000000000, -1.000000000000000000, -0.000000000000000000 ) ) ;
#483 = EDGE_CURVE ( 'NONE', #109, #230, #371, .T. ) ;
#484 = EDGE_CURVE ( 'NONE', #66, #271, #481, .T. ) ;
#485 = ORIENTED_EDGE ( 'NONE', *, *, #419, .F. ) ;
#486 = ORIENTED_EDGE ( 'NONE', *, *, #26, .F. ) ;
#487 = CARTESIAN_POINT ( 'NONE',  ( 5.021051876504147385E-16, 25.00000000000000000, -4.099999999999999645 ) ) ;
#488 = DIRECTION ( 'NONE',  ( -1.000000000000000000, 0.000000000000000000, 0.000000000000000000 ) ) ;
#489 = ORIENTED_EDGE ( 'NONE', *, *, #327, .F. ) ;
#490 = AXIS2_PLACEMENT_3D ( 'NONE', #94, #127, #494 ) ;
#491 = CYLINDRICAL_SURFACE ( 'NONE', #476, 7.000000000000000888 ) ;
#492 = DIRECTION ( 'NONE',  ( -0.000000000000000000, 1.000000000000000000, -0.000000000000000000 ) ) ;
#493 = ORIENTED_EDGE ( 'NONE', *, *, #18, .T. ) ;
#494 = DIRECTION ( 'NONE',  ( 0.000000000000000000, 0.000000000000000000, -1.000000000000000000 ) ) ;
#495 = FACE_OUTER_BOUND ( 'NONE', #266, .T. ) ;
#496 = ORIENTED_EDGE ( 'NONE', *, *, #52, .T. ) ;
#497 = ORIENTED_EDGE ( 'NONE', *, *, #216, .T. ) ;
#498 = CYLINDRICAL_SURFACE ( 'NONE', #384, 15.00000000000000000 ) ;
#499 = CARTESIAN_POINT ( 'NONE',  ( 0.000000000000000000, 66.00000000000000000, 0.000000000000000000 ) ) ;
#500 = ORIENTED_EDGE ( 'NONE', *, *, #70, .T. ) ;
#501 = ORIENTED_EDGE ( 'NONE', *, *, #143, .F. ) ;
#502 = AXIS2_PLACEMENT_3D ( 'NONE', #102, #416, #184 ) ;
#503 = CARTESIAN_POINT ( 'NONE',  ( 1.592040838891559293E-15, 27.50000000000000000, 13.00000000000000178 ) ) ;
#504 = VERTEX_POINT ( 'NONE', #427 ) ;
#505 = ORIENTED_EDGE ( 'NONE', *, *, #286, .F. ) ;
#506 = VERTEX_POINT ( 'NONE', #385 ) ;
#507 = EDGE_CURVE ( 'NONE', #223, #183, #464, .T. ) ;
ENDSEC;
END-ISO-10303-21;
