ISO-10303-21;
HEADER;
FILE_DESCRIPTION (( 'STEP AP214' ),
    '1' );
FILE_NAME ('flange (cha2motor_mount).STEP',
    '2026-02-20T12:02:55',
    ( '' ),
    ( '' ),
    'SwSTEP 2.0',
    'SolidWorks 2023',
    '' );
FILE_SCHEMA (( 'AUTOMOTIVE_DESIGN' ));
ENDSEC;

DATA;
#1 = EDGE_CURVE ( 'NONE', #9, #783, #139, .T. ) ;
#2 = LINE ( 'NONE', #295, #250 ) ;
#3 = EDGE_LOOP ( 'NONE', ( #588, #893, #480, #723 ) ) ;
#4 = EDGE_CURVE ( 'NONE', #96, #729, #379, .T. ) ;
#5 = CARTESIAN_POINT ( 'NONE',  ( 0.05717787219820392314, 0.1911390674856976446, 0.005000000000000000104 ) ) ;
#6 = AXIS2_PLACEMENT_3D ( 'NONE', #301, #984, #829 ) ;
#7 = VECTOR ( 'NONE', #104, 1.000000000000000000 ) ;
#8 = ORIENTED_EDGE ( 'NONE', *, *, #395, .T. ) ;
#9 = VERTEX_POINT ( 'NONE', #601 ) ;
#10 = ORIENTED_EDGE ( 'NONE', *, *, #934, .T. ) ;
#11 = ADVANCED_FACE ( 'NONE', ( #765 ), #841, .F. ) ;
#12 = DIRECTION ( 'NONE',  ( -0.000000000000000000, 0.000000000000000000, 1.000000000000000000 ) ) ;
#13 = CARTESIAN_POINT ( 'NONE',  ( 0.05967787219820545885, 0.2336390674856978489, 0.005000000000000000104 ) ) ;
#14 = ORIENTED_EDGE ( 'NONE', *, *, #626, .T. ) ;
#15 = CARTESIAN_POINT ( 'NONE',  ( -0.04482212780179625766, 0.1236390674856977512, 0.005000000000000000104 ) ) ;
#16 = DIRECTION ( 'NONE',  ( -0.000000000000000000, -0.000000000000000000, -1.000000000000000000 ) ) ;
#17 = CIRCLE ( 'NONE', #727, 0.004500000000000010936 ) ;
#18 = LINE ( 'NONE', #785, #55 ) ;
#19 = DIRECTION ( 'NONE',  ( -0.000000000000000000, -0.000000000000000000, -1.000000000000000000 ) ) ;
#20 = AXIS2_PLACEMENT_3D ( 'NONE', #756, #982, #370 ) ;
#21 = ORIENTED_EDGE ( 'NONE', *, *, #917, .T. ) ;
#22 = DIRECTION ( 'NONE',  ( -0.000000000000000000, 0.000000000000000000, 1.000000000000000000 ) ) ;
#23 = CARTESIAN_POINT ( 'NONE',  ( -0.04032212780179631612, 0.1236390674856977512, 0.005000000000000000104 ) ) ;
#24 = CARTESIAN_POINT ( 'NONE',  ( 0.05967787219820358535, 0.1136390674856978811, 0.000000000000000000 ) ) ;
#25 = EDGE_CURVE ( 'NONE', #390, #828, #437, .T. ) ;
#26 = DIRECTION ( 'NONE',  ( 0.000000000000000000, 0.000000000000000000, -1.000000000000000000 ) ) ;
#27 = VERTEX_POINT ( 'NONE', #974 ) ;
#28 = ORIENTED_EDGE ( 'NONE', *, *, #463, .T. ) ;
#29 = DIRECTION ( 'NONE',  ( 0.000000000000000000, 1.000000000000000000, 0.000000000000000000 ) ) ;
#30 = FACE_OUTER_BOUND ( 'NONE', #741, .T. ) ;
#31 = EDGE_CURVE ( 'NONE', #389, #506, #831, .T. ) ;
#32 = EDGE_LOOP ( 'NONE', ( #646, #651 ) ) ;
#33 = CARTESIAN_POINT ( 'NONE',  ( 0.05717787219820392314, 0.1911390674856976446, 0.000000000000000000 ) ) ;
#34 = DIRECTION ( 'NONE',  ( -0.000000000000000000, 0.000000000000000000, 1.000000000000000000 ) ) ;
#35 = DIRECTION ( 'NONE',  ( 1.000000000000000000, 0.000000000000000000, 0.000000000000000000 ) ) ;
#36 = CIRCLE ( 'NONE', #284, 0.03214999999999999802 ) ;
#37 = AXIS2_PLACEMENT_3D ( 'NONE', #937, #22, #177 ) ;
#38 = ORIENTED_EDGE ( 'NONE', *, *, #143, .T. ) ;
#39 = AXIS2_PLACEMENT_3D ( 'NONE', #639, #633, #940 ) ;
#40 = DIRECTION ( 'NONE',  ( 1.000000000000000000, 0.000000000000000000, 0.000000000000000000 ) ) ;
#41 = ORIENTED_EDGE ( 'NONE', *, *, #122, .F. ) ;
#42 = CARTESIAN_POINT ( 'NONE',  ( -0.03582212780179637457, 0.1236390674856977512, 0.005000000000000000104 ) ) ;
#43 = EDGE_CURVE ( 'NONE', #760, #816, #888, .T. ) ;
#44 = AXIS2_PLACEMENT_3D ( 'NONE', #119, #820, #361 ) ;
#45 = ORIENTED_EDGE ( 'NONE', *, *, #533, .F. ) ;
#46 = VERTEX_POINT ( 'NONE', #589 ) ;
#47 = ORIENTED_EDGE ( 'NONE', *, *, #549, .F. ) ;
#48 = DIRECTION ( 'NONE',  ( 1.000000000000000000, 0.000000000000000000, 0.000000000000000000 ) ) ;
#49 = ADVANCED_FACE ( 'NONE', ( #748 ), #114, .T. ) ;
#50 = DIRECTION ( 'NONE',  ( -0.000000000000000000, 0.000000000000000000, 1.000000000000000000 ) ) ;
#51 = PLANE ( 'NONE',  #285 ) ;
#52 = VERTEX_POINT ( 'NONE', #116 ) ;
#53 = DIRECTION ( 'NONE',  ( -1.873501354054955133E-14, -1.000000000000000000, -0.000000000000000000 ) ) ;
#54 = CARTESIAN_POINT ( 'NONE',  ( -0.03532212780179620759, 0.1561390674856979466, 0.005000000000000000104 ) ) ;
#55 = VECTOR ( 'NONE', #321, 1.000000000000000000 ) ;
#56 = ORIENTED_EDGE ( 'NONE', *, *, #485, .T. ) ;
#57 = CARTESIAN_POINT ( 'NONE',  ( -0.04032212780179596917, 0.1911390674856979777, 0.005000000000000000104 ) ) ;
#58 = CARTESIAN_POINT ( 'NONE',  ( 0.05517787219820387279, 0.1236390674856978483, 0.005000000000000000104 ) ) ;
#59 = DIRECTION ( 'NONE',  ( 1.000000000000000000, 0.000000000000000000, 0.000000000000000000 ) ) ;
#60 = VECTOR ( 'NONE', #53, 1.000000000000000000 ) ;
#61 = DIRECTION ( 'NONE',  ( 1.000000000000000000, 1.982541115402065110E-16, 0.000000000000000000 ) ) ;
#62 = EDGE_CURVE ( 'NONE', #859, #444, #575, .T. ) ;
#63 = FACE_OUTER_BOUND ( 'NONE', #736, .T. ) ;
#64 = APPLICATION_PROTOCOL_DEFINITION ( 'draft international standard', 'automotive_design', 1998, #687 ) ;
#65 = VERTEX_POINT ( 'NONE', #726 ) ;
#66 = ORIENTED_EDGE ( 'NONE', *, *, #230, .F. ) ;
#67 = EDGE_CURVE ( 'NONE', #431, #714, #204, .T. ) ;
#68 = DIRECTION ( 'NONE',  ( -0.000000000000000000, -0.000000000000000000, -1.000000000000000000 ) ) ;
#69 = ORIENTED_EDGE ( 'NONE', *, *, #823, .F. ) ;
#70 = SURFACE_STYLE_USAGE ( .BOTH. , #454 ) ;
#71 = CIRCLE ( 'NONE', #359, 0.004499999999999941547 ) ;
#72 = CIRCLE ( 'NONE', #845, 0.03214999999999999802 ) ;
#73 = CARTESIAN_POINT ( 'NONE',  ( 0.05717787219820371497, 0.1561390674856977523, 0.005000000000000000104 ) ) ;
#74 = ORIENTED_EDGE ( 'NONE', *, *, #428, .T. ) ;
#75 = EDGE_CURVE ( 'NONE', #816, #421, #739, .T. ) ;
#76 = VECTOR ( 'NONE', #929, 1.000000000000000000 ) ;
#77 = CARTESIAN_POINT ( 'NONE',  ( 0.009677872198203403900, 0.1736390674856979621, -0.1103086578651016614 ) ) ;
#78 = DIRECTION ( 'NONE',  ( 1.000000000000000000, 0.000000000000000000, 0.000000000000000000 ) ) ;
#79 = EDGE_CURVE ( 'NONE', #656, #760, #416, .T. ) ;
#80 = ORIENTED_EDGE ( 'NONE', *, *, #479, .T. ) ;
#81 = EDGE_LOOP ( 'NONE', ( #981, #963 ) ) ;
#82 = CARTESIAN_POINT ( 'NONE',  ( -0.03532212780179620759, 0.1561390674856979466, 0.005000000000000000104 ) ) ;
#83 = DIRECTION ( 'NONE',  ( -0.000000000000000000, -0.000000000000000000, -1.000000000000000000 ) ) ;
#84 = CARTESIAN_POINT ( 'NONE',  ( 0.05467787219820399031, 0.1911390674856976446, 0.000000000000000000 ) ) ;
#85 = DIRECTION ( 'NONE',  ( -1.000000000000000000, 0.000000000000000000, 0.000000000000000000 ) ) ;
#86 = VERTEX_POINT ( 'NONE', #733 ) ;
#87 = AXIS2_PLACEMENT_3D ( 'NONE', #786, #266, #175 ) ;
#88 = EDGE_CURVE ( 'NONE', #484, #560, #935, .T. ) ;
#89 = VERTEX_POINT ( 'NONE', #206 ) ;
#90 = LINE ( 'NONE', #562, #328 ) ;
#91 = ORIENTED_EDGE ( 'NONE', *, *, #705, .T. ) ;
#92 = EDGE_CURVE ( 'NONE', #729, #96, #401, .T. ) ;
#93 = DIRECTION ( 'NONE',  ( 1.000000000000000000, 0.000000000000000000, 0.000000000000000000 ) ) ;
#94 = DIRECTION ( 'NONE',  ( -0.000000000000000000, 0.000000000000000000, 1.000000000000000000 ) ) ;
#95 = DIRECTION ( 'NONE',  ( 1.000000000000000000, 0.000000000000000000, 0.000000000000000000 ) ) ;
#96 = VERTEX_POINT ( 'NONE', #671 ) ;
#97 = DIRECTION ( 'NONE',  ( -0.000000000000000000, 0.000000000000000000, 1.000000000000000000 ) ) ;
#98 = CARTESIAN_POINT ( 'NONE',  ( 0.000000000000000000, 0.2336390674856978489, 0.005000000000000000104 ) ) ;
#99 = FACE_BOUND ( 'NONE', #462, .T. ) ;
#100 = AXIS2_PLACEMENT_3D ( 'NONE', #720, #948, #572 ) ;
#101 = ADVANCED_FACE ( 'NONE', ( #653 ), #742, .F. ) ;
#102 = DIRECTION ( 'NONE',  ( 0.000000000000000000, 0.000000000000000000, 1.000000000000000000 ) ) ;
#103 = CARTESIAN_POINT ( 'NONE',  ( -0.04032212780179631612, 0.1236390674856977512, 0.005000000000000000104 ) ) ;
#104 = DIRECTION ( 'NONE',  ( -0.000000000000000000, 0.000000000000000000, 1.000000000000000000 ) ) ;
#105 = DIRECTION ( 'NONE',  ( -1.000000000000000000, 0.000000000000000000, 0.000000000000000000 ) ) ;
#106 = CIRCLE ( 'NONE', #239, 0.009999999999999995004 ) ;
#107 = VERTEX_POINT ( 'NONE', #349 ) ;
#108 = DIRECTION ( 'NONE',  ( -0.000000000000000000, 0.000000000000000000, 1.000000000000000000 ) ) ;
#109 = LINE ( 'NONE', #469, #76 ) ;
#110 = DIRECTION ( 'NONE',  ( -1.000000000000000000, 0.000000000000000000, 0.000000000000000000 ) ) ;
#111 = CYLINDRICAL_SURFACE ( 'NONE', #749, 0.01000000000000000194 ) ;
#112 = EDGE_LOOP ( 'NONE', ( #38, #730 ) ) ;
#113 = EDGE_LOOP ( 'NONE', ( #468, #181 ) ) ;
#114 = CYLINDRICAL_SURFACE ( 'NONE', #251, 0.009999999999999995004 ) ;
#115 = ORIENTED_EDGE ( 'NONE', *, *, #738, .F. ) ;
#116 = CARTESIAN_POINT ( 'NONE',  ( 0.05967787219820373801, 0.1561390674856977523, 0.000000000000000000 ) ) ;
#117 = FACE_OUTER_BOUND ( 'NONE', #138, .T. ) ;
#118 = AXIS2_PLACEMENT_3D ( 'NONE', #757, #148, #554 ) ;
#119 = CARTESIAN_POINT ( 'NONE',  ( 0.05717787219820392314, 0.1911390674856976446, 0.005000000000000000104 ) ) ;
#120 = FACE_BOUND ( 'NONE', #445, .T. ) ;
#121 = ORIENTED_EDGE ( 'NONE', *, *, #62, .F. ) ;
#122 = EDGE_CURVE ( 'NONE', #879, #303, #519, .T. ) ;
#123 = AXIS2_PLACEMENT_3D ( 'NONE', #471, #158, #925 ) ;
#124 = EDGE_LOOP ( 'NONE', ( #801, #270, #535, #776, #957, #8, #253, #771 ) ) ;
#125 = DIRECTION ( 'NONE',  ( -0.000000000000000000, -0.000000000000000000, -1.000000000000000000 ) ) ;
#126 = CARTESIAN_POINT ( 'NONE',  ( -0.04032212780179631612, 0.1236390674856977512, 0.005000000000000000104 ) ) ;
#127 = VERTEX_POINT ( 'NONE', #42 ) ;
#128 = EDGE_LOOP ( 'NONE', ( #160, #868, #47, #348 ) ) ;
#129 = DIRECTION ( 'NONE',  ( -1.000000000000000000, 0.000000000000000000, 0.000000000000000000 ) ) ;
#130 = FACE_BOUND ( 'NONE', #113, .T. ) ;
#131 = DIRECTION ( 'NONE',  ( -1.873501354054955133E-14, -1.000000000000000000, -0.000000000000000000 ) ) ;
#132 = ORIENTED_EDGE ( 'NONE', *, *, #150, .F. ) ;
#133 = DIRECTION ( 'NONE',  ( -0.000000000000000000, 0.000000000000000000, 1.000000000000000000 ) ) ;
#134 = ADVANCED_FACE ( 'NONE', ( #432 ), #502, .T. ) ;
#135 = AXIS2_PLACEMENT_3D ( 'NONE', #795, #550, #95 ) ;
#136 = VECTOR ( 'NONE', #221, 1.000000000000000000 ) ;
#137 = DIRECTION ( 'NONE',  ( 0.000000000000000000, 0.000000000000000000, 1.000000000000000000 ) ) ;
#138 = EDGE_LOOP ( 'NONE', ( #811, #521, #297, #415 ) ) ;
#139 = LINE ( 'NONE', #458, #224 ) ;
#140 = FACE_BOUND ( 'NONE', #568, .T. ) ;
#141 = CIRCLE ( 'NONE', #39, 0.002500000000000023037 ) ;
#142 = CARTESIAN_POINT ( 'NONE',  ( -0.04032212780179596917, 0.1911390674856979777, 0.000000000000000000 ) ) ;
#143 = EDGE_CURVE ( 'NONE', #682, #65, #833, .T. ) ;
#144 = CARTESIAN_POINT ( 'NONE',  ( 0.06967787219820339994, 0.1136390674856980615, 0.000000000000000000 ) ) ;
#145 = DIRECTION ( 'NONE',  ( -0.000000000000000000, 0.000000000000000000, 1.000000000000000000 ) ) ;
#146 = DIRECTION ( 'NONE',  ( -1.000000000000000000, 0.000000000000000000, 0.000000000000000000 ) ) ;
#147 = ORIENTED_EDGE ( 'NONE', *, *, #79, .T. ) ;
#148 = DIRECTION ( 'NONE',  ( -0.000000000000000000, 0.000000000000000000, 1.000000000000000000 ) ) ;
#149 = DIRECTION ( 'NONE',  ( 1.000000000000000000, 0.000000000000000000, 0.000000000000000000 ) ) ;
#150 = EDGE_CURVE ( 'NONE', #403, #304, #269, .T. ) ;
#151 = FACE_OUTER_BOUND ( 'NONE', #592, .T. ) ;
#152 = VERTEX_POINT ( 'NONE', #210 ) ;
#153 = CIRCLE ( 'NONE', #709, 0.002499999999999939770 ) ;
#154 = CARTESIAN_POINT ( 'NONE',  ( 0.000000000000000000, 0.2336390674856978489, 0.005000000000000000104 ) ) ;
#155 = EDGE_LOOP ( 'NONE', ( #518, #911, #585, #797 ) ) ;
#156 = EDGE_CURVE ( 'NONE', #695, #783, #288, .T. ) ;
#157 = AXIS2_PLACEMENT_3D ( 'NONE', #918, #392, #624 ) ;
#158 = DIRECTION ( 'NONE',  ( -0.000000000000000000, 0.000000000000000000, 1.000000000000000000 ) ) ;
#159 = CARTESIAN_POINT ( 'NONE',  ( 0.05467787219820399031, 0.1911390674856976446, 0.005000000000000000104 ) ) ;
#160 = ORIENTED_EDGE ( 'NONE', *, *, #953, .T. ) ;
#161 = FACE_OUTER_BOUND ( 'NONE', #686, .T. ) ;
#162 = ORIENTED_EDGE ( 'NONE', *, *, #883, .F. ) ;
#163 = CARTESIAN_POINT ( 'NONE',  ( 0.05517787219820387279, 0.1236390674856978483, 0.005000000000000000104 ) ) ;
#164 = EDGE_CURVE ( 'NONE', #964, #473, #591, .T. ) ;
#165 = DIRECTION ( 'NONE',  ( 1.000000000000000000, 0.000000000000000000, 0.000000000000000000 ) ) ;
#166 = CIRCLE ( 'NONE', #669, 0.004499999999999941547 ) ;
#167 = ORIENTED_EDGE ( 'NONE', *, *, #681, .T. ) ;
#168 = CIRCLE ( 'NONE', #6, 0.002499999999999932832 ) ;
#169 = CIRCLE ( 'NONE', #734, 0.004499999999999941547 ) ;
#170 = CIRCLE ( 'NONE', #199, 0.009999999999999995004 ) ;
#171 = ORIENTED_EDGE ( 'NONE', *, *, #384, .T. ) ;
#172 = DIRECTION ( 'NONE',  ( 1.000000000000000000, 0.000000000000000000, 0.000000000000000000 ) ) ;
#173 = CYLINDRICAL_SURFACE ( 'NONE', #218, 0.002499999999999932832 ) ;
#174 = CYLINDRICAL_SURFACE ( 'NONE', #890, 0.002499999999999939770 ) ;
#175 = DIRECTION ( 'NONE',  ( 1.000000000000000000, 0.000000000000000000, 0.000000000000000000 ) ) ;
#176 = EDGE_LOOP ( 'NONE', ( #692, #670 ) ) ;
#177 = DIRECTION ( 'NONE',  ( 1.000000000000000000, 0.000000000000000000, 0.000000000000000000 ) ) ;
#178 = EDGE_CURVE ( 'NONE', #403, #65, #481, .T. ) ;
#179 = FACE_BOUND ( 'NONE', #281, .T. ) ;
#180 = DIRECTION ( 'NONE',  ( -0.000000000000000000, -0.000000000000000000, -1.000000000000000000 ) ) ;
#181 = ORIENTED_EDGE ( 'NONE', *, *, #407, .F. ) ;
#182 = FACE_OUTER_BOUND ( 'NONE', #835, .T. ) ;
#183 = CIRCLE ( 'NONE', #438, 0.03214999999999999802 ) ;
#184 = AXIS2_PLACEMENT_3D ( 'NONE', #722, #402, #338 ) ;
#185 = CARTESIAN_POINT ( 'NONE',  ( -0.04032212780179678796, 0.1136390674856978533, 0.005000000000000000104 ) ) ;
#186 = DIRECTION ( 'NONE',  ( 1.000000000000000000, 0.000000000000000000, 0.000000000000000000 ) ) ;
#187 = AXIS2_PLACEMENT_3D ( 'NONE', #198, #969, #822 ) ;
#188 = VERTEX_POINT ( 'NONE', #475 ) ;
#189 = CARTESIAN_POINT ( 'NONE',  ( 0.06417787219820385303, 0.2236390674856978955, 0.005000000000000000104 ) ) ;
#190 = FACE_BOUND ( 'NONE', #32, .T. ) ;
#191 = CARTESIAN_POINT ( 'NONE',  ( -0.04032212780179608713, 0.1561390674856979466, 0.005000000000000000104 ) ) ;
#192 = ORIENTED_EDGE ( 'NONE', *, *, #626, .F. ) ;
#193 = CYLINDRICAL_SURFACE ( 'NONE', #688, 0.002500000000000023037 ) ;
#194 = DIRECTION ( 'NONE',  ( -0.000000000000000000, 0.000000000000000000, 1.000000000000000000 ) ) ;
#195 = EDGE_CURVE ( 'NONE', #656, #421, #109, .T. ) ;
#196 = ORIENTED_EDGE ( 'NONE', *, *, #258, .T. ) ;
#197 = ORIENTED_EDGE ( 'NONE', *, *, #230, .T. ) ;
#198 = CARTESIAN_POINT ( 'NONE',  ( -0.03782212780179614736, 0.1561390674856979466, 0.000000000000000000 ) ) ;
#199 = AXIS2_PLACEMENT_3D ( 'NONE', #977, #510, #815 ) ;
#200 = AXIS2_PLACEMENT_3D ( 'NONE', #227, #372, #146 ) ;
#201 = DIRECTION ( 'NONE',  ( -0.000000000000000000, 0.000000000000000000, 1.000000000000000000 ) ) ;
#202 = PRODUCT_RELATED_PRODUCT_CATEGORY ( 'part', '', ( #545 ) ) ;
#203 = EDGE_LOOP ( 'NONE', ( #339, #147, #578, #511 ) ) ;
#204 = CIRCLE ( 'NONE', #951, 0.004499999999999997058 ) ;
#205 = ORIENTED_EDGE ( 'NONE', *, *, #320, .T. ) ;
#206 = CARTESIAN_POINT ( 'NONE',  ( 0.06967787219820545386, 0.2236390674856976457, 0.000000000000000000 ) ) ;
#207 = DIRECTION ( 'NONE',  ( -0.000000000000000000, -0.000000000000000000, -1.000000000000000000 ) ) ;
#208 = FACE_OUTER_BOUND ( 'NONE', #128, .T. ) ;
#209 = ORIENTED_EDGE ( 'NONE', *, *, #808, .T. ) ;
#210 = CARTESIAN_POINT ( 'NONE',  ( 0.06417787219820385303, 0.2236390674856978955, 0.000000000000000000 ) ) ;
#211 = DIRECTION ( 'NONE',  ( -0.000000000000000000, -0.000000000000000000, -1.000000000000000000 ) ) ;
#212 = ADVANCED_FACE ( 'NONE', ( #784 ), #405, .T. ) ;
#213 =( LENGTH_UNIT ( ) NAMED_UNIT ( * ) SI_UNIT ( $, .METRE. ) );
#214 = CARTESIAN_POINT ( 'NONE',  ( -0.05032212780179659561, 0.1136390674856980615, 0.000000000000000000 ) ) ;
#215 = EDGE_LOOP ( 'NONE', ( #650, #66, #409, #817 ) ) ;
#216 = ORIENTED_EDGE ( 'NONE', *, *, #676, .T. ) ;
#217 = FACE_BOUND ( 'NONE', #112, .T. ) ;
#218 = AXIS2_PLACEMENT_3D ( 'NONE', #790, #972, #761 ) ;
#219 = DIRECTION ( 'NONE',  ( 1.000000000000000000, 0.000000000000000000, 0.000000000000000000 ) ) ;
#220 = VECTOR ( 'NONE', #725, 1.000000000000000000 ) ;
#221 = DIRECTION ( 'NONE',  ( -0.000000000000000000, -0.000000000000000000, -1.000000000000000000 ) ) ;
#222 = EDGE_LOOP ( 'NONE', ( #363, #209, #827, #330 ) ) ;
#223 = DIRECTION ( 'NONE',  ( -0.000000000000000000, -0.000000000000000000, -1.000000000000000000 ) ) ;
#224 = VECTOR ( 'NONE', #223, 1.000000000000000000 ) ;
#225 = VECTOR ( 'NONE', #61, 1.000000000000000000 ) ;
#226 = EDGE_CURVE ( 'NONE', #573, #816, #305, .T. ) ;
#227 = CARTESIAN_POINT ( 'NONE',  ( -0.04032212780179587897, 0.2236390674856977845, 0.005000000000000000104 ) ) ;
#228 = VERTEX_POINT ( 'NONE', #637 ) ;
#229 = ORIENTED_EDGE ( 'NONE', *, *, #164, .F. ) ;
#230 = EDGE_CURVE ( 'NONE', #828, #389, #90, .T. ) ;
#231 = CARTESIAN_POINT ( 'NONE',  ( 0.05967787219820358535, 0.1236390674856978761, 0.005000000000000000104 ) ) ;
#232 = CARTESIAN_POINT ( 'NONE',  ( -0.02247212780179659586, 0.1736390674856979621, 0.000000000000000000 ) ) ;
#233 = PRODUCT_DEFINITION_SHAPE ( 'NONE', 'NONE',  #693 ) ;
#234 = DIRECTION ( 'NONE',  ( -0.000000000000000000, -0.000000000000000000, -1.000000000000000000 ) ) ;
#235 = CIRCLE ( 'NONE', #118, 0.002499999999999932832 ) ;
#236 = LINE ( 'NONE', #307, #649 ) ;
#237 = ORIENTED_EDGE ( 'NONE', *, *, #612, .F. ) ;
#238 = CARTESIAN_POINT ( 'NONE',  ( 0.04182787219820340019, 0.1736390674856979621, 0.000000000000000000 ) ) ;
#239 = AXIS2_PLACEMENT_3D ( 'NONE', #231, #842, #928 ) ;
#240 = ADVANCED_BREP_SHAPE_REPRESENTATION ( 'flange (cha2motor_mount)', ( #613, #894 ), #872 ) ;
#241 = EDGE_LOOP ( 'NONE', ( #962, #513 ) ) ;
#242 = ADVANCED_FACE ( 'NONE', ( #866 ), #716, .F. ) ;
#243 = DIRECTION ( 'NONE',  ( -0.000000000000000000, -0.000000000000000000, -1.000000000000000000 ) ) ;
#244 = VERTEX_POINT ( 'NONE', #13 ) ;
#245 = EDGE_CURVE ( 'NONE', #398, #964, #315, .T. ) ;
#246 = CYLINDRICAL_SURFACE ( 'NONE', #587, 0.002499999999999932832 ) ;
#247 = DIRECTION ( 'NONE',  ( 0.000000000000000000, 0.000000000000000000, 1.000000000000000000 ) ) ;
#248 = ORIENTED_EDGE ( 'NONE', *, *, #306, .F. ) ;
#249 = CARTESIAN_POINT ( 'NONE',  ( -0.000000000000000000, 0.2336390674856978489, 0.000000000000000000 ) ) ;
#250 = VECTOR ( 'NONE', #68, 1.000000000000000000 ) ;
#251 = AXIS2_PLACEMENT_3D ( 'NONE', #352, #410, #283 ) ;
#252 = EDGE_CURVE ( 'NONE', #304, #403, #529, .T. ) ;
#253 = ORIENTED_EDGE ( 'NONE', *, *, #612, .T. ) ;
#254 = LINE ( 'NONE', #642, #220 ) ;
#255 = UNCERTAINTY_MEASURE_WITH_UNIT (LENGTH_MEASURE( 1.000000000000000082E-05 ), #443, 'distance_accuracy_value', 'NONE');
#256 = CARTESIAN_POINT ( 'NONE',  ( 0.000000000000000000, 0.000000000000000000, 0.005000000000000000104 ) ) ;
#257 = CARTESIAN_POINT ( 'NONE',  ( -0.04032212780179870310, 0.2336390674856978489, 0.005000000000000000104 ) ) ;
#258 = EDGE_CURVE ( 'NONE', #703, #828, #106, .T. ) ;
#259 = ORIENTED_EDGE ( 'NONE', *, *, #252, .T. ) ;
#260 = DIRECTION ( 'NONE',  ( 1.000000000000000000, 1.982541115402065110E-16, 0.000000000000000000 ) ) ;
#261 = LINE ( 'NONE', #191, #713 ) ;
#262 = ORIENTED_EDGE ( 'NONE', *, *, #287, .T. ) ;
#263 = ORIENTED_EDGE ( 'NONE', *, *, #819, .T. ) ;
#264 = AXIS2_PLACEMENT_3D ( 'NONE', #366, #527, #830 ) ;
#265 = DIRECTION ( 'NONE',  ( -1.000000000000000000, 0.000000000000000000, 0.000000000000000000 ) ) ;
#266 = DIRECTION ( 'NONE',  ( -0.000000000000000000, 0.000000000000000000, 1.000000000000000000 ) ) ;
#267 = AXIS2_PLACEMENT_3D ( 'NONE', #904, #125, #596 ) ;
#268 = VERTEX_POINT ( 'NONE', #551 ) ;
#269 = CIRCLE ( 'NONE', #495, 0.002499999999999939770 ) ;
#270 = ORIENTED_EDGE ( 'NONE', *, *, #789, .T. ) ;
#271 = DIRECTION ( 'NONE',  ( -0.000000000000000000, -0.000000000000000000, -1.000000000000000000 ) ) ;
#272 = CARTESIAN_POINT ( 'NONE',  ( 0.06967787219820339994, 0.1136390674856980615, 0.005000000000000000104 ) ) ;
#273 = EDGE_CURVE ( 'NONE', #859, #188, #717, .T. ) ;
#274 = ORIENTED_EDGE ( 'NONE', *, *, #789, .F. ) ;
#275 = ORIENTED_EDGE ( 'NONE', *, *, #88, .F. ) ;
#276 = EDGE_LOOP ( 'NONE', ( #259, #764, #425, #619 ) ) ;
#277 = CARTESIAN_POINT ( 'NONE',  ( -0.05032212780179678990, 0.1236390674856976540, 0.000000000000000000 ) ) ;
#278 = ADVANCED_FACE ( 'NONE', ( #542 ), #850, .F. ) ;
#279 = FACE_OUTER_BOUND ( 'NONE', #124, .T. ) ;
#280 = DIRECTION ( 'NONE',  ( -0.000000000000000000, -0.000000000000000000, -1.000000000000000000 ) ) ;
#281 = EDGE_LOOP ( 'NONE', ( #628, #874 ) ) ;
#282 = ORIENTED_EDGE ( 'NONE', *, *, #316, .T. ) ;
#283 = DIRECTION ( 'NONE',  ( 1.000000000000000000, 0.000000000000000000, 0.000000000000000000 ) ) ;
#284 = AXIS2_PLACEMENT_3D ( 'NONE', #576, #882, #630 ) ;
#285 = AXIS2_PLACEMENT_3D ( 'NONE', #355, #201, #668 ) ;
#286 = CARTESIAN_POINT ( 'NONE',  ( 0.05967787219820358535, 0.1136390674856978811, 0.005000000000000000104 ) ) ;
#287 = EDGE_CURVE ( 'NONE', #783, #695, #442, .T. ) ;
#288 = CIRCLE ( 'NONE', #675, 0.004499999999999990119 ) ;
#289 = CARTESIAN_POINT ( 'NONE',  ( -0.03782212780179614736, 0.1561390674856979466, 0.005000000000000000104 ) ) ;
#290 = CARTESIAN_POINT ( 'NONE',  ( 0.05467787219820369193, 0.1561390674856977523, 0.000000000000000000 ) ) ;
#291 = ADVANCED_FACE ( 'NONE', ( #161 ), #546, .F. ) ;
#292 = DIRECTION ( 'NONE',  ( -0.000000000000000000, -0.000000000000000000, -1.000000000000000000 ) ) ;
#293 = CARTESIAN_POINT ( 'NONE',  ( 0.06967787219820339994, 0.1136390674856980615, 0.000000000000000000 ) ) ;
#294 = DIRECTION ( 'NONE',  ( 1.000000000000000000, 0.000000000000000000, 0.000000000000000000 ) ) ;
#295 = CARTESIAN_POINT ( 'NONE',  ( -0.03532212780179610351, 0.1911390674856979777, 0.005000000000000000104 ) ) ;
#296 = EDGE_LOOP ( 'NONE', ( #662, #501, #351, #864 ) ) ;
#297 = ORIENTED_EDGE ( 'NONE', *, *, #62, .T. ) ;
#298 = DIRECTION ( 'NONE',  ( 0.000000000000000000, 0.000000000000000000, 1.000000000000000000 ) ) ;
#299 = AXIS2_PLACEMENT_3D ( 'NONE', #256, #12, #35 ) ;
#300 = CIRCLE ( 'NONE', #184, 0.03214999999999999802 ) ;
#301 = CARTESIAN_POINT ( 'NONE',  ( 0.05717787219820392314, 0.1911390674856976446, 0.005000000000000000104 ) ) ;
#302 = CARTESIAN_POINT ( 'NONE',  ( 0.04182787219820340019, 0.1736390674856979621, 0.005000000000000000104 ) ) ;
#303 = VERTEX_POINT ( 'NONE', #775 ) ;
#304 = VERTEX_POINT ( 'NONE', #712 ) ;
#305 = CIRCLE ( 'NONE', #769, 0.01000000000000000194 ) ;
#306 = EDGE_CURVE ( 'NONE', #268, #573, #496, .T. ) ;
#307 = CARTESIAN_POINT ( 'NONE',  ( 0.05517787219820385891, 0.2236390674856978955, 0.005000000000000000104 ) ) ;
#308 = ORIENTED_EDGE ( 'NONE', *, *, #676, .F. ) ;
#309 = ORIENTED_EDGE ( 'NONE', *, *, #823, .T. ) ;
#310 = DIRECTION ( 'NONE',  ( -0.000000000000000000, 0.000000000000000000, 1.000000000000000000 ) ) ;
#311 = LINE ( 'NONE', #694, #136 ) ;
#312 = CIRCLE ( 'NONE', #908, 0.002500000000000023037 ) ;
#313 = AXIS2_PLACEMENT_3D ( 'NONE', #333, #645, #186 ) ;
#314 = EDGE_CURVE ( 'NONE', #52, #413, #141, .T. ) ;
#315 = LINE ( 'NONE', #317, #476 ) ;
#316 = EDGE_CURVE ( 'NONE', #86, #553, #169, .T. ) ;
#317 = CARTESIAN_POINT ( 'NONE',  ( -0.03582212780179586803, 0.2236390674856977845, 0.005000000000000000104 ) ) ;
#318 = ORIENTED_EDGE ( 'NONE', *, *, #164, .T. ) ;
#319 = DIRECTION ( 'NONE',  ( 1.000000000000000000, 0.000000000000000000, 0.000000000000000000 ) ) ;
#320 = EDGE_CURVE ( 'NONE', #228, #840, #939, .T. ) ;
#321 = DIRECTION ( 'NONE',  ( -0.000000000000000000, -0.000000000000000000, -1.000000000000000000 ) ) ;
#322 = DIRECTION ( 'NONE',  ( 1.000000000000000000, 0.000000000000000000, 0.000000000000000000 ) ) ;
#323 = ORIENTED_EDGE ( 'NONE', *, *, #245, .F. ) ;
#324 = DIRECTION ( 'NONE',  ( -1.000000000000000000, -1.982541115402065110E-16, 0.000000000000000000 ) ) ;
#325 = CIRCLE ( 'NONE', #809, 0.004500000000000010936 ) ;
#326 = DIRECTION ( 'NONE',  ( 1.000000000000000000, 0.000000000000000000, 0.000000000000000000 ) ) ;
#327 = LINE ( 'NONE', #938, #620 ) ;
#328 = VECTOR ( 'NONE', #280, 1.000000000000000000 ) ;
#329 = DIRECTION ( 'NONE',  ( -1.000000000000000000, 0.000000000000000000, 0.000000000000000000 ) ) ;
#330 = ORIENTED_EDGE ( 'NONE', *, *, #306, .T. ) ;
#331 = DIRECTION ( 'NONE',  ( -0.000000000000000000, -0.000000000000000000, -1.000000000000000000 ) ) ;
#332 = DIRECTION ( 'NONE',  ( -0.000000000000000000, -0.000000000000000000, -1.000000000000000000 ) ) ;
#333 = CARTESIAN_POINT ( 'NONE',  ( 0.05967787219820385597, 0.2236390674856978955, 0.005000000000000000104 ) ) ;
#334 = ORIENTED_EDGE ( 'NONE', *, *, #883, .T. ) ;
#335 = ORIENTED_EDGE ( 'NONE', *, *, #316, .F. ) ;
#336 = CARTESIAN_POINT ( 'NONE',  ( -0.04482212780179588990, 0.2236390674856977845, 0.005000000000000000104 ) ) ;
#337 = DIRECTION ( 'NONE',  ( -0.000000000000000000, -0.000000000000000000, -1.000000000000000000 ) ) ;
#338 = DIRECTION ( 'NONE',  ( 1.000000000000000000, 0.000000000000000000, 0.000000000000000000 ) ) ;
#339 = ORIENTED_EDGE ( 'NONE', *, *, #195, .F. ) ;
#340 = EDGE_CURVE ( 'NONE', #152, #27, #420, .T. ) ;
#341 = CARTESIAN_POINT ( 'NONE',  ( 0.05717787219820371497, 0.1561390674856977523, 0.005000000000000000104 ) ) ;
#342 = CARTESIAN_POINT ( 'NONE',  ( -0.05032212780179870504, 0.2236390674856976457, 0.000000000000000000 ) ) ;
#343 = AXIS2_PLACEMENT_3D ( 'NONE', #33, #108, #404 ) ;
#344 = CARTESIAN_POINT ( 'NONE',  ( -0.03782212780179614736, 0.1561390674856979466, 0.000000000000000000 ) ) ;
#345 = VECTOR ( 'NONE', #658, 1.000000000000000000 ) ;
#346 = AXIS2_PLACEMENT_3D ( 'NONE', #103, #799, #110 ) ;
#347 = EDGE_LOOP ( 'NONE', ( #685, #944, #216, #931 ) ) ;
#348 = ORIENTED_EDGE ( 'NONE', *, *, #537, .F. ) ;
#349 = CARTESIAN_POINT ( 'NONE',  ( 0.05967787219820545885, 0.2336390674856978489, 0.000000000000000000 ) ) ;
#350 = EDGE_LOOP ( 'NONE', ( #993, #318 ) ) ;
#351 = ORIENTED_EDGE ( 'NONE', *, *, #705, .F. ) ;
#352 = CARTESIAN_POINT ( 'NONE',  ( 0.05967787219820358535, 0.1236390674856978761, 0.005000000000000000104 ) ) ;
#353 = ADVANCED_FACE ( 'NONE', ( #483 ), #411, .F. ) ;
#354 = CARTESIAN_POINT ( 'NONE',  ( 0.06967787219820545386, 0.2236390674856976457, 0.005000000000000000104 ) ) ;
#355 = CARTESIAN_POINT ( 'NONE',  ( 0.000000000000000000, 0.000000000000000000, 0.000000000000000000 ) ) ;
#356 = ORIENTED_EDGE ( 'NONE', *, *, #449, .F. ) ;
#357 = CARTESIAN_POINT ( 'NONE',  ( 0.05967787219820545885, 0.2236390674856978400, 0.000000000000000000 ) ) ;
#358 = FACE_BOUND ( 'NONE', #81, .T. ) ;
#359 = AXIS2_PLACEMENT_3D ( 'NONE', #126, #50, #219 ) ;
#360 = AXIS2_PLACEMENT_3D ( 'NONE', #450, #607, #294 ) ;
#361 = DIRECTION ( 'NONE',  ( 1.000000000000000000, 0.000000000000000000, 0.000000000000000000 ) ) ;
#362 = ADVANCED_FACE ( 'NONE', ( #648 ), #867, .F. ) ;
#363 = ORIENTED_EDGE ( 'NONE', *, *, #921, .T. ) ;
#364 = DIRECTION ( 'NONE',  ( 1.000000000000000000, 0.000000000000000000, 0.000000000000000000 ) ) ;
#365 = FACE_BOUND ( 'NONE', #781, .T. ) ;
#366 = CARTESIAN_POINT ( 'NONE',  ( -0.04032212780179678796, 0.1236390674856978483, 0.000000000000000000 ) ) ;
#367 = PLANE ( 'NONE',  #825 ) ;
#368 = CARTESIAN_POINT ( 'NONE',  ( 0.05967787219820386291, 0.1236390674856978483, 0.005000000000000000104 ) ) ;
#369 = ORIENTED_EDGE ( 'NONE', *, *, #659, .F. ) ;
#370 = DIRECTION ( 'NONE',  ( 1.000000000000000000, 0.000000000000000000, 0.000000000000000000 ) ) ;
#371 = CARTESIAN_POINT ( 'NONE',  ( 0.05967787219820545885, 0.2336390674856978489, 0.000000000000000000 ) ) ;
#372 = DIRECTION ( 'NONE',  ( -0.000000000000000000, -0.000000000000000000, -1.000000000000000000 ) ) ;
#373 = EDGE_LOOP ( 'NONE', ( #14, #810 ) ) ;
#374 = ADVANCED_FACE ( 'NONE', ( #30 ), #406, .F. ) ;
#375 = AXIS2_PLACEMENT_3D ( 'NONE', #862, #478, #718 ) ;
#376 = CIRCLE ( 'NONE', #933, 0.004499999999999941547 ) ;
#377 = DIRECTION ( 'NONE',  ( -0.000000000000000000, -0.000000000000000000, -1.000000000000000000 ) ) ;
#378 = ORIENTED_EDGE ( 'NONE', *, *, #738, .T. ) ;
#379 = CIRCLE ( 'NONE', #20, 0.002500000000000023037 ) ;
#380 = EDGE_CURVE ( 'NONE', #840, #506, #878, .T. ) ;
#381 = CARTESIAN_POINT ( 'NONE',  ( -0.04032212780179596917, 0.1911390674856979777, 0.005000000000000000104 ) ) ;
#382 = ORIENTED_EDGE ( 'NONE', *, *, #385, .T. ) ;
#383 = UNCERTAINTY_MEASURE_WITH_UNIT (LENGTH_MEASURE( 1.000000000000000082E-05 ), #213, 'distance_accuracy_value', 'NONE');
#384 = EDGE_CURVE ( 'NONE', #821, #968, #477, .T. ) ;
#385 = EDGE_CURVE ( 'NONE', #89, #390, #583, .T. ) ;
#386 = AXIS2_PLACEMENT_3D ( 'NONE', #561, #793, #324 ) ;
#387 = AXIS2_PLACEMENT_3D ( 'NONE', #508, #896, #498 ) ;
#388 = DIRECTION ( 'NONE',  ( -0.000000000000000000, -0.000000000000000000, -1.000000000000000000 ) ) ;
#389 = VERTEX_POINT ( 'NONE', #889 ) ;
#390 = VERTEX_POINT ( 'NONE', #516 ) ;
#391 = PLANE ( 'NONE',  #299 ) ;
#392 = DIRECTION ( 'NONE',  ( -0.000000000000000000, 0.000000000000000000, 1.000000000000000000 ) ) ;
#393 = ORIENTED_EDGE ( 'NONE', *, *, #156, .F. ) ;
#394 = CARTESIAN_POINT ( 'NONE',  ( 0.009677872198203403900, 0.1736390674856979621, 0.000000000000000000 ) ) ;
#395 = EDGE_CURVE ( 'NONE', #107, #89, #170, .T. ) ;
#396 = DIRECTION ( 'NONE',  ( -0.000000000000000000, -0.000000000000000000, -1.000000000000000000 ) ) ;
#397 = VECTOR ( 'NONE', #83, 1.000000000000000000 ) ;
#398 = VERTEX_POINT ( 'NONE', #966 ) ;
#399 = DIRECTION ( 'NONE',  ( 0.000000000000000000, -0.000000000000000000, -1.000000000000000000 ) ) ;
#400 = AXIS2_PLACEMENT_3D ( 'NONE', #945, #652, #952 ) ;
#401 = CIRCLE ( 'NONE', #846, 0.002500000000000023037 ) ;
#402 = DIRECTION ( 'NONE',  ( 0.000000000000000000, -0.000000000000000000, -1.000000000000000000 ) ) ;
#403 = VERTEX_POINT ( 'NONE', #54 ) ;
#404 = DIRECTION ( 'NONE',  ( 1.000000000000000000, 0.000000000000000000, 0.000000000000000000 ) ) ;
#405 = PLANE ( 'NONE',  #898 ) ;
#406 = CYLINDRICAL_SURFACE ( 'NONE', #914, 0.004499999999999990119 ) ;
#407 = EDGE_CURVE ( 'NONE', #127, #46, #71, .T. ) ;
#408 = EDGE_LOOP ( 'NONE', ( #45, #205, #647, #805 ) ) ;
#409 = ORIENTED_EDGE ( 'NONE', *, *, #258, .F. ) ;
#410 = DIRECTION ( 'NONE',  ( 0.000000000000000000, 0.000000000000000000, 1.000000000000000000 ) ) ;
#411 = CYLINDRICAL_SURFACE ( 'NONE', #422, 0.004499999999999997058 ) ;
#412 = EDGE_CURVE ( 'NONE', #506, #703, #673, .T. ) ;
#413 = VERTEX_POINT ( 'NONE', #290 ) ;
#414 = PRESENTATION_LAYER_ASSIGNMENT (  '', '', ( #523 ) ) ;
#415 = ORIENTED_EDGE ( 'NONE', *, *, #731, .F. ) ;
#416 = LINE ( 'NONE', #277, #991 ) ;
#417 = VECTOR ( 'NONE', #377, 1.000000000000000000 ) ;
#418 = FACE_BOUND ( 'NONE', #241, .T. ) ;
#419 = FACE_BOUND ( 'NONE', #457, .T. ) ;
#420 = CIRCLE ( 'NONE', #87, 0.004499999999999997058 ) ;
#421 = VERTEX_POINT ( 'NONE', #594 ) ;
#422 = AXIS2_PLACEMENT_3D ( 'NONE', #711, #19, #329 ) ;
#423 = ORIENTED_EDGE ( 'NONE', *, *, #314, .F. ) ;
#424 = PLANE ( 'NONE',  #509 ) ;
#425 = ORIENTED_EDGE ( 'NONE', *, *, #143, .F. ) ;
#426 = CARTESIAN_POINT ( 'NONE',  ( 0.05967787219820385597, 0.2236390674856978955, 0.005000000000000000104 ) ) ;
#427 = DIRECTION ( 'NONE',  ( -1.000000000000000000, 0.000000000000000000, 0.000000000000000000 ) ) ;
#428 = EDGE_CURVE ( 'NONE', #553, #86, #166, .T. ) ;
#429 = FACE_BOUND ( 'NONE', #176, .T. ) ;
#430 = ORIENTED_EDGE ( 'NONE', *, *, #960, .T. ) ;
#431 = VERTEX_POINT ( 'NONE', #440 ) ;
#432 = FACE_OUTER_BOUND ( 'NONE', #3, .T. ) ;
#433 = ADVANCED_FACE ( 'NONE', ( #598 ), #752, .T. ) ;
#434 = FILL_AREA_STYLE ('',( #517 ) ) ;
#435 = CARTESIAN_POINT ( 'NONE',  ( 0.000000000000000000, 0.000000000000000000, 0.000000000000000000 ) ) ;
#436 = ORIENTED_EDGE ( 'NONE', *, *, #504, .T. ) ;
#437 = LINE ( 'NONE', #272, #60 ) ;
#438 = AXIS2_PLACEMENT_3D ( 'NONE', #482, #102, #644 ) ;
#439 = AXIS2_PLACEMENT_3D ( 'NONE', #603, #837, #59 ) ;
#440 = CARTESIAN_POINT ( 'NONE',  ( 0.05517787219820385891, 0.2236390674856978955, 0.005000000000000000104 ) ) ;
#441 = PRODUCT_DEFINITION_FORMATION_WITH_SPECIFIED_SOURCE ( 'ANY', '', #545, .NOT_KNOWN. ) ;
#442 = CIRCLE ( 'NONE', #123, 0.004499999999999990119 ) ;
#443 =( LENGTH_UNIT ( ) NAMED_UNIT ( * ) SI_UNIT ( $, .METRE. ) );
#444 = VERTEX_POINT ( 'NONE', #142 ) ;
#445 = EDGE_LOOP ( 'NONE', ( #91, #580 ) ) ;
#446 = CARTESIAN_POINT ( 'NONE',  ( 0.04182787219820340019, 0.1736390674856979621, -0.1103086578651016614 ) ) ;
#447 = LINE ( 'NONE', #616, #967 ) ;
#448 = DIRECTION ( 'NONE',  ( -1.873501354054955133E-14, -1.000000000000000000, 0.000000000000000000 ) ) ;
#449 = EDGE_CURVE ( 'NONE', #821, #560, #447, .T. ) ;
#450 = CARTESIAN_POINT ( 'NONE',  ( -0.04032212780179678796, 0.1236390674856978483, 0.000000000000000000 ) ) ;
#451 = DIRECTION ( 'NONE',  ( -0.000000000000000000, -0.000000000000000000, -1.000000000000000000 ) ) ;
#452 = VERTEX_POINT ( 'NONE', #238 ) ;
#453 = LINE ( 'NONE', #446, #728 ) ;
#454 = SURFACE_SIDE_STYLE ('',( #528 ) ) ;
#455 = EDGE_CURVE ( 'NONE', #567, #695, #464, .T. ) ;
#456 = DIRECTION ( 'NONE',  ( 1.000000000000000000, 0.000000000000000000, 0.000000000000000000 ) ) ;
#457 = EDGE_LOOP ( 'NONE', ( #115, #369 ) ) ;
#458 = CARTESIAN_POINT ( 'NONE',  ( 0.06417787219820385303, 0.1236390674856978483, 0.005000000000000000104 ) ) ;
#459 = VECTOR ( 'NONE', #260, 1.000000000000000000 ) ;
#460 = CARTESIAN_POINT ( 'NONE',  ( -0.03782212780179603634, 0.1911390674856979777, 0.005000000000000000104 ) ) ;
#461 = CYLINDRICAL_SURFACE ( 'NONE', #987, 0.03214999999999999802 ) ;
#462 = EDGE_LOOP ( 'NONE', ( #732, #522 ) ) ;
#463 = EDGE_CURVE ( 'NONE', #760, #228, #923, .T. ) ;
#464 = LINE ( 'NONE', #163, #397 ) ;
#465 = CARTESIAN_POINT ( 'NONE',  ( 0.05467787219820369193, 0.1561390674856977523, 0.005000000000000000104 ) ) ;
#466 = ORIENTED_EDGE ( 'NONE', *, *, #92, .F. ) ;
#467 = DIRECTION ( 'NONE',  ( 1.000000000000000000, 0.000000000000000000, 0.000000000000000000 ) ) ;
#468 = ORIENTED_EDGE ( 'NONE', *, *, #960, .F. ) ;
#469 = CARTESIAN_POINT ( 'NONE',  ( -0.05032212780179659561, 0.1136390674856980615, 0.000000000000000000 ) ) ;
#470 = FACE_OUTER_BOUND ( 'NONE', #155, .T. ) ;
#471 = CARTESIAN_POINT ( 'NONE',  ( 0.05967787219820386291, 0.1236390674856978483, 0.000000000000000000 ) ) ;
#472 = CIRCLE ( 'NONE', #343, 0.002499999999999932832 ) ;
#473 = VERTEX_POINT ( 'NONE', #791 ) ;
#474 = ORIENTED_EDGE ( 'NONE', *, *, #226, .F. ) ;
#475 = CARTESIAN_POINT ( 'NONE',  ( -0.03532212780179610351, 0.1911390674856979777, 0.005000000000000000104 ) ) ;
#476 = VECTOR ( 'NONE', #930, 1.000000000000000000 ) ;
#477 = CIRCLE ( 'NONE', #44, 0.002499999999999932832 ) ;
#478 = DIRECTION ( 'NONE',  ( -0.000000000000000000, 0.000000000000000000, 1.000000000000000000 ) ) ;
#479 = EDGE_CURVE ( 'NONE', #390, #244, #489, .T. ) ;
#480 = ORIENTED_EDGE ( 'NONE', *, *, #479, .F. ) ;
#481 = LINE ( 'NONE', #82, #544 ) ;
#482 = CARTESIAN_POINT ( 'NONE',  ( 0.009677872198203403900, 0.1736390674856979621, 0.005000000000000000104 ) ) ;
#483 = FACE_OUTER_BOUND ( 'NONE', #532, .T. ) ;
#484 = VERTEX_POINT ( 'NONE', #84 ) ;
#485 = EDGE_CURVE ( 'NONE', #567, #9, #540, .T. ) ;
#486 = PLANE ( 'NONE',  #386 ) ;
#487 = PRODUCT_DEFINITION_CONTEXT ( 'detailed design', #803, 'design' ) ;
#488 = CARTESIAN_POINT ( 'NONE',  ( -0.04032212780179870310, 0.2236390674856978400, 0.005000000000000000104 ) ) ;
#489 = CIRCLE ( 'NONE', #375, 0.009999999999999995004 ) ;
#490 = FACE_OUTER_BOUND ( 'NONE', #910, .T. ) ;
#491 = ORIENTED_EDGE ( 'NONE', *, *, #4, .T. ) ;
#492 = CIRCLE ( 'NONE', #360, 0.01000000000000000194 ) ;
#493 = CARTESIAN_POINT ( 'NONE',  ( 0.05467787219820369193, 0.1561390674856977523, 0.005000000000000000104 ) ) ;
#494 = EDGE_CURVE ( 'NONE', #421, #268, #985, .T. ) ;
#495 = AXIS2_PLACEMENT_3D ( 'NONE', #289, #593, #901 ) ;
#496 = LINE ( 'NONE', #257, #7 ) ;
#497 = ORIENTED_EDGE ( 'NONE', *, *, #863, .T. ) ;
#498 = DIRECTION ( 'NONE',  ( 1.000000000000000000, -1.942890293094024892E-14, 0.000000000000000000 ) ) ;
#499 = ADVANCED_FACE ( 'NONE', ( #470 ), #174, .F. ) ;
#500 = CARTESIAN_POINT ( 'NONE',  ( -2.252941236063460064E-17, 0.1136390674856978672, 0.000000000000000000 ) ) ;
#501 = ORIENTED_EDGE ( 'NONE', *, *, #689, .T. ) ;
#502 = CYLINDRICAL_SURFACE ( 'NONE', #622, 0.01000000000000000194 ) ;
#503 = DIRECTION ( 'NONE',  ( 1.000000000000000000, 0.000000000000000000, 0.000000000000000000 ) ) ;
#504 = EDGE_CURVE ( 'NONE', #127, #553, #18, .T. ) ;
#505 = ORIENTED_EDGE ( 'NONE', *, *, #226, .T. ) ;
#506 = VERTEX_POINT ( 'NONE', #24 ) ;
#507 = ORIENTED_EDGE ( 'NONE', *, *, #667, .T. ) ;
#508 = CARTESIAN_POINT ( 'NONE',  ( 0.05967787219820358535, 0.1236390674856978761, 0.000000000000000000 ) ) ;
#509 = AXIS2_PLACEMENT_3D ( 'NONE', #214, #886, #512 ) ;
#510 = DIRECTION ( 'NONE',  ( 0.000000000000000000, -0.000000000000000000, -1.000000000000000000 ) ) ;
#511 = ORIENTED_EDGE ( 'NONE', *, *, #75, .T. ) ;
#512 = DIRECTION ( 'NONE',  ( -1.919760646747669884E-14, 1.000000000000000000, 0.000000000000000000 ) ) ;
#513 = ORIENTED_EDGE ( 'NONE', *, *, #838, .F. ) ;
#514 = DIRECTION ( 'NONE',  ( 1.000000000000000000, 0.000000000000000000, 0.000000000000000000 ) ) ;
#515 = FACE_OUTER_BOUND ( 'NONE', #844, .T. ) ;
#516 = CARTESIAN_POINT ( 'NONE',  ( 0.06967787219820545386, 0.2236390674856976457, 0.005000000000000000104 ) ) ;
#517 = FILL_AREA_STYLE_COLOUR ( '', #794 ) ;
#518 = ORIENTED_EDGE ( 'NONE', *, *, #178, .F. ) ;
#519 = LINE ( 'NONE', #881, #345 ) ;
#520 = DIRECTION ( 'NONE',  ( -0.000000000000000000, 0.000000000000000000, 1.000000000000000000 ) ) ;
#521 = ORIENTED_EDGE ( 'NONE', *, *, #838, .T. ) ;
#522 = ORIENTED_EDGE ( 'NONE', *, *, #667, .F. ) ;
#523 = STYLED_ITEM ( 'NONE', ( #690 ), #613 ) ;
#524 = FACE_BOUND ( 'NONE', #887, .T. ) ;
#525 = VECTOR ( 'NONE', #451, 1.000000000000000000 ) ;
#526 = EDGE_CURVE ( 'NONE', #956, #303, #183, .T. ) ;
#527 = DIRECTION ( 'NONE',  ( 0.000000000000000000, -0.000000000000000000, 1.000000000000000000 ) ) ;
#528 = SURFACE_STYLE_FILL_AREA ( #434 ) ;
#529 = CIRCLE ( 'NONE', #157, 0.002499999999999939770 ) ;
#530 = DIRECTION ( 'NONE',  ( -0.000000000000000000, 0.000000000000000000, 1.000000000000000000 ) ) ;
#531 = ORIENTED_EDGE ( 'NONE', *, *, #597, .T. ) ;
#532 = EDGE_LOOP ( 'NONE', ( #884, #895, #21, #740 ) ) ;
#533 = EDGE_CURVE ( 'NONE', #228, #703, #942, .T. ) ;
#534 = LINE ( 'NONE', #465, #525 ) ;
#535 = ORIENTED_EDGE ( 'NONE', *, *, #195, .T. ) ;
#536 = ORIENTED_EDGE ( 'NONE', *, *, #79, .F. ) ;
#537 = EDGE_CURVE ( 'NONE', #699, #473, #327, .T. ) ;
#538 = CYLINDRICAL_SURFACE ( 'NONE', #200, 0.004500000000000010936 ) ;
#539 = EDGE_LOOP ( 'NONE', ( #356, #171, #851, #704 ) ) ;
#540 = CIRCLE ( 'NONE', #135, 0.004499999999999990119 ) ;
#541 = CIRCLE ( 'NONE', #746, 0.004499999999999990119 ) ;
#542 = FACE_OUTER_BOUND ( 'NONE', #539, .T. ) ;
#543 = DIRECTION ( 'NONE',  ( -0.000000000000000000, 0.000000000000000000, 1.000000000000000000 ) ) ;
#544 = VECTOR ( 'NONE', #16, 1.000000000000000000 ) ;
#545 = PRODUCT ( 'flange (cha2motor_mount)', 'flange (cha2motor_mount)', '', ( #826 ) ) ;
#546 = CYLINDRICAL_SURFACE ( 'NONE', #606, 0.03214999999999999802 ) ;
#547 = EDGE_LOOP ( 'NONE', ( #263, #737, #275, #812 ) ) ;
#548 = DIRECTION ( 'NONE',  ( 1.000000000000000000, 0.000000000000000000, 0.000000000000000000 ) ) ;
#549 = EDGE_CURVE ( 'NONE', #473, #964, #17, .T. ) ;
#550 = DIRECTION ( 'NONE',  ( -0.000000000000000000, 0.000000000000000000, 1.000000000000000000 ) ) ;
#551 = CARTESIAN_POINT ( 'NONE',  ( -0.04032212780179870310, 0.2336390674856978489, 0.000000000000000000 ) ) ;
#552 = VECTOR ( 'NONE', #78, 1.000000000000000000 ) ;
#553 = VERTEX_POINT ( 'NONE', #702 ) ;
#554 = DIRECTION ( 'NONE',  ( 1.000000000000000000, 0.000000000000000000, 0.000000000000000000 ) ) ;
#555 = FACE_BOUND ( 'NONE', #657, .T. ) ;
#556 = DIRECTION ( 'NONE',  ( -0.000000000000000000, 0.000000000000000000, 1.000000000000000000 ) ) ;
#557 = CARTESIAN_POINT ( 'NONE',  ( -2.252941236063460064E-17, 0.1136390674856978672, 0.005000000000000000104 ) ) ;
#558 = ADVANCED_FACE ( 'NONE', ( #627 ), #246, .F. ) ;
#559 = DIRECTION ( 'NONE',  ( -0.000000000000000000, 0.000000000000000000, 1.000000000000000000 ) ) ;
#560 = VERTEX_POINT ( 'NONE', #582 ) ;
#561 = CARTESIAN_POINT ( 'NONE',  ( -2.252941236063460064E-17, 0.1136390674856978672, 0.005000000000000000104 ) ) ;
#562 = CARTESIAN_POINT ( 'NONE',  ( 0.06967787219820358036, 0.1236390674856976818, 0.000000000000000000 ) ) ;
#563 = ORIENTED_EDGE ( 'NONE', *, *, #273, .T. ) ;
#564 = ADVANCED_FACE ( 'NONE', ( #117 ), #590, .F. ) ;
#565 = CARTESIAN_POINT ( 'NONE',  ( 0.05967787219820386291, 0.1236390674856978483, 0.000000000000000000 ) ) ;
#566 = DIRECTION ( 'NONE',  ( -0.000000000000000000, 0.000000000000000000, 1.000000000000000000 ) ) ;
#567 = VERTEX_POINT ( 'NONE', #58 ) ;
#568 = EDGE_LOOP ( 'NONE', ( #665, #262 ) ) ;
#569 = ADVANCED_FACE ( 'NONE', ( #515, #418, #365, #130, #358, #975, #190, #179, #99, #555 ), #391, .T. ) ;
#570 = CLOSED_SHELL ( 'NONE', ( #291, #604, #11, #242, #374, #877, #558, #101, #852, #631, #891, #353, #278, #708, #804, #362, #499, #564, #212, #569, #849, #912, #617, #983, #433, #49, #134, #766 ) ) ;
#571 = DIRECTION ( 'NONE',  ( -1.000000000000000000, 0.000000000000000000, 0.000000000000000000 ) ) ;
#572 = DIRECTION ( 'NONE',  ( 1.000000000000000000, 0.000000000000000000, 0.000000000000000000 ) ) ;
#573 = VERTEX_POINT ( 'NONE', #807 ) ;
#574 = SHAPE_DEFINITION_REPRESENTATION ( #233, #240 ) ;
#575 = LINE ( 'NONE', #57, #814 ) ;
#576 = CARTESIAN_POINT ( 'NONE',  ( 0.009677872198203403900, 0.1736390674856979621, 0.005000000000000000104 ) ) ;
#577 = ORIENTED_EDGE ( 'NONE', *, *, #122, .T. ) ;
#578 = ORIENTED_EDGE ( 'NONE', *, *, #43, .T. ) ;
#579 =( NAMED_UNIT ( * ) SI_UNIT ( $, .STERADIAN. ) SOLID_ANGLE_UNIT ( ) );
#580 = ORIENTED_EDGE ( 'NONE', *, *, #340, .T. ) ;
#581 = DIRECTION ( 'NONE',  ( -1.000000000000000000, 0.000000000000000000, 0.000000000000000000 ) ) ;
#582 = CARTESIAN_POINT ( 'NONE',  ( 0.05967787219820385597, 0.1911390674856976446, 0.000000000000000000 ) ) ;
#583 = LINE ( 'NONE', #354, #608 ) ;
#584 = EDGE_CURVE ( 'NONE', #65, #682, #153, .T. ) ;
#585 = ORIENTED_EDGE ( 'NONE', *, *, #743, .T. ) ;
#586 = ORIENTED_EDGE ( 'NONE', *, *, #75, .F. ) ;
#587 = AXIS2_PLACEMENT_3D ( 'NONE', #856, #211, #427 ) ;
#588 = ORIENTED_EDGE ( 'NONE', *, *, #395, .F. ) ;
#589 = CARTESIAN_POINT ( 'NONE',  ( -0.04482212780179625766, 0.1236390674856977512, 0.005000000000000000104 ) ) ;
#590 = CYLINDRICAL_SURFACE ( 'NONE', #696, 0.002499999999999932832 ) ;
#591 = CIRCLE ( 'NONE', #970, 0.004500000000000010936 ) ;
#592 = EDGE_LOOP ( 'NONE', ( #615, #334, #655, #595 ) ) ;
#593 = DIRECTION ( 'NONE',  ( -0.000000000000000000, 0.000000000000000000, 1.000000000000000000 ) ) ;
#594 = CARTESIAN_POINT ( 'NONE',  ( -0.05032212780179870504, 0.2236390674856976457, 0.000000000000000000 ) ) ;
#595 = ORIENTED_EDGE ( 'NONE', *, *, #863, .F. ) ;
#596 = DIRECTION ( 'NONE',  ( -1.000000000000000000, 0.000000000000000000, 0.000000000000000000 ) ) ;
#597 = EDGE_CURVE ( 'NONE', #303, #956, #36, .T. ) ;
#598 = FACE_OUTER_BOUND ( 'NONE', #900, .T. ) ;
#599 = FACE_OUTER_BOUND ( 'NONE', #707, .T. ) ;
#600 = ORIENTED_EDGE ( 'NONE', *, *, #659, .T. ) ;
#601 = CARTESIAN_POINT ( 'NONE',  ( 0.06417787219820385303, 0.1236390674856978483, 0.005000000000000000104 ) ) ;
#602 =( GEOMETRIC_REPRESENTATION_CONTEXT ( 3 ) GLOBAL_UNCERTAINTY_ASSIGNED_CONTEXT ( ( #383 ) ) GLOBAL_UNIT_ASSIGNED_CONTEXT ( ( #213, #744, #674 ) ) REPRESENTATION_CONTEXT ( 'NONE', 'WORKASPACE' ) );
#603 = CARTESIAN_POINT ( 'NONE',  ( -0.03782212780179603634, 0.1911390674856979777, 0.005000000000000000104 ) ) ;
#604 = ADVANCED_FACE ( 'NONE', ( #861 ), #173, .F. ) ;
#605 = CIRCLE ( 'NONE', #100, 0.002499999999999932832 ) ;
#606 = AXIS2_PLACEMENT_3D ( 'NONE', #77, #247, #467 ) ;
#607 = DIRECTION ( 'NONE',  ( 0.000000000000000000, -0.000000000000000000, -1.000000000000000000 ) ) ;
#608 = VECTOR ( 'NONE', #660, 1.000000000000000000 ) ;
#609 = CARTESIAN_POINT ( 'NONE',  ( -0.03582212780179586803, 0.2236390674856977845, 0.000000000000000000 ) ) ;
#610 = ORIENTED_EDGE ( 'NONE', *, *, #463, .F. ) ;
#611 = ORIENTED_EDGE ( 'NONE', *, *, #320, .F. ) ;
#612 = EDGE_CURVE ( 'NONE', #89, #389, #978, .T. ) ;
#613 = MANIFOLD_SOLID_BREP ( 'Fillet1', #570 ) ;
#614 = DIRECTION ( 'NONE',  ( -0.000000000000000000, -0.000000000000000000, -1.000000000000000000 ) ) ;
#615 = ORIENTED_EDGE ( 'NONE', *, *, #92, .T. ) ;
#616 = CARTESIAN_POINT ( 'NONE',  ( 0.05967787219820385597, 0.1911390674856976446, 0.005000000000000000104 ) ) ;
#617 = ADVANCED_FACE ( 'NONE', ( #753 ), #367, .F. ) ;
#618 = CARTESIAN_POINT ( 'NONE',  ( -0.04032212780179587897, 0.2236390674856977845, 0.005000000000000000104 ) ) ;
#619 = ORIENTED_EDGE ( 'NONE', *, *, #743, .F. ) ;
#620 = VECTOR ( 'NONE', #388, 1.000000000000000000 ) ;
#621 = VECTOR ( 'NONE', #683, 1.000000000000000000 ) ;
#622 = AXIS2_PLACEMENT_3D ( 'NONE', #357, #959, #581 ) ;
#623 = DIRECTION ( 'NONE',  ( 1.000000000000000000, 0.000000000000000000, 0.000000000000000000 ) ) ;
#624 = DIRECTION ( 'NONE',  ( 1.000000000000000000, 0.000000000000000000, 0.000000000000000000 ) ) ;
#625 = DIRECTION ( 'NONE',  ( 1.000000000000000000, 0.000000000000000000, 0.000000000000000000 ) ) ;
#626 = EDGE_CURVE ( 'NONE', #444, #885, #235, .T. ) ;
#627 = FACE_OUTER_BOUND ( 'NONE', #547, .T. ) ;
#628 = ORIENTED_EDGE ( 'NONE', *, *, #67, .F. ) ;
#629 = FACE_OUTER_BOUND ( 'NONE', #408, .T. ) ;
#630 = DIRECTION ( 'NONE',  ( 1.000000000000000000, 0.000000000000000000, 0.000000000000000000 ) ) ;
#631 = ADVANCED_FACE ( 'NONE', ( #629 ), #486, .F. ) ;
#632 = DIRECTION ( 'NONE',  ( 0.000000000000000000, -0.000000000000000000, -1.000000000000000000 ) ) ;
#633 = DIRECTION ( 'NONE',  ( -0.000000000000000000, 0.000000000000000000, 1.000000000000000000 ) ) ;
#634 = CIRCLE ( 'NONE', #400, 0.004499999999999997058 ) ;
#635 = EDGE_LOOP ( 'NONE', ( #677, #641 ) ) ;
#636 = CARTESIAN_POINT ( 'NONE',  ( -0.05032212780179678990, 0.1236390674856976540, 0.000000000000000000 ) ) ;
#637 = CARTESIAN_POINT ( 'NONE',  ( -0.04032212780179678796, 0.1136390674856978533, 0.005000000000000000104 ) ) ;
#638 = CARTESIAN_POINT ( 'NONE',  ( -0.04032212780179587897, 0.2236390674856977845, 0.000000000000000000 ) ) ;
#639 = CARTESIAN_POINT ( 'NONE',  ( 0.05717787219820371497, 0.1561390674856977523, 0.000000000000000000 ) ) ;
#640 = EDGE_CURVE ( 'NONE', #268, #107, #865, .T. ) ;
#641 = ORIENTED_EDGE ( 'NONE', *, *, #314, .T. ) ;
#642 = CARTESIAN_POINT ( 'NONE',  ( 0.06417787219820385303, 0.2236390674856978955, 0.005000000000000000104 ) ) ;
#643 = DIRECTION ( 'NONE',  ( -0.000000000000000000, 0.000000000000000000, 1.000000000000000000 ) ) ;
#644 = DIRECTION ( 'NONE',  ( 1.000000000000000000, 0.000000000000000000, 0.000000000000000000 ) ) ;
#645 = DIRECTION ( 'NONE',  ( -0.000000000000000000, 0.000000000000000000, 1.000000000000000000 ) ) ;
#646 = ORIENTED_EDGE ( 'NONE', *, *, #819, .F. ) ;
#647 = ORIENTED_EDGE ( 'NONE', *, *, #380, .T. ) ;
#648 = FACE_OUTER_BOUND ( 'NONE', #347, .T. ) ;
#649 = VECTOR ( 'NONE', #614, 1.000000000000000000 ) ;
#650 = ORIENTED_EDGE ( 'NONE', *, *, #31, .F. ) ;
#651 = ORIENTED_EDGE ( 'NONE', *, *, #384, .F. ) ;
#652 = DIRECTION ( 'NONE',  ( -0.000000000000000000, 0.000000000000000000, 1.000000000000000000 ) ) ;
#653 = FACE_OUTER_BOUND ( 'NONE', #296, .T. ) ;
#654 = VECTOR ( 'NONE', #802, 1.000000000000000000 ) ;
#655 = ORIENTED_EDGE ( 'NONE', *, *, #780, .F. ) ;
#656 = VERTEX_POINT ( 'NONE', #636 ) ;
#657 = EDGE_LOOP ( 'NONE', ( #755, #950 ) ) ;
#658 = DIRECTION ( 'NONE',  ( 0.000000000000000000, 0.000000000000000000, 1.000000000000000000 ) ) ;
#659 = EDGE_CURVE ( 'NONE', #879, #452, #72, .T. ) ;
#660 = DIRECTION ( 'NONE',  ( 0.000000000000000000, -0.000000000000000000, 1.000000000000000000 ) ) ;
#661 = DIRECTION ( 'NONE',  ( -0.000000000000000000, 0.000000000000000000, 1.000000000000000000 ) ) ;
#662 = ORIENTED_EDGE ( 'NONE', *, *, #67, .T. ) ;
#663 = ORIENTED_EDGE ( 'NONE', *, *, #252, .F. ) ;
#664 =( NAMED_UNIT ( * ) PLANE_ANGLE_UNIT ( ) SI_UNIT ( $, .RADIAN. ) );
#665 = ORIENTED_EDGE ( 'NONE', *, *, #156, .T. ) ;
#666 = DIRECTION ( 'NONE',  ( 0.000000000000000000, -0.000000000000000000, 1.000000000000000000 ) ) ;
#667 = EDGE_CURVE ( 'NONE', #398, #699, #672, .T. ) ;
#668 = DIRECTION ( 'NONE',  ( 1.000000000000000000, 0.000000000000000000, 0.000000000000000000 ) ) ;
#669 = AXIS2_PLACEMENT_3D ( 'NONE', #902, #520, #824 ) ;
#670 = ORIENTED_EDGE ( 'NONE', *, *, #698, .T. ) ;
#671 = CARTESIAN_POINT ( 'NONE',  ( 0.05967787219820373801, 0.1561390674856977523, 0.005000000000000000104 ) ) ;
#672 = CIRCLE ( 'NONE', #37, 0.004500000000000010936 ) ;
#673 = LINE ( 'NONE', #286, #767 ) ;
#674 =( NAMED_UNIT ( * ) SI_UNIT ( $, .STERADIAN. ) SOLID_ANGLE_UNIT ( ) );
#675 = AXIS2_PLACEMENT_3D ( 'NONE', #565, #94, #625 ) ;
#676 = EDGE_CURVE ( 'NONE', #46, #86, #860, .T. ) ;
#677 = ORIENTED_EDGE ( 'NONE', *, *, #780, .T. ) ;
#678 = CARTESIAN_POINT ( 'NONE',  ( 0.05717787219820371497, 0.1561390674856977523, 0.005000000000000000104 ) ) ;
#679 = CARTESIAN_POINT ( 'NONE',  ( -0.04032212780179678796, 0.1136390674856978533, 0.000000000000000000 ) ) ;
#680 = DIRECTION ( 'NONE',  ( -0.000000000000000000, -0.000000000000000000, -1.000000000000000000 ) ) ;
#681 = EDGE_CURVE ( 'NONE', #9, #567, #541, .T. ) ;
#682 = VERTEX_POINT ( 'NONE', #788 ) ;
#683 = DIRECTION ( 'NONE',  ( 0.000000000000000000, -0.000000000000000000, -1.000000000000000000 ) ) ;
#684 = DIRECTION ( 'NONE',  ( -0.000000000000000000, -0.000000000000000000, -1.000000000000000000 ) ) ;
#685 = ORIENTED_EDGE ( 'NONE', *, *, #504, .F. ) ;
#686 = EDGE_LOOP ( 'NONE', ( #378, #577, #531, #69 ) ) ;
#687 = APPLICATION_CONTEXT ( 'automotive_design' ) ;
#688 = AXIS2_PLACEMENT_3D ( 'NONE', #341, #271, #265 ) ;
#689 = EDGE_CURVE ( 'NONE', #714, #152, #254, .T. ) ;
#690 = PRESENTATION_STYLE_ASSIGNMENT (( #70 ) ) ;
#691 = DIRECTION ( 'NONE',  ( -0.000000000000000000, -0.000000000000000000, -1.000000000000000000 ) ) ;
#692 = ORIENTED_EDGE ( 'NONE', *, *, #88, .T. ) ;
#693 = PRODUCT_DEFINITION ( 'UNKNOWN', '', #441, #487 ) ;
#694 = CARTESIAN_POINT ( 'NONE',  ( 0.05967787219820373801, 0.1561390674856977523, 0.005000000000000000104 ) ) ;
#695 = VERTEX_POINT ( 'NONE', #880 ) ;
#696 = AXIS2_PLACEMENT_3D ( 'NONE', #897, #207, #750 ) ;
#697 = AXIS2_PLACEMENT_3D ( 'NONE', #73, #691, #922 ) ;
#698 = EDGE_CURVE ( 'NONE', #560, #484, #472, .T. ) ;
#699 = VERTEX_POINT ( 'NONE', #336 ) ;
#700 = AXIS2_PLACEMENT_3D ( 'NONE', #954, #818, #129 ) ;
#701 = CARTESIAN_POINT ( 'NONE',  ( -0.04032212780179678796, 0.1236390674856978483, 0.005000000000000000104 ) ) ;
#702 = CARTESIAN_POINT ( 'NONE',  ( -0.03582212780179637457, 0.1236390674856977512, 0.000000000000000000 ) ) ;
#703 = VERTEX_POINT ( 'NONE', #875 ) ;
#704 = ORIENTED_EDGE ( 'NONE', *, *, #698, .F. ) ;
#705 = EDGE_CURVE ( 'NONE', #27, #152, #634, .T. ) ;
#706 = CARTESIAN_POINT ( 'NONE',  ( -0.04032212780179870310, 0.2236390674856978400, 0.000000000000000000 ) ) ;
#707 = EDGE_LOOP ( 'NONE', ( #323, #507, #719, #229 ) ) ;
#708 = ADVANCED_FACE ( 'NONE', ( #182 ), #193, .F. ) ;
#709 = AXIS2_PLACEMENT_3D ( 'NONE', #344, #955, #503 ) ;
#710 = DIRECTION ( 'NONE',  ( -1.000000000000000000, 0.000000000000000000, 0.000000000000000000 ) ) ;
#711 = CARTESIAN_POINT ( 'NONE',  ( 0.05967787219820385597, 0.2236390674856978955, 0.005000000000000000104 ) ) ;
#712 = CARTESIAN_POINT ( 'NONE',  ( -0.04032212780179608713, 0.1561390674856979466, 0.005000000000000000104 ) ) ;
#713 = VECTOR ( 'NONE', #180, 1.000000000000000000 ) ;
#714 = VERTEX_POINT ( 'NONE', #189 ) ;
#715 = DIRECTION ( 'NONE',  ( 1.000000000000000000, 0.000000000000000000, 0.000000000000000000 ) ) ;
#716 = CYLINDRICAL_SURFACE ( 'NONE', #913, 0.004499999999999941547 ) ;
#717 = CIRCLE ( 'NONE', #798, 0.002499999999999932832 ) ;
#718 = DIRECTION ( 'NONE',  ( 1.000000000000000000, 0.000000000000000000, 0.000000000000000000 ) ) ;
#719 = ORIENTED_EDGE ( 'NONE', *, *, #537, .T. ) ;
#720 = CARTESIAN_POINT ( 'NONE',  ( -0.03782212780179603634, 0.1911390674856979777, 0.000000000000000000 ) ) ;
#721 = CARTESIAN_POINT ( 'NONE',  ( 0.05967787219820386291, 0.1236390674856978483, 0.005000000000000000104 ) ) ;
#722 = CARTESIAN_POINT ( 'NONE',  ( 0.009677872198203403900, 0.1736390674856979621, 0.000000000000000000 ) ) ;
#723 = ORIENTED_EDGE ( 'NONE', *, *, #385, .F. ) ;
#724 = ORIENTED_EDGE ( 'NONE', *, *, #533, .T. ) ;
#725 = DIRECTION ( 'NONE',  ( -0.000000000000000000, -0.000000000000000000, -1.000000000000000000 ) ) ;
#726 = CARTESIAN_POINT ( 'NONE',  ( -0.03532212780179620759, 0.1561390674856979466, 0.000000000000000000 ) ) ;
#727 = AXIS2_PLACEMENT_3D ( 'NONE', #638, #566, #623 ) ;
#728 = VECTOR ( 'NONE', #298, 1.000000000000000000 ) ;
#729 = VERTEX_POINT ( 'NONE', #493 ) ;
#730 = ORIENTED_EDGE ( 'NONE', *, *, #584, .T. ) ;
#731 = EDGE_CURVE ( 'NONE', #885, #444, #605, .T. ) ;
#732 = ORIENTED_EDGE ( 'NONE', *, *, #953, .F. ) ;
#733 = CARTESIAN_POINT ( 'NONE',  ( -0.04482212780179625766, 0.1236390674856977512, 0.000000000000000000 ) ) ;
#734 = AXIS2_PLACEMENT_3D ( 'NONE', #871, #559, #322 ) ;
#735 = FACE_BOUND ( 'NONE', #635, .T. ) ;
#736 = EDGE_LOOP ( 'NONE', ( #773, #167, #800, #936 ) ) ;
#737 = ORIENTED_EDGE ( 'NONE', *, *, #449, .T. ) ;
#738 = EDGE_CURVE ( 'NONE', #452, #879, #300, .T. ) ;
#739 = LINE ( 'NONE', #342, #754 ) ;
#740 = ORIENTED_EDGE ( 'NONE', *, *, #340, .F. ) ;
#741 = EDGE_LOOP ( 'NONE', ( #56, #854, #393, #958 ) ) ;
#742 = CYLINDRICAL_SURFACE ( 'NONE', #700, 0.004499999999999997058 ) ;
#743 = EDGE_CURVE ( 'NONE', #304, #682, #261, .T. ) ;
#744 =( NAMED_UNIT ( * ) PLANE_ANGLE_UNIT ( ) SI_UNIT ( $, .RADIAN. ) );
#745 = AXIS2_PLACEMENT_3D ( 'NONE', #706, #632, #165 ) ;
#746 = AXIS2_PLACEMENT_3D ( 'NONE', #932, #97, #172 ) ;
#747 = APPLICATION_PROTOCOL_DEFINITION ( 'draft international standard', 'automotive_design', 1998, #803 ) ;
#748 = FACE_OUTER_BOUND ( 'NONE', #215, .T. ) ;
#749 = AXIS2_PLACEMENT_3D ( 'NONE', #796, #26, #105 ) ;
#750 = DIRECTION ( 'NONE',  ( -1.000000000000000000, 0.000000000000000000, 0.000000000000000000 ) ) ;
#751 = CARTESIAN_POINT ( 'NONE',  ( 0.06967787219820358036, 0.1236390674856976818, 0.005000000000000000104 ) ) ;
#752 = CYLINDRICAL_SURFACE ( 'NONE', #264, 0.01000000000000000194 ) ;
#753 = FACE_OUTER_BOUND ( 'NONE', #941, .T. ) ;
#754 = VECTOR ( 'NONE', #813, 1.000000000000000000 ) ;
#755 = ORIENTED_EDGE ( 'NONE', *, *, #526, .F. ) ;
#756 = CARTESIAN_POINT ( 'NONE',  ( 0.05717787219820371497, 0.1561390674856977523, 0.005000000000000000104 ) ) ;
#757 = CARTESIAN_POINT ( 'NONE',  ( -0.03782212780179603634, 0.1911390674856979777, 0.000000000000000000 ) ) ;
#758 = DIRECTION ( 'NONE',  ( -1.000000000000000000, 0.000000000000000000, 0.000000000000000000 ) ) ;
#759 = FACE_OUTER_BOUND ( 'NONE', #916, .T. ) ;
#760 = VERTEX_POINT ( 'NONE', #873 ) ;
#761 = DIRECTION ( 'NONE',  ( -1.000000000000000000, 0.000000000000000000, 0.000000000000000000 ) ) ;
#762 = CARTESIAN_POINT ( 'NONE',  ( 0.06417787219820385303, 0.1236390674856978483, 0.000000000000000000 ) ) ;
#763 = CYLINDRICAL_SURFACE ( 'NONE', #697, 0.002500000000000023037 ) ;
#764 = ORIENTED_EDGE ( 'NONE', *, *, #178, .T. ) ;
#765 = FACE_OUTER_BOUND ( 'NONE', #276, .T. ) ;
#766 = ADVANCED_FACE ( 'NONE', ( #490 ), #111, .T. ) ;
#767 = VECTOR ( 'NONE', #971, 1.000000000000000000 ) ;
#768 = AXIS2_PLACEMENT_3D ( 'NONE', #839, #684, #980 ) ;
#769 = AXIS2_PLACEMENT_3D ( 'NONE', #488, #661, #326 ) ;
#770 = LINE ( 'NONE', #159, #417 ) ;
#771 = ORIENTED_EDGE ( 'NONE', *, *, #31, .T. ) ;
#772 = CARTESIAN_POINT ( 'NONE',  ( -0.04032212780179631612, 0.1236390674856977512, 0.005000000000000000104 ) ) ;
#773 = ORIENTED_EDGE ( 'NONE', *, *, #1, .F. ) ;
#774 = EDGE_CURVE ( 'NONE', #714, #431, #947, .T. ) ;
#775 = CARTESIAN_POINT ( 'NONE',  ( -0.02247212780179659586, 0.1736390674856979621, 0.005000000000000000104 ) ) ;
#776 = ORIENTED_EDGE ( 'NONE', *, *, #494, .T. ) ;
#777 = CARTESIAN_POINT ( 'NONE',  ( -0.04032212780179587897, 0.2236390674856977845, 0.000000000000000000 ) ) ;
#778 = VECTOR ( 'NONE', #331, 1.000000000000000000 ) ;
#779 = DIRECTION ( 'NONE',  ( -0.000000000000000000, -0.000000000000000000, -1.000000000000000000 ) ) ;
#780 = EDGE_CURVE ( 'NONE', #413, #52, #312, .T. ) ;
#781 = EDGE_LOOP ( 'NONE', ( #663, #132 ) ) ;
#782 = AXIS2_PLACEMENT_3D ( 'NONE', #965, #133, #48 ) ;
#783 = VERTEX_POINT ( 'NONE', #762 ) ;
#784 = FACE_OUTER_BOUND ( 'NONE', #222, .T. ) ;
#785 = CARTESIAN_POINT ( 'NONE',  ( -0.03582212780179637457, 0.1236390674856977512, 0.005000000000000000104 ) ) ;
#786 = CARTESIAN_POINT ( 'NONE',  ( 0.05967787219820385597, 0.2236390674856978955, 0.000000000000000000 ) ) ;
#787 = ORIENTED_EDGE ( 'NONE', *, *, #25, .T. ) ;
#788 = CARTESIAN_POINT ( 'NONE',  ( -0.04032212780179608713, 0.1561390674856979466, 0.000000000000000000 ) ) ;
#789 = EDGE_CURVE ( 'NONE', #840, #656, #492, .T. ) ;
#790 = CARTESIAN_POINT ( 'NONE',  ( -0.03782212780179603634, 0.1911390674856979777, 0.005000000000000000104 ) ) ;
#791 = CARTESIAN_POINT ( 'NONE',  ( -0.04482212780179588990, 0.2236390674856977845, 0.000000000000000000 ) ) ;
#792 = EDGE_LOOP ( 'NONE', ( #563, #10, #192, #121 ) ) ;
#793 = DIRECTION ( 'NONE',  ( -1.982541115402065110E-16, 1.000000000000000000, 0.000000000000000000 ) ) ;
#794 = COLOUR_RGB ( '',0.7921568627450980005, 0.8196078431372548767, 0.9333333333333333481 ) ;
#795 = CARTESIAN_POINT ( 'NONE',  ( 0.05967787219820386291, 0.1236390674856978483, 0.005000000000000000104 ) ) ;
#796 = CARTESIAN_POINT ( 'NONE',  ( -0.04032212780179870310, 0.2236390674856978400, 0.005000000000000000104 ) ) ;
#797 = ORIENTED_EDGE ( 'NONE', *, *, #584, .F. ) ;
#798 = AXIS2_PLACEMENT_3D ( 'NONE', #460, #310, #853 ) ;
#799 = DIRECTION ( 'NONE',  ( -0.000000000000000000, -0.000000000000000000, -1.000000000000000000 ) ) ;
#800 = ORIENTED_EDGE ( 'NONE', *, *, #455, .T. ) ;
#801 = ORIENTED_EDGE ( 'NONE', *, *, #380, .F. ) ;
#802 = DIRECTION ( 'NONE',  ( -1.919760646747669884E-14, 1.000000000000000000, 0.000000000000000000 ) ) ;
#803 = APPLICATION_CONTEXT ( 'automotive_design' ) ;
#804 = ADVANCED_FACE ( 'NONE', ( #63 ), #907, .F. ) ;
#805 = ORIENTED_EDGE ( 'NONE', *, *, #412, .T. ) ;
#806 = CARTESIAN_POINT ( 'NONE',  ( -0.05032212780179659561, 0.1136390674856980615, 0.005000000000000000104 ) ) ;
#807 = CARTESIAN_POINT ( 'NONE',  ( -0.04032212780179870310, 0.2336390674856978489, 0.005000000000000000104 ) ) ;
#808 = EDGE_CURVE ( 'NONE', #244, #107, #979, .T. ) ;
#809 = AXIS2_PLACEMENT_3D ( 'NONE', #618, #543, #847 ) ;
#810 = ORIENTED_EDGE ( 'NONE', *, *, #731, .T. ) ;
#811 = ORIENTED_EDGE ( 'NONE', *, *, #934, .F. ) ;
#812 = ORIENTED_EDGE ( 'NONE', *, *, #857, .F. ) ;
#813 = DIRECTION ( 'NONE',  ( 0.000000000000000000, -0.000000000000000000, -1.000000000000000000 ) ) ;
#814 = VECTOR ( 'NONE', #292, 1.000000000000000000 ) ;
#815 = DIRECTION ( 'NONE',  ( 1.000000000000000000, 5.828670879282074362E-14, 0.000000000000000000 ) ) ;
#816 = VERTEX_POINT ( 'NONE', #986 ) ;
#817 = ORIENTED_EDGE ( 'NONE', *, *, #412, .F. ) ;
#818 = DIRECTION ( 'NONE',  ( -0.000000000000000000, -0.000000000000000000, -1.000000000000000000 ) ) ;
#819 = EDGE_CURVE ( 'NONE', #968, #821, #168, .T. ) ;
#820 = DIRECTION ( 'NONE',  ( -0.000000000000000000, 0.000000000000000000, 1.000000000000000000 ) ) ;
#821 = VERTEX_POINT ( 'NONE', #905 ) ;
#822 = DIRECTION ( 'NONE',  ( 1.000000000000000000, 0.000000000000000000, 0.000000000000000000 ) ) ;
#823 = EDGE_CURVE ( 'NONE', #452, #956, #453, .T. ) ;
#824 = DIRECTION ( 'NONE',  ( 1.000000000000000000, 0.000000000000000000, 0.000000000000000000 ) ) ;
#825 = AXIS2_PLACEMENT_3D ( 'NONE', #293, #832, #448 ) ;
#826 = PRODUCT_CONTEXT ( 'NONE', #687, 'mechanical' ) ;
#827 = ORIENTED_EDGE ( 'NONE', *, *, #640, .F. ) ;
#828 = VERTEX_POINT ( 'NONE', #751 ) ;
#829 = DIRECTION ( 'NONE',  ( 1.000000000000000000, 0.000000000000000000, 0.000000000000000000 ) ) ;
#830 = DIRECTION ( 'NONE',  ( 1.000000000000000000, 0.000000000000000000, 0.000000000000000000 ) ) ;
#831 = CIRCLE ( 'NONE', #387, 0.009999999999999995004 ) ;
#832 = DIRECTION ( 'NONE',  ( -1.000000000000000000, 1.873501354054955133E-14, 0.000000000000000000 ) ) ;
#833 = CIRCLE ( 'NONE', #187, 0.002499999999999939770 ) ;
#834 = DIRECTION ( 'NONE',  ( 1.000000000000000000, 0.000000000000000000, 0.000000000000000000 ) ) ;
#835 = EDGE_LOOP ( 'NONE', ( #162, #491, #497, #423 ) ) ;
#836 = ORIENTED_EDGE ( 'NONE', *, *, #526, .T. ) ;
#837 = DIRECTION ( 'NONE',  ( -0.000000000000000000, 0.000000000000000000, 1.000000000000000000 ) ) ;
#838 = EDGE_CURVE ( 'NONE', #188, #859, #855, .T. ) ;
#839 = CARTESIAN_POINT ( 'NONE',  ( -0.04032212780179587897, 0.2236390674856977845, 0.005000000000000000104 ) ) ;
#840 = VERTEX_POINT ( 'NONE', #679 ) ;
#841 = CYLINDRICAL_SURFACE ( 'NONE', #267, 0.002499999999999939770 ) ;
#842 = DIRECTION ( 'NONE',  ( -0.000000000000000000, 0.000000000000000000, 1.000000000000000000 ) ) ;
#843 = DIRECTION ( 'NONE',  ( 0.000000000000000000, 0.000000000000000000, 1.000000000000000000 ) ) ;
#844 = EDGE_LOOP ( 'NONE', ( #973, #28, #724, #196, #989, #80, #920, #505 ) ) ;
#845 = AXIS2_PLACEMENT_3D ( 'NONE', #394, #399, #715 ) ;
#846 = AXIS2_PLACEMENT_3D ( 'NONE', #678, #34, #514 ) ;
#847 = DIRECTION ( 'NONE',  ( 1.000000000000000000, 0.000000000000000000, 0.000000000000000000 ) ) ;
#848 = EDGE_LOOP ( 'NONE', ( #430, #436, #335, #308 ) ) ;
#849 = ADVANCED_FACE ( 'NONE', ( #976, #217, #524, #140, #735, #429, #120, #961, #279, #419 ), #51, .F. ) ;
#850 = CYLINDRICAL_SURFACE ( 'NONE', #876, 0.002499999999999932832 ) ;
#851 = ORIENTED_EDGE ( 'NONE', *, *, #857, .T. ) ;
#852 = ADVANCED_FACE ( 'NONE', ( #208 ), #538, .F. ) ;
#853 = DIRECTION ( 'NONE',  ( 1.000000000000000000, 0.000000000000000000, 0.000000000000000000 ) ) ;
#854 = ORIENTED_EDGE ( 'NONE', *, *, #1, .T. ) ;
#855 = CIRCLE ( 'NONE', #439, 0.002499999999999932832 ) ;
#856 = CARTESIAN_POINT ( 'NONE',  ( 0.05717787219820392314, 0.1911390674856976446, 0.005000000000000000104 ) ) ;
#857 = EDGE_CURVE ( 'NONE', #968, #484, #770, .T. ) ;
#858 = VECTOR ( 'NONE', #396, 1.000000000000000000 ) ;
#859 = VERTEX_POINT ( 'NONE', #381 ) ;
#860 = LINE ( 'NONE', #15, #778 ) ;
#861 = FACE_OUTER_BOUND ( 'NONE', #792, .T. ) ;
#862 = CARTESIAN_POINT ( 'NONE',  ( 0.05967787219820545885, 0.2236390674856978400, 0.005000000000000000104 ) ) ;
#863 = EDGE_CURVE ( 'NONE', #729, #413, #534, .T. ) ;
#864 = ORIENTED_EDGE ( 'NONE', *, *, #917, .F. ) ;
#865 = LINE ( 'NONE', #249, #924 ) ;
#866 = FACE_OUTER_BOUND ( 'NONE', #848, .T. ) ;
#867 = CYLINDRICAL_SURFACE ( 'NONE', #346, 0.004499999999999941547 ) ;
#868 = ORIENTED_EDGE ( 'NONE', *, *, #245, .T. ) ;
#869 = AXIS2_PLACEMENT_3D ( 'NONE', #701, #556, #548 ) ;
#870 = AXIS2_PLACEMENT_3D ( 'NONE', #368, #680, #758 ) ;
#871 = CARTESIAN_POINT ( 'NONE',  ( -0.04032212780179631612, 0.1236390674856977512, 0.000000000000000000 ) ) ;
#872 =( GEOMETRIC_REPRESENTATION_CONTEXT ( 3 ) GLOBAL_UNCERTAINTY_ASSIGNED_CONTEXT ( ( #255 ) ) GLOBAL_UNIT_ASSIGNED_CONTEXT ( ( #443, #664, #579 ) ) REPRESENTATION_CONTEXT ( 'NONE', 'WORKASPACE' ) );
#873 = CARTESIAN_POINT ( 'NONE',  ( -0.05032212780179678990, 0.1236390674856976540, 0.005000000000000000104 ) ) ;
#874 = ORIENTED_EDGE ( 'NONE', *, *, #774, .F. ) ;
#875 = CARTESIAN_POINT ( 'NONE',  ( 0.05967787219820358535, 0.1136390674856978811, 0.005000000000000000104 ) ) ;
#876 = AXIS2_PLACEMENT_3D ( 'NONE', #5, #243, #85 ) ;
#877 = ADVANCED_FACE ( 'NONE', ( #151 ), #763, .F. ) ;
#878 = LINE ( 'NONE', #500, #225 ) ;
#879 = VERTEX_POINT ( 'NONE', #232 ) ;
#880 = CARTESIAN_POINT ( 'NONE',  ( 0.05517787219820387279, 0.1236390674856978483, 0.000000000000000000 ) ) ;
#881 = CARTESIAN_POINT ( 'NONE',  ( -0.02247212780179659586, 0.1736390674856979621, -0.1103086578651016614 ) ) ;
#882 = DIRECTION ( 'NONE',  ( 0.000000000000000000, 0.000000000000000000, 1.000000000000000000 ) ) ;
#883 = EDGE_CURVE ( 'NONE', #96, #52, #311, .T. ) ;
#884 = ORIENTED_EDGE ( 'NONE', *, *, #689, .F. ) ;
#885 = VERTEX_POINT ( 'NONE', #909 ) ;
#886 = DIRECTION ( 'NONE',  ( 1.000000000000000000, 1.919760646747669884E-14, 0.000000000000000000 ) ) ;
#887 = EDGE_LOOP ( 'NONE', ( #282, #74 ) ) ;
#888 = LINE ( 'NONE', #806, #654 ) ;
#889 = CARTESIAN_POINT ( 'NONE',  ( 0.06967787219820358036, 0.1236390674856976818, 0.000000000000000000 ) ) ;
#890 = AXIS2_PLACEMENT_3D ( 'NONE', #927, #779, #710 ) ;
#891 = ADVANCED_FACE ( 'NONE', ( #599 ), #992, .F. ) ;
#892 = DIRECTION ( 'NONE',  ( 0.000000000000000000, -0.000000000000000000, 1.000000000000000000 ) ) ;
#893 = ORIENTED_EDGE ( 'NONE', *, *, #808, .F. ) ;
#894 = AXIS2_PLACEMENT_3D ( 'NONE', #435, #137, #40 ) ;
#895 = ORIENTED_EDGE ( 'NONE', *, *, #774, .T. ) ;
#896 = DIRECTION ( 'NONE',  ( 0.000000000000000000, -0.000000000000000000, -1.000000000000000000 ) ) ;
#897 = CARTESIAN_POINT ( 'NONE',  ( -0.03782212780179603634, 0.1911390674856979777, 0.005000000000000000104 ) ) ;
#898 = AXIS2_PLACEMENT_3D ( 'NONE', #98, #29, #892 ) ;
#899 = FACE_OUTER_BOUND ( 'NONE', #203, .T. ) ;
#900 = EDGE_LOOP ( 'NONE', ( #274, #611, #610, #536 ) ) ;
#901 = DIRECTION ( 'NONE',  ( 1.000000000000000000, 0.000000000000000000, 0.000000000000000000 ) ) ;
#902 = CARTESIAN_POINT ( 'NONE',  ( -0.04032212780179631612, 0.1236390674856977512, 0.000000000000000000 ) ) ;
#903 = DIRECTION ( 'NONE',  ( -1.000000000000000000, 0.000000000000000000, 0.000000000000000000 ) ) ;
#904 = CARTESIAN_POINT ( 'NONE',  ( -0.03782212780179614736, 0.1561390674856979466, 0.005000000000000000104 ) ) ;
#905 = CARTESIAN_POINT ( 'NONE',  ( 0.05967787219820385597, 0.1911390674856976446, 0.005000000000000000104 ) ) ;
#906 = MECHANICAL_DESIGN_GEOMETRIC_PRESENTATION_REPRESENTATION (  '', ( #523 ), #602 ) ;
#907 = CYLINDRICAL_SURFACE ( 'NONE', #870, 0.004499999999999990119 ) ;
#908 = AXIS2_PLACEMENT_3D ( 'NONE', #943, #145, #149 ) ;
#909 = CARTESIAN_POINT ( 'NONE',  ( -0.03532212780179610351, 0.1911390674856979777, 0.000000000000000000 ) ) ;
#910 = EDGE_LOOP ( 'NONE', ( #990, #586, #474, #248 ) ) ;
#911 = ORIENTED_EDGE ( 'NONE', *, *, #150, .T. ) ;
#912 = ADVANCED_FACE ( 'NONE', ( #759 ), #461, .F. ) ;
#913 = AXIS2_PLACEMENT_3D ( 'NONE', #23, #332, #903 ) ;
#914 = AXIS2_PLACEMENT_3D ( 'NONE', #721, #337, #571 ) ;
#915 = CARTESIAN_POINT ( 'NONE',  ( 0.05467787219820399031, 0.1911390674856976446, 0.005000000000000000104 ) ) ;
#916 = EDGE_LOOP ( 'NONE', ( #41, #600, #309, #836 ) ) ;
#917 = EDGE_CURVE ( 'NONE', #431, #27, #236, .T. ) ;
#918 = CARTESIAN_POINT ( 'NONE',  ( -0.03782212780179614736, 0.1561390674856979466, 0.005000000000000000104 ) ) ;
#919 = LINE ( 'NONE', #154, #552 ) ;
#920 = ORIENTED_EDGE ( 'NONE', *, *, #921, .F. ) ;
#921 = EDGE_CURVE ( 'NONE', #573, #244, #919, .T. ) ;
#922 = DIRECTION ( 'NONE',  ( -1.000000000000000000, 0.000000000000000000, 0.000000000000000000 ) ) ;
#923 = CIRCLE ( 'NONE', #869, 0.01000000000000000194 ) ;
#924 = VECTOR ( 'NONE', #93, 1.000000000000000000 ) ;
#925 = DIRECTION ( 'NONE',  ( 1.000000000000000000, 0.000000000000000000, 0.000000000000000000 ) ) ;
#926 = EDGE_LOOP ( 'NONE', ( #466, #949 ) ) ;
#927 = CARTESIAN_POINT ( 'NONE',  ( -0.03782212780179614736, 0.1561390674856979466, 0.005000000000000000104 ) ) ;
#928 = DIRECTION ( 'NONE',  ( 1.000000000000000000, 0.000000000000000000, 0.000000000000000000 ) ) ;
#929 = DIRECTION ( 'NONE',  ( -1.919760646747669884E-14, 1.000000000000000000, 0.000000000000000000 ) ) ;
#930 = DIRECTION ( 'NONE',  ( -0.000000000000000000, -0.000000000000000000, -1.000000000000000000 ) ) ;
#931 = ORIENTED_EDGE ( 'NONE', *, *, #428, .F. ) ;
#932 = CARTESIAN_POINT ( 'NONE',  ( 0.05967787219820386291, 0.1236390674856978483, 0.005000000000000000104 ) ) ;
#933 = AXIS2_PLACEMENT_3D ( 'NONE', #772, #530, #834 ) ;
#934 = EDGE_CURVE ( 'NONE', #188, #885, #2, .T. ) ;
#935 = CIRCLE ( 'NONE', #782, 0.002499999999999932832 ) ;
#936 = ORIENTED_EDGE ( 'NONE', *, *, #287, .F. ) ;
#937 = CARTESIAN_POINT ( 'NONE',  ( -0.04032212780179587897, 0.2236390674856977845, 0.005000000000000000104 ) ) ;
#938 = CARTESIAN_POINT ( 'NONE',  ( -0.04482212780179588990, 0.2236390674856977845, 0.005000000000000000104 ) ) ;
#939 = LINE ( 'NONE', #185, #858 ) ;
#940 = DIRECTION ( 'NONE',  ( 1.000000000000000000, 0.000000000000000000, 0.000000000000000000 ) ) ;
#941 = EDGE_LOOP ( 'NONE', ( #787, #197, #237, #382 ) ) ;
#942 = LINE ( 'NONE', #557, #459 ) ;
#943 = CARTESIAN_POINT ( 'NONE',  ( 0.05717787219820371497, 0.1561390674856977523, 0.000000000000000000 ) ) ;
#944 = ORIENTED_EDGE ( 'NONE', *, *, #407, .T. ) ;
#945 = CARTESIAN_POINT ( 'NONE',  ( 0.05967787219820385597, 0.2236390674856978955, 0.000000000000000000 ) ) ;
#946 = VECTOR ( 'NONE', #131, 1.000000000000000000 ) ;
#947 = CIRCLE ( 'NONE', #313, 0.004499999999999997058 ) ;
#948 = DIRECTION ( 'NONE',  ( -0.000000000000000000, 0.000000000000000000, 1.000000000000000000 ) ) ;
#949 = ORIENTED_EDGE ( 'NONE', *, *, #4, .F. ) ;
#950 = ORIENTED_EDGE ( 'NONE', *, *, #597, .F. ) ;
#951 = AXIS2_PLACEMENT_3D ( 'NONE', #426, #194, #364 ) ;
#952 = DIRECTION ( 'NONE',  ( 1.000000000000000000, 0.000000000000000000, 0.000000000000000000 ) ) ;
#953 = EDGE_CURVE ( 'NONE', #699, #398, #325, .T. ) ;
#954 = CARTESIAN_POINT ( 'NONE',  ( 0.05967787219820385597, 0.2236390674856978955, 0.005000000000000000104 ) ) ;
#955 = DIRECTION ( 'NONE',  ( -0.000000000000000000, 0.000000000000000000, 1.000000000000000000 ) ) ;
#956 = VERTEX_POINT ( 'NONE', #302 ) ;
#957 = ORIENTED_EDGE ( 'NONE', *, *, #640, .T. ) ;
#958 = ORIENTED_EDGE ( 'NONE', *, *, #455, .F. ) ;
#959 = DIRECTION ( 'NONE',  ( 0.000000000000000000, 0.000000000000000000, -1.000000000000000000 ) ) ;
#960 = EDGE_CURVE ( 'NONE', #46, #127, #376, .T. ) ;
#961 = FACE_BOUND ( 'NONE', #350, .T. ) ;
#962 = ORIENTED_EDGE ( 'NONE', *, *, #273, .F. ) ;
#963 = ORIENTED_EDGE ( 'NONE', *, *, #681, .F. ) ;
#964 = VERTEX_POINT ( 'NONE', #609 ) ;
#965 = CARTESIAN_POINT ( 'NONE',  ( 0.05717787219820392314, 0.1911390674856976446, 0.000000000000000000 ) ) ;
#966 = CARTESIAN_POINT ( 'NONE',  ( -0.03582212780179586803, 0.2236390674856977845, 0.005000000000000000104 ) ) ;
#967 = VECTOR ( 'NONE', #234, 1.000000000000000000 ) ;
#968 = VERTEX_POINT ( 'NONE', #915 ) ;
#969 = DIRECTION ( 'NONE',  ( -0.000000000000000000, 0.000000000000000000, 1.000000000000000000 ) ) ;
#970 = AXIS2_PLACEMENT_3D ( 'NONE', #777, #643, #319 ) ;
#971 = DIRECTION ( 'NONE',  ( 0.000000000000000000, 0.000000000000000000, 1.000000000000000000 ) ) ;
#972 = DIRECTION ( 'NONE',  ( -0.000000000000000000, -0.000000000000000000, -1.000000000000000000 ) ) ;
#973 = ORIENTED_EDGE ( 'NONE', *, *, #43, .F. ) ;
#974 = CARTESIAN_POINT ( 'NONE',  ( 0.05517787219820385891, 0.2236390674856978955, 0.000000000000000000 ) ) ;
#975 = FACE_BOUND ( 'NONE', #926, .T. ) ;
#976 = FACE_BOUND ( 'NONE', #373, .T. ) ;
#977 = CARTESIAN_POINT ( 'NONE',  ( 0.05967787219820545885, 0.2236390674856978400, 0.000000000000000000 ) ) ;
#978 = LINE ( 'NONE', #144, #946 ) ;
#979 = LINE ( 'NONE', #371, #621 ) ;
#980 = DIRECTION ( 'NONE',  ( -1.000000000000000000, 0.000000000000000000, 0.000000000000000000 ) ) ;
#981 = ORIENTED_EDGE ( 'NONE', *, *, #485, .F. ) ;
#982 = DIRECTION ( 'NONE',  ( -0.000000000000000000, 0.000000000000000000, 1.000000000000000000 ) ) ;
#983 = ADVANCED_FACE ( 'NONE', ( #899 ), #424, .F. ) ;
#984 = DIRECTION ( 'NONE',  ( -0.000000000000000000, 0.000000000000000000, 1.000000000000000000 ) ) ;
#985 = CIRCLE ( 'NONE', #745, 0.01000000000000000194 ) ;
#986 = CARTESIAN_POINT ( 'NONE',  ( -0.05032212780179870504, 0.2236390674856976457, 0.005000000000000000104 ) ) ;
#987 = AXIS2_PLACEMENT_3D ( 'NONE', #988, #843, #456 ) ;
#988 = CARTESIAN_POINT ( 'NONE',  ( 0.009677872198203403900, 0.1736390674856979621, -0.1103086578651016614 ) ) ;
#989 = ORIENTED_EDGE ( 'NONE', *, *, #25, .F. ) ;
#990 = ORIENTED_EDGE ( 'NONE', *, *, #494, .F. ) ;
#991 = VECTOR ( 'NONE', #666, 1.000000000000000000 ) ;
#992 = CYLINDRICAL_SURFACE ( 'NONE', #768, 0.004500000000000010936 ) ;
#993 = ORIENTED_EDGE ( 'NONE', *, *, #549, .T. ) ;
ENDSEC;
END-ISO-10303-21;
