ISO-10303-21;
HEADER;
FILE_DESCRIPTION (( 'STEP AP214' ),
    '1' );
FILE_NAME ('front plate al old motor.STEP',
    '2026-02-21T07:13:08',
    ( '' ),
    ( '' ),
    'SwSTEP 2.0',
    'SolidWorks 2023',
    '' );
FILE_SCHEMA (( 'AUTOMOTIVE_DESIGN' ));
ENDSEC;

DATA;
#1 = EDGE_CURVE ( 'NONE', #158, #295, #80, .T. ) ;
#2 = AXIS2_PLACEMENT_3D ( 'NONE', #26, #250, #7 ) ;
#3 = DIRECTION ( 'NONE',  ( -0.000000000000000000, 1.000000000000000000, -0.000000000000000000 ) ) ;
#4 = DIRECTION ( 'NONE',  ( 0.000000000000000000, 1.000000000000000000, 0.000000000000000000 ) ) ;
#5 = CARTESIAN_POINT ( 'NONE',  ( 7.960204194457797252E-15, 5.000000000000000000, 65.00000000000000000 ) ) ;
#6 = DIRECTION ( 'NONE',  ( 0.000000000000000000, 1.000000000000000000, 0.000000000000000000 ) ) ;
#7 = DIRECTION ( 'NONE',  ( 0.000000000000000000, 0.000000000000000000, 1.000000000000000000 ) ) ;
#8 = FACE_OUTER_BOUND ( 'NONE', #791, .T. ) ;
#9 = LINE ( 'NONE', #68, #693 ) ;
#10 = EDGE_CURVE ( 'NONE', #110, #555, #61, .T. ) ;
#11 = FACE_BOUND ( 'NONE', #13, .T. ) ;
#12 = DIRECTION ( 'NONE',  ( -0.000000000000000000, 1.000000000000000000, -0.000000000000000000 ) ) ;
#13 = EDGE_LOOP ( 'NONE', ( #356, #541 ) ) ;
#14 = DIRECTION ( 'NONE',  ( 0.000000000000000000, 1.000000000000000000, 0.000000000000000000 ) ) ;
#15 = EDGE_CURVE ( 'NONE', #555, #110, #492, .T. ) ;
#16 = CARTESIAN_POINT ( 'NONE',  ( 41.00000000000000711, 0.000000000000000000, 39.00000000000000000 ) ) ;
#17 = VERTEX_POINT ( 'NONE', #501 ) ;
#18 = DIRECTION ( 'NONE',  ( 0.000000000000000000, 0.000000000000000000, 1.000000000000000000 ) ) ;
#19 = FACE_BOUND ( 'NONE', #72, .T. ) ;
#20 = CARTESIAN_POINT ( 'NONE',  ( 0.000000000000000000, 5.000000000000000000, 0.000000000000000000 ) ) ;
#21 = CIRCLE ( 'NONE', #297, 65.00000000000000000 ) ;
#22 = CARTESIAN_POINT ( 'NONE',  ( 3.061616997868383141E-16, -5.000000000000000000, -23.50000000000000000 ) ) ;
#23 = CLOSED_SHELL ( 'NONE', ( #133, #146, #198, #481, #83, #93, #150, #424, #745, #348, #354, #65, #63, #619, #343, #738, #785, #236, #76, #478, #614, #445 ) ) ;
#24 = CYLINDRICAL_SURFACE ( 'NONE', #325, 2.000000000000001776 ) ;
#25 = CARTESIAN_POINT ( 'NONE',  ( 0.000000000000000000, 0.000000000000000000, 0.000000000000000000 ) ) ;
#26 = CARTESIAN_POINT ( 'NONE',  ( 41.00000000000000711, 0.000000000000000000, -41.00000000000000000 ) ) ;
#27 = EDGE_CURVE ( 'NONE', #296, #46, #754, .T. ) ;
#28 = CARTESIAN_POINT ( 'NONE',  ( 0.000000000000000000, 0.000000000000000000, 16.10000000000000142 ) ) ;
#29 = AXIS2_PLACEMENT_3D ( 'NONE', #444, #14, #18 ) ;
#30 = ORIENTED_EDGE ( 'NONE', *, *, #307, .F. ) ;
#31 = EDGE_CURVE ( 'NONE', #345, #768, #519, .T. ) ;
#32 = EDGE_LOOP ( 'NONE', ( #226, #109 ) ) ;
#33 = DIRECTION ( 'NONE',  ( -0.000000000000000000, 1.000000000000000000, -0.000000000000000000 ) ) ;
#34 = ORIENTED_EDGE ( 'NONE', *, *, #513, .F. ) ;
#35 = CARTESIAN_POINT ( 'NONE',  ( 0.000000000000000000, 0.000000000000000000, 0.000000000000000000 ) ) ;
#36 = VERTEX_POINT ( 'NONE', #182 ) ;
#37 = CIRCLE ( 'NONE', #231, 2.000000000000001776 ) ;
#38 = ORIENTED_EDGE ( 'NONE', *, *, #548, .F. ) ;
#39 = CYLINDRICAL_SURFACE ( 'NONE', #675, 2.000000000000001776 ) ;
#40 = EDGE_LOOP ( 'NONE', ( #710, #285 ) ) ;
#41 = AXIS2_PLACEMENT_3D ( 'NONE', #274, #333, #94 ) ;
#42 = ORIENTED_EDGE ( 'NONE', *, *, #419, .F. ) ;
#43 = CIRCLE ( 'NONE', #497, 65.00000000000000000 ) ;
#44 = ORIENTED_EDGE ( 'NONE', *, *, #686, .T. ) ;
#45 = ORIENTED_EDGE ( 'NONE', *, *, #279, .T. ) ;
#46 = VERTEX_POINT ( 'NONE', #436 ) ;
#47 = ORIENTED_EDGE ( 'NONE', *, *, #725, .F. ) ;
#48 = DIRECTION ( 'NONE',  ( -0.000000000000000000, 1.000000000000000000, -0.000000000000000000 ) ) ;
#49 = AXIS2_PLACEMENT_3D ( 'NONE', #254, #687, #690 ) ;
#50 = ORIENTED_EDGE ( 'NONE', *, *, #52, .T. ) ;
#51 = DIRECTION ( 'NONE',  ( 0.000000000000000000, 0.000000000000000000, 1.000000000000000000 ) ) ;
#52 = EDGE_CURVE ( 'NONE', #418, #303, #623, .T. ) ;
#53 = DIRECTION ( 'NONE',  ( 0.000000000000000000, 1.000000000000000000, 0.000000000000000000 ) ) ;
#54 = CARTESIAN_POINT ( 'NONE',  ( -20.99899999999940903, 0.000000000000000000, 0.001000000000381251258 ) ) ;
#55 = VERTEX_POINT ( 'NONE', #125 ) ;
#56 = EDGE_CURVE ( 'NONE', #781, #491, #289, .T. ) ;
#57 = APPLICATION_CONTEXT ( 'automotive_design' ) ;
#58 =( GEOMETRIC_REPRESENTATION_CONTEXT ( 3 ) GLOBAL_UNCERTAINTY_ASSIGNED_CONTEXT ( ( #362 ) ) GLOBAL_UNIT_ASSIGNED_CONTEXT ( ( #304, #360, #311 ) ) REPRESENTATION_CONTEXT ( 'NONE', 'WORKASPACE' ) );
#59 = CARTESIAN_POINT ( 'NONE',  ( -40.99999999999999289, 0.000000000000000000, 39.00000000000000000 ) ) ;
#60 = DIRECTION ( 'NONE',  ( 0.000000000000000000, 0.000000000000000000, 1.000000000000000000 ) ) ;
#61 = CIRCLE ( 'NONE', #212, 2.499999999999998668 ) ;
#62 = AXIS2_PLACEMENT_3D ( 'NONE', #225, #397, #631 ) ;
#63 = ADVANCED_FACE ( 'NONE', ( #789, #241, #69, #669, #783, #493, #726, #610, #432, #487 ), #179, .F. ) ;
#64 = DIRECTION ( 'NONE',  ( 0.000000000000000000, 0.000000000000000000, 1.000000000000000000 ) ) ;
#65 = ADVANCED_FACE ( 'NONE', ( #213, #11, #19, #266, #753, #562, #132, #384, #74, #321 ), #389, .T. ) ;
#66 = DIRECTION ( 'NONE',  ( 0.000000000000000000, 1.000000000000000000, 0.000000000000000000 ) ) ;
#67 = CIRCLE ( 'NONE', #679, 2.000000000000001776 ) ;
#68 = CARTESIAN_POINT ( 'NONE',  ( -20.99899999999940903, -5.000000000000000000, -2.498999999999618638 ) ) ;
#69 = FACE_BOUND ( 'NONE', #40, .T. ) ;
#70 = DIRECTION ( 'NONE',  ( 0.000000000000000000, 0.000000000000000000, 1.000000000000000000 ) ) ;
#71 = DIRECTION ( 'NONE',  ( 0.000000000000000000, 1.000000000000000000, 0.000000000000000000 ) ) ;
#72 = EDGE_LOOP ( 'NONE', ( #649, #542 ) ) ;
#73 = CYLINDRICAL_SURFACE ( 'NONE', #119, 2.000000000000001776 ) ;
#74 = FACE_BOUND ( 'NONE', #654, .T. ) ;
#75 = AXIS2_PLACEMENT_3D ( 'NONE', #234, #547, #370 ) ;
#76 = ADVANCED_FACE ( 'NONE', ( #172 ), #237, .F. ) ;
#77 = DIRECTION ( 'NONE',  ( -0.000000000000000000, 1.000000000000000000, -0.000000000000000000 ) ) ;
#78 = EDGE_LOOP ( 'NONE', ( #708, #169, #161, #350 ) ) ;
#79 = CARTESIAN_POINT ( 'NONE',  ( -40.99999999999999289, 0.000000000000000000, 41.00000000000000000 ) ) ;
#80 = CIRCLE ( 'NONE', #243, 2.000000000000001776 ) ;
#81 = CIRCLE ( 'NONE', #291, 2.500000000000000444 ) ;
#82 = LINE ( 'NONE', #616, #602 ) ;
#83 = ADVANCED_FACE ( 'NONE', ( #406 ), #96, .F. ) ;
#84 = CARTESIAN_POINT ( 'NONE',  ( -40.99999999999999289, 0.000000000000000000, -43.00000000000000000 ) ) ;
#85 = AXIS2_PLACEMENT_3D ( 'NONE', #697, #151, #276 ) ;
#86 = DIRECTION ( 'NONE',  ( -0.000000000000000000, 1.000000000000000000, -0.000000000000000000 ) ) ;
#87 = DIRECTION ( 'NONE',  ( -0.000000000000000000, 1.000000000000000000, -0.000000000000000000 ) ) ;
#88 = DIRECTION ( 'NONE',  ( -0.000000000000000000, -1.000000000000000000, -0.000000000000000000 ) ) ;
#89 = EDGE_LOOP ( 'NONE', ( #667, #42 ) ) ;
#90 = DIRECTION ( 'NONE',  ( 0.000000000000000000, 0.000000000000000000, 1.000000000000000000 ) ) ;
#91 = AXIS2_PLACEMENT_3D ( 'NONE', #365, #48, #183 ) ;
#92 = LINE ( 'NONE', #336, #239 ) ;
#93 = ADVANCED_FACE ( 'NONE', ( #316 ), #39, .F. ) ;
#94 = DIRECTION ( 'NONE',  ( 0.000000000000000000, 0.000000000000000000, -1.000000000000000000 ) ) ;
#95 = VERTEX_POINT ( 'NONE', #530 ) ;
#96 = CYLINDRICAL_SURFACE ( 'NONE', #404, 16.10000000000000142 ) ;
#97 = AXIS2_PLACEMENT_3D ( 'NONE', #79, #751, #252 ) ;
#98 = DIRECTION ( 'NONE',  ( 0.000000000000000000, 0.000000000000000000, 1.000000000000000000 ) ) ;
#99 = ORIENTED_EDGE ( 'NONE', *, *, #776, .F. ) ;
#100 = SHAPE_DEFINITION_REPRESENTATION ( #246, #286 ) ;
#101 = VERTEX_POINT ( 'NONE', #767 ) ;
#102 = DIRECTION ( 'NONE',  ( 0.000000000000000000, 1.000000000000000000, 0.000000000000000000 ) ) ;
#103 = DIRECTION ( 'NONE',  ( 0.000000000000000000, 1.000000000000000000, 0.000000000000000000 ) ) ;
#104 = VECTOR ( 'NONE', #433, 1000.000000000000000 ) ;
#105 = ORIENTED_EDGE ( 'NONE', *, *, #655, .F. ) ;
#106 = AXIS2_PLACEMENT_3D ( 'NONE', #747, #322, #390 ) ;
#107 = ORIENTED_EDGE ( 'NONE', *, *, #701, .F. ) ;
#108 = VECTOR ( 'NONE', #383, 1000.000000000000000 ) ;
#109 = ORIENTED_EDGE ( 'NONE', *, *, #56, .F. ) ;
#110 = VERTEX_POINT ( 'NONE', #464 ) ;
#111 = EDGE_CURVE ( 'NONE', #628, #294, #116, .T. ) ;
#112 = DIRECTION ( 'NONE',  ( 0.000000000000000000, 0.000000000000000000, 1.000000000000000000 ) ) ;
#113 = ORIENTED_EDGE ( 'NONE', *, *, #428, .F. ) ;
#114 = DIRECTION ( 'NONE',  ( 0.000000000000000000, 0.000000000000000000, 1.000000000000000000 ) ) ;
#115 = DIRECTION ( 'NONE',  ( -0.000000000000000000, 1.000000000000000000, -0.000000000000000000 ) ) ;
#116 = CIRCLE ( 'NONE', #223, 2.000000000000001776 ) ;
#117 = DIRECTION ( 'NONE',  ( 0.000000000000000000, 1.000000000000000000, 0.000000000000000000 ) ) ;
#118 = SURFACE_SIDE_STYLE ('',( #412 ) ) ;
#119 = AXIS2_PLACEMENT_3D ( 'NONE', #319, #196, #734 ) ;
#120 = DIRECTION ( 'NONE',  ( 0.000000000000000000, 0.000000000000000000, 1.000000000000000000 ) ) ;
#121 = EDGE_CURVE ( 'NONE', #658, #576, #643, .T. ) ;
#122 = CARTESIAN_POINT ( 'NONE',  ( 1.971681346627238883E-15, 5.000000000000000000, -16.10000000000000142 ) ) ;
#123 = LINE ( 'NONE', #186, #766 ) ;
#124 = DIRECTION ( 'NONE',  ( 0.000000000000000000, 1.000000000000000000, 0.000000000000000000 ) ) ;
#125 = CARTESIAN_POINT ( 'NONE',  ( 41.00000000000000711, 5.000000000000000000, -43.00000000000000000 ) ) ;
#126 = DIRECTION ( 'NONE',  ( 0.000000000000000000, 0.000000000000000000, 1.000000000000000000 ) ) ;
#127 = FACE_OUTER_BOUND ( 'NONE', #546, .T. ) ;
#128 = VECTOR ( 'NONE', #506, 1000.000000000000000 ) ;
#129 = VERTEX_POINT ( 'NONE', #559 ) ;
#130 = CARTESIAN_POINT ( 'NONE',  ( 1.971681346627238883E-15, -5.000000000000000000, -16.10000000000000142 ) ) ;
#131 = CIRCLE ( 'NONE', #175, 2.499999999999998668 ) ;
#132 = FACE_BOUND ( 'NONE', #544, .T. ) ;
#133 = ADVANCED_FACE ( 'NONE', ( #744 ), #377, .F. ) ;
#134 = CARTESIAN_POINT ( 'NONE',  ( 41.00000000000000711, 0.000000000000000000, -43.00000000000000000 ) ) ;
#135 = ORIENTED_EDGE ( 'NONE', *, *, #366, .T. ) ;
#136 = DIRECTION ( 'NONE',  ( -0.000000000000000000, 1.000000000000000000, -0.000000000000000000 ) ) ;
#137 = VERTEX_POINT ( 'NONE', #320 ) ;
#138 = EDGE_CURVE ( 'NONE', #515, #264, #142, .T. ) ;
#139 = DIRECTION ( 'NONE',  ( 0.000000000000000000, 0.000000000000000000, 1.000000000000000000 ) ) ;
#140 = ORIENTED_EDGE ( 'NONE', *, *, #609, .F. ) ;
#141 = CARTESIAN_POINT ( 'NONE',  ( 0.002000000001048146420, 0.000000000000000000, 21.00000000000001421 ) ) ;
#142 = CIRCLE ( 'NONE', #714, 2.000000000000001776 ) ;
#143 = CIRCLE ( 'NONE', #771, 2.499999999999998668 ) ;
#144 = FACE_OUTER_BOUND ( 'NONE', #590, .T. ) ;
#145 = ORIENTED_EDGE ( 'NONE', *, *, #1, .T. ) ;
#146 = ADVANCED_FACE ( 'NONE', ( #199 ), #646, .F. ) ;
#147 = CARTESIAN_POINT ( 'NONE',  ( 41.00000000000000711, 0.000000000000000000, 39.00000000000000000 ) ) ;
#148 = DIRECTION ( 'NONE',  ( 0.000000000000000000, 1.000000000000000000, 0.000000000000000000 ) ) ;
#149 = ORIENTED_EDGE ( 'NONE', *, *, #660, .T. ) ;
#150 = ADVANCED_FACE ( 'NONE', ( #127 ), #453, .F. ) ;
#151 = DIRECTION ( 'NONE',  ( 0.000000000000000000, 1.000000000000000000, 0.000000000000000000 ) ) ;
#152 = FILL_AREA_STYLE_COLOUR ( '', #346 ) ;
#153 = EDGE_LOOP ( 'NONE', ( #574, #313 ) ) ;
#154 = CARTESIAN_POINT ( 'NONE',  ( -40.99999999999999289, 0.000000000000000000, 39.00000000000000000 ) ) ;
#155 = DIRECTION ( 'NONE',  ( 0.000000000000000000, 0.000000000000000000, 1.000000000000000000 ) ) ;
#156 = CIRCLE ( 'NONE', #259, 16.10000000000000142 ) ;
#157 = FACE_OUTER_BOUND ( 'NONE', #342, .T. ) ;
#158 = VERTEX_POINT ( 'NONE', #509 ) ;
#159 = PRODUCT_CONTEXT ( 'NONE', #340, 'mechanical' ) ;
#160 = CARTESIAN_POINT ( 'NONE',  ( 41.00000000000000711, 0.000000000000000000, 41.00000000000000000 ) ) ;
#161 = ORIENTED_EDGE ( 'NONE', *, *, #27, .T. ) ;
#162 = DIRECTION ( 'NONE',  ( 0.000000000000000000, 0.000000000000000000, 1.000000000000000000 ) ) ;
#163 = EDGE_LOOP ( 'NONE', ( #467, #475 ) ) ;
#164 = ORIENTED_EDGE ( 'NONE', *, *, #565, .F. ) ;
#165 = ORIENTED_EDGE ( 'NONE', *, *, #284, .T. ) ;
#166 = PRODUCT_RELATED_PRODUCT_CATEGORY ( 'part', '', ( #728 ) ) ;
#167 = AXIS2_PLACEMENT_3D ( 'NONE', #611, #790, #64 ) ;
#168 = EDGE_LOOP ( 'NONE', ( #38, #656, #245, #283 ) ) ;
#169 = ORIENTED_EDGE ( 'NONE', *, *, #565, .T. ) ;
#170 = CIRCLE ( 'NONE', #662, 2.000000000000001776 ) ;
#171 = ORIENTED_EDGE ( 'NONE', *, *, #595, .F. ) ;
#172 = FACE_OUTER_BOUND ( 'NONE', #449, .T. ) ;
#173 = ORIENTED_EDGE ( 'NONE', *, *, #222, .F. ) ;
#174 = CARTESIAN_POINT ( 'NONE',  ( 41.00000000000000711, 5.000000000000000000, -39.00000000000000000 ) ) ;
#175 = AXIS2_PLACEMENT_3D ( 'NONE', #141, #625, #516 ) ;
#176 = EDGE_LOOP ( 'NONE', ( #709, #439, #537, #386 ) ) ;
#177 = EDGE_CURVE ( 'NONE', #786, #137, #442, .T. ) ;
#178 = ORIENTED_EDGE ( 'NONE', *, *, #10, .F. ) ;
#179 = PLANE ( 'NONE',  #302 ) ;
#180 = SURFACE_STYLE_USAGE ( .BOTH. , #118 ) ;
#181 = STYLED_ITEM ( 'NONE', ( #490 ), #458 ) ;
#182 = CARTESIAN_POINT ( 'NONE',  ( -40.99999999999999289, 5.000000000000000000, -39.00000000000000000 ) ) ;
#183 = DIRECTION ( 'NONE',  ( 0.000000000000000000, 0.000000000000000000, 1.000000000000000000 ) ) ;
#184 = AXIS2_PLACEMENT_3D ( 'NONE', #299, #293, #479 ) ;
#185 = DIRECTION ( 'NONE',  ( 0.000000000000000000, 1.000000000000000000, 0.000000000000000000 ) ) ;
#186 = CARTESIAN_POINT ( 'NONE',  ( 21.00100000000060518, -5.000000000000000000, 2.498999999999483190 ) ) ;
#187 = CIRCLE ( 'NONE', #353, 2.500000000000000444 ) ;
#188 = DIRECTION ( 'NONE',  ( 0.000000000000000000, 0.000000000000000000, 1.000000000000000000 ) ) ;
#189 = CARTESIAN_POINT ( 'NONE',  ( 21.00100000000060518, 0.000000000000000000, -2.501000000000518142 ) ) ;
#190 = CARTESIAN_POINT ( 'NONE',  ( -20.99899999999940903, 5.000000000000000000, -2.498999999999618638 ) ) ;
#191 = DIRECTION ( 'NONE',  ( 0.000000000000000000, 1.000000000000000000, 0.000000000000000000 ) ) ;
#192 = CIRCLE ( 'NONE', #517, 2.000000000000001776 ) ;
#193 = DIRECTION ( 'NONE',  ( 0.000000000000000000, 1.000000000000000000, 0.000000000000000000 ) ) ;
#194 = CYLINDRICAL_SURFACE ( 'NONE', #255, 16.10000000000000142 ) ;
#195 = ORIENTED_EDGE ( 'NONE', *, *, #605, .F. ) ;
#196 = DIRECTION ( 'NONE',  ( -0.000000000000000000, 1.000000000000000000, -0.000000000000000000 ) ) ;
#197 = AXIS2_PLACEMENT_3D ( 'NONE', #498, #191, #368 ) ;
#198 = ADVANCED_FACE ( 'NONE', ( #144 ), #381, .F. ) ;
#199 = FACE_OUTER_BOUND ( 'NONE', #78, .T. ) ;
#200 = FACE_OUTER_BOUND ( 'NONE', #588, .T. ) ;
#201 = DIRECTION ( 'NONE',  ( -0.000000000000000000, 1.000000000000000000, -0.000000000000000000 ) ) ;
#202 = CYLINDRICAL_SURFACE ( 'NONE', #244, 2.000000000000001776 ) ;
#203 = CARTESIAN_POINT ( 'NONE',  ( 41.00000000000000711, 5.000000000000000000, -41.00000000000000000 ) ) ;
#204 = ORIENTED_EDGE ( 'NONE', *, *, #177, .F. ) ;
#205 = CARTESIAN_POINT ( 'NONE',  ( 0.000000000000000000, 0.000000000000000000, 0.000000000000000000 ) ) ;
#206 = LINE ( 'NONE', #392, #108 ) ;
#207 = EDGE_CURVE ( 'NONE', #339, #778, #740, .T. ) ;
#208 = AXIS2_PLACEMENT_3D ( 'NONE', #758, #193, #522 ) ;
#209 = CARTESIAN_POINT ( 'NONE',  ( -40.99999999999999289, 0.000000000000000000, -41.00000000000000000 ) ) ;
#210 = ORIENTED_EDGE ( 'NONE', *, *, #696, .F. ) ;
#211 = DIRECTION ( 'NONE',  ( 0.000000000000000000, 0.000000000000000000, 1.000000000000000000 ) ) ;
#212 = AXIS2_PLACEMENT_3D ( 'NONE', #637, #53, #114 ) ;
#213 = FACE_BOUND ( 'NONE', #399, .T. ) ;
#214 = DIRECTION ( 'NONE',  ( 0.000000000000000000, 0.000000000000000000, 1.000000000000000000 ) ) ;
#215 = VECTOR ( 'NONE', #700, 1000.000000000000000 ) ;
#216 = DIRECTION ( 'NONE',  ( -0.000000000000000000, 1.000000000000000000, -0.000000000000000000 ) ) ;
#217 = FACE_OUTER_BOUND ( 'NONE', #227, .T. ) ;
#218 = DIRECTION ( 'NONE',  ( 0.000000000000000000, 1.000000000000000000, 0.000000000000000000 ) ) ;
#219 = DIRECTION ( 'NONE',  ( 0.000000000000000000, 0.000000000000000000, 1.000000000000000000 ) ) ;
#220 = ORIENTED_EDGE ( 'NONE', *, *, #529, .T. ) ;
#221 = ORIENTED_EDGE ( 'NONE', *, *, #638, .F. ) ;
#222 = EDGE_CURVE ( 'NONE', #129, #695, #569, .T. ) ;
#223 = AXIS2_PLACEMENT_3D ( 'NONE', #160, #288, #401 ) ;
#224 = VERTEX_POINT ( 'NONE', #134 ) ;
#225 = CARTESIAN_POINT ( 'NONE',  ( 0.002000000001048146420, 5.000000000000000000, 21.00000000000001421 ) ) ;
#226 = ORIENTED_EDGE ( 'NONE', *, *, #651, .F. ) ;
#227 = EDGE_LOOP ( 'NONE', ( #140, #248, #653, #712 ) ) ;
#228 = EDGE_LOOP ( 'NONE', ( #746, #477, #461, #496 ) ) ;
#229 = EDGE_LOOP ( 'NONE', ( #270, #594 ) ) ;
#230 = EDGE_LOOP ( 'NONE', ( #600, #204 ) ) ;
#231 = AXIS2_PLACEMENT_3D ( 'NONE', #604, #218, #469 ) ;
#232 = ORIENTED_EDGE ( 'NONE', *, *, #235, .F. ) ;
#233 = ORIENTED_EDGE ( 'NONE', *, *, #15, .F. ) ;
#234 = CARTESIAN_POINT ( 'NONE',  ( -40.99999999999999289, 0.000000000000000000, -41.00000000000000000 ) ) ;
#235 = EDGE_CURVE ( 'NONE', #423, #711, #156, .T. ) ;
#236 = ADVANCED_FACE ( 'NONE', ( #385 ), #194, .F. ) ;
#237 = CYLINDRICAL_SURFACE ( 'NONE', #534, 2.500000000000000000 ) ;
#238 = EDGE_LOOP ( 'NONE', ( #306, #764 ) ) ;
#239 = VECTOR ( 'NONE', #584, 1000.000000000000000 ) ;
#240 =( GEOMETRIC_REPRESENTATION_CONTEXT ( 3 ) GLOBAL_UNCERTAINTY_ASSIGNED_CONTEXT ( ( #431 ) ) GLOBAL_UNIT_ASSIGNED_CONTEXT ( ( #314, #309, #249 ) ) REPRESENTATION_CONTEXT ( 'NONE', 'WORKASPACE' ) );
#241 = FACE_BOUND ( 'NONE', #352, .T. ) ;
#242 = CARTESIAN_POINT ( 'NONE',  ( 0.002000000001048146420, -5.000000000000000000, 21.00000000000001421 ) ) ;
#243 = AXIS2_PLACEMENT_3D ( 'NONE', #648, #103, #403 ) ;
#244 = AXIS2_PLACEMENT_3D ( 'NONE', #407, #338, #269 ) ;
#245 = ORIENTED_EDGE ( 'NONE', *, *, #56, .T. ) ;
#246 = PRODUCT_DEFINITION_SHAPE ( 'NONE', 'NONE',  #788 ) ;
#247 = DIRECTION ( 'NONE',  ( 0.000000000000000000, 1.000000000000000000, 0.000000000000000000 ) ) ;
#248 = ORIENTED_EDGE ( 'NONE', *, *, #468, .F. ) ;
#249 =( NAMED_UNIT ( * ) SI_UNIT ( $, .STERADIAN. ) SOLID_ANGLE_UNIT ( ) );
#250 = DIRECTION ( 'NONE',  ( 0.000000000000000000, 1.000000000000000000, 0.000000000000000000 ) ) ;
#251 = DIRECTION ( 'NONE',  ( 0.000000000000000000, 1.000000000000000000, 0.000000000000000000 ) ) ;
#252 = DIRECTION ( 'NONE',  ( 0.000000000000000000, 0.000000000000000000, 1.000000000000000000 ) ) ;
#253 = CARTESIAN_POINT ( 'NONE',  ( 0.002000000001048452599, -5.000000000000000000, 18.50000000000001776 ) ) ;
#254 = CARTESIAN_POINT ( 'NONE',  ( 21.00100000000060518, -5.000000000000000000, -0.001000000000517484947 ) ) ;
#255 = AXIS2_PLACEMENT_3D ( 'NONE', #737, #394, #683 ) ;
#256 = ORIENTED_EDGE ( 'NONE', *, *, #111, .F. ) ;
#257 = FACE_OUTER_BOUND ( 'NONE', #599, .T. ) ;
#258 = DIRECTION ( 'NONE',  ( 0.000000000000000000, 1.000000000000000000, 0.000000000000000000 ) ) ;
#259 = AXIS2_PLACEMENT_3D ( 'NONE', #205, #570, #624 ) ;
#260 = DIRECTION ( 'NONE',  ( -0.000000000000000000, 1.000000000000000000, -0.000000000000000000 ) ) ;
#261 = ORIENTED_EDGE ( 'NONE', *, *, #674, .F. ) ;
#262 = DIRECTION ( 'NONE',  ( 0.000000000000000000, 1.000000000000000000, 0.000000000000000000 ) ) ;
#263 = CARTESIAN_POINT ( 'NONE',  ( -40.99999999999999289, 0.000000000000000000, 43.00000000000000000 ) ) ;
#264 = VERTEX_POINT ( 'NONE', #263 ) ;
#265 = CARTESIAN_POINT ( 'NONE',  ( 0.000000000000000000, 0.000000000000000000, -18.50000000000000355 ) ) ;
#266 = FACE_BOUND ( 'NONE', #32, .T. ) ;
#267 = EDGE_CURVE ( 'NONE', #17, #408, #82, .T. ) ;
#268 = AXIS2_PLACEMENT_3D ( 'NONE', #494, #727, #484 ) ;
#269 = DIRECTION ( 'NONE',  ( 0.000000000000000000, 0.000000000000000000, 1.000000000000000000 ) ) ;
#270 = ORIENTED_EDGE ( 'NONE', *, *, #207, .T. ) ;
#271 = CYLINDRICAL_SURFACE ( 'NONE', #523, 2.000000000000001776 ) ;
#272 = VERTEX_POINT ( 'NONE', #500 ) ;
#273 = EDGE_CURVE ( 'NONE', #129, #290, #620, .T. ) ;
#274 = CARTESIAN_POINT ( 'NONE',  ( 0.000000000000000000, 5.000000000000000000, 0.000000000000000000 ) ) ;
#275 = AXIS2_PLACEMENT_3D ( 'NONE', #203, #262, #60 ) ;
#276 = DIRECTION ( 'NONE',  ( 0.000000000000000000, 0.000000000000000000, 1.000000000000000000 ) ) ;
#277 = DIRECTION ( 'NONE',  ( 0.000000000000000000, 0.000000000000000000, 1.000000000000000000 ) ) ;
#278 = EDGE_LOOP ( 'NONE', ( #684, #525 ) ) ;
#279 = EDGE_CURVE ( 'NONE', #422, #491, #678, .T. ) ;
#280 = ORIENTED_EDGE ( 'NONE', *, *, #645, .F. ) ;
#281 = DIRECTION ( 'NONE',  ( 0.000000000000000000, 1.000000000000000000, 0.000000000000000000 ) ) ;
#282 = CIRCLE ( 'NONE', #268, 2.499999999999998668 ) ;
#283 = ORIENTED_EDGE ( 'NONE', *, *, #279, .F. ) ;
#284 = EDGE_CURVE ( 'NONE', #290, #300, #143, .T. ) ;
#285 = ORIENTED_EDGE ( 'NONE', *, *, #776, .T. ) ;
#286 = ADVANCED_BREP_SHAPE_REPRESENTATION ( 'front plate al old motor', ( #458, #680 ), #240 ) ;
#287 = EDGE_CURVE ( 'NONE', #264, #95, #566, .T. ) ;
#288 = DIRECTION ( 'NONE',  ( 0.000000000000000000, 1.000000000000000000, 0.000000000000000000 ) ) ;
#289 = CIRCLE ( 'NONE', #374, 2.500000000000000000 ) ;
#290 = VERTEX_POINT ( 'NONE', #328 ) ;
#291 = AXIS2_PLACEMENT_3D ( 'NONE', #518, #281, #214 ) ;
#292 = EDGE_LOOP ( 'NONE', ( #420, #210, #471, #367 ) ) ;
#293 = DIRECTION ( 'NONE',  ( 0.000000000000000000, 1.000000000000000000, 0.000000000000000000 ) ) ;
#294 = VERTEX_POINT ( 'NONE', #16 ) ;
#295 = VERTEX_POINT ( 'NONE', #331 ) ;
#296 = VERTEX_POINT ( 'NONE', #578 ) ;
#297 = AXIS2_PLACEMENT_3D ( 'NONE', #703, #698, #460 ) ;
#298 = ORIENTED_EDGE ( 'NONE', *, *, #307, .T. ) ;
#299 = CARTESIAN_POINT ( 'NONE',  ( 0.000000000000000000, 5.000000000000000000, 0.000000000000000000 ) ) ;
#300 = VERTEX_POINT ( 'NONE', #733 ) ;
#301 = DIRECTION ( 'NONE',  ( -0.000000000000000000, 1.000000000000000000, -0.000000000000000000 ) ) ;
#302 = AXIS2_PLACEMENT_3D ( 'NONE', #425, #185, #446 ) ;
#303 = VERTEX_POINT ( 'NONE', #189 ) ;
#304 =( LENGTH_UNIT ( ) NAMED_UNIT ( * ) SI_UNIT ( .MILLI., .METRE. ) );
#305 = CARTESIAN_POINT ( 'NONE',  ( 0.000000000000000000, -5.000000000000000000, -18.50000000000000355 ) ) ;
#306 = ORIENTED_EDGE ( 'NONE', *, *, #452, .F. ) ;
#307 = EDGE_CURVE ( 'NONE', #101, #95, #351, .T. ) ;
#308 = AXIS2_PLACEMENT_3D ( 'NONE', #358, #247, #606 ) ;
#309 =( NAMED_UNIT ( * ) PLANE_ANGLE_UNIT ( ) SI_UNIT ( $, .RADIAN. ) );
#310 = CARTESIAN_POINT ( 'NONE',  ( 0.000000000000000000, 0.000000000000000000, -21.00000000000000000 ) ) ;
#311 =( NAMED_UNIT ( * ) SI_UNIT ( $, .STERADIAN. ) SOLID_ANGLE_UNIT ( ) );
#312 = DIRECTION ( 'NONE',  ( 0.000000000000000000, 0.000000000000000000, 1.000000000000000000 ) ) ;
#313 = ORIENTED_EDGE ( 'NONE', *, *, #756, .T. ) ;
#314 =( LENGTH_UNIT ( ) NAMED_UNIT ( * ) SI_UNIT ( .MILLI., .METRE. ) );
#315 = CARTESIAN_POINT ( 'NONE',  ( 0.000000000000000000, 0.000000000000000000, 0.000000000000000000 ) ) ;
#316 = FACE_OUTER_BOUND ( 'NONE', #176, .T. ) ;
#317 = DIRECTION ( 'NONE',  ( 0.000000000000000000, 0.000000000000000000, 1.000000000000000000 ) ) ;
#318 = ORIENTED_EDGE ( 'NONE', *, *, #287, .F. ) ;
#319 = CARTESIAN_POINT ( 'NONE',  ( 41.00000000000000711, 0.000000000000000000, -41.00000000000000000 ) ) ;
#320 = CARTESIAN_POINT ( 'NONE',  ( 0.000000000000000000, 5.000000000000000000, 16.10000000000000142 ) ) ;
#321 = FACE_OUTER_BOUND ( 'NONE', #535, .T. ) ;
#322 = DIRECTION ( 'NONE',  ( -0.000000000000000000, 1.000000000000000000, -0.000000000000000000 ) ) ;
#323 = ORIENTED_EDGE ( 'NONE', *, *, #337, .T. ) ;
#324 = DIRECTION ( 'NONE',  ( 0.000000000000000000, 0.000000000000000000, 1.000000000000000000 ) ) ;
#325 = AXIS2_PLACEMENT_3D ( 'NONE', #524, #763, #759 ) ;
#326 = ORIENTED_EDGE ( 'NONE', *, *, #462, .T. ) ;
#327 = VECTOR ( 'NONE', #380, 1000.000000000000000 ) ;
#328 = CARTESIAN_POINT ( 'NONE',  ( 0.002000000001048146420, 5.000000000000000000, 23.50000000000001421 ) ) ;
#329 = ORIENTED_EDGE ( 'NONE', *, *, #267, .F. ) ;
#330 = LINE ( 'NONE', #84, #459 ) ;
#331 = CARTESIAN_POINT ( 'NONE',  ( 41.00000000000000711, 5.000000000000000000, 39.00000000000000000 ) ) ;
#332 = FACE_OUTER_BOUND ( 'NONE', #644, .T. ) ;
#333 = DIRECTION ( 'NONE',  ( -0.000000000000000000, -1.000000000000000000, -0.000000000000000000 ) ) ;
#334 = APPLICATION_PROTOCOL_DEFINITION ( 'draft international standard', 'automotive_design', 1998, #340 ) ;
#335 = AXIS2_PLACEMENT_3D ( 'NONE', #749, #77, #575 ) ;
#336 = CARTESIAN_POINT ( 'NONE',  ( 0.000000000000000000, -5.000000000000000000, 16.10000000000000142 ) ) ;
#337 = EDGE_CURVE ( 'NONE', #137, #786, #361, .T. ) ;
#338 = DIRECTION ( 'NONE',  ( -0.000000000000000000, 1.000000000000000000, -0.000000000000000000 ) ) ;
#339 = VERTEX_POINT ( 'NONE', #561 ) ;
#340 = APPLICATION_CONTEXT ( 'automotive_design' ) ;
#341 = CARTESIAN_POINT ( 'NONE',  ( 0.000000000000000000, 0.000000000000000000, -65.00000000000000000 ) ) ;
#342 = EDGE_LOOP ( 'NONE', ( #355, #598, #44, #329 ) ) ;
#343 = ADVANCED_FACE ( 'NONE', ( #8 ), #202, .F. ) ;
#344 = ORIENTED_EDGE ( 'NONE', *, *, #513, .T. ) ;
#345 = VERTEX_POINT ( 'NONE', #636 ) ;
#346 = COLOUR_RGB ( '',0.7921568627450980005, 0.8196078431372548767, 0.9333333333333333481 ) ;
#347 = ORIENTED_EDGE ( 'NONE', *, *, #273, .F. ) ;
#348 = ADVANCED_FACE ( 'NONE', ( #157 ), #694, .T. ) ;
#349 = AXIS2_PLACEMENT_3D ( 'NONE', #20, #71, #443 ) ;
#350 = ORIENTED_EDGE ( 'NONE', *, *, #499, .F. ) ;
#351 = CIRCLE ( 'NONE', #417, 2.000000000000001776 ) ;
#352 = EDGE_LOOP ( 'NONE', ( #50, #480 ) ) ;
#353 = AXIS2_PLACEMENT_3D ( 'NONE', #441, #563, #463 ) ;
#354 = ADVANCED_FACE ( 'NONE', ( #770 ), #465, .T. ) ;
#355 = ORIENTED_EDGE ( 'NONE', *, *, #462, .F. ) ;
#356 = ORIENTED_EDGE ( 'NONE', *, *, #626, .F. ) ;
#357 = ORIENTED_EDGE ( 'NONE', *, *, #645, .T. ) ;
#358 = CARTESIAN_POINT ( 'NONE',  ( -20.99899999999940903, 0.000000000000000000, 0.001000000000381251258 ) ) ;
#359 = VECTOR ( 'NONE', #260, 1000.000000000000000 ) ;
#360 =( NAMED_UNIT ( * ) PLANE_ANGLE_UNIT ( ) SI_UNIT ( $, .RADIAN. ) );
#361 = CIRCLE ( 'NONE', #704, 16.10000000000000142 ) ;
#362 = UNCERTAINTY_MEASURE_WITH_UNIT (LENGTH_MEASURE( 1.000000000000000082E-05 ), #304, 'distance_accuracy_value', 'NONE');
#363 = VECTOR ( 'NONE', #573, 1000.000000000000000 ) ;
#364 = DIRECTION ( 'NONE',  ( 0.000000000000000000, 0.000000000000000000, 1.000000000000000000 ) ) ;
#365 = CARTESIAN_POINT ( 'NONE',  ( -20.99899999999940903, -5.000000000000000000, 0.001000000000381251258 ) ) ;
#366 = EDGE_CURVE ( 'NONE', #300, #290, #536, .T. ) ;
#367 = ORIENTED_EDGE ( 'NONE', *, *, #605, .T. ) ;
#368 = DIRECTION ( 'NONE',  ( 0.000000000000000000, 0.000000000000000000, 1.000000000000000000 ) ) ;
#369 = PRODUCT_DEFINITION_CONTEXT ( 'detailed design', #57, 'design' ) ;
#370 = DIRECTION ( 'NONE',  ( 0.000000000000000000, 0.000000000000000000, 1.000000000000000000 ) ) ;
#371 = AXIS2_PLACEMENT_3D ( 'NONE', #787, #724, #488 ) ;
#372 = CARTESIAN_POINT ( 'NONE',  ( 21.00100000000060518, 0.000000000000000000, -0.001000000000517484947 ) ) ;
#373 = CARTESIAN_POINT ( 'NONE',  ( -40.99999999999999289, 5.000000000000000000, -41.00000000000000000 ) ) ;
#374 = AXIS2_PLACEMENT_3D ( 'NONE', #379, #117, #364 ) ;
#375 = DIRECTION ( 'NONE',  ( 0.000000000000000000, 0.000000000000000000, 1.000000000000000000 ) ) ;
#376 = ORIENTED_EDGE ( 'NONE', *, *, #609, .T. ) ;
#377 = CYLINDRICAL_SURFACE ( 'NONE', #427, 2.499999999999998668 ) ;
#378 = EDGE_CURVE ( 'NONE', #711, #423, #596, .T. ) ;
#379 = CARTESIAN_POINT ( 'NONE',  ( -20.99899999999940903, 5.000000000000000000, 0.001000000000381251258 ) ) ;
#380 = DIRECTION ( 'NONE',  ( -0.000000000000000000, -1.000000000000000000, -0.000000000000000000 ) ) ;
#381 = CYLINDRICAL_SURFACE ( 'NONE', #106, 2.499999999999998668 ) ;
#382 = EDGE_LOOP ( 'NONE', ( #775, #540, #435, #105 ) ) ;
#383 = DIRECTION ( 'NONE',  ( -0.000000000000000000, 1.000000000000000000, -0.000000000000000000 ) ) ;
#384 = FACE_BOUND ( 'NONE', #531, .T. ) ;
#385 = FACE_OUTER_BOUND ( 'NONE', #659, .T. ) ;
#386 = ORIENTED_EDGE ( 'NONE', *, *, #755, .F. ) ;
#387 = CARTESIAN_POINT ( 'NONE',  ( -40.99999999999999289, 0.000000000000000000, 41.00000000000000000 ) ) ;
#388 = CIRCLE ( 'NONE', #371, 65.00000000000000000 ) ;
#389 = PLANE ( 'NONE',  #184 ) ;
#390 = DIRECTION ( 'NONE',  ( 0.000000000000000000, 0.000000000000000000, 1.000000000000000000 ) ) ;
#391 = EDGE_LOOP ( 'NONE', ( #731, #376, #592, #549 ) ) ;
#392 = CARTESIAN_POINT ( 'NONE',  ( 41.00000000000000711, 0.000000000000000000, 43.00000000000000000 ) ) ;
#393 = AXIS2_PLACEMENT_3D ( 'NONE', #735, #615, #70 ) ;
#394 = DIRECTION ( 'NONE',  ( -0.000000000000000000, 1.000000000000000000, -0.000000000000000000 ) ) ;
#395 = ORIENTED_EDGE ( 'NONE', *, *, #499, .T. ) ;
#396 = LINE ( 'NONE', #253, #730 ) ;
#397 = DIRECTION ( 'NONE',  ( 0.000000000000000000, 1.000000000000000000, 0.000000000000000000 ) ) ;
#398 = CARTESIAN_POINT ( 'NONE',  ( 0.000000000000000000, -5.000000000000000000, -21.00000000000000000 ) ) ;
#399 = EDGE_LOOP ( 'NONE', ( #233, #178 ) ) ;
#400 = DIRECTION ( 'NONE',  ( -0.000000000000000000, 1.000000000000000000, -0.000000000000000000 ) ) ;
#401 = DIRECTION ( 'NONE',  ( 0.000000000000000000, 0.000000000000000000, 1.000000000000000000 ) ) ;
#402 = FILL_AREA_STYLE ('',( #152 ) ) ;
#403 = DIRECTION ( 'NONE',  ( 0.000000000000000000, 0.000000000000000000, 1.000000000000000000 ) ) ;
#404 = AXIS2_PLACEMENT_3D ( 'NONE', #630, #33, #635 ) ;
#405 = LINE ( 'NONE', #5, #327 ) ;
#406 = FACE_OUTER_BOUND ( 'NONE', #382, .T. ) ;
#407 = CARTESIAN_POINT ( 'NONE',  ( 41.00000000000000711, 0.000000000000000000, 41.00000000000000000 ) ) ;
#408 = VERTEX_POINT ( 'NONE', #341 ) ;
#409 = ORIENTED_EDGE ( 'NONE', *, *, #52, .F. ) ;
#410 = ORIENTED_EDGE ( 'NONE', *, *, #378, .T. ) ;
#411 = CARTESIAN_POINT ( 'NONE',  ( -20.99899999999940903, 0.000000000000000000, 2.501000000000381362 ) ) ;
#412 = SURFACE_STYLE_FILL_AREA ( #402 ) ;
#413 = DIRECTION ( 'NONE',  ( -0.000000000000000000, 1.000000000000000000, -0.000000000000000000 ) ) ;
#414 = ORIENTED_EDGE ( 'NONE', *, *, #681, .F. ) ;
#415 = AXIS2_PLACEMENT_3D ( 'NONE', #310, #552, #51 ) ;
#416 = EDGE_LOOP ( 'NONE', ( #261, #414, #567, #760 ) ) ;
#417 = AXIS2_PLACEMENT_3D ( 'NONE', #438, #672, #375 ) ;
#418 = VERTEX_POINT ( 'NONE', #587 ) ;
#419 = EDGE_CURVE ( 'NONE', #272, #36, #170, .T. ) ;
#420 = ORIENTED_EDGE ( 'NONE', *, *, #665, .F. ) ;
#421 = LINE ( 'NONE', #657, #104 ) ;
#422 = VERTEX_POINT ( 'NONE', #411 ) ;
#423 = VERTEX_POINT ( 'NONE', #28 ) ;
#424 = ADVANCED_FACE ( 'NONE', ( #647 ), #24, .F. ) ;
#425 = CARTESIAN_POINT ( 'NONE',  ( 0.000000000000000000, 0.000000000000000000, 0.000000000000000000 ) ) ;
#426 = AXIS2_PLACEMENT_3D ( 'NONE', #54, #717, #188 ) ;
#427 = AXIS2_PLACEMENT_3D ( 'NONE', #398, #3, #466 ) ;
#428 = EDGE_CURVE ( 'NONE', #295, #158, #472, .T. ) ;
#429 = DIRECTION ( 'NONE',  ( 0.000000000000000000, 1.000000000000000000, 0.000000000000000000 ) ) ;
#430 = AXIS2_PLACEMENT_3D ( 'NONE', #591, #102, #219 ) ;
#431 = UNCERTAINTY_MEASURE_WITH_UNIT (LENGTH_MEASURE( 1.000000000000000082E-05 ), #314, 'distance_accuracy_value', 'NONE');
#432 = FACE_BOUND ( 'NONE', #476, .T. ) ;
#433 = DIRECTION ( 'NONE',  ( -0.000000000000000000, 1.000000000000000000, -0.000000000000000000 ) ) ;
#434 = EDGE_CURVE ( 'NONE', #303, #418, #81, .T. ) ;
#435 = ORIENTED_EDGE ( 'NONE', *, *, #177, .T. ) ;
#436 = CARTESIAN_POINT ( 'NONE',  ( 21.00100000000060518, 5.000000000000000000, 2.498999999999483190 ) ) ;
#437 = DIRECTION ( 'NONE',  ( -0.000000000000000000, 1.000000000000000000, -0.000000000000000000 ) ) ;
#438 = CARTESIAN_POINT ( 'NONE',  ( -40.99999999999999289, 5.000000000000000000, 41.00000000000000000 ) ) ;
#439 = ORIENTED_EDGE ( 'NONE', *, *, #719, .T. ) ;
#440 = AXIS2_PLACEMENT_3D ( 'NONE', #757, #532, #277 ) ;
#441 = CARTESIAN_POINT ( 'NONE',  ( 21.00100000000060518, 5.000000000000000000, -0.001000000000517484947 ) ) ;
#442 = CIRCLE ( 'NONE', #349, 16.10000000000000142 ) ;
#443 = DIRECTION ( 'NONE',  ( 0.000000000000000000, 0.000000000000000000, 1.000000000000000000 ) ) ;
#444 = CARTESIAN_POINT ( 'NONE',  ( 41.00000000000000711, 0.000000000000000000, 41.00000000000000000 ) ) ;
#445 = ADVANCED_FACE ( 'NONE', ( #217 ), #470, .F. ) ;
#446 = DIRECTION ( 'NONE',  ( 0.000000000000000000, -0.000000000000000000, 1.000000000000000000 ) ) ;
#447 = CIRCLE ( 'NONE', #2, 2.000000000000001776 ) ;
#448 = CARTESIAN_POINT ( 'NONE',  ( -20.99899999999940903, -5.000000000000000000, 2.501000000000381362 ) ) ;
#449 = EDGE_LOOP ( 'NONE', ( #107, #750, #45, #589 ) ) ;
#450 = PRODUCT_DEFINITION_FORMATION_WITH_SPECIFIED_SOURCE ( 'ANY', '', #728, .NOT_KNOWN. ) ;
#451 = CARTESIAN_POINT ( 'NONE',  ( -40.99999999999999289, 0.000000000000000000, 41.00000000000000000 ) ) ;
#452 = EDGE_CURVE ( 'NONE', #408, #774, #21, .T. ) ;
#453 = CYLINDRICAL_SURFACE ( 'NONE', #335, 2.000000000000001776 ) ;
#454 = CARTESIAN_POINT ( 'NONE',  ( -40.99999999999999289, 0.000000000000000000, -39.00000000000000000 ) ) ;
#455 = AXIS2_PLACEMENT_3D ( 'NONE', #242, #607, #120 ) ;
#456 = DIRECTION ( 'NONE',  ( -0.000000000000000000, -1.000000000000000000, -0.000000000000000000 ) ) ;
#457 = CARTESIAN_POINT ( 'NONE',  ( 41.00000000000000711, 0.000000000000000000, -39.00000000000000000 ) ) ;
#458 = MANIFOLD_SOLID_BREP ( 'Cut-Extrude5', #23 ) ;
#459 = VECTOR ( 'NONE', #136, 1000.000000000000000 ) ;
#460 = DIRECTION ( 'NONE',  ( 0.000000000000000000, 0.000000000000000000, 1.000000000000000000 ) ) ;
#461 = ORIENTED_EDGE ( 'NONE', *, *, #428, .T. ) ;
#462 = EDGE_CURVE ( 'NONE', #597, #17, #388, .T. ) ;
#463 = DIRECTION ( 'NONE',  ( 0.000000000000000000, 0.000000000000000000, 1.000000000000000000 ) ) ;
#464 = CARTESIAN_POINT ( 'NONE',  ( 3.061616997868384620E-16, 5.000000000000000000, -23.50000000000000000 ) ) ;
#465 = CYLINDRICAL_SURFACE ( 'NONE', #41, 65.00000000000000000 ) ;
#466 = DIRECTION ( 'NONE',  ( 0.000000000000000000, 0.000000000000000000, 1.000000000000000000 ) ) ;
#467 = ORIENTED_EDGE ( 'NONE', *, *, #468, .T. ) ;
#468 = EDGE_CURVE ( 'NONE', #768, #345, #282, .T. ) ;
#469 = DIRECTION ( 'NONE',  ( 0.000000000000000000, 0.000000000000000000, 1.000000000000000000 ) ) ;
#470 = CYLINDRICAL_SURFACE ( 'NONE', #440, 2.499999999999998668 ) ;
#471 = ORIENTED_EDGE ( 'NONE', *, *, #287, .T. ) ;
#472 = CIRCLE ( 'NONE', #430, 2.000000000000001776 ) ;
#473 = VERTEX_POINT ( 'NONE', #664 ) ;
#474 = CARTESIAN_POINT ( 'NONE',  ( -40.99999999999999289, 5.000000000000000000, -41.00000000000000000 ) ) ;
#475 = ORIENTED_EDGE ( 'NONE', *, *, #31, .T. ) ;
#476 = EDGE_LOOP ( 'NONE', ( #533, #149 ) ) ;
#477 = ORIENTED_EDGE ( 'NONE', *, *, #638, .T. ) ;
#478 = ADVANCED_FACE ( 'NONE', ( #670 ), #721, .F. ) ;
#479 = DIRECTION ( 'NONE',  ( 0.000000000000000000, -0.000000000000000000, 1.000000000000000000 ) ) ;
#480 = ORIENTED_EDGE ( 'NONE', *, *, #434, .T. ) ;
#481 = ADVANCED_FACE ( 'NONE', ( #732 ), #661, .F. ) ;
#482 = ORIENTED_EDGE ( 'NONE', *, *, #121, .T. ) ;
#483 = ORIENTED_EDGE ( 'NONE', *, *, #557, .F. ) ;
#484 = DIRECTION ( 'NONE',  ( 0.000000000000000000, 0.000000000000000000, 1.000000000000000000 ) ) ;
#485 = ORIENTED_EDGE ( 'NONE', *, *, #273, .T. ) ;
#486 = ORIENTED_EDGE ( 'NONE', *, *, #665, .T. ) ;
#487 = FACE_OUTER_BOUND ( 'NONE', #238, .T. ) ;
#488 = DIRECTION ( 'NONE',  ( 0.000000000000000000, 0.000000000000000000, 1.000000000000000000 ) ) ;
#489 = CIRCLE ( 'NONE', #29, 2.000000000000001776 ) ;
#490 = PRESENTATION_STYLE_ASSIGNMENT (( #180 ) ) ;
#491 = VERTEX_POINT ( 'NONE', #601 ) ;
#492 = CIRCLE ( 'NONE', #545, 2.499999999999998668 ) ;
#493 = FACE_BOUND ( 'NONE', #229, .T. ) ;
#494 = CARTESIAN_POINT ( 'NONE',  ( 0.000000000000000000, 0.000000000000000000, -21.00000000000000000 ) ) ;
#495 = AXIS2_PLACEMENT_3D ( 'NONE', #582, #88, #639 ) ;
#496 = ORIENTED_EDGE ( 'NONE', *, *, #729, .F. ) ;
#497 = AXIS2_PLACEMENT_3D ( 'NONE', #315, #148, #504 ) ;
#498 = CARTESIAN_POINT ( 'NONE',  ( 21.00100000000060518, 5.000000000000000000, -0.001000000000517484947 ) ) ;
#499 = EDGE_CURVE ( 'NONE', #418, #46, #123, .T. ) ;
#500 = CARTESIAN_POINT ( 'NONE',  ( -40.99999999999999289, 5.000000000000000000, -43.00000000000000000 ) ) ;
#501 = CARTESIAN_POINT ( 'NONE',  ( 0.000000000000000000, 5.000000000000000000, -65.00000000000000000 ) ) ;
#502 = DIRECTION ( 'NONE',  ( -0.000000000000000000, 1.000000000000000000, -0.000000000000000000 ) ) ;
#503 = CARTESIAN_POINT ( 'NONE',  ( 0.002000000001048146420, 0.000000000000000000, 21.00000000000001421 ) ) ;
#504 = DIRECTION ( 'NONE',  ( 0.000000000000000000, 0.000000000000000000, 1.000000000000000000 ) ) ;
#505 = DIRECTION ( 'NONE',  ( 0.000000000000000000, 0.000000000000000000, 1.000000000000000000 ) ) ;
#506 = DIRECTION ( 'NONE',  ( -0.000000000000000000, 1.000000000000000000, -0.000000000000000000 ) ) ;
#507 = CARTESIAN_POINT ( 'NONE',  ( 41.00000000000000711, 0.000000000000000000, -39.00000000000000000 ) ) ;
#508 = AXIS2_PLACEMENT_3D ( 'NONE', #209, #6, #514 ) ;
#509 = CARTESIAN_POINT ( 'NONE',  ( 41.00000000000000711, 5.000000000000000000, 43.00000000000000000 ) ) ;
#510 = LINE ( 'NONE', #130, #784 ) ;
#511 = CARTESIAN_POINT ( 'NONE',  ( 0.002000000001048146420, 5.000000000000000000, 21.00000000000001421 ) ) ;
#512 = DIRECTION ( 'NONE',  ( -0.000000000000000000, 1.000000000000000000, -0.000000000000000000 ) ) ;
#513 = EDGE_CURVE ( 'NONE', #224, #55, #421, .T. ) ;
#514 = DIRECTION ( 'NONE',  ( 0.000000000000000000, 0.000000000000000000, 1.000000000000000000 ) ) ;
#515 = VERTEX_POINT ( 'NONE', #59 ) ;
#516 = DIRECTION ( 'NONE',  ( 0.000000000000000000, 0.000000000000000000, 1.000000000000000000 ) ) ;
#517 = AXIS2_PLACEMENT_3D ( 'NONE', #373, #429, #112 ) ;
#518 = CARTESIAN_POINT ( 'NONE',  ( 21.00100000000060518, 0.000000000000000000, -0.001000000000517484947 ) ) ;
#519 = CIRCLE ( 'NONE', #415, 2.499999999999998668 ) ;
#520 = ORIENTED_EDGE ( 'NONE', *, *, #681, .T. ) ;
#521 = AXIS2_PLACEMENT_3D ( 'NONE', #35, #527, #98 ) ;
#522 = DIRECTION ( 'NONE',  ( 0.000000000000000000, 0.000000000000000000, 1.000000000000000000 ) ) ;
#523 = AXIS2_PLACEMENT_3D ( 'NONE', #677, #502, #692 ) ;
#524 = CARTESIAN_POINT ( 'NONE',  ( 41.00000000000000711, 0.000000000000000000, 41.00000000000000000 ) ) ;
#525 = ORIENTED_EDGE ( 'NONE', *, *, #548, .T. ) ;
#526 = LINE ( 'NONE', #154, #215 ) ;
#527 = DIRECTION ( 'NONE',  ( 0.000000000000000000, 1.000000000000000000, 0.000000000000000000 ) ) ;
#528 = ORIENTED_EDGE ( 'NONE', *, *, #660, .F. ) ;
#529 = EDGE_CURVE ( 'NONE', #36, #272, #192, .T. ) ;
#530 = CARTESIAN_POINT ( 'NONE',  ( -40.99999999999999289, 5.000000000000000000, 43.00000000000000000 ) ) ;
#531 = EDGE_LOOP ( 'NONE', ( #572, #113 ) ) ;
#532 = DIRECTION ( 'NONE',  ( -0.000000000000000000, 1.000000000000000000, -0.000000000000000000 ) ) ;
#533 = ORIENTED_EDGE ( 'NONE', *, *, #557, .T. ) ;
#534 = AXIS2_PLACEMENT_3D ( 'NONE', #773, #413, #155 ) ;
#535 = EDGE_LOOP ( 'NONE', ( #520, #326 ) ) ;
#536 = CIRCLE ( 'NONE', #62, 2.499999999999998668 ) ;
#537 = ORIENTED_EDGE ( 'NONE', *, *, #419, .T. ) ;
#538 = CIRCLE ( 'NONE', #393, 65.00000000000000000 ) ;
#539 = EDGE_LOOP ( 'NONE', ( #280, #173, #485, #165 ) ) ;
#540 = ORIENTED_EDGE ( 'NONE', *, *, #725, .T. ) ;
#541 = ORIENTED_EDGE ( 'NONE', *, *, #27, .F. ) ;
#542 = ORIENTED_EDGE ( 'NONE', *, *, #366, .F. ) ;
#543 = EDGE_CURVE ( 'NONE', #422, #473, #713, .T. ) ;
#544 = EDGE_LOOP ( 'NONE', ( #195, #30 ) ) ;
#545 = AXIS2_PLACEMENT_3D ( 'NONE', #722, #4, #603 ) ;
#546 = EDGE_LOOP ( 'NONE', ( #617, #486, #298, #318 ) ) ;
#547 = DIRECTION ( 'NONE',  ( 0.000000000000000000, 1.000000000000000000, 0.000000000000000000 ) ) ;
#548 = EDGE_CURVE ( 'NONE', #473, #422, #779, .T. ) ;
#549 = ORIENTED_EDGE ( 'NONE', *, *, #551, .F. ) ;
#550 = LINE ( 'NONE', #305, #634 ) ;
#551 = EDGE_CURVE ( 'NONE', #768, #555, #550, .T. ) ;
#552 = DIRECTION ( 'NONE',  ( 0.000000000000000000, 1.000000000000000000, 0.000000000000000000 ) ) ;
#553 = CARTESIAN_POINT ( 'NONE',  ( 0.000000000000000000, 5.000000000000000000, -18.50000000000000355 ) ) ;
#554 = CIRCLE ( 'NONE', #208, 2.000000000000001776 ) ;
#555 = VERTEX_POINT ( 'NONE', #553 ) ;
#556 = AXIS2_PLACEMENT_3D ( 'NONE', #503, #251, #139 ) ;
#557 = EDGE_CURVE ( 'NONE', #658, #224, #622, .T. ) ;
#558 = CARTESIAN_POINT ( 'NONE',  ( -40.99999999999999289, 0.000000000000000000, -41.00000000000000000 ) ) ;
#559 = CARTESIAN_POINT ( 'NONE',  ( 0.002000000001048146420, 0.000000000000000000, 23.50000000000001421 ) ) ;
#560 = CARTESIAN_POINT ( 'NONE',  ( 7.960204194457797252E-15, 5.000000000000000000, 65.00000000000000000 ) ) ;
#561 = CARTESIAN_POINT ( 'NONE',  ( -40.99999999999999289, 0.000000000000000000, -39.00000000000000000 ) ) ;
#562 = FACE_BOUND ( 'NONE', #89, .T. ) ;
#563 = DIRECTION ( 'NONE',  ( 0.000000000000000000, 1.000000000000000000, 0.000000000000000000 ) ) ;
#564 = DIRECTION ( 'NONE',  ( 0.000000000000000000, 0.000000000000000000, 1.000000000000000000 ) ) ;
#565 = EDGE_CURVE ( 'NONE', #303, #296, #780, .T. ) ;
#566 = LINE ( 'NONE', #627, #689 ) ;
#567 = ORIENTED_EDGE ( 'NONE', *, *, #267, .T. ) ;
#568 = CARTESIAN_POINT ( 'NONE',  ( -40.99999999999999289, 0.000000000000000000, -43.00000000000000000 ) ) ;
#569 = CIRCLE ( 'NONE', #556, 2.499999999999998668 ) ;
#570 = DIRECTION ( 'NONE',  ( 0.000000000000000000, 1.000000000000000000, 0.000000000000000000 ) ) ;
#571 = EDGE_CURVE ( 'NONE', #778, #339, #736, .T. ) ;
#572 = ORIENTED_EDGE ( 'NONE', *, *, #1, .F. ) ;
#573 = DIRECTION ( 'NONE',  ( -0.000000000000000000, 1.000000000000000000, -0.000000000000000000 ) ) ;
#574 = ORIENTED_EDGE ( 'NONE', *, *, #111, .T. ) ;
#575 = DIRECTION ( 'NONE',  ( 0.000000000000000000, 0.000000000000000000, 1.000000000000000000 ) ) ;
#576 = VERTEX_POINT ( 'NONE', #174 ) ;
#577 = FACE_OUTER_BOUND ( 'NONE', #715, .T. ) ;
#578 = CARTESIAN_POINT ( 'NONE',  ( 21.00100000000060518, 5.000000000000000000, -2.501000000000518142 ) ) ;
#579 = CARTESIAN_POINT ( 'NONE',  ( 41.00000000000000711, 0.000000000000000000, 43.00000000000000000 ) ) ;
#580 = VECTOR ( 'NONE', #115, 1000.000000000000000 ) ;
#581 = DIRECTION ( 'NONE',  ( -0.000000000000000000, 1.000000000000000000, -0.000000000000000000 ) ) ;
#582 = CARTESIAN_POINT ( 'NONE',  ( 0.000000000000000000, 5.000000000000000000, 0.000000000000000000 ) ) ;
#583 = AXIS2_PLACEMENT_3D ( 'NONE', #372, #676, #663 ) ;
#584 = DIRECTION ( 'NONE',  ( -0.000000000000000000, 1.000000000000000000, -0.000000000000000000 ) ) ;
#585 = CIRCLE ( 'NONE', #85, 2.500000000000000000 ) ;
#586 = AXIS2_PLACEMENT_3D ( 'NONE', #558, #743, #211 ) ;
#587 = CARTESIAN_POINT ( 'NONE',  ( 21.00100000000060518, 0.000000000000000000, 2.498999999999483190 ) ) ;
#588 = EDGE_LOOP ( 'NONE', ( #164, #409, #395, #632 ) ) ;
#589 = ORIENTED_EDGE ( 'NONE', *, *, #651, .T. ) ;
#590 = EDGE_LOOP ( 'NONE', ( #99, #357, #135, #347 ) ) ;
#591 = CARTESIAN_POINT ( 'NONE',  ( 41.00000000000000711, 5.000000000000000000, 41.00000000000000000 ) ) ;
#592 = ORIENTED_EDGE ( 'NONE', *, *, #10, .T. ) ;
#593 = ORIENTED_EDGE ( 'NONE', *, *, #595, .T. ) ;
#594 = ORIENTED_EDGE ( 'NONE', *, *, #571, .T. ) ;
#595 = EDGE_CURVE ( 'NONE', #55, #576, #37, .T. ) ;
#596 = CIRCLE ( 'NONE', #521, 16.10000000000000142 ) ;
#597 = VERTEX_POINT ( 'NONE', #560 ) ;
#598 = ORIENTED_EDGE ( 'NONE', *, *, #674, .T. ) ;
#599 = EDGE_LOOP ( 'NONE', ( #613, #640, #718, #220 ) ) ;
#600 = ORIENTED_EDGE ( 'NONE', *, *, #337, .F. ) ;
#601 = CARTESIAN_POINT ( 'NONE',  ( -20.99899999999940903, 5.000000000000000000, 2.501000000000381362 ) ) ;
#602 = VECTOR ( 'NONE', #456, 1000.000000000000000 ) ;
#603 = DIRECTION ( 'NONE',  ( 0.000000000000000000, 0.000000000000000000, 1.000000000000000000 ) ) ;
#604 = CARTESIAN_POINT ( 'NONE',  ( 41.00000000000000711, 5.000000000000000000, -41.00000000000000000 ) ) ;
#605 = EDGE_CURVE ( 'NONE', #95, #101, #554, .T. ) ;
#606 = DIRECTION ( 'NONE',  ( 0.000000000000000000, 0.000000000000000000, 1.000000000000000000 ) ) ;
#607 = DIRECTION ( 'NONE',  ( -0.000000000000000000, 1.000000000000000000, -0.000000000000000000 ) ) ;
#608 = FACE_OUTER_BOUND ( 'NONE', #292, .T. ) ;
#609 = EDGE_CURVE ( 'NONE', #345, #110, #762, .T. ) ;
#610 = FACE_BOUND ( 'NONE', #153, .T. ) ;
#611 = CARTESIAN_POINT ( 'NONE',  ( 41.00000000000000711, 0.000000000000000000, -41.00000000000000000 ) ) ;
#612 = CARTESIAN_POINT ( 'NONE',  ( 0.000000000000000000, 5.000000000000000000, 0.000000000000000000 ) ) ;
#613 = ORIENTED_EDGE ( 'NONE', *, *, #719, .F. ) ;
#614 = ADVANCED_FACE ( 'NONE', ( #200 ), #629, .F. ) ;
#615 = DIRECTION ( 'NONE',  ( 0.000000000000000000, 1.000000000000000000, 0.000000000000000000 ) ) ;
#616 = CARTESIAN_POINT ( 'NONE',  ( 0.000000000000000000, 5.000000000000000000, -65.00000000000000000 ) ) ;
#617 = ORIENTED_EDGE ( 'NONE', *, *, #138, .F. ) ;
#618 = DIRECTION ( 'NONE',  ( -0.000000000000000000, 1.000000000000000000, -0.000000000000000000 ) ) ;
#619 = ADVANCED_FACE ( 'NONE', ( #332 ), #271, .F. ) ;
#620 = LINE ( 'NONE', #742, #702 ) ;
#621 = CARTESIAN_POINT ( 'NONE',  ( 1.971681346627238883E-15, 0.000000000000000000, -16.10000000000000142 ) ) ;
#622 = CIRCLE ( 'NONE', #167, 2.000000000000001776 ) ;
#623 = CIRCLE ( 'NONE', #583, 2.500000000000000444 ) ;
#624 = DIRECTION ( 'NONE',  ( 0.000000000000000000, 0.000000000000000000, 1.000000000000000000 ) ) ;
#625 = DIRECTION ( 'NONE',  ( 0.000000000000000000, 1.000000000000000000, 0.000000000000000000 ) ) ;
#626 = EDGE_CURVE ( 'NONE', #46, #296, #187, .T. ) ;
#627 = CARTESIAN_POINT ( 'NONE',  ( -40.99999999999999289, 0.000000000000000000, 43.00000000000000000 ) ) ;
#628 = VERTEX_POINT ( 'NONE', #579 ) ;
#629 = CYLINDRICAL_SURFACE ( 'NONE', #671, 2.500000000000000444 ) ;
#630 = CARTESIAN_POINT ( 'NONE',  ( 0.000000000000000000, -5.000000000000000000, 0.000000000000000000 ) ) ;
#631 = DIRECTION ( 'NONE',  ( 0.000000000000000000, 0.000000000000000000, 1.000000000000000000 ) ) ;
#632 = ORIENTED_EDGE ( 'NONE', *, *, #626, .T. ) ;
#633 = CARTESIAN_POINT ( 'NONE',  ( 21.00100000000060518, -5.000000000000000000, -0.001000000000517484947 ) ) ;
#634 = VECTOR ( 'NONE', #437, 1000.000000000000000 ) ;
#635 = DIRECTION ( 'NONE',  ( 0.000000000000000000, 0.000000000000000000, 1.000000000000000000 ) ) ;
#636 = CARTESIAN_POINT ( 'NONE',  ( 3.061616997868384620E-16, 0.000000000000000000, -23.50000000000000000 ) ) ;
#637 = CARTESIAN_POINT ( 'NONE',  ( 0.000000000000000000, 5.000000000000000000, -21.00000000000000000 ) ) ;
#638 = EDGE_CURVE ( 'NONE', #294, #295, #741, .T. ) ;
#639 = DIRECTION ( 'NONE',  ( 0.000000000000000000, 0.000000000000000000, -1.000000000000000000 ) ) ;
#640 = ORIENTED_EDGE ( 'NONE', *, *, #207, .F. ) ;
#641 = APPLICATION_PROTOCOL_DEFINITION ( 'draft international standard', 'automotive_design', 1998, #57 ) ;
#642 = CIRCLE ( 'NONE', #275, 2.000000000000001776 ) ;
#643 = LINE ( 'NONE', #507, #769 ) ;
#644 = EDGE_LOOP ( 'NONE', ( #34, #483, #482, #699 ) ) ;
#645 = EDGE_CURVE ( 'NONE', #695, #300, #396, .T. ) ;
#646 = CYLINDRICAL_SURFACE ( 'NONE', #49, 2.500000000000000444 ) ;
#647 = FACE_OUTER_BOUND ( 'NONE', #228, .T. ) ;
#648 = CARTESIAN_POINT ( 'NONE',  ( 41.00000000000000711, 5.000000000000000000, 41.00000000000000000 ) ) ;
#649 = ORIENTED_EDGE ( 'NONE', *, *, #284, .F. ) ;
#650 = PRESENTATION_LAYER_ASSIGNMENT (  '', '', ( #181 ) ) ;
#651 = EDGE_CURVE ( 'NONE', #491, #781, #585, .T. ) ;
#652 = ORIENTED_EDGE ( 'NONE', *, *, #729, .T. ) ;
#653 = ORIENTED_EDGE ( 'NONE', *, *, #551, .T. ) ;
#654 = EDGE_LOOP ( 'NONE', ( #720, #171 ) ) ;
#655 = EDGE_CURVE ( 'NONE', #423, #137, #92, .T. ) ;
#656 = ORIENTED_EDGE ( 'NONE', *, *, #701, .T. ) ;
#657 = CARTESIAN_POINT ( 'NONE',  ( 41.00000000000000711, 0.000000000000000000, -43.00000000000000000 ) ) ;
#658 = VERTEX_POINT ( 'NONE', #457 ) ;
#659 = EDGE_LOOP ( 'NONE', ( #47, #232, #691, #323 ) ) ;
#660 = EDGE_CURVE ( 'NONE', #224, #658, #447, .T. ) ;
#661 = CYLINDRICAL_SURFACE ( 'NONE', #91, 2.500000000000000000 ) ;
#662 = AXIS2_PLACEMENT_3D ( 'NONE', #474, #707, #162 ) ;
#663 = DIRECTION ( 'NONE',  ( 0.000000000000000000, 0.000000000000000000, 1.000000000000000000 ) ) ;
#664 = CARTESIAN_POINT ( 'NONE',  ( -20.99899999999940903, 0.000000000000000000, -2.498999999999618638 ) ) ;
#665 = EDGE_CURVE ( 'NONE', #515, #101, #526, .T. ) ;
#666 = CARTESIAN_POINT ( 'NONE',  ( 21.00100000000060518, -5.000000000000000000, -2.501000000000518142 ) ) ;
#667 = ORIENTED_EDGE ( 'NONE', *, *, #529, .F. ) ;
#668 = CARTESIAN_POINT ( 'NONE',  ( 0.002000000001048452599, 0.000000000000000000, 18.50000000000001776 ) ) ;
#669 = FACE_BOUND ( 'NONE', #278, .T. ) ;
#670 = FACE_OUTER_BOUND ( 'NONE', #539, .T. ) ;
#671 = AXIS2_PLACEMENT_3D ( 'NONE', #633, #216, #126 ) ;
#672 = DIRECTION ( 'NONE',  ( 0.000000000000000000, 1.000000000000000000, 0.000000000000000000 ) ) ;
#673 = CARTESIAN_POINT ( 'NONE',  ( 7.960204194457797252E-15, 0.000000000000000000, 65.00000000000000000 ) ) ;
#674 = EDGE_CURVE ( 'NONE', #597, #774, #405, .T. ) ;
#675 = AXIS2_PLACEMENT_3D ( 'NONE', #682, #581, #564 ) ;
#676 = DIRECTION ( 'NONE',  ( 0.000000000000000000, 1.000000000000000000, 0.000000000000000000 ) ) ;
#677 = CARTESIAN_POINT ( 'NONE',  ( 41.00000000000000711, 0.000000000000000000, -41.00000000000000000 ) ) ;
#678 = LINE ( 'NONE', #448, #359 ) ;
#679 = AXIS2_PLACEMENT_3D ( 'NONE', #387, #739, #324 ) ;
#680 = AXIS2_PLACEMENT_3D ( 'NONE', #25, #90, #765 ) ;
#681 = EDGE_CURVE ( 'NONE', #17, #597, #538, .T. ) ;
#682 = CARTESIAN_POINT ( 'NONE',  ( -40.99999999999999289, 0.000000000000000000, -41.00000000000000000 ) ) ;
#683 = DIRECTION ( 'NONE',  ( 0.000000000000000000, 0.000000000000000000, 1.000000000000000000 ) ) ;
#684 = ORIENTED_EDGE ( 'NONE', *, *, #543, .T. ) ;
#685 = CYLINDRICAL_SURFACE ( 'NONE', #586, 2.000000000000001776 ) ;
#686 = EDGE_CURVE ( 'NONE', #774, #408, #43, .T. ) ;
#687 = DIRECTION ( 'NONE',  ( -0.000000000000000000, 1.000000000000000000, -0.000000000000000000 ) ) ;
#688 = CYLINDRICAL_SURFACE ( 'NONE', #97, 2.000000000000001776 ) ;
#689 = VECTOR ( 'NONE', #86, 1000.000000000000000 ) ;
#690 = DIRECTION ( 'NONE',  ( 0.000000000000000000, 0.000000000000000000, 1.000000000000000000 ) ) ;
#691 = ORIENTED_EDGE ( 'NONE', *, *, #655, .T. ) ;
#692 = DIRECTION ( 'NONE',  ( 0.000000000000000000, 0.000000000000000000, 1.000000000000000000 ) ) ;
#693 = VECTOR ( 'NONE', #618, 1000.000000000000000 ) ;
#694 = CYLINDRICAL_SURFACE ( 'NONE', #495, 65.00000000000000000 ) ;
#695 = VERTEX_POINT ( 'NONE', #668 ) ;
#696 = EDGE_CURVE ( 'NONE', #264, #515, #67, .T. ) ;
#697 = CARTESIAN_POINT ( 'NONE',  ( -20.99899999999940903, 5.000000000000000000, 0.001000000000381251258 ) ) ;
#698 = DIRECTION ( 'NONE',  ( 0.000000000000000000, 1.000000000000000000, 0.000000000000000000 ) ) ;
#699 = ORIENTED_EDGE ( 'NONE', *, *, #761, .T. ) ;
#700 = DIRECTION ( 'NONE',  ( -0.000000000000000000, 1.000000000000000000, -0.000000000000000000 ) ) ;
#701 = EDGE_CURVE ( 'NONE', #473, #781, #9, .T. ) ;
#702 = VECTOR ( 'NONE', #12, 1000.000000000000000 ) ;
#703 = CARTESIAN_POINT ( 'NONE',  ( 0.000000000000000000, 0.000000000000000000, 0.000000000000000000 ) ) ;
#704 = AXIS2_PLACEMENT_3D ( 'NONE', #612, #66, #312 ) ;
#705 = EDGE_LOOP ( 'NONE', ( #777, #706 ) ) ;
#706 = ORIENTED_EDGE ( 'NONE', *, *, #138, .T. ) ;
#707 = DIRECTION ( 'NONE',  ( 0.000000000000000000, 1.000000000000000000, 0.000000000000000000 ) ) ;
#708 = ORIENTED_EDGE ( 'NONE', *, *, #434, .F. ) ;
#709 = ORIENTED_EDGE ( 'NONE', *, *, #571, .F. ) ;
#710 = ORIENTED_EDGE ( 'NONE', *, *, #222, .T. ) ;
#711 = VERTEX_POINT ( 'NONE', #621 ) ;
#712 = ORIENTED_EDGE ( 'NONE', *, *, #15, .T. ) ;
#713 = CIRCLE ( 'NONE', #308, 2.500000000000000000 ) ;
#714 = AXIS2_PLACEMENT_3D ( 'NONE', #451, #258, #505 ) ;
#715 = EDGE_LOOP ( 'NONE', ( #528, #344, #593, #772 ) ) ;
#716 = ORIENTED_EDGE ( 'NONE', *, *, #235, .T. ) ;
#717 = DIRECTION ( 'NONE',  ( 0.000000000000000000, 1.000000000000000000, 0.000000000000000000 ) ) ;
#718 = ORIENTED_EDGE ( 'NONE', *, *, #755, .T. ) ;
#719 = EDGE_CURVE ( 'NONE', #778, #272, #330, .T. ) ;
#720 = ORIENTED_EDGE ( 'NONE', *, *, #761, .F. ) ;
#721 = CYLINDRICAL_SURFACE ( 'NONE', #455, 2.499999999999998668 ) ;
#722 = CARTESIAN_POINT ( 'NONE',  ( 0.000000000000000000, 5.000000000000000000, -21.00000000000000000 ) ) ;
#723 = MECHANICAL_DESIGN_GEOMETRIC_PRESENTATION_REPRESENTATION (  '', ( #181 ), #58 ) ;
#724 = DIRECTION ( 'NONE',  ( 0.000000000000000000, 1.000000000000000000, 0.000000000000000000 ) ) ;
#725 = EDGE_CURVE ( 'NONE', #711, #786, #510, .T. ) ;
#726 = FACE_BOUND ( 'NONE', #705, .T. ) ;
#727 = DIRECTION ( 'NONE',  ( 0.000000000000000000, 1.000000000000000000, 0.000000000000000000 ) ) ;
#728 = PRODUCT ( 'front plate al old motor', 'front plate al old motor', '', ( #159 ) ) ;
#729 = EDGE_CURVE ( 'NONE', #628, #158, #206, .T. ) ;
#730 = VECTOR ( 'NONE', #400, 1000.000000000000000 ) ;
#731 = ORIENTED_EDGE ( 'NONE', *, *, #31, .F. ) ;
#732 = FACE_OUTER_BOUND ( 'NONE', #168, .T. ) ;
#733 = CARTESIAN_POINT ( 'NONE',  ( 0.002000000001048452599, 5.000000000000000000, 18.50000000000001776 ) ) ;
#734 = DIRECTION ( 'NONE',  ( 0.000000000000000000, 0.000000000000000000, 1.000000000000000000 ) ) ;
#735 = CARTESIAN_POINT ( 'NONE',  ( 0.000000000000000000, 5.000000000000000000, 0.000000000000000000 ) ) ;
#736 = CIRCLE ( 'NONE', #75, 2.000000000000001776 ) ;
#737 = CARTESIAN_POINT ( 'NONE',  ( 0.000000000000000000, -5.000000000000000000, 0.000000000000000000 ) ) ;
#738 = ADVANCED_FACE ( 'NONE', ( #608 ), #688, .F. ) ;
#739 = DIRECTION ( 'NONE',  ( 0.000000000000000000, 1.000000000000000000, 0.000000000000000000 ) ) ;
#740 = CIRCLE ( 'NONE', #508, 2.000000000000001776 ) ;
#741 = LINE ( 'NONE', #147, #128 ) ;
#742 = CARTESIAN_POINT ( 'NONE',  ( 0.002000000001048146420, -5.000000000000000000, 23.50000000000001421 ) ) ;
#743 = DIRECTION ( 'NONE',  ( -0.000000000000000000, 1.000000000000000000, -0.000000000000000000 ) ) ;
#744 = FACE_OUTER_BOUND ( 'NONE', #391, .T. ) ;
#745 = ADVANCED_FACE ( 'NONE', ( #577 ), #73, .F. ) ;
#746 = ORIENTED_EDGE ( 'NONE', *, *, #756, .F. ) ;
#747 = CARTESIAN_POINT ( 'NONE',  ( 0.002000000001048146420, -5.000000000000000000, 21.00000000000001421 ) ) ;
#748 = LINE ( 'NONE', #454, #363 ) ;
#749 = CARTESIAN_POINT ( 'NONE',  ( -40.99999999999999289, 0.000000000000000000, 41.00000000000000000 ) ) ;
#750 = ORIENTED_EDGE ( 'NONE', *, *, #543, .F. ) ;
#751 = DIRECTION ( 'NONE',  ( -0.000000000000000000, 1.000000000000000000, -0.000000000000000000 ) ) ;
#752 = VECTOR ( 'NONE', #87, 1000.000000000000000 ) ;
#753 = FACE_BOUND ( 'NONE', #230, .T. ) ;
#754 = CIRCLE ( 'NONE', #197, 2.500000000000000444 ) ;
#755 = EDGE_CURVE ( 'NONE', #339, #36, #748, .T. ) ;
#756 = EDGE_CURVE ( 'NONE', #294, #628, #489, .T. ) ;
#757 = CARTESIAN_POINT ( 'NONE',  ( 0.000000000000000000, -5.000000000000000000, -21.00000000000000000 ) ) ;
#758 = CARTESIAN_POINT ( 'NONE',  ( -40.99999999999999289, 5.000000000000000000, 41.00000000000000000 ) ) ;
#759 = DIRECTION ( 'NONE',  ( 0.000000000000000000, 0.000000000000000000, 1.000000000000000000 ) ) ;
#760 = ORIENTED_EDGE ( 'NONE', *, *, #452, .T. ) ;
#761 = EDGE_CURVE ( 'NONE', #576, #55, #642, .T. ) ;
#762 = LINE ( 'NONE', #22, #752 ) ;
#763 = DIRECTION ( 'NONE',  ( -0.000000000000000000, 1.000000000000000000, -0.000000000000000000 ) ) ;
#764 = ORIENTED_EDGE ( 'NONE', *, *, #686, .F. ) ;
#765 = DIRECTION ( 'NONE',  ( 1.000000000000000000, 0.000000000000000000, 0.000000000000000000 ) ) ;
#766 = VECTOR ( 'NONE', #301, 1000.000000000000000 ) ;
#767 = CARTESIAN_POINT ( 'NONE',  ( -40.99999999999999289, 5.000000000000000000, 39.00000000000000000 ) ) ;
#768 = VERTEX_POINT ( 'NONE', #265 ) ;
#769 = VECTOR ( 'NONE', #201, 1000.000000000000000 ) ;
#770 = FACE_OUTER_BOUND ( 'NONE', #416, .T. ) ;
#771 = AXIS2_PLACEMENT_3D ( 'NONE', #511, #124, #317 ) ;
#772 = ORIENTED_EDGE ( 'NONE', *, *, #121, .F. ) ;
#773 = CARTESIAN_POINT ( 'NONE',  ( -20.99899999999940903, -5.000000000000000000, 0.001000000000381251258 ) ) ;
#774 = VERTEX_POINT ( 'NONE', #673 ) ;
#775 = ORIENTED_EDGE ( 'NONE', *, *, #378, .F. ) ;
#776 = EDGE_CURVE ( 'NONE', #695, #129, #131, .T. ) ;
#777 = ORIENTED_EDGE ( 'NONE', *, *, #696, .T. ) ;
#778 = VERTEX_POINT ( 'NONE', #568 ) ;
#779 = CIRCLE ( 'NONE', #426, 2.500000000000000000 ) ;
#780 = LINE ( 'NONE', #666, #580 ) ;
#781 = VERTEX_POINT ( 'NONE', #190 ) ;
#782 = EDGE_LOOP ( 'NONE', ( #716, #410 ) ) ;
#783 = FACE_BOUND ( 'NONE', #782, .T. ) ;
#784 = VECTOR ( 'NONE', #512, 1000.000000000000000 ) ;
#785 = ADVANCED_FACE ( 'NONE', ( #257 ), #685, .F. ) ;
#786 = VERTEX_POINT ( 'NONE', #122 ) ;
#787 = CARTESIAN_POINT ( 'NONE',  ( 0.000000000000000000, 5.000000000000000000, 0.000000000000000000 ) ) ;
#788 = PRODUCT_DEFINITION ( 'UNKNOWN', '', #450, #369 ) ;
#789 = FACE_BOUND ( 'NONE', #163, .T. ) ;
#790 = DIRECTION ( 'NONE',  ( 0.000000000000000000, 1.000000000000000000, 0.000000000000000000 ) ) ;
#791 = EDGE_LOOP ( 'NONE', ( #221, #256, #652, #145 ) ) ;
ENDSEC;
END-ISO-10303-21;
