ISO-10303-21;
HEADER;
FILE_DESCRIPTION (( 'STEP AP214' ),
    '1' );
FILE_NAME ('gg.STEP',
    '2026-02-21T10:33:00',
    ( '' ),
    ( '' ),
    'SwSTEP 2.0',
    'SolidWorks 2023',
    '' );
FILE_SCHEMA (( 'AUTOMOTIVE_DESIGN' ));
ENDSEC;

DATA;
#1 = EDGE_CURVE ( 'NONE', #236, #283, #124, .T. ) ;
#2 = ORIENTED_EDGE ( 'NONE', *, *, #30, .F. ) ;
#3 = ORIENTED_EDGE ( 'NONE', *, *, #160, .F. ) ;
#4 = EDGE_CURVE ( 'NONE', #23, #137, #180, .T. ) ;
#5 = FILL_AREA_STYLE_COLOUR ( '', #226 ) ;
#6 =( NAMED_UNIT ( * ) SI_UNIT ( $, .STERADIAN. ) SOLID_ANGLE_UNIT ( ) );
#7 = DIRECTION ( 'NONE',  ( -1.000000000000000000, -0.000000000000000000, -0.000000000000000000 ) ) ;
#8 = PLANE ( 'NONE',  #261 ) ;
#9 = FACE_OUTER_BOUND ( 'NONE', #177, .T. ) ;
#10 = PRODUCT ( 'gg', 'gg', '', ( #249 ) ) ;
#11 = DIRECTION ( 'NONE',  ( 1.000000000000000000, 0.000000000000000000, 0.000000000000000000 ) ) ;
#12 = DIRECTION ( 'NONE',  ( 0.000000000000000000, 0.000000000000000000, 1.000000000000000000 ) ) ;
#13 = DIRECTION ( 'NONE',  ( 0.000000000000000000, 0.000000000000000000, -1.000000000000000000 ) ) ;
#14 = CARTESIAN_POINT ( 'NONE',  ( 7.500000000000007105, 2.865673510004806174E-15, 23.40000000000000213 ) ) ;
#15 = CARTESIAN_POINT ( 'NONE',  ( 57.50000000000000000, 0.000000000000000000, 0.000000000000000000 ) ) ;
#16 = CIRCLE ( 'NONE', #116, 23.40000000000000213 ) ;
#17 = DIRECTION ( 'NONE',  ( 0.000000000000000000, 0.000000000000000000, -1.000000000000000000 ) ) ;
#18 = EDGE_CURVE ( 'NONE', #28, #239, #197, .T. ) ;
#19 = AXIS2_PLACEMENT_3D ( 'NONE', #36, #184, #222 ) ;
#20 = ORIENTED_EDGE ( 'NONE', *, *, #4, .T. ) ;
#21 = ORIENTED_EDGE ( 'NONE', *, *, #59, .T. ) ;
#22 = ORIENTED_EDGE ( 'NONE', *, *, #1, .F. ) ;
#23 = VERTEX_POINT ( 'NONE', #47 ) ;
#24 = PRODUCT_DEFINITION_SHAPE ( 'NONE', 'NONE',  #93 ) ;
#25 = LINE ( 'NONE', #92, #225 ) ;
#26 = CIRCLE ( 'NONE', #63, 28.44000000000000483 ) ;
#27 = ORIENTED_EDGE ( 'NONE', *, *, #100, .T. ) ;
#28 = VERTEX_POINT ( 'NONE', #219 ) ;
#29 = APPLICATION_PROTOCOL_DEFINITION ( 'draft international standard', 'automotive_design', 1998, #146 ) ;
#30 = EDGE_CURVE ( 'NONE', #283, #94, #25, .T. ) ;
#31 = DIRECTION ( 'NONE',  ( 0.000000000000000000, 0.000000000000000000, -1.000000000000000000 ) ) ;
#32 = DIRECTION ( 'NONE',  ( 0.000000000000000000, 0.000000000000000000, -1.000000000000000000 ) ) ;
#33 = FACE_BOUND ( 'NONE', #262, .T. ) ;
#34 = DIRECTION ( 'NONE',  ( 0.000000000000000000, 0.000000000000000000, -1.000000000000000000 ) ) ;
#35 = EDGE_CURVE ( 'NONE', #137, #264, #109, .T. ) ;
#36 = CARTESIAN_POINT ( 'NONE',  ( 2.500000000000000000, 0.000000000000000000, 0.000000000000000000 ) ) ;
#37 = CYLINDRICAL_SURFACE ( 'NONE', #214, 23.40000000000000213 ) ;
#38 = PLANE ( 'NONE',  #238 ) ;
#39 = DIRECTION ( 'NONE',  ( -1.000000000000000000, -0.000000000000000000, -0.000000000000000000 ) ) ;
#40 = CARTESIAN_POINT ( 'NONE',  ( 57.49999999999999289, 0.000000000000000000, 28.44000000000000483 ) ) ;
#41 = UNCERTAINTY_MEASURE_WITH_UNIT (LENGTH_MEASURE( 1.000000000000000082E-05 ), #72, 'distance_accuracy_value', 'NONE');
#42 =( GEOMETRIC_REPRESENTATION_CONTEXT ( 3 ) GLOBAL_UNCERTAINTY_ASSIGNED_CONTEXT ( ( #41 ) ) GLOBAL_UNIT_ASSIGNED_CONTEXT ( ( #72, #75, #224 ) ) REPRESENTATION_CONTEXT ( 'NONE', 'WORKASPACE' ) );
#43 = AXIS2_PLACEMENT_3D ( 'NONE', #203, #7, #246 ) ;
#44 = ORIENTED_EDGE ( 'NONE', *, *, #240, .F. ) ;
#45 = CARTESIAN_POINT ( 'NONE',  ( 7.500000000000007105, 0.000000000000000000, 0.000000000000000000 ) ) ;
#46 = ADVANCED_FACE ( 'NONE', ( #251 ), #229, .T. ) ;
#47 = CARTESIAN_POINT ( 'NONE',  ( 57.49999999999999289, 3.482895496775072599E-15, -28.44000000000000483 ) ) ;
#48 = ORIENTED_EDGE ( 'NONE', *, *, #100, .F. ) ;
#49 = ORIENTED_EDGE ( 'NONE', *, *, #281, .F. ) ;
#50 = ADVANCED_FACE ( 'NONE', ( #125 ), #207, .T. ) ;
#51 = ORIENTED_EDGE ( 'NONE', *, *, #160, .T. ) ;
#52 = DIRECTION ( 'NONE',  ( 1.000000000000000000, 0.000000000000000000, 0.000000000000000000 ) ) ;
#53 = VECTOR ( 'NONE', #83, 1000.000000000000000 ) ;
#54 = CARTESIAN_POINT ( 'NONE',  ( 0.000000000000000000, 0.000000000000000000, 0.000000000000000000 ) ) ;
#55 = PLANE ( 'NONE',  #143 ) ;
#56 = CARTESIAN_POINT ( 'NONE',  ( 0.000000000000000000, 0.000000000000000000, 0.000000000000000000 ) ) ;
#57 = FACE_OUTER_BOUND ( 'NONE', #141, .T. ) ;
#58 = CIRCLE ( 'NONE', #96, 23.40000000000000213 ) ;
#59 = EDGE_CURVE ( 'NONE', #264, #137, #199, .T. ) ;
#60 = CARTESIAN_POINT ( 'NONE',  ( 7.500000000000007105, 0.000000000000000000, 0.000000000000000000 ) ) ;
#61 = ORIENTED_EDGE ( 'NONE', *, *, #35, .T. ) ;
#62 = ADVANCED_FACE ( 'NONE', ( #33, #9 ), #55, .F. ) ;
#63 = AXIS2_PLACEMENT_3D ( 'NONE', #99, #150, #31 ) ;
#64 = EDGE_LOOP ( 'NONE', ( #49, #20, #61, #44 ) ) ;
#65 = DIRECTION ( 'NONE',  ( 0.000000000000000000, 0.000000000000000000, -1.000000000000000000 ) ) ;
#66 = EDGE_CURVE ( 'NONE', #283, #236, #58, .T. ) ;
#67 = ORIENTED_EDGE ( 'NONE', *, *, #133, .F. ) ;
#68 = ORIENTED_EDGE ( 'NONE', *, *, #153, .T. ) ;
#69 = SURFACE_STYLE_USAGE ( .BOTH. , #121 ) ;
#70 = DIRECTION ( 'NONE',  ( 0.000000000000000000, 0.000000000000000000, 1.000000000000000000 ) ) ;
#71 = CARTESIAN_POINT ( 'NONE',  ( 57.50000000000000000, 0.000000000000000000, 0.000000000000000000 ) ) ;
#72 =( LENGTH_UNIT ( ) NAMED_UNIT ( * ) SI_UNIT ( .MILLI., .METRE. ) );
#73 = DIRECTION ( 'NONE',  ( 1.000000000000000000, 0.000000000000000000, 0.000000000000000000 ) ) ;
#74 = STYLED_ITEM ( 'NONE', ( #273 ), #82 ) ;
#75 =( NAMED_UNIT ( * ) PLANE_ANGLE_UNIT ( ) SI_UNIT ( $, .RADIAN. ) );
#76 = FACE_OUTER_BOUND ( 'NONE', #243, .T. ) ;
#77 = DIRECTION ( 'NONE',  ( 0.000000000000000000, 0.000000000000000000, 1.000000000000000000 ) ) ;
#78 = CARTESIAN_POINT ( 'NONE',  ( 7.500000000000007105, 2.865673510004806174E-15, 23.40000000000000213 ) ) ;
#79 = EDGE_CURVE ( 'NONE', #28, #88, #81, .T. ) ;
#80 = CYLINDRICAL_SURFACE ( 'NONE', #276, 23.40000000000000213 ) ;
#81 = CIRCLE ( 'NONE', #173, 13.00000000000000178 ) ;
#82 = MANIFOLD_SOLID_BREP ( 'Boss-Extrude3', #190 ) ;
#83 = DIRECTION ( 'NONE',  ( -1.000000000000000000, -0.000000000000000000, -0.000000000000000000 ) ) ;
#84 = DIRECTION ( 'NONE',  ( 0.000000000000000000, 0.000000000000000000, -1.000000000000000000 ) ) ;
#85 = ADVANCED_BREP_SHAPE_REPRESENTATION ( 'gg', ( #82, #87 ), #183 ) ;
#86 = EDGE_CURVE ( 'NONE', #163, #23, #26, .T. ) ;
#87 = AXIS2_PLACEMENT_3D ( 'NONE', #56, #70, #151 ) ;
#88 = VERTEX_POINT ( 'NONE', #268 ) ;
#89 = ORIENTED_EDGE ( 'NONE', *, *, #111, .F. ) ;
#90 = ORIENTED_EDGE ( 'NONE', *, *, #123, .T. ) ;
#91 = CIRCLE ( 'NONE', #260, 13.00000000000000178 ) ;
#92 = CARTESIAN_POINT ( 'NONE',  ( 7.500000000000007105, 0.000000000000000000, -23.40000000000000213 ) ) ;
#93 = PRODUCT_DEFINITION ( 'UNKNOWN', '', #266, #235 ) ;
#94 = VERTEX_POINT ( 'NONE', #167 ) ;
#95 = EDGE_LOOP ( 'NONE', ( #140, #237, #27, #265 ) ) ;
#96 = AXIS2_PLACEMENT_3D ( 'NONE', #205, #101, #97 ) ;
#97 = DIRECTION ( 'NONE',  ( 0.000000000000000000, 0.000000000000000000, -1.000000000000000000 ) ) ;
#98 =( LENGTH_UNIT ( ) NAMED_UNIT ( * ) SI_UNIT ( .MILLI., .METRE. ) );
#99 = CARTESIAN_POINT ( 'NONE',  ( 57.49999999999999289, 0.000000000000000000, 0.000000000000000000 ) ) ;
#100 = EDGE_CURVE ( 'NONE', #282, #239, #91, .T. ) ;
#101 = DIRECTION ( 'NONE',  ( 1.000000000000000000, 0.000000000000000000, 0.000000000000000000 ) ) ;
#102 = CYLINDRICAL_SURFACE ( 'NONE', #43, 28.44000000000000483 ) ;
#103 =( NAMED_UNIT ( * ) PLANE_ANGLE_UNIT ( ) SI_UNIT ( $, .RADIAN. ) );
#104 = AXIS2_PLACEMENT_3D ( 'NONE', #105, #122, #77 ) ;
#105 = CARTESIAN_POINT ( 'NONE',  ( 2.500000000000000000, 0.000000000000000000, 0.000000000000000000 ) ) ;
#106 = CARTESIAN_POINT ( 'NONE',  ( 2.500000000000000000, 0.000000000000000000, 0.000000000000000000 ) ) ;
#107 = DIRECTION ( 'NONE',  ( 0.000000000000000000, 0.000000000000000000, 1.000000000000000000 ) ) ;
#108 = PLANE ( 'NONE',  #192 ) ;
#109 = CIRCLE ( 'NONE', #258, 28.44000000000000483 ) ;
#110 = DIRECTION ( 'NONE',  ( 1.000000000000000000, 0.000000000000000000, 0.000000000000000000 ) ) ;
#111 = EDGE_CURVE ( 'NONE', #176, #94, #227, .T. ) ;
#112 = ORIENTED_EDGE ( 'NONE', *, *, #263, .F. ) ;
#113 = VECTOR ( 'NONE', #128, 1000.000000000000000 ) ;
#114 = ORIENTED_EDGE ( 'NONE', *, *, #18, .T. ) ;
#115 = DIRECTION ( 'NONE',  ( 1.000000000000000000, -0.000000000000000000, -0.000000000000000000 ) ) ;
#116 = AXIS2_PLACEMENT_3D ( 'NONE', #15, #255, #17 ) ;
#117 = ORIENTED_EDGE ( 'NONE', *, *, #59, .F. ) ;
#118 = DIRECTION ( 'NONE',  ( 1.000000000000000000, 0.000000000000000000, 0.000000000000000000 ) ) ;
#119 = DIRECTION ( 'NONE',  ( 0.000000000000000000, 0.000000000000000000, -1.000000000000000000 ) ) ;
#120 = FACE_OUTER_BOUND ( 'NONE', #135, .T. ) ;
#121 = SURFACE_SIDE_STYLE ('',( #147 ) ) ;
#122 = DIRECTION ( 'NONE',  ( -1.000000000000000000, -0.000000000000000000, -0.000000000000000000 ) ) ;
#123 = EDGE_CURVE ( 'NONE', #239, #282, #247, .T. ) ;
#124 = CIRCLE ( 'NONE', #279, 23.40000000000000213 ) ;
#125 = FACE_OUTER_BOUND ( 'NONE', #95, .T. ) ;
#126 = AXIS2_PLACEMENT_3D ( 'NONE', #171, #39, #107 ) ;
#127 = CARTESIAN_POINT ( 'NONE',  ( 137.9404674277816412, 0.000000000000000000, 28.44000000000000483 ) ) ;
#128 = DIRECTION ( 'NONE',  ( 1.000000000000000000, -0.000000000000000000, -0.000000000000000000 ) ) ;
#129 = FACE_OUTER_BOUND ( 'NONE', #156, .T. ) ;
#130 = ADVANCED_FACE ( 'NONE', ( #120 ), #102, .T. ) ;
#131 = AXIS2_PLACEMENT_3D ( 'NONE', #54, #244, #32 ) ;
#132 = APPLICATION_CONTEXT ( 'automotive_design' ) ;
#133 = EDGE_CURVE ( 'NONE', #88, #282, #144, .T. ) ;
#134 = ORIENTED_EDGE ( 'NONE', *, *, #123, .F. ) ;
#135 = EDGE_LOOP ( 'NONE', ( #242, #221, #181, #21 ) ) ;
#136 = ORIENTED_EDGE ( 'NONE', *, *, #263, .T. ) ;
#137 = VERTEX_POINT ( 'NONE', #230 ) ;
#138 = EDGE_LOOP ( 'NONE', ( #112, #201, #259, #51 ) ) ;
#139 = ORIENTED_EDGE ( 'NONE', *, *, #86, .T. ) ;
#140 = ORIENTED_EDGE ( 'NONE', *, *, #153, .F. ) ;
#141 = EDGE_LOOP ( 'NONE', ( #161, #196 ) ) ;
#142 = DIRECTION ( 'NONE',  ( 0.000000000000000000, 0.000000000000000000, -1.000000000000000000 ) ) ;
#143 = AXIS2_PLACEMENT_3D ( 'NONE', #186, #52, #142 ) ;
#144 = LINE ( 'NONE', #228, #53 ) ;
#145 = SHAPE_DEFINITION_REPRESENTATION ( #24, #85 ) ;
#146 = APPLICATION_CONTEXT ( 'automotive_design' ) ;
#147 = SURFACE_STYLE_FILL_AREA ( #271 ) ;
#148 = DIRECTION ( 'NONE',  ( 1.000000000000000000, 0.000000000000000000, 0.000000000000000000 ) ) ;
#149 = ADVANCED_FACE ( 'NONE', ( #154 ), #37, .F. ) ;
#150 = DIRECTION ( 'NONE',  ( 1.000000000000000000, 0.000000000000000000, 0.000000000000000000 ) ) ;
#151 = DIRECTION ( 'NONE',  ( 1.000000000000000000, 0.000000000000000000, 0.000000000000000000 ) ) ;
#152 = DIRECTION ( 'NONE',  ( 0.000000000000000000, 0.000000000000000000, -1.000000000000000000 ) ) ;
#153 = EDGE_CURVE ( 'NONE', #88, #28, #200, .T. ) ;
#154 = FACE_OUTER_BOUND ( 'NONE', #138, .T. ) ;
#155 = ADVANCED_FACE ( 'NONE', ( #57 ), #38, .T. ) ;
#156 = EDGE_LOOP ( 'NONE', ( #139, #257 ) ) ;
#157 = MECHANICAL_DESIGN_GEOMETRIC_PRESENTATION_REPRESENTATION (  '', ( #74 ), #42 ) ;
#158 = AXIS2_PLACEMENT_3D ( 'NONE', #106, #208, #254 ) ;
#159 = ORIENTED_EDGE ( 'NONE', *, *, #79, .T. ) ;
#160 = EDGE_CURVE ( 'NONE', #94, #176, #16, .T. ) ;
#161 = ORIENTED_EDGE ( 'NONE', *, *, #66, .T. ) ;
#162 = ORIENTED_EDGE ( 'NONE', *, *, #111, .T. ) ;
#163 = VERTEX_POINT ( 'NONE', #40 ) ;
#164 = ADVANCED_FACE ( 'NONE', ( #187 ), #80, .F. ) ;
#165 = DIRECTION ( 'NONE',  ( 1.000000000000000000, 0.000000000000000000, 0.000000000000000000 ) ) ;
#166 = AXIS2_PLACEMENT_3D ( 'NONE', #71, #11, #169 ) ;
#167 = CARTESIAN_POINT ( 'NONE',  ( 57.50000000000000000, 0.000000000000000000, -23.40000000000000213 ) ) ;
#168 = CARTESIAN_POINT ( 'NONE',  ( 0.000000000000000000, 1.592040838891559293E-15, -13.00000000000000178 ) ) ;
#169 = DIRECTION ( 'NONE',  ( 0.000000000000000000, 0.000000000000000000, -1.000000000000000000 ) ) ;
#170 = DIRECTION ( 'NONE',  ( -1.000000000000000000, -0.000000000000000000, -0.000000000000000000 ) ) ;
#171 = CARTESIAN_POINT ( 'NONE',  ( 137.9404674277816412, 0.000000000000000000, 0.000000000000000000 ) ) ;
#172 = CARTESIAN_POINT ( 'NONE',  ( 0.000000000000000000, 0.000000000000000000, 13.00000000000000178 ) ) ;
#173 = AXIS2_PLACEMENT_3D ( 'NONE', #269, #252, #182 ) ;
#174 = DIRECTION ( 'NONE',  ( 1.000000000000000000, 0.000000000000000000, 0.000000000000000000 ) ) ;
#175 = LINE ( 'NONE', #127, #195 ) ;
#176 = VERTEX_POINT ( 'NONE', #232 ) ;
#177 = EDGE_LOOP ( 'NONE', ( #117, #216 ) ) ;
#178 = DIRECTION ( 'NONE',  ( -1.000000000000000000, -0.000000000000000000, -0.000000000000000000 ) ) ;
#179 = EDGE_LOOP ( 'NONE', ( #22, #136, #162, #2 ) ) ;
#180 = LINE ( 'NONE', #202, #189 ) ;
#181 = ORIENTED_EDGE ( 'NONE', *, *, #240, .T. ) ;
#182 = DIRECTION ( 'NONE',  ( 0.000000000000000000, 0.000000000000000000, -1.000000000000000000 ) ) ;
#183 =( GEOMETRIC_REPRESENTATION_CONTEXT ( 3 ) GLOBAL_UNCERTAINTY_ASSIGNED_CONTEXT ( ( #213 ) ) GLOBAL_UNIT_ASSIGNED_CONTEXT ( ( #98, #103, #6 ) ) REPRESENTATION_CONTEXT ( 'NONE', 'WORKASPACE' ) );
#184 = DIRECTION ( 'NONE',  ( 1.000000000000000000, 0.000000000000000000, 0.000000000000000000 ) ) ;
#185 = ADVANCED_FACE ( 'NONE', ( #253, #129 ), #108, .T. ) ;
#186 = CARTESIAN_POINT ( 'NONE',  ( 2.500000000000000000, 0.000000000000000000, 0.000000000000000000 ) ) ;
#187 = FACE_OUTER_BOUND ( 'NONE', #179, .T. ) ;
#188 = CARTESIAN_POINT ( 'NONE',  ( 7.500000000000007105, 0.000000000000000000, 0.000000000000000000 ) ) ;
#189 = VECTOR ( 'NONE', #217, 1000.000000000000000 ) ;
#190 = CLOSED_SHELL ( 'NONE', ( #50, #231, #164, #185, #149, #155, #130, #267, #46, #62 ) ) ;
#191 = CARTESIAN_POINT ( 'NONE',  ( 2.500000000000000000, 0.000000000000000000, 28.44000000000000483 ) ) ;
#192 = AXIS2_PLACEMENT_3D ( 'NONE', #212, #110, #13 ) ;
#193 = FACE_OUTER_BOUND ( 'NONE', #64, .T. ) ;
#194 = VECTOR ( 'NONE', #178, 1000.000000000000000 ) ;
#195 = VECTOR ( 'NONE', #210, 1000.000000000000000 ) ;
#196 = ORIENTED_EDGE ( 'NONE', *, *, #1, .T. ) ;
#197 = LINE ( 'NONE', #284, #194 ) ;
#198 = CARTESIAN_POINT ( 'NONE',  ( 2.500000000000000000, 0.000000000000000000, 0.000000000000000000 ) ) ;
#199 = CIRCLE ( 'NONE', #19, 28.44000000000000483 ) ;
#200 = CIRCLE ( 'NONE', #158, 13.00000000000000178 ) ;
#201 = ORIENTED_EDGE ( 'NONE', *, *, #66, .F. ) ;
#202 = CARTESIAN_POINT ( 'NONE',  ( 137.9404674277816412, 3.482895496775072599E-15, -28.44000000000000483 ) ) ;
#203 = CARTESIAN_POINT ( 'NONE',  ( 137.9404674277816412, 0.000000000000000000, 0.000000000000000000 ) ) ;
#204 = CARTESIAN_POINT ( 'NONE',  ( 2.500000000000000000, 0.000000000000000000, 0.000000000000000000 ) ) ;
#205 = CARTESIAN_POINT ( 'NONE',  ( 7.500000000000007105, 0.000000000000000000, 0.000000000000000000 ) ) ;
#206 = CARTESIAN_POINT ( 'NONE',  ( 7.500000000000007105, 0.000000000000000000, -23.40000000000000213 ) ) ;
#207 = CYLINDRICAL_SURFACE ( 'NONE', #104, 13.00000000000000178 ) ;
#208 = DIRECTION ( 'NONE',  ( 1.000000000000000000, 0.000000000000000000, 0.000000000000000000 ) ) ;
#209 = AXIS2_PLACEMENT_3D ( 'NONE', #272, #148, #34 ) ;
#210 = DIRECTION ( 'NONE',  ( -1.000000000000000000, -0.000000000000000000, -0.000000000000000000 ) ) ;
#211 = LINE ( 'NONE', #14, #113 ) ;
#212 = CARTESIAN_POINT ( 'NONE',  ( 57.50000000000000000, 0.000000000000000000, 0.000000000000000000 ) ) ;
#213 = UNCERTAINTY_MEASURE_WITH_UNIT (LENGTH_MEASURE( 1.000000000000000082E-05 ), #98, 'distance_accuracy_value', 'NONE');
#214 = AXIS2_PLACEMENT_3D ( 'NONE', #277, #275, #84 ) ;
#215 = PRODUCT_RELATED_PRODUCT_CATEGORY ( 'part', '', ( #10 ) ) ;
#216 = ORIENTED_EDGE ( 'NONE', *, *, #35, .F. ) ;
#217 = DIRECTION ( 'NONE',  ( -1.000000000000000000, -0.000000000000000000, -0.000000000000000000 ) ) ;
#218 = ORIENTED_EDGE ( 'NONE', *, *, #79, .F. ) ;
#219 = CARTESIAN_POINT ( 'NONE',  ( 2.500000000000000000, 0.000000000000000000, 13.00000000000000178 ) ) ;
#220 = DIRECTION ( 'NONE',  ( 0.000000000000000000, 0.000000000000000000, -1.000000000000000000 ) ) ;
#221 = ORIENTED_EDGE ( 'NONE', *, *, #86, .F. ) ;
#222 = DIRECTION ( 'NONE',  ( 0.000000000000000000, 0.000000000000000000, -1.000000000000000000 ) ) ;
#223 = APPLICATION_PROTOCOL_DEFINITION ( 'draft international standard', 'automotive_design', 1998, #132 ) ;
#224 =( NAMED_UNIT ( * ) SI_UNIT ( $, .STERADIAN. ) SOLID_ANGLE_UNIT ( ) );
#225 = VECTOR ( 'NONE', #115, 1000.000000000000000 ) ;
#226 = COLOUR_RGB ( '',0.7921568627450980005, 0.8196078431372548767, 0.9333333333333333481 ) ;
#227 = CIRCLE ( 'NONE', #166, 23.40000000000000213 ) ;
#228 = CARTESIAN_POINT ( 'NONE',  ( 2.500000000000000000, 1.592040838891559293E-15, -13.00000000000000178 ) ) ;
#229 = CYLINDRICAL_SURFACE ( 'NONE', #280, 13.00000000000000178 ) ;
#230 = CARTESIAN_POINT ( 'NONE',  ( 2.500000000000000000, 3.482895496775072599E-15, -28.44000000000000483 ) ) ;
#231 = ADVANCED_FACE ( 'NONE', ( #193 ), #278, .T. ) ;
#232 = CARTESIAN_POINT ( 'NONE',  ( 57.50000000000000000, 2.865673510004806174E-15, 23.40000000000000213 ) ) ;
#233 = DIRECTION ( 'NONE',  ( 1.000000000000000000, -0.000000000000000000, -0.000000000000000000 ) ) ;
#234 = PRESENTATION_LAYER_ASSIGNMENT (  '', '', ( #74 ) ) ;
#235 = PRODUCT_DEFINITION_CONTEXT ( 'detailed design', #146, 'design' ) ;
#236 = VERTEX_POINT ( 'NONE', #78 ) ;
#237 = ORIENTED_EDGE ( 'NONE', *, *, #133, .T. ) ;
#238 = AXIS2_PLACEMENT_3D ( 'NONE', #188, #174, #152 ) ;
#239 = VERTEX_POINT ( 'NONE', #172 ) ;
#240 = EDGE_CURVE ( 'NONE', #163, #264, #175, .T. ) ;
#241 = EDGE_LOOP ( 'NONE', ( #3, #89 ) ) ;
#242 = ORIENTED_EDGE ( 'NONE', *, *, #4, .F. ) ;
#243 = EDGE_LOOP ( 'NONE', ( #134, #48 ) ) ;
#244 = DIRECTION ( 'NONE',  ( 1.000000000000000000, 0.000000000000000000, 0.000000000000000000 ) ) ;
#245 = DIRECTION ( 'NONE',  ( 0.000000000000000000, 0.000000000000000000, -1.000000000000000000 ) ) ;
#246 = DIRECTION ( 'NONE',  ( 0.000000000000000000, 0.000000000000000000, 1.000000000000000000 ) ) ;
#247 = CIRCLE ( 'NONE', #131, 13.00000000000000178 ) ;
#248 = CARTESIAN_POINT ( 'NONE',  ( 0.000000000000000000, 0.000000000000000000, 0.000000000000000000 ) ) ;
#249 = PRODUCT_CONTEXT ( 'NONE', #132, 'mechanical' ) ;
#250 = CIRCLE ( 'NONE', #209, 28.44000000000000483 ) ;
#251 = FACE_OUTER_BOUND ( 'NONE', #256, .T. ) ;
#252 = DIRECTION ( 'NONE',  ( 1.000000000000000000, 0.000000000000000000, 0.000000000000000000 ) ) ;
#253 = FACE_BOUND ( 'NONE', #241, .T. ) ;
#254 = DIRECTION ( 'NONE',  ( 0.000000000000000000, 0.000000000000000000, -1.000000000000000000 ) ) ;
#255 = DIRECTION ( 'NONE',  ( 1.000000000000000000, 0.000000000000000000, 0.000000000000000000 ) ) ;
#256 = EDGE_LOOP ( 'NONE', ( #67, #218, #114, #90 ) ) ;
#257 = ORIENTED_EDGE ( 'NONE', *, *, #281, .T. ) ;
#258 = AXIS2_PLACEMENT_3D ( 'NONE', #198, #285, #65 ) ;
#259 = ORIENTED_EDGE ( 'NONE', *, *, #30, .T. ) ;
#260 = AXIS2_PLACEMENT_3D ( 'NONE', #248, #165, #119 ) ;
#261 = AXIS2_PLACEMENT_3D ( 'NONE', #270, #73, #245 ) ;
#262 = EDGE_LOOP ( 'NONE', ( #159, #68 ) ) ;
#263 = EDGE_CURVE ( 'NONE', #236, #176, #211, .T. ) ;
#264 = VERTEX_POINT ( 'NONE', #191 ) ;
#265 = ORIENTED_EDGE ( 'NONE', *, *, #18, .F. ) ;
#266 = PRODUCT_DEFINITION_FORMATION_WITH_SPECIFIED_SOURCE ( 'ANY', '', #10, .NOT_KNOWN. ) ;
#267 = ADVANCED_FACE ( 'NONE', ( #76 ), #8, .F. ) ;
#268 = CARTESIAN_POINT ( 'NONE',  ( 2.500000000000000000, 1.592040838891559293E-15, -13.00000000000000178 ) ) ;
#269 = CARTESIAN_POINT ( 'NONE',  ( 2.500000000000000000, 0.000000000000000000, 0.000000000000000000 ) ) ;
#270 = CARTESIAN_POINT ( 'NONE',  ( 0.000000000000000000, 0.000000000000000000, 0.000000000000000000 ) ) ;
#271 = FILL_AREA_STYLE ('',( #5 ) ) ;
#272 = CARTESIAN_POINT ( 'NONE',  ( 57.49999999999999289, 0.000000000000000000, 0.000000000000000000 ) ) ;
#273 = PRESENTATION_STYLE_ASSIGNMENT (( #69 ) ) ;
#274 = DIRECTION ( 'NONE',  ( 0.000000000000000000, 0.000000000000000000, -1.000000000000000000 ) ) ;
#275 = DIRECTION ( 'NONE',  ( 1.000000000000000000, -0.000000000000000000, -0.000000000000000000 ) ) ;
#276 = AXIS2_PLACEMENT_3D ( 'NONE', #60, #233, #274 ) ;
#277 = CARTESIAN_POINT ( 'NONE',  ( 7.500000000000007105, 0.000000000000000000, 0.000000000000000000 ) ) ;
#278 = CYLINDRICAL_SURFACE ( 'NONE', #126, 28.44000000000000483 ) ;
#279 = AXIS2_PLACEMENT_3D ( 'NONE', #45, #118, #220 ) ;
#280 = AXIS2_PLACEMENT_3D ( 'NONE', #204, #170, #12 ) ;
#281 = EDGE_CURVE ( 'NONE', #23, #163, #250, .T. ) ;
#282 = VERTEX_POINT ( 'NONE', #168 ) ;
#283 = VERTEX_POINT ( 'NONE', #206 ) ;
#284 = CARTESIAN_POINT ( 'NONE',  ( 2.500000000000000000, 0.000000000000000000, 13.00000000000000178 ) ) ;
#285 = DIRECTION ( 'NONE',  ( 1.000000000000000000, 0.000000000000000000, 0.000000000000000000 ) ) ;
ENDSEC;
END-ISO-10303-21;
