ISO-10303-21;
HEADER;
FILE_DESCRIPTION (( 'STEP AP214' ),
    '1' );
FILE_NAME ('m2b fange.STEP',
    '2026-02-20T11:44:59',
    ( '' ),
    ( '' ),
    'SwSTEP 2.0',
    'SolidWorks 2023',
    '' );
FILE_SCHEMA (( 'AUTOMOTIVE_DESIGN' ));
ENDSEC;

DATA;
#1 = CARTESIAN_POINT ( 'NONE',  ( 2.758031949977003627, 0.000000000000000000, -17.28129797679868318 ) ) ;
#2 = VERTEX_POINT ( 'NONE', #184 ) ;
#3 = ORIENTED_EDGE ( 'NONE', *, *, #335, .T. ) ;
#4 = CARTESIAN_POINT ( 'NONE',  ( -17.28129797679864055, 0.000000000000000000, -2.758031949977160391 ) ) ;
#5 = ORIENTED_EDGE ( 'NONE', *, *, #418, .T. ) ;
#6 = CIRCLE ( 'NONE', #222, 1.999999999999999556 ) ;
#7 = EDGE_CURVE ( 'NONE', #253, #319, #539, .T. ) ;
#8 = DIRECTION ( 'NONE',  ( -0.000000000000000000, 1.000000000000000000, -0.000000000000000000 ) ) ;
#9 = ORIENTED_EDGE ( 'NONE', *, *, #10, .T. ) ;
#10 = EDGE_CURVE ( 'NONE', #771, #512, #176, .T. ) ;
#11 = ORIENTED_EDGE ( 'NONE', *, *, #277, .T. ) ;
#12 = CARTESIAN_POINT ( 'NONE',  ( -2.758031949977071129, 0.000000000000000000, 17.28129797679865121 ) ) ;
#13 = CARTESIAN_POINT ( 'NONE',  ( 1.610410540878769328E-15, 5.000000000000000000, -13.15000000000000036 ) ) ;
#14 = ORIENTED_EDGE ( 'NONE', *, *, #437, .F. ) ;
#15 = CARTESIAN_POINT ( 'NONE',  ( 0.000000000000000000, 5.000000000000000000, 0.000000000000000000 ) ) ;
#16 = LINE ( 'NONE', #755, #162 ) ;
#17 = VERTEX_POINT ( 'NONE', #777 ) ;
#18 = CARTESIAN_POINT ( 'NONE',  ( -40.99999999999999289, 0.000000000000000000, 41.00000000000000000 ) ) ;
#19 = AXIS2_PLACEMENT_3D ( 'NONE', #356, #599, #235 ) ;
#20 = EDGE_CURVE ( 'NONE', #38, #408, #724, .T. ) ;
#21 = CARTESIAN_POINT ( 'NONE',  ( 0.000000000000000000, 0.000000000000000000, 0.000000000000000000 ) ) ;
#22 = FACE_OUTER_BOUND ( 'NONE', #397, .T. ) ;
#23 = FACE_OUTER_BOUND ( 'NONE', #498, .T. ) ;
#24 = ORIENTED_EDGE ( 'NONE', *, *, #534, .F. ) ;
#25 = FACE_BOUND ( 'NONE', #569, .T. ) ;
#26 = DIRECTION ( 'NONE',  ( -0.000000000000000000, 1.000000000000000000, -0.000000000000000000 ) ) ;
#27 = DIRECTION ( 'NONE',  ( 0.000000000000000000, 0.000000000000000000, 1.000000000000000000 ) ) ;
#28 = DIRECTION ( 'NONE',  ( -0.000000000000000000, 1.000000000000000000, -0.000000000000000000 ) ) ;
#29 = VECTOR ( 'NONE', #789, 1000.000000000000000 ) ;
#30 = CARTESIAN_POINT ( 'NONE',  ( 41.00000000000000711, 5.000000000000000000, -41.00000000000000000 ) ) ;
#31 = ADVANCED_FACE ( 'NONE', ( #172 ), #361, .F. ) ;
#32 = FACE_OUTER_BOUND ( 'NONE', #782, .T. ) ;
#33 = EDGE_CURVE ( 'NONE', #592, #49, #368, .T. ) ;
#34 = CIRCLE ( 'NONE', #601, 2.000000000000001776 ) ;
#35 = AXIS2_PLACEMENT_3D ( 'NONE', #484, #429, #489 ) ;
#36 = CARTESIAN_POINT ( 'NONE',  ( -40.99999999999999289, 5.000000000000000000, -41.00000000000000000 ) ) ;
#37 = CARTESIAN_POINT ( 'NONE',  ( 17.28129797679870094, 5.000000000000000000, 2.758031949977032049 ) ) ;
#38 = VERTEX_POINT ( 'NONE', #714 ) ;
#39 = ADVANCED_FACE ( 'NONE', ( #299 ), #111, .F. ) ;
#40 = DIRECTION ( 'NONE',  ( 0.000000000000000000, 0.000000000000000000, 1.000000000000000000 ) ) ;
#41 = CARTESIAN_POINT ( 'NONE',  ( 0.000000000000000000, 0.000000000000000000, -65.00000000000000000 ) ) ;
#42 = ORIENTED_EDGE ( 'NONE', *, *, #665, .T. ) ;
#43 = COLOUR_RGB ( '',0.7921568627450980005, 0.8196078431372548767, 0.9333333333333333481 ) ;
#44 = CIRCLE ( 'NONE', #634, 1.999999999999999556 ) ;
#45 = DIRECTION ( 'NONE',  ( 0.000000000000000000, 0.000000000000000000, 1.000000000000000000 ) ) ;
#46 = ADVANCED_FACE ( 'NONE', ( #480 ), #179, .F. ) ;
#47 = ORIENTED_EDGE ( 'NONE', *, *, #318, .T. ) ;
#48 = CARTESIAN_POINT ( 'NONE',  ( 2.758031949977003627, 0.000000000000000000, -17.28129797679868318 ) ) ;
#49 = VERTEX_POINT ( 'NONE', #51 ) ;
#50 = CIRCLE ( 'NONE', #436, 2.000000000000001776 ) ;
#51 = CARTESIAN_POINT ( 'NONE',  ( -2.758031949977071129, 0.000000000000000000, 19.28129797679865121 ) ) ;
#52 = DIRECTION ( 'NONE',  ( 0.000000000000000000, 0.000000000000000000, 1.000000000000000000 ) ) ;
#53 = DIRECTION ( 'NONE',  ( 0.000000000000000000, 1.000000000000000000, 0.000000000000000000 ) ) ;
#54 = VECTOR ( 'NONE', #26, 1000.000000000000000 ) ;
#55 = DIRECTION ( 'NONE',  ( -0.000000000000000000, 1.000000000000000000, -0.000000000000000000 ) ) ;
#56 = ORIENTED_EDGE ( 'NONE', *, *, #549, .F. ) ;
#57 = VERTEX_POINT ( 'NONE', #243 ) ;
#58 = CIRCLE ( 'NONE', #787, 2.000000000000001776 ) ;
#59 = CYLINDRICAL_SURFACE ( 'NONE', #95, 2.000000000000003553 ) ;
#60 = ORIENTED_EDGE ( 'NONE', *, *, #452, .F. ) ;
#61 = ORIENTED_EDGE ( 'NONE', *, *, #119, .F. ) ;
#62 = FACE_OUTER_BOUND ( 'NONE', #143, .T. ) ;
#63 = EDGE_CURVE ( 'NONE', #122, #553, #84, .T. ) ;
#64 = ORIENTED_EDGE ( 'NONE', *, *, #119, .T. ) ;
#65 = EDGE_CURVE ( 'NONE', #322, #240, #571, .T. ) ;
#66 = DIRECTION ( 'NONE',  ( -0.000000000000000000, 1.000000000000000000, -0.000000000000000000 ) ) ;
#67 = ORIENTED_EDGE ( 'NONE', *, *, #20, .F. ) ;
#68 = CIRCLE ( 'NONE', #380, 65.00000000000000000 ) ;
#69 = VECTOR ( 'NONE', #547, 1000.000000000000000 ) ;
#70 = VERTEX_POINT ( 'NONE', #576 ) ;
#71 = DIRECTION ( 'NONE',  ( -0.000000000000000000, 1.000000000000000000, -0.000000000000000000 ) ) ;
#72 = CARTESIAN_POINT ( 'NONE',  ( 2.758031949977003627, 0.000000000000000000, -17.28129797679868318 ) ) ;
#73 = ORIENTED_EDGE ( 'NONE', *, *, #526, .F. ) ;
#74 = CARTESIAN_POINT ( 'NONE',  ( 41.00000000000000711, 0.000000000000000000, 41.00000000000000000 ) ) ;
#75 = LINE ( 'NONE', #325, #29 ) ;
#76 = ORIENTED_EDGE ( 'NONE', *, *, #610, .T. ) ;
#77 = CIRCLE ( 'NONE', #532, 2.000000000000001776 ) ;
#78 = CYLINDRICAL_SURFACE ( 'NONE', #523, 2.000000000000003553 ) ;
#79 = DIRECTION ( 'NONE',  ( 0.000000000000000000, 0.000000000000000000, 1.000000000000000000 ) ) ;
#80 = CARTESIAN_POINT ( 'NONE',  ( -2.758031949977071129, 5.000000000000000000, 17.28129797679865121 ) ) ;
#81 = CARTESIAN_POINT ( 'NONE',  ( -17.28129797679864055, 5.000000000000000000, -2.758031949977160391 ) ) ;
#82 = EDGE_LOOP ( 'NONE', ( #550, #491, #126, #504 ) ) ;
#83 = FACE_OUTER_BOUND ( 'NONE', #107, .T. ) ;
#84 = CIRCLE ( 'NONE', #535, 13.15000000000000036 ) ;
#85 = DIRECTION ( 'NONE',  ( 0.000000000000000000, 0.000000000000000000, 1.000000000000000000 ) ) ;
#86 = CARTESIAN_POINT ( 'NONE',  ( -2.758031949977070685, 5.000000000000000000, 15.28129797679864765 ) ) ;
#87 = DIRECTION ( 'NONE',  ( 0.000000000000000000, 1.000000000000000000, 0.000000000000000000 ) ) ;
#88 = ORIENTED_EDGE ( 'NONE', *, *, #376, .F. ) ;
#89 = VECTOR ( 'NONE', #8, 1000.000000000000000 ) ;
#90 = EDGE_CURVE ( 'NONE', #561, #661, #701, .T. ) ;
#91 = DIRECTION ( 'NONE',  ( -0.000000000000000000, 1.000000000000000000, -0.000000000000000000 ) ) ;
#92 = EDGE_CURVE ( 'NONE', #365, #187, #485, .T. ) ;
#93 = LINE ( 'NONE', #531, #196 ) ;
#94 = DIRECTION ( 'NONE',  ( 0.000000000000000000, 1.000000000000000000, 0.000000000000000000 ) ) ;
#95 = AXIS2_PLACEMENT_3D ( 'NONE', #735, #443, #684 ) ;
#96 = CIRCLE ( 'NONE', #406, 13.15000000000000036 ) ;
#97 = ADVANCED_FACE ( 'NONE', ( #632 ), #78, .F. ) ;
#98 = PRODUCT_DEFINITION_SHAPE ( 'NONE', 'NONE',  #317 ) ;
#99 = DIRECTION ( 'NONE',  ( 0.000000000000000000, 0.000000000000000000, 1.000000000000000000 ) ) ;
#100 = DIRECTION ( 'NONE',  ( 0.000000000000000000, 1.000000000000000000, 0.000000000000000000 ) ) ;
#101 = DIRECTION ( 'NONE',  ( 1.000000000000000000, 0.000000000000000000, 0.000000000000000000 ) ) ;
#102 = EDGE_CURVE ( 'NONE', #261, #527, #687, .T. ) ;
#103 = ORIENTED_EDGE ( 'NONE', *, *, #418, .F. ) ;
#104 = CIRCLE ( 'NONE', #206, 2.000000000000001776 ) ;
#105 = CARTESIAN_POINT ( 'NONE',  ( 2.758031949977003627, 0.000000000000000000, -15.28129797679868318 ) ) ;
#106 = DIRECTION ( 'NONE',  ( 0.000000000000000000, 0.000000000000000000, 1.000000000000000000 ) ) ;
#107 = EDGE_LOOP ( 'NONE', ( #742, #562, #558, #208 ) ) ;
#108 = CARTESIAN_POINT ( 'NONE',  ( 7.960204194457797252E-15, 0.000000000000000000, 65.00000000000000000 ) ) ;
#109 = APPLICATION_PROTOCOL_DEFINITION ( 'draft international standard', 'automotive_design', 1998, #175 ) ;
#110 = EDGE_CURVE ( 'NONE', #187, #38, #450, .T. ) ;
#111 = CYLINDRICAL_SURFACE ( 'NONE', #19, 13.15000000000000036 ) ;
#112 = AXIS2_PLACEMENT_3D ( 'NONE', #464, #521, #410 ) ;
#113 = ORIENTED_EDGE ( 'NONE', *, *, #522, .T. ) ;
#114 = AXIS2_PLACEMENT_3D ( 'NONE', #405, #402, #653 ) ;
#115 = ORIENTED_EDGE ( 'NONE', *, *, #779, .F. ) ;
#116 = FILL_AREA_STYLE ('',( #302 ) ) ;
#117 = CIRCLE ( 'NONE', #776, 2.000000000000003553 ) ;
#118 = CARTESIAN_POINT ( 'NONE',  ( 0.000000000000000000, 0.000000000000000000, 0.000000000000000000 ) ) ;
#119 = EDGE_CURVE ( 'NONE', #365, #408, #629, .T. ) ;
#120 = DIRECTION ( 'NONE',  ( 0.000000000000000000, 1.000000000000000000, 0.000000000000000000 ) ) ;
#121 = ORIENTED_EDGE ( 'NONE', *, *, #720, .F. ) ;
#122 = VERTEX_POINT ( 'NONE', #378 ) ;
#123 = ORIENTED_EDGE ( 'NONE', *, *, #579, .T. ) ;
#124 =( GEOMETRIC_REPRESENTATION_CONTEXT ( 3 ) GLOBAL_UNCERTAINTY_ASSIGNED_CONTEXT ( ( #383 ) ) GLOBAL_UNIT_ASSIGNED_CONTEXT ( ( #290, #145, #584 ) ) REPRESENTATION_CONTEXT ( 'NONE', 'WORKASPACE' ) );
#125 = CARTESIAN_POINT ( 'NONE',  ( 17.28129797679870094, 0.000000000000000000, 2.758031949977032049 ) ) ;
#126 = ORIENTED_EDGE ( 'NONE', *, *, #278, .T. ) ;
#127 = ORIENTED_EDGE ( 'NONE', *, *, #102, .T. ) ;
#128 = CIRCLE ( 'NONE', #645, 2.000000000000001776 ) ;
#129 = LINE ( 'NONE', #372, #583 ) ;
#130 = VERTEX_POINT ( 'NONE', #570 ) ;
#131 = AXIS2_PLACEMENT_3D ( 'NONE', #404, #648, #99 ) ;
#132 = ADVANCED_FACE ( 'NONE', ( #83 ), #446, .F. ) ;
#133 = ADVANCED_FACE ( 'NONE', ( #513, #754, #197, #567, #334, #441, #209, #323, #25, #454 ), #693, .T. ) ;
#134 = CARTESIAN_POINT ( 'NONE',  ( -40.99999999999999289, 5.000000000000000000, -41.00000000000000000 ) ) ;
#135 = EDGE_LOOP ( 'NONE', ( #495, #657, #297, #56 ) ) ;
#136 = CIRCLE ( 'NONE', #783, 2.000000000000001776 ) ;
#137 = CARTESIAN_POINT ( 'NONE',  ( 17.28129797679870094, 0.000000000000000000, 2.758031949977032049 ) ) ;
#138 = DIRECTION ( 'NONE',  ( 0.000000000000000000, 0.000000000000000000, 1.000000000000000000 ) ) ;
#139 = AXIS2_PLACEMENT_3D ( 'NONE', #147, #274, #205 ) ;
#140 = EDGE_LOOP ( 'NONE', ( #246, #229, #304, #286 ) ) ;
#141 = DIRECTION ( 'NONE',  ( 0.000000000000000000, 0.000000000000000000, 1.000000000000000000 ) ) ;
#142 = DIRECTION ( 'NONE',  ( 0.000000000000000000, 1.000000000000000000, 0.000000000000000000 ) ) ;
#143 = EDGE_LOOP ( 'NONE', ( #686, #64, #749, #370 ) ) ;
#144 = DIRECTION ( 'NONE',  ( 0.000000000000000000, 0.000000000000000000, 1.000000000000000000 ) ) ;
#145 =( NAMED_UNIT ( * ) PLANE_ANGLE_UNIT ( ) SI_UNIT ( $, .RADIAN. ) );
#146 = ORIENTED_EDGE ( 'NONE', *, *, #437, .T. ) ;
#147 = CARTESIAN_POINT ( 'NONE',  ( -17.28129797679864055, 0.000000000000000000, -2.758031949977160391 ) ) ;
#148 = AXIS2_PLACEMENT_3D ( 'NONE', #467, #100, #590 ) ;
#149 = FACE_BOUND ( 'NONE', #268, .T. ) ;
#150 = DIRECTION ( 'NONE',  ( 0.000000000000000000, 1.000000000000000000, 0.000000000000000000 ) ) ;
#151 = CARTESIAN_POINT ( 'NONE',  ( 41.00000000000000711, 0.000000000000000000, -41.00000000000000000 ) ) ;
#152 = ORIENTED_EDGE ( 'NONE', *, *, #756, .T. ) ;
#153 = CIRCLE ( 'NONE', #139, 1.999999999999999556 ) ;
#154 = EDGE_CURVE ( 'NONE', #661, #561, #153, .T. ) ;
#155 = CARTESIAN_POINT ( 'NONE',  ( 2.758031949977003627, 0.000000000000000000, -15.28129797679868318 ) ) ;
#156 = DIRECTION ( 'NONE',  ( -0.000000000000000000, 1.000000000000000000, -0.000000000000000000 ) ) ;
#157 = CIRCLE ( 'NONE', #501, 2.000000000000001776 ) ;
#158 = ADVANCED_FACE ( 'NONE', ( #518 ), #214, .F. ) ;
#159 = FACE_OUTER_BOUND ( 'NONE', #435, .T. ) ;
#160 = DIRECTION ( 'NONE',  ( -0.000000000000000000, 1.000000000000000000, -0.000000000000000000 ) ) ;
#161 = ORIENTED_EDGE ( 'NONE', *, *, #685, .F. ) ;
#162 = VECTOR ( 'NONE', #91, 1000.000000000000000 ) ;
#163 = PRODUCT ( 'm2b fange', 'm2b fange', '', ( #414 ) ) ;
#164 = DIRECTION ( 'NONE',  ( -0.000000000000000000, 1.000000000000000000, -0.000000000000000000 ) ) ;
#165 = DIRECTION ( 'NONE',  ( 0.000000000000000000, 0.000000000000000000, 1.000000000000000000 ) ) ;
#166 = DIRECTION ( 'NONE',  ( 0.000000000000000000, 0.000000000000000000, 1.000000000000000000 ) ) ;
#167 = EDGE_LOOP ( 'NONE', ( #488, #612, #642, #237 ) ) ;
#168 = AXIS2_PLACEMENT_3D ( 'NONE', #697, #593, #40 ) ;
#169 = DIRECTION ( 'NONE',  ( 0.000000000000000000, 1.000000000000000000, 0.000000000000000000 ) ) ;
#170 = EDGE_CURVE ( 'NONE', #253, #771, #68, .T. ) ;
#171 = FACE_BOUND ( 'NONE', #708, .T. ) ;
#172 = FACE_OUTER_BOUND ( 'NONE', #623, .T. ) ;
#173 = DIRECTION ( 'NONE',  ( 0.000000000000000000, 0.000000000000000000, 1.000000000000000000 ) ) ;
#174 = ORIENTED_EDGE ( 'NONE', *, *, #110, .T. ) ;
#175 = APPLICATION_CONTEXT ( 'automotive_design' ) ;
#176 = LINE ( 'NONE', #544, #382 ) ;
#177 = CYLINDRICAL_SURFACE ( 'NONE', #428, 2.000000000000001776 ) ;
#178 = PRODUCT_RELATED_PRODUCT_CATEGORY ( 'part', '', ( #163 ) ) ;
#179 = CYLINDRICAL_SURFACE ( 'NONE', #476, 13.15000000000000036 ) ;
#180 = EDGE_CURVE ( 'NONE', #49, #592, #34, .T. ) ;
#181 = CARTESIAN_POINT ( 'NONE',  ( -40.99999999999999289, 0.000000000000000000, -41.00000000000000000 ) ) ;
#182 = ORIENTED_EDGE ( 'NONE', *, *, #300, .T. ) ;
#183 = VERTEX_POINT ( 'NONE', #574 ) ;
#184 = CARTESIAN_POINT ( 'NONE',  ( 17.28129797679870094, 5.000000000000000000, 0.7580319499770290514 ) ) ;
#185 = CIRCLE ( 'NONE', #148, 2.000000000000001776 ) ;
#186 = CYLINDRICAL_SURFACE ( 'NONE', #399, 2.000000000000001776 ) ;
#187 = VERTEX_POINT ( 'NONE', #707 ) ;
#188 = ORIENTED_EDGE ( 'NONE', *, *, #307, .F. ) ;
#189 = CYLINDRICAL_SURFACE ( 'NONE', #346, 2.000000000000001776 ) ;
#190 = ORIENTED_EDGE ( 'NONE', *, *, #65, .T. ) ;
#191 = ORIENTED_EDGE ( 'NONE', *, *, #392, .T. ) ;
#192 = EDGE_CURVE ( 'NONE', #660, #2, #227, .T. ) ;
#193 = CIRCLE ( 'NONE', #705, 2.000000000000001776 ) ;
#194 = FACE_OUTER_BOUND ( 'NONE', #140, .T. ) ;
#195 = ORIENTED_EDGE ( 'NONE', *, *, #499, .F. ) ;
#196 = VECTOR ( 'NONE', #757, 1000.000000000000000 ) ;
#197 = FACE_BOUND ( 'NONE', #759, .T. ) ;
#198 = FACE_OUTER_BOUND ( 'NONE', #213, .T. ) ;
#199 = EDGE_LOOP ( 'NONE', ( #730, #575, #637, #113 ) ) ;
#200 = AXIS2_PLACEMENT_3D ( 'NONE', #455, #695, #210 ) ;
#201 = EDGE_LOOP ( 'NONE', ( #67, #195 ) ) ;
#202 = DIRECTION ( 'NONE',  ( 0.000000000000000000, 1.000000000000000000, 0.000000000000000000 ) ) ;
#203 = DIRECTION ( 'NONE',  ( 0.000000000000000000, 1.000000000000000000, 0.000000000000000000 ) ) ;
#204 = VERTEX_POINT ( 'NONE', #212 ) ;
#205 = DIRECTION ( 'NONE',  ( 0.000000000000000000, 0.000000000000000000, 1.000000000000000000 ) ) ;
#206 = AXIS2_PLACEMENT_3D ( 'NONE', #36, #219, #27 ) ;
#207 = CARTESIAN_POINT ( 'NONE',  ( 2.758031949977004071, 0.000000000000000000, -19.28129797679868673 ) ) ;
#208 = ORIENTED_EDGE ( 'NONE', *, *, #102, .F. ) ;
#209 = FACE_BOUND ( 'NONE', #249, .T. ) ;
#210 = DIRECTION ( 'NONE',  ( 0.000000000000000000, 0.000000000000000000, 1.000000000000000000 ) ) ;
#211 = CARTESIAN_POINT ( 'NONE',  ( -40.99999999999999289, 0.000000000000000000, 39.00000000000000000 ) ) ;
#212 = CARTESIAN_POINT ( 'NONE',  ( 17.28129797679870094, 5.000000000000000000, 4.758031949977035602 ) ) ;
#213 = EDGE_LOOP ( 'NONE', ( #431, #384, #603, #182 ) ) ;
#214 = CYLINDRICAL_SURFACE ( 'NONE', #723, 2.000000000000001776 ) ;
#215 = ADVANCED_FACE ( 'NONE', ( #220 ), #525, .T. ) ;
#216 = EDGE_LOOP ( 'NONE', ( #11, #190 ) ) ;
#217 = CIRCLE ( 'NONE', #355, 2.000000000000003553 ) ;
#218 = DIRECTION ( 'NONE',  ( 0.000000000000000000, -0.000000000000000000, 1.000000000000000000 ) ) ;
#219 = DIRECTION ( 'NONE',  ( 0.000000000000000000, 1.000000000000000000, 0.000000000000000000 ) ) ;
#220 = FACE_OUTER_BOUND ( 'NONE', #753, .T. ) ;
#221 = EDGE_CURVE ( 'NONE', #310, #265, #6, .T. ) ;
#222 = AXIS2_PLACEMENT_3D ( 'NONE', #81, #282, #224 ) ;
#223 = DIRECTION ( 'NONE',  ( 0.000000000000000000, 0.000000000000000000, 1.000000000000000000 ) ) ;
#224 = DIRECTION ( 'NONE',  ( 0.000000000000000000, 0.000000000000000000, 1.000000000000000000 ) ) ;
#225 = ORIENTED_EDGE ( 'NONE', *, *, #10, .F. ) ;
#226 = DIRECTION ( 'NONE',  ( 0.000000000000000000, 0.000000000000000000, 1.000000000000000000 ) ) ;
#227 = LINE ( 'NONE', #471, #256 ) ;
#228 = CARTESIAN_POINT ( 'NONE',  ( 0.000000000000000000, 0.000000000000000000, 0.000000000000000000 ) ) ;
#229 = ORIENTED_EDGE ( 'NONE', *, *, #779, .T. ) ;
#230 = LINE ( 'NONE', #475, #577 ) ;
#231 = DIRECTION ( 'NONE',  ( 0.000000000000000000, 1.000000000000000000, 0.000000000000000000 ) ) ;
#232 = AXIS2_PLACEMENT_3D ( 'NONE', #785, #487, #144 ) ;
#233 = DIRECTION ( 'NONE',  ( -0.000000000000000000, 1.000000000000000000, -0.000000000000000000 ) ) ;
#234 = AXIS2_PLACEMENT_3D ( 'NONE', #80, #706, #586 ) ;
#235 = DIRECTION ( 'NONE',  ( 0.000000000000000000, 0.000000000000000000, 1.000000000000000000 ) ) ;
#236 = DIRECTION ( 'NONE',  ( 0.000000000000000000, 0.000000000000000000, 1.000000000000000000 ) ) ;
#237 = ORIENTED_EDGE ( 'NONE', *, *, #717, .F. ) ;
#238 = ADVANCED_FACE ( 'NONE', ( #23 ), #457, .F. ) ;
#239 = VECTOR ( 'NONE', #386, 1000.000000000000000 ) ;
#240 = VERTEX_POINT ( 'NONE', #272 ) ;
#241 = AXIS2_PLACEMENT_3D ( 'NONE', #228, #166, #101 ) ;
#242 = EDGE_CURVE ( 'NONE', #265, #310, #44, .T. ) ;
#243 = CARTESIAN_POINT ( 'NONE',  ( -2.758031949977071129, 5.000000000000000000, 19.28129797679865121 ) ) ;
#244 = DIRECTION ( 'NONE',  ( 0.000000000000000000, 0.000000000000000000, 1.000000000000000000 ) ) ;
#245 = ORIENTED_EDGE ( 'NONE', *, *, #180, .T. ) ;
#246 = ORIENTED_EDGE ( 'NONE', *, *, #665, .F. ) ;
#247 = CYLINDRICAL_SURFACE ( 'NONE', #374, 2.000000000000001776 ) ;
#248 = ORIENTED_EDGE ( 'NONE', *, *, #357, .F. ) ;
#249 = EDGE_LOOP ( 'NONE', ( #615, #373 ) ) ;
#250 = EDGE_CURVE ( 'NONE', #359, #312, #533, .T. ) ;
#251 = AXIS2_PLACEMENT_3D ( 'NONE', #151, #87, #650 ) ;
#252 = DIRECTION ( 'NONE',  ( 0.000000000000000000, 1.000000000000000000, 0.000000000000000000 ) ) ;
#253 = VERTEX_POINT ( 'NONE', #766 ) ;
#254 = VERTEX_POINT ( 'NONE', #396 ) ;
#255 = VECTOR ( 'NONE', #773, 1000.000000000000000 ) ;
#256 = VECTOR ( 'NONE', #156, 1000.000000000000000 ) ;
#257 = CARTESIAN_POINT ( 'NONE',  ( 41.00000000000000711, 5.000000000000000000, 41.00000000000000000 ) ) ;
#258 = ORIENTED_EDGE ( 'NONE', *, *, #170, .T. ) ;
#259 = PRESENTATION_LAYER_ASSIGNMENT (  '', '', ( #679 ) ) ;
#260 = LINE ( 'NONE', #681, #737 ) ;
#261 = VERTEX_POINT ( 'NONE', #647 ) ;
#262 = ORIENTED_EDGE ( 'NONE', *, *, #745, .F. ) ;
#263 = DIRECTION ( 'NONE',  ( 0.000000000000000000, 1.000000000000000000, 0.000000000000000000 ) ) ;
#264 = FACE_OUTER_BOUND ( 'NONE', #419, .T. ) ;
#265 = VERTEX_POINT ( 'NONE', #347 ) ;
#266 = CARTESIAN_POINT ( 'NONE',  ( -40.99999999999999289, 0.000000000000000000, 39.00000000000000000 ) ) ;
#267 = FACE_BOUND ( 'NONE', #449, .T. ) ;
#268 = EDGE_LOOP ( 'NONE', ( #761, #316 ) ) ;
#269 = DIRECTION ( 'NONE',  ( 0.000000000000000000, 0.000000000000000000, 1.000000000000000000 ) ) ;
#270 = CARTESIAN_POINT ( 'NONE',  ( 41.00000000000000711, 0.000000000000000000, -41.00000000000000000 ) ) ;
#271 = CYLINDRICAL_SURFACE ( 'NONE', #511, 2.000000000000001776 ) ;
#272 = CARTESIAN_POINT ( 'NONE',  ( -40.99999999999999289, 0.000000000000000000, -39.00000000000000000 ) ) ;
#273 = ORIENTED_EDGE ( 'NONE', *, *, #154, .F. ) ;
#274 = DIRECTION ( 'NONE',  ( 0.000000000000000000, 1.000000000000000000, 0.000000000000000000 ) ) ;
#275 = EDGE_LOOP ( 'NONE', ( #736, #76, #619, #492 ) ) ;
#276 = FACE_OUTER_BOUND ( 'NONE', #82, .T. ) ;
#277 = EDGE_CURVE ( 'NONE', #240, #322, #185, .T. ) ;
#278 = EDGE_CURVE ( 'NONE', #49, #57, #529, .T. ) ;
#279 = CARTESIAN_POINT ( 'NONE',  ( 41.00000000000000711, 5.000000000000000000, -43.00000000000000000 ) ) ;
#280 = DIRECTION ( 'NONE',  ( 0.000000000000000000, 0.000000000000000000, 1.000000000000000000 ) ) ;
#281 = CARTESIAN_POINT ( 'NONE',  ( 0.000000000000000000, 0.000000000000000000, 0.000000000000000000 ) ) ;
#282 = DIRECTION ( 'NONE',  ( 0.000000000000000000, 1.000000000000000000, 0.000000000000000000 ) ) ;
#283 = ORIENTED_EDGE ( 'NONE', *, *, #242, .T. ) ;
#284 = CYLINDRICAL_SURFACE ( 'NONE', #131, 2.000000000000001776 ) ;
#285 = DIRECTION ( 'NONE',  ( -0.000000000000000000, 1.000000000000000000, -0.000000000000000000 ) ) ;
#286 = ORIENTED_EDGE ( 'NONE', *, *, #335, .F. ) ;
#287 = CARTESIAN_POINT ( 'NONE',  ( 0.000000000000000000, 5.000000000000000000, 13.15000000000000036 ) ) ;
#288 = AXIS2_PLACEMENT_3D ( 'NONE', #604, #719, #173 ) ;
#289 = VECTOR ( 'NONE', #160, 1000.000000000000000 ) ;
#290 =( LENGTH_UNIT ( ) NAMED_UNIT ( * ) SI_UNIT ( .MILLI., .METRE. ) );
#291 = EDGE_LOOP ( 'NONE', ( #788, #566, #350, #781 ) ) ;
#292 =( LENGTH_UNIT ( ) NAMED_UNIT ( * ) SI_UNIT ( .MILLI., .METRE. ) );
#293 = DIRECTION ( 'NONE',  ( -0.000000000000000000, -1.000000000000000000, -0.000000000000000000 ) ) ;
#294 = FACE_OUTER_BOUND ( 'NONE', #621, .T. ) ;
#295 = ADVANCED_FACE ( 'NONE', ( #641 ), #349, .F. ) ;
#296 = CIRCLE ( 'NONE', #605, 2.000000000000001776 ) ;
#297 = ORIENTED_EDGE ( 'NONE', *, *, #745, .T. ) ;
#298 = AXIS2_PLACEMENT_3D ( 'NONE', #424, #481, #600 ) ;
#299 = FACE_OUTER_BOUND ( 'NONE', #199, .T. ) ;
#300 = EDGE_CURVE ( 'NONE', #204, #2, #390, .T. ) ;
#301 = DIRECTION ( 'NONE',  ( 0.000000000000000000, 1.000000000000000000, 0.000000000000000000 ) ) ;
#302 = FILL_AREA_STYLE_COLOUR ( '', #43 ) ;
#303 = CARTESIAN_POINT ( 'NONE',  ( 0.000000000000000000, 5.000000000000000000, -65.00000000000000000 ) ) ;
#304 = ORIENTED_EDGE ( 'NONE', *, *, #644, .T. ) ;
#305 = ORIENTED_EDGE ( 'NONE', *, *, #579, .F. ) ;
#306 = AXIS2_PLACEMENT_3D ( 'NONE', #281, #150, #351 ) ;
#307 = EDGE_CURVE ( 'NONE', #254, #527, #556, .T. ) ;
#308 = DIRECTION ( 'NONE',  ( 0.000000000000000000, 0.000000000000000000, 1.000000000000000000 ) ) ;
#309 = ORIENTED_EDGE ( 'NONE', *, *, #452, .T. ) ;
#310 = VERTEX_POINT ( 'NONE', #352 ) ;
#311 = CARTESIAN_POINT ( 'NONE',  ( 2.758031949977003627, 5.000000000000000000, -17.28129797679868318 ) ) ;
#312 = VERTEX_POINT ( 'NONE', #764 ) ;
#313 = CIRCLE ( 'NONE', #762, 2.000000000000001776 ) ;
#314 = VECTOR ( 'NONE', #385, 1000.000000000000000 ) ;
#315 = CARTESIAN_POINT ( 'NONE',  ( -2.758031949977070685, 0.000000000000000000, 15.28129797679864765 ) ) ;
#316 = ORIENTED_EDGE ( 'NONE', *, *, #92, .T. ) ;
#317 = PRODUCT_DEFINITION ( 'UNKNOWN', '', #407, #622 ) ;
#318 = EDGE_CURVE ( 'NONE', #183, #660, #217, .T. ) ;
#319 = VERTEX_POINT ( 'NONE', #41 ) ;
#320 = DIRECTION ( 'NONE',  ( 0.000000000000000000, 1.000000000000000000, 0.000000000000000000 ) ) ;
#321 = DIRECTION ( 'NONE',  ( 0.000000000000000000, 0.000000000000000000, 1.000000000000000000 ) ) ;
#322 = VERTEX_POINT ( 'NONE', #332 ) ;
#323 = FACE_BOUND ( 'NONE', #733, .T. ) ;
#324 = ADVANCED_FACE ( 'NONE', ( #32 ), #536, .T. ) ;
#325 = CARTESIAN_POINT ( 'NONE',  ( -17.28129797679864055, 0.000000000000000000, -4.758031949977160835 ) ) ;
#326 = CIRCLE ( 'NONE', #633, 13.15000000000000036 ) ;
#327 = ORIENTED_EDGE ( 'NONE', *, *, #411, .F. ) ;
#328 = DIRECTION ( 'NONE',  ( -0.000000000000000000, 1.000000000000000000, -0.000000000000000000 ) ) ;
#329 = CARTESIAN_POINT ( 'NONE',  ( 2.758031949977003627, 5.000000000000000000, -17.28129797679868318 ) ) ;
#330 = CARTESIAN_POINT ( 'NONE',  ( 41.00000000000000711, 0.000000000000000000, -41.00000000000000000 ) ) ;
#331 = AXIS2_PLACEMENT_3D ( 'NONE', #727, #301, #721 ) ;
#332 = CARTESIAN_POINT ( 'NONE',  ( -40.99999999999999289, 0.000000000000000000, -43.00000000000000000 ) ) ;
#333 = VERTEX_POINT ( 'NONE', #86 ) ;
#334 = FACE_BOUND ( 'NONE', #668, .T. ) ;
#335 = EDGE_CURVE ( 'NONE', #353, #17, #703, .T. ) ;
#336 = FACE_BOUND ( 'NONE', #689, .T. ) ;
#337 = MECHANICAL_DESIGN_GEOMETRIC_PRESENTATION_REPRESENTATION (  '', ( #679 ), #362 ) ;
#338 = DIRECTION ( 'NONE',  ( 0.000000000000000000, 0.000000000000000000, 1.000000000000000000 ) ) ;
#339 = CIRCLE ( 'NONE', #298, 2.000000000000001776 ) ;
#340 = CARTESIAN_POINT ( 'NONE',  ( -2.758031949977071129, 0.000000000000000000, 19.28129797679865121 ) ) ;
#341 = UNCERTAINTY_MEASURE_WITH_UNIT (LENGTH_MEASURE( 1.000000000000000082E-05 ), #292, 'distance_accuracy_value', 'NONE');
#342 = VERTEX_POINT ( 'NONE', #279 ) ;
#343 = APPLICATION_CONTEXT ( 'automotive_design' ) ;
#344 = DIRECTION ( 'NONE',  ( -0.000000000000000000, 1.000000000000000000, -0.000000000000000000 ) ) ;
#345 = LINE ( 'NONE', #470, #598 ) ;
#346 = AXIS2_PLACEMENT_3D ( 'NONE', #72, #433, #138 ) ;
#347 = CARTESIAN_POINT ( 'NONE',  ( -17.28129797679864055, 5.000000000000000000, -0.7580319499771609459 ) ) ;
#348 = CARTESIAN_POINT ( 'NONE',  ( 0.000000000000000000, 5.000000000000000000, 0.000000000000000000 ) ) ;
#349 = CYLINDRICAL_SURFACE ( 'NONE', #597, 2.000000000000001776 ) ;
#350 = ORIENTED_EDGE ( 'NONE', *, *, #534, .T. ) ;
#351 = DIRECTION ( 'NONE',  ( 0.000000000000000000, 0.000000000000000000, 1.000000000000000000 ) ) ;
#352 = CARTESIAN_POINT ( 'NONE',  ( -17.28129797679864055, 5.000000000000000000, -4.758031949977160835 ) ) ;
#353 = VERTEX_POINT ( 'NONE', #105 ) ;
#354 = PRESENTATION_STYLE_ASSIGNMENT (( #786 ) ) ;
#355 = AXIS2_PLACEMENT_3D ( 'NONE', #594, #94, #587 ) ;
#356 = CARTESIAN_POINT ( 'NONE',  ( 0.000000000000000000, 0.000000000000000000, 0.000000000000000000 ) ) ;
#357 = EDGE_CURVE ( 'NONE', #261, #130, #313, .T. ) ;
#358 = LINE ( 'NONE', #658, #389 ) ;
#359 = VERTEX_POINT ( 'NONE', #519 ) ;
#360 = EDGE_CURVE ( 'NONE', #183, #204, #345, .T. ) ;
#361 = CYLINDRICAL_SURFACE ( 'NONE', #676, 2.000000000000001776 ) ;
#362 =( GEOMETRIC_REPRESENTATION_CONTEXT ( 3 ) GLOBAL_UNCERTAINTY_ASSIGNED_CONTEXT ( ( #341 ) ) GLOBAL_UNIT_ASSIGNED_CONTEXT ( ( #292, #540, #784 ) ) REPRESENTATION_CONTEXT ( 'NONE', 'WORKASPACE' ) );
#363 = DIRECTION ( 'NONE',  ( 0.000000000000000000, 1.000000000000000000, 0.000000000000000000 ) ) ;
#364 = CARTESIAN_POINT ( 'NONE',  ( 41.00000000000000711, 5.000000000000000000, 43.00000000000000000 ) ) ;
#365 = VERTEX_POINT ( 'NONE', #211 ) ;
#366 = ORIENTED_EDGE ( 'NONE', *, *, #717, .T. ) ;
#367 = ORIENTED_EDGE ( 'NONE', *, *, #7, .F. ) ;
#368 = CIRCLE ( 'NONE', #331, 2.000000000000001776 ) ;
#369 = DIRECTION ( 'NONE',  ( 0.000000000000000000, 0.000000000000000000, 1.000000000000000000 ) ) ;
#370 = ORIENTED_EDGE ( 'NONE', *, *, #110, .F. ) ;
#371 = ORIENTED_EDGE ( 'NONE', *, *, #442, .F. ) ;
#372 = CARTESIAN_POINT ( 'NONE',  ( 41.00000000000000711, 0.000000000000000000, 39.00000000000000000 ) ) ;
#373 = ORIENTED_EDGE ( 'NONE', *, *, #644, .F. ) ;
#374 = AXIS2_PLACEMENT_3D ( 'NONE', #439, #565, #490 ) ;
#375 = LINE ( 'NONE', #381, #89 ) ;
#376 = EDGE_CURVE ( 'NONE', #359, #342, #709, .T. ) ;
#377 = ORIENTED_EDGE ( 'NONE', *, *, #541, .T. ) ;
#378 = CARTESIAN_POINT ( 'NONE',  ( 1.610410540878769328E-15, 0.000000000000000000, -13.15000000000000036 ) ) ;
#379 = ADVANCED_FACE ( 'NONE', ( #22 ), #271, .F. ) ;
#380 = AXIS2_PLACEMENT_3D ( 'NONE', #690, #500, #739 ) ;
#381 = CARTESIAN_POINT ( 'NONE',  ( -2.758031949977070685, 0.000000000000000000, 15.28129797679864765 ) ) ;
#382 = VECTOR ( 'NONE', #293, 1000.000000000000000 ) ;
#383 = UNCERTAINTY_MEASURE_WITH_UNIT (LENGTH_MEASURE( 1.000000000000000082E-05 ), #290, 'distance_accuracy_value', 'NONE');
#384 = ORIENTED_EDGE ( 'NONE', *, *, #318, .F. ) ;
#385 = DIRECTION ( 'NONE',  ( -0.000000000000000000, 1.000000000000000000, -0.000000000000000000 ) ) ;
#386 = DIRECTION ( 'NONE',  ( -0.000000000000000000, 1.000000000000000000, -0.000000000000000000 ) ) ;
#387 = ORIENTED_EDGE ( 'NONE', *, *, #526, .T. ) ;
#388 = DIRECTION ( 'NONE',  ( 0.000000000000000000, 0.000000000000000000, 1.000000000000000000 ) ) ;
#389 = VECTOR ( 'NONE', #421, 1000.000000000000000 ) ;
#390 = CIRCLE ( 'NONE', #460, 2.000000000000003553 ) ;
#391 = ORIENTED_EDGE ( 'NONE', *, *, #608, .F. ) ;
#392 = EDGE_CURVE ( 'NONE', #512, #319, #654, .T. ) ;
#393 = DIRECTION ( 'NONE',  ( -0.000000000000000000, 1.000000000000000000, -0.000000000000000000 ) ) ;
#394 = FACE_BOUND ( 'NONE', #651, .T. ) ;
#395 = CARTESIAN_POINT ( 'NONE',  ( -40.99999999999999289, 5.000000000000000000, -43.00000000000000000 ) ) ;
#396 = CARTESIAN_POINT ( 'NONE',  ( 41.00000000000000711, 5.000000000000000000, 39.00000000000000000 ) ) ;
#397 = EDGE_LOOP ( 'NONE', ( #61, #734, #174, #427 ) ) ;
#398 = DIRECTION ( 'NONE',  ( 0.000000000000000000, 1.000000000000000000, 0.000000000000000000 ) ) ;
#399 = AXIS2_PLACEMENT_3D ( 'NONE', #552, #506, #308 ) ;
#400 = ADVANCED_BREP_SHAPE_REPRESENTATION ( 'm2b fange', ( #551, #241 ), #124 ) ;
#401 = DIRECTION ( 'NONE',  ( 0.000000000000000000, 1.000000000000000000, 0.000000000000000000 ) ) ;
#402 = DIRECTION ( 'NONE',  ( -0.000000000000000000, -1.000000000000000000, -0.000000000000000000 ) ) ;
#403 = EDGE_CURVE ( 'NONE', #187, #365, #58, .T. ) ;
#404 = CARTESIAN_POINT ( 'NONE',  ( -40.99999999999999289, 0.000000000000000000, -41.00000000000000000 ) ) ;
#405 = CARTESIAN_POINT ( 'NONE',  ( 0.000000000000000000, 5.000000000000000000, 0.000000000000000000 ) ) ;
#406 = AXIS2_PLACEMENT_3D ( 'NONE', #514, #231, #635 ) ;
#407 = PRODUCT_DEFINITION_FORMATION_WITH_SPECIFIED_SOURCE ( 'ANY', '', #163, .NOT_KNOWN. ) ;
#408 = VERTEX_POINT ( 'NONE', #580 ) ;
#409 = DIRECTION ( 'NONE',  ( -0.000000000000000000, 1.000000000000000000, -0.000000000000000000 ) ) ;
#410 = DIRECTION ( 'NONE',  ( 0.000000000000000000, 0.000000000000000000, 1.000000000000000000 ) ) ;
#411 = EDGE_CURVE ( 'NONE', #771, #253, #751, .T. ) ;
#412 = ORIENTED_EDGE ( 'NONE', *, *, #242, .F. ) ;
#413 = DIRECTION ( 'NONE',  ( 0.000000000000000000, 0.000000000000000000, 1.000000000000000000 ) ) ;
#414 = PRODUCT_CONTEXT ( 'NONE', #343, 'mechanical' ) ;
#415 = FACE_OUTER_BOUND ( 'NONE', #678, .T. ) ;
#416 = CARTESIAN_POINT ( 'NONE',  ( 2.758031949977003627, 0.000000000000000000, -17.28129797679868318 ) ) ;
#417 = DIRECTION ( 'NONE',  ( 0.000000000000000000, 1.000000000000000000, 0.000000000000000000 ) ) ;
#418 = EDGE_CURVE ( 'NONE', #319, #512, #546, .T. ) ;
#419 = EDGE_LOOP ( 'NONE', ( #161, #248, #127, #631 ) ) ;
#420 = DIRECTION ( 'NONE',  ( -0.000000000000000000, 1.000000000000000000, -0.000000000000000000 ) ) ;
#421 = DIRECTION ( 'NONE',  ( -0.000000000000000000, 1.000000000000000000, -0.000000000000000000 ) ) ;
#422 = AXIS2_PLACEMENT_3D ( 'NONE', #750, #263, #141 ) ;
#423 = DIRECTION ( 'NONE',  ( 0.000000000000000000, 0.000000000000000000, 1.000000000000000000 ) ) ;
#424 = CARTESIAN_POINT ( 'NONE',  ( -40.99999999999999289, 5.000000000000000000, 41.00000000000000000 ) ) ;
#425 = ORIENTED_EDGE ( 'NONE', *, *, #65, .F. ) ;
#426 = ORIENTED_EDGE ( 'NONE', *, *, #33, .T. ) ;
#427 = ORIENTED_EDGE ( 'NONE', *, *, #20, .T. ) ;
#428 = AXIS2_PLACEMENT_3D ( 'NONE', #181, #715, #236 ) ;
#429 = DIRECTION ( 'NONE',  ( 0.000000000000000000, 1.000000000000000000, 0.000000000000000000 ) ) ;
#430 = DIRECTION ( 'NONE',  ( 0.000000000000000000, 1.000000000000000000, 0.000000000000000000 ) ) ;
#431 = ORIENTED_EDGE ( 'NONE', *, *, #192, .F. ) ;
#432 = EDGE_LOOP ( 'NONE', ( #725, #24 ) ) ;
#433 = DIRECTION ( 'NONE',  ( -0.000000000000000000, 1.000000000000000000, -0.000000000000000000 ) ) ;
#434 = ORIENTED_EDGE ( 'NONE', *, *, #7, .T. ) ;
#435 = EDGE_LOOP ( 'NONE', ( #425, #309, #469, #371 ) ) ;
#436 = AXIS2_PLACEMENT_3D ( 'NONE', #134, #203, #728 ) ;
#437 = EDGE_CURVE ( 'NONE', #458, #453, #104, .T. ) ;
#438 = AXIS2_PLACEMENT_3D ( 'NONE', #30, #765, #223 ) ;
#439 = CARTESIAN_POINT ( 'NONE',  ( 41.00000000000000711, 0.000000000000000000, 41.00000000000000000 ) ) ;
#440 = VERTEX_POINT ( 'NONE', #287 ) ;
#441 = FACE_BOUND ( 'NONE', #432, .T. ) ;
#442 = EDGE_CURVE ( 'NONE', #240, #458, #93, .T. ) ;
#443 = DIRECTION ( 'NONE',  ( -0.000000000000000000, 1.000000000000000000, -0.000000000000000000 ) ) ;
#444 = AXIS2_PLACEMENT_3D ( 'NONE', #270, #398, #85 ) ;
#445 = ORIENTED_EDGE ( 'NONE', *, *, #465, .F. ) ;
#446 = CYLINDRICAL_SURFACE ( 'NONE', #625, 2.000000000000001776 ) ;
#447 = CARTESIAN_POINT ( 'NONE',  ( 41.00000000000000711, 0.000000000000000000, -39.00000000000000000 ) ) ;
#448 = AXIS2_PLACEMENT_3D ( 'NONE', #463, #646, #515 ) ;
#449 = EDGE_LOOP ( 'NONE', ( #377, #611 ) ) ;
#450 = LINE ( 'NONE', #624, #314 ) ;
#451 = FACE_BOUND ( 'NONE', #216, .T. ) ;
#452 = EDGE_CURVE ( 'NONE', #322, #453, #230, .T. ) ;
#453 = VERTEX_POINT ( 'NONE', #395 ) ;
#454 = FACE_OUTER_BOUND ( 'NONE', #503, .T. ) ;
#455 = CARTESIAN_POINT ( 'NONE',  ( 41.00000000000000711, 0.000000000000000000, 41.00000000000000000 ) ) ;
#456 = DIRECTION ( 'NONE',  ( 0.000000000000000000, 0.000000000000000000, 1.000000000000000000 ) ) ;
#457 = CYLINDRICAL_SURFACE ( 'NONE', #694, 1.999999999999999556 ) ;
#458 = VERTEX_POINT ( 'NONE', #636 ) ;
#459 = DIRECTION ( 'NONE',  ( -0.000000000000000000, 1.000000000000000000, -0.000000000000000000 ) ) ;
#460 = AXIS2_PLACEMENT_3D ( 'NONE', #37, #704, #165 ) ;
#461 = CYLINDRICAL_SURFACE ( 'NONE', #543, 2.000000000000001776 ) ;
#462 = VECTOR ( 'NONE', #328, 1000.000000000000000 ) ;
#463 = CARTESIAN_POINT ( 'NONE',  ( 0.000000000000000000, 0.000000000000000000, 0.000000000000000000 ) ) ;
#464 = CARTESIAN_POINT ( 'NONE',  ( 41.00000000000000711, 5.000000000000000000, 41.00000000000000000 ) ) ;
#465 = EDGE_CURVE ( 'NONE', #333, #57, #537, .T. ) ;
#466 = CARTESIAN_POINT ( 'NONE',  ( 41.00000000000000711, 0.000000000000000000, 41.00000000000000000 ) ) ;
#467 = CARTESIAN_POINT ( 'NONE',  ( -40.99999999999999289, 0.000000000000000000, -41.00000000000000000 ) ) ;
#468 = EDGE_CURVE ( 'NONE', #70, #342, #778, .T. ) ;
#469 = ORIENTED_EDGE ( 'NONE', *, *, #608, .T. ) ;
#470 = CARTESIAN_POINT ( 'NONE',  ( 17.28129797679870094, 0.000000000000000000, 4.758031949977035602 ) ) ;
#471 = CARTESIAN_POINT ( 'NONE',  ( 17.28129797679870094, 0.000000000000000000, 0.7580319499770290514 ) ) ;
#472 = ADVANCED_FACE ( 'NONE', ( #159 ), #284, .F. ) ;
#473 = SHAPE_DEFINITION_REPRESENTATION ( #98, #400 ) ;
#474 = ORIENTED_EDGE ( 'NONE', *, *, #627, .F. ) ;
#475 = CARTESIAN_POINT ( 'NONE',  ( -40.99999999999999289, 0.000000000000000000, -43.00000000000000000 ) ) ;
#476 = AXIS2_PLACEMENT_3D ( 'NONE', #718, #420, #423 ) ;
#477 = FACE_BOUND ( 'NONE', #682, .T. ) ;
#478 = DIRECTION ( 'NONE',  ( 0.000000000000000000, 0.000000000000000000, 1.000000000000000000 ) ) ;
#479 = ADVANCED_FACE ( 'NONE', ( #528 ), #769, .F. ) ;
#480 = FACE_OUTER_BOUND ( 'NONE', #135, .T. ) ;
#481 = DIRECTION ( 'NONE',  ( 0.000000000000000000, 1.000000000000000000, 0.000000000000000000 ) ) ;
#482 = CIRCLE ( 'NONE', #444, 2.000000000000001776 ) ;
#483 = ORIENTED_EDGE ( 'NONE', *, *, #740, .T. ) ;
#484 = CARTESIAN_POINT ( 'NONE',  ( -40.99999999999999289, 5.000000000000000000, 41.00000000000000000 ) ) ;
#485 = CIRCLE ( 'NONE', #664, 2.000000000000001776 ) ;
#486 = CLOSED_SHELL ( 'NONE', ( #472, #585, #132, #479, #295, #97, #675, #617, #46, #215, #324, #133, #767, #39, #238, #31, #662, #780, #158, #700, #379, #520 ) ) ;
#487 = DIRECTION ( 'NONE',  ( 0.000000000000000000, 1.000000000000000000, 0.000000000000000000 ) ) ;
#488 = ORIENTED_EDGE ( 'NONE', *, *, #250, .F. ) ;
#489 = DIRECTION ( 'NONE',  ( 0.000000000000000000, 0.000000000000000000, 1.000000000000000000 ) ) ;
#490 = DIRECTION ( 'NONE',  ( 0.000000000000000000, 0.000000000000000000, 1.000000000000000000 ) ) ;
#491 = ORIENTED_EDGE ( 'NONE', *, *, #180, .F. ) ;
#492 = ORIENTED_EDGE ( 'NONE', *, *, #278, .F. ) ;
#493 = CIRCLE ( 'NONE', #288, 13.15000000000000036 ) ;
#494 = CARTESIAN_POINT ( 'NONE',  ( -17.28129797679864055, 0.000000000000000000, -4.758031949977160835 ) ) ;
#495 = ORIENTED_EDGE ( 'NONE', *, *, #63, .F. ) ;
#496 = VERTEX_POINT ( 'NONE', #596 ) ;
#497 = DIRECTION ( 'NONE',  ( 0.000000000000000000, 0.000000000000000000, 1.000000000000000000 ) ) ;
#498 = EDGE_LOOP ( 'NONE', ( #121, #768, #123, #283 ) ) ;
#499 = EDGE_CURVE ( 'NONE', #408, #38, #339, .T. ) ;
#500 = DIRECTION ( 'NONE',  ( 0.000000000000000000, 1.000000000000000000, 0.000000000000000000 ) ) ;
#501 = AXIS2_PLACEMENT_3D ( 'NONE', #257, #142, #502 ) ;
#502 = DIRECTION ( 'NONE',  ( 0.000000000000000000, 0.000000000000000000, 1.000000000000000000 ) ) ;
#503 = EDGE_LOOP ( 'NONE', ( #258, #554 ) ) ;
#504 = ORIENTED_EDGE ( 'NONE', *, *, #555, .T. ) ;
#505 = DIRECTION ( 'NONE',  ( 0.000000000000000000, 1.000000000000000000, 0.000000000000000000 ) ) ;
#506 = DIRECTION ( 'NONE',  ( -0.000000000000000000, 1.000000000000000000, -0.000000000000000000 ) ) ;
#507 = AXIS2_PLACEMENT_3D ( 'NONE', #329, #774, #568 ) ;
#508 = ORIENTED_EDGE ( 'NONE', *, *, #468, .T. ) ;
#509 = CARTESIAN_POINT ( 'NONE',  ( 41.00000000000000711, 0.000000000000000000, 43.00000000000000000 ) ) ;
#510 = DIRECTION ( 'NONE',  ( 0.000000000000000000, 1.000000000000000000, 0.000000000000000000 ) ) ;
#511 = AXIS2_PLACEMENT_3D ( 'NONE', #589, #164, #456 ) ;
#512 = VERTEX_POINT ( 'NONE', #108 ) ;
#513 = FACE_BOUND ( 'NONE', #790, .T. ) ;
#514 = CARTESIAN_POINT ( 'NONE',  ( 0.000000000000000000, 5.000000000000000000, 0.000000000000000000 ) ) ;
#515 = DIRECTION ( 'NONE',  ( 0.000000000000000000, 0.000000000000000000, 1.000000000000000000 ) ) ;
#516 = DIRECTION ( 'NONE',  ( 0.000000000000000000, 0.000000000000000000, 1.000000000000000000 ) ) ;
#517 = ORIENTED_EDGE ( 'NONE', *, *, #442, .T. ) ;
#518 = FACE_OUTER_BOUND ( 'NONE', #671, .T. ) ;
#519 = CARTESIAN_POINT ( 'NONE',  ( 41.00000000000000711, 0.000000000000000000, -43.00000000000000000 ) ) ;
#520 = ADVANCED_FACE ( 'NONE', ( #294 ), #177, .F. ) ;
#521 = DIRECTION ( 'NONE',  ( 0.000000000000000000, 1.000000000000000000, 0.000000000000000000 ) ) ;
#522 = EDGE_CURVE ( 'NONE', #440, #711, #326, .T. ) ;
#523 = AXIS2_PLACEMENT_3D ( 'NONE', #137, #744, #683 ) ;
#524 = DIRECTION ( 'NONE',  ( -0.000000000000000000, -1.000000000000000000, -0.000000000000000000 ) ) ;
#525 = CYLINDRICAL_SURFACE ( 'NONE', #114, 65.00000000000000000 ) ;
#526 = EDGE_CURVE ( 'NONE', #353, #726, #77, .T. ) ;
#527 = VERTEX_POINT ( 'NONE', #364 ) ;
#528 = FACE_OUTER_BOUND ( 'NONE', #167, .T. ) ;
#529 = LINE ( 'NONE', #340, #289 ) ;
#530 = ORIENTED_EDGE ( 'NONE', *, *, #555, .F. ) ;
#531 = CARTESIAN_POINT ( 'NONE',  ( -40.99999999999999289, 0.000000000000000000, -39.00000000000000000 ) ) ;
#532 = AXIS2_PLACEMENT_3D ( 'NONE', #48, #120, #413 ) ;
#533 = CIRCLE ( 'NONE', #251, 2.000000000000001776 ) ;
#534 = EDGE_CURVE ( 'NONE', #2, #204, #772, .T. ) ;
#535 = AXIS2_PLACEMENT_3D ( 'NONE', #118, #363, #52 ) ;
#536 = CYLINDRICAL_SURFACE ( 'NONE', #659, 65.00000000000000000 ) ;
#537 = CIRCLE ( 'NONE', #234, 2.000000000000001776 ) ;
#538 = ORIENTED_EDGE ( 'NONE', *, *, #643, .F. ) ;
#539 = LINE ( 'NONE', #303, #69 ) ;
#540 =( NAMED_UNIT ( * ) PLANE_ANGLE_UNIT ( ) SI_UNIT ( $, .RADIAN. ) );
#541 = EDGE_CURVE ( 'NONE', #553, #122, #493, .T. ) ;
#542 = CIRCLE ( 'NONE', #200, 2.000000000000001776 ) ;
#543 = AXIS2_PLACEMENT_3D ( 'NONE', #691, #344, #79 ) ;
#544 = CARTESIAN_POINT ( 'NONE',  ( 7.960204194457797252E-15, 5.000000000000000000, 65.00000000000000000 ) ) ;
#545 = SURFACE_SIDE_STYLE ('',( #663 ) ) ;
#546 = CIRCLE ( 'NONE', #448, 65.00000000000000000 ) ;
#547 = DIRECTION ( 'NONE',  ( -0.000000000000000000, -1.000000000000000000, -0.000000000000000000 ) ) ;
#548 = ORIENTED_EDGE ( 'NONE', *, *, #357, .T. ) ;
#549 = EDGE_CURVE ( 'NONE', #553, #440, #358, .T. ) ;
#550 = ORIENTED_EDGE ( 'NONE', *, *, #610, .F. ) ;
#551 = MANIFOLD_SOLID_BREP ( 'Cut-Extrude2', #486 ) ;
#552 = CARTESIAN_POINT ( 'NONE',  ( -40.99999999999999289, 0.000000000000000000, 41.00000000000000000 ) ) ;
#553 = VERTEX_POINT ( 'NONE', #775 ) ;
#554 = ORIENTED_EDGE ( 'NONE', *, *, #411, .T. ) ;
#555 = EDGE_CURVE ( 'NONE', #57, #333, #296, .T. ) ;
#556 = CIRCLE ( 'NONE', #112, 2.000000000000001776 ) ;
#557 = DIRECTION ( 'NONE',  ( -0.000000000000000000, 1.000000000000000000, -0.000000000000000000 ) ) ;
#558 = ORIENTED_EDGE ( 'NONE', *, *, #307, .T. ) ;
#559 = AXIS2_PLACEMENT_3D ( 'NONE', #15, #320, #638 ) ;
#560 = CYLINDRICAL_SURFACE ( 'NONE', #564, 1.999999999999999556 ) ;
#561 = VERTEX_POINT ( 'NONE', #620 ) ;
#562 = ORIENTED_EDGE ( 'NONE', *, *, #685, .T. ) ;
#563 = DIRECTION ( 'NONE',  ( 0.000000000000000000, 0.000000000000000000, 1.000000000000000000 ) ) ;
#564 = AXIS2_PLACEMENT_3D ( 'NONE', #4, #66, #321 ) ;
#565 = DIRECTION ( 'NONE',  ( -0.000000000000000000, 1.000000000000000000, -0.000000000000000000 ) ) ;
#566 = ORIENTED_EDGE ( 'NONE', *, *, #192, .T. ) ;
#567 = FACE_BOUND ( 'NONE', #602, .T. ) ;
#568 = DIRECTION ( 'NONE',  ( 0.000000000000000000, 0.000000000000000000, 1.000000000000000000 ) ) ;
#569 = EDGE_LOOP ( 'NONE', ( #595, #262 ) ) ;
#570 = CARTESIAN_POINT ( 'NONE',  ( 41.00000000000000711, 0.000000000000000000, 39.00000000000000000 ) ) ;
#571 = CIRCLE ( 'NONE', #232, 2.000000000000001776 ) ;
#572 = CARTESIAN_POINT ( 'NONE',  ( 2.758031949977004071, 0.000000000000000000, -19.28129797679868673 ) ) ;
#573 = DIRECTION ( 'NONE',  ( -0.000000000000000000, 1.000000000000000000, -0.000000000000000000 ) ) ;
#574 = CARTESIAN_POINT ( 'NONE',  ( 17.28129797679870094, 0.000000000000000000, 4.758031949977035602 ) ) ;
#575 = ORIENTED_EDGE ( 'NONE', *, *, #541, .F. ) ;
#576 = CARTESIAN_POINT ( 'NONE',  ( 41.00000000000000711, 5.000000000000000000, -39.00000000000000000 ) ) ;
#577 = VECTOR ( 'NONE', #712, 1000.000000000000000 ) ;
#578 = CARTESIAN_POINT ( 'NONE',  ( 7.960204194457797252E-15, 5.000000000000000000, 65.00000000000000000 ) ) ;
#579 = EDGE_CURVE ( 'NONE', #561, #265, #260, .T. ) ;
#580 = CARTESIAN_POINT ( 'NONE',  ( -40.99999999999999289, 5.000000000000000000, 39.00000000000000000 ) ) ;
#581 = CARTESIAN_POINT ( 'NONE',  ( -2.758031949977071129, 0.000000000000000000, 17.28129797679865121 ) ) ;
#582 = ORIENTED_EDGE ( 'NONE', *, *, #221, .F. ) ;
#583 = VECTOR ( 'NONE', #626, 1000.000000000000000 ) ;
#584 =( NAMED_UNIT ( * ) SI_UNIT ( $, .STERADIAN. ) SOLID_ANGLE_UNIT ( ) );
#585 = ADVANCED_FACE ( 'NONE', ( #62 ), #186, .F. ) ;
#586 = DIRECTION ( 'NONE',  ( 0.000000000000000000, 0.000000000000000000, 1.000000000000000000 ) ) ;
#587 = DIRECTION ( 'NONE',  ( 0.000000000000000000, 0.000000000000000000, 1.000000000000000000 ) ) ;
#588 = VECTOR ( 'NONE', #393, 1000.000000000000000 ) ;
#589 = CARTESIAN_POINT ( 'NONE',  ( -40.99999999999999289, 0.000000000000000000, 41.00000000000000000 ) ) ;
#590 = DIRECTION ( 'NONE',  ( 0.000000000000000000, 0.000000000000000000, 1.000000000000000000 ) ) ;
#591 = APPLICATION_PROTOCOL_DEFINITION ( 'draft international standard', 'automotive_design', 1998, #343 ) ;
#592 = VERTEX_POINT ( 'NONE', #315 ) ;
#593 = DIRECTION ( 'NONE',  ( 0.000000000000000000, 1.000000000000000000, 0.000000000000000000 ) ) ;
#594 = CARTESIAN_POINT ( 'NONE',  ( 17.28129797679870094, 0.000000000000000000, 2.758031949977032049 ) ) ;
#595 = ORIENTED_EDGE ( 'NONE', *, *, #522, .F. ) ;
#596 = CARTESIAN_POINT ( 'NONE',  ( 2.758031949977004071, 5.000000000000000000, -19.28129797679868673 ) ) ;
#597 = AXIS2_PLACEMENT_3D ( 'NONE', #581, #28, #280 ) ;
#598 = VECTOR ( 'NONE', #409, 1000.000000000000000 ) ;
#599 = DIRECTION ( 'NONE',  ( -0.000000000000000000, 1.000000000000000000, -0.000000000000000000 ) ) ;
#600 = DIRECTION ( 'NONE',  ( 0.000000000000000000, 0.000000000000000000, 1.000000000000000000 ) ) ;
#601 = AXIS2_PLACEMENT_3D ( 'NONE', #12, #505, #106 ) ;
#602 = EDGE_LOOP ( 'NONE', ( #692, #474 ) ) ;
#603 = ORIENTED_EDGE ( 'NONE', *, *, #360, .T. ) ;
#604 = CARTESIAN_POINT ( 'NONE',  ( 0.000000000000000000, 0.000000000000000000, 0.000000000000000000 ) ) ;
#605 = AXIS2_PLACEMENT_3D ( 'NONE', #722, #53, #369 ) ;
#606 = EDGE_CURVE ( 'NONE', #660, #183, #117, .T. ) ;
#607 = DIRECTION ( 'NONE',  ( 0.000000000000000000, 0.000000000000000000, 1.000000000000000000 ) ) ;
#608 = EDGE_CURVE ( 'NONE', #453, #458, #50, .T. ) ;
#609 = CARTESIAN_POINT ( 'NONE',  ( 17.28129797679870094, 5.000000000000000000, 2.758031949977032049 ) ) ;
#610 = EDGE_CURVE ( 'NONE', #592, #333, #375, .T. ) ;
#611 = ORIENTED_EDGE ( 'NONE', *, *, #63, .T. ) ;
#612 = ORIENTED_EDGE ( 'NONE', *, *, #376, .T. ) ;
#613 = EDGE_LOOP ( 'NONE', ( #548, #152 ) ) ;
#614 = FACE_OUTER_BOUND ( 'NONE', #674, .T. ) ;
#615 = ORIENTED_EDGE ( 'NONE', *, *, #740, .F. ) ;
#616 = ORIENTED_EDGE ( 'NONE', *, *, #154, .T. ) ;
#617 = ADVANCED_FACE ( 'NONE', ( #614 ), #560, .F. ) ;
#618 = CARTESIAN_POINT ( 'NONE',  ( 41.00000000000000711, 5.000000000000000000, -41.00000000000000000 ) ) ;
#619 = ORIENTED_EDGE ( 'NONE', *, *, #465, .T. ) ;
#620 = CARTESIAN_POINT ( 'NONE',  ( -17.28129797679864055, 0.000000000000000000, -0.7580319499771609459 ) ) ;
#621 = EDGE_LOOP ( 'NONE', ( #60, #729, #517, #146 ) ) ;
#622 = PRODUCT_DEFINITION_CONTEXT ( 'detailed design', #175, 'design' ) ;
#623 = EDGE_LOOP ( 'NONE', ( #115, #73, #3, #483 ) ) ;
#624 = CARTESIAN_POINT ( 'NONE',  ( -40.99999999999999289, 0.000000000000000000, 43.00000000000000000 ) ) ;
#625 = AXIS2_PLACEMENT_3D ( 'NONE', #74, #71, #269 ) ;
#626 = DIRECTION ( 'NONE',  ( -0.000000000000000000, 1.000000000000000000, -0.000000000000000000 ) ) ;
#627 = EDGE_CURVE ( 'NONE', #342, #70, #128, .T. ) ;
#628 = ORIENTED_EDGE ( 'NONE', *, *, #221, .T. ) ;
#629 = LINE ( 'NONE', #266, #588 ) ;
#630 = DIRECTION ( 'NONE',  ( 0.000000000000000000, 0.000000000000000000, 1.000000000000000000 ) ) ;
#631 = ORIENTED_EDGE ( 'NONE', *, *, #643, .T. ) ;
#632 = FACE_OUTER_BOUND ( 'NONE', #291, .T. ) ;
#633 = AXIS2_PLACEMENT_3D ( 'NONE', #656, #667, #478 ) ;
#634 = AXIS2_PLACEMENT_3D ( 'NONE', #770, #698, #516 ) ;
#635 = DIRECTION ( 'NONE',  ( 0.000000000000000000, 0.000000000000000000, 1.000000000000000000 ) ) ;
#636 = CARTESIAN_POINT ( 'NONE',  ( -40.99999999999999289, 5.000000000000000000, -39.00000000000000000 ) ) ;
#637 = ORIENTED_EDGE ( 'NONE', *, *, #549, .T. ) ;
#638 = DIRECTION ( 'NONE',  ( 0.000000000000000000, -0.000000000000000000, 1.000000000000000000 ) ) ;
#639 = PLANE ( 'NONE',  #649 ) ;
#640 = DIRECTION ( 'NONE',  ( 0.000000000000000000, 0.000000000000000000, -1.000000000000000000 ) ) ;
#641 = FACE_OUTER_BOUND ( 'NONE', #275, .T. ) ;
#642 = ORIENTED_EDGE ( 'NONE', *, *, #627, .T. ) ;
#643 = EDGE_CURVE ( 'NONE', #527, #254, #157, .T. ) ;
#644 = EDGE_CURVE ( 'NONE', #496, #17, #193, .T. ) ;
#645 = AXIS2_PLACEMENT_3D ( 'NONE', #618, #688, #630 ) ;
#646 = DIRECTION ( 'NONE',  ( 0.000000000000000000, 1.000000000000000000, 0.000000000000000000 ) ) ;
#647 = CARTESIAN_POINT ( 'NONE',  ( 41.00000000000000711, 0.000000000000000000, 43.00000000000000000 ) ) ;
#648 = DIRECTION ( 'NONE',  ( -0.000000000000000000, 1.000000000000000000, -0.000000000000000000 ) ) ;
#649 = AXIS2_PLACEMENT_3D ( 'NONE', #21, #510, #218 ) ;
#650 = DIRECTION ( 'NONE',  ( 0.000000000000000000, 0.000000000000000000, 1.000000000000000000 ) ) ;
#651 = EDGE_LOOP ( 'NONE', ( #387, #42 ) ) ;
#652 = CARTESIAN_POINT ( 'NONE',  ( -40.99999999999999289, 0.000000000000000000, 41.00000000000000000 ) ) ;
#653 = DIRECTION ( 'NONE',  ( 0.000000000000000000, 0.000000000000000000, -1.000000000000000000 ) ) ;
#654 = CIRCLE ( 'NONE', #306, 65.00000000000000000 ) ;
#655 = ORIENTED_EDGE ( 'NONE', *, *, #170, .F. ) ;
#656 = CARTESIAN_POINT ( 'NONE',  ( 0.000000000000000000, 5.000000000000000000, 0.000000000000000000 ) ) ;
#657 = ORIENTED_EDGE ( 'NONE', *, *, #748, .T. ) ;
#658 = CARTESIAN_POINT ( 'NONE',  ( 0.000000000000000000, 0.000000000000000000, 13.15000000000000036 ) ) ;
#659 = AXIS2_PLACEMENT_3D ( 'NONE', #348, #524, #640 ) ;
#660 = VERTEX_POINT ( 'NONE', #672 ) ;
#661 = VERTEX_POINT ( 'NONE', #494 ) ;
#662 = ADVANCED_FACE ( 'NONE', ( #198 ), #59, .F. ) ;
#663 = SURFACE_STYLE_FILL_AREA ( #116 ) ;
#664 = AXIS2_PLACEMENT_3D ( 'NONE', #18, #202, #388 ) ;
#665 = EDGE_CURVE ( 'NONE', #726, #353, #136, .T. ) ;
#666 = EDGE_LOOP ( 'NONE', ( #245, #426 ) ) ;
#667 = DIRECTION ( 'NONE',  ( 0.000000000000000000, 1.000000000000000000, 0.000000000000000000 ) ) ;
#668 = EDGE_LOOP ( 'NONE', ( #530, #445 ) ) ;
#669 = ORIENTED_EDGE ( 'NONE', *, *, #392, .F. ) ;
#670 = ORIENTED_EDGE ( 'NONE', *, *, #90, .T. ) ;
#671 = EDGE_LOOP ( 'NONE', ( #88, #791, #366, #508 ) ) ;
#672 = CARTESIAN_POINT ( 'NONE',  ( 17.28129797679870094, 0.000000000000000000, 0.7580319499770290514 ) ) ;
#673 = ORIENTED_EDGE ( 'NONE', *, *, #720, .T. ) ;
#674 = EDGE_LOOP ( 'NONE', ( #273, #673, #628, #305 ) ) ;
#675 = ADVANCED_FACE ( 'NONE', ( #194 ), #189, .F. ) ;
#676 = AXIS2_PLACEMENT_3D ( 'NONE', #416, #55, #607 ) ;
#677 = DIRECTION ( 'NONE',  ( 0.000000000000000000, 1.000000000000000000, 0.000000000000000000 ) ) ;
#678 = EDGE_LOOP ( 'NONE', ( #103, #669 ) ) ;
#679 = STYLED_ITEM ( 'NONE', ( #354 ), #551 ) ;
#680 = AXIS2_PLACEMENT_3D ( 'NONE', #330, #233, #244 ) ;
#681 = CARTESIAN_POINT ( 'NONE',  ( -17.28129797679864055, 0.000000000000000000, -0.7580319499771609459 ) ) ;
#682 = EDGE_LOOP ( 'NONE', ( #699, #743 ) ) ;
#683 = DIRECTION ( 'NONE',  ( 0.000000000000000000, 0.000000000000000000, 1.000000000000000000 ) ) ;
#684 = DIRECTION ( 'NONE',  ( 0.000000000000000000, 0.000000000000000000, 1.000000000000000000 ) ) ;
#685 = EDGE_CURVE ( 'NONE', #130, #254, #129, .T. ) ;
#686 = ORIENTED_EDGE ( 'NONE', *, *, #92, .F. ) ;
#687 = LINE ( 'NONE', #509, #462 ) ;
#688 = DIRECTION ( 'NONE',  ( 0.000000000000000000, 1.000000000000000000, 0.000000000000000000 ) ) ;
#689 = EDGE_LOOP ( 'NONE', ( #670, #616 ) ) ;
#690 = CARTESIAN_POINT ( 'NONE',  ( 0.000000000000000000, 5.000000000000000000, 0.000000000000000000 ) ) ;
#691 = CARTESIAN_POINT ( 'NONE',  ( -2.758031949977071129, 0.000000000000000000, 17.28129797679865121 ) ) ;
#692 = ORIENTED_EDGE ( 'NONE', *, *, #468, .F. ) ;
#693 = PLANE ( 'NONE',  #559 ) ;
#694 = AXIS2_PLACEMENT_3D ( 'NONE', #710, #285, #758 ) ;
#695 = DIRECTION ( 'NONE',  ( 0.000000000000000000, 1.000000000000000000, 0.000000000000000000 ) ) ;
#696 = VECTOR ( 'NONE', #573, 1000.000000000000000 ) ;
#697 = CARTESIAN_POINT ( 'NONE',  ( 0.000000000000000000, 5.000000000000000000, 0.000000000000000000 ) ) ;
#698 = DIRECTION ( 'NONE',  ( 0.000000000000000000, 1.000000000000000000, 0.000000000000000000 ) ) ;
#699 = ORIENTED_EDGE ( 'NONE', *, *, #738, .T. ) ;
#700 = ADVANCED_FACE ( 'NONE', ( #264 ), #247, .F. ) ;
#701 = CIRCLE ( 'NONE', #422, 1.999999999999999556 ) ;
#702 = FACE_BOUND ( 'NONE', #613, .T. ) ;
#703 = LINE ( 'NONE', #155, #696 ) ;
#704 = DIRECTION ( 'NONE',  ( 0.000000000000000000, 1.000000000000000000, 0.000000000000000000 ) ) ;
#705 = AXIS2_PLACEMENT_3D ( 'NONE', #311, #430, #497 ) ;
#706 = DIRECTION ( 'NONE',  ( 0.000000000000000000, 1.000000000000000000, 0.000000000000000000 ) ) ;
#707 = CARTESIAN_POINT ( 'NONE',  ( -40.99999999999999289, 0.000000000000000000, 43.00000000000000000 ) ) ;
#708 = EDGE_LOOP ( 'NONE', ( #47, #716 ) ) ;
#709 = LINE ( 'NONE', #763, #255 ) ;
#710 = CARTESIAN_POINT ( 'NONE',  ( -17.28129797679864055, 0.000000000000000000, -2.758031949977160391 ) ) ;
#711 = VERTEX_POINT ( 'NONE', #13 ) ;
#712 = DIRECTION ( 'NONE',  ( -0.000000000000000000, 1.000000000000000000, -0.000000000000000000 ) ) ;
#713 = FACE_BOUND ( 'NONE', #666, .T. ) ;
#714 = CARTESIAN_POINT ( 'NONE',  ( -40.99999999999999289, 5.000000000000000000, 43.00000000000000000 ) ) ;
#715 = DIRECTION ( 'NONE',  ( -0.000000000000000000, 1.000000000000000000, -0.000000000000000000 ) ) ;
#716 = ORIENTED_EDGE ( 'NONE', *, *, #606, .T. ) ;
#717 = EDGE_CURVE ( 'NONE', #312, #70, #747, .T. ) ;
#718 = CARTESIAN_POINT ( 'NONE',  ( 0.000000000000000000, 0.000000000000000000, 0.000000000000000000 ) ) ;
#719 = DIRECTION ( 'NONE',  ( 0.000000000000000000, 1.000000000000000000, 0.000000000000000000 ) ) ;
#720 = EDGE_CURVE ( 'NONE', #661, #310, #75, .T. ) ;
#721 = DIRECTION ( 'NONE',  ( 0.000000000000000000, 0.000000000000000000, 1.000000000000000000 ) ) ;
#722 = CARTESIAN_POINT ( 'NONE',  ( -2.758031949977071129, 5.000000000000000000, 17.28129797679865121 ) ) ;
#723 = AXIS2_PLACEMENT_3D ( 'NONE', #760, #459, #563 ) ;
#724 = CIRCLE ( 'NONE', #35, 2.000000000000001776 ) ;
#725 = ORIENTED_EDGE ( 'NONE', *, *, #300, .F. ) ;
#726 = VERTEX_POINT ( 'NONE', #572 ) ;
#727 = CARTESIAN_POINT ( 'NONE',  ( -2.758031949977071129, 0.000000000000000000, 17.28129797679865121 ) ) ;
#728 = DIRECTION ( 'NONE',  ( 0.000000000000000000, 0.000000000000000000, 1.000000000000000000 ) ) ;
#729 = ORIENTED_EDGE ( 'NONE', *, *, #277, .F. ) ;
#730 = ORIENTED_EDGE ( 'NONE', *, *, #748, .F. ) ;
#731 = AXIS2_PLACEMENT_3D ( 'NONE', #609, #417, #45 ) ;
#732 = DIRECTION ( 'NONE',  ( 0.000000000000000000, 0.000000000000000000, 1.000000000000000000 ) ) ;
#733 = EDGE_LOOP ( 'NONE', ( #412, #582 ) ) ;
#734 = ORIENTED_EDGE ( 'NONE', *, *, #403, .F. ) ;
#735 = CARTESIAN_POINT ( 'NONE',  ( 17.28129797679870094, 0.000000000000000000, 2.758031949977032049 ) ) ;
#736 = ORIENTED_EDGE ( 'NONE', *, *, #33, .F. ) ;
#737 = VECTOR ( 'NONE', #557, 1000.000000000000000 ) ;
#738 = EDGE_CURVE ( 'NONE', #312, #359, #482, .T. ) ;
#739 = DIRECTION ( 'NONE',  ( 0.000000000000000000, 0.000000000000000000, 1.000000000000000000 ) ) ;
#740 = EDGE_CURVE ( 'NONE', #17, #496, #746, .T. ) ;
#741 = DIRECTION ( 'NONE',  ( 0.000000000000000000, 0.000000000000000000, 1.000000000000000000 ) ) ;
#742 = ORIENTED_EDGE ( 'NONE', *, *, #756, .F. ) ;
#743 = ORIENTED_EDGE ( 'NONE', *, *, #250, .T. ) ;
#744 = DIRECTION ( 'NONE',  ( -0.000000000000000000, 1.000000000000000000, -0.000000000000000000 ) ) ;
#745 = EDGE_CURVE ( 'NONE', #711, #440, #96, .T. ) ;
#746 = CIRCLE ( 'NONE', #507, 2.000000000000001776 ) ;
#747 = LINE ( 'NONE', #447, #239 ) ;
#748 = EDGE_CURVE ( 'NONE', #122, #711, #16, .T. ) ;
#749 = ORIENTED_EDGE ( 'NONE', *, *, #499, .T. ) ;
#750 = CARTESIAN_POINT ( 'NONE',  ( -17.28129797679864055, 0.000000000000000000, -2.758031949977160391 ) ) ;
#751 = CIRCLE ( 'NONE', #168, 65.00000000000000000 ) ;
#752 = LINE ( 'NONE', #207, #54 ) ;
#753 = EDGE_LOOP ( 'NONE', ( #327, #9, #191, #367 ) ) ;
#754 = FACE_BOUND ( 'NONE', #201, .T. ) ;
#755 = CARTESIAN_POINT ( 'NONE',  ( 1.610410540878769328E-15, 0.000000000000000000, -13.15000000000000036 ) ) ;
#756 = EDGE_CURVE ( 'NONE', #130, #261, #542, .T. ) ;
#757 = DIRECTION ( 'NONE',  ( -0.000000000000000000, 1.000000000000000000, -0.000000000000000000 ) ) ;
#758 = DIRECTION ( 'NONE',  ( 0.000000000000000000, 0.000000000000000000, 1.000000000000000000 ) ) ;
#759 = EDGE_LOOP ( 'NONE', ( #538, #188 ) ) ;
#760 = CARTESIAN_POINT ( 'NONE',  ( 41.00000000000000711, 0.000000000000000000, -41.00000000000000000 ) ) ;
#761 = ORIENTED_EDGE ( 'NONE', *, *, #403, .T. ) ;
#762 = AXIS2_PLACEMENT_3D ( 'NONE', #466, #169, #226 ) ;
#763 = CARTESIAN_POINT ( 'NONE',  ( 41.00000000000000711, 0.000000000000000000, -43.00000000000000000 ) ) ;
#764 = CARTESIAN_POINT ( 'NONE',  ( 41.00000000000000711, 0.000000000000000000, -39.00000000000000000 ) ) ;
#765 = DIRECTION ( 'NONE',  ( 0.000000000000000000, 1.000000000000000000, 0.000000000000000000 ) ) ;
#766 = CARTESIAN_POINT ( 'NONE',  ( 0.000000000000000000, 5.000000000000000000, -65.00000000000000000 ) ) ;
#767 = ADVANCED_FACE ( 'NONE', ( #451, #149, #702, #477, #713, #171, #394, #336, #267, #415 ), #639, .F. ) ;
#768 = ORIENTED_EDGE ( 'NONE', *, *, #90, .F. ) ;
#769 = CYLINDRICAL_SURFACE ( 'NONE', #680, 2.000000000000001776 ) ;
#770 = CARTESIAN_POINT ( 'NONE',  ( -17.28129797679864055, 5.000000000000000000, -2.758031949977160391 ) ) ;
#771 = VERTEX_POINT ( 'NONE', #578 ) ;
#772 = CIRCLE ( 'NONE', #731, 2.000000000000003553 ) ;
#773 = DIRECTION ( 'NONE',  ( -0.000000000000000000, 1.000000000000000000, -0.000000000000000000 ) ) ;
#774 = DIRECTION ( 'NONE',  ( 0.000000000000000000, 1.000000000000000000, 0.000000000000000000 ) ) ;
#775 = CARTESIAN_POINT ( 'NONE',  ( 0.000000000000000000, 0.000000000000000000, 13.15000000000000036 ) ) ;
#776 = AXIS2_PLACEMENT_3D ( 'NONE', #125, #677, #741 ) ;
#777 = CARTESIAN_POINT ( 'NONE',  ( 2.758031949977003627, 5.000000000000000000, -15.28129797679868318 ) ) ;
#778 = CIRCLE ( 'NONE', #438, 2.000000000000001776 ) ;
#779 = EDGE_CURVE ( 'NONE', #726, #496, #752, .T. ) ;
#780 = ADVANCED_FACE ( 'NONE', ( #276 ), #461, .F. ) ;
#781 = ORIENTED_EDGE ( 'NONE', *, *, #360, .F. ) ;
#782 = EDGE_LOOP ( 'NONE', ( #225, #655, #434, #5 ) ) ;
#783 = AXIS2_PLACEMENT_3D ( 'NONE', #1, #252, #732 ) ;
#784 =( NAMED_UNIT ( * ) SI_UNIT ( $, .STERADIAN. ) SOLID_ANGLE_UNIT ( ) );
#785 = CARTESIAN_POINT ( 'NONE',  ( -40.99999999999999289, 0.000000000000000000, -41.00000000000000000 ) ) ;
#786 = SURFACE_STYLE_USAGE ( .BOTH. , #545 ) ;
#787 = AXIS2_PLACEMENT_3D ( 'NONE', #652, #401, #338 ) ;
#788 = ORIENTED_EDGE ( 'NONE', *, *, #606, .F. ) ;
#789 = DIRECTION ( 'NONE',  ( -0.000000000000000000, 1.000000000000000000, -0.000000000000000000 ) ) ;
#790 = EDGE_LOOP ( 'NONE', ( #14, #391 ) ) ;
#791 = ORIENTED_EDGE ( 'NONE', *, *, #738, .F. ) ;
ENDSEC;
END-ISO-10303-21;
