ISO-10303-21;
HEADER;
FILE_DESCRIPTION (( 'STEP AP214' ),
    '1' );
FILE_NAME ('motor mount aligner.STEP',
    '2026-02-21T07:24:45',
    ( '' ),
    ( '' ),
    'SwSTEP 2.0',
    'SolidWorks 2023',
    '' );
FILE_SCHEMA (( 'AUTOMOTIVE_DESIGN' ));
ENDSEC;

DATA;
#1 = DIRECTION ( 'NONE',  ( 0.000000000000000000, 0.000000000000000000, -1.000000000000000000 ) ) ;
#2 = EDGE_CURVE ( 'NONE', #70, #10, #192, .T. ) ;
#3 = ADVANCED_FACE ( 'NONE', ( #53 ), #272, .T. ) ;
#4 = VECTOR ( 'NONE', #83, 1.000000000000000000 ) ;
#5 = FACE_BOUND ( 'NONE', #126, .T. ) ;
#6 = DIRECTION ( 'NONE',  ( 0.000000000000000000, 0.000000000000000000, -1.000000000000000000 ) ) ;
#7 = CIRCLE ( 'NONE', #102, 0.02340000000000000066 ) ;
#8 = CIRCLE ( 'NONE', #164, 0.01300000000000000114 ) ;
#9 = CARTESIAN_POINT ( 'NONE',  ( 0.007500000000000006661, 0.000000000000000000, -0.02340000000000000066 ) ) ;
#10 = VERTEX_POINT ( 'NONE', #253 ) ;
#11 = ORIENTED_EDGE ( 'NONE', *, *, #176, .F. ) ;
#12 = VECTOR ( 'NONE', #182, 1.000000000000000000 ) ;
#13 = EDGE_CURVE ( 'NONE', #256, #46, #167, .T. ) ;
#14 = LINE ( 'NONE', #88, #12 ) ;
#15 = DIRECTION ( 'NONE',  ( 1.000000000000000000, 0.000000000000000000, 0.000000000000000000 ) ) ;
#16 = DIRECTION ( 'NONE',  ( 1.000000000000000000, 0.000000000000000000, 0.000000000000000000 ) ) ;
#17 = DIRECTION ( 'NONE',  ( 1.000000000000000000, 0.000000000000000000, 0.000000000000000000 ) ) ;
#18 = ORIENTED_EDGE ( 'NONE', *, *, #150, .T. ) ;
#19 = DIRECTION ( 'NONE',  ( 0.000000000000000000, 0.000000000000000000, 1.000000000000000000 ) ) ;
#20 =( LENGTH_UNIT ( ) NAMED_UNIT ( * ) SI_UNIT ( $, .METRE. ) );
#21 = ORIENTED_EDGE ( 'NONE', *, *, #176, .T. ) ;
#22 = DIRECTION ( 'NONE',  ( 0.000000000000000000, 0.000000000000000000, -1.000000000000000000 ) ) ;
#23 = EDGE_CURVE ( 'NONE', #264, #45, #140, .T. ) ;
#24 = APPLICATION_PROTOCOL_DEFINITION ( 'draft international standard', 'automotive_design', 1998, #124 ) ;
#25 = PRODUCT_RELATED_PRODUCT_CATEGORY ( 'part', '', ( #143 ) ) ;
#26 = AXIS2_PLACEMENT_3D ( 'NONE', #130, #217, #157 ) ;
#27 = DIRECTION ( 'NONE',  ( 0.000000000000000000, 0.000000000000000000, -1.000000000000000000 ) ) ;
#28 = DIRECTION ( 'NONE',  ( 0.000000000000000000, 0.000000000000000000, -1.000000000000000000 ) ) ;
#29 = AXIS2_PLACEMENT_3D ( 'NONE', #239, #114, #159 ) ;
#30 =( GEOMETRIC_REPRESENTATION_CONTEXT ( 3 ) GLOBAL_UNCERTAINTY_ASSIGNED_CONTEXT ( ( #236 ) ) GLOBAL_UNIT_ASSIGNED_CONTEXT ( ( #233, #282, #241 ) ) REPRESENTATION_CONTEXT ( 'NONE', 'WORKASPACE' ) );
#31 = EDGE_CURVE ( 'NONE', #46, #256, #7, .T. ) ;
#32 = EDGE_LOOP ( 'NONE', ( #232, #254 ) ) ;
#33 = EDGE_LOOP ( 'NONE', ( #78, #265 ) ) ;
#34 = AXIS2_PLACEMENT_3D ( 'NONE', #59, #68, #22 ) ;
#35 = CARTESIAN_POINT ( 'NONE',  ( 0.002500000000000000052, 0.000000000000000000, 0.01300000000000000114 ) ) ;
#36 = FACE_BOUND ( 'NONE', #242, .T. ) ;
#37 = DIRECTION ( 'NONE',  ( 0.000000000000000000, 0.000000000000000000, -1.000000000000000000 ) ) ;
#38 = PRESENTATION_STYLE_ASSIGNMENT (( #61 ) ) ;
#39 = CARTESIAN_POINT ( 'NONE',  ( 0.002500000000000000052, 0.000000000000000000, 0.01300000000000000114 ) ) ;
#40 = ORIENTED_EDGE ( 'NONE', *, *, #211, .F. ) ;
#41 = LINE ( 'NONE', #181, #4 ) ;
#42 = AXIS2_PLACEMENT_3D ( 'NONE', #77, #212, #28 ) ;
#43 = CIRCLE ( 'NONE', #26, 0.02840000000000000163 ) ;
#44 = FACE_OUTER_BOUND ( 'NONE', #33, .T. ) ;
#45 = VERTEX_POINT ( 'NONE', #271 ) ;
#46 = VERTEX_POINT ( 'NONE', #9 ) ;
#47 = PLANE ( 'NONE',  #79 ) ;
#48 = CARTESIAN_POINT ( 'NONE',  ( 0.05750000000000000250, 0.000000000000000000, 0.000000000000000000 ) ) ;
#49 = EDGE_CURVE ( 'NONE', #195, #274, #267, .T. ) ;
#50 = VECTOR ( 'NONE', #244, 1.000000000000000000 ) ;
#51 = DIRECTION ( 'NONE',  ( 1.000000000000000000, 0.000000000000000000, 0.000000000000000000 ) ) ;
#52 = AXIS2_PLACEMENT_3D ( 'NONE', #154, #87, #65 ) ;
#53 = FACE_OUTER_BOUND ( 'NONE', #280, .T. ) ;
#54 = DIRECTION ( 'NONE',  ( 1.000000000000000000, 0.000000000000000000, 0.000000000000000000 ) ) ;
#55 = ADVANCED_FACE ( 'NONE', ( #5, #98 ), #190, .T. ) ;
#56 = CLOSED_SHELL ( 'NONE', ( #152, #142, #237, #99, #71, #3, #55, #76, #121, #276 ) ) ;
#57 = CARTESIAN_POINT ( 'NONE',  ( 0.000000000000000000, 0.000000000000000000, 0.000000000000000000 ) ) ;
#58 = ORIENTED_EDGE ( 'NONE', *, *, #2, .F. ) ;
#59 = CARTESIAN_POINT ( 'NONE',  ( 0.007500000000000006661, 0.000000000000000000, 0.000000000000000000 ) ) ;
#60 = CARTESIAN_POINT ( 'NONE',  ( 0.007500000000000006661, 2.865673510004806168E-18, 0.02340000000000000066 ) ) ;
#61 = SURFACE_STYLE_USAGE ( .BOTH. , #259 ) ;
#62 = DIRECTION ( 'NONE',  ( 1.000000000000000000, 0.000000000000000000, 0.000000000000000000 ) ) ;
#63 = APPLICATION_CONTEXT ( 'automotive_design' ) ;
#64 = ORIENTED_EDGE ( 'NONE', *, *, #211, .T. ) ;
#65 = DIRECTION ( 'NONE',  ( 0.000000000000000000, 0.000000000000000000, -1.000000000000000000 ) ) ;
#66 = LINE ( 'NONE', #60, #249 ) ;
#67 = EDGE_LOOP ( 'NONE', ( #11, #151, #215, #40 ) ) ;
#68 = DIRECTION ( 'NONE',  ( 1.000000000000000000, -0.000000000000000000, -0.000000000000000000 ) ) ;
#69 = CARTESIAN_POINT ( 'NONE',  ( 0.002500000000000000052, 0.000000000000000000, 0.000000000000000000 ) ) ;
#70 = VERTEX_POINT ( 'NONE', #285 ) ;
#71 = ADVANCED_FACE ( 'NONE', ( #199 ), #203, .F. ) ;
#72 = LINE ( 'NONE', #278, #170 ) ;
#73 = AXIS2_PLACEMENT_3D ( 'NONE', #155, #238, #37 ) ;
#74 = CARTESIAN_POINT ( 'NONE',  ( 0.05750000000000000250, 0.000000000000000000, 0.000000000000000000 ) ) ;
#75 = PRESENTATION_LAYER_ASSIGNMENT (  '', '', ( #189 ) ) ;
#76 = ADVANCED_FACE ( 'NONE', ( #36, #90 ), #47, .F. ) ;
#77 = CARTESIAN_POINT ( 'NONE',  ( 0.007500000000000006661, 0.000000000000000000, 0.000000000000000000 ) ) ;
#78 = ORIENTED_EDGE ( 'NONE', *, *, #31, .T. ) ;
#79 = AXIS2_PLACEMENT_3D ( 'NONE', #106, #16, #137 ) ;
#80 = AXIS2_PLACEMENT_3D ( 'NONE', #48, #17, #91 ) ;
#81 = ORIENTED_EDGE ( 'NONE', *, *, #150, .F. ) ;
#82 = DIRECTION ( 'NONE',  ( -1.000000000000000000, -0.000000000000000000, -0.000000000000000000 ) ) ;
#83 = DIRECTION ( 'NONE',  ( 1.000000000000000000, -0.000000000000000000, -0.000000000000000000 ) ) ;
#84 = AXIS2_PLACEMENT_3D ( 'NONE', #100, #230, #123 ) ;
#85 = LINE ( 'NONE', #179, #50 ) ;
#86 = EDGE_LOOP ( 'NONE', ( #193, #101 ) ) ;
#87 = DIRECTION ( 'NONE',  ( 1.000000000000000000, 0.000000000000000000, 0.000000000000000000 ) ) ;
#88 = CARTESIAN_POINT ( 'NONE',  ( 0.05750000000000000250, 0.000000000000000000, 0.02840000000000000163 ) ) ;
#89 = ORIENTED_EDGE ( 'NONE', *, *, #207, .F. ) ;
#90 = FACE_OUTER_BOUND ( 'NONE', #32, .T. ) ;
#91 = DIRECTION ( 'NONE',  ( 0.000000000000000000, 0.000000000000000000, -1.000000000000000000 ) ) ;
#92 = AXIS2_PLACEMENT_3D ( 'NONE', #218, #185, #266 ) ;
#93 = PRODUCT_CONTEXT ( 'NONE', #63, 'mechanical' ) ;
#94 = DIRECTION ( 'NONE',  ( 0.000000000000000000, 0.000000000000000000, 1.000000000000000000 ) ) ;
#95 = AXIS2_PLACEMENT_3D ( 'NONE', #145, #210, #252 ) ;
#96 = EDGE_CURVE ( 'NONE', #46, #283, #41, .T. ) ;
#97 = PRODUCT_DEFINITION_SHAPE ( 'NONE', 'NONE',  #201 ) ;
#98 = FACE_OUTER_BOUND ( 'NONE', #86, .T. ) ;
#99 = ADVANCED_FACE ( 'NONE', ( #262 ), #187, .T. ) ;
#100 = CARTESIAN_POINT ( 'NONE',  ( 0.002500000000000000052, 0.000000000000000000, 0.000000000000000000 ) ) ;
#101 = ORIENTED_EDGE ( 'NONE', *, *, #166, .T. ) ;
#102 = AXIS2_PLACEMENT_3D ( 'NONE', #171, #54, #6 ) ;
#103 = VERTEX_POINT ( 'NONE', #269 ) ;
#104 = CARTESIAN_POINT ( 'NONE',  ( 0.007500000000000006661, 2.865673510004806168E-18, 0.02340000000000000066 ) ) ;
#105 = EDGE_CURVE ( 'NONE', #10, #70, #110, .T. ) ;
#106 = CARTESIAN_POINT ( 'NONE',  ( 0.002500000000000000052, 0.000000000000000000, 0.000000000000000000 ) ) ;
#107 = DIRECTION ( 'NONE',  ( -1.000000000000000000, -0.000000000000000000, -0.000000000000000000 ) ) ;
#108 = ADVANCED_BREP_SHAPE_REPRESENTATION ( 'motor mount aligner', ( #172, #234 ), #194 ) ;
#109 = FACE_OUTER_BOUND ( 'NONE', #180, .T. ) ;
#110 = CIRCLE ( 'NONE', #147, 0.01300000000000000114 ) ;
#111 = CYLINDRICAL_SURFACE ( 'NONE', #270, 0.01300000000000000114 ) ;
#112 = ORIENTED_EDGE ( 'NONE', *, *, #2, .T. ) ;
#113 = ORIENTED_EDGE ( 'NONE', *, *, #251, .F. ) ;
#114 = DIRECTION ( 'NONE',  ( -1.000000000000000000, -0.000000000000000000, -0.000000000000000000 ) ) ;
#115 = EDGE_LOOP ( 'NONE', ( #136, #184, #64, #112 ) ) ;
#116 = ORIENTED_EDGE ( 'NONE', *, *, #105, .F. ) ;
#117 = CARTESIAN_POINT ( 'NONE',  ( 0.000000000000000000, 0.000000000000000000, 0.000000000000000000 ) ) ;
#118 = DIRECTION ( 'NONE',  ( 1.000000000000000000, 0.000000000000000000, 0.000000000000000000 ) ) ;
#119 = SHAPE_DEFINITION_REPRESENTATION ( #97, #108 ) ;
#120 = AXIS2_PLACEMENT_3D ( 'NONE', #163, #118, #1 ) ;
#121 = ADVANCED_FACE ( 'NONE', ( #109 ), #206, .F. ) ;
#122 = DIRECTION ( 'NONE',  ( -1.000000000000000000, -0.000000000000000000, -0.000000000000000000 ) ) ;
#123 = DIRECTION ( 'NONE',  ( 0.000000000000000000, 0.000000000000000000, -1.000000000000000000 ) ) ;
#124 = APPLICATION_CONTEXT ( 'automotive_design' ) ;
#125 = ORIENTED_EDGE ( 'NONE', *, *, #96, .T. ) ;
#126 = EDGE_LOOP ( 'NONE', ( #173, #89 ) ) ;
#127 = CIRCLE ( 'NONE', #92, 0.02840000000000000163 ) ;
#128 = PRODUCT_DEFINITION_FORMATION_WITH_SPECIFIED_SOURCE ( 'ANY', '', #143, .NOT_KNOWN. ) ;
#129 = EDGE_CURVE ( 'NONE', #261, #158, #127, .T. ) ;
#130 = CARTESIAN_POINT ( 'NONE',  ( 0.002500000000000000052, 0.000000000000000000, 0.000000000000000000 ) ) ;
#131 = CARTESIAN_POINT ( 'NONE',  ( 0.000000000000000000, 0.000000000000000000, 0.000000000000000000 ) ) ;
#132 = PRODUCT_DEFINITION_CONTEXT ( 'detailed design', #124, 'design' ) ;
#133 = CARTESIAN_POINT ( 'NONE',  ( 0.05750000000000000250, 0.000000000000000000, -0.02340000000000000066 ) ) ;
#134 = CARTESIAN_POINT ( 'NONE',  ( 0.007500000000000006661, 0.000000000000000000, 0.000000000000000000 ) ) ;
#135 = DIRECTION ( 'NONE',  ( 0.000000000000000000, 0.000000000000000000, -1.000000000000000000 ) ) ;
#136 = ORIENTED_EDGE ( 'NONE', *, *, #188, .F. ) ;
#137 = DIRECTION ( 'NONE',  ( 0.000000000000000000, 0.000000000000000000, -1.000000000000000000 ) ) ;
#138 = ORIENTED_EDGE ( 'NONE', *, *, #23, .T. ) ;
#139 = DIRECTION ( 'NONE',  ( 0.000000000000000000, 0.000000000000000000, -1.000000000000000000 ) ) ;
#140 = CIRCLE ( 'NONE', #95, 0.02840000000000000163 ) ;
#141 =( NAMED_UNIT ( * ) SI_UNIT ( $, .STERADIAN. ) SOLID_ANGLE_UNIT ( ) );
#142 = ADVANCED_FACE ( 'NONE', ( #197 ), #281, .T. ) ;
#143 = PRODUCT ( 'motor mount aligner', 'motor mount aligner', '', ( #93 ) ) ;
#144 = AXIS2_PLACEMENT_3D ( 'NONE', #169, #228, #27 ) ;
#145 = CARTESIAN_POINT ( 'NONE',  ( 0.002500000000000000052, 0.000000000000000000, 0.000000000000000000 ) ) ;
#146 = DIRECTION ( 'NONE',  ( 0.000000000000000000, 0.000000000000000000, -1.000000000000000000 ) ) ;
#147 = AXIS2_PLACEMENT_3D ( 'NONE', #131, #15, #257 ) ;
#148 = VECTOR ( 'NONE', #107, 1.000000000000000000 ) ;
#149 = DIRECTION ( 'NONE',  ( 1.000000000000000000, 0.000000000000000000, 0.000000000000000000 ) ) ;
#150 = EDGE_CURVE ( 'NONE', #158, #264, #72, .T. ) ;
#151 = ORIENTED_EDGE ( 'NONE', *, *, #188, .T. ) ;
#152 = ADVANCED_FACE ( 'NONE', ( #177 ), #226, .F. ) ;
#153 = UNCERTAINTY_MEASURE_WITH_UNIT (LENGTH_MEASURE( 1.000000000000000082E-05 ), #20, 'distance_accuracy_value', 'NONE');
#154 = CARTESIAN_POINT ( 'NONE',  ( 0.000000000000000000, 0.000000000000000000, 0.000000000000000000 ) ) ;
#155 = CARTESIAN_POINT ( 'NONE',  ( 0.007500000000000006661, 0.000000000000000000, 0.000000000000000000 ) ) ;
#156 = FILL_AREA_STYLE_COLOUR ( '', #208 ) ;
#157 = DIRECTION ( 'NONE',  ( 0.000000000000000000, 0.000000000000000000, -1.000000000000000000 ) ) ;
#158 = VERTEX_POINT ( 'NONE', #247 ) ;
#159 = DIRECTION ( 'NONE',  ( 0.000000000000000000, 0.000000000000000000, 1.000000000000000000 ) ) ;
#160 = DIRECTION ( 'NONE',  ( 1.000000000000000000, -0.000000000000000000, -0.000000000000000000 ) ) ;
#161 = ORIENTED_EDGE ( 'NONE', *, *, #49, .T. ) ;
#162 = ORIENTED_EDGE ( 'NONE', *, *, #31, .F. ) ;
#163 = CARTESIAN_POINT ( 'NONE',  ( 0.05750000000000000250, 0.000000000000000000, 0.000000000000000000 ) ) ;
#164 = AXIS2_PLACEMENT_3D ( 'NONE', #69, #263, #135 ) ;
#165 = DIRECTION ( 'NONE',  ( -1.000000000000000000, -0.000000000000000000, -0.000000000000000000 ) ) ;
#166 = EDGE_CURVE ( 'NONE', #158, #261, #174, .T. ) ;
#167 = CIRCLE ( 'NONE', #42, 0.02340000000000000066 ) ;
#168 = AXIS2_PLACEMENT_3D ( 'NONE', #260, #62, #277 ) ;
#169 = CARTESIAN_POINT ( 'NONE',  ( 0.05750000000000000250, 0.000000000000000000, 0.000000000000000000 ) ) ;
#170 = VECTOR ( 'NONE', #165, 1.000000000000000000 ) ;
#171 = CARTESIAN_POINT ( 'NONE',  ( 0.007500000000000006661, 0.000000000000000000, 0.000000000000000000 ) ) ;
#172 = MANIFOLD_SOLID_BREP ( 'Cut-Extrude1', #56 ) ;
#173 = ORIENTED_EDGE ( 'NONE', *, *, #229, .F. ) ;
#174 = CIRCLE ( 'NONE', #120, 0.02840000000000000163 ) ;
#175 = ORIENTED_EDGE ( 'NONE', *, *, #251, .T. ) ;
#176 = EDGE_CURVE ( 'NONE', #274, #195, #8, .T. ) ;
#177 = FACE_OUTER_BOUND ( 'NONE', #231, .T. ) ;
#178 = SURFACE_STYLE_FILL_AREA ( #235 ) ;
#179 = CARTESIAN_POINT ( 'NONE',  ( 0.002500000000000000052, 1.592040838891559303E-18, -0.01300000000000000114 ) ) ;
#180 = EDGE_LOOP ( 'NONE', ( #113, #162, #125, #205 ) ) ;
#181 = CARTESIAN_POINT ( 'NONE',  ( 0.007500000000000006661, 0.000000000000000000, -0.02340000000000000066 ) ) ;
#182 = DIRECTION ( 'NONE',  ( -1.000000000000000000, -0.000000000000000000, -0.000000000000000000 ) ) ;
#183 = ORIENTED_EDGE ( 'NONE', *, *, #250, .F. ) ;
#184 = ORIENTED_EDGE ( 'NONE', *, *, #49, .F. ) ;
#185 = DIRECTION ( 'NONE',  ( 1.000000000000000000, 0.000000000000000000, 0.000000000000000000 ) ) ;
#186 = CARTESIAN_POINT ( 'NONE',  ( 0.002500000000000000052, 3.477996909578482957E-18, -0.02840000000000000163 ) ) ;
#187 = CYLINDRICAL_SURFACE ( 'NONE', #29, 0.01300000000000000114 ) ;
#188 = EDGE_CURVE ( 'NONE', #274, #10, #85, .T. ) ;
#189 = STYLED_ITEM ( 'NONE', ( #38 ), #172 ) ;
#190 = PLANE ( 'NONE',  #144 ) ;
#191 = DIRECTION ( 'NONE',  ( 0.000000000000000000, 0.000000000000000000, 1.000000000000000000 ) ) ;
#192 = CIRCLE ( 'NONE', #209, 0.01300000000000000114 ) ;
#193 = ORIENTED_EDGE ( 'NONE', *, *, #129, .T. ) ;
#194 =( GEOMETRIC_REPRESENTATION_CONTEXT ( 3 ) GLOBAL_UNCERTAINTY_ASSIGNED_CONTEXT ( ( #153 ) ) GLOBAL_UNIT_ASSIGNED_CONTEXT ( ( #20, #275, #141 ) ) REPRESENTATION_CONTEXT ( 'NONE', 'WORKASPACE' ) );
#195 = VERTEX_POINT ( 'NONE', #35 ) ;
#196 = CARTESIAN_POINT ( 'NONE',  ( 0.002500000000000000052, 1.592040838891559303E-18, -0.01300000000000000114 ) ) ;
#197 = FACE_OUTER_BOUND ( 'NONE', #273, .T. ) ;
#198 = EDGE_LOOP ( 'NONE', ( #58, #116 ) ) ;
#199 = FACE_OUTER_BOUND ( 'NONE', #198, .T. ) ;
#200 = CARTESIAN_POINT ( 'NONE',  ( 0.002500000000000000052, 0.000000000000000000, 0.000000000000000000 ) ) ;
#201 = PRODUCT_DEFINITION ( 'UNKNOWN', '', #128, #132 ) ;
#202 = ORIENTED_EDGE ( 'NONE', *, *, #13, .F. ) ;
#203 = PLANE ( 'NONE',  #52 ) ;
#204 = PLANE ( 'NONE',  #73 ) ;
#205 = ORIENTED_EDGE ( 'NONE', *, *, #229, .T. ) ;
#206 = CYLINDRICAL_SURFACE ( 'NONE', #216, 0.02340000000000000066 ) ;
#207 = EDGE_CURVE ( 'NONE', #103, #283, #213, .T. ) ;
#208 = COLOUR_RGB ( '',0.7921568627450980005, 0.8196078431372548767, 0.9333333333333333481 ) ;
#209 = AXIS2_PLACEMENT_3D ( 'NONE', #57, #149, #146 ) ;
#210 = DIRECTION ( 'NONE',  ( 1.000000000000000000, 0.000000000000000000, 0.000000000000000000 ) ) ;
#211 = EDGE_CURVE ( 'NONE', #195, #70, #221, .T. ) ;
#212 = DIRECTION ( 'NONE',  ( 1.000000000000000000, 0.000000000000000000, 0.000000000000000000 ) ) ;
#213 = CIRCLE ( 'NONE', #168, 0.02340000000000000066 ) ;
#214 = ORIENTED_EDGE ( 'NONE', *, *, #166, .F. ) ;
#215 = ORIENTED_EDGE ( 'NONE', *, *, #105, .T. ) ;
#216 = AXIS2_PLACEMENT_3D ( 'NONE', #134, #243, #139 ) ;
#217 = DIRECTION ( 'NONE',  ( 1.000000000000000000, 0.000000000000000000, 0.000000000000000000 ) ) ;
#218 = CARTESIAN_POINT ( 'NONE',  ( 0.05750000000000000250, 0.000000000000000000, 0.000000000000000000 ) ) ;
#219 = CARTESIAN_POINT ( 'NONE',  ( 0.05750000000000000250, 0.000000000000000000, 0.02840000000000000163 ) ) ;
#220 = CARTESIAN_POINT ( 'NONE',  ( 0.05750000000000000250, 0.000000000000000000, 0.000000000000000000 ) ) ;
#221 = LINE ( 'NONE', #39, #148 ) ;
#222 = AXIS2_PLACEMENT_3D ( 'NONE', #220, #224, #19 ) ;
#223 = ORIENTED_EDGE ( 'NONE', *, *, #129, .F. ) ;
#224 = DIRECTION ( 'NONE',  ( -1.000000000000000000, -0.000000000000000000, -0.000000000000000000 ) ) ;
#225 = ORIENTED_EDGE ( 'NONE', *, *, #240, .T. ) ;
#226 = CYLINDRICAL_SURFACE ( 'NONE', #34, 0.02340000000000000066 ) ;
#227 = APPLICATION_PROTOCOL_DEFINITION ( 'draft international standard', 'automotive_design', 1998, #63 ) ;
#228 = DIRECTION ( 'NONE',  ( 1.000000000000000000, 0.000000000000000000, 0.000000000000000000 ) ) ;
#229 = EDGE_CURVE ( 'NONE', #283, #103, #245, .T. ) ;
#230 = DIRECTION ( 'NONE',  ( 1.000000000000000000, 0.000000000000000000, 0.000000000000000000 ) ) ;
#231 = EDGE_LOOP ( 'NONE', ( #202, #175, #284, #268 ) ) ;
#232 = ORIENTED_EDGE ( 'NONE', *, *, #240, .F. ) ;
#233 =( LENGTH_UNIT ( ) NAMED_UNIT ( * ) SI_UNIT ( $, .METRE. ) );
#234 = AXIS2_PLACEMENT_3D ( 'NONE', #117, #94, #51 ) ;
#235 = FILL_AREA_STYLE ('',( #156 ) ) ;
#236 = UNCERTAINTY_MEASURE_WITH_UNIT (LENGTH_MEASURE( 1.000000000000000082E-05 ), #233, 'distance_accuracy_value', 'NONE');
#237 = ADVANCED_FACE ( 'NONE', ( #279 ), #111, .T. ) ;
#238 = DIRECTION ( 'NONE',  ( 1.000000000000000000, 0.000000000000000000, 0.000000000000000000 ) ) ;
#239 = CARTESIAN_POINT ( 'NONE',  ( 0.002500000000000000052, 0.000000000000000000, 0.000000000000000000 ) ) ;
#240 = EDGE_CURVE ( 'NONE', #45, #264, #43, .T. ) ;
#241 =( NAMED_UNIT ( * ) SI_UNIT ( $, .STERADIAN. ) SOLID_ANGLE_UNIT ( ) );
#242 = EDGE_LOOP ( 'NONE', ( #161, #21 ) ) ;
#243 = DIRECTION ( 'NONE',  ( 1.000000000000000000, -0.000000000000000000, -0.000000000000000000 ) ) ;
#244 = DIRECTION ( 'NONE',  ( -1.000000000000000000, -0.000000000000000000, -0.000000000000000000 ) ) ;
#245 = CIRCLE ( 'NONE', #80, 0.02340000000000000066 ) ;
#246 = ORIENTED_EDGE ( 'NONE', *, *, #250, .T. ) ;
#247 = CARTESIAN_POINT ( 'NONE',  ( 0.05750000000000000250, 3.477996909578482957E-18, -0.02840000000000000163 ) ) ;
#248 = DIRECTION ( 'NONE',  ( 0.000000000000000000, 0.000000000000000000, 1.000000000000000000 ) ) ;
#249 = VECTOR ( 'NONE', #160, 1.000000000000000000 ) ;
#250 = EDGE_CURVE ( 'NONE', #261, #45, #14, .T. ) ;
#251 = EDGE_CURVE ( 'NONE', #256, #103, #66, .T. ) ;
#252 = DIRECTION ( 'NONE',  ( 0.000000000000000000, 0.000000000000000000, -1.000000000000000000 ) ) ;
#253 = CARTESIAN_POINT ( 'NONE',  ( 0.000000000000000000, 1.592040838891559303E-18, -0.01300000000000000114 ) ) ;
#254 = ORIENTED_EDGE ( 'NONE', *, *, #23, .F. ) ;
#255 = MECHANICAL_DESIGN_GEOMETRIC_PRESENTATION_REPRESENTATION (  '', ( #189 ), #30 ) ;
#256 = VERTEX_POINT ( 'NONE', #104 ) ;
#257 = DIRECTION ( 'NONE',  ( 0.000000000000000000, 0.000000000000000000, -1.000000000000000000 ) ) ;
#258 = AXIS2_PLACEMENT_3D ( 'NONE', #74, #122, #191 ) ;
#259 = SURFACE_SIDE_STYLE ('',( #178 ) ) ;
#260 = CARTESIAN_POINT ( 'NONE',  ( 0.05750000000000000250, 0.000000000000000000, 0.000000000000000000 ) ) ;
#261 = VERTEX_POINT ( 'NONE', #219 ) ;
#262 = FACE_OUTER_BOUND ( 'NONE', #115, .T. ) ;
#263 = DIRECTION ( 'NONE',  ( 1.000000000000000000, 0.000000000000000000, 0.000000000000000000 ) ) ;
#264 = VERTEX_POINT ( 'NONE', #186 ) ;
#265 = ORIENTED_EDGE ( 'NONE', *, *, #13, .T. ) ;
#266 = DIRECTION ( 'NONE',  ( 0.000000000000000000, 0.000000000000000000, -1.000000000000000000 ) ) ;
#267 = CIRCLE ( 'NONE', #84, 0.01300000000000000114 ) ;
#268 = ORIENTED_EDGE ( 'NONE', *, *, #96, .F. ) ;
#269 = CARTESIAN_POINT ( 'NONE',  ( 0.05750000000000000250, 2.865673510004806168E-18, 0.02340000000000000066 ) ) ;
#270 = AXIS2_PLACEMENT_3D ( 'NONE', #200, #82, #248 ) ;
#271 = CARTESIAN_POINT ( 'NONE',  ( 0.002500000000000000052, 0.000000000000000000, 0.02840000000000000163 ) ) ;
#272 = CYLINDRICAL_SURFACE ( 'NONE', #258, 0.02840000000000000163 ) ;
#273 = EDGE_LOOP ( 'NONE', ( #214, #18, #138, #183 ) ) ;
#274 = VERTEX_POINT ( 'NONE', #196 ) ;
#275 =( NAMED_UNIT ( * ) PLANE_ANGLE_UNIT ( ) SI_UNIT ( $, .RADIAN. ) );
#276 = ADVANCED_FACE ( 'NONE', ( #44 ), #204, .T. ) ;
#277 = DIRECTION ( 'NONE',  ( 0.000000000000000000, 0.000000000000000000, -1.000000000000000000 ) ) ;
#278 = CARTESIAN_POINT ( 'NONE',  ( 0.05750000000000000250, 3.477996909578482957E-18, -0.02840000000000000163 ) ) ;
#279 = FACE_OUTER_BOUND ( 'NONE', #67, .T. ) ;
#280 = EDGE_LOOP ( 'NONE', ( #81, #223, #246, #225 ) ) ;
#281 = CYLINDRICAL_SURFACE ( 'NONE', #222, 0.02840000000000000163 ) ;
#282 =( NAMED_UNIT ( * ) PLANE_ANGLE_UNIT ( ) SI_UNIT ( $, .RADIAN. ) );
#283 = VERTEX_POINT ( 'NONE', #133 ) ;
#284 = ORIENTED_EDGE ( 'NONE', *, *, #207, .T. ) ;
#285 = CARTESIAN_POINT ( 'NONE',  ( 0.000000000000000000, 0.000000000000000000, 0.01300000000000000114 ) ) ;
ENDSEC;
END-ISO-10303-21;
