ISO-10303-21;
HEADER;
FILE_DESCRIPTION (( 'STEP AP214' ),
    '1' );
FILE_NAME ('new lazy susan bearing.STEP',
    '2026-02-19T15:21:20',
    ( '' ),
    ( '' ),
    'SwSTEP 2.0',
    'SolidWorks 2023',
    '' );
FILE_SCHEMA (( 'AUTOMOTIVE_DESIGN' ));
ENDSEC;

DATA;
#1 = ORIENTED_EDGE ( 'NONE', *, *, #5, .F. ) ;
#2 = AXIS2_PLACEMENT_3D ( 'NONE', #108, #104, #295 ) ;
#3 = DIRECTION ( 'NONE',  ( -1.000000000000000000, 0.000000000000000000, 0.000000000000000000 ) ) ;
#4 = VERTEX_POINT ( 'NONE', #223 ) ;
#5 = EDGE_CURVE ( 'NONE', #698, #4, #245, .T. ) ;
#6 = EDGE_CURVE ( 'NONE', #727, #591, #824, .T. ) ;
#7 = AXIS2_PLACEMENT_3D ( 'NONE', #668, #308, #498 ) ;
#8 = AXIS2_PLACEMENT_3D ( 'NONE', #45, #172, #537 ) ;
#9 = CARTESIAN_POINT ( 'NONE',  ( 96.00000000000000000, 0.000000000000000000, 0.5999999999999999778 ) ) ;
#10 = VERTEX_POINT ( 'NONE', #57 ) ;
#11 = DIRECTION ( 'NONE',  ( 1.000000000000000000, 0.000000000000000000, 0.000000000000000000 ) ) ;
#12 = ORIENTED_EDGE ( 'NONE', *, *, #503, .T. ) ;
#13 = CARTESIAN_POINT ( 'NONE',  ( 87.00000000000001421, 7.000000000000006217, 0.000000000000000000 ) ) ;
#14 = CIRCLE ( 'NONE', #580, 2.000000000000000000 ) ;
#15 = CARTESIAN_POINT ( 'NONE',  ( 6.999999999999992006, 89.00000000000000000, 0.6000000000000033085 ) ) ;
#16 = CIRCLE ( 'NONE', #297, 2.000000000000000888 ) ;
#17 = DIRECTION ( 'NONE',  ( -0.000000000000000000, -0.000000000000000000, -1.000000000000000000 ) ) ;
#18 = AXIS2_PLACEMENT_3D ( 'NONE', #771, #710, #138 ) ;
#19 = ORIENTED_EDGE ( 'NONE', *, *, #700, .T. ) ;
#20 = CARTESIAN_POINT ( 'NONE',  ( 48.00000000000000000, 48.00000000000000000, 0.5999999999999999778 ) ) ;
#21 = FACE_OUTER_BOUND ( 'NONE', #482, .T. ) ;
#22 = ORIENTED_EDGE ( 'NONE', *, *, #642, .T. ) ;
#23 = ORIENTED_EDGE ( 'NONE', *, *, #444, .T. ) ;
#24 = ORIENTED_EDGE ( 'NONE', *, *, #444, .F. ) ;
#25 = CARTESIAN_POINT ( 'NONE',  ( 48.00000000000000000, 48.00000000000000000, 0.000000000000000000 ) ) ;
#26 = CARTESIAN_POINT ( 'NONE',  ( 48.00000000000000000, 48.00000000000000000, 3.100000000000000089 ) ) ;
#27 = CARTESIAN_POINT ( 'NONE',  ( 89.00000000000001421, 89.00000000000000000, 0.000000000000000000 ) ) ;
#28 = ORIENTED_EDGE ( 'NONE', *, *, #202, .T. ) ;
#29 = ORIENTED_EDGE ( 'NONE', *, *, #91, .T. ) ;
#30 = CARTESIAN_POINT ( 'NONE',  ( 86.00000000000000000, 9.999999999999998224, 0.000000000000000000 ) ) ;
#31 = AXIS2_PLACEMENT_3D ( 'NONE', #20, #159, #511 ) ;
#32 = ORIENTED_EDGE ( 'NONE', *, *, #448, .T. ) ;
#33 = EDGE_CURVE ( 'NONE', #788, #764, #167, .T. ) ;
#34 = VERTEX_POINT ( 'NONE', #301 ) ;
#35 = CYLINDRICAL_SURFACE ( 'NONE', #527, 2.000000000000001776 ) ;
#36 = SURFACE_SIDE_STYLE ('',( #726 ) ) ;
#37 = ORIENTED_EDGE ( 'NONE', *, *, #749, .T. ) ;
#38 = EDGE_LOOP ( 'NONE', ( #260, #401, #601, #392 ) ) ;
#39 = CARTESIAN_POINT ( 'NONE',  ( 89.00000000000001421, 7.000000000000006217, 0.000000000000000000 ) ) ;
#40 = DIRECTION ( 'NONE',  ( -0.000000000000000000, 0.000000000000000000, 1.000000000000000000 ) ) ;
#41 = ORIENTED_EDGE ( 'NONE', *, *, #627, .F. ) ;
#42 = EDGE_CURVE ( 'NONE', #693, #10, #813, .T. ) ;
#43 = EDGE_CURVE ( 'NONE', #412, #723, #486, .T. ) ;
#44 = VERTEX_POINT ( 'NONE', #572 ) ;
#45 = CARTESIAN_POINT ( 'NONE',  ( 48.00000000000000000, 48.00000000000000000, 3.100000000000000089 ) ) ;
#46 = CARTESIAN_POINT ( 'NONE',  ( 20.69999999999999929, 48.00000000000000000, 0.000000000000000000 ) ) ;
#47 = DIRECTION ( 'NONE',  ( 1.000000000000000000, 0.000000000000000000, 0.000000000000000000 ) ) ;
#48 = AXIS2_PLACEMENT_3D ( 'NONE', #188, #442, #258 ) ;
#49 = VECTOR ( 'NONE', #795, 1000.000000000000000 ) ;
#50 = CARTESIAN_POINT ( 'NONE',  ( 10.00000000000007105, 0.000000000000000000, 0.000000000000000000 ) ) ;
#51 = CIRCLE ( 'NONE', #742, 9.999999999999994671 ) ;
#52 = ADVANCED_FACE ( 'NONE', ( #149 ), #267, .F. ) ;
#53 = CARTESIAN_POINT ( 'NONE',  ( 10.00000000000000000, 86.00000000000000000, -74.00000000000000000 ) ) ;
#54 = EDGE_LOOP ( 'NONE', ( #19, #566, #596, #136 ) ) ;
#55 = DIRECTION ( 'NONE',  ( -0.000000000000000000, -0.000000000000000000, -1.000000000000000000 ) ) ;
#56 = ORIENTED_EDGE ( 'NONE', *, *, #68, .T. ) ;
#57 = CARTESIAN_POINT ( 'NONE',  ( 96.00000000000000000, 85.99999999999994316, 0.5999999999999999778 ) ) ;
#58 = AXIS2_PLACEMENT_3D ( 'NONE', #25, #789, #272 ) ;
#59 = CARTESIAN_POINT ( 'NONE',  ( 87.00000000000001421, 89.00000000000000000, 74.59999999999999432 ) ) ;
#60 = ORIENTED_EDGE ( 'NONE', *, *, #671, .T. ) ;
#61 = CARTESIAN_POINT ( 'NONE',  ( 10.00000000000007105, 96.00000000000000000, -74.00000000000000000 ) ) ;
#62 = ORIENTED_EDGE ( 'NONE', *, *, #673, .T. ) ;
#63 = VECTOR ( 'NONE', #579, 1000.000000000000000 ) ;
#64 = EDGE_CURVE ( 'NONE', #461, #443, #716, .T. ) ;
#65 = DIRECTION ( 'NONE',  ( -0.000000000000000000, -0.000000000000000000, -1.000000000000000000 ) ) ;
#66 = ORIENTED_EDGE ( 'NONE', *, *, #203, .T. ) ;
#67 = EDGE_CURVE ( 'NONE', #532, #228, #255, .T. ) ;
#68 = EDGE_CURVE ( 'NONE', #331, #400, #715, .T. ) ;
#69 = CYLINDRICAL_SURFACE ( 'NONE', #556, 2.000000000000001776 ) ;
#70 = ADVANCED_FACE ( 'NONE', ( #466 ), #725, .F. ) ;
#71 = AXIS2_PLACEMENT_3D ( 'NONE', #506, #125, #319 ) ;
#72 = AXIS2_PLACEMENT_3D ( 'NONE', #544, #424, #811 ) ;
#73 = FACE_OUTER_BOUND ( 'NONE', #512, .T. ) ;
#74 = VERTEX_POINT ( 'NONE', #730 ) ;
#75 = EDGE_CURVE ( 'NONE', #4, #698, #432, .T. ) ;
#76 = CARTESIAN_POINT ( 'NONE',  ( 48.00000000000000000, 48.00000000000000000, -74.00000000000000000 ) ) ;
#77 = VERTEX_POINT ( 'NONE', #225 ) ;
#78 = PRODUCT_DEFINITION_CONTEXT ( 'detailed design', #332, 'design' ) ;
#79 = CARTESIAN_POINT ( 'NONE',  ( -1.275673749111848496E-17, 10.00000000000007105, 0.5999999999999999778 ) ) ;
#80 = DIRECTION ( 'NONE',  ( -0.6691306063588586817, 8.194486552889038185E-17, 0.7431448254773938000 ) ) ;
#81 = ORIENTED_EDGE ( 'NONE', *, *, #33, .F. ) ;
#82 = CIRCLE ( 'NONE', #184, 2.000000000000001776 ) ;
#83 = DIRECTION ( 'NONE',  ( -0.000000000000000000, -0.000000000000000000, 1.000000000000000000 ) ) ;
#84 = ORIENTED_EDGE ( 'NONE', *, *, #562, .T. ) ;
#85 = CARTESIAN_POINT ( 'NONE',  ( 10.00000000000000000, 86.00000000000000000, 0.000000000000000000 ) ) ;
#86 = CARTESIAN_POINT ( 'NONE',  ( 87.00000000000001421, 89.00000000000000000, 0.6000000000000033085 ) ) ;
#87 = ADVANCED_FACE ( 'NONE', ( #477, #664, #802, #230, #667, #677 ), #368, .T. ) ;
#88 = DIRECTION ( 'NONE',  ( 1.000000000000000000, 0.000000000000000000, 0.000000000000000000 ) ) ;
#89 = VERTEX_POINT ( 'NONE', #758 ) ;
#90 = ORIENTED_EDGE ( 'NONE', *, *, #147, .F. ) ;
#91 = EDGE_CURVE ( 'NONE', #723, #412, #656, .T. ) ;
#92 = CARTESIAN_POINT ( 'NONE',  ( 6.999999999999992006, 89.00000000000000000, 0.000000000000000000 ) ) ;
#93 = DIRECTION ( 'NONE',  ( 0.000000000000000000, 1.000000000000000000, 0.000000000000000000 ) ) ;
#94 = ORIENTED_EDGE ( 'NONE', *, *, #68, .F. ) ;
#95 = EDGE_LOOP ( 'NONE', ( #94, #450, #655, #660 ) ) ;
#96 = CARTESIAN_POINT ( 'NONE',  ( 4.999999999999991118, 89.00000000000000000, 0.6000000000000033085 ) ) ;
#97 = SURFACE_STYLE_USAGE ( .BOTH. , #36 ) ;
#98 = VECTOR ( 'NONE', #380, 1000.000000000000000 ) ;
#99 = ORIENTED_EDGE ( 'NONE', *, *, #151, .T. ) ;
#100 = EDGE_LOOP ( 'NONE', ( #540, #518, #598, #145, #352, #284, #246, #183 ) ) ;
#101 = CARTESIAN_POINT ( 'NONE',  ( 91.00000000000001421, 7.000000000000006217, 74.59999999999999432 ) ) ;
#102 = CYLINDRICAL_SURFACE ( 'NONE', #481, 9.999999999999996447 ) ;
#103 = VERTEX_POINT ( 'NONE', #314 ) ;
#104 = DIRECTION ( 'NONE',  ( 0.000000000000000000, 0.000000000000000000, -1.000000000000000000 ) ) ;
#105 = LINE ( 'NONE', #224, #186 ) ;
#106 = FACE_OUTER_BOUND ( 'NONE', #209, .T. ) ;
#107 = AXIS2_PLACEMENT_3D ( 'NONE', #575, #731, #88 ) ;
#108 = CARTESIAN_POINT ( 'NONE',  ( 89.00000000000001421, 89.00000000000000000, 0.000000000000000000 ) ) ;
#109 =( LENGTH_UNIT ( ) NAMED_UNIT ( * ) SI_UNIT ( .MILLI., .METRE. ) );
#110 = DIRECTION ( 'NONE',  ( 1.445602896647339163E-16, -1.000000000000000000, 0.000000000000000000 ) ) ;
#111 = AXIS2_PLACEMENT_3D ( 'NONE', #757, #231, #174 ) ;
#112 = CIRCLE ( 'NONE', #543, 2.000000000000001776 ) ;
#113 = LINE ( 'NONE', #369, #644 ) ;
#114 = DIRECTION ( 'NONE',  ( 1.000000000000000000, 0.000000000000000000, 0.000000000000000000 ) ) ;
#115 = DIRECTION ( 'NONE',  ( -0.000000000000000000, -0.000000000000000000, -1.000000000000000000 ) ) ;
#116 = PRESENTATION_LAYER_ASSIGNMENT (  '', '', ( #567 ) ) ;
#117 = ORIENTED_EDGE ( 'NONE', *, *, #640, .T. ) ;
#118 = CARTESIAN_POINT ( 'NONE',  ( 48.00000000000000000, 48.00000000000000000, 0.5999999999999999778 ) ) ;
#119 = FACE_OUTER_BOUND ( 'NONE', #559, .T. ) ;
#120 =( GEOMETRIC_REPRESENTATION_CONTEXT ( 3 ) GLOBAL_UNCERTAINTY_ASSIGNED_CONTEXT ( ( #328 ) ) GLOBAL_UNIT_ASSIGNED_CONTEXT ( ( #649, #214, #781 ) ) REPRESENTATION_CONTEXT ( 'NONE', 'WORKASPACE' ) );
#121 = AXIS2_PLACEMENT_3D ( 'NONE', #39, #750, #533 ) ;
#122 = EDGE_CURVE ( 'NONE', #77, #44, #761, .T. ) ;
#123 = AXIS2_PLACEMENT_3D ( 'NONE', #553, #421, #669 ) ;
#124 = ADVANCED_FACE ( 'NONE', ( #177 ), #500, .T. ) ;
#125 = DIRECTION ( 'NONE',  ( -0.000000000000000000, 0.000000000000000000, 1.000000000000000000 ) ) ;
#126 = ORIENTED_EDGE ( 'NONE', *, *, #505, .T. ) ;
#127 = ADVANCED_FACE ( 'NONE', ( #763 ), #386, .T. ) ;
#128 = CARTESIAN_POINT ( 'NONE',  ( 86.00000000000000000, 86.00000000000001421, -74.00000000000000000 ) ) ;
#129 = ORIENTED_EDGE ( 'NONE', *, *, #814, .T. ) ;
#130 = AXIS2_PLACEMENT_3D ( 'NONE', #338, #221, #474 ) ;
#131 = EDGE_CURVE ( 'NONE', #788, #563, #696, .T. ) ;
#132 = CARTESIAN_POINT ( 'NONE',  ( 96.00000000000000000, 85.99999999999994316, -74.00000000000000000 ) ) ;
#133 = LINE ( 'NONE', #192, #792 ) ;
#134 = VERTEX_POINT ( 'NONE', #632 ) ;
#135 = FACE_OUTER_BOUND ( 'NONE', #692, .T. ) ;
#136 = ORIENTED_EDGE ( 'NONE', *, *, #67, .F. ) ;
#137 = VECTOR ( 'NONE', #164, 1000.000000000000000 ) ;
#138 = DIRECTION ( 'NONE',  ( 1.000000000000000000, 0.000000000000000000, 0.000000000000000000 ) ) ;
#139 = DIRECTION ( 'NONE',  ( 0.000000000000000000, 1.000000000000000000, 0.000000000000000000 ) ) ;
#140 = ORIENTED_EDGE ( 'NONE', *, *, #367, .T. ) ;
#141 = DIRECTION ( 'NONE',  ( -0.000000000000000000, -0.000000000000000000, -1.000000000000000000 ) ) ;
#142 = CARTESIAN_POINT ( 'NONE',  ( 96.00000000000000000, 0.000000000000000000, 0.000000000000000000 ) ) ;
#143 = DIRECTION ( 'NONE',  ( -0.000000000000000000, -0.000000000000000000, 1.000000000000000000 ) ) ;
#144 = CARTESIAN_POINT ( 'NONE',  ( 86.00000000000000000, 9.999999999999998224, 0.5999999999999999778 ) ) ;
#145 = ORIENTED_EDGE ( 'NONE', *, *, #810, .T. ) ;
#146 = ORIENTED_EDGE ( 'NONE', *, *, #204, .T. ) ;
#147 = EDGE_CURVE ( 'NONE', #44, #605, #733, .T. ) ;
#148 = VECTOR ( 'NONE', #501, 1000.000000000000000 ) ;
#149 = FACE_OUTER_BOUND ( 'NONE', #193, .T. ) ;
#150 = CARTESIAN_POINT ( 'NONE',  ( -1.097079424236180992E-16, 85.99999999999994316, -74.00000000000000000 ) ) ;
#151 = EDGE_CURVE ( 'NONE', #657, #294, #458, .T. ) ;
#152 = CARTESIAN_POINT ( 'NONE',  ( 20.69999999999998863, 48.00000000000000000, 0.5999999999999999778 ) ) ;
#153 = VERTEX_POINT ( 'NONE', #160 ) ;
#154 = ORIENTED_EDGE ( 'NONE', *, *, #753, .T. ) ;
#155 = CARTESIAN_POINT ( 'NONE',  ( 4.999999999999991118, 89.00000000000000000, 74.59999999999999432 ) ) ;
#156 = DIRECTION ( 'NONE',  ( 0.000000000000000000, 0.000000000000000000, -1.000000000000000000 ) ) ;
#157 = EDGE_LOOP ( 'NONE', ( #117, #23 ) ) ;
#158 = ORIENTED_EDGE ( 'NONE', *, *, #471, .T. ) ;
#159 = DIRECTION ( 'NONE',  ( 0.000000000000000000, 0.000000000000000000, 1.000000000000000000 ) ) ;
#160 = CARTESIAN_POINT ( 'NONE',  ( 91.00000000000001421, 7.000000000000006217, 0.000000000000000000 ) ) ;
#161 = EDGE_LOOP ( 'NONE', ( #233, #322 ) ) ;
#162 = ORIENTED_EDGE ( 'NONE', *, *, #42, .F. ) ;
#163 = CARTESIAN_POINT ( 'NONE',  ( 86.00000000000000000, 86.00000000000001421, 0.000000000000000000 ) ) ;
#164 = DIRECTION ( 'NONE',  ( -0.6691306063588586817, -8.194486552889038185E-17, -0.7431448254773938000 ) ) ;
#165 = AXIS2_PLACEMENT_3D ( 'NONE', #249, #403, #582 ) ;
#166 = ORIENTED_EDGE ( 'NONE', *, *, #814, .F. ) ;
#167 = CIRCLE ( 'NONE', #123, 9.999999999999998224 ) ;
#168 = VERTEX_POINT ( 'NONE', #589 ) ;
#169 = FACE_BOUND ( 'NONE', #416, .T. ) ;
#170 = ORIENTED_EDGE ( 'NONE', *, *, #652, .T. ) ;
#171 = MANIFOLD_SOLID_BREP ( 'Boss-Extrude3', #546 ) ;
#172 = DIRECTION ( 'NONE',  ( 0.000000000000000000, 0.000000000000000000, 1.000000000000000000 ) ) ;
#173 = DIRECTION ( 'NONE',  ( 1.000000000000000000, 0.000000000000000000, 0.000000000000000000 ) ) ;
#174 = DIRECTION ( 'NONE',  ( 1.000000000000000000, 0.000000000000000000, 0.000000000000000000 ) ) ;
#175 = CIRCLE ( 'NONE', #48, 9.999999999999998224 ) ;
#176 = CIRCLE ( 'NONE', #121, 2.000000000000001776 ) ;
#177 = FACE_OUTER_BOUND ( 'NONE', #592, .T. ) ;
#178 = CARTESIAN_POINT ( 'NONE',  ( 10.69999999999998685, 47.99999999999999289, 0.5999999999999999778 ) ) ;
#179 = ORIENTED_EDGE ( 'NONE', *, *, #42, .T. ) ;
#180 = DIRECTION ( 'NONE',  ( -1.000000000000000000, -1.445602896647339163E-16, 0.000000000000000000 ) ) ;
#181 = EDGE_CURVE ( 'NONE', #605, #44, #578, .T. ) ;
#182 = LINE ( 'NONE', #59, #98 ) ;
#183 = ORIENTED_EDGE ( 'NONE', *, *, #33, .T. ) ;
#184 = AXIS2_PLACEMENT_3D ( 'NONE', #394, #275, #405 ) ;
#185 = AXIS2_PLACEMENT_3D ( 'NONE', #76, #452, #398 ) ;
#186 = VECTOR ( 'NONE', #476, 1000.000000000000000 ) ;
#187 = AXIS2_PLACEMENT_3D ( 'NONE', #429, #365, #47 ) ;
#188 = CARTESIAN_POINT ( 'NONE',  ( 9.999999999999998224, 9.999999999999998224, 0.5999999999999999778 ) ) ;
#189 = ADVANCED_FACE ( 'NONE', ( #21 ), #706, .F. ) ;
#190 = DIRECTION ( 'NONE',  ( 1.000000000000000000, 0.000000000000000000, 0.000000000000000000 ) ) ;
#191 = DIRECTION ( 'NONE',  ( 0.000000000000000000, 0.000000000000000000, 1.000000000000000000 ) ) ;
#192 = CARTESIAN_POINT ( 'NONE',  ( 96.00000000000000000, 0.000000000000000000, 0.5999999999999999778 ) ) ;
#193 = EDGE_LOOP ( 'NONE', ( #470, #330, #666, #786 ) ) ;
#194 = DIRECTION ( 'NONE',  ( 1.000000000000000000, 0.000000000000000000, 0.000000000000000000 ) ) ;
#195 = ORIENTED_EDGE ( 'NONE', *, *, #43, .F. ) ;
#196 = UNCERTAINTY_MEASURE_WITH_UNIT (LENGTH_MEASURE( 1.000000000000000082E-05 ), #109, 'distance_accuracy_value', 'NONE');
#197 = AXIS2_PLACEMENT_3D ( 'NONE', #9, #626, #573 ) ;
#198 = LINE ( 'NONE', #259, #396 ) ;
#199 = LINE ( 'NONE', #712, #695 ) ;
#200 = CARTESIAN_POINT ( 'NONE',  ( 91.00000000000001421, 7.000000000000006217, 0.6000000000000033085 ) ) ;
#201 = PRESENTATION_STYLE_ASSIGNMENT (( #97 ) ) ;
#202 = EDGE_CURVE ( 'NONE', #727, #4, #206, .T. ) ;
#203 = EDGE_CURVE ( 'NONE', #77, #679, #82, .T. ) ;
#204 = EDGE_CURVE ( 'NONE', #103, #646, #199, .T. ) ;
#205 = DIRECTION ( 'NONE',  ( -0.000000000000000000, 0.000000000000000000, 1.000000000000000000 ) ) ;
#206 = LINE ( 'NONE', #152, #435 ) ;
#207 = ORIENTED_EDGE ( 'NONE', *, *, #775, .T. ) ;
#208 = EDGE_CURVE ( 'NONE', #89, #693, #524, .T. ) ;
#209 = EDGE_LOOP ( 'NONE', ( #574, #154, #347, #713 ) ) ;
#210 = DIRECTION ( 'NONE',  ( 1.000000000000000000, 0.000000000000000000, 0.000000000000000000 ) ) ;
#211 = FACE_OUTER_BOUND ( 'NONE', #38, .T. ) ;
#212 = AXIS2_PLACEMENT_3D ( 'NONE', #610, #816, #414 ) ;
#213 = DIRECTION ( 'NONE',  ( -0.000000000000000000, -0.000000000000000000, -1.000000000000000000 ) ) ;
#214 =( NAMED_UNIT ( * ) PLANE_ANGLE_UNIT ( ) SI_UNIT ( $, .RADIAN. ) );
#215 = VECTOR ( 'NONE', #219, 1000.000000000000000 ) ;
#216 = ORIENTED_EDGE ( 'NONE', *, *, #571, .T. ) ;
#217 = EDGE_CURVE ( 'NONE', #591, #727, #561, .T. ) ;
#218 = ORIENTED_EDGE ( 'NONE', *, *, #381, .T. ) ;
#219 = DIRECTION ( 'NONE',  ( -0.000000000000000000, -0.000000000000000000, -1.000000000000000000 ) ) ;
#220 = LINE ( 'NONE', #390, #765 ) ;
#221 = DIRECTION ( 'NONE',  ( 0.000000000000000000, 0.000000000000000000, -1.000000000000000000 ) ) ;
#222 = ORIENTED_EDGE ( 'NONE', *, *, #271, .T. ) ;
#223 = CARTESIAN_POINT ( 'NONE',  ( 18.44898988925538674, 48.00000000000000000, 3.100000000000000089 ) ) ;
#224 = CARTESIAN_POINT ( 'NONE',  ( 87.00000000000001421, 7.000000000000006217, 74.59999999999999432 ) ) ;
#225 = CARTESIAN_POINT ( 'NONE',  ( 91.00000000000001421, 89.00000000000000000, 0.6000000000000033085 ) ) ;
#226 = FACE_BOUND ( 'NONE', #346, .T. ) ;
#227 = ORIENTED_EDGE ( 'NONE', *, *, #381, .F. ) ;
#228 = VERTEX_POINT ( 'NONE', #283 ) ;
#229 = VECTOR ( 'NONE', #701, 1000.000000000000000 ) ;
#230 = FACE_BOUND ( 'NONE', #389, .T. ) ;
#231 = DIRECTION ( 'NONE',  ( -0.000000000000000000, 0.000000000000000000, 1.000000000000000000 ) ) ;
#232 =( GEOMETRIC_REPRESENTATION_CONTEXT ( 3 ) GLOBAL_UNCERTAINTY_ASSIGNED_CONTEXT ( ( #196 ) ) GLOBAL_UNIT_ASSIGNED_CONTEXT ( ( #109, #741, #366 ) ) REPRESENTATION_CONTEXT ( 'NONE', 'WORKASPACE' ) );
#233 = ORIENTED_EDGE ( 'NONE', *, *, #642, .F. ) ;
#234 = CARTESIAN_POINT ( 'NONE',  ( 89.00000000000001421, 89.00000000000000000, 74.59999999999999432 ) ) ;
#235 = CARTESIAN_POINT ( 'NONE',  ( 91.00000000000001421, 89.00000000000000000, 74.59999999999999432 ) ) ;
#236 = DIRECTION ( 'NONE',  ( -0.000000000000000000, -0.000000000000000000, 1.000000000000000000 ) ) ;
#237 = ADVANCED_FACE ( 'NONE', ( #456 ), #531, .F. ) ;
#238 = EDGE_CURVE ( 'NONE', #355, #168, #445, .T. ) ;
#239 = PLANE ( 'NONE',  #631 ) ;
#240 = CARTESIAN_POINT ( 'NONE',  ( 0.000000000000000000, 0.000000000000000000, 0.5999999999999999778 ) ) ;
#241 = CARTESIAN_POINT ( 'NONE',  ( 87.00000000000001421, 7.000000000000006217, 0.6000000000000033085 ) ) ;
#242 = EDGE_CURVE ( 'NONE', #591, #698, #594, .T. ) ;
#243 = FACE_OUTER_BOUND ( 'NONE', #447, .T. ) ;
#244 = LINE ( 'NONE', #812, #496 ) ;
#245 = CIRCLE ( 'NONE', #187, 29.55101011074460970 ) ;
#246 = ORIENTED_EDGE ( 'NONE', *, *, #131, .F. ) ;
#247 = LINE ( 'NONE', #61, #570 ) ;
#248 = ORIENTED_EDGE ( 'NONE', *, *, #417, .T. ) ;
#249 = CARTESIAN_POINT ( 'NONE',  ( 86.00000000000000000, 9.999999999999998224, -74.00000000000000000 ) ) ;
#250 = ORIENTED_EDGE ( 'NONE', *, *, #367, .F. ) ;
#251 = DIRECTION ( 'NONE',  ( 0.000000000000000000, 0.000000000000000000, 1.000000000000000000 ) ) ;
#252 = ORIENTED_EDGE ( 'NONE', *, *, #266, .F. ) ;
#253 = AXIS2_PLACEMENT_3D ( 'NONE', #499, #383, #11 ) ;
#254 = DIRECTION ( 'NONE',  ( -0.000000000000000000, -0.000000000000000000, 1.000000000000000000 ) ) ;
#255 = CIRCLE ( 'NONE', #662, 9.999999999999996447 ) ;
#256 = FACE_BOUND ( 'NONE', #342, .T. ) ;
#257 = ORIENTED_EDGE ( 'NONE', *, *, #263, .T. ) ;
#258 = DIRECTION ( 'NONE',  ( -1.000000000000000000, 0.000000000000000000, 0.000000000000000000 ) ) ;
#259 = CARTESIAN_POINT ( 'NONE',  ( 85.99999999999994316, 96.00000000000001421, -74.00000000000000000 ) ) ;
#260 = ORIENTED_EDGE ( 'NONE', *, *, #202, .F. ) ;
#261 = CIRCLE ( 'NONE', #375, 35.04898988925540948 ) ;
#262 = CARTESIAN_POINT ( 'NONE',  ( 85.99999999999994316, 96.00000000000001421, 0.5999999999999999778 ) ) ;
#263 = EDGE_CURVE ( 'NONE', #532, #764, #460, .T. ) ;
#264 = DIRECTION ( 'NONE',  ( 0.000000000000000000, -0.000000000000000000, 1.000000000000000000 ) ) ;
#265 = EDGE_CURVE ( 'NONE', #634, #645, #51, .T. ) ;
#266 = EDGE_CURVE ( 'NONE', #74, #355, #718, .T. ) ;
#267 = CYLINDRICAL_SURFACE ( 'NONE', #704, 27.30000000000000426 ) ;
#268 = CARTESIAN_POINT ( 'NONE',  ( 96.00000000000000000, 10.00000000000006928, 0.5999999999999999778 ) ) ;
#269 = CARTESIAN_POINT ( 'NONE',  ( 0.000000000000000000, 0.000000000000000000, 0.5999999999999999778 ) ) ;
#270 = EDGE_LOOP ( 'NONE', ( #823, #28, #384, #620 ) ) ;
#271 = EDGE_CURVE ( 'NONE', #89, #634, #611, .T. ) ;
#272 = DIRECTION ( 'NONE',  ( 1.000000000000000000, 0.000000000000000000, 0.000000000000000000 ) ) ;
#273 = DIRECTION ( 'NONE',  ( 0.000000000000000000, 0.000000000000000000, -1.000000000000000000 ) ) ;
#274 = VECTOR ( 'NONE', #774, 1000.000000000000000 ) ;
#275 = DIRECTION ( 'NONE',  ( -0.000000000000000000, 0.000000000000000000, 1.000000000000000000 ) ) ;
#276 = ORIENTED_EDGE ( 'NONE', *, *, #300, .T. ) ;
#277 = ORIENTED_EDGE ( 'NONE', *, *, #595, .F. ) ;
#278 = ORIENTED_EDGE ( 'NONE', *, *, #203, .F. ) ;
#279 = CIRCLE ( 'NONE', #111, 2.000000000000000000 ) ;
#280 = DIRECTION ( 'NONE',  ( -0.000000000000000000, -0.000000000000000000, 1.000000000000000000 ) ) ;
#281 = DIRECTION ( 'NONE',  ( 1.000000000000000000, 0.000000000000000000, 0.000000000000000000 ) ) ;
#282 = VECTOR ( 'NONE', #676, 1000.000000000000000 ) ;
#283 = CARTESIAN_POINT ( 'NONE',  ( 10.00000000000006395, 96.00000000000000000, 0.000000000000000000 ) ) ;
#284 = ORIENTED_EDGE ( 'NONE', *, *, #595, .T. ) ;
#285 = EDGE_LOOP ( 'NONE', ( #60, #735, #728, #517 ) ) ;
#286 = ORIENTED_EDGE ( 'NONE', *, *, #753, .F. ) ;
#287 = CARTESIAN_POINT ( 'NONE',  ( 85.99999999999994316, 96.00000000000001421, 0.000000000000000000 ) ) ;
#288 = LINE ( 'NONE', #817, #483 ) ;
#289 = VERTEX_POINT ( 'NONE', #552 ) ;
#290 = ORIENTED_EDGE ( 'NONE', *, *, #562, .F. ) ;
#291 = DIRECTION ( 'NONE',  ( -0.000000000000000000, -0.000000000000000000, -1.000000000000000000 ) ) ;
#292 = DIRECTION ( 'NONE',  ( 1.000000000000000000, 0.000000000000000000, 0.000000000000000000 ) ) ;
#293 = CYLINDRICAL_SURFACE ( 'NONE', #462, 2.000000000000000000 ) ;
#294 = VERTEX_POINT ( 'NONE', #241 ) ;
#295 = DIRECTION ( 'NONE',  ( -1.000000000000000000, 0.000000000000000000, 0.000000000000000000 ) ) ;
#296 = DIRECTION ( 'NONE',  ( -0.000000000000000000, -0.000000000000000000, -1.000000000000000000 ) ) ;
#297 = AXIS2_PLACEMENT_3D ( 'NONE', #92, #515, #717 ) ;
#298 = CARTESIAN_POINT ( 'NONE',  ( 4.999999999999992006, 7.000000000000006217, 0.000000000000000000 ) ) ;
#299 = AXIS2_PLACEMENT_3D ( 'NONE', #163, #353, #755 ) ;
#300 = EDGE_CURVE ( 'NONE', #400, #331, #674, .T. ) ;
#301 = CARTESIAN_POINT ( 'NONE',  ( 10.00000000000007105, 0.000000000000000000, 0.5999999999999999778 ) ) ;
#302 = ADVANCED_FACE ( 'NONE', ( #358 ), #102, .T. ) ;
#303 = PRODUCT_RELATED_PRODUCT_CATEGORY ( 'part', '', ( #687 ) ) ;
#304 = CARTESIAN_POINT ( 'NONE',  ( 85.30000000000001137, 48.00000000000000000, 0.5999999999999999778 ) ) ;
#305 = CARTESIAN_POINT ( 'NONE',  ( 12.95101011074459230, 47.99999999999999289, 3.100000000000000089 ) ) ;
#306 = ORIENTED_EDGE ( 'NONE', *, *, #43, .T. ) ;
#307 = DIRECTION ( 'NONE',  ( -0.000000000000000000, -0.000000000000000000, 1.000000000000000000 ) ) ;
#308 = DIRECTION ( 'NONE',  ( 0.000000000000000000, 0.000000000000000000, 1.000000000000000000 ) ) ;
#309 = AXIS2_PLACEMENT_3D ( 'NONE', #118, #622, #373 ) ;
#310 = VERTEX_POINT ( 'NONE', #305 ) ;
#311 = DIRECTION ( 'NONE',  ( 1.000000000000000000, 0.000000000000000000, 0.000000000000000000 ) ) ;
#312 = DIRECTION ( 'NONE',  ( 0.000000000000000000, 0.000000000000000000, -1.000000000000000000 ) ) ;
#313 = AXIS2_PLACEMENT_3D ( 'NONE', #691, #630, #3 ) ;
#314 = CARTESIAN_POINT ( 'NONE',  ( -1.097079424236180992E-16, 85.99999999999994316, 0.5999999999999999778 ) ) ;
#315 = CYLINDRICAL_SURFACE ( 'NONE', #165, 9.999999999999994671 ) ;
#316 = ORIENTED_EDGE ( 'NONE', *, *, #379, .F. ) ;
#317 = PRODUCT_CONTEXT ( 'NONE', #318, 'mechanical' ) ;
#318 = APPLICATION_CONTEXT ( 'automotive_design' ) ;
#319 = DIRECTION ( 'NONE',  ( 1.000000000000000000, 0.000000000000000000, 0.000000000000000000 ) ) ;
#320 = ORIENTED_EDGE ( 'NONE', *, *, #91, .F. ) ;
#321 = DIRECTION ( 'NONE',  ( -1.000000000000000000, 0.000000000000000000, 0.000000000000000000 ) ) ;
#322 = ORIENTED_EDGE ( 'NONE', *, *, #519, .F. ) ;
#323 = AXIS2_PLACEMENT_3D ( 'NONE', #821, #370, #678 ) ;
#324 = PLANE ( 'NONE',  #197 ) ;
#325 = ORIENTED_EDGE ( 'NONE', *, *, #708, .T. ) ;
#326 = EDGE_CURVE ( 'NONE', #310, #412, #748, .T. ) ;
#327 = CARTESIAN_POINT ( 'NONE',  ( 0.000000000000000000, 0.000000000000000000, 0.000000000000000000 ) ) ;
#328 = UNCERTAINTY_MEASURE_WITH_UNIT (LENGTH_MEASURE( 1.000000000000000082E-05 ), #649, 'distance_accuracy_value', 'NONE');
#329 = CARTESIAN_POINT ( 'NONE',  ( 6.999999999999992006, 7.000000000000006217, 0.000000000000000000 ) ) ;
#330 = ORIENTED_EDGE ( 'NONE', *, *, #300, .F. ) ;
#331 = VERTEX_POINT ( 'NONE', #46 ) ;
#332 = APPLICATION_CONTEXT ( 'automotive_design' ) ;
#333 = DIRECTION ( 'NONE',  ( -0.000000000000000000, 0.000000000000000000, 1.000000000000000000 ) ) ;
#334 = EDGE_CURVE ( 'NONE', #400, #591, #244, .T. ) ;
#335 = AXIS2_PLACEMENT_3D ( 'NONE', #557, #376, #827 ) ;
#336 = AXIS2_PLACEMENT_3D ( 'NONE', #344, #333, #281 ) ;
#337 = CYLINDRICAL_SURFACE ( 'NONE', #185, 27.30000000000000426 ) ;
#338 = CARTESIAN_POINT ( 'NONE',  ( 6.999999999999992006, 7.000000000000006217, 0.000000000000000000 ) ) ;
#339 = ORIENTED_EDGE ( 'NONE', *, *, #122, .F. ) ;
#340 = DIRECTION ( 'NONE',  ( 0.000000000000000000, -0.000000000000000000, -1.000000000000000000 ) ) ;
#341 = CARTESIAN_POINT ( 'NONE',  ( 10.00000000000007105, 0.000000000000000000, -74.00000000000000000 ) ) ;
#342 = EDGE_LOOP ( 'NONE', ( #276, #56 ) ) ;
#343 = EDGE_LOOP ( 'NONE', ( #406, #278 ) ) ;
#344 = CARTESIAN_POINT ( 'NONE',  ( 89.00000000000001421, 89.00000000000000000, 0.6000000000000033085 ) ) ;
#345 = DIRECTION ( 'NONE',  ( 1.000000000000000000, 0.000000000000000000, 0.000000000000000000 ) ) ;
#346 = EDGE_LOOP ( 'NONE', ( #457, #90 ) ) ;
#347 = ORIENTED_EDGE ( 'NONE', *, *, #806, .T. ) ;
#348 = CIRCLE ( 'NONE', #822, 9.999999999999996447 ) ;
#349 = DIRECTION ( 'NONE',  ( -1.000000000000000000, 0.000000000000000000, 0.000000000000000000 ) ) ;
#350 = ORIENTED_EDGE ( 'NONE', *, *, #181, .T. ) ;
#351 = EDGE_LOOP ( 'NONE', ( #12, #707, #569, #740 ) ) ;
#352 = ORIENTED_EDGE ( 'NONE', *, *, #208, .F. ) ;
#353 = DIRECTION ( 'NONE',  ( 0.000000000000000000, -0.000000000000000000, -1.000000000000000000 ) ) ;
#354 = DIRECTION ( 'NONE',  ( -0.000000000000000000, -0.000000000000000000, -1.000000000000000000 ) ) ;
#355 = VERTEX_POINT ( 'NONE', #298 ) ;
#356 = CARTESIAN_POINT ( 'NONE',  ( 20.69999999999998863, 48.00000000000000000, 0.5999999999999999778 ) ) ;
#357 = EDGE_CURVE ( 'NONE', #764, #646, #288, .T. ) ;
#358 = FACE_OUTER_BOUND ( 'NONE', #54, .T. ) ;
#359 = ADVANCED_FACE ( 'NONE', ( #106 ), #420, .F. ) ;
#360 = ADVANCED_FACE ( 'NONE', ( #751 ), #526, .F. ) ;
#361 = AXIS2_PLACEMENT_3D ( 'NONE', #548, #478, #737 ) ;
#362 = ADVANCED_FACE ( 'NONE', ( #430 ), #293, .F. ) ;
#363 = DIRECTION ( 'NONE',  ( 1.000000000000000000, 1.445602896647339163E-16, 0.000000000000000000 ) ) ;
#364 = VECTOR ( 'NONE', #143, 1000.000000000000000 ) ;
#365 = DIRECTION ( 'NONE',  ( 0.000000000000000000, 0.000000000000000000, 1.000000000000000000 ) ) ;
#366 =( NAMED_UNIT ( * ) SI_UNIT ( $, .STERADIAN. ) SOLID_ANGLE_UNIT ( ) );
#367 = EDGE_CURVE ( 'NONE', #134, #74, #279, .T. ) ;
#368 = PLANE ( 'NONE',  #538 ) ;
#369 = CARTESIAN_POINT ( 'NONE',  ( 96.00000000000000000, 96.00000000000001421, 0.5999999999999999778 ) ) ;
#370 = DIRECTION ( 'NONE',  ( 0.000000000000000000, 0.000000000000000000, -1.000000000000000000 ) ) ;
#371 = COLOUR_RGB ( '',0.7921568627450980005, 0.8196078431372548767, 0.9333333333333333481 ) ;
#372 = EDGE_LOOP ( 'NONE', ( #721, #62, #487, #22 ) ) ;
#373 = DIRECTION ( 'NONE',  ( 1.000000000000000000, 0.000000000000000000, 0.000000000000000000 ) ) ;
#374 = FACE_OUTER_BOUND ( 'NONE', #434, .T. ) ;
#375 = AXIS2_PLACEMENT_3D ( 'NONE', #26, #705, #473 ) ;
#376 = DIRECTION ( 'NONE',  ( -0.000000000000000000, 0.000000000000000000, 1.000000000000000000 ) ) ;
#377 = ORIENTED_EDGE ( 'NONE', *, *, #708, .F. ) ;
#378 = VECTOR ( 'NONE', #791, 1000.000000000000000 ) ;
#379 = EDGE_CURVE ( 'NONE', #74, #134, #739, .T. ) ;
#380 = DIRECTION ( 'NONE',  ( -0.000000000000000000, -0.000000000000000000, -1.000000000000000000 ) ) ;
#381 = EDGE_CURVE ( 'NONE', #651, #153, #703, .T. ) ;
#382 = CARTESIAN_POINT ( 'NONE',  ( 0.000000000000000000, 0.000000000000000000, 0.000000000000000000 ) ) ;
#383 = DIRECTION ( 'NONE',  ( -0.000000000000000000, -0.000000000000000000, -1.000000000000000000 ) ) ;
#384 = ORIENTED_EDGE ( 'NONE', *, *, #75, .T. ) ;
#385 = AXIS2_PLACEMENT_3D ( 'NONE', #30, #653, #779 ) ;
#386 = CYLINDRICAL_SURFACE ( 'NONE', #714, 9.999999999999994671 ) ;
#387 = AXIS2_PLACEMENT_3D ( 'NONE', #790, #467, #724 ) ;
#388 = LINE ( 'NONE', #623, #229 ) ;
#389 = EDGE_LOOP ( 'NONE', ( #316, #250 ) ) ;
#390 = CARTESIAN_POINT ( 'NONE',  ( 0.000000000000000000, 0.000000000000000000, 0.5999999999999999778 ) ) ;
#391 = CARTESIAN_POINT ( 'NONE',  ( 75.30000000000001137, 48.00000000000000000, 0.5999999999999999778 ) ) ;
#392 = ORIENTED_EDGE ( 'NONE', *, *, #5, .T. ) ;
#393 = LINE ( 'NONE', #341, #609 ) ;
#394 = CARTESIAN_POINT ( 'NONE',  ( 89.00000000000001421, 89.00000000000000000, 0.6000000000000033085 ) ) ;
#395 = EDGE_LOOP ( 'NONE', ( #84, #661, #507, #793 ) ) ;
#396 = VECTOR ( 'NONE', #636, 1000.000000000000000 ) ;
#397 = CONICAL_SURFACE ( 'NONE', #212, 37.30000000000001137, 0.7330382858376190969 ) ;
#398 = DIRECTION ( 'NONE',  ( 1.000000000000000000, 0.000000000000000000, 0.000000000000000000 ) ) ;
#399 = DIRECTION ( 'NONE',  ( -1.000000000000000000, 0.000000000000000000, 0.000000000000000000 ) ) ;
#400 = VERTEX_POINT ( 'NONE', #423 ) ;
#401 = ORIENTED_EDGE ( 'NONE', *, *, #217, .F. ) ;
#402 = CARTESIAN_POINT ( 'NONE',  ( 48.00000000000000000, 48.00000000000000000, -74.00000000000000000 ) ) ;
#403 = DIRECTION ( 'NONE',  ( -0.000000000000000000, -0.000000000000000000, 1.000000000000000000 ) ) ;
#404 = DIRECTION ( 'NONE',  ( -1.000000000000000000, 0.000000000000000000, 0.000000000000000000 ) ) ;
#405 = DIRECTION ( 'NONE',  ( 1.000000000000000000, 0.000000000000000000, 0.000000000000000000 ) ) ;
#406 = ORIENTED_EDGE ( 'NONE', *, *, #671, .F. ) ;
#407 = ORIENTED_EDGE ( 'NONE', *, *, #265, .T. ) ;
#408 = ADVANCED_FACE ( 'NONE', ( #619 ), #539, .F. ) ;
#409 = DIRECTION ( 'NONE',  ( -1.000000000000000000, 0.000000000000000000, 0.000000000000000000 ) ) ;
#410 = CARTESIAN_POINT ( 'NONE',  ( 48.00000000000000000, 48.00000000000000000, 3.100000000000000089 ) ) ;
#411 = ORIENTED_EDGE ( 'NONE', *, *, #648, .T. ) ;
#412 = VERTEX_POINT ( 'NONE', #534 ) ;
#413 = AXIS2_PLACEMENT_3D ( 'NONE', #604, #55, #493 ) ;
#414 = DIRECTION ( 'NONE',  ( 1.000000000000000000, 0.000000000000000000, 0.000000000000000000 ) ) ;
#415 = CARTESIAN_POINT ( 'NONE',  ( 6.999999999999992006, 7.000000000000006217, 0.6000000000000033085 ) ) ;
#416 = EDGE_LOOP ( 'NONE', ( #602, #787 ) ) ;
#417 = EDGE_CURVE ( 'NONE', #635, #585, #113, .T. ) ;
#418 = PRODUCT_DEFINITION_SHAPE ( 'NONE', 'NONE',  #521 ) ;
#419 = AXIS2_PLACEMENT_3D ( 'NONE', #514, #17, #399 ) ;
#420 = CYLINDRICAL_SURFACE ( 'NONE', #413, 2.000000000000001776 ) ;
#421 = DIRECTION ( 'NONE',  ( 0.000000000000000000, -0.000000000000000000, -1.000000000000000000 ) ) ;
#422 = LINE ( 'NONE', #101, #675 ) ;
#423 = CARTESIAN_POINT ( 'NONE',  ( 75.30000000000001137, 48.00000000000000000, 0.000000000000000000 ) ) ;
#424 = DIRECTION ( 'NONE',  ( -0.000000000000000000, 0.000000000000000000, 1.000000000000000000 ) ) ;
#425 = CIRCLE ( 'NONE', #752, 2.000000000000000888 ) ;
#426 = DIRECTION ( 'NONE',  ( -1.000000000000000000, 0.000000000000000000, 0.000000000000000000 ) ) ;
#427 = CIRCLE ( 'NONE', #72, 2.000000000000001776 ) ;
#428 = EDGE_LOOP ( 'NONE', ( #41, #146, #480, #411, #509, #126, #479, #248 ) ) ;
#429 = CARTESIAN_POINT ( 'NONE',  ( 48.00000000000000000, 48.00000000000000000, 3.100000000000000089 ) ) ;
#430 = FACE_OUTER_BOUND ( 'NONE', #732, .T. ) ;
#431 = CARTESIAN_POINT ( 'NONE',  ( 10.00000000000007105, 96.00000000000000000, 0.5999999999999999778 ) ) ;
#432 = CIRCLE ( 'NONE', #618, 29.55101011074460970 ) ;
#433 = DIRECTION ( 'NONE',  ( -0.000000000000000000, -0.000000000000000000, 1.000000000000000000 ) ) ;
#434 = EDGE_LOOP ( 'NONE', ( #222, #407, #472, #277 ) ) ;
#435 = VECTOR ( 'NONE', #80, 1000.000000000000000 ) ;
#436 = CARTESIAN_POINT ( 'NONE',  ( 89.00000000000001421, 89.00000000000000000, 74.59999999999999432 ) ) ;
#437 = ORIENTED_EDGE ( 'NONE', *, *, #326, .F. ) ;
#438 = CIRCLE ( 'NONE', #71, 2.000000000000001776 ) ;
#439 = CIRCLE ( 'NONE', #581, 9.999999999999994671 ) ;
#440 = ADVANCED_FACE ( 'NONE', ( #743, #169, #799, #226, #256, #449 ), #568, .F. ) ;
#441 = EDGE_CURVE ( 'NONE', #331, #727, #697, .T. ) ;
#442 = DIRECTION ( 'NONE',  ( -0.000000000000000000, -0.000000000000000000, -1.000000000000000000 ) ) ;
#443 = VERTEX_POINT ( 'NONE', #776 ) ;
#444 = EDGE_CURVE ( 'NONE', #310, #528, #451, .T. ) ;
#445 = CIRCLE ( 'NONE', #130, 2.000000000000000000 ) ;
#446 = CARTESIAN_POINT ( 'NONE',  ( 20.69999999999999929, 48.00000000000000000, -74.00000000000000000 ) ) ;
#447 = EDGE_LOOP ( 'NONE', ( #688, #800, #257, #536 ) ) ;
#448 = EDGE_CURVE ( 'NONE', #679, #605, #182, .T. ) ;
#449 = FACE_OUTER_BOUND ( 'NONE', #100, .T. ) ;
#450 = ORIENTED_EDGE ( 'NONE', *, *, #441, .T. ) ;
#451 = CIRCLE ( 'NONE', #807, 35.04898988925540948 ) ;
#452 = DIRECTION ( 'NONE',  ( -0.000000000000000000, -0.000000000000000000, 1.000000000000000000 ) ) ;
#453 = FILL_AREA_STYLE_COLOUR ( '', #371 ) ;
#454 = DIRECTION ( 'NONE',  ( -0.000000000000000000, -0.000000000000000000, 1.000000000000000000 ) ) ;
#455 = DIRECTION ( 'NONE',  ( -1.000000000000000000, 0.000000000000000000, 0.000000000000000000 ) ) ;
#456 = FACE_OUTER_BOUND ( 'NONE', #395, .T. ) ;
#457 = ORIENTED_EDGE ( 'NONE', *, *, #181, .F. ) ;
#458 = CIRCLE ( 'NONE', #107, 2.000000000000001776 ) ;
#459 = CARTESIAN_POINT ( 'NONE',  ( 75.30000000000001137, 48.00000000000000000, 0.5999999999999999778 ) ) ;
#460 = LINE ( 'NONE', #783, #378 ) ;
#461 = VERTEX_POINT ( 'NONE', #628 ) ;
#462 = AXIS2_PLACEMENT_3D ( 'NONE', #681, #115, #426 ) ;
#463 = CIRCLE ( 'NONE', #336, 2.000000000000001776 ) ;
#464 = ORIENTED_EDGE ( 'NONE', *, *, #806, .F. ) ;
#465 = ADVANCED_FACE ( 'NONE', ( #73 ), #69, .F. ) ;
#466 = FACE_OUTER_BOUND ( 'NONE', #372, .T. ) ;
#467 = DIRECTION ( 'NONE',  ( -0.000000000000000000, -0.000000000000000000, -1.000000000000000000 ) ) ;
#468 = DIRECTION ( 'NONE',  ( 1.275673749111839482E-18, -1.000000000000000000, 0.000000000000000000 ) ) ;
#469 = ORIENTED_EDGE ( 'NONE', *, *, #238, .T. ) ;
#470 = ORIENTED_EDGE ( 'NONE', *, *, #441, .F. ) ;
#471 = EDGE_CURVE ( 'NONE', #134, #168, #388, .T. ) ;
#472 = ORIENTED_EDGE ( 'NONE', *, *, #749, .F. ) ;
#473 = DIRECTION ( 'NONE',  ( 1.000000000000000000, 0.000000000000000000, 0.000000000000000000 ) ) ;
#474 = DIRECTION ( 'NONE',  ( -1.000000000000000000, 0.000000000000000000, 0.000000000000000000 ) ) ;
#475 = ORIENTED_EDGE ( 'NONE', *, *, #770, .F. ) ;
#476 = DIRECTION ( 'NONE',  ( -0.000000000000000000, -0.000000000000000000, -1.000000000000000000 ) ) ;
#477 = FACE_OUTER_BOUND ( 'NONE', #428, .T. ) ;
#478 = DIRECTION ( 'NONE',  ( -0.000000000000000000, 0.000000000000000000, 1.000000000000000000 ) ) ;
#479 = ORIENTED_EDGE ( 'NONE', *, *, #819, .F. ) ;
#480 = ORIENTED_EDGE ( 'NONE', *, *, #571, .F. ) ;
#481 = AXIS2_PLACEMENT_3D ( 'NONE', #53, #665, #491 ) ;
#482 = EDGE_LOOP ( 'NONE', ( #37, #796, #377, #797 ) ) ;
#483 = VECTOR ( 'NONE', #236, 1000.000000000000000 ) ;
#484 = APPLICATION_PROTOCOL_DEFINITION ( 'draft international standard', 'automotive_design', 1998, #318 ) ;
#485 = CARTESIAN_POINT ( 'NONE',  ( 96.00000000000000000, 10.00000000000006928, -74.00000000000000000 ) ) ;
#486 = CIRCLE ( 'NONE', #18, 37.30000000000001137 ) ;
#487 = ORIENTED_EDGE ( 'NONE', *, *, #722, .T. ) ;
#488 = LINE ( 'NONE', #820, #808 ) ;
#489 = CARTESIAN_POINT ( 'NONE',  ( 9.999999999999998224, 9.999999999999998224, -74.00000000000000000 ) ) ;
#490 = AXIS2_PLACEMENT_3D ( 'NONE', #637, #516, #345 ) ;
#491 = DIRECTION ( 'NONE',  ( 1.000000000000000000, 0.000000000000000000, 0.000000000000000000 ) ) ;
#492 = DIRECTION ( 'NONE',  ( -1.275673749111839290E-18, 1.000000000000000000, 0.000000000000000000 ) ) ;
#493 = DIRECTION ( 'NONE',  ( -1.000000000000000000, 0.000000000000000000, 0.000000000000000000 ) ) ;
#494 = DIRECTION ( 'NONE',  ( 0.000000000000000000, 0.000000000000000000, 1.000000000000000000 ) ) ;
#495 = CARTESIAN_POINT ( 'NONE',  ( -1.224646799147365780E-16, 96.00000000000000000, 0.5999999999999999778 ) ) ;
#496 = VECTOR ( 'NONE', #545, 1000.000000000000000 ) ;
#497 = DIRECTION ( 'NONE',  ( 1.000000000000000000, 0.000000000000000000, 0.000000000000000000 ) ) ;
#498 = DIRECTION ( 'NONE',  ( 1.000000000000000000, 0.000000000000000000, 0.000000000000000000 ) ) ;
#499 = CARTESIAN_POINT ( 'NONE',  ( 48.00000000000000000, 48.00000000000000000, 0.5999999999999999778 ) ) ;
#500 = CYLINDRICAL_SURFACE ( 'NONE', #617, 9.999999999999998224 ) ;
#501 = DIRECTION ( 'NONE',  ( -0.000000000000000000, -0.000000000000000000, 1.000000000000000000 ) ) ;
#502 = ORIENTED_EDGE ( 'NONE', *, *, #75, .F. ) ;
#503 = EDGE_CURVE ( 'NONE', #228, #585, #247, .T. ) ;
#504 = ADVANCED_FACE ( 'NONE', ( #119 ), #324, .F. ) ;
#505 = EDGE_CURVE ( 'NONE', #634, #10, #133, .T. ) ;
#506 = CARTESIAN_POINT ( 'NONE',  ( 6.999999999999992006, 89.00000000000000000, 0.6000000000000033085 ) ) ;
#507 = ORIENTED_EDGE ( 'NONE', *, *, #519, .T. ) ;
#508 = CARTESIAN_POINT ( 'NONE',  ( -1.097079424236180992E-16, 85.99999999999994316, 0.000000000000000000 ) ) ;
#509 = ORIENTED_EDGE ( 'NONE', *, *, #265, .F. ) ;
#510 = LINE ( 'NONE', #759, #719 ) ;
#511 = DIRECTION ( 'NONE',  ( 1.000000000000000000, 0.000000000000000000, 0.000000000000000000 ) ) ;
#512 = EDGE_LOOP ( 'NONE', ( #339, #66, #32, #350 ) ) ;
#513 = CARTESIAN_POINT ( 'NONE',  ( 77.55101011074461326, 48.00000000000000000, 3.100000000000000089 ) ) ;
#514 = CARTESIAN_POINT ( 'NONE',  ( 6.999999999999992006, 89.00000000000000000, 74.59999999999999432 ) ) ;
#515 = DIRECTION ( 'NONE',  ( 0.000000000000000000, 0.000000000000000000, -1.000000000000000000 ) ) ;
#516 = DIRECTION ( 'NONE',  ( 0.000000000000000000, 0.000000000000000000, 1.000000000000000000 ) ) ;
#517 = ORIENTED_EDGE ( 'NONE', *, *, #448, .F. ) ;
#518 = ORIENTED_EDGE ( 'NONE', *, *, #67, .T. ) ;
#519 = EDGE_CURVE ( 'NONE', #443, #289, #425, .T. ) ;
#520 = ADVANCED_FACE ( 'NONE', ( #560 ), #762, .F. ) ;
#521 = PRODUCT_DEFINITION ( 'UNKNOWN', '', #690, #78 ) ;
#522 = CYLINDRICAL_SURFACE ( 'NONE', #387, 2.000000000000000000 ) ;
#523 = CARTESIAN_POINT ( 'NONE',  ( 6.999999999999992006, 89.00000000000000000, 74.59999999999999432 ) ) ;
#524 = LINE ( 'NONE', #142, #815 ) ;
#525 = ORIENTED_EDGE ( 'NONE', *, *, #505, .F. ) ;
#526 = CONICAL_SURFACE ( 'NONE', #7, 27.30000000000000426, 0.7330382858376190969 ) ;
#527 = AXIS2_PLACEMENT_3D ( 'NONE', #234, #663, #550 ) ;
#528 = VERTEX_POINT ( 'NONE', #825 ) ;
#529 = CARTESIAN_POINT ( 'NONE',  ( 8.999999999999994671, 89.00000000000000000, 74.59999999999999432 ) ) ;
#530 = LINE ( 'NONE', #155, #49 ) ;
#531 = CYLINDRICAL_SURFACE ( 'NONE', #419, 2.000000000000000888 ) ;
#532 = VERTEX_POINT ( 'NONE', #508 ) ;
#533 = DIRECTION ( 'NONE',  ( -1.000000000000000000, 0.000000000000000000, 0.000000000000000000 ) ) ;
#534 = CARTESIAN_POINT ( 'NONE',  ( 10.69999999999998685, 47.99999999999999289, 0.5999999999999999778 ) ) ;
#535 = ORIENTED_EDGE ( 'NONE', *, *, #266, .T. ) ;
#536 = ORIENTED_EDGE ( 'NONE', *, *, #357, .T. ) ;
#537 = DIRECTION ( 'NONE',  ( 1.000000000000000000, 0.000000000000000000, -0.000000000000000000 ) ) ;
#538 = AXIS2_PLACEMENT_3D ( 'NONE', #240, #551, #497 ) ;
#539 = PLANE ( 'NONE',  #621 ) ;
#540 = ORIENTED_EDGE ( 'NONE', *, *, #263, .F. ) ;
#541 = ORIENTED_EDGE ( 'NONE', *, *, #271, .F. ) ;
#542 = CONICAL_SURFACE ( 'NONE', #31, 27.30000000000000426, 0.7330382858376190969 ) ;
#543 = AXIS2_PLACEMENT_3D ( 'NONE', #15, #205, #647 ) ;
#544 = CARTESIAN_POINT ( 'NONE',  ( 89.00000000000001421, 7.000000000000006217, 0.6000000000000033085 ) ) ;
#545 = DIRECTION ( 'NONE',  ( -0.000000000000000000, -0.000000000000000000, 1.000000000000000000 ) ) ;
#546 = CLOSED_SHELL ( 'NONE', ( #360, #554, #359, #362, #237, #747, #614, #87, #809, #189, #504, #408, #440, #124, #586, #127, #302, #52, #465, #70, #709, #520, #744, #745, #612 ) ) ;
#547 = FACE_OUTER_BOUND ( 'NONE', #702, .T. ) ;
#548 = CARTESIAN_POINT ( 'NONE',  ( 48.00000000000000000, 48.00000000000000000, 0.000000000000000000 ) ) ;
#549 = EDGE_LOOP ( 'NONE', ( #475, #638 ) ) ;
#550 = DIRECTION ( 'NONE',  ( -1.000000000000000000, 0.000000000000000000, 0.000000000000000000 ) ) ;
#551 = DIRECTION ( 'NONE',  ( -0.000000000000000000, 0.000000000000000000, 1.000000000000000000 ) ) ;
#552 = CARTESIAN_POINT ( 'NONE',  ( 4.999999999999991118, 89.00000000000000000, 0.000000000000000000 ) ) ;
#553 = CARTESIAN_POINT ( 'NONE',  ( 9.999999999999998224, 9.999999999999998224, 0.000000000000000000 ) ) ;
#554 = ADVANCED_FACE ( 'NONE', ( #135 ), #780, .T. ) ;
#555 = EDGE_LOOP ( 'NONE', ( #597, #140, #535, #469 ) ) ;
#556 = AXIS2_PLACEMENT_3D ( 'NONE', #436, #65, #321 ) ;
#557 = CARTESIAN_POINT ( 'NONE',  ( 0.000000000000000000, 0.000000000000000000, 0.000000000000000000 ) ) ;
#558 = AXIS2_PLACEMENT_3D ( 'NONE', #680, #494, #114 ) ;
#559 = EDGE_LOOP ( 'NONE', ( #179, #525, #541, #826 ) ) ;
#560 = FACE_OUTER_BOUND ( 'NONE', #590, .T. ) ;
#561 = CIRCLE ( 'NONE', #490, 27.30000000000000426 ) ;
#562 = EDGE_CURVE ( 'NONE', #801, #461, #438, .T. ) ;
#563 = VERTEX_POINT ( 'NONE', #768 ) ;
#564 = APPLICATION_PROTOCOL_DEFINITION ( 'draft international standard', 'automotive_design', 1998, #332 ) ;
#565 = CARTESIAN_POINT ( 'NONE',  ( 6.999999999999992006, 89.00000000000000000, 0.000000000000000000 ) ) ;
#566 = ORIENTED_EDGE ( 'NONE', *, *, #627, .T. ) ;
#567 = STYLED_ITEM ( 'NONE', ( #201 ), #171 ) ;
#568 = PLANE ( 'NONE',  #335 ) ;
#569 = ORIENTED_EDGE ( 'NONE', *, *, #652, .F. ) ;
#570 = VECTOR ( 'NONE', #772, 1000.000000000000000 ) ;
#571 = EDGE_CURVE ( 'NONE', #34, #646, #175, .T. ) ;
#572 = CARTESIAN_POINT ( 'NONE',  ( 91.00000000000001421, 89.00000000000000000, 0.000000000000000000 ) ) ;
#573 = DIRECTION ( 'NONE',  ( 0.000000000000000000, 0.000000000000000000, 1.000000000000000000 ) ) ;
#574 = ORIENTED_EDGE ( 'NONE', *, *, #770, .T. ) ;
#575 = CARTESIAN_POINT ( 'NONE',  ( 89.00000000000001421, 7.000000000000006217, 0.6000000000000033085 ) ) ;
#576 = FACE_OUTER_BOUND ( 'NONE', #95, .T. ) ;
#577 = CARTESIAN_POINT ( 'NONE',  ( 10.00000000000000000, 86.00000000000000000, 0.5999999999999999778 ) ) ;
#578 = CIRCLE ( 'NONE', #686, 2.000000000000001776 ) ;
#579 = DIRECTION ( 'NONE',  ( 0.6691306063588586817, 0.000000000000000000, 0.7431448254773938000 ) ) ;
#580 = AXIS2_PLACEMENT_3D ( 'NONE', #329, #273, #455 ) ;
#581 = AXIS2_PLACEMENT_3D ( 'NONE', #670, #291, #409 ) ;
#582 = DIRECTION ( 'NONE',  ( 1.000000000000000000, 0.000000000000000000, 0.000000000000000000 ) ) ;
#583 = EDGE_CURVE ( 'NONE', #773, #228, #510, .T. ) ;
#584 = DIRECTION ( 'NONE',  ( -0.000000000000000000, -0.000000000000000000, -1.000000000000000000 ) ) ;
#585 = VERTEX_POINT ( 'NONE', #431 ) ;
#586 = ADVANCED_FACE ( 'NONE', ( #374 ), #315, .T. ) ;
#587 = DIRECTION ( 'NONE',  ( 1.000000000000000000, 0.000000000000000000, 0.000000000000000000 ) ) ;
#588 = FACE_OUTER_BOUND ( 'NONE', #555, .T. ) ;
#589 = CARTESIAN_POINT ( 'NONE',  ( 8.999999999999992895, 7.000000000000006217, 0.000000000000000000 ) ) ;
#590 = EDGE_LOOP ( 'NONE', ( #286, #99, #207, #218 ) ) ;
#591 = VERTEX_POINT ( 'NONE', #459 ) ;
#592 = EDGE_LOOP ( 'NONE', ( #325, #216, #625, #81 ) ) ;
#593 = CARTESIAN_POINT ( 'NONE',  ( 96.00000000000000000, 85.99999999999991473, 0.000000000000000000 ) ) ;
#594 = LINE ( 'NONE', #391, #63 ) ;
#595 = EDGE_CURVE ( 'NONE', #89, #563, #689, .T. ) ;
#596 = ORIENTED_EDGE ( 'NONE', *, *, #503, .F. ) ;
#597 = ORIENTED_EDGE ( 'NONE', *, *, #471, .F. ) ;
#598 = ORIENTED_EDGE ( 'NONE', *, *, #583, .F. ) ;
#599 = CARTESIAN_POINT ( 'NONE',  ( -1.275673749111846647E-17, 10.00000000000006395, 0.000000000000000000 ) ) ;
#600 = DIRECTION ( 'NONE',  ( 0.000000000000000000, 1.000000000000000000, 0.000000000000000000 ) ) ;
#601 = ORIENTED_EDGE ( 'NONE', *, *, #242, .T. ) ;
#602 = ORIENTED_EDGE ( 'NONE', *, *, #238, .F. ) ;
#603 = FACE_OUTER_BOUND ( 'NONE', #285, .T. ) ;
#604 = CARTESIAN_POINT ( 'NONE',  ( 89.00000000000001421, 7.000000000000006217, 74.59999999999999432 ) ) ;
#605 = VERTEX_POINT ( 'NONE', #633 ) ;
#606 = FACE_BOUND ( 'NONE', #654, .T. ) ;
#607 = DIRECTION ( 'NONE',  ( -0.000000000000000000, -0.000000000000000000, 1.000000000000000000 ) ) ;
#608 = AXIS2_PLACEMENT_3D ( 'NONE', #415, #40, #173 ) ;
#609 = VECTOR ( 'NONE', #83, 1000.000000000000000 ) ;
#610 = CARTESIAN_POINT ( 'NONE',  ( 48.00000000000000000, 48.00000000000000000, 0.5999999999999999778 ) ) ;
#611 = LINE ( 'NONE', #485, #699 ) ;
#612 = ADVANCED_FACE ( 'NONE', ( #211 ), #542, .F. ) ;
#613 = FACE_OUTER_BOUND ( 'NONE', #157, .T. ) ;
#614 = ADVANCED_FACE ( 'NONE', ( #576 ), #337, .F. ) ;
#615 = DIRECTION ( 'NONE',  ( -1.000000000000000000, -1.445602896647339163E-16, 0.000000000000000000 ) ) ;
#616 = ORIENTED_EDGE ( 'NONE', *, *, #643, .T. ) ;
#617 = AXIS2_PLACEMENT_3D ( 'NONE', #489, #433, #685 ) ;
#618 = AXIS2_PLACEMENT_3D ( 'NONE', #410, #658, #292 ) ;
#619 = FACE_OUTER_BOUND ( 'NONE', #351, .T. ) ;
#620 = ORIENTED_EDGE ( 'NONE', *, *, #242, .F. ) ;
#621 = AXIS2_PLACEMENT_3D ( 'NONE', #672, #110, #363 ) ;
#622 = DIRECTION ( 'NONE',  ( 0.000000000000000000, 0.000000000000000000, 1.000000000000000000 ) ) ;
#623 = CARTESIAN_POINT ( 'NONE',  ( 8.999999999999992895, 7.000000000000006217, 74.59999999999999432 ) ) ;
#624 = VECTOR ( 'NONE', #454, 1000.000000000000000 ) ;
#625 = ORIENTED_EDGE ( 'NONE', *, *, #357, .F. ) ;
#626 = DIRECTION ( 'NONE',  ( -1.000000000000000000, 0.000000000000000000, 0.000000000000000000 ) ) ;
#627 = EDGE_CURVE ( 'NONE', #103, #585, #348, .T. ) ;
#628 = CARTESIAN_POINT ( 'NONE',  ( 8.999999999999994671, 89.00000000000000000, 0.6000000000000033085 ) ) ;
#629 = ORIENTED_EDGE ( 'NONE', *, *, #640, .F. ) ;
#630 = DIRECTION ( 'NONE',  ( -0.000000000000000000, -0.000000000000000000, -1.000000000000000000 ) ) ;
#631 = AXIS2_PLACEMENT_3D ( 'NONE', #495, #736, #492 ) ;
#632 = CARTESIAN_POINT ( 'NONE',  ( 8.999999999999992895, 7.000000000000006217, 0.6000000000000033085 ) ) ;
#633 = CARTESIAN_POINT ( 'NONE',  ( 87.00000000000001421, 89.00000000000000000, 0.000000000000000000 ) ) ;
#634 = VERTEX_POINT ( 'NONE', #268 ) ;
#635 = VERTEX_POINT ( 'NONE', #262 ) ;
#636 = DIRECTION ( 'NONE',  ( -0.000000000000000000, -0.000000000000000000, 1.000000000000000000 ) ) ;
#637 = CARTESIAN_POINT ( 'NONE',  ( 48.00000000000000000, 48.00000000000000000, 0.5999999999999999778 ) ) ;
#638 = ORIENTED_EDGE ( 'NONE', *, *, #151, .F. ) ;
#639 = AXIS2_PLACEMENT_3D ( 'NONE', #523, #213, #404 ) ;
#640 = EDGE_CURVE ( 'NONE', #528, #310, #261, .T. ) ;
#641 = DIRECTION ( 'NONE',  ( 1.000000000000000000, 0.000000000000000000, 0.000000000000000000 ) ) ;
#642 = EDGE_CURVE ( 'NONE', #289, #443, #16, .T. ) ;
#643 = EDGE_CURVE ( 'NONE', #168, #355, #14, .T. ) ;
#644 = VECTOR ( 'NONE', #615, 1000.000000000000000 ) ;
#645 = VERTEX_POINT ( 'NONE', #784 ) ;
#646 = VERTEX_POINT ( 'NONE', #79 ) ;
#647 = DIRECTION ( 'NONE',  ( 1.000000000000000000, 0.000000000000000000, 0.000000000000000000 ) ) ;
#648 = EDGE_CURVE ( 'NONE', #34, #645, #220, .T. ) ;
#649 =( LENGTH_UNIT ( ) NAMED_UNIT ( * ) SI_UNIT ( .MILLI., .METRE. ) );
#650 = EDGE_LOOP ( 'NONE', ( #290, #777 ) ) ;
#651 = VERTEX_POINT ( 'NONE', #13 ) ;
#652 = EDGE_CURVE ( 'NONE', #773, #635, #198, .T. ) ;
#653 = DIRECTION ( 'NONE',  ( 0.000000000000000000, -0.000000000000000000, -1.000000000000000000 ) ) ;
#654 = EDGE_LOOP ( 'NONE', ( #1, #502 ) ) ;
#655 = ORIENTED_EDGE ( 'NONE', *, *, #6, .T. ) ;
#656 = CIRCLE ( 'NONE', #309, 37.30000000000001137 ) ;
#657 = VERTEX_POINT ( 'NONE', #200 ) ;
#658 = DIRECTION ( 'NONE',  ( 0.000000000000000000, 0.000000000000000000, 1.000000000000000000 ) ) ;
#659 = FILL_AREA_STYLE ('',( #453 ) ) ;
#660 = ORIENTED_EDGE ( 'NONE', *, *, #334, .F. ) ;
#661 = ORIENTED_EDGE ( 'NONE', *, *, #64, .T. ) ;
#662 = AXIS2_PLACEMENT_3D ( 'NONE', #85, #340, #587 ) ;
#663 = DIRECTION ( 'NONE',  ( -0.000000000000000000, -0.000000000000000000, -1.000000000000000000 ) ) ;
#664 = FACE_BOUND ( 'NONE', #343, .T. ) ;
#665 = DIRECTION ( 'NONE',  ( -0.000000000000000000, -0.000000000000000000, 1.000000000000000000 ) ) ;
#666 = ORIENTED_EDGE ( 'NONE', *, *, #334, .T. ) ;
#667 = FACE_BOUND ( 'NONE', #549, .T. ) ;
#668 = CARTESIAN_POINT ( 'NONE',  ( 48.00000000000000000, 48.00000000000000000, 0.5999999999999999778 ) ) ;
#669 = DIRECTION ( 'NONE',  ( 1.000000000000000000, 0.000000000000000000, 0.000000000000000000 ) ) ;
#670 = CARTESIAN_POINT ( 'NONE',  ( 86.00000000000000000, 86.00000000000001421, 0.5999999999999999778 ) ) ;
#671 = EDGE_CURVE ( 'NONE', #679, #77, #463, .T. ) ;
#672 = CARTESIAN_POINT ( 'NONE',  ( 96.00000000000000000, 96.00000000000001421, 0.5999999999999999778 ) ) ;
#673 = EDGE_CURVE ( 'NONE', #461, #801, #112, .T. ) ;
#674 = CIRCLE ( 'NONE', #361, 27.30000000000000426 ) ;
#675 = VECTOR ( 'NONE', #296, 1000.000000000000000 ) ;
#676 = DIRECTION ( 'NONE',  ( 0.6691306063588586817, 0.000000000000000000, -0.7431448254773938000 ) ) ;
#677 = FACE_BOUND ( 'NONE', #738, .T. ) ;
#678 = DIRECTION ( 'NONE',  ( -1.000000000000000000, 0.000000000000000000, 0.000000000000000000 ) ) ;
#679 = VERTEX_POINT ( 'NONE', #86 ) ;
#680 = CARTESIAN_POINT ( 'NONE',  ( 48.00000000000000000, 48.00000000000000000, 0.5999999999999999778 ) ) ;
#681 = CARTESIAN_POINT ( 'NONE',  ( 6.999999999999992006, 7.000000000000006217, 74.59999999999999432 ) ) ;
#682 = ADVANCED_BREP_SHAPE_REPRESENTATION ( 'new lazy susan bearing', ( #171, #767 ), #232 ) ;
#683 = MECHANICAL_DESIGN_GEOMETRIC_PRESENTATION_REPRESENTATION (  '', ( #567 ), #120 ) ;
#684 = DIRECTION ( 'NONE',  ( -1.000000000000000000, 0.000000000000000000, 0.000000000000000000 ) ) ;
#685 = DIRECTION ( 'NONE',  ( 1.000000000000000000, 0.000000000000000000, 0.000000000000000000 ) ) ;
#686 = AXIS2_PLACEMENT_3D ( 'NONE', #27, #156, #349 ) ;
#687 = PRODUCT ( 'new lazy susan bearing', 'new lazy susan bearing', '', ( #317 ) ) ;
#688 = ORIENTED_EDGE ( 'NONE', *, *, #204, .F. ) ;
#689 = CIRCLE ( 'NONE', #385, 9.999999999999994671 ) ;
#690 = PRODUCT_DEFINITION_FORMATION_WITH_SPECIFIED_SOURCE ( 'ANY', '', #687, .NOT_KNOWN. ) ;
#691 = CARTESIAN_POINT ( 'NONE',  ( 89.00000000000001421, 7.000000000000006217, 74.59999999999999432 ) ) ;
#692 = EDGE_LOOP ( 'NONE', ( #24, #804, #306, #166 ) ) ;
#693 = VERTEX_POINT ( 'NONE', #593 ) ;
#694 = CARTESIAN_POINT ( 'NONE',  ( 48.00000000000000000, 48.00000000000000000, 3.100000000000000089 ) ) ;
#695 = VECTOR ( 'NONE', #468, 1000.000000000000000 ) ;
#696 = LINE ( 'NONE', #327, #274 ) ;
#697 = LINE ( 'NONE', #446, #148 ) ;
#698 = VERTEX_POINT ( 'NONE', #513 ) ;
#699 = VECTOR ( 'NONE', #607, 1000.000000000000000 ) ;
#700 = EDGE_CURVE ( 'NONE', #532, #103, #711, .T. ) ;
#701 = DIRECTION ( 'NONE',  ( -0.000000000000000000, -0.000000000000000000, -1.000000000000000000 ) ) ;
#702 = EDGE_LOOP ( 'NONE', ( #437, #629, #129, #29 ) ) ;
#703 = CIRCLE ( 'NONE', #323, 2.000000000000001776 ) ;
#704 = AXIS2_PLACEMENT_3D ( 'NONE', #402, #280, #210 ) ;
#705 = DIRECTION ( 'NONE',  ( 0.000000000000000000, 0.000000000000000000, 1.000000000000000000 ) ) ;
#706 = PLANE ( 'NONE',  #805 ) ;
#707 = ORIENTED_EDGE ( 'NONE', *, *, #417, .F. ) ;
#708 = EDGE_CURVE ( 'NONE', #788, #34, #393, .T. ) ;
#709 = ADVANCED_FACE ( 'NONE', ( #588 ), #522, .F. ) ;
#710 = DIRECTION ( 'NONE',  ( 0.000000000000000000, 0.000000000000000000, 1.000000000000000000 ) ) ;
#711 = LINE ( 'NONE', #150, #364 ) ;
#712 = CARTESIAN_POINT ( 'NONE',  ( -1.224646799147365780E-16, 96.00000000000000000, 0.5999999999999999778 ) ) ;
#713 = ORIENTED_EDGE ( 'NONE', *, *, #775, .F. ) ;
#714 = AXIS2_PLACEMENT_3D ( 'NONE', #128, #254, #190 ) ;
#715 = CIRCLE ( 'NONE', #58, 27.30000000000000426 ) ;
#716 = LINE ( 'NONE', #529, #215 ) ;
#717 = DIRECTION ( 'NONE',  ( -1.000000000000000000, 0.000000000000000000, 0.000000000000000000 ) ) ;
#718 = LINE ( 'NONE', #803, #778 ) ;
#719 = VECTOR ( 'NONE', #180, 1000.000000000000000 ) ;
#720 = EDGE_LOOP ( 'NONE', ( #170, #769, #162, #794 ) ) ;
#721 = ORIENTED_EDGE ( 'NONE', *, *, #64, .F. ) ;
#722 = EDGE_CURVE ( 'NONE', #801, #289, #530, .T. ) ;
#723 = VERTEX_POINT ( 'NONE', #729 ) ;
#724 = DIRECTION ( 'NONE',  ( -1.000000000000000000, 0.000000000000000000, 0.000000000000000000 ) ) ;
#725 = CYLINDRICAL_SURFACE ( 'NONE', #639, 2.000000000000000888 ) ;
#726 = SURFACE_STYLE_FILL_AREA ( #659 ) ;
#727 = VERTEX_POINT ( 'NONE', #356 ) ;
#728 = ORIENTED_EDGE ( 'NONE', *, *, #147, .T. ) ;
#729 = CARTESIAN_POINT ( 'NONE',  ( 85.30000000000001137, 48.00000000000000000, 0.5999999999999999778 ) ) ;
#730 = CARTESIAN_POINT ( 'NONE',  ( 4.999999999999992006, 7.000000000000006217, 0.6000000000000033085 ) ) ;
#731 = DIRECTION ( 'NONE',  ( -0.000000000000000000, 0.000000000000000000, 1.000000000000000000 ) ) ;
#732 = EDGE_LOOP ( 'NONE', ( #760, #158, #616, #252 ) ) ;
#733 = CIRCLE ( 'NONE', #2, 2.000000000000001776 ) ;
#734 = VECTOR ( 'NONE', #756, 1000.000000000000000 ) ;
#735 = ORIENTED_EDGE ( 'NONE', *, *, #122, .T. ) ;
#736 = DIRECTION ( 'NONE',  ( 1.000000000000000000, 1.275673749111839290E-18, -0.000000000000000000 ) ) ;
#737 = DIRECTION ( 'NONE',  ( 1.000000000000000000, 0.000000000000000000, 0.000000000000000000 ) ) ;
#738 = EDGE_LOOP ( 'NONE', ( #320, #195 ) ) ;
#739 = CIRCLE ( 'NONE', #608, 2.000000000000000000 ) ;
#740 = ORIENTED_EDGE ( 'NONE', *, *, #583, .T. ) ;
#741 =( NAMED_UNIT ( * ) PLANE_ANGLE_UNIT ( ) SI_UNIT ( $, .RADIAN. ) );
#742 = AXIS2_PLACEMENT_3D ( 'NONE', #144, #584, #785 ) ;
#743 = FACE_BOUND ( 'NONE', #818, .T. ) ;
#744 = ADVANCED_FACE ( 'NONE', ( #613, #606 ), #798, .T. ) ;
#745 = ADVANCED_FACE ( 'NONE', ( #547 ), #397, .T. ) ;
#746 = LINE ( 'NONE', #304, #282 ) ;
#747 = ADVANCED_FACE ( 'NONE', ( #603 ), #35, .F. ) ;
#748 = LINE ( 'NONE', #178, #137 ) ;
#749 = EDGE_CURVE ( 'NONE', #563, #645, #488, .T. ) ;
#750 = DIRECTION ( 'NONE',  ( 0.000000000000000000, 0.000000000000000000, -1.000000000000000000 ) ) ;
#751 = FACE_OUTER_BOUND ( 'NONE', #270, .T. ) ;
#752 = AXIS2_PLACEMENT_3D ( 'NONE', #565, #312, #684 ) ;
#753 = EDGE_CURVE ( 'NONE', #657, #153, #422, .T. ) ;
#754 = CIRCLE ( 'NONE', #299, 9.999999999999994671 ) ;
#755 = DIRECTION ( 'NONE',  ( 1.000000000000000000, 3.469446951953616082E-14, 0.000000000000000000 ) ) ;
#756 = DIRECTION ( 'NONE',  ( -0.000000000000000000, -0.000000000000000000, -1.000000000000000000 ) ) ;
#757 = CARTESIAN_POINT ( 'NONE',  ( 6.999999999999992006, 7.000000000000006217, 0.6000000000000033085 ) ) ;
#758 = CARTESIAN_POINT ( 'NONE',  ( 96.00000000000000000, 10.00000000000006928, 0.000000000000000000 ) ) ;
#759 = CARTESIAN_POINT ( 'NONE',  ( 96.00000000000000000, 96.00000000000001421, 0.000000000000000000 ) ) ;
#760 = ORIENTED_EDGE ( 'NONE', *, *, #379, .T. ) ;
#761 = LINE ( 'NONE', #235, #734 ) ;
#762 = CYLINDRICAL_SURFACE ( 'NONE', #313, 2.000000000000001776 ) ;
#763 = FACE_OUTER_BOUND ( 'NONE', #720, .T. ) ;
#764 = VERTEX_POINT ( 'NONE', #599 ) ;
#765 = VECTOR ( 'NONE', #641, 1000.000000000000000 ) ;
#766 = SHAPE_DEFINITION_REPRESENTATION ( #418, #682 ) ;
#767 = AXIS2_PLACEMENT_3D ( 'NONE', #382, #191, #311 ) ;
#768 = CARTESIAN_POINT ( 'NONE',  ( 85.99999999999994316, 0.000000000000000000, 0.000000000000000000 ) ) ;
#769 = ORIENTED_EDGE ( 'NONE', *, *, #819, .T. ) ;
#770 = EDGE_CURVE ( 'NONE', #294, #657, #427, .T. ) ;
#771 = CARTESIAN_POINT ( 'NONE',  ( 48.00000000000000000, 48.00000000000000000, 0.5999999999999999778 ) ) ;
#772 = DIRECTION ( 'NONE',  ( -0.000000000000000000, -0.000000000000000000, 1.000000000000000000 ) ) ;
#773 = VERTEX_POINT ( 'NONE', #287 ) ;
#774 = DIRECTION ( 'NONE',  ( 1.000000000000000000, 0.000000000000000000, 0.000000000000000000 ) ) ;
#775 = EDGE_CURVE ( 'NONE', #294, #651, #105, .T. ) ;
#776 = CARTESIAN_POINT ( 'NONE',  ( 8.999999999999994671, 89.00000000000000000, 0.000000000000000000 ) ) ;
#777 = ORIENTED_EDGE ( 'NONE', *, *, #673, .F. ) ;
#778 = VECTOR ( 'NONE', #354, 1000.000000000000000 ) ;
#779 = DIRECTION ( 'NONE',  ( 1.000000000000000000, 0.000000000000000000, 0.000000000000000000 ) ) ;
#780 = CONICAL_SURFACE ( 'NONE', #253, 37.30000000000001137, 0.7330382858376190969 ) ;
#781 =( NAMED_UNIT ( * ) SI_UNIT ( $, .STERADIAN. ) SOLID_ANGLE_UNIT ( ) );
#782 = DIRECTION ( 'NONE',  ( 1.000000000000000000, 0.000000000000000000, 0.000000000000000000 ) ) ;
#783 = CARTESIAN_POINT ( 'NONE',  ( -1.224646799147365780E-16, 96.00000000000000000, 0.000000000000000000 ) ) ;
#784 = CARTESIAN_POINT ( 'NONE',  ( 85.99999999999994316, 0.000000000000000000, 0.5999999999999999778 ) ) ;
#785 = DIRECTION ( 'NONE',  ( -1.000000000000000000, 0.000000000000000000, 0.000000000000000000 ) ) ;
#786 = ORIENTED_EDGE ( 'NONE', *, *, #217, .T. ) ;
#787 = ORIENTED_EDGE ( 'NONE', *, *, #643, .F. ) ;
#788 = VERTEX_POINT ( 'NONE', #50 ) ;
#789 = DIRECTION ( 'NONE',  ( -0.000000000000000000, 0.000000000000000000, 1.000000000000000000 ) ) ;
#790 = CARTESIAN_POINT ( 'NONE',  ( 6.999999999999992006, 7.000000000000006217, 74.59999999999999432 ) ) ;
#791 = DIRECTION ( 'NONE',  ( 1.275673749111839482E-18, -1.000000000000000000, 0.000000000000000000 ) ) ;
#792 = VECTOR ( 'NONE', #139, 1000.000000000000000 ) ;
#793 = ORIENTED_EDGE ( 'NONE', *, *, #722, .F. ) ;
#794 = ORIENTED_EDGE ( 'NONE', *, *, #810, .F. ) ;
#795 = DIRECTION ( 'NONE',  ( -0.000000000000000000, -0.000000000000000000, -1.000000000000000000 ) ) ;
#796 = ORIENTED_EDGE ( 'NONE', *, *, #648, .F. ) ;
#797 = ORIENTED_EDGE ( 'NONE', *, *, #131, .T. ) ;
#798 = PLANE ( 'NONE',  #8 ) ;
#799 = FACE_BOUND ( 'NONE', #161, .T. ) ;
#800 = ORIENTED_EDGE ( 'NONE', *, *, #700, .F. ) ;
#801 = VERTEX_POINT ( 'NONE', #96 ) ;
#802 = FACE_BOUND ( 'NONE', #650, .T. ) ;
#803 = CARTESIAN_POINT ( 'NONE',  ( 4.999999999999992006, 7.000000000000006217, 74.59999999999999432 ) ) ;
#804 = ORIENTED_EDGE ( 'NONE', *, *, #326, .T. ) ;
#805 = AXIS2_PLACEMENT_3D ( 'NONE', #269, #93, #264 ) ;
#806 = EDGE_CURVE ( 'NONE', #153, #651, #176, .T. ) ;
#807 = AXIS2_PLACEMENT_3D ( 'NONE', #694, #251, #194 ) ;
#808 = VECTOR ( 'NONE', #307, 1000.000000000000000 ) ;
#809 = ADVANCED_FACE ( 'NONE', ( #243 ), #239, .F. ) ;
#810 = EDGE_CURVE ( 'NONE', #773, #693, #754, .T. ) ;
#811 = DIRECTION ( 'NONE',  ( 1.000000000000000000, 0.000000000000000000, 0.000000000000000000 ) ) ;
#812 = CARTESIAN_POINT ( 'NONE',  ( 75.30000000000001137, 48.00000000000000000, -74.00000000000000000 ) ) ;
#813 = LINE ( 'NONE', #132, #624 ) ;
#814 = EDGE_CURVE ( 'NONE', #528, #723, #746, .T. ) ;
#815 = VECTOR ( 'NONE', #600, 1000.000000000000000 ) ;
#816 = DIRECTION ( 'NONE',  ( -0.000000000000000000, -0.000000000000000000, -1.000000000000000000 ) ) ;
#817 = CARTESIAN_POINT ( 'NONE',  ( -1.275673749111848496E-17, 10.00000000000007105, -74.00000000000000000 ) ) ;
#818 = EDGE_LOOP ( 'NONE', ( #227, #464 ) ) ;
#819 = EDGE_CURVE ( 'NONE', #635, #10, #439, .T. ) ;
#820 = CARTESIAN_POINT ( 'NONE',  ( 85.99999999999994316, 0.000000000000000000, -74.00000000000000000 ) ) ;
#821 = CARTESIAN_POINT ( 'NONE',  ( 89.00000000000001421, 7.000000000000006217, 0.000000000000000000 ) ) ;
#822 = AXIS2_PLACEMENT_3D ( 'NONE', #577, #141, #782 ) ;
#823 = ORIENTED_EDGE ( 'NONE', *, *, #6, .F. ) ;
#824 = CIRCLE ( 'NONE', #558, 27.30000000000000426 ) ;
#825 = CARTESIAN_POINT ( 'NONE',  ( 83.04898988925540948, 48.00000000000000000, 3.100000000000000089 ) ) ;
#826 = ORIENTED_EDGE ( 'NONE', *, *, #208, .T. ) ;
#827 = DIRECTION ( 'NONE',  ( 1.000000000000000000, 0.000000000000000000, 0.000000000000000000 ) ) ;
ENDSEC;
END-ISO-10303-21;
