ISO-10303-21;
HEADER;
FILE_DESCRIPTION (( 'STEP AP214' ),
    '1' );
FILE_NAME ('pressure_a.STEP',
    '2026-02-09T05:52:47',
    ( '' ),
    ( '' ),
    'SwSTEP 2.0',
    'SolidWorks 2023',
    '' );
FILE_SCHEMA (( 'AUTOMOTIVE_DESIGN' ));
ENDSEC;

DATA;
#1 = ADVANCED_FACE ( 'NONE', ( #13 ), #343, .T. ) ;
#2 = STYLED_ITEM ( 'NONE', ( #136 ), #237 ) ;
#3 = ORIENTED_EDGE ( 'NONE', *, *, #82, .F. ) ;
#4 = LINE ( 'NONE', #131, #416 ) ;
#5 =( LENGTH_UNIT ( ) NAMED_UNIT ( * ) SI_UNIT ( $, .METRE. ) );
#6 = CARTESIAN_POINT ( 'NONE',  ( -0.002849206041198540634, 0.001221484725568738883, 0.000000000000000000 ) ) ;
#7 = CIRCLE ( 'NONE', #172, 0.005099999999999999499 ) ;
#8 = CARTESIAN_POINT ( 'NONE',  ( -0.005099999999999999499, 0.000000000000000000, 0.01600000000000000033 ) ) ;
#9 = FACE_OUTER_BOUND ( 'NONE', #141, .T. ) ;
#10 = LINE ( 'NONE', #317, #23 ) ;
#11 = DIRECTION ( 'NONE',  ( 1.000000000000000000, 0.000000000000000000, 0.000000000000000000 ) ) ;
#12 = LINE ( 'NONE', #140, #340 ) ;
#13 = FACE_OUTER_BOUND ( 'NONE', #106, .T. ) ;
#14 = DIRECTION ( 'NONE',  ( -0.000000000000000000, 0.000000000000000000, 1.000000000000000000 ) ) ;
#15 = PLANE ( 'NONE',  #288 ) ;
#16 = ADVANCED_FACE ( 'NONE', ( #282 ), #45, .T. ) ;
#17 = DIRECTION ( 'NONE',  ( 0.000000000000000000, -0.000000000000000000, -1.000000000000000000 ) ) ;
#18 = FACE_OUTER_BOUND ( 'NONE', #248, .T. ) ;
#19 = EDGE_CURVE ( 'NONE', #49, #57, #178, .T. ) ;
#20 = DIRECTION ( 'NONE',  ( -1.000000000000000000, 0.000000000000000000, 0.000000000000000000 ) ) ;
#21 = ORIENTED_EDGE ( 'NONE', *, *, #164, .T. ) ;
#22 = DIRECTION ( 'NONE',  ( -0.000000000000000000, -0.000000000000000000, -1.000000000000000000 ) ) ;
#23 = VECTOR ( 'NONE', #213, 1.000000000000000000 ) ;
#24 = ORIENTED_EDGE ( 'NONE', *, *, #314, .F. ) ;
#25 = DIRECTION ( 'NONE',  ( 0.000000000000000000, 0.000000000000000000, 1.000000000000000000 ) ) ;
#26 =( NAMED_UNIT ( * ) SI_UNIT ( $, .STERADIAN. ) SOLID_ANGLE_UNIT ( ) );
#27 = CARTESIAN_POINT ( 'NONE',  ( -0.005099999999999999499, 0.000000000000000000, 0.01600000000000000033 ) ) ;
#28 = VERTEX_POINT ( 'NONE', #313 ) ;
#29 = PRESENTATION_LAYER_ASSIGNMENT (  '', '', ( #2 ) ) ;
#30 = ORIENTED_EDGE ( 'NONE', *, *, #53, .T. ) ;
#31 = AXIS2_PLACEMENT_3D ( 'NONE', #86, #119, #11 ) ;
#32 = ORIENTED_EDGE ( 'NONE', *, *, #68, .F. ) ;
#33 = EDGE_CURVE ( 'NONE', #57, #120, #347, .T. ) ;
#34 = APPLICATION_CONTEXT ( 'automotive_design' ) ;
#35 = ORIENTED_EDGE ( 'NONE', *, *, #435, .T. ) ;
#36 = PRODUCT_DEFINITION_SHAPE ( 'NONE', 'NONE',  #133 ) ;
#37 = ADVANCED_FACE ( 'NONE', ( #9 ), #243, .F. ) ;
#38 = LINE ( 'NONE', #338, #206 ) ;
#39 = CIRCLE ( 'NONE', #251, 0.003099999999999999457 ) ;
#40 = LINE ( 'NONE', #341, #191 ) ;
#41 = AXIS2_PLACEMENT_3D ( 'NONE', #283, #118, #205 ) ;
#42 = FACE_OUTER_BOUND ( 'NONE', #290, .T. ) ;
#43 = DIRECTION ( 'NONE',  ( 0.000000000000000000, 0.000000000000000000, 1.000000000000000000 ) ) ;
#44 = VECTOR ( 'NONE', #305, 1.000000000000000000 ) ;
#45 = PLANE ( 'NONE',  #392 ) ;
#46 = AXIS2_PLACEMENT_3D ( 'NONE', #139, #380, #384 ) ;
#47 = FACE_OUTER_BOUND ( 'NONE', #63, .T. ) ;
#48 = AXIS2_PLACEMENT_3D ( 'NONE', #218, #356, #291 ) ;
#49 = VERTEX_POINT ( 'NONE', #418 ) ;
#50 = DIRECTION ( 'NONE',  ( -0.000000000000000000, 0.000000000000000000, -1.000000000000000000 ) ) ;
#51 = ADVANCED_FACE ( 'NONE', ( #253 ), #88, .F. ) ;
#52 = DIRECTION ( 'NONE',  ( 1.000000000000000000, 0.000000000000000000, 0.000000000000000000 ) ) ;
#53 = EDGE_CURVE ( 'NONE', #49, #229, #89, .T. ) ;
#54 = DIRECTION ( 'NONE',  ( -0.000000000000000000, 0.000000000000000000, 1.000000000000000000 ) ) ;
#55 = CARTESIAN_POINT ( 'NONE',  ( -0.01600000000000000033, 0.001221484725568738883, 0.01539042197268568335 ) ) ;
#56 = CARTESIAN_POINT ( 'NONE',  ( 0.000000000000000000, 0.000000000000000000, 0.01600000000000000033 ) ) ;
#57 = VERTEX_POINT ( 'NONE', #420 ) ;
#58 = CARTESIAN_POINT ( 'NONE',  ( -0.004951562891169034031, 0.001221484725568738883, 0.0006095780273143169836 ) ) ;
#59 = ORIENTED_EDGE ( 'NONE', *, *, #19, .T. ) ;
#60 = DIRECTION ( 'NONE',  ( 1.000000000000000000, 0.000000000000000000, 0.000000000000000000 ) ) ;
#61 = LINE ( 'NONE', #111, #98 ) ;
#62 = ORIENTED_EDGE ( 'NONE', *, *, #75, .T. ) ;
#63 = EDGE_LOOP ( 'NONE', ( #329, #21, #362, #363 ) ) ;
#64 = AXIS2_PLACEMENT_3D ( 'NONE', #388, #22, #184 ) ;
#65 = VERTEX_POINT ( 'NONE', #357 ) ;
#66 = AXIS2_PLACEMENT_3D ( 'NONE', #177, #413, #285 ) ;
#67 = ORIENTED_EDGE ( 'NONE', *, *, #396, .T. ) ;
#68 = EDGE_CURVE ( 'NONE', #199, #398, #311, .T. ) ;
#69 = VECTOR ( 'NONE', #354, 1.000000000000000000 ) ;
#70 = EDGE_CURVE ( 'NONE', #150, #263, #61, .T. ) ;
#71 = FILL_AREA_STYLE ('',( #303 ) ) ;
#72 = ORIENTED_EDGE ( 'NONE', *, *, #198, .T. ) ;
#73 = VERTEX_POINT ( 'NONE', #115 ) ;
#74 = LINE ( 'NONE', #169, #44 ) ;
#75 = EDGE_CURVE ( 'NONE', #65, #234, #84, .T. ) ;
#76 = AXIS2_PLACEMENT_3D ( 'NONE', #293, #346, #173 ) ;
#77 = DIRECTION ( 'NONE',  ( -0.000000000000000000, -0.000000000000000000, -1.000000000000000000 ) ) ;
#78 =( NAMED_UNIT ( * ) SI_UNIT ( $, .STERADIAN. ) SOLID_ANGLE_UNIT ( ) );
#79 = VECTOR ( 'NONE', #271, 1.000000000000000000 ) ;
#80 = ORIENTED_EDGE ( 'NONE', *, *, #273, .T. ) ;
#81 = CARTESIAN_POINT ( 'NONE',  ( 0.000000000000000000, 0.000000000000000000, 0.0006095780273143169836 ) ) ;
#82 = EDGE_CURVE ( 'NONE', #150, #174, #400, .T. ) ;
#83 = LINE ( 'NONE', #87, #306 ) ;
#84 = CIRCLE ( 'NONE', #232, 0.003099999999999999457 ) ;
#85 = EDGE_LOOP ( 'NONE', ( #185, #407, #183, #404 ) ) ;
#86 = CARTESIAN_POINT ( 'NONE',  ( 0.000000000000000000, 0.000000000000000000, 0.000000000000000000 ) ) ;
#87 = CARTESIAN_POINT ( 'NONE',  ( -0.004951562891169034898, 0.001221484725568738883, 0.01600000000000000033 ) ) ;
#88 = PLANE ( 'NONE',  #48 ) ;
#89 = LINE ( 'NONE', #27, #210 ) ;
#90 = DIRECTION ( 'NONE',  ( 1.000000000000000000, 0.000000000000000000, 0.000000000000000000 ) ) ;
#91 = DIRECTION ( 'NONE',  ( -0.000000000000000000, -0.000000000000000000, -1.000000000000000000 ) ) ;
#92 = ORIENTED_EDGE ( 'NONE', *, *, #215, .F. ) ;
#93 = ORIENTED_EDGE ( 'NONE', *, *, #360, .T. ) ;
#94 = ORIENTED_EDGE ( 'NONE', *, *, #374, .T. ) ;
#95 = EDGE_CURVE ( 'NONE', #425, #434, #369, .T. ) ;
#96 = EDGE_LOOP ( 'NONE', ( #258, #62, #93, #208, #3, #212 ) ) ;
#97 = VECTOR ( 'NONE', #101, 1.000000000000000000 ) ;
#98 = VECTOR ( 'NONE', #257, 1.000000000000000000 ) ;
#99 = ORIENTED_EDGE ( 'NONE', *, *, #389, .F. ) ;
#100 = ORIENTED_EDGE ( 'NONE', *, *, #333, .F. ) ;
#101 = DIRECTION ( 'NONE',  ( -0.000000000000000000, -0.000000000000000000, -1.000000000000000000 ) ) ;
#102 = LINE ( 'NONE', #207, #381 ) ;
#103 = DIRECTION ( 'NONE',  ( 0.000000000000000000, 0.000000000000000000, 1.000000000000000000 ) ) ;
#104 = PLANE ( 'NONE',  #366 ) ;
#105 = EDGE_CURVE ( 'NONE', #49, #373, #297, .T. ) ;
#106 = EDGE_LOOP ( 'NONE', ( #122, #331, #227, #394, #148, #300, #130, #292, #433, #328 ) ) ;
#107 = DIRECTION ( 'NONE',  ( -1.000000000000000000, 0.000000000000000000, 0.000000000000000000 ) ) ;
#108 = DIRECTION ( 'NONE',  ( 1.000000000000000000, 0.000000000000000000, 0.000000000000000000 ) ) ;
#109 = CARTESIAN_POINT ( 'NONE',  ( -0.004951562891169034031, 0.001221484725568738883, 0.01539042197268568335 ) ) ;
#110 = ORIENTED_EDGE ( 'NONE', *, *, #225, .F. ) ;
#111 = CARTESIAN_POINT ( 'NONE',  ( 0.000000000000000000, 0.000000000000000000, 0.000000000000000000 ) ) ;
#112 = CARTESIAN_POINT ( 'NONE',  ( 0.000000000000000000, 0.000000000000000000, 0.01600000000000000033 ) ) ;
#113 = CIRCLE ( 'NONE', #422, 0.003099999999999999457 ) ;
#114 = DIRECTION ( 'NONE',  ( 0.000000000000000000, -1.000000000000000000, 0.000000000000000000 ) ) ;
#115 = CARTESIAN_POINT ( 'NONE',  ( -0.002849206041198540634, 0.001221484725568738883, 0.01539042197268568335 ) ) ;
#116 = DIRECTION ( 'NONE',  ( 0.000000000000000000, 0.000000000000000000, 1.000000000000000000 ) ) ;
#117 = CARTESIAN_POINT ( 'NONE',  ( 0.000000000000000000, 0.000000000000000000, 0.01699999999999999428 ) ) ;
#118 = DIRECTION ( 'NONE',  ( -0.000000000000000000, 0.000000000000000000, 1.000000000000000000 ) ) ;
#119 = DIRECTION ( 'NONE',  ( 0.000000000000000000, 0.000000000000000000, 1.000000000000000000 ) ) ;
#120 = VERTEX_POINT ( 'NONE', #327 ) ;
#121 = DIRECTION ( 'NONE',  ( 0.000000000000000000, 0.000000000000000000, 1.000000000000000000 ) ) ;
#122 = ORIENTED_EDGE ( 'NONE', *, *, #435, .F. ) ;
#123 = ORIENTED_EDGE ( 'NONE', *, *, #19, .F. ) ;
#124 = EDGE_CURVE ( 'NONE', #434, #174, #254, .T. ) ;
#125 = ORIENTED_EDGE ( 'NONE', *, *, #225, .T. ) ;
#126 = EDGE_LOOP ( 'NONE', ( #167, #32, #137, #156, #161 ) ) ;
#127 = AXIS2_PLACEMENT_3D ( 'NONE', #242, #43, #406 ) ;
#128 = DIRECTION ( 'NONE',  ( 0.000000000000000000, 0.000000000000000000, 1.000000000000000000 ) ) ;
#129 = AXIS2_PLACEMENT_3D ( 'NONE', #361, #14, #142 ) ;
#130 = ORIENTED_EDGE ( 'NONE', *, *, #105, .T. ) ;
#131 = CARTESIAN_POINT ( 'NONE',  ( -0.005099999999999999499, 0.000000000000000000, 0.01600000000000000033 ) ) ;
#132 = EDGE_CURVE ( 'NONE', #334, #57, #429, .T. ) ;
#133 = PRODUCT_DEFINITION ( 'UNKNOWN', '', #330, #376 ) ;
#134 = DIRECTION ( 'NONE',  ( -0.000000000000000000, -0.000000000000000000, -1.000000000000000000 ) ) ;
#135 = EDGE_CURVE ( 'NONE', #174, #28, #7, .T. ) ;
#136 = PRESENTATION_STYLE_ASSIGNMENT (( #307 ) ) ;
#137 = ORIENTED_EDGE ( 'NONE', *, *, #301, .F. ) ;
#138 =( LENGTH_UNIT ( ) NAMED_UNIT ( * ) SI_UNIT ( $, .METRE. ) );
#139 = CARTESIAN_POINT ( 'NONE',  ( 0.000000000000000000, 0.000000000000000000, 0.01699999999999999428 ) ) ;
#140 = CARTESIAN_POINT ( 'NONE',  ( -0.003099999999999999457, 0.000000000000000000, 0.01600000000000000033 ) ) ;
#141 = EDGE_LOOP ( 'NONE', ( #72, #365, #123, #397 ) ) ;
#142 = DIRECTION ( 'NONE',  ( 1.000000000000000000, 0.000000000000000000, 0.000000000000000000 ) ) ;
#143 = CARTESIAN_POINT ( 'NONE',  ( -0.01600000000000000033, 0.001221484725568738883, 0.0006095780273143169836 ) ) ;
#144 = VERTEX_POINT ( 'NONE', #318 ) ;
#145 = CYLINDRICAL_SURFACE ( 'NONE', #64, 0.003099999999999999457 ) ;
#146 = CARTESIAN_POINT ( 'NONE',  ( -0.002849206041198540634, 0.001221484725568738883, 0.01600000000000000033 ) ) ;
#147 = VECTOR ( 'NONE', #315, 1.000000000000000000 ) ;
#148 = ORIENTED_EDGE ( 'NONE', *, *, #157, .T. ) ;
#149 = DIRECTION ( 'NONE',  ( 0.000000000000000000, 0.000000000000000000, 1.000000000000000000 ) ) ;
#150 = VERTEX_POINT ( 'NONE', #324 ) ;
#151 = FACE_OUTER_BOUND ( 'NONE', #262, .T. ) ;
#152 = ADVANCED_BREP_SHAPE_REPRESENTATION ( 'pressure_a', ( #237, #310 ), #187 ) ;
#153 = CARTESIAN_POINT ( 'NONE',  ( 0.000000000000000000, 0.000000000000000000, 0.01539042197268568335 ) ) ;
#154 = ORIENTED_EDGE ( 'NONE', *, *, #75, .F. ) ;
#155 = COLOUR_RGB ( '',0.7921568627450980005, 0.8196078431372548767, 0.9333333333333333481 ) ;
#156 = ORIENTED_EDGE ( 'NONE', *, *, #374, .F. ) ;
#157 = EDGE_CURVE ( 'NONE', #160, #229, #261, .T. ) ;
#158 = VECTOR ( 'NONE', #414, 1.000000000000000000 ) ;
#159 = ORIENTED_EDGE ( 'NONE', *, *, #344, .T. ) ;
#160 = VERTEX_POINT ( 'NONE', #58 ) ;
#161 = ORIENTED_EDGE ( 'NONE', *, *, #396, .F. ) ;
#162 = LINE ( 'NONE', #8, #97 ) ;
#163 = CIRCLE ( 'NONE', #228, 0.003099999999999999457 ) ;
#164 = EDGE_CURVE ( 'NONE', #73, #383, #214, .T. ) ;
#165 = DIRECTION ( 'NONE',  ( 1.000000000000000000, -0.000000000000000000, -0.000000000000000000 ) ) ;
#166 = AXIS2_PLACEMENT_3D ( 'NONE', #390, #121, #90 ) ;
#167 = ORIENTED_EDGE ( 'NONE', *, *, #198, .F. ) ;
#168 = CARTESIAN_POINT ( 'NONE',  ( -0.01600000000000000033, 0.001221484725568738883, -0.001517035667560756584 ) ) ;
#169 = CARTESIAN_POINT ( 'NONE',  ( 0.000000000000000000, 0.001221484725568738883, 0.01600000000000000033 ) ) ;
#170 = DIRECTION ( 'NONE',  ( 1.000000000000000000, -0.000000000000000000, -0.000000000000000000 ) ) ;
#171 = APPLICATION_PROTOCOL_DEFINITION ( 'draft international standard', 'automotive_design', 1998, #34 ) ;
#172 = AXIS2_PLACEMENT_3D ( 'NONE', #412, #245, #284 ) ;
#173 = DIRECTION ( 'NONE',  ( 0.000000000000000000, -0.000000000000000000, 1.000000000000000000 ) ) ;
#174 = VERTEX_POINT ( 'NONE', #321 ) ;
#175 = CARTESIAN_POINT ( 'NONE',  ( 0.005099999999999999499, 6.245698675651500623E-19, 0.01699999999999999428 ) ) ;
#176 = FACE_OUTER_BOUND ( 'NONE', #395, .T. ) ;
#177 = CARTESIAN_POINT ( 'NONE',  ( 0.000000000000000000, 0.000000000000000000, 0.01600000000000000033 ) ) ;
#178 = LINE ( 'NONE', #256, #350 ) ;
#179 = PRODUCT_CONTEXT ( 'NONE', #34, 'mechanical' ) ;
#180 = DIRECTION ( 'NONE',  ( -1.000000000000000000, 0.000000000000000000, 0.000000000000000000 ) ) ;
#181 = DIRECTION ( 'NONE',  ( -0.000000000000000000, -0.000000000000000000, -1.000000000000000000 ) ) ;
#182 = ADVANCED_FACE ( 'NONE', ( #176 ), #209, .F. ) ;
#183 = ORIENTED_EDGE ( 'NONE', *, *, #431, .F. ) ;
#184 = DIRECTION ( 'NONE',  ( -1.000000000000000000, 0.000000000000000000, 0.000000000000000000 ) ) ;
#185 = ORIENTED_EDGE ( 'NONE', *, *, #215, .T. ) ;
#186 = LINE ( 'NONE', #259, #193 ) ;
#187 =( GEOMETRIC_REPRESENTATION_CONTEXT ( 3 ) GLOBAL_UNCERTAINTY_ASSIGNED_CONTEXT ( ( #260 ) ) GLOBAL_UNIT_ASSIGNED_CONTEXT ( ( #138, #353, #26 ) ) REPRESENTATION_CONTEXT ( 'NONE', 'WORKASPACE' ) );
#188 = DIRECTION ( 'NONE',  ( -1.000000000000000000, 0.000000000000000000, 0.000000000000000000 ) ) ;
#189 = ORIENTED_EDGE ( 'NONE', *, *, #33, .T. ) ;
#190 = ORIENTED_EDGE ( 'NONE', *, *, #372, .T. ) ;
#191 = VECTOR ( 'NONE', #103, 1.000000000000000000 ) ;
#192 = ORIENTED_EDGE ( 'NONE', *, *, #314, .T. ) ;
#193 = VECTOR ( 'NONE', #417, 1.000000000000000000 ) ;
#194 = ORIENTED_EDGE ( 'NONE', *, *, #124, .F. ) ;
#195 = AXIS2_PLACEMENT_3D ( 'NONE', #352, #276, #316 ) ;
#196 = ADVANCED_FACE ( 'NONE', ( #18 ), #145, .F. ) ;
#197 = VECTOR ( 'NONE', #278, 1.000000000000000000 ) ;
#198 = EDGE_CURVE ( 'NONE', #398, #334, #287, .T. ) ;
#199 = VERTEX_POINT ( 'NONE', #238 ) ;
#200 = DIRECTION ( 'NONE',  ( 1.000000000000000000, 0.000000000000000000, -0.000000000000000000 ) ) ;
#201 = ORIENTED_EDGE ( 'NONE', *, *, #132, .F. ) ;
#202 = PLANE ( 'NONE',  #304 ) ;
#203 = AXIS2_PLACEMENT_3D ( 'NONE', #56, #286, #107 ) ;
#204 = DIRECTION ( 'NONE',  ( 0.000000000000000000, -1.000000000000000000, -0.000000000000000000 ) ) ;
#205 = DIRECTION ( 'NONE',  ( 1.000000000000000000, 0.000000000000000000, 0.000000000000000000 ) ) ;
#206 = VECTOR ( 'NONE', #165, 1.000000000000000000 ) ;
#207 = CARTESIAN_POINT ( 'NONE',  ( -0.005099999999999999499, 0.000000000000000000, 0.01600000000000000033 ) ) ;
#208 = ORIENTED_EDGE ( 'NONE', *, *, #135, .F. ) ;
#209 = PLANE ( 'NONE',  #299 ) ;
#210 = VECTOR ( 'NONE', #415, 1.000000000000000000 ) ;
#211 = CARTESIAN_POINT ( 'NONE',  ( 0.000000000000000000, 0.000000000000000000, 0.01539042197268568335 ) ) ;
#212 = ORIENTED_EDGE ( 'NONE', *, *, #70, .T. ) ;
#213 = DIRECTION ( 'NONE',  ( 1.000000000000000000, -0.000000000000000000, -0.000000000000000000 ) ) ;
#214 = LINE ( 'NONE', #349, #69 ) ;
#215 = EDGE_CURVE ( 'NONE', #160, #226, #38, .T. ) ;
#216 = APPLICATION_CONTEXT ( 'automotive_design' ) ;
#217 = DIRECTION ( 'NONE',  ( 1.000000000000000000, 0.000000000000000000, -0.000000000000000000 ) ) ;
#218 = CARTESIAN_POINT ( 'NONE',  ( 0.000000000000000000, 0.000000000000000000, 0.01600000000000000033 ) ) ;
#219 = CARTESIAN_POINT ( 'NONE',  ( 0.005099999999999999499, 6.245698675651500623E-19, 0.01600000000000000033 ) ) ;
#220 = CLOSED_SHELL ( 'NONE', ( #196, #1, #266, #391, #423, #182, #37, #364, #402, #230, #233, #51, #16 ) ) ;
#221 = CARTESIAN_POINT ( 'NONE',  ( -0.005099999999999999499, 0.000000000000000000, 0.01600000000000000033 ) ) ;
#222 = SHAPE_DEFINITION_REPRESENTATION ( #36, #152 ) ;
#223 = CARTESIAN_POINT ( 'NONE',  ( -0.003099999999999999457, 0.000000000000000000, 0.01600000000000000033 ) ) ;
#224 = ORIENTED_EDGE ( 'NONE', *, *, #333, .T. ) ;
#225 = EDGE_CURVE ( 'NONE', #229, #150, #162, .T. ) ;
#226 = VERTEX_POINT ( 'NONE', #342 ) ;
#227 = ORIENTED_EDGE ( 'NONE', *, *, #135, .T. ) ;
#228 = AXIS2_PLACEMENT_3D ( 'NONE', #211, #181, #382 ) ;
#229 = VERTEX_POINT ( 'NONE', #236 ) ;
#230 = ADVANCED_FACE ( 'NONE', ( #42 ), #202, .F. ) ;
#231 = MECHANICAL_DESIGN_GEOMETRIC_PRESENTATION_REPRESENTATION (  '', ( #2 ), #345 ) ;
#232 = AXIS2_PLACEMENT_3D ( 'NONE', #393, #426, #108 ) ;
#233 = ADVANCED_FACE ( 'NONE', ( #272 ), #405, .F. ) ;
#234 = VERTEX_POINT ( 'NONE', #6 ) ;
#235 = EDGE_LOOP ( 'NONE', ( #295, #35 ) ) ;
#236 = CARTESIAN_POINT ( 'NONE',  ( -0.005100000000000000366, 0.000000000000000000, 0.0006095780273143169836 ) ) ;
#237 = MANIFOLD_SOLID_BREP ( 'Boss-Extrude2', #220 ) ;
#238 = CARTESIAN_POINT ( 'NONE',  ( -0.004951562891169034898, 0.001221484725568738883, 0.01600000000000000033 ) ) ;
#239 = PRODUCT ( 'pressure_a', 'pressure_a', '', ( #179 ) ) ;
#240 = ORIENTED_EDGE ( 'NONE', *, *, #250, .F. ) ;
#241 = CARTESIAN_POINT ( 'NONE',  ( -0.01600000000000000033, 0.000000000000000000, 0.000000000000000000 ) ) ;
#242 = CARTESIAN_POINT ( 'NONE',  ( 0.000000000000000000, 0.000000000000000000, 0.000000000000000000 ) ) ;
#243 = PLANE ( 'NONE',  #268 ) ;
#244 = CARTESIAN_POINT ( 'NONE',  ( -0.005099999999999999499, 0.000000000000000000, 0.01699999999999999428 ) ) ;
#245 = DIRECTION ( 'NONE',  ( 0.000000000000000000, 0.000000000000000000, 1.000000000000000000 ) ) ;
#246 = VECTOR ( 'NONE', #77, 1.000000000000000000 ) ;
#247 = DIRECTION ( 'NONE',  ( 0.000000000000000000, 0.000000000000000000, 1.000000000000000000 ) ) ;
#248 = EDGE_LOOP ( 'NONE', ( #67, #192, #240, #264, #270, #201 ) ) ;
#249 = DIRECTION ( 'NONE',  ( 1.000000000000000000, 0.000000000000000000, 0.000000000000000000 ) ) ;
#250 = EDGE_CURVE ( 'NONE', #263, #65, #296, .T. ) ;
#251 = AXIS2_PLACEMENT_3D ( 'NONE', #252, #25, #60 ) ;
#252 = CARTESIAN_POINT ( 'NONE',  ( 0.000000000000000000, 0.000000000000000000, 0.0006095780273143169836 ) ) ;
#253 = FACE_OUTER_BOUND ( 'NONE', #126, .T. ) ;
#254 = LINE ( 'NONE', #219, #385 ) ;
#255 = CARTESIAN_POINT ( 'NONE',  ( -0.003099999999999999457, 0.000000000000000000, 0.01600000000000000033 ) ) ;
#256 = CARTESIAN_POINT ( 'NONE',  ( -0.01600000000000000033, 0.000000000000000000, 0.01539042197268568335 ) ) ;
#257 = DIRECTION ( 'NONE',  ( 1.000000000000000000, 0.000000000000000000, 0.000000000000000000 ) ) ;
#258 = ORIENTED_EDGE ( 'NONE', *, *, #250, .T. ) ;
#259 = CARTESIAN_POINT ( 'NONE',  ( -0.01600000000000000033, 0.001221484725568738883, 0.01539042197268568335 ) ) ;
#260 = UNCERTAINTY_MEASURE_WITH_UNIT (LENGTH_MEASURE( 1.000000000000000082E-05 ), #138, 'distance_accuracy_value', 'NONE');
#261 = CIRCLE ( 'NONE', #432, 0.005099999999999999499 ) ;
#262 = EDGE_LOOP ( 'NONE', ( #194, #410, #80, #335, #30, #125, #403 ) ) ;
#263 = VERTEX_POINT ( 'NONE', #409 ) ;
#264 = ORIENTED_EDGE ( 'NONE', *, *, #344, .F. ) ;
#265 = CIRCLE ( 'NONE', #41, 0.005099999999999999499 ) ;
#266 = ADVANCED_FACE ( 'NONE', ( #401 ), #104, .F. ) ;
#267 = DIRECTION ( 'NONE',  ( 0.000000000000000000, 0.000000000000000000, -1.000000000000000000 ) ) ;
#268 = AXIS2_PLACEMENT_3D ( 'NONE', #320, #114, #17 ) ;
#269 = ORIENTED_EDGE ( 'NONE', *, *, #164, .F. ) ;
#270 = ORIENTED_EDGE ( 'NONE', *, *, #33, .F. ) ;
#271 = DIRECTION ( 'NONE',  ( 1.000000000000000000, 0.000000000000000000, -0.000000000000000000 ) ) ;
#272 = FACE_OUTER_BOUND ( 'NONE', #325, .T. ) ;
#273 = EDGE_CURVE ( 'NONE', #425, #398, #102, .T. ) ;
#274 = LINE ( 'NONE', #408, #246 ) ;
#275 =( NAMED_UNIT ( * ) PLANE_ANGLE_UNIT ( ) SI_UNIT ( $, .RADIAN. ) );
#276 = DIRECTION ( 'NONE',  ( -0.000000000000000000, -0.000000000000000000, -1.000000000000000000 ) ) ;
#277 = DIRECTION ( 'NONE',  ( 0.000000000000000000, 0.000000000000000000, 1.000000000000000000 ) ) ;
#278 = DIRECTION ( 'NONE',  ( -0.000000000000000000, -0.000000000000000000, -1.000000000000000000 ) ) ;
#279 = LINE ( 'NONE', #424, #436 ) ;
#280 = EDGE_CURVE ( 'NONE', #373, #199, #40, .T. ) ;
#281 = UNCERTAINTY_MEASURE_WITH_UNIT (LENGTH_MEASURE( 1.000000000000000082E-05 ), #5, 'distance_accuracy_value', 'NONE');
#282 = FACE_OUTER_BOUND ( 'NONE', #235, .T. ) ;
#283 = CARTESIAN_POINT ( 'NONE',  ( 0.000000000000000000, 0.000000000000000000, 0.01699999999999999428 ) ) ;
#284 = DIRECTION ( 'NONE',  ( 1.000000000000000000, 0.000000000000000000, 0.000000000000000000 ) ) ;
#285 = DIRECTION ( 'NONE',  ( -1.000000000000000000, 0.000000000000000000, 0.000000000000000000 ) ) ;
#286 = DIRECTION ( 'NONE',  ( -0.000000000000000000, -0.000000000000000000, -1.000000000000000000 ) ) ;
#287 = LINE ( 'NONE', #312, #79 ) ;
#288 = AXIS2_PLACEMENT_3D ( 'NONE', #143, #359, #217 ) ;
#289 = CARTESIAN_POINT ( 'NONE',  ( -0.002849206041198540634, 0.001221484725568738883, 0.01600000000000000033 ) ) ;
#290 = EDGE_LOOP ( 'NONE', ( #367, #190, #92, #99 ) ) ;
#291 = DIRECTION ( 'NONE',  ( 1.000000000000000000, 0.000000000000000000, 0.000000000000000000 ) ) ;
#292 = ORIENTED_EDGE ( 'NONE', *, *, #280, .T. ) ;
#293 = CARTESIAN_POINT ( 'NONE',  ( -0.01600000000000000033, 0.001221484725568738883, 0.01751703566756075692 ) ) ;
#294 = DIRECTION ( 'NONE',  ( -0.000000000000000000, -0.000000000000000000, -1.000000000000000000 ) ) ;
#295 = ORIENTED_EDGE ( 'NONE', *, *, #95, .T. ) ;
#296 = CIRCLE ( 'NONE', #127, 0.003099999999999999457 ) ;
#297 = CIRCLE ( 'NONE', #332, 0.005099999999999999499 ) ;
#298 = ORIENTED_EDGE ( 'NONE', *, *, #105, .F. ) ;
#299 = AXIS2_PLACEMENT_3D ( 'NONE', #55, #50, #180 ) ;
#300 = ORIENTED_EDGE ( 'NONE', *, *, #53, .F. ) ;
#301 = EDGE_CURVE ( 'NONE', #383, #199, #74, .T. ) ;
#302 = ORIENTED_EDGE ( 'NONE', *, *, #337, .F. ) ;
#303 = FILL_AREA_STYLE_COLOUR ( '', #155 ) ;
#304 = AXIS2_PLACEMENT_3D ( 'NONE', #168, #375, #128 ) ;
#305 = DIRECTION ( 'NONE',  ( -1.000000000000000000, 0.000000000000000000, 0.000000000000000000 ) ) ;
#306 = VECTOR ( 'NONE', #116, 1.000000000000000000 ) ;
#307 = SURFACE_STYLE_USAGE ( .BOTH. , #309 ) ;
#308 = EDGE_CURVE ( 'NONE', #398, #49, #4, .T. ) ;
#309 = SURFACE_SIDE_STYLE ('',( #377 ) ) ;
#310 = AXIS2_PLACEMENT_3D ( 'NONE', #348, #277, #419 ) ;
#311 = CIRCLE ( 'NONE', #129, 0.005099999999999999499 ) ;
#312 = CARTESIAN_POINT ( 'NONE',  ( 0.000000000000000000, 0.000000000000000000, 0.01600000000000000033 ) ) ;
#313 = CARTESIAN_POINT ( 'NONE',  ( -0.004951562891169034898, 0.001221484725568738883, 0.000000000000000000 ) ) ;
#314 = EDGE_CURVE ( 'NONE', #144, #65, #274, .T. ) ;
#315 = DIRECTION ( 'NONE',  ( 0.000000000000000000, 0.000000000000000000, 1.000000000000000000 ) ) ;
#316 = DIRECTION ( 'NONE',  ( -1.000000000000000000, 0.000000000000000000, 0.000000000000000000 ) ) ;
#317 = CARTESIAN_POINT ( 'NONE',  ( -0.01600000000000000033, 0.000000000000000000, 0.0006095780273143169836 ) ) ;
#318 = CARTESIAN_POINT ( 'NONE',  ( 0.003099999999999999457, 3.796405077356794336E-19, 0.01600000000000000033 ) ) ;
#319 = FACE_OUTER_BOUND ( 'NONE', #85, .T. ) ;
#320 = CARTESIAN_POINT ( 'NONE',  ( -0.01600000000000000033, 0.000000000000000000, 0.01539042197268568335 ) ) ;
#321 = CARTESIAN_POINT ( 'NONE',  ( 0.005099999999999999499, 6.245698675651500623E-19, 0.000000000000000000 ) ) ;
#322 = DIRECTION ( 'NONE',  ( -0.000000000000000000, -0.000000000000000000, -1.000000000000000000 ) ) ;
#323 = EDGE_LOOP ( 'NONE', ( #24, #94, #269, #100, #189, #302, #427, #154 ) ) ;
#324 = CARTESIAN_POINT ( 'NONE',  ( -0.005099999999999999499, 0.000000000000000000, 0.000000000000000000 ) ) ;
#325 = EDGE_LOOP ( 'NONE', ( #430, #159, #358, #110 ) ) ;
#326 = PLANE ( 'NONE',  #76 ) ;
#327 = CARTESIAN_POINT ( 'NONE',  ( -0.003099999999999999457, 0.000000000000000000, 0.0006095780273143169836 ) ) ;
#328 = ORIENTED_EDGE ( 'NONE', *, *, #273, .F. ) ;
#329 = ORIENTED_EDGE ( 'NONE', *, *, #421, .T. ) ;
#330 = PRODUCT_DEFINITION_FORMATION_WITH_SPECIFIED_SOURCE ( 'ANY', '', #239, .NOT_KNOWN. ) ;
#331 = ORIENTED_EDGE ( 'NONE', *, *, #124, .T. ) ;
#332 = AXIS2_PLACEMENT_3D ( 'NONE', #153, #91, #188 ) ;
#333 = EDGE_CURVE ( 'NONE', #57, #73, #163, .T. ) ;
#334 = VERTEX_POINT ( 'NONE', #255 ) ;
#335 = ORIENTED_EDGE ( 'NONE', *, *, #308, .T. ) ;
#336 = DIRECTION ( 'NONE',  ( -0.000000000000000000, -0.000000000000000000, -1.000000000000000000 ) ) ;
#337 = EDGE_CURVE ( 'NONE', #226, #120, #39, .T. ) ;
#338 = CARTESIAN_POINT ( 'NONE',  ( -0.01600000000000000033, 0.001221484725568738883, 0.0006095780273143169836 ) ) ;
#339 = PRODUCT_RELATED_PRODUCT_CATEGORY ( 'part', '', ( #239 ) ) ;
#340 = VECTOR ( 'NONE', #322, 1.000000000000000000 ) ;
#341 = CARTESIAN_POINT ( 'NONE',  ( -0.004951562891169034898, 0.001221484725568738883, 0.01600000000000000033 ) ) ;
#342 = CARTESIAN_POINT ( 'NONE',  ( -0.002849206041198541067, 0.001221484725568738883, 0.0006095780273143169836 ) ) ;
#343 = CYLINDRICAL_SURFACE ( 'NONE', #195, 0.005099999999999999499 ) ;
#344 = EDGE_CURVE ( 'NONE', #120, #263, #12, .T. ) ;
#345 =( GEOMETRIC_REPRESENTATION_CONTEXT ( 3 ) GLOBAL_UNCERTAINTY_ASSIGNED_CONTEXT ( ( #281 ) ) GLOBAL_UNIT_ASSIGNED_CONTEXT ( ( #5, #275, #78 ) ) REPRESENTATION_CONTEXT ( 'NONE', 'WORKASPACE' ) );
#346 = DIRECTION ( 'NONE',  ( 0.000000000000000000, 1.000000000000000000, 0.000000000000000000 ) ) ;
#347 = LINE ( 'NONE', #387, #158 ) ;
#348 = CARTESIAN_POINT ( 'NONE',  ( 0.000000000000000000, 0.000000000000000000, 0.000000000000000000 ) ) ;
#349 = CARTESIAN_POINT ( 'NONE',  ( -0.002849206041198540634, 0.001221484725568738883, 0.01600000000000000033 ) ) ;
#350 = VECTOR ( 'NONE', #170, 1.000000000000000000 ) ;
#351 = LINE ( 'NONE', #289, #147 ) ;
#352 = CARTESIAN_POINT ( 'NONE',  ( 0.000000000000000000, 0.000000000000000000, 0.01600000000000000033 ) ) ;
#353 =( NAMED_UNIT ( * ) PLANE_ANGLE_UNIT ( ) SI_UNIT ( $, .RADIAN. ) );
#354 = DIRECTION ( 'NONE',  ( 0.000000000000000000, 0.000000000000000000, 1.000000000000000000 ) ) ;
#355 = CYLINDRICAL_SURFACE ( 'NONE', #203, 0.003099999999999999457 ) ;
#356 = DIRECTION ( 'NONE',  ( -0.000000000000000000, 0.000000000000000000, 1.000000000000000000 ) ) ;
#357 = CARTESIAN_POINT ( 'NONE',  ( 0.003099999999999999457, 3.796405077356794336E-19, 0.000000000000000000 ) ) ;
#358 = ORIENTED_EDGE ( 'NONE', *, *, #70, .F. ) ;
#359 = DIRECTION ( 'NONE',  ( 0.000000000000000000, 0.000000000000000000, 1.000000000000000000 ) ) ;
#360 = EDGE_CURVE ( 'NONE', #234, #28, #279, .T. ) ;
#361 = CARTESIAN_POINT ( 'NONE',  ( 0.000000000000000000, 0.000000000000000000, 0.01600000000000000033 ) ) ;
#362 = ORIENTED_EDGE ( 'NONE', *, *, #301, .T. ) ;
#363 = ORIENTED_EDGE ( 'NONE', *, *, #280, .F. ) ;
#364 = ADVANCED_FACE ( 'NONE', ( #47 ), #326, .F. ) ;
#365 = ORIENTED_EDGE ( 'NONE', *, *, #132, .T. ) ;
#366 = AXIS2_PLACEMENT_3D ( 'NONE', #378, #370, #200 ) ;
#367 = ORIENTED_EDGE ( 'NONE', *, *, #360, .F. ) ;
#368 = CIRCLE ( 'NONE', #166, 0.003099999999999999457 ) ;
#369 = CIRCLE ( 'NONE', #46, 0.005099999999999999499 ) ;
#370 = DIRECTION ( 'NONE',  ( 0.000000000000000000, 0.000000000000000000, 1.000000000000000000 ) ) ;
#371 = ORIENTED_EDGE ( 'NONE', *, *, #421, .F. ) ;
#372 = EDGE_CURVE ( 'NONE', #234, #226, #351, .T. ) ;
#373 = VERTEX_POINT ( 'NONE', #109 ) ;
#374 = EDGE_CURVE ( 'NONE', #144, #383, #113, .T. ) ;
#375 = DIRECTION ( 'NONE',  ( 0.000000000000000000, 1.000000000000000000, -0.000000000000000000 ) ) ;
#376 = PRODUCT_DEFINITION_CONTEXT ( 'detailed design', #216, 'design' ) ;
#377 = SURFACE_STYLE_FILL_AREA ( #71 ) ;
#378 = CARTESIAN_POINT ( 'NONE',  ( 0.000000000000000000, 0.000000000000000000, 0.000000000000000000 ) ) ;
#379 = DIRECTION ( 'NONE',  ( 1.000000000000000000, 0.000000000000000000, 0.000000000000000000 ) ) ;
#380 = DIRECTION ( 'NONE',  ( -0.000000000000000000, 0.000000000000000000, 1.000000000000000000 ) ) ;
#381 = VECTOR ( 'NONE', #336, 1.000000000000000000 ) ;
#382 = DIRECTION ( 'NONE',  ( -1.000000000000000000, 0.000000000000000000, 0.000000000000000000 ) ) ;
#383 = VERTEX_POINT ( 'NONE', #146 ) ;
#384 = DIRECTION ( 'NONE',  ( 1.000000000000000000, 0.000000000000000000, 0.000000000000000000 ) ) ;
#385 = VECTOR ( 'NONE', #294, 1.000000000000000000 ) ;
#386 = FACE_OUTER_BOUND ( 'NONE', #323, .T. ) ;
#387 = CARTESIAN_POINT ( 'NONE',  ( -0.003099999999999999457, 0.000000000000000000, 0.01600000000000000033 ) ) ;
#388 = CARTESIAN_POINT ( 'NONE',  ( 0.000000000000000000, 0.000000000000000000, 0.01600000000000000033 ) ) ;
#389 = EDGE_CURVE ( 'NONE', #28, #160, #83, .T. ) ;
#390 = CARTESIAN_POINT ( 'NONE',  ( 0.000000000000000000, 0.000000000000000000, 0.01600000000000000033 ) ) ;
#391 = ADVANCED_FACE ( 'NONE', ( #151 ), #428, .T. ) ;
#392 = AXIS2_PLACEMENT_3D ( 'NONE', #117, #54, #379 ) ;
#393 = CARTESIAN_POINT ( 'NONE',  ( 0.000000000000000000, 0.000000000000000000, 0.000000000000000000 ) ) ;
#394 = ORIENTED_EDGE ( 'NONE', *, *, #389, .T. ) ;
#395 = EDGE_LOOP ( 'NONE', ( #59, #224, #371, #298 ) ) ;
#396 = EDGE_CURVE ( 'NONE', #334, #144, #368, .T. ) ;
#397 = ORIENTED_EDGE ( 'NONE', *, *, #308, .F. ) ;
#398 = VERTEX_POINT ( 'NONE', #221 ) ;
#399 = AXIS2_PLACEMENT_3D ( 'NONE', #241, #204, #267 ) ;
#400 = CIRCLE ( 'NONE', #31, 0.005099999999999999499 ) ;
#401 = FACE_OUTER_BOUND ( 'NONE', #96, .T. ) ;
#402 = ADVANCED_FACE ( 'NONE', ( #319 ), #15, .F. ) ;
#403 = ORIENTED_EDGE ( 'NONE', *, *, #82, .T. ) ;
#404 = ORIENTED_EDGE ( 'NONE', *, *, #157, .F. ) ;
#405 = PLANE ( 'NONE',  #399 ) ;
#406 = DIRECTION ( 'NONE',  ( 1.000000000000000000, 0.000000000000000000, 0.000000000000000000 ) ) ;
#407 = ORIENTED_EDGE ( 'NONE', *, *, #337, .T. ) ;
#408 = CARTESIAN_POINT ( 'NONE',  ( 0.003099999999999999457, 3.796405077356794336E-19, 0.01600000000000000033 ) ) ;
#409 = CARTESIAN_POINT ( 'NONE',  ( -0.003099999999999999457, 0.000000000000000000, 0.000000000000000000 ) ) ;
#410 = ORIENTED_EDGE ( 'NONE', *, *, #95, .F. ) ;
#411 = APPLICATION_PROTOCOL_DEFINITION ( 'draft international standard', 'automotive_design', 1998, #216 ) ;
#412 = CARTESIAN_POINT ( 'NONE',  ( 0.000000000000000000, 0.000000000000000000, 0.000000000000000000 ) ) ;
#413 = DIRECTION ( 'NONE',  ( -0.000000000000000000, -0.000000000000000000, -1.000000000000000000 ) ) ;
#414 = DIRECTION ( 'NONE',  ( -0.000000000000000000, -0.000000000000000000, -1.000000000000000000 ) ) ;
#415 = DIRECTION ( 'NONE',  ( -0.000000000000000000, -0.000000000000000000, -1.000000000000000000 ) ) ;
#416 = VECTOR ( 'NONE', #134, 1.000000000000000000 ) ;
#417 = DIRECTION ( 'NONE',  ( 1.000000000000000000, -0.000000000000000000, -0.000000000000000000 ) ) ;
#418 = CARTESIAN_POINT ( 'NONE',  ( -0.005100000000000000366, 0.000000000000000000, 0.01539042197268568335 ) ) ;
#419 = DIRECTION ( 'NONE',  ( 1.000000000000000000, 0.000000000000000000, 0.000000000000000000 ) ) ;
#420 = CARTESIAN_POINT ( 'NONE',  ( -0.003099999999999998590, 0.000000000000000000, 0.01539042197268568335 ) ) ;
#421 = EDGE_CURVE ( 'NONE', #373, #73, #186, .T. ) ;
#422 = AXIS2_PLACEMENT_3D ( 'NONE', #112, #247, #52 ) ;
#423 = ADVANCED_FACE ( 'NONE', ( #386 ), #355, .F. ) ;
#424 = CARTESIAN_POINT ( 'NONE',  ( 0.000000000000000000, 0.001221484725568738883, 0.000000000000000000 ) ) ;
#425 = VERTEX_POINT ( 'NONE', #244 ) ;
#426 = DIRECTION ( 'NONE',  ( 0.000000000000000000, 0.000000000000000000, 1.000000000000000000 ) ) ;
#427 = ORIENTED_EDGE ( 'NONE', *, *, #372, .F. ) ;
#428 = CYLINDRICAL_SURFACE ( 'NONE', #66, 0.005099999999999999499 ) ;
#429 = LINE ( 'NONE', #223, #197 ) ;
#430 = ORIENTED_EDGE ( 'NONE', *, *, #431, .T. ) ;
#431 = EDGE_CURVE ( 'NONE', #229, #120, #10, .T. ) ;
#432 = AXIS2_PLACEMENT_3D ( 'NONE', #81, #149, #249 ) ;
#433 = ORIENTED_EDGE ( 'NONE', *, *, #68, .T. ) ;
#434 = VERTEX_POINT ( 'NONE', #175 ) ;
#435 = EDGE_CURVE ( 'NONE', #434, #425, #265, .T. ) ;
#436 = VECTOR ( 'NONE', #20, 1.000000000000000000 ) ;
ENDSEC;
END-ISO-10303-21;
