ISO-10303-21;
HEADER;
FILE_DESCRIPTION (( 'STEP AP214' ),
    '1' );
FILE_NAME ('pressure_b.STEP',
    '2026-02-09T05:52:24',
    ( '' ),
    ( '' ),
    'SwSTEP 2.0',
    'SolidWorks 2023',
    '' );
FILE_SCHEMA (( 'AUTOMOTIVE_DESIGN' ));
ENDSEC;

DATA;
#1 = PRODUCT_CONTEXT ( 'NONE', #37, 'mechanical' ) ;
#2 = EDGE_CURVE ( 'NONE', #39, #88, #185, .T. ) ;
#3 = CARTESIAN_POINT ( 'NONE',  ( 0.000000000000000000, 0.000000000000000000, 0.000000000000000000 ) ) ;
#4 = CARTESIAN_POINT ( 'NONE',  ( 0.000000000000000000, 0.000000000000000000, 0.000000000000000000 ) ) ;
#5 = AXIS2_PLACEMENT_3D ( 'NONE', #65, #50, #83 ) ;
#6 = ORIENTED_EDGE ( 'NONE', *, *, #45, .F. ) ;
#7 = EDGE_LOOP ( 'NONE', ( #54, #71, #44, #27 ) ) ;
#8 = CARTESIAN_POINT ( 'NONE',  ( 0.000000000000000000, 0.000000000000000000, 0.000000000000000000 ) ) ;
#9 = PRODUCT_DEFINITION_FORMATION_WITH_SPECIFIED_SOURCE ( 'ANY', '', #112, .NOT_KNOWN. ) ;
#10 = ORIENTED_EDGE ( 'NONE', *, *, #115, .T. ) ;
#11 = CARTESIAN_POINT ( 'NONE',  ( 0.000000000000000000, 0.000000000000000000, -0.004000000000000000083 ) ) ;
#12 = ORIENTED_EDGE ( 'NONE', *, *, #96, .F. ) ;
#13 = SHAPE_DEFINITION_REPRESENTATION ( #135, #192 ) ;
#14 =( GEOMETRIC_REPRESENTATION_CONTEXT ( 3 ) GLOBAL_UNCERTAINTY_ASSIGNED_CONTEXT ( ( #120 ) ) GLOBAL_UNIT_ASSIGNED_CONTEXT ( ( #142, #118, #19 ) ) REPRESENTATION_CONTEXT ( 'NONE', 'WORKASPACE' ) );
#15 = EDGE_CURVE ( 'NONE', #200, #39, #161, .T. ) ;
#16 = DIRECTION ( 'NONE',  ( 1.000000000000000000, 0.000000000000000000, 0.000000000000000000 ) ) ;
#17 = ADVANCED_FACE ( 'NONE', ( #18 ), #189, .T. ) ;
#18 = FACE_OUTER_BOUND ( 'NONE', #149, .T. ) ;
#19 =( NAMED_UNIT ( * ) SI_UNIT ( $, .STERADIAN. ) SOLID_ANGLE_UNIT ( ) );
#20 = LINE ( 'NONE', #35, #59 ) ;
#21 = DIRECTION ( 'NONE',  ( 0.000000000000000000, 0.000000000000000000, -1.000000000000000000 ) ) ;
#22 = AXIS2_PLACEMENT_3D ( 'NONE', #86, #144, #64 ) ;
#23 = ORIENTED_EDGE ( 'NONE', *, *, #2, .T. ) ;
#24 = UNCERTAINTY_MEASURE_WITH_UNIT (LENGTH_MEASURE( 1.000000000000000082E-05 ), #184, 'distance_accuracy_value', 'NONE');
#25 = FACE_OUTER_BOUND ( 'NONE', #134, .T. ) ;
#26 = EDGE_CURVE ( 'NONE', #70, #29, #81, .T. ) ;
#27 = ORIENTED_EDGE ( 'NONE', *, *, #162, .T. ) ;
#28 = DIRECTION ( 'NONE',  ( 0.000000000000000000, 0.000000000000000000, 1.000000000000000000 ) ) ;
#29 = VERTEX_POINT ( 'NONE', #175 ) ;
#30 = CYLINDRICAL_SURFACE ( 'NONE', #47, 0.002950000000000000799 ) ;
#31 = DIRECTION ( 'NONE',  ( 1.000000000000000000, 0.000000000000000000, 0.000000000000000000 ) ) ;
#32 = STYLED_ITEM ( 'NONE', ( #82 ), #51 ) ;
#33 = AXIS2_PLACEMENT_3D ( 'NONE', #182, #198, #42 ) ;
#34 = FACE_BOUND ( 'NONE', #124, .T. ) ;
#35 = CARTESIAN_POINT ( 'NONE',  ( -0.002950000000000000799, 0.000000000000000000, 0.004000000000000000083 ) ) ;
#36 = CARTESIAN_POINT ( 'NONE',  ( 0.002950000000000000799, 3.612708057484692821E-19, 0.000000000000000000 ) ) ;
#37 = APPLICATION_CONTEXT ( 'automotive_design' ) ;
#38 = PRODUCT_RELATED_PRODUCT_CATEGORY ( 'part', '', ( #112 ) ) ;
#39 = VERTEX_POINT ( 'NONE', #36 ) ;
#40 = CARTESIAN_POINT ( 'NONE',  ( 0.000000000000000000, 0.000000000000000000, 0.004000000000000000083 ) ) ;
#41 = ORIENTED_EDGE ( 'NONE', *, *, #69, .T. ) ;
#42 = DIRECTION ( 'NONE',  ( -1.000000000000000000, 0.000000000000000000, 0.000000000000000000 ) ) ;
#43 = AXIS2_PLACEMENT_3D ( 'NONE', #11, #152, #90 ) ;
#44 = ORIENTED_EDGE ( 'NONE', *, *, #26, .T. ) ;
#45 = EDGE_CURVE ( 'NONE', #153, #88, #20, .T. ) ;
#46 = PRODUCT_DEFINITION_CONTEXT ( 'detailed design', #156, 'design' ) ;
#47 = AXIS2_PLACEMENT_3D ( 'NONE', #58, #168, #141 ) ;
#48 = CARTESIAN_POINT ( 'NONE',  ( 0.004950000000000001274, 0.000000000000000000, -0.004000000000000000083 ) ) ;
#49 = CARTESIAN_POINT ( 'NONE',  ( 0.000000000000000000, 0.000000000000000000, -0.004000000000000000083 ) ) ;
#50 = DIRECTION ( 'NONE',  ( -0.000000000000000000, -0.000000000000000000, 1.000000000000000000 ) ) ;
#51 = MANIFOLD_SOLID_BREP ( 'Boss-Extrude2', #196 ) ;
#52 = PRESENTATION_LAYER_ASSIGNMENT (  '', '', ( #32 ) ) ;
#53 = CARTESIAN_POINT ( 'NONE',  ( 0.000000000000000000, 0.000000000000000000, -0.004000000000000000083 ) ) ;
#54 = ORIENTED_EDGE ( 'NONE', *, *, #128, .F. ) ;
#55 = EDGE_LOOP ( 'NONE', ( #76, #163 ) ) ;
#56 = DIRECTION ( 'NONE',  ( 0.000000000000000000, 0.000000000000000000, -1.000000000000000000 ) ) ;
#57 = CARTESIAN_POINT ( 'NONE',  ( -0.004950000000000001274, 6.062001655779399590E-19, -0.004000000000000000083 ) ) ;
#58 = CARTESIAN_POINT ( 'NONE',  ( 0.000000000000000000, 0.000000000000000000, 0.004000000000000000083 ) ) ;
#59 = VECTOR ( 'NONE', #193, 1.000000000000000000 ) ;
#60 = CIRCLE ( 'NONE', #33, 0.004950000000000001274 ) ;
#61 = EDGE_CURVE ( 'NONE', #70, #121, #125, .T. ) ;
#62 =( NAMED_UNIT ( * ) SI_UNIT ( $, .STERADIAN. ) SOLID_ANGLE_UNIT ( ) );
#63 = CARTESIAN_POINT ( 'NONE',  ( 0.000000000000000000, 0.000000000000000000, 0.004000000000000000083 ) ) ;
#64 = DIRECTION ( 'NONE',  ( 1.000000000000000000, 0.000000000000000000, 0.000000000000000000 ) ) ;
#65 = CARTESIAN_POINT ( 'NONE',  ( 0.000000000000000000, 0.000000000000000000, -0.004000000000000000083 ) ) ;
#66 = DIRECTION ( 'NONE',  ( 1.000000000000000000, 0.000000000000000000, 0.000000000000000000 ) ) ;
#67 = CARTESIAN_POINT ( 'NONE',  ( 0.002950000000000000799, 3.612708057484692821E-19, 0.004000000000000000083 ) ) ;
#68 = MECHANICAL_DESIGN_GEOMETRIC_PRESENTATION_REPRESENTATION (  '', ( #32 ), #14 ) ;
#69 = EDGE_CURVE ( 'NONE', #153, #200, #87, .T. ) ;
#70 = VERTEX_POINT ( 'NONE', #48 ) ;
#71 = ORIENTED_EDGE ( 'NONE', *, *, #61, .F. ) ;
#72 = DIRECTION ( 'NONE',  ( -1.000000000000000000, 0.000000000000000000, -0.000000000000000000 ) ) ;
#73 =( GEOMETRIC_REPRESENTATION_CONTEXT ( 3 ) GLOBAL_UNCERTAINTY_ASSIGNED_CONTEXT ( ( #24 ) ) GLOBAL_UNIT_ASSIGNED_CONTEXT ( ( #184, #126, #62 ) ) REPRESENTATION_CONTEXT ( 'NONE', 'WORKASPACE' ) );
#74 = EDGE_LOOP ( 'NONE', ( #41, #151 ) ) ;
#75 = DIRECTION ( 'NONE',  ( 1.000000000000000000, 0.000000000000000000, 0.000000000000000000 ) ) ;
#76 = ORIENTED_EDGE ( 'NONE', *, *, #162, .F. ) ;
#77 = EDGE_CURVE ( 'NONE', #197, #29, #139, .T. ) ;
#78 = CARTESIAN_POINT ( 'NONE',  ( 0.000000000000000000, 0.000000000000000000, 0.004000000000000000083 ) ) ;
#79 = FACE_OUTER_BOUND ( 'NONE', #74, .T. ) ;
#80 = AXIS2_PLACEMENT_3D ( 'NONE', #105, #103, #72 ) ;
#81 = LINE ( 'NONE', #188, #146 ) ;
#82 = PRESENTATION_STYLE_ASSIGNMENT (( #130 ) ) ;
#83 = DIRECTION ( 'NONE',  ( 1.000000000000000000, 0.000000000000000000, 0.000000000000000000 ) ) ;
#84 = ADVANCED_FACE ( 'NONE', ( #158 ), #176, .T. ) ;
#85 = DIRECTION ( 'NONE',  ( -0.000000000000000000, -0.000000000000000000, 1.000000000000000000 ) ) ;
#86 = CARTESIAN_POINT ( 'NONE',  ( 0.000000000000000000, 0.000000000000000000, 0.004000000000000000083 ) ) ;
#87 = CIRCLE ( 'NONE', #22, 0.002950000000000000799 ) ;
#88 = VERTEX_POINT ( 'NONE', #191 ) ;
#89 = DIRECTION ( 'NONE',  ( 0.000000000000000000, 0.000000000000000000, 1.000000000000000000 ) ) ;
#90 = DIRECTION ( 'NONE',  ( -1.000000000000000000, 0.000000000000000000, -0.000000000000000000 ) ) ;
#91 = ORIENTED_EDGE ( 'NONE', *, *, #15, .F. ) ;
#92 = ADVANCED_FACE ( 'NONE', ( #34, #167 ), #180, .F. ) ;
#93 = APPLICATION_PROTOCOL_DEFINITION ( 'draft international standard', 'automotive_design', 1998, #156 ) ;
#94 = APPLICATION_PROTOCOL_DEFINITION ( 'draft international standard', 'automotive_design', 1998, #37 ) ;
#95 = AXIS2_PLACEMENT_3D ( 'NONE', #136, #28, #75 ) ;
#96 = EDGE_CURVE ( 'NONE', #200, #153, #194, .T. ) ;
#97 = DIRECTION ( 'NONE',  ( -1.000000000000000000, 0.000000000000000000, 0.000000000000000000 ) ) ;
#98 = ADVANCED_FACE ( 'NONE', ( #25 ), #165, .T. ) ;
#99 = SURFACE_STYLE_FILL_AREA ( #174 ) ;
#100 = DIRECTION ( 'NONE',  ( 0.000000000000000000, 0.000000000000000000, 1.000000000000000000 ) ) ;
#101 = EDGE_LOOP ( 'NONE', ( #12, #157, #23, #6 ) ) ;
#102 = ORIENTED_EDGE ( 'NONE', *, *, #26, .F. ) ;
#103 = DIRECTION ( 'NONE',  ( 0.000000000000000000, 0.000000000000000000, -1.000000000000000000 ) ) ;
#104 = EDGE_LOOP ( 'NONE', ( #91, #108, #178, #10 ) ) ;
#105 = CARTESIAN_POINT ( 'NONE',  ( 0.000000000000000000, 0.000000000000000000, 0.000000000000000000 ) ) ;
#106 = AXIS2_PLACEMENT_3D ( 'NONE', #40, #89, #164 ) ;
#107 = PRODUCT_DEFINITION ( 'UNKNOWN', '', #9, #46 ) ;
#108 = ORIENTED_EDGE ( 'NONE', *, *, #69, .F. ) ;
#109 = DIRECTION ( 'NONE',  ( -1.000000000000000000, 0.000000000000000000, 0.000000000000000000 ) ) ;
#110 = VECTOR ( 'NONE', #116, 1.000000000000000000 ) ;
#111 = DIRECTION ( 'NONE',  ( 1.000000000000000000, 0.000000000000000000, -0.000000000000000000 ) ) ;
#112 = PRODUCT ( 'pressure_b', 'pressure_b', '', ( #1 ) ) ;
#113 = AXIS2_PLACEMENT_3D ( 'NONE', #53, #21, #145 ) ;
#114 = AXIS2_PLACEMENT_3D ( 'NONE', #8, #56, #122 ) ;
#115 = EDGE_CURVE ( 'NONE', #88, #39, #183, .T. ) ;
#116 = DIRECTION ( 'NONE',  ( -0.000000000000000000, -0.000000000000000000, -1.000000000000000000 ) ) ;
#117 = SURFACE_SIDE_STYLE ('',( #99 ) ) ;
#118 =( NAMED_UNIT ( * ) PLANE_ANGLE_UNIT ( ) SI_UNIT ( $, .RADIAN. ) );
#119 = ORIENTED_EDGE ( 'NONE', *, *, #133, .T. ) ;
#120 = UNCERTAINTY_MEASURE_WITH_UNIT (LENGTH_MEASURE( 1.000000000000000082E-05 ), #142, 'distance_accuracy_value', 'NONE');
#121 = VERTEX_POINT ( 'NONE', #137 ) ;
#122 = DIRECTION ( 'NONE',  ( -1.000000000000000000, 0.000000000000000000, 0.000000000000000000 ) ) ;
#123 = DIRECTION ( 'NONE',  ( -0.000000000000000000, -0.000000000000000000, 1.000000000000000000 ) ) ;
#124 = EDGE_LOOP ( 'NONE', ( #179, #181 ) ) ;
#125 = CIRCLE ( 'NONE', #113, 0.004950000000000001274 ) ;
#126 =( NAMED_UNIT ( * ) PLANE_ANGLE_UNIT ( ) SI_UNIT ( $, .RADIAN. ) );
#127 = CYLINDRICAL_SURFACE ( 'NONE', #203, 0.002950000000000000799 ) ;
#128 = EDGE_CURVE ( 'NONE', #121, #197, #199, .T. ) ;
#129 = FILL_AREA_STYLE_COLOUR ( '', #172 ) ;
#130 = SURFACE_STYLE_USAGE ( .BOTH. , #117 ) ;
#131 = DIRECTION ( 'NONE',  ( 0.000000000000000000, 0.000000000000000000, -1.000000000000000000 ) ) ;
#132 = AXIS2_PLACEMENT_3D ( 'NONE', #3, #131, #97 ) ;
#133 = EDGE_CURVE ( 'NONE', #121, #70, #60, .T. ) ;
#134 = EDGE_LOOP ( 'NONE', ( #148, #119 ) ) ;
#135 = PRODUCT_DEFINITION_SHAPE ( 'NONE', 'NONE',  #107 ) ;
#136 = CARTESIAN_POINT ( 'NONE',  ( 0.000000000000000000, 0.000000000000000000, 0.000000000000000000 ) ) ;
#137 = CARTESIAN_POINT ( 'NONE',  ( -0.004950000000000001274, 6.062001655779399590E-19, -0.004000000000000000083 ) ) ;
#138 = ORIENTED_EDGE ( 'NONE', *, *, #77, .T. ) ;
#139 = CIRCLE ( 'NONE', #132, 0.004950000000000001274 ) ;
#140 = FACE_OUTER_BOUND ( 'NONE', #104, .T. ) ;
#141 = DIRECTION ( 'NONE',  ( -1.000000000000000000, 0.000000000000000000, 0.000000000000000000 ) ) ;
#142 =( LENGTH_UNIT ( ) NAMED_UNIT ( * ) SI_UNIT ( $, .METRE. ) );
#143 = AXIS2_PLACEMENT_3D ( 'NONE', #171, #170, #31 ) ;
#144 = DIRECTION ( 'NONE',  ( 0.000000000000000000, 0.000000000000000000, 1.000000000000000000 ) ) ;
#145 = DIRECTION ( 'NONE',  ( -1.000000000000000000, 0.000000000000000000, 0.000000000000000000 ) ) ;
#146 = VECTOR ( 'NONE', #160, 1.000000000000000000 ) ;
#147 = AXIS2_PLACEMENT_3D ( 'NONE', #78, #187, #111 ) ;
#148 = ORIENTED_EDGE ( 'NONE', *, *, #61, .T. ) ;
#149 = EDGE_LOOP ( 'NONE', ( #195, #205, #138, #102 ) ) ;
#150 = CARTESIAN_POINT ( 'NONE',  ( -0.002950000000000000799, 0.000000000000000000, 0.004000000000000000083 ) ) ;
#151 = ORIENTED_EDGE ( 'NONE', *, *, #96, .T. ) ;
#152 = DIRECTION ( 'NONE',  ( 0.000000000000000000, 0.000000000000000000, -1.000000000000000000 ) ) ;
#153 = VERTEX_POINT ( 'NONE', #150 ) ;
#154 = DIRECTION ( 'NONE',  ( -0.000000000000000000, -0.000000000000000000, -1.000000000000000000 ) ) ;
#155 = CARTESIAN_POINT ( 'NONE',  ( -0.004950000000000001274, 6.062001655779399590E-19, 0.000000000000000000 ) ) ;
#156 = APPLICATION_CONTEXT ( 'automotive_design' ) ;
#157 = ORIENTED_EDGE ( 'NONE', *, *, #15, .T. ) ;
#158 = FACE_OUTER_BOUND ( 'NONE', #7, .T. ) ;
#159 = VECTOR ( 'NONE', #123, 1.000000000000000000 ) ;
#160 = DIRECTION ( 'NONE',  ( -0.000000000000000000, -0.000000000000000000, 1.000000000000000000 ) ) ;
#161 = LINE ( 'NONE', #67, #110 ) ;
#162 = EDGE_CURVE ( 'NONE', #29, #197, #173, .T. ) ;
#163 = ORIENTED_EDGE ( 'NONE', *, *, #77, .F. ) ;
#164 = DIRECTION ( 'NONE',  ( 1.000000000000000000, 0.000000000000000000, 0.000000000000000000 ) ) ;
#165 = PLANE ( 'NONE',  #43 ) ;
#166 = AXIS2_PLACEMENT_3D ( 'NONE', #49, #85, #66 ) ;
#167 = FACE_OUTER_BOUND ( 'NONE', #55, .T. ) ;
#168 = DIRECTION ( 'NONE',  ( -0.000000000000000000, -0.000000000000000000, -1.000000000000000000 ) ) ;
#169 = AXIS2_PLACEMENT_3D ( 'NONE', #4, #100, #16 ) ;
#170 = DIRECTION ( 'NONE',  ( 0.000000000000000000, 0.000000000000000000, 1.000000000000000000 ) ) ;
#171 = CARTESIAN_POINT ( 'NONE',  ( 0.000000000000000000, 0.000000000000000000, 0.000000000000000000 ) ) ;
#172 = COLOUR_RGB ( '',0.7921568627450980005, 0.8196078431372548767, 0.9333333333333333481 ) ;
#173 = CIRCLE ( 'NONE', #114, 0.004950000000000001274 ) ;
#174 = FILL_AREA_STYLE ('',( #129 ) ) ;
#175 = CARTESIAN_POINT ( 'NONE',  ( 0.004950000000000001274, 0.000000000000000000, 0.000000000000000000 ) ) ;
#176 = CYLINDRICAL_SURFACE ( 'NONE', #166, 0.004950000000000001274 ) ;
#177 = ADVANCED_FACE ( 'NONE', ( #79 ), #186, .T. ) ;
#178 = ORIENTED_EDGE ( 'NONE', *, *, #45, .T. ) ;
#179 = ORIENTED_EDGE ( 'NONE', *, *, #115, .F. ) ;
#180 = PLANE ( 'NONE',  #80 ) ;
#181 = ORIENTED_EDGE ( 'NONE', *, *, #2, .F. ) ;
#182 = CARTESIAN_POINT ( 'NONE',  ( 0.000000000000000000, 0.000000000000000000, -0.004000000000000000083 ) ) ;
#183 = CIRCLE ( 'NONE', #95, 0.002950000000000000799 ) ;
#184 =( LENGTH_UNIT ( ) NAMED_UNIT ( * ) SI_UNIT ( $, .METRE. ) );
#185 = CIRCLE ( 'NONE', #169, 0.002950000000000000799 ) ;
#186 = PLANE ( 'NONE',  #147 ) ;
#187 = DIRECTION ( 'NONE',  ( 0.000000000000000000, 0.000000000000000000, 1.000000000000000000 ) ) ;
#188 = CARTESIAN_POINT ( 'NONE',  ( 0.004950000000000001274, 0.000000000000000000, -0.004000000000000000083 ) ) ;
#189 = CYLINDRICAL_SURFACE ( 'NONE', #5, 0.004950000000000001274 ) ;
#190 = ADVANCED_FACE ( 'NONE', ( #140 ), #127, .T. ) ;
#191 = CARTESIAN_POINT ( 'NONE',  ( -0.002950000000000000799, 0.000000000000000000, 0.000000000000000000 ) ) ;
#192 = ADVANCED_BREP_SHAPE_REPRESENTATION ( 'pressure_b', ( #51, #143 ), #73 ) ;
#193 = DIRECTION ( 'NONE',  ( -0.000000000000000000, -0.000000000000000000, -1.000000000000000000 ) ) ;
#194 = CIRCLE ( 'NONE', #106, 0.002950000000000000799 ) ;
#195 = ORIENTED_EDGE ( 'NONE', *, *, #133, .F. ) ;
#196 = CLOSED_SHELL ( 'NONE', ( #17, #201, #190, #177, #84, #98, #92 ) ) ;
#197 = VERTEX_POINT ( 'NONE', #155 ) ;
#198 = DIRECTION ( 'NONE',  ( 0.000000000000000000, 0.000000000000000000, -1.000000000000000000 ) ) ;
#199 = LINE ( 'NONE', #57, #159 ) ;
#200 = VERTEX_POINT ( 'NONE', #204 ) ;
#201 = ADVANCED_FACE ( 'NONE', ( #202 ), #30, .T. ) ;
#202 = FACE_OUTER_BOUND ( 'NONE', #101, .T. ) ;
#203 = AXIS2_PLACEMENT_3D ( 'NONE', #63, #154, #109 ) ;
#204 = CARTESIAN_POINT ( 'NONE',  ( 0.002950000000000000799, 3.612708057484692821E-19, 0.004000000000000000083 ) ) ;
#205 = ORIENTED_EDGE ( 'NONE', *, *, #128, .T. ) ;
ENDSEC;
END-ISO-10303-21;
