ISO-10303-21;
HEADER;
FILE_DESCRIPTION (( 'STEP AP214' ),
    '1' );
FILE_NAME ('SS Plate 1.STEP',
    '2026-02-20T11:42:53',
    ( '' ),
    ( '' ),
    'SwSTEP 2.0',
    'SolidWorks 2023',
    '' );
FILE_SCHEMA (( 'AUTOMOTIVE_DESIGN' ));
ENDSEC;

DATA;
#1 = DIRECTION ( 'NONE',  ( 0.000000000000000000, 0.000000000000000000, -1.000000000000000000 ) ) ;
#2 = CYLINDRICAL_SURFACE ( 'NONE', #262, 2.000000000000001776 ) ;
#3 = ADVANCED_FACE ( 'NONE', ( #228 ), #276, .F. ) ;
#4 = CIRCLE ( 'NONE', #459, 2.000000000000001776 ) ;
#5 = CARTESIAN_POINT ( 'NONE',  ( 40.99999999999999289, 0.000000000000000000, -41.00000000000000000 ) ) ;
#6 = AXIS2_PLACEMENT_3D ( 'NONE', #441, #69, #302 ) ;
#7 = CARTESIAN_POINT ( 'NONE',  ( 40.99999999999999289, 0.000000000000000000, 43.00000000000000000 ) ) ;
#8 = FACE_OUTER_BOUND ( 'NONE', #44, .T. ) ;
#9 = DIRECTION ( 'NONE',  ( 0.000000000000000000, 0.000000000000000000, 1.000000000000000000 ) ) ;
#10 = FACE_BOUND ( 'NONE', #133, .T. ) ;
#11 = CARTESIAN_POINT ( 'NONE',  ( 0.000000000000000000, 2.500000000000000000, -13.30000000000000071 ) ) ;
#12 = CARTESIAN_POINT ( 'NONE',  ( 0.000000000000000000, 0.000000000000000000, 0.000000000000000000 ) ) ;
#13 = ORIENTED_EDGE ( 'NONE', *, *, #59, .F. ) ;
#14 = ORIENTED_EDGE ( 'NONE', *, *, #95, .F. ) ;
#15 = ORIENTED_EDGE ( 'NONE', *, *, #313, .T. ) ;
#16 = DIRECTION ( 'NONE',  ( 0.000000000000000000, 0.000000000000000000, 1.000000000000000000 ) ) ;
#17 = APPLICATION_CONTEXT ( 'automotive_design' ) ;
#18 = ORIENTED_EDGE ( 'NONE', *, *, #135, .T. ) ;
#19 = EDGE_CURVE ( 'NONE', #21, #408, #291, .T. ) ;
#20 = EDGE_CURVE ( 'NONE', #92, #159, #308, .T. ) ;
#21 = VERTEX_POINT ( 'NONE', #110 ) ;
#22 = DIRECTION ( 'NONE',  ( 0.000000000000000000, 1.000000000000000000, 0.000000000000000000 ) ) ;
#23 = AXIS2_PLACEMENT_3D ( 'NONE', #119, #378, #483 ) ;
#24 = CIRCLE ( 'NONE', #285, 65.00000000000001421 ) ;
#25 = AXIS2_PLACEMENT_3D ( 'NONE', #296, #407, #371 ) ;
#26 = VERTEX_POINT ( 'NONE', #65 ) ;
#27 = DIRECTION ( 'NONE',  ( 0.000000000000000000, 0.000000000000000000, -1.000000000000000000 ) ) ;
#28 = DIRECTION ( 'NONE',  ( 0.000000000000000000, -1.000000000000000000, 0.000000000000000000 ) ) ;
#29 = DIRECTION ( 'NONE',  ( 0.000000000000000000, 0.000000000000000000, -1.000000000000000000 ) ) ;
#30 = ORIENTED_EDGE ( 'NONE', *, *, #76, .T. ) ;
#31 = LINE ( 'NONE', #144, #200 ) ;
#32 = CARTESIAN_POINT ( 'NONE',  ( 0.000000000000000000, 0.000000000000000000, 0.000000000000000000 ) ) ;
#33 = VECTOR ( 'NONE', #416, 1000.000000000000000 ) ;
#34 =( NAMED_UNIT ( * ) SI_UNIT ( $, .STERADIAN. ) SOLID_ANGLE_UNIT ( ) );
#35 = EDGE_LOOP ( 'NONE', ( #216, #30 ) ) ;
#36 = ADVANCED_BREP_SHAPE_REPRESENTATION ( 'SS Plate 1', ( #354, #281 ), #401 ) ;
#37 = DIRECTION ( 'NONE',  ( 0.000000000000000000, 0.000000000000000000, -1.000000000000000000 ) ) ;
#38 = UNCERTAINTY_MEASURE_WITH_UNIT (LENGTH_MEASURE( 1.000000000000000082E-05 ), #229, 'distance_accuracy_value', 'NONE');
#39 = EDGE_CURVE ( 'NONE', #458, #329, #4, .T. ) ;
#40 = DIRECTION ( 'NONE',  ( 0.000000000000000000, 0.000000000000000000, -1.000000000000000000 ) ) ;
#41 = CARTESIAN_POINT ( 'NONE',  ( 40.99999999999999289, 0.000000000000000000, 41.00000000000000000 ) ) ;
#42 = PRODUCT_RELATED_PRODUCT_CATEGORY ( 'part', '', ( #330 ) ) ;
#43 = CARTESIAN_POINT ( 'NONE',  ( -41.00000000000000711, 2.500000000000000000, -39.00000000000000711 ) ) ;
#44 = EDGE_LOOP ( 'NONE', ( #300, #80, #292, #63 ) ) ;
#45 = CARTESIAN_POINT ( 'NONE',  ( 40.99999999999999289, 0.000000000000000000, 39.00000000000000000 ) ) ;
#46 = CARTESIAN_POINT ( 'NONE',  ( -41.00000000000000711, 2.500000000000000000, 38.99999999999999289 ) ) ;
#47 = EDGE_CURVE ( 'NONE', #197, #383, #356, .T. ) ;
#48 = DIRECTION ( 'NONE',  ( 0.000000000000000000, -1.000000000000000000, 0.000000000000000000 ) ) ;
#49 = VECTOR ( 'NONE', #164, 1000.000000000000000 ) ;
#50 = VECTOR ( 'NONE', #223, 1000.000000000000000 ) ;
#51 = DIRECTION ( 'NONE',  ( -0.000000000000000000, -1.000000000000000000, -0.000000000000000000 ) ) ;
#52 = LINE ( 'NONE', #391, #120 ) ;
#53 = CARTESIAN_POINT ( 'NONE',  ( -41.00000000000000711, 0.000000000000000000, 40.99999999999999289 ) ) ;
#54 = FACE_BOUND ( 'NONE', #479, .T. ) ;
#55 = VERTEX_POINT ( 'NONE', #7 ) ;
#56 = AXIS2_PLACEMENT_3D ( 'NONE', #425, #122, #9 ) ;
#57 = VECTOR ( 'NONE', #282, 1000.000000000000000 ) ;
#58 = EDGE_LOOP ( 'NONE', ( #413, #259 ) ) ;
#59 = EDGE_CURVE ( 'NONE', #142, #61, #395, .T. ) ;
#60 = EDGE_CURVE ( 'NONE', #226, #145, #477, .T. ) ;
#61 = VERTEX_POINT ( 'NONE', #85 ) ;
#62 = DIRECTION ( 'NONE',  ( 0.000000000000000000, -1.000000000000000000, 0.000000000000000000 ) ) ;
#63 = ORIENTED_EDGE ( 'NONE', *, *, #428, .T. ) ;
#64 = DIRECTION ( 'NONE',  ( 0.000000000000000000, -1.000000000000000000, 0.000000000000000000 ) ) ;
#65 = CARTESIAN_POINT ( 'NONE',  ( -41.00000000000000711, 2.500000000000000000, -43.00000000000000711 ) ) ;
#66 = AXIS2_PLACEMENT_3D ( 'NONE', #381, #109, #494 ) ;
#67 =( LENGTH_UNIT ( ) NAMED_UNIT ( * ) SI_UNIT ( .MILLI., .METRE. ) );
#68 = VERTEX_POINT ( 'NONE', #435 ) ;
#69 = DIRECTION ( 'NONE',  ( 0.000000000000000000, 1.000000000000000000, 0.000000000000000000 ) ) ;
#70 = AXIS2_PLACEMENT_3D ( 'NONE', #101, #260, #103 ) ;
#71 = ORIENTED_EDGE ( 'NONE', *, *, #20, .F. ) ;
#72 = ORIENTED_EDGE ( 'NONE', *, *, #331, .T. ) ;
#73 = STYLED_ITEM ( 'NONE', ( #117 ), #354 ) ;
#74 = FILL_AREA_STYLE ('',( #457 ) ) ;
#75 = EDGE_CURVE ( 'NONE', #446, #177, #404, .T. ) ;
#76 = EDGE_CURVE ( 'NONE', #68, #26, #221, .T. ) ;
#77 = FACE_OUTER_BOUND ( 'NONE', #347, .T. ) ;
#78 = AXIS2_PLACEMENT_3D ( 'NONE', #362, #288, #241 ) ;
#79 = CIRCLE ( 'NONE', #327, 13.30000000000000071 ) ;
#80 = ORIENTED_EDGE ( 'NONE', *, *, #60, .F. ) ;
#81 = ADVANCED_FACE ( 'NONE', ( #171 ), #2, .F. ) ;
#82 = CYLINDRICAL_SURFACE ( 'NONE', #254, 2.000000000000001776 ) ;
#83 = LINE ( 'NONE', #46, #379 ) ;
#84 = DIRECTION ( 'NONE',  ( 0.000000000000000000, 0.000000000000000000, -1.000000000000000000 ) ) ;
#85 = CARTESIAN_POINT ( 'NONE',  ( -41.00000000000000711, 0.000000000000000000, -39.00000000000000711 ) ) ;
#86 = CARTESIAN_POINT ( 'NONE',  ( 0.000000000000000000, 2.500000000000000000, 0.000000000000000000 ) ) ;
#87 = AXIS2_PLACEMENT_3D ( 'NONE', #424, #398, #320 ) ;
#88 = CARTESIAN_POINT ( 'NONE',  ( 7.960204194457798830E-15, 2.500000000000000000, 65.00000000000001421 ) ) ;
#89 = CARTESIAN_POINT ( 'NONE',  ( -41.00000000000000711, 0.000000000000000000, -41.00000000000000711 ) ) ;
#90 = CYLINDRICAL_SURFACE ( 'NONE', #311, 2.000000000000001776 ) ;
#91 = ORIENTED_EDGE ( 'NONE', *, *, #369, .T. ) ;
#92 = VERTEX_POINT ( 'NONE', #392 ) ;
#93 = ORIENTED_EDGE ( 'NONE', *, *, #20, .T. ) ;
#94 = CIRCLE ( 'NONE', #380, 2.000000000000001776 ) ;
#95 = EDGE_CURVE ( 'NONE', #173, #197, #325, .T. ) ;
#96 = AXIS2_PLACEMENT_3D ( 'NONE', #486, #138, #191 ) ;
#97 = EDGE_LOOP ( 'NONE', ( #314, #474 ) ) ;
#98 = FACE_BOUND ( 'NONE', #370, .T. ) ;
#99 = EDGE_LOOP ( 'NONE', ( #334, #150, #132, #233 ) ) ;
#100 = ORIENTED_EDGE ( 'NONE', *, *, #206, .T. ) ;
#101 = CARTESIAN_POINT ( 'NONE',  ( -41.00000000000000711, 2.500000000000000000, -41.00000000000000711 ) ) ;
#102 = ORIENTED_EDGE ( 'NONE', *, *, #195, .F. ) ;
#103 = DIRECTION ( 'NONE',  ( 0.000000000000000000, 0.000000000000000000, -1.000000000000000000 ) ) ;
#104 = AXIS2_PLACEMENT_3D ( 'NONE', #394, #353, #161 ) ;
#105 = EDGE_LOOP ( 'NONE', ( #14, #190, #289, #332 ) ) ;
#106 = CARTESIAN_POINT ( 'NONE',  ( -41.00000000000000711, 2.500000000000000000, -41.00000000000000711 ) ) ;
#107 = APPLICATION_CONTEXT ( 'automotive_design' ) ;
#108 = ORIENTED_EDGE ( 'NONE', *, *, #429, .T. ) ;
#109 = DIRECTION ( 'NONE',  ( -0.000000000000000000, -1.000000000000000000, -0.000000000000000000 ) ) ;
#110 = CARTESIAN_POINT ( 'NONE',  ( 7.960204194457798830E-15, 0.000000000000000000, 65.00000000000001421 ) ) ;
#111 = DIRECTION ( 'NONE',  ( 0.000000000000000000, -1.000000000000000000, 0.000000000000000000 ) ) ;
#112 = ADVANCED_FACE ( 'NONE', ( #249 ), #247, .F. ) ;
#113 = EDGE_CURVE ( 'NONE', #458, #301, #83, .T. ) ;
#114 = VECTOR ( 'NONE', #202, 1000.000000000000000 ) ;
#115 = CIRCLE ( 'NONE', #455, 13.30000000000000071 ) ;
#116 = CARTESIAN_POINT ( 'NONE',  ( -41.00000000000000711, 2.500000000000000000, 43.00000000000000000 ) ) ;
#117 = PRESENTATION_STYLE_ASSIGNMENT (( #420 ) ) ;
#118 = CARTESIAN_POINT ( 'NONE',  ( 40.99999999999999289, 0.000000000000000000, -41.00000000000000000 ) ) ;
#119 = CARTESIAN_POINT ( 'NONE',  ( 40.99999999999999289, 2.500000000000000000, 41.00000000000000000 ) ) ;
#120 = VECTOR ( 'NONE', #430, 1000.000000000000000 ) ;
#121 = CARTESIAN_POINT ( 'NONE',  ( 0.000000000000000000, 2.500000000000000000, -13.30000000000000071 ) ) ;
#122 = DIRECTION ( 'NONE',  ( 0.000000000000000000, 1.000000000000000000, 0.000000000000000000 ) ) ;
#123 = FACE_OUTER_BOUND ( 'NONE', #58, .T. ) ;
#124 = DIRECTION ( 'NONE',  ( 0.000000000000000000, 0.000000000000000000, -1.000000000000000000 ) ) ;
#125 = LINE ( 'NONE', #468, #49 ) ;
#126 = DIRECTION ( 'NONE',  ( 0.000000000000000000, -1.000000000000000000, 0.000000000000000000 ) ) ;
#127 = ADVANCED_FACE ( 'NONE', ( #319 ), #90, .F. ) ;
#128 = DIRECTION ( 'NONE',  ( -0.000000000000000000, -1.000000000000000000, -0.000000000000000000 ) ) ;
#129 = COLOUR_RGB ( '',0.7921568627450980005, 0.8196078431372548767, 0.9333333333333333481 ) ;
#130 = CARTESIAN_POINT ( 'NONE',  ( 40.99999999999999289, 2.500000000000000000, -41.00000000000000000 ) ) ;
#131 = ORIENTED_EDGE ( 'NONE', *, *, #312, .T. ) ;
#132 = ORIENTED_EDGE ( 'NONE', *, *, #195, .T. ) ;
#133 = EDGE_LOOP ( 'NONE', ( #266, #108 ) ) ;
#134 = DIRECTION ( 'NONE',  ( 1.000000000000000000, 0.000000000000000000, 0.000000000000000000 ) ) ;
#135 = EDGE_CURVE ( 'NONE', #239, #301, #271, .T. ) ;
#136 = VERTEX_POINT ( 'NONE', #469 ) ;
#137 = VECTOR ( 'NONE', #128, 1000.000000000000000 ) ;
#138 = DIRECTION ( 'NONE',  ( -0.000000000000000000, -1.000000000000000000, -0.000000000000000000 ) ) ;
#139 = AXIS2_PLACEMENT_3D ( 'NONE', #263, #62, #29 ) ;
#140 = ORIENTED_EDGE ( 'NONE', *, *, #396, .T. ) ;
#141 = DIRECTION ( 'NONE',  ( 0.000000000000000000, 0.000000000000000000, -1.000000000000000000 ) ) ;
#142 = VERTEX_POINT ( 'NONE', #283 ) ;
#143 = ORIENTED_EDGE ( 'NONE', *, *, #258, .F. ) ;
#144 = CARTESIAN_POINT ( 'NONE',  ( 40.99999999999999289, 2.500000000000000000, -43.00000000000000000 ) ) ;
#145 = VERTEX_POINT ( 'NONE', #88 ) ;
#146 = LINE ( 'NONE', #306, #50 ) ;
#147 = CIRCLE ( 'NONE', #252, 2.000000000000001776 ) ;
#148 = ORIENTED_EDGE ( 'NONE', *, *, #464, .F. ) ;
#149 = FACE_BOUND ( 'NONE', #217, .T. ) ;
#150 = ORIENTED_EDGE ( 'NONE', *, *, #257, .F. ) ;
#151 = EDGE_CURVE ( 'NONE', #145, #21, #399, .T. ) ;
#152 = DIRECTION ( 'NONE',  ( 0.000000000000000000, 0.000000000000000000, -1.000000000000000000 ) ) ;
#153 = CIRCLE ( 'NONE', #387, 2.000000000000001776 ) ;
#154 = FACE_OUTER_BOUND ( 'NONE', #372, .T. ) ;
#155 = UNCERTAINTY_MEASURE_WITH_UNIT (LENGTH_MEASURE( 1.000000000000000082E-05 ), #67, 'distance_accuracy_value', 'NONE');
#156 =( GEOMETRIC_REPRESENTATION_CONTEXT ( 3 ) GLOBAL_UNCERTAINTY_ASSIGNED_CONTEXT ( ( #38 ) ) GLOBAL_UNIT_ASSIGNED_CONTEXT ( ( #229, #493, #34 ) ) REPRESENTATION_CONTEXT ( 'NONE', 'WORKASPACE' ) );
#157 = DIRECTION ( 'NONE',  ( 0.000000000000000000, 0.000000000000000000, -1.000000000000000000 ) ) ;
#158 = SURFACE_SIDE_STYLE ('',( #199 ) ) ;
#159 = VERTEX_POINT ( 'NONE', #45 ) ;
#160 = CARTESIAN_POINT ( 'NONE',  ( 40.99999999999999289, 2.500000000000000000, 41.00000000000000000 ) ) ;
#161 = DIRECTION ( 'NONE',  ( 0.000000000000000000, 0.000000000000000000, -1.000000000000000000 ) ) ;
#162 = AXIS2_PLACEMENT_3D ( 'NONE', #165, #126, #124 ) ;
#163 = CIRCLE ( 'NONE', #231, 2.000000000000001776 ) ;
#164 = DIRECTION ( 'NONE',  ( -0.000000000000000000, -1.000000000000000000, -0.000000000000000000 ) ) ;
#165 = CARTESIAN_POINT ( 'NONE',  ( -41.00000000000000711, 2.500000000000000000, -41.00000000000000711 ) ) ;
#166 = EDGE_CURVE ( 'NONE', #136, #179, #222, .T. ) ;
#167 = FACE_BOUND ( 'NONE', #224, .T. ) ;
#168 = EDGE_CURVE ( 'NONE', #403, #55, #125, .T. ) ;
#169 = CARTESIAN_POINT ( 'NONE',  ( 0.000000000000000000, 2.500000000000000000, 0.000000000000000000 ) ) ;
#170 = DIRECTION ( 'NONE',  ( 0.000000000000000000, 1.000000000000000000, 0.000000000000000000 ) ) ;
#171 = FACE_OUTER_BOUND ( 'NONE', #188, .T. ) ;
#172 = SHAPE_DEFINITION_REPRESENTATION ( #213, #36 ) ;
#173 = VERTEX_POINT ( 'NONE', #318 ) ;
#174 = VECTOR ( 'NONE', #196, 1000.000000000000000 ) ;
#175 =( NAMED_UNIT ( * ) PLANE_ANGLE_UNIT ( ) SI_UNIT ( $, .RADIAN. ) );
#176 = ORIENTED_EDGE ( 'NONE', *, *, #19, .F. ) ;
#177 = VERTEX_POINT ( 'NONE', #322 ) ;
#178 = APPLICATION_PROTOCOL_DEFINITION ( 'draft international standard', 'automotive_design', 1998, #107 ) ;
#179 = VERTEX_POINT ( 'NONE', #400 ) ;
#180 = FACE_BOUND ( 'NONE', #364, .T. ) ;
#181 = ORIENTED_EDGE ( 'NONE', *, *, #313, .F. ) ;
#182 = FACE_OUTER_BOUND ( 'NONE', #423, .T. ) ;
#183 = AXIS2_PLACEMENT_3D ( 'NONE', #476, #22, #447 ) ;
#184 = EDGE_LOOP ( 'NONE', ( #298, #367, #485, #71 ) ) ;
#185 = ORIENTED_EDGE ( 'NONE', *, *, #369, .F. ) ;
#186 = ADVANCED_FACE ( 'NONE', ( #246, #167, #54, #10, #208, #123 ), #238, .T. ) ;
#187 = CYLINDRICAL_SURFACE ( 'NONE', #439, 2.000000000000001776 ) ;
#188 = EDGE_LOOP ( 'NONE', ( #148, #402, #492, #255 ) ) ;
#189 = CARTESIAN_POINT ( 'NONE',  ( 40.99999999999999289, 2.500000000000000000, 43.00000000000000000 ) ) ;
#190 = ORIENTED_EDGE ( 'NONE', *, *, #382, .T. ) ;
#191 = DIRECTION ( 'NONE',  ( 0.000000000000000000, 0.000000000000000000, -1.000000000000000000 ) ) ;
#192 = VECTOR ( 'NONE', #431, 1000.000000000000000 ) ;
#193 = AXIS2_PLACEMENT_3D ( 'NONE', #53, #244, #321 ) ;
#194 = EDGE_LOOP ( 'NONE', ( #185, #487 ) ) ;
#195 = EDGE_CURVE ( 'NONE', #26, #142, #204, .T. ) ;
#196 = DIRECTION ( 'NONE',  ( -0.000000000000000000, -1.000000000000000000, -0.000000000000000000 ) ) ;
#197 = VERTEX_POINT ( 'NONE', #121 ) ;
#198 = CARTESIAN_POINT ( 'NONE',  ( -41.00000000000000711, 0.000000000000000000, 38.99999999999999289 ) ) ;
#199 = SURFACE_STYLE_FILL_AREA ( #74 ) ;
#200 = VECTOR ( 'NONE', #265, 1000.000000000000000 ) ;
#201 = CYLINDRICAL_SURFACE ( 'NONE', #66, 65.00000000000001421 ) ;
#202 = DIRECTION ( 'NONE',  ( -0.000000000000000000, -1.000000000000000000, -0.000000000000000000 ) ) ;
#203 = ORIENTED_EDGE ( 'NONE', *, *, #295, .T. ) ;
#204 = LINE ( 'NONE', #470, #57 ) ;
#205 = DIRECTION ( 'NONE',  ( 0.000000000000000000, 0.000000000000000000, -1.000000000000000000 ) ) ;
#206 = EDGE_CURVE ( 'NONE', #61, #142, #94, .T. ) ;
#207 = ADVANCED_FACE ( 'NONE', ( #8 ), #426, .T. ) ;
#208 = FACE_BOUND ( 'NONE', #406, .T. ) ;
#209 = CARTESIAN_POINT ( 'NONE',  ( 40.99999999999999289, 2.500000000000000000, -41.00000000000000000 ) ) ;
#210 = FACE_OUTER_BOUND ( 'NONE', #105, .T. ) ;
#211 = CARTESIAN_POINT ( 'NONE',  ( 7.960204194457798830E-15, 2.500000000000000000, 65.00000000000001421 ) ) ;
#212 = APPLICATION_PROTOCOL_DEFINITION ( 'draft international standard', 'automotive_design', 1998, #17 ) ;
#213 = PRODUCT_DEFINITION_SHAPE ( 'NONE', 'NONE',  #450 ) ;
#214 = DIRECTION ( 'NONE',  ( -0.000000000000000000, -1.000000000000000000, -0.000000000000000000 ) ) ;
#215 = ORIENTED_EDGE ( 'NONE', *, *, #466, .F. ) ;
#216 = ORIENTED_EDGE ( 'NONE', *, *, #257, .T. ) ;
#217 = EDGE_LOOP ( 'NONE', ( #13, #473 ) ) ;
#218 = CARTESIAN_POINT ( 'NONE',  ( 0.000000000000000000, 0.000000000000000000, -65.00000000000001421 ) ) ;
#219 = EDGE_CURVE ( 'NONE', #68, #61, #389, .T. ) ;
#220 = ORIENTED_EDGE ( 'NONE', *, *, #19, .T. ) ;
#221 = CIRCLE ( 'NONE', #162, 2.000000000000001776 ) ;
#222 = CIRCLE ( 'NONE', #454, 2.000000000000001776 ) ;
#223 = DIRECTION ( 'NONE',  ( -0.000000000000000000, -1.000000000000000000, -0.000000000000000000 ) ) ;
#224 = EDGE_LOOP ( 'NONE', ( #442, #418 ) ) ;
#225 = ORIENTED_EDGE ( 'NONE', *, *, #166, .F. ) ;
#226 = VERTEX_POINT ( 'NONE', #355 ) ;
#227 = FACE_OUTER_BOUND ( 'NONE', #99, .T. ) ;
#228 = FACE_OUTER_BOUND ( 'NONE', #410, .T. ) ;
#229 =( LENGTH_UNIT ( ) NAMED_UNIT ( * ) SI_UNIT ( .MILLI., .METRE. ) );
#230 = ADVANCED_FACE ( 'NONE', ( #358 ), #82, .F. ) ;
#231 = AXIS2_PLACEMENT_3D ( 'NONE', #118, #275, #157 ) ;
#232 = CIRCLE ( 'NONE', #6, 65.00000000000001421 ) ;
#233 = ORIENTED_EDGE ( 'NONE', *, *, #59, .T. ) ;
#234 = DIRECTION ( 'NONE',  ( 0.000000000000000000, -1.000000000000000000, 0.000000000000000000 ) ) ;
#235 = CARTESIAN_POINT ( 'NONE',  ( -41.00000000000000711, 2.500000000000000000, 43.00000000000000000 ) ) ;
#236 = LINE ( 'NONE', #116, #33 ) ;
#237 = VECTOR ( 'NONE', #453, 1000.000000000000000 ) ;
#238 = PLANE ( 'NONE',  #461 ) ;
#239 = VERTEX_POINT ( 'NONE', #243 ) ;
#240 = DIRECTION ( 'NONE',  ( 0.000000000000000000, 0.000000000000000000, -1.000000000000000000 ) ) ;
#241 = DIRECTION ( 'NONE',  ( 0.000000000000000000, 0.000000000000000000, -1.000000000000000000 ) ) ;
#242 = ADVANCED_FACE ( 'NONE', ( #210 ), #277, .F. ) ;
#243 = CARTESIAN_POINT ( 'NONE',  ( -41.00000000000000711, 0.000000000000000000, 43.00000000000000000 ) ) ;
#244 = DIRECTION ( 'NONE',  ( 0.000000000000000000, -1.000000000000000000, 0.000000000000000000 ) ) ;
#245 = CIRCLE ( 'NONE', #25, 13.30000000000000071 ) ;
#246 = FACE_BOUND ( 'NONE', #35, .T. ) ;
#247 = CYLINDRICAL_SURFACE ( 'NONE', #335, 13.30000000000000071 ) ;
#248 = CARTESIAN_POINT ( 'NONE',  ( 0.000000000000000000, 2.500000000000000000, 0.000000000000000000 ) ) ;
#249 = FACE_OUTER_BOUND ( 'NONE', #368, .T. ) ;
#250 = ORIENTED_EDGE ( 'NONE', *, *, #428, .F. ) ;
#251 = ORIENTED_EDGE ( 'NONE', *, *, #76, .F. ) ;
#252 = AXIS2_PLACEMENT_3D ( 'NONE', #41, #491, #37 ) ;
#253 = ORIENTED_EDGE ( 'NONE', *, *, #113, .F. ) ;
#254 = AXIS2_PLACEMENT_3D ( 'NONE', #160, #352, #1 ) ;
#255 = ORIENTED_EDGE ( 'NONE', *, *, #166, .T. ) ;
#256 = CARTESIAN_POINT ( 'NONE',  ( -41.00000000000000711, 2.500000000000000000, 38.99999999999999289 ) ) ;
#257 = EDGE_CURVE ( 'NONE', #26, #68, #462, .T. ) ;
#258 = EDGE_CURVE ( 'NONE', #226, #408, #52, .T. ) ;
#259 = ORIENTED_EDGE ( 'NONE', *, *, #273, .T. ) ;
#260 = DIRECTION ( 'NONE',  ( -0.000000000000000000, -1.000000000000000000, -0.000000000000000000 ) ) ;
#261 = EDGE_LOOP ( 'NONE', ( #250, #176 ) ) ;
#262 = AXIS2_PLACEMENT_3D ( 'NONE', #130, #323, #278 ) ;
#263 = CARTESIAN_POINT ( 'NONE',  ( 40.99999999999999289, 2.500000000000000000, 41.00000000000000000 ) ) ;
#264 = ORIENTED_EDGE ( 'NONE', *, *, #47, .T. ) ;
#265 = DIRECTION ( 'NONE',  ( -0.000000000000000000, -1.000000000000000000, -0.000000000000000000 ) ) ;
#266 = ORIENTED_EDGE ( 'NONE', *, *, #39, .T. ) ;
#267 = DIRECTION ( 'NONE',  ( 0.000000000000000000, 0.000000000000000000, -1.000000000000000000 ) ) ;
#268 = CARTESIAN_POINT ( 'NONE',  ( -41.00000000000000711, 2.500000000000000000, 40.99999999999999289 ) ) ;
#269 = PRODUCT_DEFINITION_CONTEXT ( 'detailed design', #107, 'design' ) ;
#270 = CYLINDRICAL_SURFACE ( 'NONE', #388, 2.000000000000001776 ) ;
#271 = CIRCLE ( 'NONE', #193, 2.000000000000001776 ) ;
#272 = AXIS2_PLACEMENT_3D ( 'NONE', #482, #373, #488 ) ;
#273 = EDGE_CURVE ( 'NONE', #145, #226, #24, .T. ) ;
#274 = CARTESIAN_POINT ( 'NONE',  ( 1.628780242865979955E-15, 2.500000000000000000, 13.30000000000000071 ) ) ;
#275 = DIRECTION ( 'NONE',  ( 0.000000000000000000, -1.000000000000000000, 0.000000000000000000 ) ) ;
#276 = CYLINDRICAL_SURFACE ( 'NONE', #23, 2.000000000000001776 ) ;
#277 = CYLINDRICAL_SURFACE ( 'NONE', #87, 13.30000000000000071 ) ;
#278 = DIRECTION ( 'NONE',  ( 0.000000000000000000, 0.000000000000000000, -1.000000000000000000 ) ) ;
#279 = DIRECTION ( 'NONE',  ( 0.000000000000000000, 1.000000000000000000, 0.000000000000000000 ) ) ;
#280 = DIRECTION ( 'NONE',  ( -0.000000000000000000, -1.000000000000000000, -0.000000000000000000 ) ) ;
#281 = AXIS2_PLACEMENT_3D ( 'NONE', #12, #16, #134 ) ;
#282 = DIRECTION ( 'NONE',  ( -0.000000000000000000, -1.000000000000000000, -0.000000000000000000 ) ) ;
#283 = CARTESIAN_POINT ( 'NONE',  ( -41.00000000000000711, 0.000000000000000000, -43.00000000000000711 ) ) ;
#284 = CLOSED_SHELL ( 'NONE', ( #481, #127, #230, #384, #242, #348, #207, #186, #444, #112, #360, #3, #81, #397 ) ) ;
#285 = AXIS2_PLACEMENT_3D ( 'NONE', #86, #170, #445 ) ;
#286 = MECHANICAL_DESIGN_GEOMETRIC_PRESENTATION_REPRESENTATION (  '', ( #73 ), #156 ) ;
#287 = DIRECTION ( 'NONE',  ( 0.000000000000000000, -0.000000000000000000, 1.000000000000000000 ) ) ;
#288 = DIRECTION ( 'NONE',  ( 0.000000000000000000, -1.000000000000000000, 0.000000000000000000 ) ) ;
#289 = ORIENTED_EDGE ( 'NONE', *, *, #480, .T. ) ;
#290 = ORIENTED_EDGE ( 'NONE', *, *, #273, .F. ) ;
#291 = CIRCLE ( 'NONE', #304, 65.00000000000001421 ) ;
#292 = ORIENTED_EDGE ( 'NONE', *, *, #258, .T. ) ;
#293 = CIRCLE ( 'NONE', #272, 2.000000000000001776 ) ;
#294 = EDGE_CURVE ( 'NONE', #55, #159, #326, .T. ) ;
#295 = EDGE_CURVE ( 'NONE', #403, #92, #365, .T. ) ;
#296 = CARTESIAN_POINT ( 'NONE',  ( 0.000000000000000000, 0.000000000000000000, 0.000000000000000000 ) ) ;
#297 = ORIENTED_EDGE ( 'NONE', *, *, #396, .F. ) ;
#298 = ORIENTED_EDGE ( 'NONE', *, *, #295, .F. ) ;
#299 = FACE_OUTER_BOUND ( 'NONE', #261, .T. ) ;
#300 = ORIENTED_EDGE ( 'NONE', *, *, #151, .F. ) ;
#301 = VERTEX_POINT ( 'NONE', #198 ) ;
#302 = DIRECTION ( 'NONE',  ( 0.000000000000000000, 0.000000000000000000, 1.000000000000000000 ) ) ;
#303 = ORIENTED_EDGE ( 'NONE', *, *, #349, .T. ) ;
#304 = AXIS2_PLACEMENT_3D ( 'NONE', #32, #345, #489 ) ;
#305 = AXIS2_PLACEMENT_3D ( 'NONE', #421, #111, #351 ) ;
#306 = CARTESIAN_POINT ( 'NONE',  ( 40.99999999999999289, 2.500000000000000000, -39.00000000000000000 ) ) ;
#307 = EDGE_LOOP ( 'NONE', ( #290, #437, #220, #143 ) ) ;
#308 = LINE ( 'NONE', #374, #237 ) ;
#309 = DIRECTION ( 'NONE',  ( 0.000000000000000000, 0.000000000000000000, -1.000000000000000000 ) ) ;
#310 = CARTESIAN_POINT ( 'NONE',  ( -41.00000000000000711, 2.500000000000000000, 40.99999999999999289 ) ) ;
#311 = AXIS2_PLACEMENT_3D ( 'NONE', #209, #280, #467 ) ;
#312 = EDGE_CURVE ( 'NONE', #159, #55, #147, .T. ) ;
#313 = EDGE_CURVE ( 'NONE', #329, #239, #236, .T. ) ;
#314 = ORIENTED_EDGE ( 'NONE', *, *, #312, .F. ) ;
#315 = DIRECTION ( 'NONE',  ( 0.000000000000000000, 0.000000000000000000, -1.000000000000000000 ) ) ;
#316 = CARTESIAN_POINT ( 'NONE',  ( 40.99999999999999289, 2.500000000000000000, -41.00000000000000000 ) ) ;
#317 = CIRCLE ( 'NONE', #139, 2.000000000000001776 ) ;
#318 = CARTESIAN_POINT ( 'NONE',  ( 1.628780242865979955E-15, 2.500000000000000000, 13.30000000000000071 ) ) ;
#319 = FACE_OUTER_BOUND ( 'NONE', #339, .T. ) ;
#320 = DIRECTION ( 'NONE',  ( 0.000000000000000000, 0.000000000000000000, -1.000000000000000000 ) ) ;
#321 = DIRECTION ( 'NONE',  ( 0.000000000000000000, 0.000000000000000000, -1.000000000000000000 ) ) ;
#322 = CARTESIAN_POINT ( 'NONE',  ( 40.99999999999999289, 2.500000000000000000, -39.00000000000000000 ) ) ;
#323 = DIRECTION ( 'NONE',  ( -0.000000000000000000, -1.000000000000000000, -0.000000000000000000 ) ) ;
#324 =( NAMED_UNIT ( * ) SI_UNIT ( $, .STERADIAN. ) SOLID_ANGLE_UNIT ( ) );
#325 = CIRCLE ( 'NONE', #104, 13.30000000000000071 ) ;
#326 = CIRCLE ( 'NONE', #305, 2.000000000000001776 ) ;
#327 = AXIS2_PLACEMENT_3D ( 'NONE', #422, #495, #152 ) ;
#328 = ORIENTED_EDGE ( 'NONE', *, *, #480, .F. ) ;
#329 = VERTEX_POINT ( 'NONE', #235 ) ;
#330 = PRODUCT ( 'SS Plate 1', 'SS Plate 1', '', ( #432 ) ) ;
#331 = EDGE_CURVE ( 'NONE', #179, #136, #163, .T. ) ;
#332 = ORIENTED_EDGE ( 'NONE', *, *, #47, .F. ) ;
#333 = PLANE ( 'NONE',  #183 ) ;
#334 = ORIENTED_EDGE ( 'NONE', *, *, #219, .F. ) ;
#335 = AXIS2_PLACEMENT_3D ( 'NONE', #169, #427, #463 ) ;
#336 = AXIS2_PLACEMENT_3D ( 'NONE', #248, #214, #84 ) ;
#337 = ORIENTED_EDGE ( 'NONE', *, *, #113, .T. ) ;
#338 = CYLINDRICAL_SURFACE ( 'NONE', #96, 2.000000000000001776 ) ;
#339 = EDGE_LOOP ( 'NONE', ( #475, #411, #72, #341 ) ) ;
#340 = CARTESIAN_POINT ( 'NONE',  ( 40.99999999999999289, 2.500000000000000000, -43.00000000000000000 ) ) ;
#341 = ORIENTED_EDGE ( 'NONE', *, *, #417, .F. ) ;
#342 = FACE_BOUND ( 'NONE', #97, .T. ) ;
#343 = ORIENTED_EDGE ( 'NONE', *, *, #429, .F. ) ;
#344 = CARTESIAN_POINT ( 'NONE',  ( 1.628780242865979955E-15, 0.000000000000000000, 13.30000000000000071 ) ) ;
#345 = DIRECTION ( 'NONE',  ( 0.000000000000000000, 1.000000000000000000, 0.000000000000000000 ) ) ;
#346 = CARTESIAN_POINT ( 'NONE',  ( 40.99999999999999289, 2.500000000000000000, 41.00000000000000000 ) ) ;
#347 = EDGE_LOOP ( 'NONE', ( #343, #15, #18, #253 ) ) ;
#348 = ADVANCED_FACE ( 'NONE', ( #386 ), #201, .T. ) ;
#349 = EDGE_CURVE ( 'NONE', #383, #405, #79, .T. ) ;
#350 = DIRECTION ( 'NONE',  ( 0.000000000000000000, -1.000000000000000000, 0.000000000000000000 ) ) ;
#351 = DIRECTION ( 'NONE',  ( 0.000000000000000000, 0.000000000000000000, -1.000000000000000000 ) ) ;
#352 = DIRECTION ( 'NONE',  ( -0.000000000000000000, -1.000000000000000000, -0.000000000000000000 ) ) ;
#353 = DIRECTION ( 'NONE',  ( 0.000000000000000000, -1.000000000000000000, 0.000000000000000000 ) ) ;
#354 = MANIFOLD_SOLID_BREP ( 'Cut-Extrude2', #284 ) ;
#355 = CARTESIAN_POINT ( 'NONE',  ( 0.000000000000000000, 2.500000000000000000, -65.00000000000001421 ) ) ;
#356 = LINE ( 'NONE', #11, #192 ) ;
#357 = AXIS2_PLACEMENT_3D ( 'NONE', #316, #471, #359 ) ;
#358 = FACE_OUTER_BOUND ( 'NONE', #184, .T. ) ;
#359 = DIRECTION ( 'NONE',  ( 0.000000000000000000, 0.000000000000000000, -1.000000000000000000 ) ) ;
#360 = ADVANCED_FACE ( 'NONE', ( #154 ), #270, .F. ) ;
#361 = DIRECTION ( 'NONE',  ( 0.000000000000000000, 0.000000000000000000, -1.000000000000000000 ) ) ;
#362 = CARTESIAN_POINT ( 'NONE',  ( -41.00000000000000711, 0.000000000000000000, -41.00000000000000711 ) ) ;
#363 = PRODUCT_DEFINITION_FORMATION_WITH_SPECIFIED_SOURCE ( 'ANY', '', #330, .NOT_KNOWN. ) ;
#364 = EDGE_LOOP ( 'NONE', ( #225, #440 ) ) ;
#365 = CIRCLE ( 'NONE', #438, 2.000000000000001776 ) ;
#366 = AXIS2_PLACEMENT_3D ( 'NONE', #419, #234, #267 ) ;
#367 = ORIENTED_EDGE ( 'NONE', *, *, #168, .T. ) ;
#368 = EDGE_LOOP ( 'NONE', ( #484, #215, #264, #303 ) ) ;
#369 = EDGE_CURVE ( 'NONE', #301, #239, #433, .T. ) ;
#370 = EDGE_LOOP ( 'NONE', ( #415, #328 ) ) ;
#371 = DIRECTION ( 'NONE',  ( 0.000000000000000000, 0.000000000000000000, -1.000000000000000000 ) ) ;
#372 = EDGE_LOOP ( 'NONE', ( #181, #451, #337, #91 ) ) ;
#373 = DIRECTION ( 'NONE',  ( 0.000000000000000000, -1.000000000000000000, 0.000000000000000000 ) ) ;
#374 = CARTESIAN_POINT ( 'NONE',  ( 40.99999999999999289, 2.500000000000000000, 39.00000000000000000 ) ) ;
#375 = DIRECTION ( 'NONE',  ( 0.000000000000000000, 0.000000000000000000, -1.000000000000000000 ) ) ;
#376 = ORIENTED_EDGE ( 'NONE', *, *, #219, .T. ) ;
#377 = DIRECTION ( 'NONE',  ( -0.000000000000000000, -1.000000000000000000, -0.000000000000000000 ) ) ;
#378 = DIRECTION ( 'NONE',  ( -0.000000000000000000, -1.000000000000000000, -0.000000000000000000 ) ) ;
#379 = VECTOR ( 'NONE', #51, 1000.000000000000000 ) ;
#380 = AXIS2_PLACEMENT_3D ( 'NONE', #89, #460, #361 ) ;
#381 = CARTESIAN_POINT ( 'NONE',  ( 0.000000000000000000, 2.500000000000000000, 0.000000000000000000 ) ) ;
#382 = EDGE_CURVE ( 'NONE', #173, #405, #385, .T. ) ;
#383 = VERTEX_POINT ( 'NONE', #456 ) ;
#384 = ADVANCED_FACE ( 'NONE', ( #77 ), #338, .F. ) ;
#385 = LINE ( 'NONE', #274, #174 ) ;
#386 = FACE_OUTER_BOUND ( 'NONE', #307, .T. ) ;
#387 = AXIS2_PLACEMENT_3D ( 'NONE', #409, #64, #27 ) ;
#388 = AXIS2_PLACEMENT_3D ( 'NONE', #310, #452, #40 ) ;
#389 = LINE ( 'NONE', #43, #114 ) ;
#390 = ORIENTED_EDGE ( 'NONE', *, *, #95, .T. ) ;
#391 = CARTESIAN_POINT ( 'NONE',  ( 0.000000000000000000, 2.500000000000000000, -65.00000000000001421 ) ) ;
#392 = CARTESIAN_POINT ( 'NONE',  ( 40.99999999999999289, 2.500000000000000000, 39.00000000000000000 ) ) ;
#393 = CARTESIAN_POINT ( 'NONE',  ( -41.00000000000000711, 2.500000000000000000, -41.00000000000000711 ) ) ;
#394 = CARTESIAN_POINT ( 'NONE',  ( 0.000000000000000000, 2.500000000000000000, 0.000000000000000000 ) ) ;
#395 = CIRCLE ( 'NONE', #78, 2.000000000000001776 ) ;
#396 = EDGE_CURVE ( 'NONE', #92, #403, #317, .T. ) ;
#397 = ADVANCED_FACE ( 'NONE', ( #227 ), #187, .F. ) ;
#398 = DIRECTION ( 'NONE',  ( -0.000000000000000000, -1.000000000000000000, -0.000000000000000000 ) ) ;
#399 = LINE ( 'NONE', #211, #137 ) ;
#400 = CARTESIAN_POINT ( 'NONE',  ( 40.99999999999999289, 0.000000000000000000, -39.00000000000000000 ) ) ;
#401 =( GEOMETRIC_REPRESENTATION_CONTEXT ( 3 ) GLOBAL_UNCERTAINTY_ASSIGNED_CONTEXT ( ( #155 ) ) GLOBAL_UNIT_ASSIGNED_CONTEXT ( ( #67, #175, #324 ) ) REPRESENTATION_CONTEXT ( 'NONE', 'WORKASPACE' ) );
#402 = ORIENTED_EDGE ( 'NONE', *, *, #75, .F. ) ;
#403 = VERTEX_POINT ( 'NONE', #189 ) ;
#404 = CIRCLE ( 'NONE', #357, 2.000000000000001776 ) ;
#405 = VERTEX_POINT ( 'NONE', #344 ) ;
#406 = EDGE_LOOP ( 'NONE', ( #436, #390 ) ) ;
#407 = DIRECTION ( 'NONE',  ( 0.000000000000000000, -1.000000000000000000, 0.000000000000000000 ) ) ;
#408 = VERTEX_POINT ( 'NONE', #218 ) ;
#409 = CARTESIAN_POINT ( 'NONE',  ( 40.99999999999999289, 2.500000000000000000, -41.00000000000000000 ) ) ;
#410 = EDGE_LOOP ( 'NONE', ( #448, #297, #93, #131 ) ) ;
#411 = ORIENTED_EDGE ( 'NONE', *, *, #464, .T. ) ;
#412 = FACE_BOUND ( 'NONE', #194, .T. ) ;
#413 = ORIENTED_EDGE ( 'NONE', *, *, #60, .T. ) ;
#414 = CARTESIAN_POINT ( 'NONE',  ( 0.000000000000000000, 2.500000000000000000, 0.000000000000000000 ) ) ;
#415 = ORIENTED_EDGE ( 'NONE', *, *, #349, .F. ) ;
#416 = DIRECTION ( 'NONE',  ( -0.000000000000000000, -1.000000000000000000, -0.000000000000000000 ) ) ;
#417 = EDGE_CURVE ( 'NONE', #446, #136, #31, .T. ) ;
#418 = ORIENTED_EDGE ( 'NONE', *, *, #490, .T. ) ;
#419 = CARTESIAN_POINT ( 'NONE',  ( -41.00000000000000711, 0.000000000000000000, 40.99999999999999289 ) ) ;
#420 = SURFACE_STYLE_USAGE ( .BOTH. , #158 ) ;
#421 = CARTESIAN_POINT ( 'NONE',  ( 40.99999999999999289, 0.000000000000000000, 41.00000000000000000 ) ) ;
#422 = CARTESIAN_POINT ( 'NONE',  ( 0.000000000000000000, 0.000000000000000000, 0.000000000000000000 ) ) ;
#423 = EDGE_LOOP ( 'NONE', ( #251, #376, #100, #102 ) ) ;
#424 = CARTESIAN_POINT ( 'NONE',  ( 0.000000000000000000, 2.500000000000000000, 0.000000000000000000 ) ) ;
#425 = CARTESIAN_POINT ( 'NONE',  ( 0.000000000000000000, 2.500000000000000000, 0.000000000000000000 ) ) ;
#426 = CYLINDRICAL_SURFACE ( 'NONE', #336, 65.00000000000001421 ) ;
#427 = DIRECTION ( 'NONE',  ( -0.000000000000000000, -1.000000000000000000, -0.000000000000000000 ) ) ;
#428 = EDGE_CURVE ( 'NONE', #408, #21, #232, .T. ) ;
#429 = EDGE_CURVE ( 'NONE', #329, #458, #293, .T. ) ;
#430 = DIRECTION ( 'NONE',  ( -0.000000000000000000, -1.000000000000000000, -0.000000000000000000 ) ) ;
#431 = DIRECTION ( 'NONE',  ( -0.000000000000000000, -1.000000000000000000, -0.000000000000000000 ) ) ;
#432 = PRODUCT_CONTEXT ( 'NONE', #17, 'mechanical' ) ;
#433 = CIRCLE ( 'NONE', #366, 2.000000000000001776 ) ;
#434 = DIRECTION ( 'NONE',  ( 0.000000000000000000, -1.000000000000000000, 0.000000000000000000 ) ) ;
#435 = CARTESIAN_POINT ( 'NONE',  ( -41.00000000000000711, 2.500000000000000000, -39.00000000000000711 ) ) ;
#436 = ORIENTED_EDGE ( 'NONE', *, *, #466, .T. ) ;
#437 = ORIENTED_EDGE ( 'NONE', *, *, #151, .T. ) ;
#438 = AXIS2_PLACEMENT_3D ( 'NONE', #346, #350, #309 ) ;
#439 = AXIS2_PLACEMENT_3D ( 'NONE', #106, #377, #141 ) ;
#440 = ORIENTED_EDGE ( 'NONE', *, *, #331, .F. ) ;
#441 = CARTESIAN_POINT ( 'NONE',  ( 0.000000000000000000, 0.000000000000000000, 0.000000000000000000 ) ) ;
#442 = ORIENTED_EDGE ( 'NONE', *, *, #75, .T. ) ;
#443 = CYLINDRICAL_SURFACE ( 'NONE', #70, 2.000000000000001776 ) ;
#444 = ADVANCED_FACE ( 'NONE', ( #149, #180, #342, #412, #98, #299 ), #333, .F. ) ;
#445 = DIRECTION ( 'NONE',  ( 0.000000000000000000, 0.000000000000000000, 1.000000000000000000 ) ) ;
#446 = VERTEX_POINT ( 'NONE', #340 ) ;
#447 = DIRECTION ( 'NONE',  ( 0.000000000000000000, -0.000000000000000000, 1.000000000000000000 ) ) ;
#448 = ORIENTED_EDGE ( 'NONE', *, *, #168, .F. ) ;
#449 = DIRECTION ( 'NONE',  ( 0.000000000000000000, -1.000000000000000000, 0.000000000000000000 ) ) ;
#450 = PRODUCT_DEFINITION ( 'UNKNOWN', '', #363, #269 ) ;
#451 = ORIENTED_EDGE ( 'NONE', *, *, #39, .F. ) ;
#452 = DIRECTION ( 'NONE',  ( -0.000000000000000000, -1.000000000000000000, -0.000000000000000000 ) ) ;
#453 = DIRECTION ( 'NONE',  ( -0.000000000000000000, -1.000000000000000000, -0.000000000000000000 ) ) ;
#454 = AXIS2_PLACEMENT_3D ( 'NONE', #5, #434, #315 ) ;
#455 = AXIS2_PLACEMENT_3D ( 'NONE', #414, #449, #375 ) ;
#456 = CARTESIAN_POINT ( 'NONE',  ( 0.000000000000000000, 0.000000000000000000, -13.30000000000000071 ) ) ;
#457 = FILL_AREA_STYLE_COLOUR ( '', #129 ) ;
#458 = VERTEX_POINT ( 'NONE', #256 ) ;
#459 = AXIS2_PLACEMENT_3D ( 'NONE', #268, #28, #205 ) ;
#460 = DIRECTION ( 'NONE',  ( 0.000000000000000000, -1.000000000000000000, 0.000000000000000000 ) ) ;
#461 = AXIS2_PLACEMENT_3D ( 'NONE', #465, #279, #287 ) ;
#462 = CIRCLE ( 'NONE', #472, 2.000000000000001776 ) ;
#463 = DIRECTION ( 'NONE',  ( 0.000000000000000000, 0.000000000000000000, -1.000000000000000000 ) ) ;
#464 = EDGE_CURVE ( 'NONE', #177, #179, #146, .T. ) ;
#465 = CARTESIAN_POINT ( 'NONE',  ( 0.000000000000000000, 2.500000000000000000, 0.000000000000000000 ) ) ;
#466 = EDGE_CURVE ( 'NONE', #197, #173, #115, .T. ) ;
#467 = DIRECTION ( 'NONE',  ( 0.000000000000000000, 0.000000000000000000, -1.000000000000000000 ) ) ;
#468 = CARTESIAN_POINT ( 'NONE',  ( 40.99999999999999289, 2.500000000000000000, 43.00000000000000000 ) ) ;
#469 = CARTESIAN_POINT ( 'NONE',  ( 40.99999999999999289, 0.000000000000000000, -43.00000000000000000 ) ) ;
#470 = CARTESIAN_POINT ( 'NONE',  ( -41.00000000000000711, 2.500000000000000000, -43.00000000000000711 ) ) ;
#471 = DIRECTION ( 'NONE',  ( 0.000000000000000000, -1.000000000000000000, 0.000000000000000000 ) ) ;
#472 = AXIS2_PLACEMENT_3D ( 'NONE', #393, #48, #240 ) ;
#473 = ORIENTED_EDGE ( 'NONE', *, *, #206, .F. ) ;
#474 = ORIENTED_EDGE ( 'NONE', *, *, #294, .F. ) ;
#475 = ORIENTED_EDGE ( 'NONE', *, *, #490, .F. ) ;
#476 = CARTESIAN_POINT ( 'NONE',  ( 0.000000000000000000, 0.000000000000000000, 0.000000000000000000 ) ) ;
#477 = CIRCLE ( 'NONE', #56, 65.00000000000001421 ) ;
#478 = PRESENTATION_LAYER_ASSIGNMENT (  '', '', ( #73 ) ) ;
#479 = EDGE_LOOP ( 'NONE', ( #140, #203 ) ) ;
#480 = EDGE_CURVE ( 'NONE', #405, #383, #245, .T. ) ;
#481 = ADVANCED_FACE ( 'NONE', ( #182 ), #443, .F. ) ;
#482 = CARTESIAN_POINT ( 'NONE',  ( -41.00000000000000711, 2.500000000000000000, 40.99999999999999289 ) ) ;
#483 = DIRECTION ( 'NONE',  ( 0.000000000000000000, 0.000000000000000000, -1.000000000000000000 ) ) ;
#484 = ORIENTED_EDGE ( 'NONE', *, *, #382, .F. ) ;
#485 = ORIENTED_EDGE ( 'NONE', *, *, #294, .T. ) ;
#486 = CARTESIAN_POINT ( 'NONE',  ( -41.00000000000000711, 2.500000000000000000, 40.99999999999999289 ) ) ;
#487 = ORIENTED_EDGE ( 'NONE', *, *, #135, .F. ) ;
#488 = DIRECTION ( 'NONE',  ( 0.000000000000000000, 0.000000000000000000, -1.000000000000000000 ) ) ;
#489 = DIRECTION ( 'NONE',  ( 0.000000000000000000, 0.000000000000000000, 1.000000000000000000 ) ) ;
#490 = EDGE_CURVE ( 'NONE', #177, #446, #153, .T. ) ;
#491 = DIRECTION ( 'NONE',  ( 0.000000000000000000, -1.000000000000000000, 0.000000000000000000 ) ) ;
#492 = ORIENTED_EDGE ( 'NONE', *, *, #417, .T. ) ;
#493 =( NAMED_UNIT ( * ) PLANE_ANGLE_UNIT ( ) SI_UNIT ( $, .RADIAN. ) );
#494 = DIRECTION ( 'NONE',  ( 0.000000000000000000, 0.000000000000000000, -1.000000000000000000 ) ) ;
#495 = DIRECTION ( 'NONE',  ( 0.000000000000000000, -1.000000000000000000, 0.000000000000000000 ) ) ;
ENDSEC;
END-ISO-10303-21;
